<svg width="189" height="189" xmlns="http://www.w3.org/2000/svg" xmlns:xlink="http://www.w3.org/1999/xlink" overflow="hidden"><defs><clipPath id="clip0"><path d="M0 0 189 0 189 189 0 189Z" fill-rule="evenodd" clip-rule="evenodd"/></clipPath><clipPath id="clip1"><path d="M3 3 47 3 47 48 3 48Z" fill-rule="evenodd" clip-rule="evenodd"/></clipPath><clipPath id="clip2"><path d="M3 3 47 3 47 48 3 48Z" fill-rule="evenodd" clip-rule="evenodd"/></clipPath><clipPath id="clip3"><path d="M3 3 47 3 47 48 3 48Z" fill-rule="evenodd" clip-rule="evenodd"/></clipPath></defs><g clip-path="url(#clip0)"><rect x="0" y="0" width="189" height="189" fill="#313131"/><text fill="#FFFFFF" font-family="Calibri,Calibri_MSFontService,sans-serif" font-weight="300" font-size="11" transform="translate(9.60032 -5)">PROMOTION</text><rect x="3.50005" y="3.50005" width="1" height="1" stroke="#2F528F" stroke-width="1.33333" stroke-miterlimit="8" fill="#4472C4"/><rect x="0" y="0" width="189" height="189" stroke="#911EB4" stroke-width="8" stroke-miterlimit="8" fill="#FFFFFF"/><g clip-path="url(#clip1)"><g clip-path="url(#clip2)"><g clip-path="url(#clip3)"><path d="M20.1667 25.8885 13.3687 29.3333 14.6667 22.0367 9.16667 16.8703 16.7677 15.8052 20.1667 9.16667 23.5657 15.8052 31.1667 16.8703 25.6667 22.0367 26.9647 29.3333Z" transform="matrix(1 0 -0 1.02273 4.83333 4.875)"/><path d="M20.1667 40.3333C9.0475 40.3333 0 31.284 0 20.1667 0 9.0475 9.0475 0 20.1667 0 31.284 0 40.3333 9.0475 40.3333 20.1667 40.3333 31.284 31.284 40.3333 20.1667 40.3333ZM20.1667 3.66667C11.0697 3.66667 3.66667 11.0697 3.66667 20.1667 3.66667 29.2655 11.0697 36.6667 20.1667 36.6667 29.2655 36.6667 36.6667 29.2655 36.6667 20.1667 36.6667 11.0697 29.2655 3.66667 20.1667 3.66667Z" transform="matrix(1 0 -0 1.02273 4.83333 4.875)"/></g></g></g><text font-family="Calibri,Calibri_MSFontService,sans-serif" font-weight="700" font-size="20" transform="translate(62.8615 23)">PROMOTION<tspan font-weight="400" font-size="12" x="-56.3225" y="64">The activities that communicate the </tspan><tspan font-size="12" x="-56.3225" y="79">Product’s features</tspan><tspan font-weight="400" font-size="12" x="38.0109" y="79">and benefits </tspan><tspan font-weight="400" font-size="12" x="-56.3225" y="93">and persuade customers to </tspan><tspan font-weight="400" font-size="12" x="-56.3225" y="107">purchase the </tspan><tspan font-size="12" x="9.8442" y="107">Product</tspan><tspan font-weight="400" font-size="12" x="49.1775" y="107">. Can include </tspan><tspan font-weight="400" font-size="12" x="-56.3225" y="122">advertising, personal selling, sales </tspan><tspan font-weight="400" font-size="12" x="-56.3225" y="136">promotion, public relations.</tspan></text></g></svg>