<svg width="265" height="265" xmlns="http://www.w3.org/2000/svg" xmlns:xlink="http://www.w3.org/1999/xlink" overflow="hidden"><defs><clipPath id="clip0"><path d="M0 0 265 0 265 265 0 265Z" fill-rule="evenodd" clip-rule="evenodd"/></clipPath><clipPath id="clip1"><path d="M35 51 55 51 55 71 35 71Z" fill-rule="evenodd" clip-rule="evenodd"/></clipPath><clipPath id="clip2"><path d="M35 51 55 51 55 71 35 71Z" fill-rule="evenodd" clip-rule="evenodd"/></clipPath><clipPath id="clip3"><path d="M35 51 55 51 55 71 35 71Z" fill-rule="evenodd" clip-rule="evenodd"/></clipPath><clipPath id="clip4"><path d="M71 222 82 222 82 234 71 234Z" fill-rule="evenodd" clip-rule="evenodd"/></clipPath><clipPath id="clip5"><path d="M71 222 82 222 82 234 71 234Z" fill-rule="evenodd" clip-rule="evenodd"/></clipPath><clipPath id="clip6"><path d="M71 222 82 222 82 234 71 234Z" fill-rule="evenodd" clip-rule="evenodd"/></clipPath></defs><g clip-path="url(#clip0)"><rect x="0" y="0" width="265" height="265" fill="#313131"/><rect x="89.5" y="131.5" width="1.99999" height="1" stroke="#2F528F" stroke-width="1.33585" stroke-miterlimit="8" fill="#4472C4"/><path d="M23.5 9.75271C23.5 8.50859 24.5085 7.50003 25.7527 7.50003L249.247 7.50003C250.491 7.50003 251.5 8.50859 251.5 9.75271L251.5 249.247C251.5 250.491 250.491 251.5 249.247 251.5L25.7527 251.5C24.5085 251.5 23.5 250.491 23.5 249.247Z" stroke="#FF0000" stroke-width="0.667927" stroke-miterlimit="8" stroke-opacity="0" fill="none" fill-rule="evenodd"/><path d="M30.0794 43.5 149.921 43.5C153.002 43.5 155.5 45.998 155.5 49.0794L155.5 214.252C155.5 216.598 153.598 218.5 151.252 218.5L28.7483 218.5C26.402 218.5 24.5 216.598 24.5 214.252L24.5 49.0794C24.5 45.998 26.998 43.5 30.0794 43.5Z" stroke="#377692" stroke-width="4.67549" stroke-miterlimit="8" fill="#FFFFFF" fill-rule="evenodd"/><g clip-path="url(#clip1)"><g clip-path="url(#clip2)"><g clip-path="url(#clip3)"><path d="M39.75 57.5416C38.4042 57.5416 37.375 56.5125 37.375 55.1666 37.375 53.8208 38.4042 52.7916 39.75 52.7916 41.0958 52.7916 42.125 53.8208 42.125 55.1666 42.125 56.5125 41.0958 57.5416 39.75 57.5416ZM39.75 54.375C39.275 54.375 38.9583 54.6916 38.9583 55.1666 38.9583 55.6416 39.275 55.9583 39.75 55.9583 40.225 55.9583 40.5417 55.6416 40.5417 55.1666 40.5417 54.6916 40.225 54.375 39.75 54.375Z"/><path d="M42.9167 63.0833C42.4417 63.0833 42.125 62.7666 42.125 62.2916L42.125 60.7083C42.125 60.2333 41.8083 59.9166 41.3333 59.9166L38.1667 59.9166C37.6917 59.9166 37.375 60.2333 37.375 60.7083L37.375 62.2916C37.375 62.7666 37.0583 63.0833 36.5833 63.0833 36.1083 63.0833 35.7917 62.7666 35.7917 62.2916L35.7917 60.7083C35.7917 59.3625 36.8208 58.3333 38.1667 58.3333L41.3333 58.3333C42.6792 58.3333 43.7084 59.3625 43.7084 60.7083L43.7084 62.2916C43.7084 62.7666 43.3917 63.0833 42.9167 63.0833Z"/><path d="M49.25 57.5416C47.9042 57.5416 46.875 56.5125 46.875 55.1666 46.875 53.8208 47.9042 52.7916 49.25 52.7916 50.5959 52.7916 51.625 53.8208 51.625 55.1666 51.625 56.5125 50.5959 57.5416 49.25 57.5416ZM49.25 54.375C48.775 54.375 48.4584 54.6916 48.4584 55.1666 48.4584 55.6416 48.775 55.9583 49.25 55.9583 49.725 55.9583 50.0417 55.6416 50.0417 55.1666 50.0417 54.6916 49.725 54.375 49.25 54.375Z"/><path d="M52.4167 63.0833C51.9417 63.0833 51.625 62.7666 51.625 62.2916L51.625 60.7083C51.625 60.2333 51.3084 59.9166 50.8334 59.9166L47.6667 59.9166C47.1917 59.9166 46.875 60.2333 46.875 60.7083L46.875 62.2916C46.875 62.7666 46.5584 63.0833 46.0834 63.0833 45.6084 63.0833 45.2917 62.7666 45.2917 62.2916L45.2917 60.7083C45.2917 59.3625 46.3209 58.3333 47.6667 58.3333L50.8334 58.3333C52.1792 58.3333 53.2084 59.3625 53.2084 60.7083L53.2084 62.2916C53.2084 62.7666 52.8917 63.0833 52.4167 63.0833Z"/><path d="M38.9583 69.4167 36.5833 69.4167C36.1083 69.4167 35.7917 69.1 35.7917 68.625L35.7917 66.25C35.7917 65.775 36.1083 65.4583 36.5833 65.4583 37.0583 65.4583 37.375 65.775 37.375 66.25L37.375 67.8333 38.9583 67.8333C39.4333 67.8333 39.75 68.15 39.75 68.625 39.75 69.1 39.4333 69.4167 38.9583 69.4167Z"/><path d="M52.4167 69.4167 50.0417 69.4167C49.5667 69.4167 49.25 69.1 49.25 68.625 49.25 68.15 49.5667 67.8333 50.0417 67.8333L51.625 67.8333 51.625 66.25C51.625 65.775 51.9417 65.4583 52.4167 65.4583 52.8917 65.4583 53.2084 65.775 53.2084 66.25L53.2084 68.625C53.2084 69.1 52.8917 69.4167 52.4167 69.4167Z"/><path d="M46.875 71 42.125 71C41.65 71 41.3333 70.6833 41.3333 70.2083L41.3333 67.0417C41.3333 66.5667 41.65 66.25 42.125 66.25L46.875 66.25C47.35 66.25 47.6667 66.5667 47.6667 67.0417L47.6667 70.2083C47.6667 70.6833 47.35 71 46.875 71ZM42.9167 69.4167 46.0834 69.4167 46.0834 67.8333 42.9167 67.8333 42.9167 69.4167Z"/></g></g></g><path d="M26.9702 6.36947C18.5628 6.36947 11.7473 10.3112 11.7473 15.1736L11.7473 248.948C11.7473 253.81 18.5628 257.752 26.9702 257.752L238.08 257.752C246.487 257.752 253.302 253.81 253.302 248.948L253.302 15.1736C253.302 10.3112 246.487 6.36947 238.08 6.36947ZM0 0 265 0 265 265 0 265Z" fill="#377692" fill-rule="evenodd"/><text font-family="Calibri,Calibri_MSFontService,sans-serif" font-weight="700" font-size="11" transform="translate(61.439 63)">PROCESS GROUP<tspan font-weight="400" font-size="9" x="-30.1486" y="79">A taxonomical categorisation </tspan><tspan font-weight="400" font-size="9" x="-30.1486" y="90">of similar </tspan><tspan font-size="9" x="7.58923" y="90">Process</tspan><tspan font-weight="400" font-size="9" x="38.9818" y="90">types.</tspan></text><path d="M84 222 89.5 218 95 222Z" fill="#FFFFFF" fill-rule="evenodd"/><path d="M71.5001 226.5C71.5001 225.948 71.9478 225.5 72.5001 225.5L102.5 225.5C103.052 225.5 103.5 225.948 103.5 226.5L103.5 230.5C103.5 231.052 103.052 231.5 102.5 231.5L72.5001 231.5C71.9478 231.5 71.5001 231.052 71.5001 230.5Z" stroke="#377692" stroke-width="1.33585" stroke-miterlimit="8" fill="#FFFFFF" fill-rule="evenodd"/><text font-family="Calibri,Calibri_MSFontService,sans-serif" font-weight="700" font-size="5" transform="translate(83.0711 229)">PROCESS</text><g clip-path="url(#clip4)"><g clip-path="url(#clip5)"><g clip-path="url(#clip6)"><path d="M8.74997 3.74999 8.00664 3.74999 8.00664 1.67833C8.00664 1.44833 7.82081 1.26166 7.58998 1.26166L4.1904 1.26166C4.18207 1.26166 4.17499 1.26583 4.16665 1.26625L4.16665 0.833331C4.16665 0.603332 3.97999 0.416665 3.74999 0.416665L1.25 0.416665C1.02 0.416665 0.833331 0.603332 0.833331 0.833331L0.833331 2.49999C0.833331 2.72999 1.02 2.91666 1.25 2.91666L3.74999 2.91666C3.97999 2.91666 4.16665 2.72999 4.16665 2.49999L4.16665 2.09041C4.17499 2.09083 4.18207 2.09499 4.1904 2.09499L7.17331 2.09499 7.17331 3.74999 6.24998 3.74999C6.01957 3.74999 5.83332 3.93666 5.83332 4.16665L5.83332 4.58332 2.91666 4.58332C2.68666 4.58332 2.49999 4.76999 2.49999 4.99999L2.49999 7.08331 1.66666 7.08331C1.43666 7.08331 1.25 7.26956 1.25 7.49998L1.25 9.16664C1.25 9.39706 1.43666 9.58331 1.66666 9.58331L4.16665 9.58331C4.39707 9.58331 4.58332 9.39706 4.58332 9.16664L4.58332 8.74997 7.49998 8.74997C7.73039 8.74997 7.91664 8.56372 7.91664 8.33331L7.91664 6.24998 8.74997 6.24998C8.98039 6.24998 9.16664 6.06373 9.16664 5.83332L9.16664 4.16665C9.16664 3.93666 8.98039 3.74999 8.74997 3.74999ZM3.33332 2.08333 1.66666 2.08333 1.66666 1.25 3.33332 1.25 3.33332 2.08333ZM3.74999 8.74997 2.08333 8.74997 2.08333 7.91664 3.74999 7.91664 3.74999 8.74997ZM7.08331 7.91664 4.58332 7.91664 4.58332 7.49998C4.58332 7.26956 4.39707 7.08331 4.16665 7.08331L3.33332 7.08331 3.33332 5.41665 5.83332 5.41665 5.83332 5.83332C5.83332 6.06373 6.01957 6.24998 6.24998 6.24998L7.08331 6.24998 7.08331 7.91664ZM8.33331 5.41665 6.66665 5.41665 6.66665 4.58332 8.33331 4.58332 8.33331 5.41665Z" transform="matrix(1 0 -0 1.00001 72 223)"/></g></g></g></g></svg>