<svg width="189" height="189" xmlns="http://www.w3.org/2000/svg" xmlns:xlink="http://www.w3.org/1999/xlink" overflow="hidden"><defs><clipPath id="clip0"><path d="M0 0 189 0 189 189 0 189Z" fill-rule="evenodd" clip-rule="evenodd"/></clipPath><clipPath id="clip1"><path d="M3 3 47 3 47 48 3 48Z" fill-rule="evenodd" clip-rule="evenodd"/></clipPath><clipPath id="clip2"><path d="M3 3 47 3 47 48 3 48Z" fill-rule="evenodd" clip-rule="evenodd"/></clipPath><clipPath id="clip3"><path d="M3 3 47 3 47 48 3 48Z" fill-rule="evenodd" clip-rule="evenodd"/></clipPath></defs><g clip-path="url(#clip0)"><rect x="0" y="0" width="189" height="189" fill="#313131"/><text fill="#FFFFFF" font-family="Calibri,Calibri_MSFontService,sans-serif" font-weight="300" font-size="11" transform="translate(9.60032 -5)">VALUE ITEM</text><rect x="3.50005" y="3.50005" width="1" height="1" stroke="#2F528F" stroke-width="1.33333" stroke-miterlimit="8" fill="#4472C4"/><rect x="0" y="0" width="189" height="189" stroke="#5AA203" stroke-width="8" stroke-miterlimit="8" fill="#FFFFFF"/><g clip-path="url(#clip1)"><g clip-path="url(#clip2)"><g clip-path="url(#clip3)"><path d="M38.5 16.5 34.133 16.5C35.673 15.1543 36.6667 13.2018 36.6667 11 36.6667 6.95567 33.3777 3.66667 29.3333 3.66667 25.289 3.66667 22 6.95567 22 11 22 6.95567 18.711 3.66667 14.6667 3.66667 10.6223 3.66667 7.33333 6.95567 7.33333 11 7.33333 13.2018 8.327 15.1543 9.867 16.5L5.5 16.5C4.488 16.5 3.66667 17.3213 3.66667 18.3333L3.66667 25.6667C3.66667 26.6805 4.488 27.5 5.5 27.5L7.33333 27.5 7.33333 38.5C7.33333 39.5138 8.15467 40.3333 9.16667 40.3333L34.8333 40.3333C35.8472 40.3333 36.6667 39.5138 36.6667 38.5L36.6667 27.5 38.5 27.5C39.5138 27.5 40.3333 26.6805 40.3333 25.6667L40.3333 18.3333C40.3333 17.3213 39.5138 16.5 38.5 16.5ZM25.6667 11C25.6667 8.97783 27.3093 7.33333 29.3333 7.33333 31.3573 7.33333 33 8.97783 33 11 33 13.0222 31.3573 14.6667 29.3333 14.6667L25.6667 14.6667 25.6667 11ZM14.6667 7.33333C16.6888 7.33333 18.3333 8.97783 18.3333 11L18.3333 14.6667 14.6667 14.6667C12.6445 14.6667 11 13.0222 11 11 11 8.97783 12.6445 7.33333 14.6667 7.33333ZM7.33333 20.1667 20.1667 20.1667 20.1667 23.8333 9.16667 23.8333 7.33333 23.8333 7.33333 20.1667ZM11 27.5 20.1667 27.5 20.1667 36.6667 11 36.6667 11 27.5ZM33 36.6667 23.8333 36.6667 23.8333 27.5 33 27.5 33 36.6667ZM36.6667 23.8333 34.8333 23.8333 23.8333 23.8333 23.8333 20.1667 36.6667 20.1667 36.6667 23.8333Z" transform="matrix(1 0 -0 1.02273 3 3)"/></g></g></g><text font-family="Calibri,Calibri_MSFontService,sans-serif" font-weight="700" font-size="20" transform="translate(66.3215 23)">VALUE ITEM<tspan font-weight="400" font-size="12" x="-59.7825" y="86">The purpose of the Process. </tspan><tspan font-size="12" x="78.2175" y="86">Value </tspan><tspan font-size="12" x="-59.7825" y="101">items</tspan><tspan font-weight="400" font-size="12" x="-29.2825" y="101">are used to model the value </tspan><tspan font-weight="400" font-size="12" x="-59.7825" y="115">achieved by </tspan><tspan font-size="12" x="1.05087" y="115">Value stream stages</tspan><tspan font-weight="400" font-size="12" x="101.718" y="115">.</tspan></text></g></svg>