<svg width="189" height="189" xmlns="http://www.w3.org/2000/svg" xmlns:xlink="http://www.w3.org/1999/xlink" overflow="hidden"><defs><clipPath id="clip0"><path d="M0 0 189 0 189 189 0 189Z" fill-rule="evenodd" clip-rule="evenodd"/></clipPath><clipPath id="clip1"><path d="M3 3 47 3 47 48 3 48Z" fill-rule="evenodd" clip-rule="evenodd"/></clipPath><clipPath id="clip2"><path d="M3 3 47 3 47 48 3 48Z" fill-rule="evenodd" clip-rule="evenodd"/></clipPath><clipPath id="clip3"><path d="M3 3 47 3 47 48 3 48Z" fill-rule="evenodd" clip-rule="evenodd"/></clipPath></defs><g clip-path="url(#clip0)"><rect x="0" y="0" width="189" height="189" fill="#313131"/><text fill="#FFFFFF" font-family="Calibri,Calibri_MSFontService,sans-serif" font-weight="300" font-size="11" transform="translate(9.60032 -5)">USER</text><rect x="3.50005" y="3.50005" width="1" height="1" stroke="#2F528F" stroke-width="1.33333" stroke-miterlimit="8" fill="#4472C4"/><rect x="0" y="0" width="189" height="189" stroke="#CEB023" stroke-width="8" stroke-miterlimit="8" fill="#FFFFFF"/><g clip-path="url(#clip1)"><g clip-path="url(#clip2)"><g clip-path="url(#clip3)"><path d="M14.6667 18.3333C9.53333 18.3333 5.5 14.3 5.5 9.16667 5.5 4.03333 9.53333 0 14.6667 0 19.8 0 23.8333 4.03333 23.8333 9.16667 23.8333 14.3 19.8 18.3333 14.6667 18.3333ZM14.6667 3.66667C11.55 3.66667 9.16667 6.05 9.16667 9.16667 9.16667 12.2833 11.55 14.6667 14.6667 14.6667 17.7833 14.6667 20.1667 12.2833 20.1667 9.16667 20.1667 6.05 17.7833 3.66667 14.6667 3.66667Z" transform="matrix(1 0 -0 1.02273 10.3333 4.875)"/><path d="M33 40.3333C31.9 40.3333 31.1667 39.6 31.1667 38.5L31.1667 31.1667C31.1667 28.05 28.7833 25.6667 25.6667 25.6667L14.6667 25.6667C11.55 25.6667 9.16667 28.05 9.16667 31.1667L9.16667 38.5C9.16667 39.6 8.43333 40.3333 7.33333 40.3333 6.23333 40.3333 5.5 39.6 5.5 38.5L5.5 31.1667C5.5 26.0333 9.53333 22 14.6667 22L25.6667 22C30.8 22 34.8333 26.0333 34.8333 31.1667L34.8333 38.5C34.8333 39.6 34.1 40.3333 33 40.3333Z" transform="matrix(1 0 -0 1.02273 4.83333 4.875)"/></g></g></g><text font-family="Calibri,Calibri_MSFontService,sans-serif" font-weight="700" font-size="20" transform="translate(94.8782 23)">USER<tspan font-size="12" x="-88.3392" y="57">User</tspan><tspan font-weight="400" font-size="12" x="-62.6725" y="57">is defined in relation to a </tspan><tspan font-weight="400" font-size="12" x="-88.3392" y="72">Jalapeno application user </tspan><tspan font-weight="400" font-size="12" x="-88.3392" y="86">credentials (with its login name and </tspan><tspan font-weight="400" font-size="12" x="-88.3392" y="100">related password). It allows a </tspan><tspan font-weight="400" font-size="12" x="-88.3392" y="115">subscription to content relevant to </tspan><tspan font-size="12" x="-88.3392" y="129">User</tspan><tspan font-weight="400" font-size="12" x="-62.6725" y="129">(via the </tspan><tspan font-size="12" x="-23.3392" y="129">Console</tspan><tspan font-weight="400" font-size="12" x="18.9942" y="129">Jalapeno </tspan><tspan font-weight="400" font-size="12" x="-88.3392" y="144">feature).</tspan></text></g></svg>