<svg width="189" height="189" xmlns="http://www.w3.org/2000/svg" xmlns:xlink="http://www.w3.org/1999/xlink" overflow="hidden"><defs><clipPath id="clip0"><path d="M0 0 189 0 189 189 0 189Z" fill-rule="evenodd" clip-rule="evenodd"/></clipPath><clipPath id="clip1"><path d="M3 3 47 3 47 48 3 48Z" fill-rule="evenodd" clip-rule="evenodd"/></clipPath><clipPath id="clip2"><path d="M3 3 47 3 47 48 3 48Z" fill-rule="evenodd" clip-rule="evenodd"/></clipPath><clipPath id="clip3"><path d="M3 3 47 3 47 48 3 48Z" fill-rule="evenodd" clip-rule="evenodd"/></clipPath></defs><g clip-path="url(#clip0)"><rect x="0" y="0" width="189" height="189" fill="#313131"/><text fill="#FFFFFF" font-family="Calibri,Calibri_MSFontService,sans-serif" font-weight="300" font-size="11" transform="translate(9.60032 -5)">PRECONDITION</text><rect x="3.50005" y="3.50005" width="1" height="1" stroke="#2F528F" stroke-width="1.33333" stroke-miterlimit="8" fill="#4472C4"/><rect x="0" y="0" width="189" height="189" stroke="#64A592" stroke-width="8" stroke-miterlimit="8" fill="#FFFFFF"/><g clip-path="url(#clip1)"><g clip-path="url(#clip2)"><g clip-path="url(#clip3)"><path d="M18.2802 15.7667 6.963 27.5-0.113667 20.1667 2.71517 17.2333 6.96117 21.6333 15.4513 12.8333Z" transform="matrix(1 0 -0 1.02273 4.83333 4.875)"/><path d="M18.2802 42.1648 0.0055 42.1648C-1.01017 42.1648-1.83333 41.3472-1.83333 40.3315-1.83333 39.3177-1.01017 38.5 0.0055 38.5L17.0097 38.5 23.6537 21.054 16.9693 1.83333 0.165 1.83333C-0.850667 1.83333-1.67383 1.012-1.67383 0-1.67383-1.012-0.850667-1.83333 0.165-1.83333L18.2802-1.83333C19.0648-1.83333 19.7615-1.33833 20.0182-0.601333L27.3515 20.4802C27.4908 20.889 27.4835 21.329 27.3332 21.7342L19.9998 40.9805C19.7285 41.6937 19.0447 42.1648 18.2802 42.1648Z" transform="matrix(1 0 -0 1.02273 4.83333 4.875)"/><path d="M40.3278 42.1648C39.5835 42.1648 38.8868 41.7157 38.6082 40.9805L31.2748 21.7342C31.1208 21.329 31.1172 20.889 31.2565 20.4802L38.588-0.601333C38.9198-1.5565 39.9648-2.068 40.9273-1.7325 41.888-1.40067 42.3958-0.3575 42.064 0.5995L34.9488 21.054 42.0438 39.6825C42.405 40.6267 41.9302 41.6863 40.9768 42.0438 40.7642 42.1282 40.5423 42.1648 40.3278 42.1648Z" transform="matrix(1 0 -0 1.02273 4.83333 4.875)"/></g></g></g><text font-family="Calibri,Calibri_MSFontService,sans-serif" font-weight="700" font-size="20" transform="translate(52.4314 23)">PRECONDITION<tspan font-weight="400" font-size="12" x="-45.8924" y="64">A type of business rule (</tspan><tspan font-size="12" x="71.1076" y="64">Condition</tspan><tspan font-weight="400" font-size="12" x="120.108" y="64">) </tspan><tspan font-weight="400" font-size="12" x="-45.8924" y="79">that defines the required value a </tspan><tspan font-weight="400" font-size="12" x="-45.8924" y="93">property or set of properties need </tspan><tspan font-weight="400" font-size="12" x="-45.8924" y="107">to hold for a </tspan><tspan font-size="12" x="16.7742" y="107">Process Task</tspan><tspan font-weight="400" font-size="12" x="82.6076" y="107">to </tspan><tspan font-weight="400" font-size="12" x="-45.8924" y="122">execute. It is also used for the </tspan><tspan font-size="12" x="102.108" y="122">Entry </tspan><tspan font-size="12" x="-45.8924" y="136">criteria</tspan><tspan font-weight="400" font-size="12" x="-7.39244" y="136">of a </tspan><tspan font-size="12" x="13.6076" y="136">Value stream stage</tspan><tspan font-weight="400" font-size="12" x="109.441" y="136">.</tspan></text></g></svg>