<svg width="265" height="265" xmlns="http://www.w3.org/2000/svg" xmlns:xlink="http://www.w3.org/1999/xlink" overflow="hidden"><defs><clipPath id="clip0"><path d="M0 0 265 0 265 265 0 265Z" fill-rule="evenodd" clip-rule="evenodd"/></clipPath><clipPath id="clip1"><path d="M35 51 55 51 55 71 35 71Z" fill-rule="evenodd" clip-rule="evenodd"/></clipPath><clipPath id="clip2"><path d="M35 51 55 51 55 71 35 71Z" fill-rule="evenodd" clip-rule="evenodd"/></clipPath><clipPath id="clip3"><path d="M35 51 55 51 55 71 35 71Z" fill-rule="evenodd" clip-rule="evenodd"/></clipPath><clipPath id="clip4"><path d="M222 33 233 33 233 43 222 43Z" fill-rule="evenodd" clip-rule="evenodd"/></clipPath><clipPath id="clip5"><path d="M222 33 233 33 233 43 222 43Z" fill-rule="evenodd" clip-rule="evenodd"/></clipPath><clipPath id="clip6"><path d="M222 33 233 33 233 43 222 43Z" fill-rule="evenodd" clip-rule="evenodd"/></clipPath><clipPath id="clip7"><path d="M223 70 234 70 234 79 223 79Z" fill-rule="evenodd" clip-rule="evenodd"/></clipPath><clipPath id="clip8"><path d="M223 70 234 70 234 79 223 79Z" fill-rule="evenodd" clip-rule="evenodd"/></clipPath><clipPath id="clip9"><path d="M223 70 234 70 234 79 223 79Z" fill-rule="evenodd" clip-rule="evenodd"/></clipPath><clipPath id="clip10"><path d="M214 107 225 107 225 117 214 117Z" fill-rule="evenodd" clip-rule="evenodd"/></clipPath><clipPath id="clip11"><path d="M214 107 225 107 225 117 214 117Z" fill-rule="evenodd" clip-rule="evenodd"/></clipPath><clipPath id="clip12"><path d="M214 107 225 107 225 117 214 117Z" fill-rule="evenodd" clip-rule="evenodd"/></clipPath><clipPath id="clip13"><path d="M210 141 219 141 219 152 210 152Z" fill-rule="evenodd" clip-rule="evenodd"/></clipPath><clipPath id="clip14"><path d="M210 141 219 141 219 152 210 152Z" fill-rule="evenodd" clip-rule="evenodd"/></clipPath><clipPath id="clip15"><path d="M210 141 219 141 219 152 210 152Z" fill-rule="evenodd" clip-rule="evenodd"/></clipPath><clipPath id="clip16"><path d="M207 179 216 179 216 190 207 190Z" fill-rule="evenodd" clip-rule="evenodd"/></clipPath><clipPath id="clip17"><path d="M207 179 216 179 216 190 207 190Z" fill-rule="evenodd" clip-rule="evenodd"/></clipPath><clipPath id="clip18"><path d="M207 179 216 179 216 190 207 190Z" fill-rule="evenodd" clip-rule="evenodd"/></clipPath><clipPath id="clip19"><path d="M223 214 235 214 235 224 223 224Z" fill-rule="evenodd" clip-rule="evenodd"/></clipPath><clipPath id="clip20"><path d="M223 214 235 214 235 224 223 224Z" fill-rule="evenodd" clip-rule="evenodd"/></clipPath><clipPath id="clip21"><path d="M223 214 235 214 235 224 223 224Z" fill-rule="evenodd" clip-rule="evenodd"/></clipPath></defs><g clip-path="url(#clip0)"><rect x="0" y="0" width="265" height="265" fill="#313131"/><rect x="89.5" y="131.5" width="1.99999" height="1" stroke="#2F528F" stroke-width="1.33585" stroke-miterlimit="8" fill="#4472C4"/><path d="M23.5 9.75271C23.5 8.50859 24.5085 7.50003 25.7527 7.50003L249.247 7.50003C250.491 7.50003 251.5 8.50859 251.5 9.75271L251.5 249.247C251.5 250.491 250.491 251.5 249.247 251.5L25.7527 251.5C24.5085 251.5 23.5 250.491 23.5 249.247Z" stroke="#FF0000" stroke-width="0.667927" stroke-miterlimit="8" stroke-opacity="0" fill="none" fill-rule="evenodd"/><path d="M30.0794 43.5 149.921 43.5C153.002 43.5 155.5 45.998 155.5 49.0794L155.5 214.252C155.5 216.598 153.598 218.5 151.252 218.5L28.7483 218.5C26.402 218.5 24.5 216.598 24.5 214.252L24.5 49.0794C24.5 45.998 26.998 43.5 30.0794 43.5Z" stroke="#FABEBE" stroke-width="4.67549" stroke-miterlimit="8" fill="#FFFFFF" fill-rule="evenodd"/><g clip-path="url(#clip1)"><g clip-path="url(#clip2)"><g clip-path="url(#clip3)"><path d="M39.3542 66.6458C39.5568 66.6458 39.7595 66.5682 39.9139 66.4139L49.6459 56.6819 49.6459 58.1298C49.6459 58.5668 49.9997 58.9215 50.4375 58.9215 50.8753 58.9215 51.2292 58.5668 51.2292 58.1298L51.2292 54.7708C51.2292 54.6679 51.2094 54.565 51.1683 54.4684 51.0867 54.2744 50.9339 54.1208 50.74 54.0401 50.6434 53.9997 50.5405 53.9791 50.4375 53.9791L47.0785 53.9791C46.6407 53.9791 46.2868 54.3338 46.2868 54.7708 46.2868 55.2078 46.6407 55.5625 47.0785 55.5625L48.5265 55.5625 38.7945 65.2944C38.4849 65.604 38.4849 66.1043 38.7945 66.4139 38.9488 66.5682 39.1515 66.6458 39.3542 66.6458Z"/><path d="M52.4167 67.8333 37.375 67.8333 37.375 53.5833C37.375 53.1463 37.0203 52.7916 36.5833 52.7916 36.1463 52.7916 35.7917 53.1463 35.7917 53.5833L35.7917 68.625C35.7917 69.0628 36.1463 69.4167 36.5833 69.4167L52.4167 69.4167C52.8545 69.4167 53.2084 69.0628 53.2084 68.625 53.2084 68.1872 52.8545 67.8333 52.4167 67.8333Z"/></g></g></g><path d="M26.9702 6.36947C18.5628 6.36947 11.7473 10.3112 11.7473 15.1736L11.7473 248.948C11.7473 253.81 18.5628 257.752 26.9702 257.752L238.08 257.752C246.487 257.752 253.302 253.81 253.302 248.948L253.302 15.1736C253.302 10.3112 246.487 6.36947 238.08 6.36947ZM0 0 265 0 265 265 0 265Z" fill="#FABEBE" fill-rule="evenodd"/><text font-family="Calibri,Calibri_MSFontService,sans-serif" font-weight="700" font-size="11" transform="translate(80.6419 63)">BENEFIT<tspan font-weight="400" font-size="9" x="-49.3516" y="68">A positive impact experienced </tspan><tspan font-weight="400" font-size="9" x="-49.3516" y="79">by a party resulting from an </tspan><tspan font-weight="400" font-size="9" x="-49.3516" y="90">interaction/transaction with </tspan><tspan font-weight="400" font-size="9" x="-49.3516" y="101">another party or entity.</tspan></text><path d="M222.5 36.5001C222.5 35.9478 222.948 35.5001 223.5 35.5001L247.5 35.5001C248.052 35.5001 248.5 35.9478 248.5 36.5001L248.5 40.5C248.5 41.0523 248.052 41.5 247.5 41.5L223.5 41.5C222.948 41.5 222.5 41.0523 222.5 40.5Z" stroke="#911EB4" stroke-width="1.33585" stroke-miterlimit="8" fill="#FFFFFF" fill-rule="evenodd"/><text font-family="Calibri,Calibri_MSFontService,sans-serif" font-weight="700" font-size="5" transform="translate(233.535 39)">PLACE</text><g clip-path="url(#clip4)"><g clip-path="url(#clip5)"><g clip-path="url(#clip6)"><path d="M5.25005 2.81252C5.25005 3.22674 4.91426 3.56253 4.50004 3.56253 4.08582 3.56253 3.75003 3.22674 3.75003 2.81252 3.75003 2.39831 4.08582 2.06252 4.50004 2.06252 4.91426 2.06252 5.25005 2.39831 5.25005 2.81252Z" transform="matrix(1 0 -0 1.1111 223 33)"/><path d="M8.25007 7.68757 4.91592 7.68757C5.3048 6.88206 6.75006 3.81416 6.75006 2.81252 6.75006 1.57164 5.74093 0.562505 4.50004 0.562505 3.25915 0.562505 2.25002 1.57164 2.25002 2.81252 2.25002 3.81416 3.69528 6.88206 4.08341 7.68757L0.750007 7.68757C0.543005 7.68757 0.375003 7.85519 0.375003 8.06257 0.375003 8.26995 0.543005 8.43757 0.750007 8.43757L8.25007 8.43757C8.45745 8.43757 8.62508 8.26995 8.62508 8.06257 8.62508 7.85519 8.45745 7.68757 8.25007 7.68757ZM4.50004 1.31251C5.3273 1.31251 6.00005 1.98527 6.00005 2.81252 6.00005 3.40128 5.18105 5.35167 4.50004 6.81568 3.81866 5.35167 3.00003 3.40165 3.00003 2.81252 3.00003 1.98527 3.67278 1.31251 4.50004 1.31251Z" transform="matrix(1 0 -0 1.1111 223 33)"/></g></g></g><path d="M223.5 72.5001C223.5 71.9478 223.948 71.5001 224.5 71.5001L247.5 71.5001C248.052 71.5001 248.5 71.9478 248.5 72.5001L248.5 76.5C248.5 77.0523 248.052 77.5 247.5 77.5L224.5 77.5C223.948 77.5 223.5 77.0523 223.5 76.5Z" stroke="#911EB4" stroke-width="1.33585" stroke-miterlimit="8" fill="#FFFFFF" fill-rule="evenodd"/><text font-family="Calibri,Calibri_MSFontService,sans-serif" font-weight="700" font-size="5" transform="translate(234.566 75)">PRICE</text><g clip-path="url(#clip7)"><g clip-path="url(#clip8)"><g clip-path="url(#clip9)"><path d="M6.25348 4.78986C5.92273 4.55549 5.43561 4.36761 4.79249 4.22511 4.34474 4.11224 4.02899 4.00574 3.84674 3.90449 3.66336 3.80399 3.57186 3.67461 3.57186 3.51711 3.57186 3.34499 3.65736 3.20362 3.82799 3.09299 3.99861 2.98237 4.24049 2.92724 4.55286 2.92724 4.87836 2.92724 5.13111 2.99362 5.31111 3.12637 5.49111 3.25912 5.58148 3.43311 5.58148 3.64799L6.71436 3.64799 6.72223 3.62886C6.73536 3.23099 6.54111 2.89687 6.13761 2.62574 5.80161 2.39962 5.37673 2.27324 4.87499 2.23612L4.87499 1.125C4.87499 0.917997 4.70736 0.749998 4.49999 0.749998 4.29261 0.749998 4.12499 0.917997 4.12499 1.125L4.12499 2.24174C3.69036 2.28674 3.31987 2.39962 3.01312 2.58149 2.60587 2.82262 2.40262 3.13349 2.40262 3.51411 2.40262 3.89474 2.58037 4.19436 2.93474 4.41336 3.28987 4.63236 3.81449 4.82136 4.50786 4.98111 4.90574 5.07674 5.18398 5.17873 5.34298 5.28711 5.50198 5.39548 5.58111 5.53911 5.58111 5.71723 5.58111 5.89161 5.49673 6.03073 5.32911 6.13423 5.16073 6.23886 4.91774 6.29098 4.60049 6.29098 4.22136 6.29098 3.92586 6.22648 3.71399 6.09748 3.50211 5.96886 3.39562 5.76636 3.39562 5.49036L2.25862 5.49036 2.25074 5.50948C2.23724 5.97898 2.46674 6.34498 2.93924 6.60523 3.28987 6.79873 3.68511 6.91948 4.12499 6.96973L4.12499 7.87498C4.12499 8.08235 4.29261 8.24998 4.49999 8.24998 4.70736 8.24998 4.87499 8.08235 4.87499 7.87498L4.87499 6.98398C5.39286 6.95473 5.82448 6.84785 6.15973 6.65248 6.55311 6.42261 6.74998 6.10911 6.74998 5.71123 6.74998 5.33098 6.58461 5.02349 6.25348 4.78986Z" transform="matrix(1.00001 0 -0 1 224 70)"/></g></g></g><path d="M214.5 108.5C214.5 107.396 215.395 106.5 216.5 106.5L246.5 106.5C247.605 106.5 248.5 107.396 248.5 108.5L248.5 116.5C248.5 117.605 247.605 118.5 246.5 118.5L216.5 118.5C215.395 118.5 214.5 117.605 214.5 116.5Z" stroke="#911EB4" stroke-width="1.33585" stroke-miterlimit="8" fill="#FFFFFF" fill-rule="evenodd"/><text font-family="Calibri,Calibri_MSFontService,sans-serif" font-weight="700" font-size="5" transform="translate(226.306 111)">PRODUCT<tspan x="0" y="6">FEATURE</tspan></text><g clip-path="url(#clip10)"><g clip-path="url(#clip11)"><g clip-path="url(#clip12)"><path d="M7.87498 3.74999 1.125 3.74999C0.917997 3.74999 0.749998 3.91799 0.749998 4.12499L0.749998 5.62498C0.749998 5.83236 0.917997 5.99998 1.125 5.99998L1.5 5.99998 1.5 8.24998C1.5 8.45735 1.668 8.62497 1.87499 8.62497L7.12498 8.62497C7.33235 8.62497 7.49998 8.45735 7.49998 8.24998L7.49998 5.99998 7.87498 5.99998C8.08235 5.99998 8.24998 5.83236 8.24998 5.62498L8.24998 4.12499C8.24998 3.91799 8.08235 3.74999 7.87498 3.74999ZM6.74998 7.87498 2.24999 7.87498 2.24999 5.99998 6.74998 5.99998 6.74998 7.87498ZM7.49998 5.24998 7.12498 5.24998 1.87499 5.24998 1.5 5.24998 1.5 4.49999 7.49998 4.49999 7.49998 5.24998Z" transform="matrix(1.11111 0 -0 1 215 108)"/><path d="M4.22136 2.87587C4.29224 2.95499 4.39386 2.99999 4.49999 2.99999 4.60611 2.99999 4.70811 2.95499 4.77861 2.87587L5.90361 1.626C5.99586 1.52325 6.02398 1.37812 5.97786 1.24837L5.75248 0.623248C5.69923 0.474374 5.55823 0.374999 5.39998 0.374999L3.59999 0.374999C3.44174 0.374999 3.30074 0.474374 3.24712 0.622873L3.02212 1.248C2.97524 1.37775 3.00374 1.52325 3.09637 1.62562L4.22136 2.87587ZM3.86361 1.125 5.13673 1.125 5.19636 1.29075 4.49999 2.06437 3.80399 1.29112 3.86361 1.125Z" transform="matrix(1.11111 0 -0 1 215 108)"/></g></g></g><path d="M209.5 145.5C209.5 144.948 209.948 144.5 210.5 144.5L247.5 144.5C248.052 144.5 248.5 144.948 248.5 145.5L248.5 149.5C248.5 150.052 248.052 150.5 247.5 150.5L210.5 150.5C209.948 150.5 209.5 150.052 209.5 149.5Z" stroke="#911EB4" stroke-width="1.33585" stroke-miterlimit="8" fill="#FFFFFF" fill-rule="evenodd"/><text font-family="Calibri,Calibri_MSFontService,sans-serif" font-weight="700" font-size="5" transform="translate(220.505 148)">PROMOTION</text><g clip-path="url(#clip13)"><g clip-path="url(#clip14)"><g clip-path="url(#clip15)"><path d="M4.12499 5.29536 2.73449 5.99998 2.99999 4.50749 1.87499 3.45074 3.42974 3.23287 4.12499 1.87499 4.82024 3.23287 6.37498 3.45074 5.24998 4.50749 5.51548 5.99998Z" transform="matrix(1 0 -0 1.11111 210.375 142.417)"/><path d="M4.12499 8.24998C1.85062 8.24998 0 6.39898 0 4.12499 0 1.85062 1.85062 0 4.12499 0 6.39898 0 8.24998 1.85062 8.24998 4.12499 8.24998 6.39898 6.39898 8.24998 4.12499 8.24998ZM4.12499 0.749998C2.26424 0.749998 0.749998 2.26424 0.749998 4.12499 0.749998 5.98611 2.26424 7.49998 4.12499 7.49998 5.98611 7.49998 7.49998 5.98611 7.49998 4.12499 7.49998 2.26424 5.98611 0.749998 4.12499 0.749998Z" transform="matrix(1 0 -0 1.11111 210.375 142.417)"/></g></g></g><path d="M206.5 180.667C206.5 179.47 207.47 178.5 208.667 178.5L246.333 178.5C247.53 178.5 248.5 179.47 248.5 180.667L248.5 189.333C248.5 190.53 247.53 191.5 246.333 191.5L208.667 191.5C207.47 191.5 206.5 190.53 206.5 189.333Z" stroke="#F032E6" stroke-width="1.33585" stroke-miterlimit="8" fill="#FFFFFF" fill-rule="evenodd"/><text font-family="Calibri,Calibri_MSFontService,sans-serif" font-weight="700" font-size="5" transform="translate(218.151 183)">VALUE<tspan x="0" y="6">PROPOSITION</tspan></text><g clip-path="url(#clip16)"><g clip-path="url(#clip17)"><g clip-path="url(#clip18)"><path d="M7.87498 3.74999 1.125 3.74999C0.917997 3.74999 0.749998 3.91799 0.749998 4.12499L0.749998 5.62498C0.749998 5.83236 0.917997 5.99998 1.125 5.99998L1.5 5.99998 1.5 8.24998C1.5 8.45735 1.668 8.62497 1.87499 8.62497L7.12498 8.62497C7.33235 8.62497 7.49998 8.45735 7.49998 8.24998L7.49998 5.99998 7.87498 5.99998C8.08235 5.99998 8.24998 5.83236 8.24998 5.62498L8.24998 4.12499C8.24998 3.91799 8.08235 3.74999 7.87498 3.74999ZM6.74998 7.87498 2.24999 7.87498 2.24999 5.99998 6.74998 5.99998 6.74998 7.87498ZM7.49998 5.24998 7.12498 5.24998 1.87499 5.24998 1.5 5.24998 1.5 4.49999 7.49998 4.49999 7.49998 5.24998Z" transform="matrix(1 0 -0 1.11111 207 180)"/><path d="M4.22286 3.25987C4.29899 3.33637 4.39949 3.37499 4.49999 3.37499 4.60011 3.37499 4.70024 3.33637 4.77674 3.25987L5.88486 2.15024C6.03786 1.99649 6.03786 1.74862 5.88486 1.59525L4.77674 0.485249C4.62974 0.337874 4.36986 0.337874 4.22286 0.485249L3.11474 1.59525C2.96137 1.74862 2.96137 1.99649 3.11474 2.15024L4.22286 3.25987ZM4.49999 1.31812 5.05423 1.87274 4.49999 2.42774 3.94574 1.87274 4.49999 1.31812Z" transform="matrix(1 0 -0 1.11111 207 180)"/></g></g></g><path d="M223.5 217.5C223.5 216.948 223.948 216.5 224.5 216.5L247.5 216.5C248.052 216.5 248.5 216.948 248.5 217.5L248.5 221.5C248.5 222.052 248.052 222.5 247.5 222.5L224.5 222.5C223.948 222.5 223.5 222.052 223.5 221.5Z" stroke="#FABEBE" stroke-width="1.33585" stroke-miterlimit="8" fill="#FFFFFF" fill-rule="evenodd"/><text font-family="Calibri,Calibri_MSFontService,sans-serif" font-weight="700" font-size="5" transform="translate(235.082 220)">NEED</text><g clip-path="url(#clip19)"><g clip-path="url(#clip20)"><g clip-path="url(#clip21)"><path d="M7.12048 1.87499 6.74623 1.87499C6.74623 1.46137 6.40986 1.125 5.99623 1.125L5.62198 1.125C5.62198 0.711373 5.28598 0.374999 4.87236 0.374999L4.49774 0.374999C4.08411 0.374999 3.74811 0.711373 3.74811 1.125L3.37386 1.125C2.96062 1.125 2.62424 1.46137 2.62424 1.87499L2.62424 2.99999 2.24962 2.99999C1.83637 2.99999 1.5 3.33637 1.5 3.74999L1.5 5.99998C1.5 6.07498 1.5225 6.14473 1.56112 6.20323L2.28824 7.6781C2.35124 7.80635 2.48174 7.88735 2.62462 7.88735L6.74623 7.88735C6.88873 7.88735 7.01885 7.80635 7.08223 7.67885L7.83635 6.15861C7.8701 6.09073 7.88098 6.01536 7.87123 5.94298L7.87123 2.62499C7.86973 2.21137 7.5341 1.87499 7.12048 1.87499ZM7.11973 5.91373 6.51336 7.13735 2.85749 7.13735 2.24999 5.90473 2.24962 3.74999 2.62424 3.74999 2.62424 5.24998C2.62424 5.45736 2.79224 5.62498 2.99924 5.62498 3.20624 5.62498 3.37424 5.45736 3.37424 5.24998L3.37424 1.87499 3.74849 1.87499 3.74849 4.12499C3.74849 4.33199 3.91611 4.49999 4.12349 4.49999 4.33086 4.49999 4.49849 4.33199 4.49849 4.12499L4.49849 1.125 4.87236 1.125 4.87236 1.87499 4.87236 4.12499C4.87236 4.33199 5.03961 4.49999 5.24736 4.49999 5.45473 4.49999 5.62236 4.33199 5.62236 4.12499L5.62236 1.87499 5.99661 1.87499 5.99661 2.62499 5.99661 4.12499C5.99661 4.33199 6.16386 4.49999 6.37161 4.49999 6.57898 4.49999 6.7466 4.33199 6.7466 4.12499L6.7466 2.62499 7.12048 2.62499 7.12048 5.91373 7.11973 5.91373Z" transform="matrix(1.11112 0 -0 1 224 215)"/><path d="M7.12048 8.24998 2.24962 8.24998C2.04262 8.24998 1.87462 8.4176 1.87462 8.62497 1.87462 8.83235 2.04262 8.99997 2.24962 8.99997L7.12048 8.99997C7.32785 8.99997 7.49548 8.83235 7.49548 8.62497 7.49548 8.4176 7.32785 8.24998 7.12048 8.24998Z" transform="matrix(1.11112 0 -0 1 224 215)"/></g></g></g><path d="M167.457 216 211.543 216C217.318 216 222 218.91 222 222.5 222 226.09 217.318 229 211.543 229L167.457 229C161.682 229 157 226.09 157 222.5 157 218.91 161.682 216 167.457 216Z" fill="#313131" fill-rule="evenodd"/><text fill="#FFFFFF" font-family="Calibri,Calibri_MSFontService,sans-serif" font-weight="700" font-size="5" transform="translate(178.009 224)">|Delivers&gt;</text><path d="M164.561 178 196.439 178C200.615 178 204 181.134 204 185 204 188.866 200.615 192 196.439 192L164.561 192C160.385 192 157 188.866 157 185 157 181.134 160.385 178 164.561 178Z" fill="#313131" fill-rule="evenodd"/><text fill="#FFFFFF" font-family="Calibri,Calibri_MSFontService,sans-serif" font-weight="700" font-size="5" transform="translate(175.588 187)">|Of&gt;</text><path d="M167.135 35 209.865 35C215.462 35 220 37.9101 220 41.5 220 45.0898 215.462 48 209.865 48L167.135 48C161.538 48 157 45.0898 157 41.5 157 37.9101 161.538 35 167.135 35Z" fill="#313131" fill-rule="evenodd"/><text fill="#FFFFFF" font-family="Calibri,Calibri_MSFontService,sans-serif" font-weight="700" font-size="5" transform="translate(176.506 43)">|Has item&gt;</text><path d="M167.457 71 211.543 71C217.318 71 222 73.9101 222 77.5 222 81.0898 217.318 84 211.543 84L167.457 84C161.682 84 157 81.0898 157 77.5 157 73.9101 161.682 71 167.457 71Z" fill="#313131" fill-rule="evenodd"/><text fill="#FFFFFF" font-family="Calibri,Calibri_MSFontService,sans-serif" font-weight="700" font-size="5" transform="translate(177.174 80)">|Has item&gt;</text><path d="M166.17 106 204.83 106C209.894 106 214 108.91 214 112.5 214 116.09 209.894 119 204.83 119L166.17 119C161.106 119 157 116.09 157 112.5 157 108.91 161.106 106 166.17 106Z" fill="#313131" fill-rule="evenodd"/><text fill="#FFFFFF" font-family="Calibri,Calibri_MSFontService,sans-serif" font-weight="700" font-size="5" transform="translate(173.167 114)">|Has item&gt;</text><path d="M165.044 144 198.956 144C203.399 144 207 146.91 207 150.5 207 154.09 203.399 157 198.956 157L165.044 157C160.601 157 157 154.09 157 150.5 157 146.91 160.601 144 165.044 144Z" fill="#313131" fill-rule="evenodd"/><text fill="#FFFFFF" font-family="Calibri,Calibri_MSFontService,sans-serif" font-weight="700" font-size="5" transform="translate(169.827 152)">|Has item&gt;</text></g></svg>