<svg width="265" height="265" xmlns="http://www.w3.org/2000/svg" xmlns:xlink="http://www.w3.org/1999/xlink" overflow="hidden"><defs><clipPath id="clip0"><path d="M0 0 265 0 265 265 0 265Z" fill-rule="evenodd" clip-rule="evenodd"/></clipPath><clipPath id="clip1"><path d="M35 51 55 51 55 71 35 71Z" fill-rule="evenodd" clip-rule="evenodd"/></clipPath><clipPath id="clip2"><path d="M35 51 55 51 55 71 35 71Z" fill-rule="evenodd" clip-rule="evenodd"/></clipPath><clipPath id="clip3"><path d="M35 51 55 51 55 71 35 71Z" fill-rule="evenodd" clip-rule="evenodd"/></clipPath><clipPath id="clip4"><path d="M204 61 213 61 213 71 204 71Z" fill-rule="evenodd" clip-rule="evenodd"/></clipPath><clipPath id="clip5"><path d="M204 61 213 61 213 71 204 71Z" fill-rule="evenodd" clip-rule="evenodd"/></clipPath><clipPath id="clip6"><path d="M204 61 213 61 213 71 204 71Z" fill-rule="evenodd" clip-rule="evenodd"/></clipPath><clipPath id="clip7"><path d="M225 124 237 124 237 134 225 134Z" fill-rule="evenodd" clip-rule="evenodd"/></clipPath><clipPath id="clip8"><path d="M225 124 237 124 237 134 225 134Z" fill-rule="evenodd" clip-rule="evenodd"/></clipPath><clipPath id="clip9"><path d="M225 124 237 124 237 134 225 134Z" fill-rule="evenodd" clip-rule="evenodd"/></clipPath><clipPath id="clip10"><path d="M217 186 227 186 227 198 217 198Z" fill-rule="evenodd" clip-rule="evenodd"/></clipPath><clipPath id="clip11"><path d="M217 186 227 186 227 198 217 198Z" fill-rule="evenodd" clip-rule="evenodd"/></clipPath><clipPath id="clip12"><path d="M217 186 227 186 227 198 217 198Z" fill-rule="evenodd" clip-rule="evenodd"/></clipPath><clipPath id="clip13"><path d="M71 224 82 224 82 236 71 236Z" fill-rule="evenodd" clip-rule="evenodd"/></clipPath><clipPath id="clip14"><path d="M71 224 82 224 82 236 71 236Z" fill-rule="evenodd" clip-rule="evenodd"/></clipPath><clipPath id="clip15"><path d="M71 224 82 224 82 236 71 236Z" fill-rule="evenodd" clip-rule="evenodd"/></clipPath><clipPath id="clip16"><path d="M71 28 82 28 82 38 71 38Z" fill-rule="evenodd" clip-rule="evenodd"/></clipPath><clipPath id="clip17"><path d="M71 28 82 28 82 38 71 38Z" fill-rule="evenodd" clip-rule="evenodd"/></clipPath><clipPath id="clip18"><path d="M71 28 82 28 82 38 71 38Z" fill-rule="evenodd" clip-rule="evenodd"/></clipPath></defs><g clip-path="url(#clip0)"><rect x="0" y="0" width="265" height="265" fill="#313131"/><rect x="89.5" y="131.5" width="1.99999" height="1" stroke="#2F528F" stroke-width="1.33585" stroke-miterlimit="8" fill="#4472C4"/><path d="M23.5 9.75271C23.5 8.50859 24.5085 7.50003 25.7527 7.50003L249.247 7.50003C250.491 7.50003 251.5 8.50859 251.5 9.75271L251.5 249.247C251.5 250.491 250.491 251.5 249.247 251.5L25.7527 251.5C24.5085 251.5 23.5 250.491 23.5 249.247Z" stroke="#FF0000" stroke-width="0.667927" stroke-miterlimit="8" stroke-opacity="0" fill="none" fill-rule="evenodd"/><path d="M30.0794 43.5 149.921 43.5C153.002 43.5 155.5 45.998 155.5 49.0794L155.5 214.252C155.5 216.598 153.598 218.5 151.252 218.5L28.7483 218.5C26.402 218.5 24.5 216.598 24.5 214.252L24.5 49.0794C24.5 45.998 26.998 43.5 30.0794 43.5Z" stroke="#46F0F0" stroke-width="4.67549" stroke-miterlimit="8" fill="#FFFFFF" fill-rule="evenodd"/><g clip-path="url(#clip1)"><g clip-path="url(#clip2)"><g clip-path="url(#clip3)"><path d="M53.1474 65.7607C53.229 65.5684 53.229 65.3483 53.1474 65.1559 53.107 65.0585 53.0493 64.9706 52.9756 64.8978L50.6014 62.5236C50.2919 62.2141 49.7915 62.2141 49.482 62.5236 49.1725 62.8331 49.1725 63.3335 49.482 63.643L50.5056 64.6666 42.125 64.6666C39.9424 64.6666 38.1667 62.8909 38.1667 60.7083 38.1667 58.5257 39.9424 56.75 42.125 56.75 44.3076 56.75 46.0834 58.5257 46.0834 60.7083L47.6667 60.7083C47.6667 57.6525 45.1801 55.1666 42.125 55.1666 39.0692 55.1666 36.5833 57.6525 36.5833 60.7083 36.5833 63.7634 39.0692 66.25 42.125 66.25L50.5056 66.25 49.482 67.2736C49.1725 67.5832 49.1725 68.0835 49.482 68.393 49.6364 68.5474 49.839 68.625 50.0417 68.625 50.2444 68.625 50.447 68.5474 50.6014 68.393L52.9756 66.0188C53.0493 65.946 53.107 65.8581 53.1474 65.7607Z"/></g></g></g><path d="M26.9702 6.36947C18.5628 6.36947 11.7473 10.3112 11.7473 15.1736L11.7473 248.948C11.7473 253.81 18.5628 257.752 26.9702 257.752L238.08 257.752C246.487 257.752 253.302 253.81 253.302 248.948L253.302 15.1736C253.302 10.3112 246.487 6.36947 238.08 6.36947ZM0 0 265 0 265 265 0 265Z" fill="#46F0F0" fill-rule="evenodd"/><text font-family="Calibri,Calibri_MSFontService,sans-serif" font-weight="700" font-size="11" transform="translate(63.8602 63)">PROJECT PHASE<tspan font-weight="400" font-size="9" x="-32.5699" y="68">A </tspan><tspan font-size="9" x="-25.0557" y="68">Project phase</tspan><tspan font-weight="400" font-size="9" x="29.7143" y="68">(or </tspan><tspan font-size="9" x="43.0728" y="68">Sprint</tspan><tspan font-weight="400" font-size="9" x="66.2833" y="68">) is </tspan><tspan font-weight="400" font-size="9" x="-32.5699" y="79">a time bound chunk of a </tspan><tspan font-weight="400" font-size="9" x="-32.5699" y="90">Project with a specific set of </tspan><tspan font-weight="400" font-size="9" x="-32.5699" y="101">deliverables.</tspan></text><path d="M203.5 63.5C203.5 62.9477 203.948 62.5 204.5 62.5L247.5 62.5C248.052 62.5 248.5 62.9477 248.5 63.5L248.5 67.4999C248.5 68.0522 248.052 68.5 247.5 68.5L204.5 68.5C203.948 68.5 203.5 68.0522 203.5 67.4999Z" stroke="#000080" stroke-width="1.33585" stroke-miterlimit="8" fill="#FFFFFF" fill-rule="evenodd"/><text font-family="Calibri,Calibri_MSFontService,sans-serif" font-weight="700" font-size="5" transform="translate(214.887 66)">ENHANCEMENT</text><g clip-path="url(#clip4)"><g clip-path="url(#clip5)"><g clip-path="url(#clip6)"><path d="M210.052 62.9602C209.906 62.8158 209.671 62.8158 209.525 62.9602L204.486 67.9356C204.415 68.0065 204.375 68.1021 204.375 68.2026 204.375 68.3031 204.415 68.3988 204.486 68.4696L205.547 69.517C205.62 69.589 205.716 69.625 205.811 69.625 205.906 69.625 206.001 69.589 206.075 69.517L211.113 64.5411C211.184 64.4706 211.224 64.3746 211.224 64.2745 211.224 64.1744 211.184 64.0784 211.113 64.0079L210.052 62.9602ZM209.257 65.3204 208.73 64.7999 209.789 63.754 210.315 64.2745 209.257 65.3204Z"/><path d="M211.5 62.4862 211.875 62.4862 211.875 62.1157 212.25 62.1157 212.25 61.7455 211.875 61.7455 211.875 61.375 211.5 61.375 211.5 61.7455 211.125 61.7455 211.125 62.1157 211.5 62.1157Z"/><path d="M208.875 62.4862 209.25 62.4862 209.25 62.1157 209.625 62.1157 209.625 61.7455 209.25 61.7455 209.25 61.375 208.875 61.375 208.875 61.7455 208.5 61.7455 208.5 62.1157 208.875 62.1157Z"/><path d="M211.5 63.2268 211.875 63.2268 211.875 63.5973 211.5 63.5973Z"/><path d="M212.25 62.4862 212.625 62.4862 212.625 62.8563 212.25 62.8563Z"/><path d="M207.75 62.8563 208.125 62.8563 208.125 63.2268 207.75 63.2268Z"/><path d="M210.375 62.1157 210.75 62.1157 210.75 62.4862 210.375 62.4862Z"/><path d="M212.25 64.3379 211.875 64.3379 211.875 64.708 211.5 64.708 211.5 65.0785 211.875 65.0785 211.875 65.449 212.25 65.449 212.25 65.0785 212.625 65.0785 212.625 64.708 212.25 64.708Z"/></g></g></g><path d="M226.5 126.667C226.5 126.022 227.022 125.5 227.667 125.5L247.333 125.5C247.978 125.5 248.5 126.022 248.5 126.667L248.5 131.333C248.5 131.978 247.978 132.5 247.333 132.5L227.667 132.5C227.022 132.5 226.5 131.978 226.5 131.333Z" stroke="#000080" stroke-width="1.33585" stroke-miterlimit="8" fill="#FFFFFF" fill-rule="evenodd"/><text font-family="Calibri,Calibri_MSFontService,sans-serif" font-weight="700" font-size="5" transform="translate(237.317 130)">EPIC</text><g clip-path="url(#clip7)"><g clip-path="url(#clip8)"><g clip-path="url(#clip9)"><path d="M7.5941 1.87499 6.00036 1.87499 6.00036 1.125 3.75036 1.125 3.75036 0.749998C3.75036 0.542998 3.58236 0.374999 3.37537 0.374999 3.16837 0.374999 3.00037 0.542998 3.00037 0.749998L3.00037 1.125 3.00037 4.12499 3.00037 6.37498 1.87537 6.37498C1.73325 6.37498 1.6035 6.45523 1.53975 6.58236L0.789748 8.08235C0.697123 8.2676 0.772123 8.49335 0.957372 8.5856 1.14337 8.67785 1.36762 8.60322 1.46062 8.41835L2.10712 7.12498 4.64361 7.12498 5.29011 8.4176C5.35573 8.54922 5.48811 8.62497 5.62573 8.62497 5.68161 8.62497 5.73973 8.61222 5.79298 8.5856 5.97823 8.49335 6.05286 8.2676 5.96061 8.08235L5.21061 6.58236C5.14723 6.45523 5.01749 6.37498 4.87536 6.37498L3.75036 6.37498 3.75036 4.12499 5.25036 4.12499 5.25036 4.87499 7.5941 4.87499C7.9616 4.87499 8.25035 4.54574 8.25035 4.12499L8.25035 2.62499C8.25035 2.20424 7.9616 1.87499 7.5941 1.87499ZM3.75036 3.37499 3.75036 1.87499 5.25036 1.87499 5.25036 3.37499 3.75036 3.37499ZM7.50035 4.12499 6.00036 4.12499 6.00036 2.62499 7.50035 2.62499 7.50035 4.12499Z" transform="matrix(1.11112 0 -0 1 226 124)"/></g></g></g><path d="M217.5 190.5C217.5 189.948 217.948 189.5 218.5 189.5L247.5 189.5C248.052 189.5 248.5 189.948 248.5 190.5L248.5 194.5C248.5 195.052 248.052 195.5 247.5 195.5L218.5 195.5C217.948 195.5 217.5 195.052 217.5 194.5Z" stroke="#46F0F0" stroke-width="1.33585" stroke-miterlimit="8" fill="#FFFFFF" fill-rule="evenodd"/><text font-family="Calibri,Calibri_MSFontService,sans-serif" font-weight="700" font-size="5" transform="translate(228.895 193)">RELEASE</text><g clip-path="url(#clip10)"><g clip-path="url(#clip11)"><g clip-path="url(#clip12)"><path d="M2.14162 5.35461C1.99499 5.20798 1.75762 5.20798 1.611 5.35461 1.46437 5.50086 1.46437 5.73786 1.611 5.88486L3.11324 7.38823C3.18637 7.46098 3.28274 7.4981 3.37874 7.4981 3.47474 7.4981 3.57074 7.46098 3.64386 7.38823 3.79049 7.24198 3.79049 7.00498 3.64386 6.85798L2.14162 5.35461Z" transform="matrix(1 0 -0 1.11112 218 187)"/><path d="M1.3905 6.85798C1.24387 6.71098 1.0065 6.71098 0.859872 6.85798 0.713248 7.00423 0.713248 7.24123 0.859872 7.38823L1.611 8.1401C1.68412 8.21323 1.78049 8.24998 1.87612 8.24998 1.97174 8.24998 2.06812 8.21323 2.14124 8.1401 2.28787 7.99348 2.28787 7.75648 2.14124 7.60985L1.3905 6.85798Z" transform="matrix(1 0 -0 1.11112 218 187)"/><path d="M8.1401 0.859872C8.05948 0.779248 7.9451 0.739498 7.8341 0.752248L5.44348 1.01775C5.35836 1.02712 5.27923 1.065 5.21923 1.12537L4.23674 2.10862 1.69274 2.61749C1.557 2.64524 1.4475 2.74424 1.40737 2.87662 1.36725 3.00899 1.40325 3.15262 1.50112 3.25049L2.52824 4.27836C2.53874 4.29224 2.54399 4.30836 2.55637 4.32074L4.68149 6.44661C4.69424 6.45898 4.71111 6.46536 4.72499 6.47586L5.75098 7.50223C5.82186 7.57348 5.91786 7.6121 6.01611 7.6121 6.05286 7.6121 6.08848 7.60685 6.12486 7.59598 6.25723 7.55623 6.35661 7.44635 6.38361 7.3106L6.89173 4.76436 7.87385 3.78149C7.93423 3.72111 7.9721 3.64236 7.98148 3.55761L8.24698 1.1655C8.2601 1.05375 8.22073 0.940497 8.1401 0.859872ZM3.28124 3.06449 2.82862 3.51786 2.52637 3.21599 3.28124 3.06449ZM5.78623 6.47661 5.48361 6.17398 5.93661 5.72098 5.78623 6.47661ZM7.25135 3.34499 6.28236 4.31474C6.28198 4.31474 6.28198 4.31474 6.28198 4.31474L4.94624 5.65123 3.35212 4.05561 4.68749 2.71912C4.68824 2.71874 4.68824 2.71799 4.68899 2.71724L5.65648 1.74862 7.45048 1.54912 7.25135 3.34499Z" transform="matrix(1 0 -0 1.11112 218 187)"/><path d="M6.94685 2.79974C6.94685 3.21437 6.61073 3.55049 6.19611 3.55049 5.78148 3.55049 5.44536 3.21437 5.44536 2.79974 5.44536 2.38512 5.78148 2.04899 6.19611 2.04899 6.61073 2.04899 6.94685 2.38512 6.94685 2.79974Z" transform="matrix(1 0 -0 1.11112 218 187)"/></g></g></g><path d="M164.24 62 194.76 62C198.759 62 202 64.9102 202 68.5 202 72.0898 198.759 75 194.76 75L164.24 75C160.241 75 157 72.0898 157 68.5 157 64.9102 160.241 62 164.24 62Z" fill="#313131" fill-rule="evenodd"/><text fill="#FFFFFF" font-family="Calibri,Calibri_MSFontService,sans-serif" font-weight="700" font-size="5" transform="translate(160.393 71)">&lt;Contributed by|</text><path d="M167.779 125 213.221 125C219.174 125 224 128.134 224 132 224 135.866 219.174 139 213.221 139L167.779 139C161.826 139 157 135.866 157 132 157 128.134 161.826 125 167.779 125Z" fill="#313131" fill-rule="evenodd"/><text fill="#FFFFFF" font-family="Calibri,Calibri_MSFontService,sans-serif" font-weight="700" font-size="5" transform="translate(171.747 134)">&lt;Contributed by|</text><path d="M166.492 189 206.508 189C211.75 189 216 191.91 216 195.5 216 199.09 211.75 202 206.508 202L166.492 202C161.25 202 157 199.09 157 195.5 157 191.91 161.25 189 166.492 189Z" fill="#313131" fill-rule="evenodd"/><text fill="#FFFFFF" font-family="Calibri,Calibri_MSFontService,sans-serif" font-weight="700" font-size="5" transform="translate(172.332 197)">|In scope of&gt;</text><path d="M84 222 89.5 218 95 222Z" fill="#FFFFFF" fill-rule="evenodd"/><path d="M71.5001 225.667C71.5001 224.47 72.4701 223.5 73.6668 223.5L101.333 223.5C102.53 223.5 103.5 224.47 103.5 225.667L103.5 234.333C103.5 235.53 102.53 236.5 101.333 236.5L73.6668 236.5C72.4701 236.5 71.5001 235.53 71.5001 234.333Z" stroke="#46F0F0" stroke-width="1.33585" stroke-miterlimit="8" fill="#FFFFFF" fill-rule="evenodd"/><text font-family="Calibri,Calibri_MSFontService,sans-serif" font-weight="700" font-size="5" transform="translate(83.3771 228)">PROJECT<tspan x="0" y="6">TASK</tspan></text><g clip-path="url(#clip13)"><g clip-path="url(#clip14)"><g clip-path="url(#clip15)"><path d="M5.03165 6.41581 5.03249 6.41665 7.08331 4.28332 6.57081 3.74999 5.03165 5.34998 4.26249 4.54999 3.74999 5.08332 5.03165 6.41665Z" transform="matrix(1 0 -0 1.00001 72 225)"/><path d="M8.33331 0.833331 2.08333 0.833331C1.85333 0.833331 1.66666 1.02 1.66666 1.25L1.66666 2.91666 1.25 2.91666C1.02 2.91666 0.833331 3.10332 0.833331 3.33332 0.833331 3.56332 1.02 3.74999 1.25 3.74999L1.66666 3.74999 1.66666 4.58332 1.25 4.58332C1.02 4.58332 0.833331 4.76999 0.833331 4.99999 0.833331 5.2304 1.02 5.41665 1.25 5.41665L1.66666 5.41665 1.66666 6.24998 1.25 6.24998C1.02 6.24998 0.833331 6.43623 0.833331 6.66665 0.833331 6.89706 1.02 7.08331 1.25 7.08331L1.66666 7.08331 1.66666 8.74997C1.66666 8.98039 1.85333 9.16664 2.08333 9.16664L8.33331 9.16664C8.56372 9.16664 8.74997 8.98039 8.74997 8.74997L8.74997 1.25C8.74997 1.02 8.56372 0.833331 8.33331 0.833331ZM7.91664 8.33331 2.49999 8.33331 2.49999 7.08331 2.91666 7.08331C3.14666 7.08331 3.33332 6.89706 3.33332 6.66665 3.33332 6.43623 3.14666 6.24998 2.91666 6.24998L2.49999 6.24998 2.49999 5.41665 2.91666 5.41665C3.14666 5.41665 3.33332 5.2304 3.33332 4.99999 3.33332 4.76999 3.14666 4.58332 2.91666 4.58332L2.49999 4.58332 2.49999 3.74999 2.91666 3.74999C3.14666 3.74999 3.33332 3.56332 3.33332 3.33332 3.33332 3.10332 3.14666 2.91666 2.91666 2.91666L2.49999 2.91666 2.49999 1.66666 7.91664 1.66666 7.91664 8.33331Z" transform="matrix(1 0 -0 1.00001 72 225)"/></g></g></g><path d="M84 41 89.5 38 95 41Z" fill="#FFFFFF" fill-rule="evenodd"/><path d="M71.5001 31.5C71.5001 30.9477 71.9478 30.5 72.5001 30.5L102.5 30.5C103.052 30.5 103.5 30.9477 103.5 31.5L103.5 35.5C103.5 36.0523 103.052 36.5 102.5 36.5L72.5001 36.5C71.9478 36.5 71.5001 36.0523 71.5001 35.5Z" stroke="#46F0F0" stroke-width="1.33585" stroke-miterlimit="8" fill="#FFFFFF" fill-rule="evenodd"/><text font-family="Calibri,Calibri_MSFontService,sans-serif" font-weight="700" font-size="5" transform="translate(83.0711 34)">PROJECT</text><g clip-path="url(#clip16)"><g clip-path="url(#clip17)"><g clip-path="url(#clip18)"><path d="M80.75 29.6667 75.125 29.6667 75.125 28.8334 74.2916 28.8334 74.2916 28.8334C73.4717 28.9371 72.8333 29.6525 72.8333 30.5L72.8333 35.5C72.8333 36.4192 73.5808 37.1667 74.5 37.1667L80.75 37.1667C80.9804 37.1667 81.1666 36.9804 81.1666 36.75L81.1666 30.0833C81.1666 29.8533 80.9804 29.6667 80.75 29.6667ZM74.2916 29.6963 74.2916 33.8546C74.0658 33.8829 73.8554 33.9554 73.6667 34.0654L73.6667 30.5C73.6667 30.1129 73.9333 29.7892 74.2916 29.6963ZM80.3333 36.3333 74.5 36.3333C74.0404 36.3333 73.6667 35.96 73.6667 35.5 73.6667 35.04 74.0404 34.6667 74.5 34.6667L75.125 34.6667 75.125 30.5 80.3333 30.5 80.3333 36.3333Z"/><path d="M76.5833 33 77 33 77 33.8333 76.5833 33.8333C76.3533 33.8333 76.1666 34.0196 76.1666 34.25 76.1666 34.4804 76.3533 34.6667 76.5833 34.6667L77 34.6667 77 35.0833C77 35.3138 77.1862 35.5 77.4166 35.5 77.6471 35.5 77.8333 35.3138 77.8333 35.0833L77.8333 34.6667 79.0833 34.6667C79.3137 34.6667 79.5 34.4804 79.5 34.25 79.5 34.0196 79.3137 33.8333 79.0833 33.8333L77.8333 33.8333 77.8333 33 79.0833 33C79.3137 33 79.5 32.8133 79.5 32.5833 79.5 32.3533 79.3137 32.1667 79.0833 32.1667L77.8333 32.1667 77.8333 31.75C77.8333 31.52 77.6471 31.3333 77.4166 31.3333 77.1862 31.3333 77 31.52 77 31.75L77 32.1667 76.5833 32.1667C76.3533 32.1667 76.1666 32.3533 76.1666 32.5833 76.1666 32.8133 76.3533 33 76.5833 33Z"/></g></g></g></g></svg>