<svg width="189" height="189" xmlns="http://www.w3.org/2000/svg" xmlns:xlink="http://www.w3.org/1999/xlink" overflow="hidden"><defs><clipPath id="clip0"><path d="M0 0 189 0 189 189 0 189Z" fill-rule="evenodd" clip-rule="evenodd"/></clipPath><clipPath id="clip1"><path d="M3 3 47 3 47 50 3 50Z" fill-rule="evenodd" clip-rule="evenodd"/></clipPath><clipPath id="clip2"><path d="M3 3 47 3 47 51 3 51Z" fill-rule="evenodd" clip-rule="evenodd"/></clipPath><clipPath id="clip3"><path d="M3 3 47 3 47 51 3 51Z" fill-rule="evenodd" clip-rule="evenodd"/></clipPath></defs><g clip-path="url(#clip0)"><rect x="0" y="0" width="189" height="189" fill="#313131"/><text fill="#FFFFFF" font-family="Calibri,Calibri_MSFontService,sans-serif" font-weight="300" font-size="11" transform="translate(9.60032 0)">STAGE</text><rect x="3.50005" y="3.50005" width="1" height="1" stroke="#2F528F" stroke-width="1.33333" stroke-miterlimit="8" fill="#4472C4"/><rect x="0" y="0" width="189" height="189" stroke="#F032E6" stroke-width="8" stroke-miterlimit="8" fill="#FFFFFF"/><g clip-path="url(#clip1)"><g clip-path="url(#clip2)"><g clip-path="url(#clip3)"><path d="M22 16C26.412 16 30 12.412 30 8 30 3.588 26.412 0 22 0 17.588 0 14 3.588 14 8 14 12.412 17.588 16 22 16ZM22 4C24.206 4 26 5.794 26 8 26 10.206 24.206 12 22 12 19.794 12 18 10.206 18 8 18 5.794 19.794 4 22 4Z" transform="matrix(1 0 -0 1.02174 3 3)"/><path d="M12 34C13.104 34 14 33.106 14 32L14 26C14 23.794 15.794 22 18 22L26 22C28.206 22 30 23.794 30 26L30 32C30 33.106 30.894 34 32 34 33.106 34 34 33.106 34 32L34 26C34 21.588 30.412 18 26 18L18 18C13.588 18 10 21.588 10 26L10 32C10 33.106 10.896 34 12 34Z" transform="matrix(1 0 -0 1.02174 3 3)"/><path d="M38 34C35.396 34 33.198 35.678 32.37 38L27.632 38C26.804 35.678 24.604 34 22.002 34 19.4 34 17.2 35.678 16.37 38L11.632 38C10.802 35.678 8.604 34 6 34 2.692 34 0 36.692 0 40 0 43.308 2.692 46 6 46 8.604 46 10.802 44.322 11.632 42L16.37 42C17.198 44.322 19.398 46 22 46 24.602 46 26.802 44.322 27.63 42L32.368 42C33.196 44.322 35.396 46 37.998 46 41.306 46 43.998 43.308 43.998 40 43.998 36.692 41.308 34 38 34ZM6 42C4.898 42 4 41.104 4 40 4 38.896 4.898 38 6 38 7.102 38 8 38.896 8 40 8 41.104 7.102 42 6 42ZM38 42C36.896 42 36 41.104 36 40 36 38.896 36.896 38 38 38 39.104 38 40 38.896 40 40 40 41.104 39.104 42 38 42Z" transform="matrix(1 0 -0 1.02174 3 3)"/></g></g></g><text font-family="Calibri,Calibri_MSFontService,sans-serif" font-weight="700" font-size="20" transform="translate(53.7114 23)">USER JOURNEY <tspan x="37.0067" y="24">STAGE</tspan><tspan font-weight="400" font-size="12" x="-47.1724" y="78">The </tspan><tspan font-size="12" x="-26.3391" y="78">User Journey stages</tspan><tspan font-weight="400" font-size="12" x="75.6609" y="78">are the </tspan><tspan font-weight="400" font-size="12" x="-47.1724" y="93">steps that customers go through </tspan><tspan font-weight="400" font-size="12" x="-47.1724" y="107">when interacting with an </tspan><tspan font-weight="400" font-size="12" x="-47.1724" y="121">organization.</tspan></text></g></svg>