<svg width="265" height="265" xmlns="http://www.w3.org/2000/svg" xmlns:xlink="http://www.w3.org/1999/xlink" overflow="hidden"><defs><clipPath id="clip0"><path d="M0 0 265 0 265 265 0 265Z" fill-rule="evenodd" clip-rule="evenodd"/></clipPath><clipPath id="clip1"><path d="M35 51 55 51 55 71 35 71Z" fill-rule="evenodd" clip-rule="evenodd"/></clipPath><clipPath id="clip2"><path d="M35 51 55 51 55 71 35 71Z" fill-rule="evenodd" clip-rule="evenodd"/></clipPath><clipPath id="clip3"><path d="M35 51 55 51 55 71 35 71Z" fill-rule="evenodd" clip-rule="evenodd"/></clipPath><clipPath id="clip4"><path d="M212 124 222 124 222 134 212 134Z" fill-rule="evenodd" clip-rule="evenodd"/></clipPath><clipPath id="clip5"><path d="M212 124 222 124 222 134 212 134Z" fill-rule="evenodd" clip-rule="evenodd"/></clipPath><clipPath id="clip6"><path d="M212 124 222 124 222 134 212 134Z" fill-rule="evenodd" clip-rule="evenodd"/></clipPath></defs><g clip-path="url(#clip0)"><rect x="0" y="0" width="265" height="265" fill="#313131"/><rect x="89.5" y="131.5" width="1.99999" height="1" stroke="#2F528F" stroke-width="1.33585" stroke-miterlimit="8" fill="#4472C4"/><path d="M23.5 9.75271C23.5 8.50859 24.5085 7.50003 25.7527 7.50003L249.247 7.50003C250.491 7.50003 251.5 8.50859 251.5 9.75271L251.5 249.247C251.5 250.491 250.491 251.5 249.247 251.5L25.7527 251.5C24.5085 251.5 23.5 250.491 23.5 249.247Z" stroke="#FF0000" stroke-width="0.667927" stroke-miterlimit="8" stroke-opacity="0" fill="none" fill-rule="evenodd"/><path d="M30.0794 43.5 149.921 43.5C153.002 43.5 155.5 45.998 155.5 49.0794L155.5 214.252C155.5 216.598 153.598 218.5 151.252 218.5L28.7483 218.5C26.402 218.5 24.5 216.598 24.5 214.252L24.5 49.0794C24.5 45.998 26.998 43.5 30.0794 43.5Z" stroke="#5AA203" stroke-width="4.67549" stroke-miterlimit="8" fill="#FFFFFF" fill-rule="evenodd"/><g clip-path="url(#clip1)"><g clip-path="url(#clip2)"><g clip-path="url(#clip3)"><path d="M47.7498 66.25 41.2186 66.25C40.3988 66.25 39.7342 66.9146 39.7342 67.7344 39.7342 68.5542 40.3988 69.2187 41.2186 69.2187L47.7498 69.2187C48.5696 69.2187 49.2342 68.5542 49.2342 67.7344 49.2342 66.9146 48.5696 66.25 47.7498 66.25ZM41.6144 68.3281C41.2865 68.3281 41.0206 68.0623 41.0206 67.7344 41.0206 67.4064 41.2865 67.1406 41.6144 67.1406 41.9423 67.1406 42.2081 67.4064 42.2081 67.7344 42.2081 68.0623 41.9423 68.3281 41.6144 68.3281ZM44.4842 68.3281C44.1563 68.3281 43.8904 68.0623 43.8904 67.7344 43.8904 67.4064 44.1563 67.1406 44.4842 67.1406 44.8121 67.1406 45.0779 67.4064 45.0779 67.7344 45.0779 68.0623 44.8121 68.3281 44.4842 68.3281ZM47.354 68.3281C47.0261 68.3281 46.7602 68.0623 46.7602 67.7344 46.7602 67.4064 47.0261 67.1406 47.354 67.1406 47.6819 67.1406 47.9477 67.4064 47.9477 67.7344 47.9477 68.0623 47.6819 68.3281 47.354 68.3281Z"/><path d="M45.8518 57.5416C45.8518 57.7056 45.7189 57.8385 45.5549 57.8385 45.391 57.8385 45.258 57.7056 45.258 57.5416 45.258 57.3777 45.391 57.2448 45.5549 57.2448 45.7189 57.2448 45.8518 57.3777 45.8518 57.5416Z"/><path d="M46.2041 55.5625 44.8959 55.5625 44.8959 54.6619C45.2745 54.4433 45.4042 53.9591 45.1856 53.5805 44.967 53.2018 44.4828 53.0721 44.1042 53.2907 43.7255 53.5093 43.5958 53.9935 43.8144 54.3722 43.8839 54.4925 43.9838 54.5924 44.1042 54.6619L44.1042 55.5625 42.796 55.5625C42.3166 55.5635 41.9282 55.9519 41.9271 56.4313L41.9271 58.6519C41.9282 59.1313 42.3166 59.5197 42.796 59.5208L46.2041 59.5208C46.6835 59.5197 47.0719 59.1313 47.0729 58.6519L47.0729 56.4313C47.0719 55.9519 46.6835 55.5635 46.2041 55.5625ZM43.5104 58.1354C43.1825 58.1354 42.9167 57.8696 42.9167 57.5416 42.9167 57.2137 43.1825 56.9479 43.5104 56.9479 43.8384 56.9479 44.1042 57.2137 44.1042 57.5416 44.1042 57.8696 43.8384 58.1354 43.5104 58.1354ZM45.4896 58.1354C45.1617 58.1354 44.8959 57.8696 44.8959 57.5416 44.8959 57.2137 45.1617 56.9479 45.4896 56.9479 45.8175 56.9479 46.0834 57.2137 46.0834 57.5416 46.0834 57.8696 45.8175 58.1354 45.4896 58.1354Z"/><path d="M43.8726 57.5416C43.8726 57.7056 43.7397 57.8385 43.5758 57.8385 43.4118 57.8385 43.2789 57.7056 43.2789 57.5416 43.2789 57.3777 43.4118 57.2448 43.5758 57.2448 43.7397 57.2448 43.8726 57.3777 43.8726 57.5416Z"/><path d="M49.6459 63.6414 49.6459 61.9928C49.6459 61.502 49.248 61.1041 48.7572 61.1041L47.6667 61.1041 47.6667 60.1146 41.3334 60.1146 41.3334 61.3021 39.847 61.3021C39.7934 61.3021 39.75 61.2586 39.75 61.2051L39.75 59.5643C40.4304 59.3634 40.819 58.649 40.6181 57.9687 40.5642 57.7863 40.4705 57.6181 40.3438 57.4763L39.75 58.0028C39.8331 58.0931 39.8802 58.2106 39.8826 58.3333 39.8811 58.6066 39.6584 58.8269 39.3851 58.8254 39.1119 58.8239 38.8916 58.6012 38.8931 58.3279 38.8937 58.2099 38.9365 58.096 39.0138 58.0067L38.42 57.4862C37.9535 58.0221 38.0098 58.8347 38.5458 59.3012 38.667 59.4067 38.8069 59.4886 38.9583 59.5426L38.9583 61.2051C38.9583 61.6959 39.3562 62.0937 39.847 62.0937L41.3334 62.0937 41.3334 65.6562 47.6667 65.6562 47.6667 61.8958 48.7572 61.8958C48.8108 61.8958 48.8542 61.9392 48.8542 61.9928L48.8542 63.6414C48.1782 63.8601 47.8075 64.5854 48.0262 65.2614 48.0809 65.4306 48.1701 65.5866 48.2882 65.7196L48.8819 65.1931C48.8 65.1033 48.7548 64.9861 48.7552 64.8646 48.7555 64.5913 48.9772 64.3699 49.2505 64.3702 49.5237 64.3704 49.7451 64.5921 49.7448 64.8654 49.7447 64.9853 49.7011 65.101 49.6221 65.1911L50.2159 65.7117C50.6842 65.1788 50.6318 64.3672 50.0989 63.8989 49.9671 63.783 49.8129 63.6954 49.6459 63.6414ZM46.875 62.8854 46.3248 62.8854C46.3057 62.8888 46.2875 62.8962 46.2714 62.9072L45.6658 63.5266 45.2046 62.4341 44.3437 64.2154 43.74 61.8958 43.2749 62.8854 42.3229 62.8854 42.3229 62.4896 43.0236 62.4896 43.8469 60.738 44.4565 63.0695 45.2303 61.4861 45.8003 62.8359 45.9983 62.638C46.0852 62.55 46.2014 62.4972 46.3248 62.4896L46.875 62.4896Z"/></g></g></g><path d="M26.9702 6.36947C18.5628 6.36947 11.7473 10.3112 11.7473 15.1736L11.7473 248.948C11.7473 253.81 18.5628 257.752 26.9702 257.752L238.08 257.752C246.487 257.752 253.302 253.81 253.302 248.948L253.302 15.1736C253.302 10.3112 246.487 6.36947 238.08 6.36947ZM0 0 265 0 265 265 0 265Z" fill="#5AA203" fill-rule="evenodd"/><text font-family="Calibri,Calibri_MSFontService,sans-serif" font-weight="700" font-size="11" transform="translate(63.2758 63)">CAPABILITY LIFE <tspan x="22.2887" y="13">CYCLE</tspan><tspan font-size="9" x="-31.9855" y="79">Lifecycle stages</tspan><tspan font-weight="400" font-size="9" x="29.9647" y="79">used for a </tspan><tspan font-size="9" x="-31.9855" y="90">Capability</tspan><tspan font-weight="400" font-size="9" x="7.08823" y="90">.</tspan></text><path d="M212.5 126.667C212.5 126.022 213.022 125.5 213.667 125.5L247.333 125.5C247.978 125.5 248.5 126.022 248.5 126.667L248.5 131.333C248.5 131.978 247.978 132.5 247.333 132.5L213.667 132.5C213.022 132.5 212.5 131.978 212.5 131.333Z" stroke="#911EB4" stroke-width="1.33585" stroke-miterlimit="8" fill="#FFFFFF" fill-rule="evenodd"/><text font-family="Calibri,Calibri_MSFontService,sans-serif" font-weight="700" font-size="5" transform="translate(223.229 130)">CAPABILITY</text><g clip-path="url(#clip4)"><g clip-path="url(#clip5)"><g clip-path="url(#clip6)"><path d="M7.87498 3.74999 1.125 3.74999C0.917997 3.74999 0.749998 3.91799 0.749998 4.12499L0.749998 5.62498C0.749998 5.83236 0.917997 5.99998 1.125 5.99998L1.5 5.99998 1.5 8.24998C1.5 8.45735 1.668 8.62497 1.87499 8.62497L7.12498 8.62497C7.33235 8.62497 7.49998 8.45735 7.49998 8.24998L7.49998 5.99998 7.87498 5.99998C8.08235 5.99998 8.24998 5.83236 8.24998 5.62498L8.24998 4.12499C8.24998 3.91799 8.08235 3.74999 7.87498 3.74999ZM6.74998 7.87498 2.24999 7.87498 2.24999 5.99998 6.74998 5.99998 6.74998 7.87498ZM7.49998 5.24998 7.12498 5.24998 1.87499 5.24998 1.5 5.24998 1.5 4.49999 7.49998 4.49999 7.49998 5.24998Z" transform="matrix(1.11111 0 -0 1 212 124)"/><path d="M1.87499 2.99999 3.74999 2.99999C3.95736 2.99999 4.12499 2.83199 4.12499 2.62499L4.12499 0.749998C4.12499 0.542998 3.95736 0.374999 3.74999 0.374999L1.87499 0.374999C1.668 0.374999 1.5 0.542998 1.5 0.749998L1.5 2.62499C1.5 2.83199 1.668 2.99999 1.87499 2.99999ZM2.24999 1.125 3.37499 1.125 3.37499 2.24999 2.24999 2.24999 2.24999 1.125Z" transform="matrix(1.11111 0 -0 1 212 124)"/><path d="M6.18748 2.99999C6.91273 2.99999 7.49998 2.41237 7.49998 1.68749 7.49998 0.962622 6.91273 0.374999 6.18748 0.374999 5.46223 0.374999 4.87499 0.962622 4.87499 1.68749 4.87499 2.41237 5.46223 2.99999 6.18748 2.99999ZM6.18748 1.125C6.49798 1.125 6.74998 1.37662 6.74998 1.68749 6.74998 1.99837 6.49798 2.24999 6.18748 2.24999 5.87698 2.24999 5.62498 1.99837 5.62498 1.68749 5.62498 1.37662 5.87698 1.125 6.18748 1.125Z" transform="matrix(1.11111 0 -0 1 212 124)"/></g></g></g><path d="M165.527 125 201.473 125C206.183 125 210 128.134 210 132 210 135.866 206.183 139 201.473 139L165.527 139C160.817 139 157 135.866 157 132 157 128.134 160.817 125 165.527 125Z" fill="#313131" fill-rule="evenodd"/><text fill="#FFFFFF" font-family="Calibri,Calibri_MSFontService,sans-serif" font-weight="700" font-size="5" transform="translate(178.26 134)">|Of&gt;</text></g></svg>