<svg width="189" height="189" xmlns="http://www.w3.org/2000/svg" xmlns:xlink="http://www.w3.org/1999/xlink" overflow="hidden"><defs><clipPath id="clip0"><path d="M0 0 189 0 189 189 0 189Z" fill-rule="evenodd" clip-rule="evenodd"/></clipPath><clipPath id="clip1"><path d="M3 3 47 3 47 48 3 48Z" fill-rule="evenodd" clip-rule="evenodd"/></clipPath><clipPath id="clip2"><path d="M3 3 47 3 47 48 3 48Z" fill-rule="evenodd" clip-rule="evenodd"/></clipPath><clipPath id="clip3"><path d="M3 3 47 3 47 48 3 48Z" fill-rule="evenodd" clip-rule="evenodd"/></clipPath></defs><g clip-path="url(#clip0)"><rect x="0" y="0" width="189" height="189" fill="#313131"/><text fill="#FFFFFF" font-family="Calibri,Calibri_MSFontService,sans-serif" font-weight="300" font-size="11" transform="translate(9.60032 -5)">STRATEGY</text><rect x="3.50005" y="3.50005" width="1" height="1" stroke="#2F528F" stroke-width="1.33333" stroke-miterlimit="8" fill="#4472C4"/><rect x="0" y="0" width="189" height="189" stroke="#E6BEFF" stroke-width="8" stroke-miterlimit="8" fill="#FFFFFF"/><g clip-path="url(#clip1)"><g clip-path="url(#clip2)"><g clip-path="url(#clip3)"><path d="M41.9265 39.4258 38.5678 29.3333 42.0383 18.9127C42.0952 18.733 42.1245 18.5478 42.1282 18.3608 42.1263 18.3517 42.13 18.3425 42.13 18.3333 42.13 18.3003 42.1135 18.2747 42.1117 18.2435 42.1043 18.1243 42.1043 18.0052 42.0732 17.8897L38.4102 3.223C38.2067 2.40533 37.4752 1.83333 36.6355 1.83333L3.66483 1.83333C3.10017 1.83333 2.56667 2.09367 2.222 2.53917 1.8755 2.98467 1.75083 3.564 1.88833 4.11217L5.423 18.26 1.92867 28.754C1.804 29.1298 1.804 29.5387 1.92867 29.9145L5.59167 40.9145C5.841 41.6625 6.53767 42.1667 7.32967 42.1667L40.3003 42.1667C40.315 42.1685 40.3297 42.1667 40.337 42.1667 41.349 42.1667 42.1667 41.3472 42.1667 40.3333 42.1667 40.0033 42.0805 39.6917 41.9265 39.4258ZM8.64967 38.5 6.20767 31.1667 10.9908 31.1667C12.001 31.1667 12.8223 30.3472 12.8223 29.3333 12.8223 28.3195 12.001 27.5 10.9908 27.5L6.20767 27.5 8.64967 20.1667 16.5605 20.1667C17.5707 20.1667 18.3938 19.3453 18.3938 18.3333 18.3938 17.3213 17.5725 16.5 16.5605 16.5L8.75967 16.5 6.0115 5.5 35.2037 5.5 37.9518 16.5 34.804 16.5C33.7902 16.5 32.9725 17.3213 32.9725 18.3333 32.9725 19.3453 33.7902 20.1667 34.804 20.1667L37.7538 20.1667 35.3137 27.5 29.3077 27.5C28.2957 27.5 27.4762 28.3195 27.4762 29.3333 27.4762 30.3472 28.2957 31.1667 29.3077 31.1667L35.3137 31.1667 37.7538 38.5 8.64967 38.5Z" transform="matrix(1 0 -0 1.02273 3 3)"/><path d="M19.2353 27.5C16.7108 27.5 14.6557 29.5552 14.6557 32.0833 14.6557 34.6115 16.7108 36.6667 19.2353 36.6667 21.7598 36.6667 23.815 34.6115 23.815 32.0833 23.815 29.5552 21.7598 27.5 19.2353 27.5ZM19.2353 33C18.7293 33 18.3187 32.5875 18.3187 32.0833 18.3187 31.5792 18.7293 31.1667 19.2353 31.1667 19.7395 31.1667 20.152 31.5792 20.152 32.0833 20.152 32.5875 19.7395 33 19.2353 33Z" transform="matrix(1 0 -0 1.02273 3 3)"/><path d="M30.6038 13.3705 26.9408 9.70383C26.224 8.987 25.0653 8.987 24.3503 9.70383 23.6335 10.4207 23.6335 11.5793 24.3503 12.2962L27.0068 14.9545 22.3043 22.8672C21.7873 23.738 22.0715 24.86 22.946 25.3807 23.2375 25.5567 23.5602 25.6392 23.8792 25.6392 24.5043 25.6392 25.113 25.3202 25.4522 24.7445L30.8843 15.6072C31.3115 14.883 31.1942 13.9627 30.6038 13.3705Z" transform="matrix(1 0 -0 1.02273 3 3)"/><path d="M20.1502 12.8333 20.1502 9.16667C20.1502 8.15467 19.3288 7.33333 18.3187 7.33333L14.6557 7.33333C13.6437 7.33333 12.8242 8.15467 12.8242 9.16667L12.8242 12.8333C12.8242 13.8453 13.6455 14.6667 14.6557 14.6667L18.3205 14.6667C19.3288 14.6667 20.1502 13.8453 20.1502 12.8333Z" transform="matrix(1 0 -0 1.02273 3 3)"/></g></g></g><text font-family="Calibri,Calibri_MSFontService,sans-serif" font-weight="700" font-size="20" transform="translate(75.1315 23)">STRATEGY<tspan font-weight="400" font-size="12" x="-68.5925" y="86">A </tspan><tspan font-size="12" x="-58.9258" y="86">Strategy</tspan><tspan font-weight="400" font-size="12" x="-14.5925" y="86">represents an essential </tspan><tspan font-size="12" x="-68.5925" y="101">Course of Action</tspan><tspan font-weight="400" font-size="12" x="16.7408" y="101">that will be </tspan><tspan font-weight="400" font-size="12" x="-68.5925" y="115">sustained in pursuit of a </tspan><tspan font-size="12" x="51.0742" y="115">Goal</tspan><tspan font-weight="400" font-size="12" x="74.2408" y="115">.</tspan></text></g></svg>