<svg width="189" height="189" xmlns="http://www.w3.org/2000/svg" xmlns:xlink="http://www.w3.org/1999/xlink" overflow="hidden"><defs><clipPath id="clip0"><path d="M0 0 189 0 189 189 0 189Z" fill-rule="evenodd" clip-rule="evenodd"/></clipPath><clipPath id="clip1"><path d="M3 3 47 3 47 48 3 48Z" fill-rule="evenodd" clip-rule="evenodd"/></clipPath><clipPath id="clip2"><path d="M3 3 47 3 47 48 3 48Z" fill-rule="evenodd" clip-rule="evenodd"/></clipPath><clipPath id="clip3"><path d="M3 3 47 3 47 48 3 48Z" fill-rule="evenodd" clip-rule="evenodd"/></clipPath></defs><g clip-path="url(#clip0)"><rect x="0" y="0" width="189" height="189" fill="#313131"/><text fill="#FFFFFF" font-family="Calibri,Calibri_MSFontService,sans-serif" font-weight="300" font-size="11" transform="translate(9.60032 0)">OUTCOME</text><rect x="3.50005" y="3.50005" width="1" height="1" stroke="#2F528F" stroke-width="1.33333" stroke-miterlimit="8" fill="#4472C4"/><rect x="0" y="0" width="189" height="189" stroke="#000080" stroke-width="8" stroke-miterlimit="8" fill="#FFFFFF"/><g clip-path="url(#clip1)"><g clip-path="url(#clip2)"><g clip-path="url(#clip3)"><path d="M42.1667 3.66667 16.4468 3.66667C15.4348 3.66667 14.6135 4.488 14.6135 5.5L14.6135 7.33333 1.83333 7.33333C0.821333 7.33333 0 8.15467 0 9.16667L0 31.1667C0 32.1805 0.821333 33 1.83333 33L7.26367 33 7.26367 36.6667C7.26367 37.6805 8.085 38.5 9.097 38.5L14.6135 38.5 14.6135 40.3333C14.6135 41.3472 15.4348 42.1667 16.4468 42.1667L42.1667 42.1667C43.1805 42.1667 44 41.3472 44 40.3333L44 5.5C44 4.488 43.1805 3.66667 42.1667 3.66667ZM3.66667 29.3333 3.66667 11 14.6135 11 14.6135 12.8333 9.097 12.8333C8.085 12.8333 7.26367 13.6547 7.26367 14.6667L7.26367 29.3333 3.66667 29.3333ZM10.9303 34.8333 10.9303 16.5 14.6135 16.5 14.6135 34.8333 10.9303 34.8333ZM40.3333 38.5 18.2802 38.5 18.2802 36.6667 18.2802 14.6667 18.2802 7.33333 40.3333 7.33333 40.3333 38.5Z" transform="matrix(1 0 -0 1.02273 3 3)"/><path d="M21.9982 26.5833C22.5628 26.5833 23.1165 26.3212 23.4795 25.8335L27.4212 20.4563 31.4215 24.2202C31.8707 24.6418 32.4995 24.8068 33.1045 24.6693 33.7022 24.5263 34.1935 24.0918 34.4007 23.5125L38.39 12.5437C38.7365 11.5922 38.247 10.5398 37.2937 10.1933 36.3385 9.84867 35.2898 10.3382 34.9452 11.2897L31.9092 19.6423 28.4277 16.3662C28.0445 16.0068 27.5458 15.829 27.005 15.8767 26.4825 15.9243 26.0058 16.1938 25.6942 16.6173L20.526 23.6665C19.9283 24.4842 20.1043 25.63 20.9202 26.2277 21.2428 26.4697 21.6223 26.5833 21.9982 26.5833Z" transform="matrix(1 0 -0 1.02273 3 3)"/><path d="M22 33.9167 36.6667 33.9167C37.6805 33.9167 38.5 33.0972 38.5 32.0833 38.5 31.0695 37.6805 30.25 36.6667 30.25L22 30.25C20.988 30.25 20.1667 31.0695 20.1667 32.0833 20.1667 33.0972 20.988 33.9167 22 33.9167Z" transform="matrix(1 0 -0 1.02273 3 3)"/></g></g></g><text font-family="Calibri,Calibri_MSFontService,sans-serif" font-weight="700" font-size="20" transform="translate(76.3081 23)">BUSINESS <tspan x="-3.22" y="24">OUTCOME</tspan><tspan font-size="12" x="-69.7691" y="64">Business Outcome</tspan><tspan font-weight="400" font-size="12" x="24.8975" y="64">represents a </tspan><tspan font-weight="400" font-size="12" x="-69.7691" y="79">state that is to be achieved. Its </tspan><tspan font-weight="400" font-size="12" x="-69.7691" y="93">elicitation in the shape of </tspan><tspan font-size="12" x="-69.7691" y="107">innovative ideas</tspan><tspan font-weight="400" font-size="12" x="14.8975" y="107">is motivated by </tspan><tspan font-size="12" x="-69.7691" y="122">Business drivers</tspan><tspan font-weight="400" font-size="12" x="13.3975" y="122">that contribute to </tspan><tspan font-weight="400" font-size="12" x="-69.7691" y="136">the overall enterprise value.</tspan></text></g></svg>