<svg width="265" height="265" xmlns="http://www.w3.org/2000/svg" xmlns:xlink="http://www.w3.org/1999/xlink" overflow="hidden"><defs><clipPath id="clip0"><path d="M0 0 265 0 265 265 0 265Z" fill-rule="evenodd" clip-rule="evenodd"/></clipPath><clipPath id="clip1"><path d="M35 51 55 51 55 71 35 71Z" fill-rule="evenodd" clip-rule="evenodd"/></clipPath><clipPath id="clip2"><path d="M35 51 55 51 55 71 35 71Z" fill-rule="evenodd" clip-rule="evenodd"/></clipPath><clipPath id="clip3"><path d="M35 51 55 51 55 71 35 71Z" fill-rule="evenodd" clip-rule="evenodd"/></clipPath><clipPath id="clip4"><path d="M216 81 226 81 226 92 216 92Z" fill-rule="evenodd" clip-rule="evenodd"/></clipPath><clipPath id="clip5"><path d="M216 81 226 81 226 92 216 92Z" fill-rule="evenodd" clip-rule="evenodd"/></clipPath><clipPath id="clip6"><path d="M216 81 226 81 226 92 216 92Z" fill-rule="evenodd" clip-rule="evenodd"/></clipPath><clipPath id="clip7"><path d="M212 166 222 166 222 177 212 177Z" fill-rule="evenodd" clip-rule="evenodd"/></clipPath><clipPath id="clip8"><path d="M212 166 222 166 222 177 212 177Z" fill-rule="evenodd" clip-rule="evenodd"/></clipPath><clipPath id="clip9"><path d="M212 166 222 166 222 177 212 177Z" fill-rule="evenodd" clip-rule="evenodd"/></clipPath><clipPath id="clip10"><path d="M71 28 82 28 82 38 71 38Z" fill-rule="evenodd" clip-rule="evenodd"/></clipPath><clipPath id="clip11"><path d="M71 28 82 28 82 38 71 38Z" fill-rule="evenodd" clip-rule="evenodd"/></clipPath><clipPath id="clip12"><path d="M71 28 82 28 82 38 71 38Z" fill-rule="evenodd" clip-rule="evenodd"/></clipPath></defs><g clip-path="url(#clip0)"><rect x="0" y="0" width="265" height="265" fill="#313131"/><rect x="89.5" y="131.5" width="1.99999" height="1" stroke="#2F528F" stroke-width="1.33585" stroke-miterlimit="8" fill="#4472C4"/><path d="M23.5 9.75271C23.5 8.50859 24.5085 7.50003 25.7527 7.50003L249.247 7.50003C250.491 7.50003 251.5 8.50859 251.5 9.75271L251.5 249.247C251.5 250.491 250.491 251.5 249.247 251.5L25.7527 251.5C24.5085 251.5 23.5 250.491 23.5 249.247Z" stroke="#FF0000" stroke-width="0.667927" stroke-miterlimit="8" stroke-opacity="0" fill="none" fill-rule="evenodd"/><path d="M30.0794 43.5 149.921 43.5C153.002 43.5 155.5 45.998 155.5 49.0794L155.5 214.252C155.5 216.598 153.598 218.5 151.252 218.5L28.7483 218.5C26.402 218.5 24.5 216.598 24.5 214.252L24.5 49.0794C24.5 45.998 26.998 43.5 30.0794 43.5Z" stroke="#5AA203" stroke-width="4.67549" stroke-miterlimit="8" fill="#FFFFFF" fill-rule="evenodd"/><g clip-path="url(#clip1)"><g clip-path="url(#clip2)"><g clip-path="url(#clip3)"><path d="M49.25 56.9669 45.3534 61.0147 45.3519 61.0147 45.3519 61.0147 42.9167 58.4853 43.8904 57.4728 45.3519 58.9912 48.2763 55.9551Z"/><path d="M49.25 62.5006 45.3534 66.5492 45.3519 66.5484 45.3519 66.5492 42.9167 64.0206 43.8904 63.0057 45.3519 64.5241 48.2763 61.4889Z"/><path d="M51.625 70.187 40.5417 70.187C40.1047 70.187 39.75 69.8331 39.75 69.3953L39.75 53.5833C39.75 53.1463 40.1047 52.7916 40.5417 52.7916L51.625 52.7916C52.0628 52.7916 52.4167 53.1463 52.4167 53.5833L52.4167 69.3953C52.4167 69.8323 52.0628 70.187 51.625 70.187ZM41.3334 68.6036 50.8334 68.6036 50.8334 54.375 41.3334 54.375 41.3334 68.6036Z"/><path d="M38.1667 70.2083C37.7297 70.2083 37.375 69.8545 37.375 69.4167L37.375 53.5833C37.375 53.1463 37.7297 52.7916 38.1667 52.7916 38.6037 52.7916 38.9583 53.1463 38.9583 53.5833L38.9583 69.4167C38.9583 69.8545 38.6037 70.2083 38.1667 70.2083Z"/></g></g></g><path d="M26.9702 6.36947C18.5628 6.36947 11.7473 10.3112 11.7473 15.1736L11.7473 248.948C11.7473 253.81 18.5628 257.752 26.9702 257.752L238.08 257.752C246.487 257.752 253.302 253.81 253.302 248.948L253.302 15.1736C253.302 10.3112 246.487 6.36947 238.08 6.36947ZM0 0 265 0 265 265 0 265Z" fill="#5AA203" fill-rule="evenodd"/><text font-family="Calibri,Calibri_MSFontService,sans-serif" font-weight="700" font-size="11" transform="translate(82.3117 63)">RESULT<tspan font-weight="400" font-size="9" x="-51.0214" y="74">A </tspan><tspan font-size="9" x="-43.5072" y="74">Result</tspan><tspan font-weight="400" font-size="9" x="-17.1241" y="74">is a Particular </tspan><tspan font-size="9" x="-51.0214" y="85">Outcome State</tspan><tspan font-weight="400" font-size="9" x="9.09201" y="85">obtained by a </tspan><tspan font-size="9" x="-51.0214" y="96">LogicGate</tspan><tspan font-weight="400" font-size="9" x="-10.6118" y="96">decision.</tspan></text><path d="M216.5 84.5001C216.5 83.9477 216.948 83.5 217.5 83.5L247.5 83.5C248.052 83.5 248.5 83.9477 248.5 84.5001L248.5 88.5C248.5 89.0523 248.052 89.5 247.5 89.5L217.5 89.5C216.948 89.5 216.5 89.0523 216.5 88.5Z" stroke="#A65462" stroke-width="1.33585" stroke-miterlimit="8" fill="#FFFFFF" fill-rule="evenodd"/><text font-family="Calibri,Calibri_MSFontService,sans-serif" font-weight="700" font-size="5" transform="translate(227.655 87)">CONTEXT</text><g clip-path="url(#clip4)"><g clip-path="url(#clip5)"><g clip-path="url(#clip6)"><path d="M6.03936 6.74998 2.94562 6.74998C2.5573 6.74998 2.24249 7.06478 2.24249 7.4531 2.24249 7.84142 2.5573 8.15623 2.94562 8.15623L6.03936 8.15623C6.42768 8.15623 6.74248 7.84142 6.74248 7.4531 6.74248 7.06478 6.42768 6.74998 6.03936 6.74998ZM3.13312 7.73435C2.97778 7.73435 2.85187 7.60844 2.85187 7.4531 2.85187 7.29777 2.97778 7.17185 3.13312 7.17185 3.28845 7.17185 3.41436 7.29777 3.41436 7.4531 3.41436 7.60844 3.28845 7.73435 3.13312 7.73435ZM4.49249 7.73435C4.33715 7.73435 4.21124 7.60844 4.21124 7.4531 4.21124 7.29777 4.33715 7.17185 4.49249 7.17185 4.64782 7.17185 4.77374 7.29777 4.77374 7.4531 4.77374 7.60844 4.64782 7.73435 4.49249 7.73435ZM5.85186 7.73435C5.69652 7.73435 5.57061 7.60844 5.57061 7.4531 5.57061 7.29777 5.69652 7.17185 5.85186 7.17185 6.00719 7.17185 6.13311 7.29777 6.13311 7.4531 6.13311 7.60844 6.00719 7.73435 5.85186 7.73435Z" transform="matrix(1 0 -0 1.00001 217 82)"/><path d="M5.1403 2.62499C5.1403 2.70266 5.07734 2.76562 4.99967 2.76562 4.92201 2.76562 4.85905 2.70266 4.85905 2.62499 4.85905 2.54733 4.92201 2.48437 4.99967 2.48437 5.07734 2.48437 5.1403 2.54733 5.1403 2.62499Z" transform="matrix(1 0 -0 1.00001 217 82)"/><path d="M5.30717 1.68749 4.68749 1.68749 4.68749 1.26093C4.86685 1.15738 4.9283 0.928035 4.82475 0.748676 4.72119 0.569317 4.49185 0.507864 4.31249 0.611417 4.13313 0.71497 4.07167 0.944313 4.17523 1.12367 4.20814 1.18068 4.25548 1.22802 4.31249 1.26093L4.31249 1.68749 3.6928 1.68749C3.46572 1.68801 3.28176 1.87198 3.28124 2.09906L3.28124 3.15093C3.28176 3.37801 3.46572 3.56197 3.6928 3.56249L5.30717 3.56249C5.53425 3.56197 5.71822 3.37801 5.71873 3.15093L5.71873 2.09906C5.71822 1.87198 5.53425 1.68801 5.30717 1.68749ZM4.03124 2.90624C3.8759 2.90624 3.74999 2.78033 3.74999 2.62499 3.74999 2.46966 3.8759 2.34374 4.03124 2.34374 4.18657 2.34374 4.31249 2.46966 4.31249 2.62499 4.31249 2.78033 4.18657 2.90624 4.03124 2.90624ZM4.96874 2.90624C4.8134 2.90624 4.68749 2.78033 4.68749 2.62499 4.68749 2.46966 4.8134 2.34374 4.96874 2.34374 5.12407 2.34374 5.24998 2.46966 5.24998 2.62499 5.24998 2.78033 5.12407 2.90624 4.96874 2.90624Z" transform="matrix(1 0 -0 1.00001 217 82)"/><path d="M4.2028 2.62499C4.2028 2.70266 4.13984 2.76562 4.06218 2.76562 3.98451 2.76562 3.92155 2.70266 3.92155 2.62499 3.92155 2.54733 3.98451 2.48437 4.06218 2.48437 4.13984 2.48437 4.2028 2.54733 4.2028 2.62499Z" transform="matrix(1 0 -0 1.00001 217 82)"/><path d="M6.93748 5.51436 6.93748 4.73342C6.93748 4.50094 6.74902 4.31249 6.51654 4.31249L5.99998 4.31249 5.99998 3.84374 2.99999 3.84374 2.99999 4.40624 2.29593 4.40624C2.27056 4.40624 2.24999 4.38567 2.24999 4.3603L2.24999 3.58311C2.57227 3.48794 2.75636 3.14953 2.66119 2.82727 2.63567 2.74087 2.59129 2.66122 2.53124 2.59405L2.24999 2.84343C2.28933 2.88621 2.31167 2.94188 2.31281 2.99999 2.3121 3.12943 2.2066 3.23379 2.07716 3.23309 1.94772 3.23238 1.84336 3.12688 1.84407 2.99744 1.84437 2.94153 1.86464 2.88758 1.90124 2.8453L1.62 2.59874C1.39904 2.8526 1.42571 3.23751 1.67956 3.45846 1.73699 3.50845 1.80328 3.54724 1.87499 3.5728L1.87499 4.3603C1.87499 4.59278 2.06345 4.78124 2.29593 4.78124L2.99999 4.78124 2.99999 6.46873 5.99998 6.46873 5.99998 4.68749 6.51654 4.68749C6.54191 4.68749 6.56248 4.70805 6.56248 4.73342L6.56248 5.51436C6.24227 5.61794 6.06667 5.9615 6.17025 6.28171 6.19618 6.36185 6.23844 6.43574 6.29436 6.49873L6.57561 6.24936C6.53681 6.20683 6.5154 6.15129 6.51561 6.09373 6.51572 5.96429 6.62074 5.85944 6.75018 5.85955 6.87962 5.85967 6.98447 5.96469 6.98435 6.09413 6.98431 6.1509 6.96365 6.20573 6.92623 6.24842L7.20748 6.49498C7.4293 6.24257 7.4045 5.85813 7.15209 5.63631 7.08964 5.58142 7.0166 5.53992 6.93748 5.51436ZM5.62498 5.15623 5.36436 5.15623C5.35529 5.15786 5.34667 5.16137 5.33905 5.16655L5.05217 5.45998 4.83374 4.94249 4.42592 5.78623 4.13999 4.68749 3.91968 5.15623 3.46874 5.15623 3.46874 4.96874 3.80061 4.96874 4.19061 4.13905 4.47936 5.24342 4.84592 4.49342 5.11592 5.1328 5.20967 5.03905C5.25084 4.99739 5.30591 4.97235 5.36436 4.96874L5.62498 4.96874Z" transform="matrix(1 0 -0 1.00001 217 82)"/></g></g></g><path d="M212.5 169.5C212.5 168.948 212.948 168.5 213.5 168.5L247.5 168.5C248.052 168.5 248.5 168.948 248.5 169.5L248.5 173.5C248.5 174.052 248.052 174.5 247.5 174.5L213.5 174.5C212.948 174.5 212.5 174.052 212.5 173.5Z" stroke="#5AA203" stroke-width="1.33585" stroke-miterlimit="8" fill="#FFFFFF" fill-rule="evenodd"/><text font-family="Calibri,Calibri_MSFontService,sans-serif" font-weight="700" font-size="5" transform="translate(223.399 172)">LOGICGATE</text><g clip-path="url(#clip7)"><g clip-path="url(#clip8)"><g clip-path="url(#clip9)"><path d="M5.24998 7.87498C5.12473 7.87498 5.00774 7.81198 4.93799 7.7081L2.68799 4.32824C2.60399 4.20186 2.60399 4.03761 2.68799 3.91124L4.93799 0.531748C5.07711 0.322874 5.42286 0.322874 5.56198 0.531748L7.81198 3.91124C7.89635 4.03724 7.89635 4.20149 7.81198 4.32824L5.56198 7.7081C5.49223 7.81198 5.37523 7.87498 5.24998 7.87498ZM3.45074 4.11974 5.24998 6.82236 7.04923 4.11936 5.24998 1.41712 3.45074 4.11974Z" transform="matrix(1 0 -0 1.11111 212.25 166.417)"/></g></g></g><path d="M165.687 168 202.313 168C207.11 168 211 170.91 211 174.5 211 178.09 207.11 181 202.313 181L165.687 181C160.889 181 157 178.09 157 174.5 157 170.91 160.889 168 165.687 168Z" fill="#313131" fill-rule="evenodd"/><text fill="#FFFFFF" font-family="Calibri,Calibri_MSFontService,sans-serif" font-weight="700" font-size="5" transform="translate(169.41 176)">|Decided by&gt;</text><path d="M166.331 83 205.669 83C210.822 83 215 86.134 215 90 215 93.866 210.822 97 205.669 97L166.331 97C161.178 97 157 93.866 157 90 157 86.134 161.178 83 166.331 83Z" fill="#313131" fill-rule="evenodd"/><text fill="#FFFFFF" font-family="Calibri,Calibri_MSFontService,sans-serif" font-weight="700" font-size="5" transform="translate(167.656 92)">&lt;Established by|</text><path d="M84 41 89.5 38 95 41Z" fill="#FFFFFF" fill-rule="evenodd"/><path d="M71.5001 31.5C71.5001 30.9477 71.9478 30.5 72.5001 30.5L107.5 30.5C108.052 30.5 108.5 30.9477 108.5 31.5L108.5 35.5C108.5 36.0523 108.052 36.5 107.5 36.5L72.5001 36.5C71.9478 36.5 71.5001 36.0523 71.5001 35.5Z" stroke="#5AA203" stroke-width="1.33585" stroke-miterlimit="8" fill="#FFFFFF" fill-rule="evenodd"/><text font-family="Calibri,Calibri_MSFontService,sans-serif" font-weight="700" font-size="5" transform="translate(83.0711 34)">LOGICGATE</text><g clip-path="url(#clip10)"><g clip-path="url(#clip11)"><g clip-path="url(#clip12)"><path d="M77 37.1667C76.8608 37.1667 76.7308 37.0967 76.6533 36.9812L74.1533 33.2258C74.06 33.0854 74.06 32.9029 74.1533 32.7625L76.6533 29.0075C76.8079 28.7754 77.1921 28.7754 77.3466 29.0075L79.8466 32.7625C79.9404 32.9025 79.9404 33.085 79.8466 33.2258L77.3466 36.9812C77.2691 37.0967 77.1391 37.1667 77 37.1667ZM75.0008 32.9942 77 35.9971 78.9991 32.9938 77 29.9913 75.0008 32.9942Z"/></g></g></g></g></svg>