<svg width="189" height="189" xmlns="http://www.w3.org/2000/svg" xmlns:xlink="http://www.w3.org/1999/xlink" overflow="hidden"><defs><clipPath id="clip0"><path d="M0 0 189 0 189 189 0 189Z" fill-rule="evenodd" clip-rule="evenodd"/></clipPath><clipPath id="clip1"><path d="M3 3 47 3 47 48 3 48Z" fill-rule="evenodd" clip-rule="evenodd"/></clipPath><clipPath id="clip2"><path d="M3 3 47 3 47 48 3 48Z" fill-rule="evenodd" clip-rule="evenodd"/></clipPath><clipPath id="clip3"><path d="M3 3 47 3 47 48 3 48Z" fill-rule="evenodd" clip-rule="evenodd"/></clipPath></defs><g clip-path="url(#clip0)"><rect x="0" y="0" width="189" height="189" fill="#313131"/><text fill="#FFFFFF" font-family="Calibri,Calibri_MSFontService,sans-serif" font-weight="300" font-size="11" transform="translate(9.60032 -5)">PERSONA</text><rect x="3.50005" y="3.50005" width="1" height="1" stroke="#2F528F" stroke-width="1.33333" stroke-miterlimit="8" fill="#4472C4"/><rect x="0" y="0" width="189" height="189" stroke="#B74D41" stroke-width="8" stroke-miterlimit="8" fill="#FFFFFF"/><g clip-path="url(#clip1)"><g clip-path="url(#clip2)"><g clip-path="url(#clip3)"><path d="M14.6667 23.8333C18.7 23.8333 22 20.5333 22 16.5 22 12.4667 18.7 9.16667 14.6667 9.16667 10.6333 9.16667 7.33333 12.4667 7.33333 16.5 7.33333 20.5333 10.6333 23.8333 14.6667 23.8333ZM14.6667 12.8333C16.6833 12.8333 18.3333 14.4833 18.3333 16.5 18.3333 18.5167 16.6833 20.1667 14.6667 20.1667 12.65 20.1667 11 18.5167 11 16.5 11 14.4833 12.65 12.8333 14.6667 12.8333Z" transform="matrix(1 0 -0 1.02273 3 3)"/><path d="M40.3333 3.85 33 3.66667C33 3.66667 33 3.66667 33 3.66667 32.0833 3.66667 31.35 4.4 31.35 5.31667 31.35 6.23333 32.0833 7.15 33 7.15L36.1167 7.15 26.0333 17.2333C25.3 17.9667 25.3 19.0667 26.0333 19.8 26.4 20.1667 26.95 20.35 27.3167 20.35 27.6833 20.35 28.2333 20.1667 28.6 19.8L38.5 9.9 38.5 12.8333C38.5 13.75 39.2333 14.4833 40.15 14.4833 41.0667 14.4833 42.1667 13.75 42.1667 12.8333L42.1667 5.5C42.1667 4.58333 41.4333 3.85 40.3333 3.85Z" transform="matrix(1 0 -0 1.02273 3 3)"/><path d="M20.1667 26.5833 9.35 26.5833C5.13333 26.5833 1.83333 29.8833 1.83333 33.9167L1.83333 39.4167C1.83333 40.3333 2.56667 41.25 3.66667 41.25 4.76667 41.25 5.5 40.5167 5.5 39.4167L5.5 33.9167C5.5 31.9 7.15 30.25 9.35 30.25L12.2833 30.25 14.6667 34.8333 17.05 30.25 20.1667 30.25C22.3667 30.25 24.0167 31.9 24.0167 33.9167L24.0167 39.4167C24.0167 40.3333 24.75 41.25 25.85 41.25 26.95 41.25 27.6833 40.5167 27.6833 39.4167L27.6833 33.9167C27.6833 29.8833 24.3833 26.5833 20.1667 26.5833Z" transform="matrix(1 0 -0 1.02273 3 3)"/></g></g></g><text font-family="Calibri,Calibri_MSFontService,sans-serif" font-weight="700" font-size="20" transform="translate(76.7248 23)">PERSONA<tspan font-size="12" x="-70.1858" y="57">Personas</tspan><tspan font-weight="400" font-size="12" x="-22.1858" y="57">are fictitious characters </tspan><tspan font-weight="400" font-size="12" x="-70.1858" y="72">created by a business organisation </tspan><tspan font-weight="400" font-size="12" x="-70.1858" y="86">to mimic a real customer. They are </tspan><tspan font-weight="400" font-size="12" x="-70.1858" y="100">made based on profiles, which </tspan><tspan font-weight="400" font-size="12" x="-70.1858" y="115">include foundational demographic </tspan><tspan font-weight="400" font-size="12" x="-70.1858" y="129">information that is collected </tspan><tspan font-weight="400" font-size="12" x="-70.1858" y="144">through research with real people. </tspan></text></g></svg>