<svg width="189" height="189" xmlns="http://www.w3.org/2000/svg" xmlns:xlink="http://www.w3.org/1999/xlink" overflow="hidden"><defs><clipPath id="clip0"><path d="M0 0 189 0 189 189 0 189Z" fill-rule="evenodd" clip-rule="evenodd"/></clipPath><clipPath id="clip1"><path d="M3 3 47 3 47 48 3 48Z" fill-rule="evenodd" clip-rule="evenodd"/></clipPath><clipPath id="clip2"><path d="M3 3 47 3 47 48 3 48Z" fill-rule="evenodd" clip-rule="evenodd"/></clipPath><clipPath id="clip3"><path d="M3 3 47 3 47 48 3 48Z" fill-rule="evenodd" clip-rule="evenodd"/></clipPath></defs><g clip-path="url(#clip0)"><rect x="0" y="0" width="189" height="189" fill="#313131"/><text fill="#FFFFFF" font-family="Calibri,Calibri_MSFontService,sans-serif" font-weight="300" font-size="11" transform="translate(9.60032 -5)">INTERACTION</text><rect x="3.50005" y="3.50005" width="1" height="1" stroke="#2F528F" stroke-width="1.33333" stroke-miterlimit="8" fill="#4472C4"/><rect x="0" y="0" width="189" height="189" stroke="#C76F36" stroke-width="8" stroke-miterlimit="8" fill="#FFFFFF"/><g clip-path="url(#clip1)"><g clip-path="url(#clip2)"><g clip-path="url(#clip3)"><path d="M5.5 20.1667C6.512 20.1667 7.33333 19.3453 7.33333 18.3333L7.33333 11 34.0743 11 31.7038 13.3705C30.987 14.0873 30.987 15.246 31.7038 15.9628 32.0613 16.3203 32.5307 16.5 33 16.5 33.4693 16.5 33.9387 16.3203 34.2962 15.9628L39.7962 10.4628C40.513 9.746 40.513 8.58733 39.7962 7.8705L34.2962 2.3705C33.5793 1.65367 32.4207 1.65367 31.7038 2.3705 30.987 3.08733 30.987 4.246 31.7038 4.96283L34.0743 7.33333 5.5 7.33333C4.488 7.33333 3.66667 8.1565 3.66667 9.16667L3.66667 18.3333C3.66667 19.3453 4.488 20.1667 5.5 20.1667Z" transform="matrix(1 0 -0 1.02273 3 3)"/><path d="M38.5 22C37.4862 22 36.6667 22.8195 36.6667 23.8333L36.6667 31.1667 9.92567 31.1667 12.2962 28.7962C13.013 28.0793 13.013 26.9207 12.2962 26.2038 11.5793 25.487 10.4207 25.487 9.70383 26.2038L4.20383 31.7038C3.487 32.4207 3.487 33.5793 4.20383 34.2962L9.70383 39.7962C10.0613 40.1537 10.5307 40.3333 11 40.3333 11.4693 40.3333 11.9387 40.1537 12.2962 39.7962 13.013 39.0793 13.013 37.9207 12.2962 37.2038L9.92567 34.8333 38.5 34.8333C39.5138 34.8333 40.3333 34.0138 40.3333 33L40.3333 23.8333C40.3333 22.8195 39.5138 22 38.5 22Z" transform="matrix(1 0 -0 1.02273 3 3)"/></g></g></g><text font-family="Calibri,Calibri_MSFontService,sans-serif" font-weight="700" font-size="20" transform="translate(59.6948 23)">INTERACTION<tspan font-weight="400" font-size="12" x="-53.1558" y="64">An </tspan><tspan font-size="12" x="-37.1558" y="64">Interaction</tspan><tspan font-weight="400" font-size="12" x="20.8442" y="64">is an input or output </tspan><tspan font-weight="400" font-size="12" x="-53.1558" y="79">expressed by/to a </tspan><tspan font-size="12" x="36.6775" y="79">Role</tspan><tspan font-weight="400" font-size="12" x="61.6775" y="79">in an </tspan><tspan font-weight="400" font-size="12" x="-53.1558" y="93">Interaction. Interactions can </tspan><tspan font-weight="400" font-size="12" x="-53.1558" y="107">describe both </tspan><tspan font-size="12" x="16.5109" y="107">User Interactions</tspan><tspan font-weight="400" font-size="12" x="105.011" y="107">(</tspan><tspan font-weight="400" font-size="12" x="108.678" y="107">ie</tspan><tspan font-weight="400" font-size="12" x="-53.1558" y="122">a Form or User Interface) or </tspan><tspan font-size="12" x="85.1775" y="122">System </tspan><tspan font-size="12" x="-53.1558" y="136">Interactions</tspan><tspan font-weight="400" font-size="12" x="9.67753" y="136">(</tspan><tspan font-weight="400" font-size="12" x="13.3442" y="136">ie</tspan><tspan font-weight="400" font-size="12" x="24.8442" y="136">a system message).</tspan></text></g></svg>