<svg width="265" height="265" xmlns="http://www.w3.org/2000/svg" xmlns:xlink="http://www.w3.org/1999/xlink" overflow="hidden"><defs><clipPath id="clip0"><path d="M0 0 265 0 265 265 0 265Z" fill-rule="evenodd" clip-rule="evenodd"/></clipPath><clipPath id="clip1"><path d="M35 51 55 51 55 71 35 71Z" fill-rule="evenodd" clip-rule="evenodd"/></clipPath><clipPath id="clip2"><path d="M35 51 55 51 55 71 35 71Z" fill-rule="evenodd" clip-rule="evenodd"/></clipPath><clipPath id="clip3"><path d="M35 51 55 51 55 71 35 71Z" fill-rule="evenodd" clip-rule="evenodd"/></clipPath><clipPath id="clip4"><path d="M219 81 229 81 229 92 219 92Z" fill-rule="evenodd" clip-rule="evenodd"/></clipPath><clipPath id="clip5"><path d="M219 81 229 81 229 92 219 92Z" fill-rule="evenodd" clip-rule="evenodd"/></clipPath><clipPath id="clip6"><path d="M219 81 229 81 229 92 219 92Z" fill-rule="evenodd" clip-rule="evenodd"/></clipPath><clipPath id="clip7"><path d="M223 166 234 166 234 177 223 177Z" fill-rule="evenodd" clip-rule="evenodd"/></clipPath><clipPath id="clip8"><path d="M223 166 234 166 234 177 223 177Z" fill-rule="evenodd" clip-rule="evenodd"/></clipPath><clipPath id="clip9"><path d="M223 166 234 166 234 177 223 177Z" fill-rule="evenodd" clip-rule="evenodd"/></clipPath></defs><g clip-path="url(#clip0)"><rect x="0" y="0" width="265" height="265" fill="#313131"/><rect x="89.5" y="131.5" width="1.99999" height="1" stroke="#2F528F" stroke-width="1.33585" stroke-miterlimit="8" fill="#4472C4"/><path d="M23.5 9.75271C23.5 8.50859 24.5085 7.50003 25.7527 7.50003L249.247 7.50003C250.491 7.50003 251.5 8.50859 251.5 9.75271L251.5 249.247C251.5 250.491 250.491 251.5 249.247 251.5L25.7527 251.5C24.5085 251.5 23.5 250.491 23.5 249.247Z" stroke="#FF0000" stroke-width="0.667927" stroke-miterlimit="8" stroke-opacity="0" fill="none" fill-rule="evenodd"/><path d="M30.0794 43.5 149.921 43.5C153.002 43.5 155.5 45.998 155.5 49.0794L155.5 214.252C155.5 216.598 153.598 218.5 151.252 218.5L28.7483 218.5C26.402 218.5 24.5 216.598 24.5 214.252L24.5 49.0794C24.5 45.998 26.998 43.5 30.0794 43.5Z" stroke="#E6194B" stroke-width="4.67549" stroke-miterlimit="8" fill="#FFFFFF" fill-rule="evenodd"/><g clip-path="url(#clip1)"><g clip-path="url(#clip2)"><g clip-path="url(#clip3)"><path d="M43.7084 70.2083 37.375 70.2083C36.938 70.2083 36.5833 69.8545 36.5833 69.4167L36.5833 53.5833C36.5833 53.1463 36.938 52.7916 37.375 52.7916L50.0417 52.7916C50.4795 52.7916 50.8334 53.1463 50.8334 53.5833L50.8334 59.9166C50.8334 60.3536 50.4795 60.7083 50.0417 60.7083 49.6039 60.7083 49.25 60.3536 49.25 59.9166L49.25 54.375 38.1667 54.375 38.1667 68.625 43.7084 68.625C44.1461 68.625 44.5 68.9789 44.5 69.4167 44.5 69.8545 44.1461 70.2083 43.7084 70.2083Z"/><path d="M47.6667 70.2083C47.4316 70.2083 47.2091 70.1038 47.0571 69.9241L43.0988 65.1741C42.923 64.9627 42.8692 64.6777 42.9555 64.4165L43.7471 62.0415C43.8572 61.7177 44.1588 61.5 44.5 61.5L50.8334 61.5C51.1754 61.5 51.4762 61.7177 51.5839 62.0415L52.3755 64.4165C52.4626 64.6777 52.4088 64.9627 52.2323 65.1741L48.2739 69.9241C48.1243 70.1038 47.9018 70.2083 47.6667 70.2083ZM44.599 64.4988 47.6667 68.1801 50.7344 64.5004 50.2626 63.0833 45.07 63.0833 44.599 64.4988Z"/><path d="M46.875 58.3333 40.5417 58.3333C40.1047 58.3333 39.75 57.9786 39.75 57.5416 39.75 57.1046 40.1047 56.75 40.5417 56.75L46.875 56.75C47.3128 56.75 47.6667 57.1046 47.6667 57.5416 47.6667 57.9786 47.3128 58.3333 46.875 58.3333Z"/><path d="M42.9167 61.5 40.5417 61.5C40.1047 61.5 39.75 61.1453 39.75 60.7083 39.75 60.2713 40.1047 59.9166 40.5417 59.9166L42.9167 59.9166C43.3545 59.9166 43.7084 60.2713 43.7084 60.7083 43.7084 61.1453 43.3545 61.5 42.9167 61.5Z"/><path d="M41.3333 64.6666 40.5417 64.6666C40.1047 64.6666 39.75 64.3128 39.75 63.875 39.75 63.4372 40.1047 63.0833 40.5417 63.0833L41.327 63.0833C41.764 63.0833 42.1218 63.4372 42.1218 63.875 42.1218 64.3128 41.7704 64.6666 41.3333 64.6666Z"/></g></g></g><path d="M26.9702 6.36947C18.5628 6.36947 11.7473 10.3112 11.7473 15.1736L11.7473 248.948C11.7473 253.81 18.5628 257.752 26.9702 257.752L238.08 257.752C246.487 257.752 253.302 253.81 253.302 248.948L253.302 15.1736C253.302 10.3112 246.487 6.36947 238.08 6.36947ZM0 0 265 0 265 265 0 265Z" fill="#E6194B" fill-rule="evenodd"/><text font-family="Calibri,Calibri_MSFontService,sans-serif" font-weight="700" font-size="11" transform="translate(83.1466 63)">POLICY<tspan font-weight="400" font-size="9" x="-51.8563" y="68">A </tspan><tspan font-size="9" x="-44.3421" y="68">Policy</tspan><tspan font-weight="400" font-size="9" x="-19.1278" y="68">is a non</tspan><tspan font-weight="400" font-size="9" x="10.2609" y="68">-</tspan><tspan font-weight="400" font-size="9" x="13.0996" y="68">actionable </tspan><tspan font-weight="400" font-size="9" x="-51.8563" y="79">directive whose purpose is to </tspan><tspan font-weight="400" font-size="9" x="-51.8563" y="90">govern or guide </tspan><tspan font-size="9" x="10.2609" y="90">Courses of </tspan><tspan font-size="9" x="-51.8563" y="101">Action</tspan><tspan font-weight="400" font-size="9" x="-26.809" y="101">.</tspan></text><path d="M219.5 84.5C219.5 83.9477 219.948 83.5 220.5 83.5L247.5 83.5C248.052 83.5 248.5 83.9477 248.5 84.5L248.5 88.5C248.5 89.0523 248.052 89.5 247.5 89.5L220.5 89.5C219.948 89.5 219.5 89.0523 219.5 88.5Z" stroke="#D2F53C" stroke-width="1.33585" stroke-miterlimit="8" fill="#FFFFFF" fill-rule="evenodd"/><text font-family="Calibri,Calibri_MSFontService,sans-serif" font-weight="700" font-size="5" transform="translate(230.613 87)">METRIC</text><g clip-path="url(#clip4)"><g clip-path="url(#clip5)"><g clip-path="url(#clip6)"><path d="M4.49999 1.3125C2.43224 1.3125 0.749998 2.99474 0.749998 5.06249 0.749998 5.26986 0.917997 5.43748 1.125 5.43748 1.332 5.43748 1.5 5.26986 1.5 5.06249 1.5 3.40836 2.84587 2.06249 4.49999 2.06249 6.15411 2.06249 7.49998 3.40836 7.49998 5.06249 7.49998 5.26986 7.6676 5.43748 7.87498 5.43748 8.08235 5.43748 8.24998 5.26986 8.24998 5.06249 8.24998 2.99474 6.56773 1.3125 4.49999 1.3125Z" transform="matrix(1 0 -0 1.00001 220 82)"/><path d="M6.07948 3.73424 4.70324 5.45811C4.63686 5.44536 4.56974 5.43748 4.49999 5.43748 3.87974 5.43748 3.37499 5.94223 3.37499 6.56248 3.37499 7.18273 3.87974 7.68748 4.49999 7.68748 5.12023 7.68748 5.62498 7.18273 5.62498 6.56248 5.62498 6.28723 5.52186 6.03748 5.35648 5.84173L6.66486 4.20224C6.7946 4.04024 6.76761 3.80436 6.60636 3.67536 6.44473 3.54561 6.20886 3.57299 6.07948 3.73424ZM4.49999 6.93748C4.29299 6.93748 4.12499 6.76948 4.12499 6.56248 4.12499 6.35548 4.29299 6.18748 4.49999 6.18748 4.70699 6.18748 4.87499 6.35548 4.87499 6.56248 4.87499 6.76948 4.70699 6.93748 4.49999 6.93748Z" transform="matrix(1 0 -0 1.00001 220 82)"/></g></g></g><path d="M223.5 169.5C223.5 168.948 223.948 168.5 224.5 168.5L247.5 168.5C248.052 168.5 248.5 168.948 248.5 169.5L248.5 173.5C248.5 174.052 248.052 174.5 247.5 174.5L224.5 174.5C223.948 174.5 223.5 174.052 223.5 173.5Z" stroke="#F58230" stroke-width="1.33585" stroke-miterlimit="8" fill="#FFFFFF" fill-rule="evenodd"/><text font-family="Calibri,Calibri_MSFontService,sans-serif" font-weight="700" font-size="5" transform="translate(234.738 172)">GOAL</text><g clip-path="url(#clip7)"><g clip-path="url(#clip8)"><g clip-path="url(#clip9)"><path d="M7.21881 2.25002 5.62505 2.25002 5.62505 1.50001 2.62502 1.50001 2.62502 1.12501C2.62502 0.918008 2.45702 0.750007 2.25002 0.750007 2.04302 0.750007 1.87502 0.918008 1.87502 1.12501L1.87502 1.50001 1.87502 4.50004 1.87502 7.87507C1.87502 8.08245 2.04302 8.25007 2.25002 8.25007 2.45702 8.25007 2.62502 8.08245 2.62502 7.87507L2.62502 4.50004 4.87504 4.50004 4.87504 5.25005 7.21881 5.25005C7.58632 5.25005 7.87507 4.92042 7.87507 4.50004L7.87507 3.00003C7.87507 2.57927 7.58632 2.25002 7.21881 2.25002ZM2.62502 3.75003 2.62502 2.25002 4.87504 2.25002 4.87504 3.75003 2.62502 3.75003ZM7.12506 4.50004 5.62505 4.50004 5.62505 3.00003 7.12506 3.00003 7.12506 4.50004Z" transform="matrix(1 0 -0 1.1111 224 166)"/></g></g></g><path d="M167.457 168 211.543 168C217.318 168 222 170.91 222 174.5 222 178.09 217.318 181 211.543 181L167.457 181C161.682 181 157 178.09 157 174.5 157 170.91 161.682 168 167.457 168Z" fill="#313131" fill-rule="evenodd"/><text fill="#FFFFFF" font-family="Calibri,Calibri_MSFontService,sans-serif" font-weight="700" font-size="5" transform="translate(174.335 176)">&lt;Directed by|</text><path d="M166.814 83 208.186 83C213.606 83 218 86.134 218 90 218 93.866 213.606 97 208.186 97L166.814 97C161.394 97 157 93.866 157 90 157 86.134 161.394 83 166.814 83Z" fill="#313131" fill-rule="evenodd"/><text fill="#FFFFFF" font-family="Calibri,Calibri_MSFontService,sans-serif" font-weight="700" font-size="5" transform="translate(169.576 92)">|Elaborated by&gt;</text></g></svg>