<svg width="189" height="189" xmlns="http://www.w3.org/2000/svg" xmlns:xlink="http://www.w3.org/1999/xlink" overflow="hidden"><defs><clipPath id="clip0"><path d="M0 0 189 0 189 189 0 189Z" fill-rule="evenodd" clip-rule="evenodd"/></clipPath><clipPath id="clip1"><path d="M3 3 47 3 47 48 3 48Z" fill-rule="evenodd" clip-rule="evenodd"/></clipPath><clipPath id="clip2"><path d="M3 3 47 3 47 48 3 48Z" fill-rule="evenodd" clip-rule="evenodd"/></clipPath><clipPath id="clip3"><path d="M3 3 47 3 47 48 3 48Z" fill-rule="evenodd" clip-rule="evenodd"/></clipPath></defs><g clip-path="url(#clip0)"><rect x="0" y="0" width="189" height="189" fill="#313131"/><text fill="#FFFFFF" font-family="Calibri,Calibri_MSFontService,sans-serif" font-weight="300" font-size="11" transform="translate(9.60032 -5)">RISK</text><rect x="3.50005" y="3.50005" width="1" height="1" stroke="#2F528F" stroke-width="1.33333" stroke-miterlimit="8" fill="#4472C4"/><rect x="0" y="0" width="189" height="189" stroke="#D2F53C" stroke-width="8" stroke-miterlimit="8" fill="#FFFFFF"/><g clip-path="url(#clip1)"><g clip-path="url(#clip2)"><g clip-path="url(#clip3)"><path d="M33.8708 22.5958C34.6958 25.9417 31.2583 29.2417 27.8667 27.8667 25.025 26.8583 23.925 23.5583 25.8958 20.7167 30.3417 14.8042 27.0875 5.5 19.7083 2.29167 23.0542 8.61667 17.9208 14.4375 14.9875 16.8667 12.0542 19.2958 10.0833 21.8167 9.4875 23.2833 6.50833 30.525 10.9542 37.4458 13.9792 39.0958 12.6042 35.9792 11.3208 30.0208 16.7292 24.4292 16.7292 24.4292 15.1708 30.3875 18.5625 34.5125 21.9542 38.6375 21.9083 41.7083 21.9083 41.7083 27.1792 41.7083 32.175 38.5458 34.2833 33.3667 35.8875 30.2958 36.025 25.4375 33.8708 22.5958" transform="matrix(1 0 -0 1.02273 3 3)"/></g></g></g><text font-family="Calibri,Calibri_MSFontService,sans-serif" font-weight="700" font-size="20" transform="translate(98.1281 23)">RISK<tspan font-weight="400" font-size="12" x="-91.5891" y="57">Business </tspan><tspan font-size="12" x="-46.9225" y="57">Risk</tspan><tspan font-weight="400" font-size="12" x="-23.7558" y="57">is the exposure of a </tspan><tspan font-weight="400" font-size="12" x="-91.5891" y="72">company or organization to </tspan><tspan font-weight="400" font-size="12" x="-91.5891" y="86">factor(s) that can affect its viability. </tspan><tspan font-size="12" x="-91.5891" y="100">Risks</tspan><tspan font-weight="400" font-size="12" x="-63.5891" y="100">types can range from strategic </tspan><tspan font-weight="400" font-size="12" x="-91.5891" y="115">to operational and thus can be </tspan><tspan font-weight="400" font-size="12" x="-91.5891" y="129">linked to various components of a </tspan><tspan font-weight="400" font-size="12" x="-91.5891" y="144">company’s business model.</tspan></text></g></svg>