<svg width="189" height="189" xmlns="http://www.w3.org/2000/svg" xmlns:xlink="http://www.w3.org/1999/xlink" overflow="hidden"><defs><clipPath id="clip0"><path d="M0 0 189 0 189 189 0 189Z" fill-rule="evenodd" clip-rule="evenodd"/></clipPath><clipPath id="clip1"><path d="M3 3 47 3 47 48 3 48Z" fill-rule="evenodd" clip-rule="evenodd"/></clipPath><clipPath id="clip2"><path d="M3 3 47 3 47 48 3 48Z" fill-rule="evenodd" clip-rule="evenodd"/></clipPath><clipPath id="clip3"><path d="M3 3 47 3 47 48 3 48Z" fill-rule="evenodd" clip-rule="evenodd"/></clipPath></defs><g clip-path="url(#clip0)"><rect x="0" y="0" width="189" height="189" fill="#313131"/><text fill="#FFFFFF" font-family="Calibri,Calibri_MSFontService,sans-serif" font-weight="300" font-size="11" transform="translate(9.60032 -5)">PROJECT PHASE</text><rect x="3.50005" y="3.50005" width="1" height="1" stroke="#2F528F" stroke-width="1.33333" stroke-miterlimit="8" fill="#4472C4"/><rect x="0" y="0" width="189" height="189" stroke="#46F0F0" stroke-width="8" stroke-miterlimit="8" fill="#FFFFFF"/><g clip-path="url(#clip1)"><g clip-path="url(#clip2)"><g clip-path="url(#clip3)"><path d="M42.0255 31.867C42.2143 31.4215 42.2143 30.9118 42.0255 30.4663 41.932 30.2408 41.7982 30.0373 41.6277 29.8687L36.1295 24.3705C35.4127 23.6537 34.254 23.6537 33.5372 24.3705 32.8203 25.0873 32.8203 26.246 33.5372 26.9628L35.9077 29.3333 16.5 29.3333C11.4455 29.3333 7.33333 25.2212 7.33333 20.1667 7.33333 15.1122 11.4455 11 16.5 11 21.5545 11 25.6667 15.1122 25.6667 20.1667L29.3333 20.1667C29.3333 13.09 23.5748 7.33333 16.5 7.33333 9.42333 7.33333 3.66667 13.09 3.66667 20.1667 3.66667 27.2415 9.42333 33 16.5 33L35.9077 33 33.5372 35.3705C32.8203 36.0873 32.8203 37.246 33.5372 37.9628 33.8947 38.3203 34.364 38.5 34.8333 38.5 35.3027 38.5 35.772 38.3203 36.1295 37.9628L41.6277 32.4647C41.7982 32.296 41.932 32.0925 42.0255 31.867Z" transform="matrix(1 0 -0 1.02273 3 3)"/></g></g></g><text font-family="Calibri,Calibri_MSFontService,sans-serif" font-weight="700" font-size="20" transform="translate(51.0848 23)">PROJECT PHASE<tspan font-weight="400" font-size="12" x="-44.5458" y="86">A </tspan><tspan font-size="12" x="-34.8791" y="86">Project phase</tspan><tspan font-weight="400" font-size="12" x="35.6209" y="86">(or </tspan><tspan font-size="12" x="52.4542" y="86">Sprint</tspan><tspan font-weight="400" font-size="12" x="82.6209" y="86">) is a time </tspan><tspan font-weight="400" font-size="12" x="-44.5458" y="101">bound chunk of a Project with a </tspan><tspan font-weight="400" font-size="12" x="-44.5458" y="115">specific set of deliverables.</tspan></text></g></svg>