<svg width="189" height="189" xmlns="http://www.w3.org/2000/svg" xmlns:xlink="http://www.w3.org/1999/xlink" overflow="hidden"><defs><clipPath id="clip0"><path d="M0 0 189 0 189 189 0 189Z" fill-rule="evenodd" clip-rule="evenodd"/></clipPath><clipPath id="clip1"><path d="M3 3 47 3 47 48 3 48Z" fill-rule="evenodd" clip-rule="evenodd"/></clipPath><clipPath id="clip2"><path d="M3 3 47 3 47 48 3 48Z" fill-rule="evenodd" clip-rule="evenodd"/></clipPath><clipPath id="clip3"><path d="M3 3 47 3 47 48 3 48Z" fill-rule="evenodd" clip-rule="evenodd"/></clipPath></defs><g clip-path="url(#clip0)"><rect x="0" y="0" width="189" height="189" fill="#313131"/><text fill="#FFFFFF" font-family="Calibri,Calibri_MSFontService,sans-serif" font-weight="300" font-size="11" transform="translate(9.60032 -5)">GOAL</text><rect x="3.50005" y="3.50005" width="1" height="1" stroke="#2F528F" stroke-width="1.33333" stroke-miterlimit="8" fill="#4472C4"/><rect x="0" y="0" width="189" height="189" stroke="#F58230" stroke-width="8" stroke-miterlimit="8" fill="#FFFFFF"/><g clip-path="url(#clip1)"><g clip-path="url(#clip2)"><g clip-path="url(#clip3)"><path d="M35.2917 11 27.5 11 27.5 7.33333 12.8333 7.33333 12.8333 5.5C12.8333 4.488 12.012 3.66667 11 3.66667 9.988 3.66667 9.16667 4.488 9.16667 5.5L9.16667 7.33333 9.16667 22 9.16667 38.5C9.16667 39.5138 9.988 40.3333 11 40.3333 12.012 40.3333 12.8333 39.5138 12.8333 38.5L12.8333 22 23.8333 22 23.8333 25.6667 35.2917 25.6667C37.0883 25.6667 38.5 24.0552 38.5 22L38.5 14.6667C38.5 12.6097 37.0883 11 35.2917 11ZM12.8333 18.3333 12.8333 11 23.8333 11 23.8333 18.3333 12.8333 18.3333ZM34.8333 22 27.5 22 27.5 14.6667 34.8333 14.6667 34.8333 22Z" transform="matrix(1 0 -0 1.02273 3 3)"/></g></g></g><text font-family="Calibri,Calibri_MSFontService,sans-serif" font-weight="700" font-size="20" transform="translate(93.4314 23)">GOAL<tspan font-weight="400" font-size="12" x="-86.8924" y="71">A </tspan><tspan font-size="12" x="-77.2258" y="71">Goal</tspan><tspan font-weight="400" font-size="12" x="-51.3924" y="71">is a statement about a </tspan><tspan font-weight="400" font-size="12" x="-86.8924" y="86">desired state or condition of the </tspan><tspan font-weight="400" font-size="12" x="-86.8924" y="100">enterprise to be brought about or </tspan><tspan font-weight="400" font-size="12" x="-86.8924" y="114">sustained through appropriate </tspan><tspan font-size="12" x="-86.8924" y="129">Courses of Action</tspan><tspan font-weight="400" font-size="12" x="0.607559" y="129">.</tspan></text></g></svg>