<svg width="265" height="265" xmlns="http://www.w3.org/2000/svg" xmlns:xlink="http://www.w3.org/1999/xlink" overflow="hidden"><defs><clipPath id="clip0"><path d="M0 0 265 0 265 265 0 265Z" fill-rule="evenodd" clip-rule="evenodd"/></clipPath><clipPath id="clip1"><path d="M35 51 55 51 55 71 35 71Z" fill-rule="evenodd" clip-rule="evenodd"/></clipPath><clipPath id="clip2"><path d="M35 51 55 51 55 71 35 71Z" fill-rule="evenodd" clip-rule="evenodd"/></clipPath><clipPath id="clip3"><path d="M35 51 55 51 55 71 35 71Z" fill-rule="evenodd" clip-rule="evenodd"/></clipPath><clipPath id="clip4"><path d="M214 61 225 61 225 71 214 71Z" fill-rule="evenodd" clip-rule="evenodd"/></clipPath><clipPath id="clip5"><path d="M214 61 225 61 225 71 214 71Z" fill-rule="evenodd" clip-rule="evenodd"/></clipPath><clipPath id="clip6"><path d="M214 61 225 61 225 71 214 71Z" fill-rule="evenodd" clip-rule="evenodd"/></clipPath><clipPath id="clip7"><path d="M207 126 216 126 216 136 207 136Z" fill-rule="evenodd" clip-rule="evenodd"/></clipPath><clipPath id="clip8"><path d="M207 126 216 126 216 136 207 136Z" fill-rule="evenodd" clip-rule="evenodd"/></clipPath><clipPath id="clip9"><path d="M207 126 216 126 216 136 207 136Z" fill-rule="evenodd" clip-rule="evenodd"/></clipPath><clipPath id="clip10"><path d="M218 186 228 186 228 198 218 198Z" fill-rule="evenodd" clip-rule="evenodd"/></clipPath><clipPath id="clip11"><path d="M218 186 228 186 228 198 218 198Z" fill-rule="evenodd" clip-rule="evenodd"/></clipPath><clipPath id="clip12"><path d="M218 186 228 186 228 198 218 198Z" fill-rule="evenodd" clip-rule="evenodd"/></clipPath></defs><g clip-path="url(#clip0)"><rect x="0" y="0" width="265" height="265" fill="#313131"/><rect x="89.5" y="131.5" width="1.99999" height="1" stroke="#2F528F" stroke-width="1.33585" stroke-miterlimit="8" fill="#4472C4"/><path d="M23.5 9.75271C23.5 8.50859 24.5085 7.50003 25.7527 7.50003L249.247 7.50003C250.491 7.50003 251.5 8.50859 251.5 9.75271L251.5 249.247C251.5 250.491 250.491 251.5 249.247 251.5L25.7527 251.5C24.5085 251.5 23.5 250.491 23.5 249.247Z" stroke="#FF0000" stroke-width="0.667927" stroke-miterlimit="8" stroke-opacity="0" fill="none" fill-rule="evenodd"/><path d="M30.0794 43.5 149.921 43.5C153.002 43.5 155.5 45.998 155.5 49.0794L155.5 214.252C155.5 216.598 153.598 218.5 151.252 218.5L28.7483 218.5C26.402 218.5 24.5 216.598 24.5 214.252L24.5 49.0794C24.5 45.998 26.998 43.5 30.0794 43.5Z" stroke="#911EB4" stroke-width="4.67549" stroke-miterlimit="8" fill="#FFFFFF" fill-rule="evenodd"/><g clip-path="url(#clip1)"><g clip-path="url(#clip2)"><g clip-path="url(#clip3)"><path d="M48.2019 62.1119C47.5036 61.6171 46.4752 61.2205 45.1175 60.9197 44.1723 60.6814 43.5057 60.4566 43.1209 60.2428 42.7338 60.0306 42.5406 59.7575 42.5406 59.425 42.5406 59.0616 42.7211 58.7632 43.0814 58.5296 43.4416 58.2961 43.9522 58.1797 44.6116 58.1797 45.2988 58.1797 45.8324 58.3198 46.2124 58.6001 46.5924 58.8803 46.7832 59.2477 46.7832 59.7013L49.1748 59.7013 49.1915 59.6609C49.2192 58.821 48.8091 58.1156 47.9572 57.5432 47.2479 57.0658 46.3509 56.799 45.2917 56.7207L45.2917 54.375C45.2917 53.938 44.9378 53.5833 44.5 53.5833 44.0622 53.5833 43.7084 53.938 43.7084 54.375L43.7084 56.7325C42.7908 56.8275 42.0086 57.0658 41.3611 57.4498 40.5013 57.9588 40.0722 58.6151 40.0722 59.4187 40.0722 60.2222 40.4475 60.8548 41.1956 61.3171 41.9453 61.7794 43.0529 62.1784 44.5166 62.5157 45.3566 62.7176 45.944 62.9329 46.2797 63.1617 46.6154 63.3905 46.7824 63.6937 46.7824 64.0697 46.7824 64.4379 46.6043 64.7316 46.2504 64.9501 45.8949 65.1709 45.3819 65.281 44.7122 65.281 43.9118 65.281 43.288 65.1448 42.8407 64.8725 42.3934 64.6009 42.1686 64.1734 42.1686 63.5908L39.7682 63.5908 39.7516 63.6311C39.7231 64.6223 40.2076 65.395 41.2051 65.9444 41.9453 66.3529 42.7797 66.6078 43.7084 66.7139L43.7084 68.625C43.7084 69.0628 44.0622 69.4167 44.5 69.4167 44.9378 69.4167 45.2917 69.0628 45.2917 68.625L45.2917 66.744C46.385 66.6822 47.2962 66.4566 48.004 66.0442 48.8344 65.5589 49.25 64.897 49.25 64.0571 49.25 63.2543 48.9009 62.6051 48.2019 62.1119Z"/></g></g></g><path d="M26.9702 6.36947C18.5628 6.36947 11.7473 10.3112 11.7473 15.1736L11.7473 248.948C11.7473 253.81 18.5628 257.752 26.9702 257.752L238.08 257.752C246.487 257.752 253.302 253.81 253.302 248.948L253.302 15.1736C253.302 10.3112 246.487 6.36947 238.08 6.36947ZM0 0 265 0 265 265 0 265Z" fill="#911EB4" fill-rule="evenodd"/><text font-family="Calibri,Calibri_MSFontService,sans-serif" font-weight="700" font-size="11" transform="translate(86.1523 63)">PRICE<tspan font-weight="400" font-size="9" x="-54.8619" y="62">The amount of money paid by </tspan><tspan font-weight="400" font-size="9" x="-54.8619" y="73">customers to purchase the </tspan><tspan font-weight="400" font-size="9" x="-54.8619" y="84">product. Can include list </tspan><tspan font-size="9" x="-54.8619" y="95">Price</tspan><tspan font-weight="400" font-size="9" x="-35.659" y="95">, discounts, allowance, </tspan><tspan font-weight="400" font-size="9" x="-54.8619" y="107">payment period, credit terms.</tspan></text><path d="M214.5 63.5C214.5 62.9477 214.948 62.5 215.5 62.5L247.5 62.5C248.052 62.5 248.5 62.9477 248.5 63.5L248.5 67.5C248.5 68.0523 248.052 68.5 247.5 68.5L215.5 68.5C214.948 68.5 214.5 68.0523 214.5 67.5Z" stroke="#911EB4" stroke-width="1.33585" stroke-miterlimit="8" fill="#FFFFFF" fill-rule="evenodd"/><text font-family="Calibri,Calibri_MSFontService,sans-serif" font-weight="700" font-size="5" transform="translate(226.123 66)">OFFERING</text><g clip-path="url(#clip4)"><g clip-path="url(#clip5)"><g clip-path="url(#clip6)"><path d="M7.87498 3.74999 1.125 3.74999C0.917997 3.74999 0.749998 3.91799 0.749998 4.12499L0.749998 5.62498C0.749998 5.83236 0.917997 5.99998 1.125 5.99998L1.5 5.99998 1.5 8.24998C1.5 8.45735 1.668 8.62497 1.87499 8.62497L7.12498 8.62497C7.33235 8.62497 7.49998 8.45735 7.49998 8.24998L7.49998 5.99998 7.87498 5.99998C8.08235 5.99998 8.24998 5.83236 8.24998 5.62498L8.24998 4.12499C8.24998 3.91836 8.08235 3.74999 7.87498 3.74999ZM6.74998 7.87498 2.24999 7.87498 2.24999 5.99998 6.74998 5.99998 6.74998 7.87498ZM7.49998 5.24998 7.12498 5.24998 1.87499 5.24998 1.5 5.24998 1.5 4.49999 7.49998 4.49999 7.49998 5.24998Z" transform="matrix(1.11111 0 -0 1 215 61)"/><path d="M1.76512 2.14049 2.24999 1.65562 2.24999 2.62499C2.24999 2.83199 2.41799 2.99999 2.62499 2.99999 2.83199 2.99999 2.99999 2.83199 2.99999 2.62499L2.99999 1.65562 3.48486 2.14049C3.55799 2.21324 3.65399 2.24999 3.74999 2.24999 3.84599 2.24999 3.94199 2.21324 4.01511 2.14012 4.16174 1.99349 4.16174 1.75649 4.01511 1.60987L2.89012 0.484874C2.74349 0.338249 2.50649 0.338249 2.35987 0.484874L1.23487 1.60987C1.08825 1.75649 1.08825 1.99349 1.23487 2.14012 1.3815 2.28674 1.6185 2.28712 1.76512 2.14049Z" transform="matrix(1.11111 0 -0 1 215 61)"/><path d="M5.51511 2.14049 5.99998 1.65562 5.99998 2.62499C5.99998 2.83199 6.16761 2.99999 6.37498 2.99999 6.58236 2.99999 6.74998 2.83199 6.74998 2.62499L6.74998 1.65562 7.23485 2.14049C7.30798 2.21324 7.40398 2.24999 7.49998 2.24999 7.59598 2.24999 7.69198 2.21324 7.7651 2.14012 7.91173 1.99349 7.91173 1.75649 7.7651 1.60987L6.64011 0.484874C6.49348 0.338249 6.25648 0.338249 6.10986 0.484874L4.98486 1.60987C4.83824 1.75649 4.83824 1.99349 4.98486 2.14012 5.13148 2.28674 5.36848 2.28712 5.51511 2.14049Z" transform="matrix(1.11111 0 -0 1 215 61)"/></g></g></g><path d="M206.5 126.667C206.5 125.47 207.47 124.5 208.667 124.5L246.333 124.5C247.53 124.5 248.5 125.47 248.5 126.667L248.5 135.333C248.5 136.53 247.53 137.5 246.333 137.5L208.667 137.5C207.47 137.5 206.5 136.53 206.5 135.333Z" stroke="#F032E6" stroke-width="1.33585" stroke-miterlimit="8" fill="#FFFFFF" fill-rule="evenodd"/><text font-family="Calibri,Calibri_MSFontService,sans-serif" font-weight="700" font-size="5" transform="translate(218.151 129)">VALUE<tspan x="0" y="6">PROPOSITION</tspan></text><g clip-path="url(#clip7)"><g clip-path="url(#clip8)"><g clip-path="url(#clip9)"><path d="M214.875 129.75 208.125 129.75C207.918 129.75 207.75 129.918 207.75 130.125L207.75 131.625C207.75 131.832 207.918 132 208.125 132L208.5 132 208.5 134.25C208.5 134.457 208.668 134.625 208.875 134.625L214.125 134.625C214.332 134.625 214.5 134.457 214.5 134.25L214.5 132 214.875 132C215.082 132 215.25 131.832 215.25 131.625L215.25 130.125C215.25 129.918 215.082 129.75 214.875 129.75ZM213.75 133.875 209.25 133.875 209.25 132 213.75 132 213.75 133.875ZM214.5 131.25 214.125 131.25 208.875 131.25 208.5 131.25 208.5 130.5 214.5 130.5 214.5 131.25Z"/><path d="M211.223 129.26C211.299 129.336 211.4 129.375 211.5 129.375 211.6 129.375 211.7 129.336 211.777 129.26L212.885 128.15C213.038 127.997 213.038 127.749 212.885 127.595L211.777 126.485C211.63 126.338 211.37 126.338 211.223 126.485L210.115 127.595C209.961 127.749 209.961 127.997 210.115 128.15L211.223 129.26ZM211.5 127.318 212.054 127.873 211.5 128.428 210.946 127.873 211.5 127.318Z"/></g></g></g><path d="M218.5 190.5C218.5 189.948 218.948 189.5 219.5 189.5L247.5 189.5C248.052 189.5 248.5 189.948 248.5 190.5L248.5 194.5C248.5 195.052 248.052 195.5 247.5 195.5L219.5 195.5C218.948 195.5 218.5 195.052 218.5 194.5Z" stroke="#FABEBE" stroke-width="1.33585" stroke-miterlimit="8" fill="#FFFFFF" fill-rule="evenodd"/><text font-family="Calibri,Calibri_MSFontService,sans-serif" font-weight="700" font-size="5" transform="translate(229.582 193)">BENEFIT</text><g clip-path="url(#clip10)"><g clip-path="url(#clip11)"><g clip-path="url(#clip12)"><path d="M2.06249 6.93748C2.15849 6.93748 2.25449 6.90073 2.32762 6.82761L6.93748 2.21774 6.93748 2.90362C6.93748 3.11062 7.1051 3.27862 7.31248 3.27862 7.51985 3.27862 7.68748 3.11062 7.68748 2.90362L7.68748 1.3125C7.68748 1.26375 7.6781 1.215 7.6586 1.16925 7.61998 1.07737 7.5476 1.00462 7.45573 0.966372 7.40998 0.947247 7.36123 0.937497 7.31248 0.937497L5.72136 0.937497C5.51398 0.937497 5.34636 1.1055 5.34636 1.3125 5.34636 1.5195 5.51398 1.68749 5.72136 1.68749L6.40723 1.68749 1.79737 6.29736C1.65075 6.44398 1.65075 6.68098 1.79737 6.82761 1.87049 6.90073 1.96649 6.93748 2.06249 6.93748Z" transform="matrix(1 0 -0 1.11112 219 187)"/><path d="M8.24998 7.49998 1.125 7.49998 1.125 0.749998C1.125 0.542998 0.956997 0.374999 0.749998 0.374999 0.542998 0.374999 0.374999 0.542998 0.374999 0.749998L0.374999 7.87498C0.374999 8.08235 0.542998 8.24998 0.749998 8.24998L8.24998 8.24998C8.45735 8.24998 8.62497 8.08235 8.62497 7.87498 8.62497 7.6676 8.45735 7.49998 8.24998 7.49998Z" transform="matrix(1 0 -0 1.11112 219 187)"/></g></g></g><path d="M166.492 189 206.508 189C211.75 189 216 191.91 216 195.5 216 199.09 211.75 202 206.508 202L166.492 202C161.25 202 157 199.09 157 195.5 157 191.91 161.25 189 166.492 189Z" fill="#313131" fill-rule="evenodd"/><text fill="#FFFFFF" font-family="Calibri,Calibri_MSFontService,sans-serif" font-weight="700" font-size="5" transform="translate(174.502 197)">&lt;Has item|</text><path d="M164.561 124 196.439 124C200.615 124 204 126.91 204 130.5 204 134.09 200.615 137 196.439 137L164.561 137C160.385 137 157 134.09 157 130.5 157 126.91 160.385 124 164.561 124Z" fill="#313131" fill-rule="evenodd"/><text fill="#FFFFFF" font-family="Calibri,Calibri_MSFontService,sans-serif" font-weight="700" font-size="5" transform="translate(166.905 132)">|Feature of&gt;</text><path d="M166.17 62 204.83 62C209.894 62 214 64.9102 214 68.5 214 72.0898 209.894 75 204.83 75L166.17 75C161.106 75 157 72.0898 157 68.5 157 64.9102 161.106 62 166.17 62Z" fill="#313131" fill-rule="evenodd"/><text fill="#FFFFFF" font-family="Calibri,Calibri_MSFontService,sans-serif" font-weight="700" font-size="5" transform="translate(173.167 71)">&lt;Has item|</text></g></svg>