<svg width="189" height="189" xmlns="http://www.w3.org/2000/svg" xmlns:xlink="http://www.w3.org/1999/xlink" overflow="hidden"><defs><clipPath id="clip0"><path d="M0 0 189 0 189 189 0 189Z" fill-rule="evenodd" clip-rule="evenodd"/></clipPath><clipPath id="clip1"><path d="M3 3 47 3 47 48 3 48Z" fill-rule="evenodd" clip-rule="evenodd"/></clipPath><clipPath id="clip2"><path d="M3 3 47 3 47 48 3 48Z" fill-rule="evenodd" clip-rule="evenodd"/></clipPath><clipPath id="clip3"><path d="M3 3 47 3 47 48 3 48Z" fill-rule="evenodd" clip-rule="evenodd"/></clipPath></defs><g clip-path="url(#clip0)"><rect x="0" y="0" width="189" height="189" fill="#313131"/><text fill="#FFFFFF" font-family="Calibri,Calibri_MSFontService,sans-serif" font-weight="300" font-size="11" transform="translate(9.60032 -5)">EMPLOYEE</text><rect x="3.50005" y="3.50005" width="1" height="1" stroke="#2F528F" stroke-width="1.33333" stroke-miterlimit="8" fill="#4472C4"/><rect x="0" y="0" width="189" height="189" stroke="#B74D41" stroke-width="8" stroke-miterlimit="8" fill="#FFFFFF"/><g clip-path="url(#clip1)"><g clip-path="url(#clip2)"><g clip-path="url(#clip3)"><path d="M20.1667 17.4167C15.1122 17.4167 11 13.3045 11 8.25 11 3.1955 15.1122-0.916667 20.1667-0.916667 25.2212-0.916667 29.3333 3.1955 29.3333 8.25 29.3333 13.3045 25.2212 17.4167 20.1667 17.4167ZM20.1667 2.75C17.1343 2.75 14.6667 5.21767 14.6667 8.25 14.6667 11.2823 17.1343 13.75 20.1667 13.75 23.199 13.75 25.6667 11.2823 25.6667 8.25 25.6667 5.21767 23.199 2.75 20.1667 2.75Z" transform="matrix(1 0 -0 1.02273 4.83333 5.8125)"/><path d="M36.6667 41.25C35.6528 41.25 34.8333 40.4305 34.8333 39.4167L34.8333 31.1667C34.8333 27.6283 31.9587 24.75 28.424 24.75L11.9093 24.75C8.37467 24.75 5.5 27.6283 5.5 31.1667L5.5 39.4167C5.5 40.4305 4.67867 41.25 3.66667 41.25 2.65467 41.25 1.83333 40.4305 1.83333 39.4167L1.83333 31.1667C1.83333 25.608 6.3525 21.0833 11.9093 21.0833L28.424 21.0833C33.979 21.0833 38.5 25.608 38.5 31.1667L38.5 39.4167C38.5 40.4305 37.6805 41.25 36.6667 41.25Z" transform="matrix(1 0 -0 1.02273 4.83333 5.8125)"/><path d="M29.3333 41.25 18.3333 41.25C17.3213 41.25 16.5 40.4305 16.5 39.4167L16.5 32.0833C16.5 31.0695 17.3213 30.25 18.3333 30.25L29.3333 30.25C30.3472 30.25 31.1667 31.0695 31.1667 32.0833L31.1667 39.4167C31.1667 40.4305 30.3472 41.25 29.3333 41.25ZM20.1667 37.5833 27.5 37.5833 27.5 33.9167 20.1667 33.9167 20.1667 37.5833Z" transform="matrix(1 0 -0 1.02273 4.83333 5.8125)"/><path d="M23.8333 33.9167C22.8195 33.9167 22 33.0972 22 32.0833L22 28.4167C22 27.4028 22.8195 26.5833 23.8333 26.5833 24.8472 26.5833 25.6667 27.4028 25.6667 28.4167L25.6667 32.0833C25.6667 33.0972 24.8472 33.9167 23.8333 33.9167Z" transform="matrix(1 0 -0 1.02273 4.83333 5.8125)"/></g></g></g><text font-family="Calibri,Calibri_MSFontService,sans-serif" font-weight="700" font-size="20" transform="translate(72.2048 23)">EMPLOYEE<tspan font-weight="400" font-size="12" x="-65.6658" y="57">A specialisation of </tspan><tspan font-size="12" x="25.3342" y="57">Identity</tspan><tspan font-weight="400" font-size="12" x="64.5009" y="57">. </tspan><tspan font-size="12" x="-65.6658" y="72">Employee</tspan><tspan font-weight="400" font-size="12" x="-13.6658" y="72">is a contextual identity </tspan><tspan font-weight="400" font-size="12" x="-65.6658" y="86">adopted by a </tspan><tspan font-size="12" x="0.834221" y="86">Party</tspan><tspan font-weight="400" font-size="12" x="27.3342" y="86">. </tspan><tspan font-size="12" x="33.0009" y="86">Employee</tspan><tspan font-weight="400" font-size="12" x="-65.6658" y="100">holds the properties of a person </tspan><tspan font-weight="400" font-size="12" x="-65.6658" y="115">which are specific to the person in </tspan><tspan font-weight="400" font-size="12" x="-65.6658" y="129">their context as an employee (e.g. </tspan><tspan font-weight="400" font-size="12" x="-65.6658" y="144">employee ID).</tspan></text></g></svg>