<svg width="265" height="265" xmlns="http://www.w3.org/2000/svg" xmlns:xlink="http://www.w3.org/1999/xlink" overflow="hidden"><defs><clipPath id="clip0"><path d="M0 0 265 0 265 265 0 265Z" fill-rule="evenodd" clip-rule="evenodd"/></clipPath><clipPath id="clip1"><path d="M35 51 55 51 55 71 35 71Z" fill-rule="evenodd" clip-rule="evenodd"/></clipPath><clipPath id="clip2"><path d="M35 51 55 51 55 71 35 71Z" fill-rule="evenodd" clip-rule="evenodd"/></clipPath><clipPath id="clip3"><path d="M35 51 55 51 55 71 35 71Z" fill-rule="evenodd" clip-rule="evenodd"/></clipPath><clipPath id="clip4"><path d="M219 47 229 47 229 58 219 58Z" fill-rule="evenodd" clip-rule="evenodd"/></clipPath><clipPath id="clip5"><path d="M219 47 229 47 229 58 219 58Z" fill-rule="evenodd" clip-rule="evenodd"/></clipPath><clipPath id="clip6"><path d="M219 47 229 47 229 58 219 58Z" fill-rule="evenodd" clip-rule="evenodd"/></clipPath><clipPath id="clip7"><path d="M206 99 216 99 216 108 206 108Z" fill-rule="evenodd" clip-rule="evenodd"/></clipPath><clipPath id="clip8"><path d="M206 99 216 99 216 108 206 108Z" fill-rule="evenodd" clip-rule="evenodd"/></clipPath><clipPath id="clip9"><path d="M206 99 216 99 216 108 206 108Z" fill-rule="evenodd" clip-rule="evenodd"/></clipPath><clipPath id="clip10"><path d="M215 150 226 150 226 162 215 162Z" fill-rule="evenodd" clip-rule="evenodd"/></clipPath><clipPath id="clip11"><path d="M215 150 226 150 226 162 215 162Z" fill-rule="evenodd" clip-rule="evenodd"/></clipPath><clipPath id="clip12"><path d="M215 150 226 150 226 162 215 162Z" fill-rule="evenodd" clip-rule="evenodd"/></clipPath><clipPath id="clip13"><path d="M207 202 216 202 216 212 207 212Z" fill-rule="evenodd" clip-rule="evenodd"/></clipPath><clipPath id="clip14"><path d="M207 202 216 202 216 212 207 212Z" fill-rule="evenodd" clip-rule="evenodd"/></clipPath><clipPath id="clip15"><path d="M207 202 216 202 216 212 207 212Z" fill-rule="evenodd" clip-rule="evenodd"/></clipPath><clipPath id="clip16"><path d="M71 224 82 224 82 236 71 236Z" fill-rule="evenodd" clip-rule="evenodd"/></clipPath><clipPath id="clip17"><path d="M71 224 82 224 82 236 71 236Z" fill-rule="evenodd" clip-rule="evenodd"/></clipPath><clipPath id="clip18"><path d="M71 224 82 224 82 236 71 236Z" fill-rule="evenodd" clip-rule="evenodd"/></clipPath></defs><g clip-path="url(#clip0)"><rect x="0" y="0" width="265" height="265" fill="#313131"/><rect x="89.5" y="131.5" width="1.99999" height="1" stroke="#2F528F" stroke-width="1.33585" stroke-miterlimit="8" fill="#4472C4"/><path d="M23.5 9.75271C23.5 8.50859 24.5085 7.50003 25.7527 7.50003L249.247 7.50003C250.491 7.50003 251.5 8.50859 251.5 9.75271L251.5 249.247C251.5 250.491 250.491 251.5 249.247 251.5L25.7527 251.5C24.5085 251.5 23.5 250.491 23.5 249.247Z" stroke="#FF0000" stroke-width="0.667927" stroke-miterlimit="8" stroke-opacity="0" fill="none" fill-rule="evenodd"/><path d="M30.0794 43.5 149.921 43.5C153.002 43.5 155.5 45.998 155.5 49.0794L155.5 214.252C155.5 216.598 153.598 218.5 151.252 218.5L28.7483 218.5C26.402 218.5 24.5 216.598 24.5 214.252L24.5 49.0794C24.5 45.998 26.998 43.5 30.0794 43.5Z" stroke="#F032E6" stroke-width="4.67549" stroke-miterlimit="8" fill="#FFFFFF" fill-rule="evenodd"/><g clip-path="url(#clip1)"><g clip-path="url(#clip2)"><g clip-path="url(#clip3)"><path d="M50.0567 70.2075 37.3758 70.2075C37.0718 70.2075 36.7947 70.0326 36.6625 69.7595 36.5303 69.4847 36.5675 69.1594 36.7575 68.9219L37.9434 67.4367 36.7567 65.9515C36.5667 65.714 36.5295 65.3886 36.6617 65.1139 36.7947 64.84 37.0718 64.6659 37.3758 64.6659L50.0567 64.6659C50.299 64.6659 50.527 64.7775 50.6758 64.9659L52.2457 66.9451C52.4745 67.2324 52.4745 67.6409 52.2457 67.9283L50.6758 69.9075C50.5246 70.0959 50.2974 70.2075 50.0567 70.2075ZM39.0217 68.6242 49.6736 68.6242 50.6157 67.4367 49.6736 66.2492 39.0217 66.2492 39.5758 66.9427C39.807 67.2317 39.807 67.6417 39.5758 67.9307L39.0217 68.6242Z"/><path d="M44.5 63.0825 44.5 63.0825C44.2894 63.0825 44.0884 63.0002 43.9403 62.8506L39.9828 58.8883C39.6732 58.5787 39.6732 58.0784 39.9828 57.768L43.9403 53.8057C44.2372 53.5089 44.7621 53.5081 45.0597 53.8057L49.0189 57.768C49.1677 57.9169 49.2508 58.118 49.2508 58.3278 49.2508 58.5376 49.1677 58.7402 49.0189 58.8883L45.0597 62.8506C44.9125 63.0002 44.7106 63.0825 44.5 63.0825ZM41.6619 58.3278 44.5 61.1691 47.3397 58.3278 44.5 55.4865 41.6619 58.3278Z"/></g></g></g><path d="M26.9702 6.36947C18.5628 6.36947 11.7473 10.3112 11.7473 15.1736L11.7473 248.948C11.7473 253.81 18.5628 257.752 26.9702 257.752L238.08 257.752C246.487 257.752 253.302 253.81 253.302 248.948L253.302 15.1736C253.302 10.3112 246.487 6.36947 238.08 6.36947ZM0 0 265 0 265 265 0 265Z" fill="#F032E6" fill-rule="evenodd"/><text font-family="Calibri,Calibri_MSFontService,sans-serif" font-weight="700" font-size="11" transform="translate(64.1942 63)">VALUE STREAM<tspan font-weight="400" font-size="9" x="-32.9039" y="62">A </tspan><tspan font-size="9" x="-25.3897" y="62">ValueStream</tspan><tspan font-weight="400" font-size="9" x="26.8756" y="62">elaborates a </tspan><tspan font-weight="400" font-size="9" x="-32.9039" y="73">progression of tangible stages </tspan><tspan font-weight="400" font-size="9" x="-32.9039" y="84">in the execution of a value</tspan><tspan font-weight="400" font-size="9" x="67.7861" y="84">-</tspan><tspan font-weight="400" font-size="9" x="-32.9039" y="95">producing business </tspan><tspan font-weight="400" font-size="9" x="-32.9039" y="107">endeavour.</tspan></text><path d="M219.5 50.6667C219.5 50.0224 220.022 49.5 220.667 49.5L247.333 49.5C247.978 49.5 248.5 50.0224 248.5 50.6667L248.5 55.3333C248.5 55.9776 247.978 56.5 247.333 56.5L220.667 56.5C220.022 56.5 219.5 55.9776 219.5 55.3333Z" stroke="#D2F53C" stroke-width="1.33585" stroke-miterlimit="8" fill="#FFFFFF" fill-rule="evenodd"/><text font-family="Calibri,Calibri_MSFontService,sans-serif" font-weight="700" font-size="5" transform="translate(230.613 54)">METRIC</text><g clip-path="url(#clip4)"><g clip-path="url(#clip5)"><g clip-path="url(#clip6)"><path d="M4.49999 1.3125C2.43224 1.3125 0.749998 2.99474 0.749998 5.06249 0.749998 5.26986 0.917997 5.43748 1.125 5.43748 1.332 5.43748 1.5 5.26986 1.5 5.06249 1.5 3.40836 2.84587 2.06249 4.49999 2.06249 6.15411 2.06249 7.49998 3.40836 7.49998 5.06249 7.49998 5.26986 7.6676 5.43748 7.87498 5.43748 8.08235 5.43748 8.24998 5.26986 8.24998 5.06249 8.24998 2.99474 6.56773 1.3125 4.49999 1.3125Z" transform="matrix(1 0 -0 1.00001 220 48)"/><path d="M6.07948 3.73424 4.70324 5.45811C4.63686 5.44536 4.56974 5.43748 4.49999 5.43748 3.87974 5.43748 3.37499 5.94223 3.37499 6.56248 3.37499 7.18273 3.87974 7.68748 4.49999 7.68748 5.12023 7.68748 5.62498 7.18273 5.62498 6.56248 5.62498 6.28723 5.52186 6.03748 5.35648 5.84173L6.66486 4.20224C6.7946 4.04024 6.76761 3.80436 6.60636 3.67536 6.44473 3.54561 6.20886 3.57299 6.07948 3.73424ZM4.49999 6.93748C4.29299 6.93748 4.12499 6.76948 4.12499 6.56248 4.12499 6.35548 4.29299 6.18748 4.49999 6.18748 4.70699 6.18748 4.87499 6.35548 4.87499 6.56248 4.87499 6.76948 4.70699 6.93748 4.49999 6.93748Z" transform="matrix(1 0 -0 1.00001 220 48)"/></g></g></g><path d="M206.5 101.5C206.5 100.948 206.948 100.5 207.5 100.5L247.5 100.5C248.052 100.5 248.5 100.948 248.5 101.5L248.5 105.5C248.5 106.052 248.052 106.5 247.5 106.5L207.5 106.5C206.948 106.5 206.5 106.052 206.5 105.5Z" stroke="#911EB4" stroke-width="1.33585" stroke-miterlimit="8" fill="#FFFFFF" fill-rule="evenodd"/><text font-family="Calibri,Calibri_MSFontService,sans-serif" font-weight="700" font-size="5" transform="translate(217.27 104)">STAKEHOLDER</text><g clip-path="url(#clip7)"><g clip-path="url(#clip8)"><g clip-path="url(#clip9)"><path d="M4.49999 4.12499C5.54998 4.12499 6.37498 3.29999 6.37498 2.24999 6.37498 1.2 5.54998 0.374999 4.49999 0.374999 3.44999 0.374999 2.62499 1.2 2.62499 2.24999 2.62499 3.29999 3.44999 4.12499 4.49999 4.12499ZM4.49999 1.125C5.13749 1.125 5.62498 1.6125 5.62498 2.24999 5.62498 2.88749 5.13749 3.37499 4.49999 3.37499 3.86249 3.37499 3.37499 2.88749 3.37499 2.24999 3.37499 1.6125 3.86249 1.125 4.49999 1.125Z" transform="matrix(1.11111 0 -0 1 206 99)"/><path d="M5.62498 4.87499 3.37499 4.87499C2.32499 4.87499 1.5 5.69998 1.5 6.74998L1.5 8.24998C1.5 8.47498 1.65 8.62497 1.87499 8.62497 2.09999 8.62497 2.24999 8.47498 2.24999 8.24998L2.24999 6.74998C2.24999 6.11248 2.73749 5.62498 3.37499 5.62498L3.74999 5.62498 4.49999 7.12498 5.24998 5.62498 5.62498 5.62498C6.26248 5.62498 6.74998 6.11248 6.74998 6.74998L6.74998 8.24998C6.74998 8.47498 6.89998 8.62497 7.12498 8.62497 7.34998 8.62497 7.49998 8.47498 7.49998 8.24998L7.49998 6.74998C7.49998 5.69998 6.67498 4.87499 5.62498 4.87499Z" transform="matrix(1.11111 0 -0 1 206 99)"/></g></g></g><path d="M215.5 151.667C215.5 150.47 216.47 149.5 217.667 149.5L246.333 149.5C247.53 149.5 248.5 150.47 248.5 151.667L248.5 160.333C248.5 161.53 247.53 162.5 246.333 162.5L217.667 162.5C216.47 162.5 215.5 161.53 215.5 160.333Z" stroke="#F032E6" stroke-width="1.33585" stroke-miterlimit="8" fill="#FFFFFF" fill-rule="evenodd"/><text font-family="Calibri,Calibri_MSFontService,sans-serif" font-weight="700" font-size="5" transform="translate(227.347 154)">USER<tspan x="0" y="6">JOURNEY</tspan></text><g clip-path="url(#clip10)"><g clip-path="url(#clip11)"><g clip-path="url(#clip12)"><path d="M4.99999 3.54166C5.91915 3.54166 6.66665 2.79416 6.66665 1.87499 6.66665 0.95583 5.91915 0.208333 4.99999 0.208333 4.08082 0.208333 3.33332 0.95583 3.33332 1.87499 3.33332 2.79416 4.08082 3.54166 4.99999 3.54166ZM4.99999 1.04166C5.45957 1.04166 5.83332 1.41541 5.83332 1.87499 5.83332 2.33458 5.45957 2.70833 4.99999 2.70833 4.5404 2.70833 4.16665 2.33458 4.16665 1.87499 4.16665 1.41541 4.5404 1.04166 4.99999 1.04166Z" transform="matrix(1 0 -0 1.00001 216 151)"/><path d="M8.33331 7.29165C7.79081 7.29165 7.3329 7.64123 7.1604 8.12498L6.17332 8.12498C6.00082 7.64123 5.54248 7.29165 5.0004 7.29165 4.45832 7.29165 3.99999 7.64123 3.82707 8.12498L2.83999 8.12498C2.66708 7.64123 2.20916 7.29165 1.66666 7.29165 0.977497 7.29165 0.416665 7.85248 0.416665 8.54164 0.416665 9.23081 0.977497 9.79164 1.66666 9.79164 2.20916 9.79164 2.66708 9.44205 2.83999 8.95831L3.82707 8.95831C3.99957 9.44205 4.4579 9.79164 4.99999 9.79164 5.54207 9.79164 6.0004 9.44205 6.1729 8.95831L7.15998 8.95831C7.33248 9.44205 7.79081 9.79164 8.33289 9.79164 9.02206 9.79164 9.58289 9.23081 9.58289 8.54164 9.58289 7.85248 9.02247 7.29165 8.33331 7.29165ZM1.66666 8.95831C1.43708 8.95831 1.25 8.77164 1.25 8.54164 1.25 8.31164 1.43708 8.12498 1.66666 8.12498 1.89624 8.12498 2.08333 8.31164 2.08333 8.54164 2.08333 8.77164 1.89624 8.95831 1.66666 8.95831ZM4.99999 8.95831C4.7704 8.95831 4.58332 8.77164 4.58332 8.54164 4.58332 8.31164 4.7704 8.12498 4.99999 8.12498 5.22998 8.12498 5.41665 8.31164 5.41665 8.54164 5.41665 8.77164 5.22998 8.95831 4.99999 8.95831ZM8.33331 8.95831C8.10331 8.95831 7.91664 8.77164 7.91664 8.54164 7.91664 8.31164 8.10331 8.12498 8.33331 8.12498 8.56331 8.12498 8.74997 8.31164 8.74997 8.54164 8.74997 8.77164 8.56331 8.95831 8.33331 8.95831Z" transform="matrix(1 0 -0 1.00001 216 151)"/><path d="M2.91666 7.29165C3.14666 7.29165 3.33332 7.1054 3.33332 6.87498L3.33332 5.62498C3.33332 5.1654 3.70707 4.79165 4.16665 4.79165L5.83332 4.79165C6.2929 4.79165 6.66665 5.1654 6.66665 5.62498L6.66665 6.87498C6.66665 7.1054 6.8529 7.29165 7.08331 7.29165 7.31373 7.29165 7.49998 7.1054 7.49998 6.87498L7.49998 5.62498C7.49998 4.70582 6.75248 3.95832 5.83332 3.95832L4.16665 3.95832C3.24749 3.95832 2.49999 4.70582 2.49999 5.62498L2.49999 6.87498C2.49999 7.1054 2.68666 7.29165 2.91666 7.29165Z" transform="matrix(1 0 -0 1.00001 216 151)"/></g></g></g><path d="M206.5 202.667C206.5 201.47 207.47 200.5 208.667 200.5L246.333 200.5C247.53 200.5 248.5 201.47 248.5 202.667L248.5 211.333C248.5 212.53 247.53 213.5 246.333 213.5L208.667 213.5C207.47 213.5 206.5 212.53 206.5 211.333Z" stroke="#F032E6" stroke-width="1.33585" stroke-miterlimit="8" fill="#FFFFFF" fill-rule="evenodd"/><text font-family="Calibri,Calibri_MSFontService,sans-serif" font-weight="700" font-size="5" transform="translate(218.151 205)">VALUE<tspan x="0" y="6">PROPOSITION</tspan></text><g clip-path="url(#clip13)"><g clip-path="url(#clip14)"><g clip-path="url(#clip15)"><path d="M214.875 205.75 208.125 205.75C207.918 205.75 207.75 205.918 207.75 206.125L207.75 207.625C207.75 207.832 207.918 208 208.125 208L208.5 208 208.5 210.25C208.5 210.457 208.668 210.625 208.875 210.625L214.125 210.625C214.332 210.625 214.5 210.457 214.5 210.25L214.5 208 214.875 208C215.082 208 215.25 207.832 215.25 207.625L215.25 206.125C215.25 205.918 215.082 205.75 214.875 205.75ZM213.75 209.875 209.25 209.875 209.25 208 213.75 208 213.75 209.875ZM214.5 207.25 214.125 207.25 208.875 207.25 208.5 207.25 208.5 206.5 214.5 206.5 214.5 207.25Z"/><path d="M211.223 205.26C211.299 205.336 211.4 205.375 211.5 205.375 211.6 205.375 211.7 205.336 211.777 205.26L212.885 204.15C213.038 203.997 213.038 203.749 212.885 203.595L211.777 202.485C211.63 202.338 211.37 202.338 211.223 202.485L210.115 203.595C209.961 203.749 209.961 203.997 210.115 204.15L211.223 205.26ZM211.5 203.318 212.054 203.873 211.5 204.428 210.946 203.873 211.5 203.318Z"/></g></g></g><path d="M166.814 49 208.186 49C213.606 49 218 52.134 218 56 218 59.866 213.606 63 208.186 63L166.814 63C161.394 63 157 59.866 157 56 157 52.134 161.394 49 166.814 49Z" fill="#313131" fill-rule="evenodd"/><text fill="#FFFFFF" font-family="Calibri,Calibri_MSFontService,sans-serif" font-weight="700" font-size="5" transform="translate(171.664 58)">|Assessed by&gt;</text><path d="M166.17 149 204.83 149C209.894 149 214 152.134 214 156 214 159.866 209.894 163 204.83 163L166.17 163C161.106 163 157 159.866 157 156 157 152.134 161.106 149 166.17 149Z" fill="#313131" fill-rule="evenodd"/><text fill="#FFFFFF" font-family="Calibri,Calibri_MSFontService,sans-serif" font-weight="700" font-size="5" transform="translate(166.153 158)">|Experienced As&gt;</text><path d="M164.561 200 196.439 200C200.615 200 204 202.91 204 206.5 204 210.09 200.615 213 196.439 213L164.561 213C160.385 213 157 210.09 157 206.5 157 202.91 160.385 200 164.561 200Z" fill="#313131" fill-rule="evenodd"/><text fill="#FFFFFF" font-family="Calibri,Calibri_MSFontService,sans-serif" font-weight="700" font-size="5" transform="translate(168.408 209)">|Supports&gt;</text><path d="M164.561 100 196.439 100C200.615 100 204 102.91 204 106.5 204 110.09 200.615 113 196.439 113L164.561 113C160.385 113 157 110.09 157 106.5 157 102.91 160.385 100 164.561 100Z" fill="#313131" fill-rule="evenodd"/><text fill="#FFFFFF" font-family="Calibri,Calibri_MSFontService,sans-serif" font-weight="700" font-size="5" transform="translate(165.986 105)">|Benefitting&gt; <tspan x="2.50473" y="6">Triggering&gt;</tspan></text><path d="M84 222 89.5 218 95 222Z" fill="#FFFFFF" fill-rule="evenodd"/><path d="M71.5001 225.667C71.5001 224.47 72.4701 223.5 73.6667 223.5L114.333 223.5C115.53 223.5 116.5 224.47 116.5 225.667L116.5 234.333C116.5 235.53 115.53 236.5 114.333 236.5L73.6667 236.5C72.4701 236.5 71.5001 235.53 71.5001 234.333Z" stroke="#F032E6" stroke-width="1.33585" stroke-miterlimit="8" fill="#FFFFFF" fill-rule="evenodd"/><text font-family="Calibri,Calibri_MSFontService,sans-serif" font-weight="700" font-size="5" transform="translate(83.3771 228)">VALUE STREAM<tspan x="0" y="6">STAGE</tspan></text><g clip-path="url(#clip16)"><g clip-path="url(#clip17)"><g clip-path="url(#clip18)"><path d="M9.49289 7.44914 8.66539 6.40748C8.58539 6.3079 8.46581 6.24998 8.33914 6.24998L5.83332 6.24998C5.6729 6.24998 5.52748 6.34206 5.45832 6.48581 5.38915 6.6304 5.4079 6.80165 5.5079 6.92706L6.13373 7.70831 5.5079 8.48956C5.4079 8.61497 5.38915 8.78622 5.45832 8.93081 5.52748 9.07456 5.6729 9.16664 5.83332 9.16664L8.33914 9.16664C8.46622 9.16664 8.58664 9.10872 8.66539 9.00914L9.49289 7.96748C9.61331 7.81581 9.61331 7.60081 9.49289 7.44914Z" transform="matrix(1 0 -0 1.00001 72 225)"/><path d="M4.08165 6.40748C4.0029 6.3079 3.88291 6.24998 3.75582 6.24998L1.25 6.24998C1.09 6.24998 0.943747 6.34206 0.874581 6.48581 0.804998 6.6304 0.824581 6.80165 0.924997 6.92706L1.55 7.70831 0.924997 8.48956C0.824998 8.61497 0.805414 8.78622 0.874581 8.93081 0.943747 9.07456 1.09 9.16664 1.25 9.16664L3.75582 9.16664C3.88291 9.16664 4.0029 9.10872 4.08207 9.00914L4.90999 7.96748C5.0304 7.81581 5.0304 7.60081 4.90999 7.44914L4.08165 6.40748ZM3.55457 8.33331 2.11708 8.33331 2.40874 7.96873C2.53041 7.81664 2.53041 7.59998 2.40874 7.44789L2.11708 7.08331 3.55457 7.08331 4.05124 7.70831 3.55457 8.33331Z" transform="matrix(1 0 -0 1.00001 72 225)"/><path d="M7.49998 2.91416C7.49998 2.80249 7.45623 2.69541 7.37665 2.61666L5.29707 0.534582C5.13957 0.377082 4.8604 0.377082 4.7029 0.534582L2.62291 2.61666C2.45833 2.78124 2.45833 3.04707 2.62291 3.21124L4.70249 5.29332C4.78165 5.37248 4.8879 5.41665 4.99999 5.41665 5.11165 5.41665 5.2179 5.37248 5.29707 5.29332L7.37665 3.21124C7.45623 3.13249 7.49998 3.02541 7.49998 2.91416ZM4.99999 4.40082 3.51457 2.91416 4.99999 1.42708 6.4854 2.91416 4.99999 4.40082Z" transform="matrix(1 0 -0 1.00001 72 225)"/></g></g></g></g></svg>