<svg width="265" height="265" xmlns="http://www.w3.org/2000/svg" xmlns:xlink="http://www.w3.org/1999/xlink" overflow="hidden"><defs><clipPath id="clip0"><path d="M0 0 265 0 265 265 0 265Z" fill-rule="evenodd" clip-rule="evenodd"/></clipPath><clipPath id="clip1"><path d="M35 51 55 51 55 71 35 71Z" fill-rule="evenodd" clip-rule="evenodd"/></clipPath><clipPath id="clip2"><path d="M35 51 55 51 55 71 35 71Z" fill-rule="evenodd" clip-rule="evenodd"/></clipPath><clipPath id="clip3"><path d="M35 51 55 51 55 71 35 71Z" fill-rule="evenodd" clip-rule="evenodd"/></clipPath><clipPath id="clip4"><path d="M212 82 221 82 221 94 212 94Z" fill-rule="evenodd" clip-rule="evenodd"/></clipPath><clipPath id="clip5"><path d="M212 82 221 82 221 94 212 94Z" fill-rule="evenodd" clip-rule="evenodd"/></clipPath><clipPath id="clip6"><path d="M212 82 221 82 221 94 212 94Z" fill-rule="evenodd" clip-rule="evenodd"/></clipPath><clipPath id="clip7"><path d="M212 166 222 166 222 177 212 177Z" fill-rule="evenodd" clip-rule="evenodd"/></clipPath><clipPath id="clip8"><path d="M212 166 222 166 222 177 212 177Z" fill-rule="evenodd" clip-rule="evenodd"/></clipPath><clipPath id="clip9"><path d="M212 166 222 166 222 177 212 177Z" fill-rule="evenodd" clip-rule="evenodd"/></clipPath><clipPath id="clip10"><path d="M71 30 82 30 82 39 71 39Z" fill-rule="evenodd" clip-rule="evenodd"/></clipPath><clipPath id="clip11"><path d="M71 30 82 30 82 39 71 39Z" fill-rule="evenodd" clip-rule="evenodd"/></clipPath><clipPath id="clip12"><path d="M71 30 82 30 82 39 71 39Z" fill-rule="evenodd" clip-rule="evenodd"/></clipPath></defs><g clip-path="url(#clip0)"><rect x="0" y="0" width="265" height="265" fill="#313131"/><rect x="89.5" y="131.5" width="1.99999" height="1" stroke="#2F528F" stroke-width="1.33585" stroke-miterlimit="8" fill="#4472C4"/><path d="M23.5 9.75271C23.5 8.50859 24.5085 7.50003 25.7527 7.50003L249.247 7.50003C250.491 7.50003 251.5 8.50859 251.5 9.75271L251.5 249.247C251.5 250.491 250.491 251.5 249.247 251.5L25.7527 251.5C24.5085 251.5 23.5 250.491 23.5 249.247Z" stroke="#FF0000" stroke-width="0.667927" stroke-miterlimit="8" stroke-opacity="0" fill="none" fill-rule="evenodd"/><path d="M30.0794 43.5 149.921 43.5C153.002 43.5 155.5 45.998 155.5 49.0794L155.5 214.252C155.5 216.598 153.598 218.5 151.252 218.5L28.7483 218.5C26.402 218.5 24.5 216.598 24.5 214.252L24.5 49.0794C24.5 45.998 26.998 43.5 30.0794 43.5Z" stroke="#CEB023" stroke-width="4.67549" stroke-miterlimit="8" fill="#FFFFFF" fill-rule="evenodd"/><g clip-path="url(#clip1)"><g clip-path="url(#clip2)"><g clip-path="url(#clip3)"><path d="M44.5 60.7083C42.3174 60.7083 40.5417 58.9326 40.5417 56.75 40.5417 54.5673 42.3174 52.7916 44.5 52.7916 46.6827 52.7916 48.4584 54.5673 48.4584 56.75 48.4584 58.9326 46.6827 60.7083 44.5 60.7083ZM44.5 54.375C43.1906 54.375 42.125 55.4405 42.125 56.75 42.125 58.0594 43.1906 59.125 44.5 59.125 45.8094 59.125 46.875 58.0594 46.875 56.75 46.875 55.4405 45.8094 54.375 44.5 54.375Z"/><path d="M50.0417 71C49.6039 71 49.25 70.6461 49.25 70.2083L49.25 66.6458C49.25 65.1179 48.0047 63.875 46.4737 63.875L42.5264 63.875C40.9953 63.875 39.75 65.1179 39.75 66.6458L39.75 70.2083C39.75 70.6461 39.3953 71 38.9583 71 38.5213 71 38.1667 70.6461 38.1667 70.2083L38.1667 66.6458C38.1667 64.2455 40.1221 62.2916 42.5264 62.2916L46.4737 62.2916C48.8772 62.2916 50.8334 64.2455 50.8334 66.6458L50.8334 70.2083C50.8334 70.6461 50.4795 71 50.0417 71Z"/><path d="M44.5 69.9178 42.5422 71 42.9167 68.7081 41.3333 67.0868 43.5215 66.7511 44.5 64.6666 45.4785 66.7511 47.6667 67.0868 46.0834 68.7081 46.4578 71Z"/></g></g></g><path d="M26.9702 6.36947C18.5628 6.36947 11.7473 10.3112 11.7473 15.1736L11.7473 248.948C11.7473 253.81 18.5628 257.752 26.9702 257.752L238.08 257.752C246.487 257.752 253.302 253.81 253.302 248.948L253.302 15.1736C253.302 10.3112 246.487 6.36947 238.08 6.36947ZM0 0 265 0 265 265 0 265Z" fill="#CEB023" fill-rule="evenodd"/><text font-family="Calibri,Calibri_MSFontService,sans-serif" font-weight="700" font-size="11" transform="translate(87.4881 63)">SKILL<tspan font-weight="400" font-size="9" x="-56.1978" y="68">Specific knowledge or training </tspan><tspan font-weight="400" font-size="9" x="-56.1978" y="79">that is required to </tspan><tspan font-weight="400" font-size="9" x="-56.1978" y="90">competently perform a task, </tspan><tspan font-weight="400" font-size="9" x="-56.1978" y="101">job or activity.</tspan></text><path d="M211.5 84.5001C211.5 83.3955 212.395 82.5 213.5 82.5L246.5 82.5C247.605 82.5 248.5 83.3955 248.5 84.5001L248.5 92.4999C248.5 93.6045 247.605 94.5 246.5 94.5L213.5 94.5C212.395 94.5 211.5 93.6045 211.5 92.4999Z" stroke="#CEB023" stroke-width="1.33585" stroke-miterlimit="8" fill="#FFFFFF" fill-rule="evenodd"/><text font-family="Calibri,Calibri_MSFontService,sans-serif" font-weight="700" font-size="5" transform="translate(223.009 86)">POSITION<tspan x="0" y="6">SKILL LEVEL</tspan></text><g clip-path="url(#clip4)"><g clip-path="url(#clip5)"><g clip-path="url(#clip6)"><path d="M1.84124 4.49999 2.99999 3.85949 4.15874 4.49999 3.93749 3.14324 4.87499 2.18249 3.57936 1.98449 2.99999 0.749998 2.42062 1.98449 1.125 2.18249 2.06249 3.14324Z" transform="matrix(1 0 -0 1.11112 212 83)"/><path d="M7.87498 5.62498 3.37499 5.62498 3.37499 5.24998C3.37499 5.04261 3.20699 4.87499 2.99999 4.87499 2.79299 4.87499 2.62499 5.04261 2.62499 5.24998L2.62499 5.62498 1.125 5.62498C0.917997 5.62498 0.749998 5.79261 0.749998 5.99998L0.749998 7.49998C0.749998 7.70735 0.917997 7.87498 1.125 7.87498L2.62499 7.87498C2.62499 8.08235 2.79299 8.24998 2.99999 8.24998 3.20699 8.24998 3.37499 8.08235 3.37499 7.87498L7.87498 7.87498C8.08235 7.87498 8.24998 7.70735 8.24998 7.49998L8.24998 5.99998C8.24998 5.79261 8.08235 5.62498 7.87498 5.62498ZM1.5 7.12498 1.5 6.37498 2.62499 6.37498 2.62499 7.12498 1.5 7.12498ZM7.49998 7.12498 3.37499 7.12498 3.37499 6.37498 7.49998 6.37498 7.49998 7.12498Z" transform="matrix(1 0 -0 1.11112 212 83)"/></g></g></g><path d="M212.5 169.5C212.5 168.948 212.948 168.5 213.5 168.5L247.5 168.5C248.052 168.5 248.5 168.948 248.5 169.5L248.5 173.5C248.5 174.052 248.052 174.5 247.5 174.5L213.5 174.5C212.948 174.5 212.5 174.052 212.5 173.5Z" stroke="#911EB4" stroke-width="1.33585" stroke-miterlimit="8" fill="#FFFFFF" fill-rule="evenodd"/><text font-family="Calibri,Calibri_MSFontService,sans-serif" font-weight="700" font-size="5" transform="translate(223.229 172)">CAPABILITY</text><g clip-path="url(#clip7)"><g clip-path="url(#clip8)"><g clip-path="url(#clip9)"><path d="M220.75 170.167 213.25 170.167C213.02 170.167 212.833 170.353 212.833 170.583L212.833 172.25C212.833 172.48 213.02 172.667 213.25 172.667L213.667 172.667 213.667 175.167C213.667 175.397 213.853 175.583 214.083 175.583L219.917 175.583C220.147 175.583 220.333 175.397 220.333 175.167L220.333 172.667 220.75 172.667C220.98 172.667 221.167 172.48 221.167 172.25L221.167 170.583C221.167 170.353 220.98 170.167 220.75 170.167ZM219.5 174.75 214.5 174.75 214.5 172.667 219.5 172.667 219.5 174.75ZM220.333 171.833 219.917 171.833 214.083 171.833 213.667 171.833 213.667 171 220.333 171 220.333 171.833Z"/><path d="M214.083 169.333 216.167 169.333C216.397 169.333 216.583 169.147 216.583 168.917L216.583 166.833C216.583 166.603 216.397 166.417 216.167 166.417L214.083 166.417C213.853 166.417 213.667 166.603 213.667 166.833L213.667 168.917C213.667 169.147 213.853 169.333 214.083 169.333ZM214.5 167.25 215.75 167.25 215.75 168.5 214.5 168.5 214.5 167.25Z"/><path d="M218.875 169.333C219.681 169.333 220.333 168.68 220.333 167.875 220.333 167.07 219.681 166.417 218.875 166.417 218.069 166.417 217.417 167.07 217.417 167.875 217.417 168.68 218.069 169.333 218.875 169.333ZM218.875 167.25C219.22 167.25 219.5 167.53 219.5 167.875 219.5 168.22 219.22 168.5 218.875 168.5 218.53 168.5 218.25 168.22 218.25 167.875 218.25 167.53 218.53 167.25 218.875 167.25Z"/></g></g></g><path d="M165.527 82 201.473 82C206.183 82 210 84.9101 210 88.5 210 92.0899 206.183 95 201.473 95L165.527 95C160.817 95 157 92.0899 157 88.5 157 84.9101 160.817 82 165.527 82Z" fill="#313131" fill-rule="evenodd"/><text fill="#FFFFFF" font-family="Calibri,Calibri_MSFontService,sans-serif" font-weight="700" font-size="5" transform="translate(176.84 90)">|Has&gt;</text><path d="M165.527 168 201.473 168C206.183 168 210 170.91 210 174.5 210 178.09 206.183 181 201.473 181L165.527 181C160.817 181 157 178.09 157 174.5 157 170.91 160.817 168 165.527 168Z" fill="#313131" fill-rule="evenodd"/><text fill="#FFFFFF" font-family="Calibri,Calibri_MSFontService,sans-serif" font-weight="700" font-size="5" transform="translate(166.153 176)">&lt;Supported by|</text><path d="M84 41 89.5 38 95 41Z" fill="#FFFFFF" fill-rule="evenodd"/><path d="M71.5001 30.6667C71.5001 29.47 72.4701 28.5 73.6668 28.5L99.3332 28.5C100.53 28.5 101.5 29.47 101.5 30.6667L101.5 39.3333C101.5 40.53 100.53 41.5 99.3332 41.5L73.6668 41.5C72.4701 41.5 71.5001 40.53 71.5001 39.3333Z" stroke="#CEB023" stroke-width="1.33585" stroke-miterlimit="8" fill="#FFFFFF" fill-rule="evenodd"/><text font-family="Calibri,Calibri_MSFontService,sans-serif" font-weight="700" font-size="5" transform="translate(83.3771 33)">SKILL<tspan x="0" y="6">FAMILY</tspan></text><g clip-path="url(#clip10)"><g clip-path="url(#clip11)"><g clip-path="url(#clip12)"><path d="M4.49999 2.99999 4.03649 3.98736 2.99999 4.14599 3.74999 4.91436 3.57299 5.99998 4.49999 5.48736 5.42736 5.99998 5.24998 4.91436 5.99998 4.14599 4.96349 3.98736Z" transform="matrix(1.11111 0 -0 1 72 30)"/><path d="M7.87498 2.99999C8.08235 2.99999 8.24998 2.83199 8.24998 2.62499L8.24998 1.125C8.24998 0.917997 8.08235 0.749998 7.87498 0.749998L6.37498 0.749998C6.16761 0.749998 5.99998 0.917997 5.99998 1.125L5.99998 1.5 2.99999 1.5 2.99999 1.125C2.99999 0.917997 2.83199 0.749998 2.62499 0.749998L1.125 0.749998C0.917997 0.749998 0.749998 0.917997 0.749998 1.125L0.749998 2.62499C0.749998 2.83199 0.917997 2.99999 1.125 2.99999L1.5 2.99999 1.5 5.99998 1.125 5.99998C0.917997 5.99998 0.749998 6.16761 0.749998 6.37498L0.749998 7.87498C0.749998 8.08235 0.917997 8.24998 1.125 8.24998L2.62499 8.24998C2.83199 8.24998 2.99999 8.08235 2.99999 7.87498L2.99999 7.49998 5.99998 7.49998 5.99998 7.87498C5.99998 8.08235 6.16761 8.24998 6.37498 8.24998L7.87498 8.24998C8.08235 8.24998 8.24998 8.08235 8.24998 7.87498L8.24998 6.37498C8.24998 6.16761 8.08235 5.99998 7.87498 5.99998L7.49998 5.99998 7.49998 2.99999 7.87498 2.99999ZM6.74998 1.5 7.49998 1.5 7.49998 2.24999 6.74998 2.24999 6.74998 1.5ZM1.5 1.5 2.24999 1.5 2.24999 2.24999 1.5 2.24999 1.5 1.5ZM2.24999 7.49998 1.5 7.49998 1.5 6.74998 2.24999 6.74998 2.24999 7.49998ZM7.49998 7.49998 6.74998 7.49998 6.74998 6.74998 7.49998 6.74998 7.49998 7.49998ZM6.74998 5.99998 6.37498 5.99998C6.16761 5.99998 5.99998 6.16761 5.99998 6.37498L5.99998 6.74998 2.99999 6.74998 2.99999 6.37498C2.99999 6.16761 2.83199 5.99998 2.62499 5.99998L2.24999 5.99998 2.24999 2.99999 2.62499 2.99999C2.83199 2.99999 2.99999 2.83199 2.99999 2.62499L2.99999 2.24999 5.99998 2.24999 5.99998 2.62499C5.99998 2.83199 6.16761 2.99999 6.37498 2.99999L6.74998 2.99999 6.74998 5.99998Z" transform="matrix(1.11111 0 -0 1 72 30)"/></g></g></g></g></svg>