<svg width="189" height="189" xmlns="http://www.w3.org/2000/svg" xmlns:xlink="http://www.w3.org/1999/xlink" overflow="hidden"><defs><clipPath id="clip0"><path d="M0 0 189 0 189 189 0 189Z" fill-rule="evenodd" clip-rule="evenodd"/></clipPath><clipPath id="clip1"><path d="M3 3 47 3 47 48 3 48Z" fill-rule="evenodd" clip-rule="evenodd"/></clipPath><clipPath id="clip2"><path d="M3 3 47 3 47 48 3 48Z" fill-rule="evenodd" clip-rule="evenodd"/></clipPath><clipPath id="clip3"><path d="M3 3 47 3 47 48 3 48Z" fill-rule="evenodd" clip-rule="evenodd"/></clipPath></defs><g clip-path="url(#clip0)"><rect x="0" y="0" width="189" height="189" fill="#313131"/><text fill="#FFFFFF" font-family="Calibri,Calibri_MSFontService,sans-serif" font-weight="300" font-size="11" transform="translate(9.60032 -5)">POLICY</text><rect x="3.50005" y="3.50005" width="1" height="1" stroke="#2F528F" stroke-width="1.33333" stroke-miterlimit="8" fill="#4472C4"/><rect x="0" y="0" width="189" height="189" stroke="#E6194B" stroke-width="8" stroke-miterlimit="8" fill="#FFFFFF"/><g clip-path="url(#clip1)"><g clip-path="url(#clip2)"><g clip-path="url(#clip3)"><path d="M18.3333 40.3333 3.66667 40.3333C2.65467 40.3333 1.83333 39.5138 1.83333 38.5L1.83333 1.83333C1.83333 0.821333 2.65467 0 3.66667 0L33 0C34.0138 0 34.8333 0.821333 34.8333 1.83333L34.8333 16.5C34.8333 17.512 34.0138 18.3333 33 18.3333 31.9862 18.3333 31.1667 17.512 31.1667 16.5L31.1667 3.66667 5.5 3.66667 5.5 36.6667 18.3333 36.6667C19.3472 36.6667 20.1667 37.4862 20.1667 38.5 20.1667 39.5138 19.3472 40.3333 18.3333 40.3333Z" transform="matrix(1 0 -0 1.02273 4.83333 4.875)"/><path d="M27.5 40.3333C26.9555 40.3333 26.4403 40.0913 26.0883 39.6752L16.9217 28.6752C16.5147 28.1857 16.39 27.5257 16.5898 26.9207L18.4232 21.4207C18.678 20.6708 19.3765 20.1667 20.1667 20.1667L34.8333 20.1667C35.6253 20.1667 36.322 20.6708 36.5713 21.4207L38.4047 26.9207C38.6063 27.5257 38.4817 28.1857 38.0728 28.6752L28.9062 39.6752C28.5597 40.0913 28.0445 40.3333 27.5 40.3333ZM20.3958 27.1113 27.5 35.6363 34.6042 27.115 33.5115 23.8333 21.4867 23.8333 20.3958 27.1113Z" transform="matrix(1 0 -0 1.02273 4.83333 4.875)"/><path d="M25.6667 12.8333 11 12.8333C9.988 12.8333 9.16667 12.012 9.16667 11 9.16667 9.988 9.988 9.16667 11 9.16667L25.6667 9.16667C26.6805 9.16667 27.5 9.988 27.5 11 27.5 12.012 26.6805 12.8333 25.6667 12.8333Z" transform="matrix(1 0 -0 1.02273 4.83333 4.875)"/><path d="M16.5 20.1667 11 20.1667C9.988 20.1667 9.16667 19.3453 9.16667 18.3333 9.16667 17.3213 9.988 16.5 11 16.5L16.5 16.5C17.5138 16.5 18.3333 17.3213 18.3333 18.3333 18.3333 19.3453 17.5138 20.1667 16.5 20.1667Z" transform="matrix(1 0 -0 1.02273 4.83333 4.875)"/><path d="M12.8333 27.5 11 27.5C9.988 27.5 9.16667 26.6805 9.16667 25.6667 9.16667 24.6528 9.988 23.8333 11 23.8333L12.8187 23.8333C13.8307 23.8333 14.6593 24.6528 14.6593 25.6667 14.6593 26.6805 13.8453 27.5 12.8333 27.5Z" transform="matrix(1 0 -0 1.02273 4.83333 4.875)"/></g></g></g><text font-family="Calibri,Calibri_MSFontService,sans-serif" font-weight="700" font-size="20" transform="translate(87.2115 23)">POLICY<tspan font-weight="400" font-size="12" x="-80.6725" y="86">A </tspan><tspan font-size="12" x="-71.0058" y="86">Policy</tspan><tspan font-weight="400" font-size="12" x="-38.8392" y="86">is a non</tspan><tspan font-weight="400" font-size="12" x="-1.33916" y="86">-</tspan><tspan font-weight="400" font-size="12" x="2.32751" y="86">actionable </tspan><tspan font-weight="400" font-size="12" x="-80.6725" y="101">directive whose purpose is to </tspan><tspan font-weight="400" font-size="12" x="-80.6725" y="115">govern or guide </tspan><tspan font-size="12" x="-1.00582" y="115">Courses of Action</tspan><tspan font-weight="400" font-size="12" x="86.4942" y="115">.</tspan></text></g></svg>