<svg width="265" height="265" xmlns="http://www.w3.org/2000/svg" xmlns:xlink="http://www.w3.org/1999/xlink" overflow="hidden"><defs><clipPath id="clip0"><path d="M0 0 265 0 265 265 0 265Z" fill-rule="evenodd" clip-rule="evenodd"/></clipPath><clipPath id="clip1"><path d="M35 51 55 51 55 71 35 71Z" fill-rule="evenodd" clip-rule="evenodd"/></clipPath><clipPath id="clip2"><path d="M35 51 55 51 55 71 35 71Z" fill-rule="evenodd" clip-rule="evenodd"/></clipPath><clipPath id="clip3"><path d="M35 51 55 51 55 71 35 71Z" fill-rule="evenodd" clip-rule="evenodd"/></clipPath><clipPath id="clip4"><path d="M207 49 216 49 216 60 207 60Z" fill-rule="evenodd" clip-rule="evenodd"/></clipPath><clipPath id="clip5"><path d="M207 49 216 49 216 60 207 60Z" fill-rule="evenodd" clip-rule="evenodd"/></clipPath><clipPath id="clip6"><path d="M207 49 216 49 216 60 207 60Z" fill-rule="evenodd" clip-rule="evenodd"/></clipPath><clipPath id="clip7"><path d="M218 99 228 99 228 108 218 108Z" fill-rule="evenodd" clip-rule="evenodd"/></clipPath><clipPath id="clip8"><path d="M218 99 228 99 228 108 218 108Z" fill-rule="evenodd" clip-rule="evenodd"/></clipPath><clipPath id="clip9"><path d="M218 99 228 99 228 108 218 108Z" fill-rule="evenodd" clip-rule="evenodd"/></clipPath><clipPath id="clip10"><path d="M212 148 223 148 223 160 212 160Z" fill-rule="evenodd" clip-rule="evenodd"/></clipPath><clipPath id="clip11"><path d="M212 148 223 148 223 160 212 160Z" fill-rule="evenodd" clip-rule="evenodd"/></clipPath><clipPath id="clip12"><path d="M212 148 223 148 223 160 212 160Z" fill-rule="evenodd" clip-rule="evenodd"/></clipPath><clipPath id="clip13"><path d="M214 200 225 200 225 211 214 211Z" fill-rule="evenodd" clip-rule="evenodd"/></clipPath><clipPath id="clip14"><path d="M214 200 225 200 225 211 214 211Z" fill-rule="evenodd" clip-rule="evenodd"/></clipPath><clipPath id="clip15"><path d="M214 200 225 200 225 211 214 211Z" fill-rule="evenodd" clip-rule="evenodd"/></clipPath></defs><g clip-path="url(#clip0)"><rect x="0" y="0" width="265" height="265" fill="#313131"/><rect x="89.5" y="131.5" width="1.99999" height="1" stroke="#2F528F" stroke-width="1.33585" stroke-miterlimit="8" fill="#4472C4"/><path d="M23.5 9.75271C23.5 8.50859 24.5085 7.50003 25.7527 7.50003L249.247 7.50003C250.491 7.50003 251.5 8.50859 251.5 9.75271L251.5 249.247C251.5 250.491 250.491 251.5 249.247 251.5L25.7527 251.5C24.5085 251.5 23.5 250.491 23.5 249.247Z" stroke="#FF0000" stroke-width="0.667927" stroke-miterlimit="8" stroke-opacity="0" fill="none" fill-rule="evenodd"/><path d="M30.0794 43.5 149.921 43.5C153.002 43.5 155.5 45.998 155.5 49.0794L155.5 214.252C155.5 216.598 153.598 218.5 151.252 218.5L28.7483 218.5C26.402 218.5 24.5 216.598 24.5 214.252L24.5 49.0794C24.5 45.998 26.998 43.5 30.0794 43.5Z" stroke="#FABEBE" stroke-width="4.67549" stroke-miterlimit="8" fill="#FFFFFF" fill-rule="evenodd"/><g clip-path="url(#clip1)"><g clip-path="url(#clip2)"><g clip-path="url(#clip3)"><path d="M50.0322 55.9583 49.2421 55.9583C49.2421 55.0851 48.532 54.375 47.6588 54.375L46.8687 54.375C46.8687 53.5017 46.1594 52.7916 45.2862 52.7916L44.4953 52.7916C43.6221 52.7916 42.9127 53.5017 42.9127 54.375L42.1226 54.375C41.2502 54.375 40.5401 55.0851 40.5401 55.9583L40.5401 58.3333 39.7492 58.3333C38.8768 58.3333 38.1667 59.0434 38.1667 59.9166L38.1667 64.6666C38.1667 64.825 38.2142 64.9722 38.2957 65.0957L39.8308 68.2094C39.9638 68.4801 40.2393 68.6511 40.5409 68.6511L49.2421 68.6511C49.543 68.6511 49.8177 68.4801 49.9515 68.211L51.5435 65.0015C51.6148 64.8582 51.6377 64.6991 51.6171 64.5463L51.6171 57.5416C51.614 56.6684 50.9054 55.9583 50.0322 55.9583ZM50.0306 64.4846 48.7505 67.0678 41.0325 67.0678 39.75 64.4656 39.7492 59.9166 40.5401 59.9166 40.5401 63.0833C40.5401 63.5211 40.8948 63.875 41.3318 63.875 41.7688 63.875 42.1234 63.5211 42.1234 63.0833L42.1234 55.9583 42.9135 55.9583 42.9135 60.7083C42.9135 61.1453 43.2674 61.5 43.7052 61.5 44.143 61.5 44.4969 61.1453 44.4969 60.7083L44.4969 54.375 45.2862 54.375 45.2862 55.9583 45.2862 60.7083C45.2862 61.1453 45.6392 61.5 46.0778 61.5 46.5156 61.5 46.8695 61.1453 46.8695 60.7083L46.8695 55.9583 47.6596 55.9583 47.6596 57.5416 47.6596 60.7083C47.6596 61.1453 48.0127 61.5 48.4512 61.5 48.889 61.5 49.2429 61.1453 49.2429 60.7083L49.2429 57.5416 50.0322 57.5416 50.0322 64.4846 50.0306 64.4846Z"/><path d="M50.0322 69.4167 39.7492 69.4167C39.3122 69.4167 38.9576 69.7705 38.9576 70.2083 38.9576 70.6461 39.3122 71 39.7492 71L50.0322 71C50.47 71 50.8239 70.6461 50.8239 70.2083 50.8239 69.7705 50.47 69.4167 50.0322 69.4167Z"/></g></g></g><path d="M26.9702 6.36947C18.5628 6.36947 11.7473 10.3112 11.7473 15.1736L11.7473 248.948C11.7473 253.81 18.5628 257.752 26.9702 257.752L238.08 257.752C246.487 257.752 253.302 253.81 253.302 248.948L253.302 15.1736C253.302 10.3112 246.487 6.36947 238.08 6.36947ZM0 0 265 0 265 265 0 265Z" fill="#FABEBE" fill-rule="evenodd"/><text font-family="Calibri,Calibri_MSFontService,sans-serif" font-weight="700" font-size="11" transform="translate(86.8202 63)">NEED<tspan font-weight="400" font-size="9" x="-55.5299" y="74">A </tspan><tspan font-size="9" x="-48.0157" y="74">Need</tspan><tspan font-weight="400" font-size="9" x="-25.3062" y="74">is a request </tspan><tspan font-weight="400" font-size="9" x="-55.5299" y="85">formulated by a party so that </tspan><tspan font-weight="400" font-size="9" x="-55.5299" y="96">it can enjoy new </tspan><tspan font-size="9" x="8.92508" y="96">Benefits</tspan><tspan font-weight="400" font-size="9" x="40.6516" y="96">.</tspan></text><path d="M206.5 50.5001C206.5 49.3955 207.395 48.5 208.5 48.5L246.5 48.5C247.605 48.5 248.5 49.3955 248.5 50.5001L248.5 58.5C248.5 59.6046 247.605 60.5 246.5 60.5L208.5 60.5C207.395 60.5 206.5 59.6046 206.5 58.5Z" stroke="#F032E6" stroke-width="1.33585" stroke-miterlimit="8" fill="#FFFFFF" fill-rule="evenodd"/><text font-family="Calibri,Calibri_MSFontService,sans-serif" font-weight="700" font-size="5" transform="translate(218.151 53)">VALUE<tspan x="0" y="6">PROPOSITION</tspan></text><g clip-path="url(#clip4)"><g clip-path="url(#clip5)"><g clip-path="url(#clip6)"><path d="M7.87498 3.74999 1.125 3.74999C0.917997 3.74999 0.749998 3.91799 0.749998 4.12499L0.749998 5.62498C0.749998 5.83236 0.917997 5.99998 1.125 5.99998L1.5 5.99998 1.5 8.24998C1.5 8.45735 1.668 8.62497 1.87499 8.62497L7.12498 8.62497C7.33235 8.62497 7.49998 8.45735 7.49998 8.24998L7.49998 5.99998 7.87498 5.99998C8.08235 5.99998 8.24998 5.83236 8.24998 5.62498L8.24998 4.12499C8.24998 3.91799 8.08235 3.74999 7.87498 3.74999ZM6.74998 7.87498 2.24999 7.87498 2.24999 5.99998 6.74998 5.99998 6.74998 7.87498ZM7.49998 5.24998 7.12498 5.24998 1.87499 5.24998 1.5 5.24998 1.5 4.49999 7.49998 4.49999 7.49998 5.24998Z" transform="matrix(1 0 -0 1.00001 207 50)"/><path d="M4.22286 3.25987C4.29899 3.33637 4.39949 3.37499 4.49999 3.37499 4.60011 3.37499 4.70024 3.33637 4.77674 3.25987L5.88486 2.15024C6.03786 1.99649 6.03786 1.74862 5.88486 1.59525L4.77674 0.485249C4.62974 0.337874 4.36986 0.337874 4.22286 0.485249L3.11474 1.59525C2.96137 1.74862 2.96137 1.99649 3.11474 2.15024L4.22286 3.25987ZM4.49999 1.31812 5.05423 1.87274 4.49999 2.42774 3.94574 1.87274 4.49999 1.31812Z" transform="matrix(1 0 -0 1.00001 207 50)"/></g></g></g><path d="M218.5 101.5C218.5 100.948 218.948 100.5 219.5 100.5L247.5 100.5C248.052 100.5 248.5 100.948 248.5 101.5L248.5 105.5C248.5 106.052 248.052 106.5 247.5 106.5L219.5 106.5C218.948 106.5 218.5 106.052 218.5 105.5Z" stroke="#FABEBE" stroke-width="1.33585" stroke-miterlimit="8" fill="#FFFFFF" fill-rule="evenodd"/><text font-family="Calibri,Calibri_MSFontService,sans-serif" font-weight="700" font-size="5" transform="translate(229.582 104)">BENEFIT</text><g clip-path="url(#clip7)"><g clip-path="url(#clip8)"><g clip-path="url(#clip9)"><path d="M221.062 105.938C221.158 105.938 221.254 105.901 221.328 105.828L225.937 101.218 225.937 101.904C225.937 102.111 226.105 102.279 226.312 102.279 226.52 102.279 226.687 102.111 226.687 101.904L226.687 100.313C226.687 100.264 226.678 100.215 226.659 100.169 226.62 100.077 226.548 100.005 226.456 99.9664 226.41 99.9473 226.361 99.9375 226.312 99.9375L224.721 99.9375C224.514 99.9375 224.346 100.106 224.346 100.313 224.346 100.52 224.514 100.688 224.721 100.688L225.407 100.688 220.797 105.297C220.651 105.444 220.651 105.681 220.797 105.828 220.87 105.901 220.966 105.938 221.062 105.938Z"/><path d="M227.25 106.5 220.125 106.5 220.125 99.75C220.125 99.543 219.957 99.375 219.75 99.375 219.543 99.375 219.375 99.543 219.375 99.75L219.375 106.875C219.375 107.082 219.543 107.25 219.75 107.25L227.25 107.25C227.457 107.25 227.625 107.082 227.625 106.875 227.625 106.668 227.457 106.5 227.25 106.5Z"/></g></g></g><path d="M212.5 152.5C212.5 151.948 212.948 151.5 213.5 151.5L247.5 151.5C248.052 151.5 248.5 151.948 248.5 152.5L248.5 156.5C248.5 157.052 248.052 157.5 247.5 157.5L213.5 157.5C212.948 157.5 212.5 157.052 212.5 156.5Z" stroke="#FABEBE" stroke-width="1.33585" stroke-miterlimit="8" fill="#FFFFFF" fill-rule="evenodd"/><text font-family="Calibri,Calibri_MSFontService,sans-serif" font-weight="700" font-size="5" transform="translate(224.08 155)">PAINPOINT</text><g clip-path="url(#clip10)"><g clip-path="url(#clip11)"><g clip-path="url(#clip12)"><path d="M4.58332 9.58331C4.58332 9.58331 4.5829 9.58331 4.58249 9.58331 4.44332 9.58289 4.31374 9.51372 4.23665 9.39789 4.11457 9.21497 1.25 4.89832 1.25 2.84707 1.25 0.864581 2.55833-0.416665 4.58332-0.416665 6.63956-0.416665 7.91664 0.833748 7.91664 2.84707 7.91664 4.93207 5.05124 9.21789 4.92915 9.39872 4.85165 9.51414 4.72207 9.58331 4.58332 9.58331ZM4.58332 0.416665C3.83166 0.416665 2.08333 0.653331 2.08333 2.84707 2.08333 4.15624 3.66124 6.93498 4.58457 8.40081 5.5079 6.94373 7.08331 4.17915 7.08331 2.84707 7.08331 0.653331 5.33498 0.416665 4.58332 0.416665Z" transform="matrix(1 0 -0 1.00001 213.417 149.417)"/><path d="M4.99999 5.41665C4.99999 5.64677 4.81344 5.83332 4.58332 5.83332 4.3532 5.83332 4.16665 5.64677 4.16665 5.41665 4.16665 5.18653 4.3532 4.99999 4.58332 4.99999 4.81344 4.99999 4.99999 5.18653 4.99999 5.41665Z" transform="matrix(1 0 -0 1.00001 213.417 149.417)"/><path d="M4.5854 4.58332C4.3554 4.58332 4.16915 4.39707 4.16874 4.16707L4.16665 1.66708C4.16665 1.43708 4.3529 1.25 4.5829 1.25 4.58332 1.25 4.58332 1.25 4.58332 1.25 4.81332 1.25 4.99999 1.43625 4.99999 1.66625L5.00207 4.16624C5.00207 4.39624 4.81582 4.58332 4.5854 4.58332 4.58582 4.58332 4.58582 4.58332 4.5854 4.58332Z" transform="matrix(1 0 -0 1.00001 213.417 149.417)"/></g></g></g><path d="M214.5 202.667C214.5 202.022 215.022 201.5 215.667 201.5L247.333 201.5C247.978 201.5 248.5 202.022 248.5 202.667L248.5 207.333C248.5 207.978 247.978 208.5 247.333 208.5L215.667 208.5C215.022 208.5 214.5 207.978 214.5 207.333Z" stroke="#FABEBE" stroke-width="1.33585" stroke-miterlimit="8" fill="#FFFFFF" fill-rule="evenodd"/><text font-family="Calibri,Calibri_MSFontService,sans-serif" font-weight="700" font-size="5" transform="translate(225.953 206)">SCENARIO</text><g clip-path="url(#clip13)"><g clip-path="url(#clip14)"><g clip-path="url(#clip15)"><path d="M224.583 201.25 224.167 201.25 224.167 200.833C224.167 200.603 223.98 200.417 223.75 200.417L216.25 200.417C216.02 200.417 215.833 200.603 215.833 200.833L215.833 201.25 215.417 201.25C215.187 201.25 215 201.437 215 201.667 215 201.897 215.187 202.083 215.417 202.083L215.833 202.083 215.833 202.5C215.833 202.73 216.02 202.917 216.25 202.917L216.667 202.917 216.667 209.167C216.667 209.397 216.853 209.583 217.083 209.583L222.917 209.583C223.147 209.583 223.333 209.397 223.333 209.167L223.333 202.917 223.75 202.917C223.98 202.917 224.167 202.73 224.167 202.5L224.167 202.083 224.583 202.083C224.814 202.083 225 201.897 225 201.667 225 201.437 224.814 201.25 224.583 201.25ZM222.5 208.75 217.5 208.75 217.5 202.917 222.5 202.917 222.5 208.75ZM223.333 202.083 222.917 202.083 217.083 202.083 216.667 202.083 216.667 201.25 223.333 201.25 223.333 202.083Z"/><path d="M218.75 204.583 221.25 204.583C221.48 204.583 221.667 204.397 221.667 204.167 221.667 203.937 221.48 203.75 221.25 203.75L218.75 203.75C218.52 203.75 218.333 203.937 218.333 204.167 218.333 204.397 218.52 204.583 218.75 204.583Z"/><path d="M218.75 206.25 220.417 206.25C220.647 206.25 220.833 206.064 220.833 205.833 220.833 205.603 220.647 205.417 220.417 205.417L218.75 205.417C218.52 205.417 218.333 205.603 218.333 205.833 218.333 206.064 218.52 206.25 218.75 206.25Z"/><path d="M218.75 207.917 221.25 207.917C221.48 207.917 221.667 207.73 221.667 207.5 221.667 207.27 221.48 207.083 221.25 207.083L218.75 207.083C218.52 207.083 218.333 207.27 218.333 207.5 218.333 207.73 218.52 207.917 218.75 207.917Z"/></g></g></g><path d="M166.492 100 206.508 100C211.75 100 216 102.91 216 106.5 216 110.09 211.75 113 206.508 113L166.492 113C161.25 113 157 110.09 157 106.5 157 102.91 161.25 100 166.492 100Z" fill="#313131" fill-rule="evenodd"/><text fill="#FFFFFF" font-family="Calibri,Calibri_MSFontService,sans-serif" font-weight="700" font-size="5" transform="translate(175.337 109)">&lt;Delivers|</text><path d="M165.687 151 202.313 151C207.11 151 211 153.91 211 157.5 211 161.09 207.11 164 202.313 164L165.687 164C160.889 164 157 161.09 157 157.5 157 153.91 160.889 151 165.687 151Z" fill="#313131" fill-rule="evenodd"/><text fill="#FFFFFF" font-family="Calibri,Calibri_MSFontService,sans-serif" font-weight="700" font-size="5" transform="translate(163.732 159)">&lt;Consolidated To|</text><path d="M164.561 48 196.439 48C200.615 48 204 50.9101 204 54.5 204 58.0899 200.615 61 196.439 61L164.561 61C160.385 61 157 58.0899 157 54.5 157 50.9101 160.385 48 164.561 48Z" fill="#313131" fill-rule="evenodd"/><text fill="#FFFFFF" font-family="Calibri,Calibri_MSFontService,sans-serif" font-weight="700" font-size="5" transform="translate(169.576 56)">|Need of&gt;</text><path d="M166.17 201 204.83 201C209.894 201 214 204.134 214 208 214 211.866 209.894 215 204.83 215L166.17 215C161.106 215 157 211.866 157 208 157 204.134 161.106 201 166.17 201Z" fill="#313131" fill-rule="evenodd"/><text fill="#FFFFFF" font-family="Calibri,Calibri_MSFontService,sans-serif" font-weight="700" font-size="5" transform="translate(174.419 210)">&lt;Related|</text></g></svg>