<svg width="189" height="189" xmlns="http://www.w3.org/2000/svg" xmlns:xlink="http://www.w3.org/1999/xlink" overflow="hidden"><defs><clipPath id="clip0"><path d="M0 0 189 0 189 189 0 189Z" fill-rule="evenodd" clip-rule="evenodd"/></clipPath><clipPath id="clip1"><path d="M3 3 47 3 47 48 3 48Z" fill-rule="evenodd" clip-rule="evenodd"/></clipPath><clipPath id="clip2"><path d="M3 3 47 3 47 48 3 48Z" fill-rule="evenodd" clip-rule="evenodd"/></clipPath><clipPath id="clip3"><path d="M3 3 47 3 47 48 3 48Z" fill-rule="evenodd" clip-rule="evenodd"/></clipPath></defs><g clip-path="url(#clip0)"><rect x="0" y="0" width="189" height="189" fill="#313131"/><text fill="#FFFFFF" font-family="Calibri,Calibri_MSFontService,sans-serif" font-weight="300" font-size="11" transform="translate(9.60032 -5)">APPLICATION</text><rect x="3.50005" y="3.50005" width="1" height="1" stroke="#2F528F" stroke-width="1.33333" stroke-miterlimit="8" fill="#4472C4"/><rect x="0" y="0" width="189" height="189" stroke="#B74D41" stroke-width="8" stroke-miterlimit="8" fill="#FFFFFF"/><g clip-path="url(#clip1)"><g clip-path="url(#clip2)"><g clip-path="url(#clip3)"><path d="M22.3447 31.5352C21.8753 31.5352 21.406 31.3555 21.0485 30.998L18.5295 28.4808 15.5173 28.4808C14.5053 28.4808 13.684 27.6613 13.684 26.6475L13.684 23.6353 11.8818 21.8313C11.1668 21.1145 11.1668 19.9558 11.8818 19.239L13.684 17.4368 13.684 13.684C13.684 12.672 14.5053 11.8507 15.5173 11.8507L19.2702 11.8507 21.0485 10.0723C21.7653 9.3555 22.924 9.3555 23.6408 10.0723L25.421 11.8507 28.4827 11.8507C29.4965 11.8507 30.316 12.672 30.316 13.684L30.316 16.7457 32.8075 19.239C33.1522 19.5837 33.3447 20.0493 33.3447 20.5352 33.3447 21.021 33.154 21.4885 32.8075 21.8332L30.316 24.3228 30.316 26.6475C30.316 27.6613 29.4965 28.4808 28.4827 28.4808L26.158 28.4808 23.6408 30.998C23.2833 31.3573 22.814 31.5352 22.3447 31.5352ZM17.3507 24.8142 19.2885 24.8142C19.7743 24.8142 20.2418 25.0067 20.5847 25.3513L22.3447 27.1095 24.101 25.3513C24.4457 25.0067 24.9095 24.8142 25.3972 24.8142L26.6475 24.8142 26.6475 23.5638C26.6475 23.0762 26.84 22.6105 27.1847 22.2677L28.9172 20.5352 27.1847 18.8008C26.84 18.4562 26.6475 17.9905 26.6475 17.5047L26.6475 15.5173 24.6602 15.5173C24.1725 15.5173 23.7068 15.3248 23.364 14.9802L22.3447 13.9608 21.3253 14.9802C20.9807 15.3248 20.5168 15.5173 20.0292 15.5173L17.3507 15.5173 17.3507 18.1958C17.3507 18.6817 17.1582 19.1492 16.8135 19.492L15.7703 20.537 16.8153 21.5802C17.1582 21.9248 17.3507 22.3905 17.3507 22.8763L17.3507 24.8142Z" transform="matrix(1 0 -0 1.02273 3 4.875)"/><path d="M36.6667 31.1667C35.6528 31.1667 34.8333 30.3472 34.8333 29.3333L34.8333 5.5 9.16667 5.5 9.16667 29.3333C9.16667 30.3472 8.34533 31.1667 7.33333 31.1667 6.32133 31.1667 5.5 30.3472 5.5 29.3333L5.5 3.66667C5.5 2.65467 6.32133 1.83333 7.33333 1.83333L36.6667 1.83333C37.6805 1.83333 38.5 2.65467 38.5 3.66667L38.5 29.3333C38.5 30.3472 37.6805 31.1667 36.6667 31.1667Z" transform="matrix(1 0 -0 1.02273 3 4.875)"/><path d="M12.8333 34.8333 16.5 34.8333 16.5 38.5 12.8333 38.5Z" transform="matrix(1 0 -0 1.02273 3 4.875)"/><path d="M20.1667 34.8333 23.8333 34.8333 23.8333 38.5 20.1667 38.5Z" transform="matrix(1 0 -0 1.02273 3 4.875)"/><path d="M27.5 34.8333 31.1667 34.8333 31.1667 38.5 27.5 38.5Z" transform="matrix(1 0 -0 1.02273 3 4.875)"/><path d="M34.8333 34.8333 38.5 34.8333 38.5 38.5 34.8333 38.5Z" transform="matrix(1 0 -0 1.02273 3 4.875)"/><path d="M5.5 34.8333 9.16667 34.8333 9.16667 38.5 5.5 38.5Z" transform="matrix(1 0 -0 1.02273 3 4.875)"/><path d="M23.7032 20.0365C23.7032 21.049 22.8824 21.8698 21.8698 21.8698 20.8573 21.8698 20.0365 21.049 20.0365 20.0365 20.0365 19.024 20.8573 18.2032 21.8698 18.2032 22.8824 18.2032 23.7032 19.024 23.7032 20.0365Z" transform="matrix(1 0 -0 1.02273 3 4.875)"/></g></g></g><text font-family="Calibri,Calibri_MSFontService,sans-serif" font-weight="700" font-size="20" transform="translate(61.4915 23)">APPLICATION<tspan font-weight="400" font-size="12" x="-54.9525" y="50">An </tspan><tspan font-size="12" x="-38.9525" y="50">Application</tspan><tspan font-weight="400" font-size="12" x="21.2142" y="50">is an abstract </tspan><tspan font-weight="400" font-size="12" x="-54.9525" y="65">(logical) technology item that is </tspan><tspan font-weight="400" font-size="12" x="-54.9525" y="79">used during the course of an </tspan><tspan font-weight="400" font-size="12" x="-54.9525" y="93">organisation's operations. </tspan><tspan font-size="12" x="-54.9525" y="108">Applications</tspan><tspan font-weight="400" font-size="12" x="10.0475" y="108">are identified and </tspan><tspan font-weight="400" font-size="12" x="-54.9525" y="122">described from a business </tspan><tspan font-weight="400" font-size="12" x="-54.9525" y="137">perspective (functional) often in </tspan><tspan font-weight="400" font-size="12" x="-54.9525" y="151">terms of their purpose or usage. </tspan></text></g></svg>