<svg width="265" height="265" xmlns="http://www.w3.org/2000/svg" xmlns:xlink="http://www.w3.org/1999/xlink" overflow="hidden"><defs><clipPath id="clip0"><path d="M0 0 265 0 265 265 0 265Z" fill-rule="evenodd" clip-rule="evenodd"/></clipPath><clipPath id="clip1"><path d="M35 51 55 51 55 71 35 71Z" fill-rule="evenodd" clip-rule="evenodd"/></clipPath><clipPath id="clip2"><path d="M35 51 55 51 55 71 35 71Z" fill-rule="evenodd" clip-rule="evenodd"/></clipPath><clipPath id="clip3"><path d="M35 51 55 51 55 71 35 71Z" fill-rule="evenodd" clip-rule="evenodd"/></clipPath><clipPath id="clip4"><path d="M213 29 223 29 223 38 213 38Z" fill-rule="evenodd" clip-rule="evenodd"/></clipPath><clipPath id="clip5"><path d="M213 29 223 29 223 38 213 38Z" fill-rule="evenodd" clip-rule="evenodd"/></clipPath><clipPath id="clip6"><path d="M213 29 223 29 223 38 213 38Z" fill-rule="evenodd" clip-rule="evenodd"/></clipPath><clipPath id="clip7"><path d="M204 62 213 62 213 72 204 72Z" fill-rule="evenodd" clip-rule="evenodd"/></clipPath><clipPath id="clip8"><path d="M204 62 213 62 213 72 204 72Z" fill-rule="evenodd" clip-rule="evenodd"/></clipPath><clipPath id="clip9"><path d="M204 62 213 62 213 72 204 72Z" fill-rule="evenodd" clip-rule="evenodd"/></clipPath><clipPath id="clip10"><path d="M219 92 229 92 229 103 219 103Z" fill-rule="evenodd" clip-rule="evenodd"/></clipPath><clipPath id="clip11"><path d="M219 92 229 92 229 103 219 103Z" fill-rule="evenodd" clip-rule="evenodd"/></clipPath><clipPath id="clip12"><path d="M219 92 229 92 229 103 219 103Z" fill-rule="evenodd" clip-rule="evenodd"/></clipPath><clipPath id="clip13"><path d="M214 124 224 124 224 134 214 134Z" fill-rule="evenodd" clip-rule="evenodd"/></clipPath><clipPath id="clip14"><path d="M214 124 224 124 224 134 214 134Z" fill-rule="evenodd" clip-rule="evenodd"/></clipPath><clipPath id="clip15"><path d="M214 124 224 124 224 134 214 134Z" fill-rule="evenodd" clip-rule="evenodd"/></clipPath><clipPath id="clip16"><path d="M213 155 224 155 224 166 213 166Z" fill-rule="evenodd" clip-rule="evenodd"/></clipPath><clipPath id="clip17"><path d="M213 155 224 155 224 166 213 166Z" fill-rule="evenodd" clip-rule="evenodd"/></clipPath><clipPath id="clip18"><path d="M213 155 224 155 224 166 213 166Z" fill-rule="evenodd" clip-rule="evenodd"/></clipPath><clipPath id="clip19"><path d="M217 186 227 186 227 198 217 198Z" fill-rule="evenodd" clip-rule="evenodd"/></clipPath><clipPath id="clip20"><path d="M217 186 227 186 227 198 217 198Z" fill-rule="evenodd" clip-rule="evenodd"/></clipPath><clipPath id="clip21"><path d="M217 186 227 186 227 198 217 198Z" fill-rule="evenodd" clip-rule="evenodd"/></clipPath><clipPath id="clip22"><path d="M216 220 227 220 227 231 216 231Z" fill-rule="evenodd" clip-rule="evenodd"/></clipPath><clipPath id="clip23"><path d="M216 220 227 220 227 231 216 231Z" fill-rule="evenodd" clip-rule="evenodd"/></clipPath><clipPath id="clip24"><path d="M216 220 227 220 227 231 216 231Z" fill-rule="evenodd" clip-rule="evenodd"/></clipPath></defs><g clip-path="url(#clip0)"><rect x="0" y="0" width="265" height="265" fill="#313131"/><rect x="89.5" y="131.5" width="1.99999" height="1" stroke="#2F528F" stroke-width="1.33585" stroke-miterlimit="8" fill="#4472C4"/><path d="M23.5 9.75271C23.5 8.50859 24.5085 7.50003 25.7527 7.50003L249.247 7.50003C250.491 7.50003 251.5 8.50859 251.5 9.75271L251.5 249.247C251.5 250.491 250.491 251.5 249.247 251.5L25.7527 251.5C24.5085 251.5 23.5 250.491 23.5 249.247Z" stroke="#FF0000" stroke-width="0.667927" stroke-miterlimit="8" stroke-opacity="0" fill="none" fill-rule="evenodd"/><path d="M30.0794 43.5 149.921 43.5C153.002 43.5 155.5 45.998 155.5 49.0794L155.5 214.252C155.5 216.598 153.598 218.5 151.252 218.5L28.7483 218.5C26.402 218.5 24.5 216.598 24.5 214.252L24.5 49.0794C24.5 45.998 26.998 43.5 30.0794 43.5Z" stroke="#CEB023" stroke-width="4.67549" stroke-miterlimit="8" fill="#FFFFFF" fill-rule="evenodd"/><g clip-path="url(#clip1)"><g clip-path="url(#clip2)"><g clip-path="url(#clip3)"><path d="M44.5 60.7083C42.2834 60.7083 40.5417 58.9666 40.5417 56.75 40.5417 54.5333 42.2834 52.7916 44.5 52.7916 46.7167 52.7916 48.4584 54.5333 48.4584 56.75 48.4584 58.9666 46.7167 60.7083 44.5 60.7083ZM44.5 54.375C43.1542 54.375 42.125 55.4041 42.125 56.75 42.125 58.0958 43.1542 59.125 44.5 59.125 45.8459 59.125 46.875 58.0958 46.875 56.75 46.875 55.4041 45.8459 54.375 44.5 54.375Z"/><path d="M50.0417 70.2083C49.5667 70.2083 49.25 69.8917 49.25 69.4167L49.25 66.25C49.25 64.9042 48.2209 63.875 46.875 63.875L42.125 63.875C40.7792 63.875 39.75 64.9042 39.75 66.25L39.75 69.4167C39.75 69.8917 39.4333 70.2083 38.9583 70.2083 38.4833 70.2083 38.1667 69.8917 38.1667 69.4167L38.1667 66.25C38.1667 64.0333 39.9083 62.2916 42.125 62.2916L46.875 62.2916C49.0917 62.2916 50.8334 64.0333 50.8334 66.25L50.8334 69.4167C50.8334 69.8917 50.5167 70.2083 50.0417 70.2083Z"/></g></g></g><path d="M26.9702 6.36947C18.5628 6.36947 11.7473 10.3112 11.7473 15.1736L11.7473 248.948C11.7473 253.81 18.5628 257.752 26.9702 257.752L238.08 257.752C246.487 257.752 253.302 253.81 253.302 248.948L253.302 15.1736C253.302 10.3112 246.487 6.36947 238.08 6.36947ZM0 0 265 0 265 265 0 265Z" fill="#CEB023" fill-rule="evenodd"/><text font-family="Calibri,Calibri_MSFontService,sans-serif" font-weight="700" font-size="11" transform="translate(87.2377 63)">USER<tspan font-size="9" x="-55.9473" y="46">User</tspan><tspan font-weight="400" font-size="9" x="-35.9095" y="46">is defined in relation to a </tspan><tspan font-weight="400" font-size="9" x="-55.9473" y="57">Jalapeno application user </tspan><tspan font-weight="400" font-size="9" x="-55.9473" y="68">credentials (with its login </tspan><tspan font-weight="400" font-size="9" x="-55.9473" y="79">name and related password). </tspan><tspan font-weight="400" font-size="9" x="-55.9473" y="91">It allows a subscription to </tspan><tspan font-weight="400" font-size="9" x="-55.9473" y="102">content relevant to </tspan><tspan font-size="9" x="20.0293" y="102">User</tspan><tspan font-weight="400" font-size="9" x="40.0671" y="102">(via </tspan><tspan font-weight="400" font-size="9" x="-55.9473" y="113">the </tspan><tspan font-size="9" x="-41.086" y="113">Console</tspan><tspan font-weight="400" font-size="9" x="-8.19057" y="113">Jalapeno </tspan><tspan font-weight="400" font-size="9" x="-55.9473" y="124">feature).</tspan></text><path d="M213.5 31.6667C213.5 31.0223 214.022 30.5 214.667 30.5L247.333 30.5C247.978 30.5 248.5 31.0223 248.5 31.6667L248.5 36.3333C248.5 36.9777 247.978 37.5 247.333 37.5L214.667 37.5C214.022 37.5 213.5 36.9777 213.5 36.3333Z" stroke="#B74D41" stroke-width="1.33585" stroke-miterlimit="8" fill="#FFFFFF" fill-rule="evenodd"/><text font-family="Calibri,Calibri_MSFontService,sans-serif" font-weight="700" font-size="5" transform="translate(224.591 35)">EMPLOYEE</text><g clip-path="url(#clip4)"><g clip-path="url(#clip5)"><g clip-path="url(#clip6)"><path d="M218.5 33.125C217.466 33.125 216.625 32.2839 216.625 31.25 216.625 30.2161 217.466 29.375 218.5 29.375 219.534 29.375 220.375 30.2161 220.375 31.25 220.375 32.2839 219.534 33.125 218.5 33.125ZM218.5 30.125C217.88 30.125 217.375 30.6298 217.375 31.25 217.375 31.8703 217.88 32.375 218.5 32.375 219.12 32.375 219.625 31.8703 219.625 31.25 219.625 30.6298 219.12 30.125 218.5 30.125Z"/><path d="M221.875 38C221.668 38 221.5 37.8324 221.5 37.625L221.5 35.9375C221.5 35.2137 220.912 34.625 220.189 34.625L216.811 34.625C216.088 34.625 215.5 35.2137 215.5 35.9375L215.5 37.625C215.5 37.8324 215.332 38 215.125 38 214.918 38 214.75 37.8324 214.75 37.625L214.75 35.9375C214.75 34.8005 215.674 33.875 216.811 33.875L220.189 33.875C221.325 33.875 222.25 34.8005 222.25 35.9375L222.25 37.625C222.25 37.8324 222.082 38 221.875 38Z"/><path d="M220.375 38 218.125 38C217.918 38 217.75 37.8324 217.75 37.625L217.75 36.125C217.75 35.9176 217.918 35.75 218.125 35.75L220.375 35.75C220.582 35.75 220.75 35.9176 220.75 36.125L220.75 37.625C220.75 37.8324 220.582 38 220.375 38ZM218.5 37.25 220 37.25 220 36.5 218.5 36.5 218.5 37.25Z"/><path d="M219.25 36.5C219.043 36.5 218.875 36.3324 218.875 36.125L218.875 35.375C218.875 35.1676 219.043 35 219.25 35 219.457 35 219.625 35.1676 219.625 35.375L219.625 36.125C219.625 36.3324 219.457 36.5 219.25 36.5Z"/></g></g></g><path d="M203.5 63.5C203.5 62.3954 204.395 61.5 205.5 61.5L246.5 61.5C247.605 61.5 248.5 62.3954 248.5 63.5L248.5 71.5C248.5 72.6046 247.605 73.5 246.5 73.5L205.5 73.5C204.395 73.5 203.5 72.6046 203.5 71.5Z" stroke="#CEB023" stroke-width="1.33585" stroke-miterlimit="8" fill="#FFFFFF" fill-rule="evenodd"/><text font-family="Calibri,Calibri_MSFontService,sans-serif" font-weight="700" font-size="5" transform="translate(214.935 65)">ORGANISATION<tspan x="0" y="6">UNIT</tspan></text><g clip-path="url(#clip7)"><g clip-path="url(#clip8)"><g clip-path="url(#clip9)"><path d="M2.99999 8.24998 0.749998 8.24998C0.542998 8.24998 0.374999 8.08235 0.374999 7.87498L0.374999 6.37498C0.374999 6.16761 0.542998 5.99998 0.749998 5.99998L2.99999 5.99998C3.20699 5.99998 3.37499 6.16761 3.37499 6.37498L3.37499 7.87498C3.37499 8.08235 3.20699 8.24998 2.99999 8.24998ZM1.125 7.49998 2.62499 7.49998 2.62499 6.74998 1.125 6.74998 1.125 7.49998Z" transform="matrix(1 0 -0 1.11111 204.375 62.4167)"/><path d="M5.24998 2.62499 2.99999 2.62499C2.79299 2.62499 2.62499 2.45699 2.62499 2.24999L2.62499 0.749998C2.62499 0.542998 2.79299 0.374999 2.99999 0.374999L5.24998 0.374999C5.45736 0.374999 5.62498 0.542998 5.62498 0.749998L5.62498 2.24999C5.62498 2.45699 5.45736 2.62499 5.24998 2.62499ZM3.37499 1.87499 4.87499 1.87499 4.87499 1.125 3.37499 1.125 3.37499 1.87499Z" transform="matrix(1 0 -0 1.11111 204.375 62.4167)"/><path d="M7.49998 5.99998 5.24998 5.99998C5.04261 5.99998 4.87499 6.16761 4.87499 6.37498L4.87499 7.87498C4.87499 8.08235 5.04261 8.24998 5.24998 8.24998L7.49998 8.24998C7.70735 8.24998 7.87498 8.08235 7.87498 7.87498L7.87498 6.37498C7.87498 6.16761 7.70735 5.99998 7.49998 5.99998Z" transform="matrix(1 0 -0 1.11111 204.375 62.4167)"/><path d="M5.99998 5.24998C5.79261 5.24998 5.62498 5.08236 5.62498 4.87499L5.62498 4.31249C5.62498 4.20749 5.54286 4.12499 5.43861 4.12499L2.81137 4.12499C2.70862 4.12499 2.62499 4.20899 2.62499 4.31249L2.62499 4.87499C2.62499 5.08236 2.45699 5.24998 2.24999 5.24998 2.04299 5.24998 1.87499 5.08236 1.87499 4.87499L1.87499 4.31249C1.87499 3.79574 2.29499 3.37499 2.81137 3.37499L5.43861 3.37499C5.95498 3.37499 6.37498 3.79574 6.37498 4.31249L6.37498 4.87499C6.37498 5.08236 6.20736 5.24998 5.99998 5.24998Z" transform="matrix(1 0 -0 1.11111 204.375 62.4167)"/></g></g></g><path d="M219.5 95.5C219.5 94.9477 219.948 94.5 220.5 94.5L247.5 94.5C248.052 94.5 248.5 94.9477 248.5 95.5L248.5 99.5C248.5 100.052 248.052 100.5 247.5 100.5L220.5 100.5C219.948 100.5 219.5 100.052 219.5 99.5Z" stroke="#D2F53C" stroke-width="1.33585" stroke-miterlimit="8" fill="#FFFFFF" fill-rule="evenodd"/><text font-family="Calibri,Calibri_MSFontService,sans-serif" font-weight="700" font-size="5" transform="translate(230.613 98)">METRIC</text><g clip-path="url(#clip10)"><g clip-path="url(#clip11)"><g clip-path="url(#clip12)"><path d="M4.49999 1.3125C2.43224 1.3125 0.749998 2.99474 0.749998 5.06249 0.749998 5.26986 0.917997 5.43748 1.125 5.43748 1.332 5.43748 1.5 5.26986 1.5 5.06249 1.5 3.40836 2.84587 2.06249 4.49999 2.06249 6.15411 2.06249 7.49998 3.40836 7.49998 5.06249 7.49998 5.26986 7.6676 5.43748 7.87498 5.43748 8.08235 5.43748 8.24998 5.26986 8.24998 5.06249 8.24998 2.99474 6.56773 1.3125 4.49999 1.3125Z" transform="matrix(1 0 -0 1.11111 220 92)"/><path d="M6.07948 3.73424 4.70324 5.45811C4.63686 5.44536 4.56974 5.43748 4.49999 5.43748 3.87974 5.43748 3.37499 5.94223 3.37499 6.56248 3.37499 7.18273 3.87974 7.68748 4.49999 7.68748 5.12023 7.68748 5.62498 7.18273 5.62498 6.56248 5.62498 6.28723 5.52186 6.03748 5.35648 5.84173L6.66486 4.20224C6.7946 4.04024 6.76761 3.80436 6.60636 3.67536 6.44473 3.54561 6.20886 3.57299 6.07948 3.73424ZM4.49999 6.93748C4.29299 6.93748 4.12499 6.76948 4.12499 6.56248 4.12499 6.35548 4.29299 6.18748 4.49999 6.18748 4.70699 6.18748 4.87499 6.35548 4.87499 6.56248 4.87499 6.76948 4.70699 6.93748 4.49999 6.93748Z" transform="matrix(1 0 -0 1.11111 220 92)"/></g></g></g><path d="M214.5 126.667C214.5 126.022 215.022 125.5 215.667 125.5L247.333 125.5C247.978 125.5 248.5 126.022 248.5 126.667L248.5 131.333C248.5 131.978 247.978 132.5 247.333 132.5L215.667 132.5C215.022 132.5 214.5 131.978 214.5 131.333Z" stroke="#46F0F0" stroke-width="1.33585" stroke-miterlimit="8" fill="#FFFFFF" fill-rule="evenodd"/><text font-family="Calibri,Calibri_MSFontService,sans-serif" font-weight="700" font-size="5" transform="translate(225.442 130)">INITIATIVE</text><g clip-path="url(#clip13)"><g clip-path="url(#clip14)"><g clip-path="url(#clip15)"><path d="M218.75 128.775C219.577 128.775 220.25 128.118 220.25 127.311 220.25 126.504 219.577 125.848 218.75 125.848 217.923 125.848 217.25 126.504 217.25 127.311 217.25 128.118 217.923 128.775 218.75 128.775ZM218.75 126.58C219.164 126.58 219.5 126.908 219.5 127.312 219.5 127.716 219.164 128.044 218.75 128.044 218.336 128.044 218 127.716 218 127.312 218 126.908 218.336 126.58 218.75 126.58Z"/><path d="M222.5 124.75C222.293 124.75 222.125 124.914 222.125 125.116L222.125 127.542 222.125 127.677 222.125 127.71C222.125 128.707 221.295 129.517 220.274 129.517L218.726 129.517C217.292 129.518 216.125 130.579 216.125 131.884 216.125 132.086 216.293 132.25 216.5 132.25 216.707 132.25 216.875 132.086 216.875 131.884 216.875 130.983 217.705 130.249 218.726 130.249L220.274 130.249C221.708 130.249 222.875 129.111 222.875 127.71L222.875 127.677 222.875 127.542 222.875 125.116C222.875 124.914 222.707 124.75 222.5 124.75Z"/><path d="M221 130.604C220.793 130.604 220.625 130.768 220.625 130.971L220.625 131.703C220.625 131.905 220.793 132.069 221 132.069 221.207 132.069 221.375 131.905 221.375 131.703L221.375 130.971C221.375 130.768 221.207 130.604 221 130.604Z"/></g></g></g><path d="M213.5 158.5C213.5 157.948 213.948 157.5 214.5 157.5L247.5 157.5C248.052 157.5 248.5 157.948 248.5 158.5L248.5 162.5C248.5 163.052 248.052 163.5 247.5 163.5L214.5 163.5C213.948 163.5 213.5 163.052 213.5 162.5Z" stroke="#46F0F0" stroke-width="1.33585" stroke-miterlimit="8" fill="#FFFFFF" fill-rule="evenodd"/><text font-family="Calibri,Calibri_MSFontService,sans-serif" font-weight="700" font-size="5" transform="translate(224.931 161)">PROGRAM</text><g clip-path="url(#clip16)"><g clip-path="url(#clip17)"><g clip-path="url(#clip18)"><path d="M7.50007 9.00008 0.750007 9.00008C0.543005 9.00008 0.375003 8.83245 0.375003 8.62508L0.375003 1.87502C0.375003 1.66801 0.543005 1.50001 0.750007 1.50001L2.62502 1.50001C2.83202 1.50001 3.00003 1.66801 3.00003 1.87502 3.00003 2.08202 2.83202 2.25002 2.62502 2.25002L1.12501 2.25002 1.12501 8.25007 7.12506 8.25007 7.12506 6.75006C7.12506 6.54268 7.29269 6.37506 7.50007 6.37506 7.70744 6.37506 7.87507 6.54268 7.87507 6.75006L7.87507 8.62508C7.87507 8.83245 7.70744 9.00008 7.50007 9.00008Z" transform="matrix(1.1111 0 -0 1 214.417 155.25)"/><path d="M6.00005 6.0263C5.89955 6.0263 5.80468 5.98655 5.7338 5.91493L5.2193 5.39667 4.60317 5.39667C4.39579 5.39667 4.22816 5.22867 4.22816 5.02167L4.22816 4.39916 3.85878 4.02716C3.71366 3.88091 3.71366 3.64503 3.85878 3.49878L4.22816 3.12678 4.22816 2.35202C4.22816 2.14502 4.39616 1.97702 4.60317 1.97702L5.37005 1.97702 5.7338 1.61064C5.80468 1.53976 5.89955 1.50001 6.00005 1.50001L6.00005 1.50001C6.10055 1.50001 6.19543 1.53976 6.2663 1.61101L6.63006 1.97702 7.25556 1.97702C7.46294 1.97702 7.63057 2.14502 7.63057 2.35202L7.63057 2.98465 8.14095 3.49916C8.28682 3.64541 8.28682 3.88166 8.14095 4.02753L7.63057 4.54204 7.63057 5.02242C7.63057 5.22942 7.46294 5.39742 7.25556 5.39742L6.78081 5.39742 6.2663 5.91568C6.19543 5.98655 6.10055 6.0263 6.00005 6.0263ZM4.97817 4.64704 5.3753 4.64704C5.4758 4.64704 5.57067 4.68679 5.64155 4.75767L6.00005 5.11917 6.35856 4.75767C6.42906 4.68679 6.52431 4.64704 6.62481 4.64704L6.88056 4.64704 6.88056 4.38716C6.88056 4.28816 6.91956 4.19291 6.98969 4.12279L7.34669 3.76316 6.98969 3.40353C6.91919 3.3334 6.88056 3.23853 6.88056 3.13915L6.88056 2.72702 6.47331 2.72702C6.37318 2.72702 6.27793 2.68727 6.20705 2.61602L6.00005 2.40752 5.79268 2.6164C5.72218 2.68727 5.62655 2.72702 5.52605 2.72702L4.97817 2.72702 4.97817 3.28128C4.97817 3.38028 4.93917 3.47516 4.86904 3.54566L4.65342 3.76316 4.86904 3.98103C4.93917 4.05154 4.97817 4.14641 4.97817 4.24541L4.97817 4.64704Z" transform="matrix(1.1111 0 -0 1 214.417 155.25)"/><path d="M3.00003 4.50004 2.25002 4.50004C2.04302 4.50004 1.87502 4.33204 1.87502 4.12504 1.87502 3.91803 2.04302 3.75003 2.25002 3.75003L3.00003 3.75003C3.20703 3.75003 3.37503 3.91803 3.37503 4.12504 3.37503 4.33204 3.20703 4.50004 3.00003 4.50004Z" transform="matrix(1.1111 0 -0 1 214.417 155.25)"/><path d="M3.00003 6.00005 2.25002 6.00005C2.04302 6.00005 1.87502 5.83243 1.87502 5.62505 1.87502 5.41805 2.04302 5.25005 2.25002 5.25005L3.00003 5.25005C3.20703 5.25005 3.37503 5.41805 3.37503 5.62505 3.37503 5.83243 3.20703 6.00005 3.00003 6.00005Z" transform="matrix(1.1111 0 -0 1 214.417 155.25)"/><path d="M3.00003 7.50007 2.25002 7.50007C2.04302 7.50007 1.87502 7.33244 1.87502 7.12506 1.87502 6.91769 2.04302 6.75006 2.25002 6.75006L3.00003 6.75006C3.20703 6.75006 3.37503 6.91769 3.37503 7.12506 3.37503 7.33244 3.20703 7.50007 3.00003 7.50007Z" transform="matrix(1.1111 0 -0 1 214.417 155.25)"/><path d="M5.25005 7.50007 4.50004 7.50007C4.29266 7.50007 4.12504 7.33244 4.12504 7.12506 4.12504 6.91769 4.29266 6.75006 4.50004 6.75006L5.25005 6.75006C5.45742 6.75006 5.62505 6.91769 5.62505 7.12506 5.62505 7.33244 5.45742 7.50007 5.25005 7.50007Z" transform="matrix(1.1111 0 -0 1 214.417 155.25)"/><path d="M6.37543 3.75003C6.37543 3.95714 6.20754 4.12504 6.00043 4.12504 5.79332 4.12504 5.62542 3.95714 5.62542 3.75003 5.62542 3.54292 5.79332 3.37503 6.00043 3.37503 6.20754 3.37503 6.37543 3.54292 6.37543 3.75003Z" transform="matrix(1.1111 0 -0 1 214.417 155.25)"/></g></g></g><path d="M217.5 190.5C217.5 189.948 217.948 189.5 218.5 189.5L247.5 189.5C248.052 189.5 248.5 189.948 248.5 190.5L248.5 194.5C248.5 195.052 248.052 195.5 247.5 195.5L218.5 195.5C217.948 195.5 217.5 195.052 217.5 194.5Z" stroke="#46F0F0" stroke-width="1.33585" stroke-miterlimit="8" fill="#FFFFFF" fill-rule="evenodd"/><text font-family="Calibri,Calibri_MSFontService,sans-serif" font-weight="700" font-size="5" transform="translate(228.551 193)">PROJECT</text><g clip-path="url(#clip19)"><g clip-path="url(#clip20)"><g clip-path="url(#clip21)"><path d="M7.87498 1.5 2.81249 1.5 2.81249 0.749998 2.06249 0.749998 2.06249 0.749998C1.3245 0.843373 0.749998 1.48725 0.749998 2.24999L0.749998 6.74998C0.749998 7.57723 1.42275 8.24998 2.24999 8.24998L7.87498 8.24998C8.08235 8.24998 8.24998 8.08235 8.24998 7.87498L8.24998 1.87499C8.24998 1.668 8.08235 1.5 7.87498 1.5ZM2.06249 1.52662 2.06249 5.26911C1.85924 5.29461 1.66987 5.35986 1.5 5.45886L1.5 2.24999C1.5 1.90162 1.73999 1.61025 2.06249 1.52662ZM7.49998 7.49998 2.24999 7.49998C1.83637 7.49998 1.5 7.16398 1.5 6.74998 1.5 6.33598 1.83637 5.99998 2.24999 5.99998L2.81249 5.99998 2.81249 2.24999 7.49998 2.24999 7.49998 7.49998Z" transform="matrix(1 0 -0 1.11112 218 187)"/><path d="M4.12499 4.49999 4.49999 4.49999 4.49999 5.24998 4.12499 5.24998C3.91799 5.24998 3.74999 5.41761 3.74999 5.62498 3.74999 5.83236 3.91799 5.99998 4.12499 5.99998L4.49999 5.99998 4.49999 6.37498C4.49999 6.58236 4.66761 6.74998 4.87499 6.74998 5.08236 6.74998 5.24998 6.58236 5.24998 6.37498L5.24998 5.99998 6.37498 5.99998C6.58236 5.99998 6.74998 5.83236 6.74998 5.62498 6.74998 5.41761 6.58236 5.24998 6.37498 5.24998L5.24998 5.24998 5.24998 4.49999 6.37498 4.49999C6.58236 4.49999 6.74998 4.33199 6.74998 4.12499 6.74998 3.91799 6.58236 3.74999 6.37498 3.74999L5.24998 3.74999 5.24998 3.37499C5.24998 3.16799 5.08236 2.99999 4.87499 2.99999 4.66761 2.99999 4.49999 3.16799 4.49999 3.37499L4.49999 3.74999 4.12499 3.74999C3.91799 3.74999 3.74999 3.91799 3.74999 4.12499 3.74999 4.33199 3.91799 4.49999 4.12499 4.49999Z" transform="matrix(1 0 -0 1.11112 218 187)"/></g></g></g><path d="M216.5 221.667C216.5 220.47 217.47 219.5 218.667 219.5L246.333 219.5C247.53 219.5 248.5 220.47 248.5 221.667L248.5 230.333C248.5 231.53 247.53 232.5 246.333 232.5L218.667 232.5C217.47 232.5 216.5 231.53 216.5 230.333Z" stroke="#46F0F0" stroke-width="1.33585" stroke-miterlimit="8" fill="#FFFFFF" fill-rule="evenodd"/><text font-family="Calibri,Calibri_MSFontService,sans-serif" font-weight="700" font-size="5" transform="translate(228.265 224)">PROJECT<tspan x="0" y="6">TASK</tspan></text><g clip-path="url(#clip22)"><g clip-path="url(#clip23)"><g clip-path="url(#clip24)"><path d="M4.52854 5.7743 4.52929 5.77505 6.37506 3.85503 5.9138 3.37503 4.52854 4.81504 3.83628 4.09504 3.37503 4.57504 4.52854 5.77505Z" transform="matrix(1.1111 0 -0 1 217 221)"/><path d="M7.50007 0.750007 1.87502 0.750007C1.66801 0.750007 1.50001 0.918008 1.50001 1.12501L1.50001 2.62502 1.12501 2.62502C0.918008 2.62502 0.750007 2.79302 0.750007 3.00003 0.750007 3.20703 0.918008 3.37503 1.12501 3.37503L1.50001 3.37503 1.50001 4.12504 1.12501 4.12504C0.918008 4.12504 0.750007 4.29304 0.750007 4.50004 0.750007 4.70742 0.918008 4.87504 1.12501 4.87504L1.50001 4.87504 1.50001 5.62505 1.12501 5.62505C0.918008 5.62505 0.750007 5.79268 0.750007 6.00005 0.750007 6.20743 0.918008 6.37506 1.12501 6.37506L1.50001 6.37506 1.50001 7.87507C1.50001 8.08245 1.66801 8.25007 1.87502 8.25007L7.50007 8.25007C7.70744 8.25007 7.87507 8.08245 7.87507 7.87507L7.87507 1.12501C7.87507 0.918008 7.70744 0.750007 7.50007 0.750007ZM7.12506 7.50007 2.25002 7.50007 2.25002 6.37506 2.62502 6.37506C2.83202 6.37506 3.00003 6.20743 3.00003 6.00005 3.00003 5.79268 2.83202 5.62505 2.62502 5.62505L2.25002 5.62505 2.25002 4.87504 2.62502 4.87504C2.83202 4.87504 3.00003 4.70742 3.00003 4.50004 3.00003 4.29304 2.83202 4.12504 2.62502 4.12504L2.25002 4.12504 2.25002 3.37503 2.62502 3.37503C2.83202 3.37503 3.00003 3.20703 3.00003 3.00003 3.00003 2.79302 2.83202 2.62502 2.62502 2.62502L2.25002 2.62502 2.25002 1.50001 7.12506 1.50001 7.12506 7.50007Z" transform="matrix(1.1111 0 -0 1 217 221)"/></g></g></g><path d="M165.848 30 203.152 30C208.038 30 212 33.134 212 37 212 40.866 208.038 44 203.152 44L165.848 44C160.962 44 157 40.866 157 37 157 33.134 160.962 30 165.848 30Z" fill="#313131" fill-rule="evenodd"/><text fill="#FFFFFF" font-family="Calibri,Calibri_MSFontService,sans-serif" font-weight="700" font-size="5" transform="translate(172.081 39)">|Linked to&gt;</text><path d="M165.848 125 203.152 125C208.038 125 212 128.134 212 132 212 135.866 208.038 139 203.152 139L165.848 139C160.962 139 157 135.866 157 132 157 128.134 160.962 125 165.848 125Z" fill="#313131" fill-rule="evenodd"/><text fill="#FFFFFF" font-family="Calibri,Calibri_MSFontService,sans-serif" font-weight="700" font-size="5" transform="translate(166.988 134)">&lt;Subscribed by|</text><path d="M164.24 61 194.76 61C198.759 61 202 63.9102 202 67.5 202 71.0899 198.759 74 194.76 74L164.24 74C160.241 74 157 71.0899 157 67.5 157 63.9102 160.241 61 164.24 61Z" fill="#313131" fill-rule="evenodd"/><text fill="#FFFFFF" font-family="Calibri,Calibri_MSFontService,sans-serif" font-weight="700" font-size="5" transform="translate(161.645 69)">&lt;Subscribed by|</text><path d="M165.848 157 203.152 157C208.038 157 212 159.91 212 163.5 212 167.09 208.038 170 203.152 170L165.848 170C160.962 170 157 167.09 157 163.5 157 159.91 160.962 157 165.848 157Z" fill="#313131" fill-rule="evenodd"/><text fill="#FFFFFF" font-family="Calibri,Calibri_MSFontService,sans-serif" font-weight="700" font-size="5" transform="translate(166.988 166)">&lt;Subscribed by|</text><path d="M166.331 219 205.669 219C210.822 219 215 221.91 215 225.5 215 229.09 210.822 232 205.669 232L166.331 232C161.178 232 157 229.09 157 225.5 157 221.91 161.178 219 166.331 219Z" fill="#313131" fill-rule="evenodd"/><text fill="#FFFFFF" font-family="Calibri,Calibri_MSFontService,sans-serif" font-weight="700" font-size="5" transform="translate(170.829 228)">&lt;Assigned to|</text><path d="M166.331 189 205.669 189C210.822 189 215 191.91 215 195.5 215 199.09 210.822 202 205.669 202L166.331 202C161.178 202 157 199.09 157 195.5 157 191.91 161.178 189 166.331 189Z" fill="#313131" fill-rule="evenodd"/><text fill="#FFFFFF" font-family="Calibri,Calibri_MSFontService,sans-serif" font-weight="700" font-size="5" transform="translate(164.066 194)">&lt;Sponsor &lt;Manager <tspan x="6.34531" y="6">&lt;Participants|</tspan></text><path d="M166.814 94 208.186 94C213.606 94 218 96.9102 218 100.5 218 104.09 213.606 107 208.186 107L166.814 107C161.394 107 157 104.09 157 100.5 157 96.9102 161.394 94 166.814 94Z" fill="#313131" fill-rule="evenodd"/><text fill="#FFFFFF" font-family="Calibri,Calibri_MSFontService,sans-serif" font-weight="700" font-size="5" transform="translate(176.423 102)">&lt;Contact|</text></g></svg>