<svg width="265" height="265" xmlns="http://www.w3.org/2000/svg" xmlns:xlink="http://www.w3.org/1999/xlink" overflow="hidden"><defs><clipPath id="clip0"><path d="M0 0 265 0 265 265 0 265Z" fill-rule="evenodd" clip-rule="evenodd"/></clipPath><clipPath id="clip1"><path d="M35 51 55 51 55 71 35 71Z" fill-rule="evenodd" clip-rule="evenodd"/></clipPath><clipPath id="clip2"><path d="M35 51 55 51 55 71 35 71Z" fill-rule="evenodd" clip-rule="evenodd"/></clipPath><clipPath id="clip3"><path d="M35 51 55 51 55 71 35 71Z" fill-rule="evenodd" clip-rule="evenodd"/></clipPath><clipPath id="clip4"><path d="M202 29 212 29 212 38 202 38Z" fill-rule="evenodd" clip-rule="evenodd"/></clipPath><clipPath id="clip5"><path d="M202 29 212 29 212 38 202 38Z" fill-rule="evenodd" clip-rule="evenodd"/></clipPath><clipPath id="clip6"><path d="M202 29 212 29 212 38 202 38Z" fill-rule="evenodd" clip-rule="evenodd"/></clipPath><clipPath id="clip7"><path d="M205 61 214 61 214 71 205 71Z" fill-rule="evenodd" clip-rule="evenodd"/></clipPath><clipPath id="clip8"><path d="M205 61 214 61 214 71 205 71Z" fill-rule="evenodd" clip-rule="evenodd"/></clipPath><clipPath id="clip9"><path d="M205 61 214 61 214 71 205 71Z" fill-rule="evenodd" clip-rule="evenodd"/></clipPath><clipPath id="clip10"><path d="M211 92 220 92 220 103 211 103Z" fill-rule="evenodd" clip-rule="evenodd"/></clipPath><clipPath id="clip11"><path d="M211 92 220 92 220 103 211 103Z" fill-rule="evenodd" clip-rule="evenodd"/></clipPath><clipPath id="clip12"><path d="M211 92 220 92 220 103 211 103Z" fill-rule="evenodd" clip-rule="evenodd"/></clipPath><clipPath id="clip13"><path d="M204 124 213 124 213 134 204 134Z" fill-rule="evenodd" clip-rule="evenodd"/></clipPath><clipPath id="clip14"><path d="M204 124 213 124 213 134 204 134Z" fill-rule="evenodd" clip-rule="evenodd"/></clipPath><clipPath id="clip15"><path d="M204 124 213 124 213 134 204 134Z" fill-rule="evenodd" clip-rule="evenodd"/></clipPath><clipPath id="clip16"><path d="M212 155 222 155 222 166 212 166Z" fill-rule="evenodd" clip-rule="evenodd"/></clipPath><clipPath id="clip17"><path d="M212 155 222 155 222 166 212 166Z" fill-rule="evenodd" clip-rule="evenodd"/></clipPath><clipPath id="clip18"><path d="M212 155 222 155 222 166 212 166Z" fill-rule="evenodd" clip-rule="evenodd"/></clipPath><clipPath id="clip19"><path d="M206 186 216 186 216 198 206 198Z" fill-rule="evenodd" clip-rule="evenodd"/></clipPath><clipPath id="clip20"><path d="M206 186 216 186 216 198 206 198Z" fill-rule="evenodd" clip-rule="evenodd"/></clipPath><clipPath id="clip21"><path d="M206 186 216 186 216 198 206 198Z" fill-rule="evenodd" clip-rule="evenodd"/></clipPath><clipPath id="clip22"><path d="M205 220 214 220 214 232 205 232Z" fill-rule="evenodd" clip-rule="evenodd"/></clipPath><clipPath id="clip23"><path d="M205 220 214 220 214 232 205 232Z" fill-rule="evenodd" clip-rule="evenodd"/></clipPath><clipPath id="clip24"><path d="M205 220 214 220 214 232 205 232Z" fill-rule="evenodd" clip-rule="evenodd"/></clipPath><clipPath id="clip25"><path d="M71 30 82 30 82 39 71 39Z" fill-rule="evenodd" clip-rule="evenodd"/></clipPath><clipPath id="clip26"><path d="M71 30 82 30 82 39 71 39Z" fill-rule="evenodd" clip-rule="evenodd"/></clipPath><clipPath id="clip27"><path d="M71 30 82 30 82 39 71 39Z" fill-rule="evenodd" clip-rule="evenodd"/></clipPath></defs><g clip-path="url(#clip0)"><rect x="0" y="0" width="265" height="265" fill="#313131"/><rect x="89.5" y="131.5" width="1.99999" height="1" stroke="#2F528F" stroke-width="1.33585" stroke-miterlimit="8" fill="#4472C4"/><path d="M23.5 9.75271C23.5 8.50859 24.5085 7.50003 25.7527 7.50003L249.247 7.50003C250.491 7.50003 251.5 8.50859 251.5 9.75271L251.5 249.247C251.5 250.491 250.491 251.5 249.247 251.5L25.7527 251.5C24.5085 251.5 23.5 250.491 23.5 249.247Z" stroke="#FF0000" stroke-width="0.667927" stroke-miterlimit="8" stroke-opacity="0" fill="none" fill-rule="evenodd"/><path d="M30.0794 43.5 149.921 43.5C153.002 43.5 155.5 45.998 155.5 49.0794L155.5 214.252C155.5 216.598 153.598 218.5 151.252 218.5L28.7483 218.5C26.402 218.5 24.5 216.598 24.5 214.252L24.5 49.0794C24.5 45.998 26.998 43.5 30.0794 43.5Z" stroke="#F032E6" stroke-width="4.67549" stroke-miterlimit="8" fill="#FFFFFF" fill-rule="evenodd"/><g clip-path="url(#clip1)"><g clip-path="url(#clip2)"><g clip-path="url(#clip3)"><path d="M53.0366 66.1534 51.4643 64.1742C51.3123 63.985 51.0851 63.875 50.8445 63.875L46.0834 63.875C45.7786 63.875 45.5023 64.0499 45.3709 64.3231 45.2394 64.5978 45.2751 64.9231 45.4651 65.1614L46.6542 66.6458 45.4651 68.1302C45.2751 68.3685 45.2394 68.6939 45.3709 68.9686 45.5023 69.2417 45.7786 69.4167 46.0834 69.4167L50.8445 69.4167C51.0859 69.4167 51.3147 69.3066 51.4643 69.1174L53.0366 67.1382C53.2654 66.8501 53.2654 66.4416 53.0366 66.1534Z"/><path d="M42.7552 64.1742C42.6056 63.985 42.3776 63.875 42.1361 63.875L37.375 63.875C37.071 63.875 36.7931 64.0499 36.6617 64.3231 36.5295 64.5978 36.5667 64.9231 36.7575 65.1614L37.945 66.6458 36.7575 68.1302C36.5675 68.3685 36.5303 68.6939 36.6617 68.9686 36.7931 69.2417 37.071 69.4167 37.375 69.4167L42.1361 69.4167C42.3776 69.4167 42.6056 69.3066 42.756 69.1174L44.329 67.1382C44.5578 66.8501 44.5578 66.4416 44.329 66.1534L42.7552 64.1742ZM41.7537 67.8333 39.0225 67.8333 39.5766 67.1406C39.8078 66.8517 39.8078 66.44 39.5766 66.151L39.0225 65.4583 41.7537 65.4583 42.6974 66.6458 41.7537 67.8333Z"/><path d="M49.25 57.5369C49.25 57.3247 49.1669 57.1213 49.0157 56.9716L45.0645 53.0157C44.7652 52.7164 44.2348 52.7164 43.9356 53.0157L39.9836 56.9716C39.6708 57.2843 39.6708 57.7894 39.9836 58.1013L43.9348 62.0573C44.0852 62.2077 44.2871 62.2916 44.5 62.2916 44.7122 62.2916 44.9141 62.2077 45.0645 62.0573L49.0157 58.1013C49.1669 57.9517 49.25 57.7483 49.25 57.5369ZM44.5 60.3616 41.6777 57.5369 44.5 54.7114 47.3223 57.5369 44.5 60.3616Z"/></g></g></g><path d="M26.9702 6.36947C18.5628 6.36947 11.7473 10.3112 11.7473 15.1736L11.7473 248.948C11.7473 253.81 18.5628 257.752 26.9702 257.752L238.08 257.752C246.487 257.752 253.302 253.81 253.302 248.948L253.302 15.1736C253.302 10.3112 246.487 6.36947 238.08 6.36947ZM0 0 265 0 265 265 0 265Z" fill="#F032E6" fill-rule="evenodd"/><text font-family="Calibri,Calibri_MSFontService,sans-serif" font-weight="700" font-size="11" transform="translate(64.1942 63)">VALUE STREAM <tspan x="20.2048" y="13">STAGE</tspan><tspan font-weight="400" font-size="9" x="-32.9039" y="57">A </tspan><tspan font-size="9" x="-25.3897" y="57">Value Stream Stage</tspan><tspan font-weight="400" font-size="9" x="-32.9039" y="68">represents a group of </tspan><tspan font-size="9" x="-32.9039" y="79">business Capabilities</tspan><tspan font-weight="400" font-size="9" x="49.7521" y="79">that are </tspan><tspan font-weight="400" font-size="9" x="-32.9039" y="90">enabled as a finite step in the </tspan><tspan font-weight="400" font-size="9" x="-32.9039" y="102">pursuit of a business </tspan><tspan font-weight="400" font-size="9" x="-32.9039" y="113">endeavour.</tspan></text><path d="M201.5 31.6666C201.5 31.0223 202.022 30.5 202.667 30.5L247.333 30.5C247.978 30.5 248.5 31.0223 248.5 31.6666L248.5 36.3334C248.5 36.9777 247.978 37.5 247.333 37.5L202.667 37.5C202.022 37.5 201.5 36.9777 201.5 36.3334Z" stroke="#64A592" stroke-width="1.33585" stroke-miterlimit="8" fill="#FFFFFF" fill-rule="evenodd"/><text font-family="Calibri,Calibri_MSFontService,sans-serif" font-weight="700" font-size="5" transform="translate(212.844 35)">POSTCONDITION</text><g clip-path="url(#clip4)"><g clip-path="url(#clip5)"><g clip-path="url(#clip6)"><path d="M210.674 38 204.25 38C204.123 38 204.004 37.9351 203.935 37.8279 203.866 37.721 203.856 37.5856 203.909 37.4697L205.713 33.5 203.909 29.5303C203.856 29.414 203.866 29.2794 203.935 29.1718 204.004 29.0649 204.123 29 204.25 29L210.642 29C210.849 29 211.017 29.168 211.017 29.375 211.017 29.582 210.849 29.75 210.642 29.75L204.832 29.75 206.466 33.3448C206.511 33.4434 206.511 33.5563 206.466 33.6549L204.832 37.25 210.674 37.25C210.882 37.25 211.049 37.4176 211.049 37.625 211.049 37.8324 210.882 38 210.674 38Z"/><path d="M202.375 38C202.323 38 202.27 37.9895 202.22 37.9662 202.032 37.8804 201.948 37.6584 202.034 37.4697L203.838 33.5 202.034 29.5303C201.948 29.3416 202.031 29.1193 202.22 29.0338 202.407 28.9479 202.63 29.0311 202.716 29.2201L204.591 33.3451C204.636 33.4438 204.636 33.5566 204.591 33.6553L202.716 37.7802C202.654 37.9182 202.517 38 202.375 38Z"/><path d="M210.625 32.6 208.318 35 206.875 33.5 207.452 32.9 208.317 33.8 210.048 32Z"/></g></g></g><path d="M204.5 63.5C204.5 62.9477 204.948 62.5 205.5 62.5L247.5 62.5C248.052 62.5 248.5 62.9477 248.5 63.5L248.5 67.4999C248.5 68.0522 248.052 68.5 247.5 68.5L205.5 68.5C204.948 68.5 204.5 68.0522 204.5 67.4999Z" stroke="#64A592" stroke-width="1.33585" stroke-miterlimit="8" fill="#FFFFFF" fill-rule="evenodd"/><text font-family="Calibri,Calibri_MSFontService,sans-serif" font-weight="700" font-size="5" transform="translate(215.568 66)">PRECONDITION</text><g clip-path="url(#clip7)"><g clip-path="url(#clip8)"><g clip-path="url(#clip9)"><path d="M209.114 64.6 206.799 67 205.352 65.5 205.93 64.9 206.799 65.8 208.536 64Z"/><path d="M209.114 69.9996 205.376 69.9996C205.168 69.9996 205 69.8324 205 69.6246 205 69.4173 205.168 69.25 205.376 69.25L208.854 69.25 210.213 65.6815 208.846 61.75 205.409 61.75C205.201 61.75 205.033 61.582 205.033 61.375 205.033 61.168 205.201 61 205.409 61L209.114 61C209.275 61 209.417 61.1013 209.47 61.252L210.97 65.5641C210.998 65.6478 210.997 65.7378 210.966 65.8206L209.466 69.7574C209.41 69.9033 209.271 69.9996 209.114 69.9996Z"/><path d="M213.624 69.9996C213.472 69.9996 213.329 69.9078 213.272 69.7574L211.772 65.8206C211.741 65.7378 211.74 65.6478 211.768 65.5641L213.268 61.252C213.336 61.0567 213.55 60.952 213.746 61.0207 213.943 61.0885 214.047 61.3019 213.979 61.4977L212.524 65.6815 213.975 69.4919C214.049 69.685 213.952 69.9017 213.757 69.9749 213.713 69.9921 213.668 69.9996 213.624 69.9996Z"/></g></g></g><path d="M210.5 95.5C210.5 94.9477 210.948 94.5 211.5 94.5L247.5 94.5C248.052 94.5 248.5 94.9477 248.5 95.5L248.5 99.4999C248.5 100.052 248.052 100.5 247.5 100.5L211.5 100.5C210.948 100.5 210.5 100.052 210.5 99.4999Z" stroke="#5AA203" stroke-width="1.33585" stroke-miterlimit="8" fill="#FFFFFF" fill-rule="evenodd"/><text font-family="Calibri,Calibri_MSFontService,sans-serif" font-weight="700" font-size="5" transform="translate(221.867 98)">VALUE ITEM</text><g clip-path="url(#clip10)"><g clip-path="url(#clip11)"><g clip-path="url(#clip12)"><path d="M7.87498 3.37499 6.98173 3.37499C7.29673 3.09974 7.49998 2.70037 7.49998 2.24999 7.49998 1.42275 6.82723 0.749998 5.99998 0.749998 5.17273 0.749998 4.49999 1.42275 4.49999 2.24999 4.49999 1.42275 3.82724 0.749998 2.99999 0.749998 2.17274 0.749998 1.5 1.42275 1.5 2.24999 1.5 2.70037 1.70324 3.09974 2.01824 3.37499L1.125 3.37499C0.917997 3.37499 0.749998 3.54299 0.749998 3.74999L0.749998 5.24998C0.749998 5.45736 0.917997 5.62498 1.125 5.62498L1.5 5.62498 1.5 7.87498C1.5 8.08235 1.668 8.24998 1.87499 8.24998L7.12498 8.24998C7.33235 8.24998 7.49998 8.08235 7.49998 7.87498L7.49998 5.62498 7.87498 5.62498C8.08235 5.62498 8.24998 5.45736 8.24998 5.24998L8.24998 3.74999C8.24998 3.54299 8.08235 3.37499 7.87498 3.37499ZM5.24998 2.24999C5.24998 1.83637 5.58598 1.5 5.99998 1.5 6.41398 1.5 6.74998 1.83637 6.74998 2.24999 6.74998 2.66362 6.41398 2.99999 5.99998 2.99999L5.24998 2.99999 5.24998 2.24999ZM2.99999 1.5C3.41361 1.5 3.74999 1.83637 3.74999 2.24999L3.74999 2.99999 2.99999 2.99999C2.58637 2.99999 2.24999 2.66362 2.24999 2.24999 2.24999 1.83637 2.58637 1.5 2.99999 1.5ZM1.5 4.12499 4.12499 4.12499 4.12499 4.87499 1.87499 4.87499 1.5 4.87499 1.5 4.12499ZM2.24999 5.62498 4.12499 5.62498 4.12499 7.49998 2.24999 7.49998 2.24999 5.62498ZM6.74998 7.49998 4.87499 7.49998 4.87499 5.62498 6.74998 5.62498 6.74998 7.49998ZM7.49998 4.87499 7.12498 4.87499 4.87499 4.87499 4.87499 4.12499 7.49998 4.12499 7.49998 4.87499Z" transform="matrix(1 0 -0 1.11111 211 92)"/></g></g></g><path d="M203.5 126.667C203.5 126.022 204.022 125.5 204.667 125.5L247.333 125.5C247.978 125.5 248.5 126.022 248.5 126.667L248.5 131.333C248.5 131.978 247.978 132.5 247.333 132.5L204.667 132.5C204.022 132.5 203.5 131.978 203.5 131.333Z" stroke="#918396" stroke-width="1.33585" stroke-miterlimit="8" fill="#FFFFFF" fill-rule="evenodd"/><text font-family="Calibri,Calibri_MSFontService,sans-serif" font-weight="700" font-size="5" transform="translate(214.546 130)">MEASUREMENT</text><g clip-path="url(#clip13)"><g clip-path="url(#clip14)"><g clip-path="url(#clip15)"><path d="M210.039 130.75 206.946 130.75C206.557 130.75 206.243 131.065 206.243 131.453 206.243 131.841 206.557 132.156 206.946 132.156L210.039 132.156C210.428 132.156 210.743 131.841 210.743 131.453 210.743 131.065 210.428 130.75 210.039 130.75ZM207.133 131.734C206.978 131.734 206.852 131.608 206.852 131.453 206.852 131.298 206.978 131.172 207.133 131.172 207.288 131.172 207.414 131.298 207.414 131.453 207.414 131.608 207.288 131.734 207.133 131.734ZM208.493 131.734C208.337 131.734 208.211 131.608 208.211 131.453 208.211 131.298 208.337 131.172 208.493 131.172 208.648 131.172 208.774 131.298 208.774 131.453 208.774 131.608 208.648 131.734 208.493 131.734ZM209.852 131.734C209.697 131.734 209.571 131.608 209.571 131.453 209.571 131.298 209.697 131.172 209.852 131.172 210.007 131.172 210.133 131.298 210.133 131.453 210.133 131.608 210.007 131.734 209.852 131.734Z"/><path d="M209.14 126.625C209.14 126.703 209.077 126.766 209 126.766 208.922 126.766 208.859 126.703 208.859 126.625 208.859 126.547 208.922 126.484 209 126.484 209.077 126.484 209.14 126.547 209.14 126.625Z"/><path d="M209.307 125.688 208.688 125.688 208.688 125.261C208.867 125.157 208.928 124.928 208.825 124.749 208.721 124.569 208.492 124.508 208.313 124.611 208.133 124.715 208.072 124.944 208.175 125.124 208.208 125.181 208.256 125.228 208.313 125.261L208.313 125.688 207.693 125.688C207.466 125.688 207.282 125.872 207.281 126.099L207.281 127.151C207.282 127.378 207.466 127.562 207.693 127.563L209.307 127.563C209.534 127.562 209.718 127.378 209.719 127.151L209.719 126.099C209.718 125.872 209.534 125.688 209.307 125.688ZM208.031 126.906C207.876 126.906 207.75 126.78 207.75 126.625 207.75 126.47 207.876 126.344 208.031 126.344 208.187 126.344 208.313 126.47 208.313 126.625 208.313 126.78 208.187 126.906 208.031 126.906ZM208.969 126.906C208.813 126.906 208.688 126.78 208.688 126.625 208.688 126.47 208.813 126.344 208.969 126.344 209.124 126.344 209.25 126.47 209.25 126.625 209.25 126.78 209.124 126.906 208.969 126.906Z"/><path d="M208.203 126.625C208.203 126.703 208.14 126.766 208.062 126.766 207.985 126.766 207.922 126.703 207.922 126.625 207.922 126.547 207.985 126.484 208.062 126.484 208.14 126.484 208.203 126.547 208.203 126.625Z"/><path d="M210.938 129.514 210.938 128.733C210.938 128.501 210.749 128.313 210.517 128.313L210 128.313 210 127.844 207 127.844 207 128.406 206.296 128.406C206.271 128.406 206.25 128.386 206.25 128.36L206.25 127.583C206.572 127.488 206.756 127.15 206.661 126.827 206.636 126.741 206.591 126.661 206.531 126.594L206.25 126.843C206.289 126.886 206.312 126.942 206.313 127 206.312 127.129 206.207 127.234 206.077 127.233 205.948 127.232 205.843 127.127 205.844 126.997 205.844 126.942 205.865 126.888 205.901 126.845L205.62 126.599C205.399 126.853 205.426 127.238 205.68 127.459 205.737 127.509 205.803 127.547 205.875 127.573L205.875 128.36C205.875 128.593 206.063 128.781 206.296 128.781L207 128.781 207 130.469 210 130.469 210 128.688 210.517 128.688C210.542 128.688 210.563 128.708 210.563 128.733L210.563 129.514C210.242 129.618 210.067 129.962 210.17 130.282 210.196 130.362 210.238 130.436 210.294 130.499L210.576 130.249C210.537 130.207 210.515 130.151 210.516 130.094 210.516 129.964 210.621 129.859 210.75 129.86 210.88 129.86 210.984 129.965 210.984 130.094 210.984 130.151 210.964 130.206 210.926 130.248L211.208 130.495C211.429 130.243 211.405 129.858 211.152 129.636 211.09 129.581 211.017 129.54 210.938 129.514ZM209.625 129.156 209.364 129.156C209.355 129.158 209.347 129.161 209.339 129.167L209.052 129.46 208.834 128.943 208.426 129.786 208.14 128.688 207.92 129.156 207.469 129.156 207.469 128.969 207.801 128.969 208.191 128.139 208.479 129.243 208.846 128.493 209.116 129.133 209.21 129.039C209.251 128.997 209.306 128.972 209.364 128.969L209.625 128.969Z"/></g></g></g><path d="M212.5 158.5C212.5 157.948 212.948 157.5 213.5 157.5L247.5 157.5C248.052 157.5 248.5 157.948 248.5 158.5L248.5 162.5C248.5 163.052 248.052 163.5 247.5 163.5L213.5 163.5C212.948 163.5 212.5 163.052 212.5 162.5Z" stroke="#911EB4" stroke-width="1.33585" stroke-miterlimit="8" fill="#FFFFFF" fill-rule="evenodd"/><text font-family="Calibri,Calibri_MSFontService,sans-serif" font-weight="700" font-size="5" transform="translate(223.229 161)">CAPABILITY</text><g clip-path="url(#clip16)"><g clip-path="url(#clip17)"><g clip-path="url(#clip18)"><path d="M7.87507 3.75003 1.12501 3.75003C0.918008 3.75003 0.750007 3.91803 0.750007 4.12504L0.750007 5.62505C0.750007 5.83243 0.918008 6.00005 1.12501 6.00005L1.50001 6.00005 1.50001 8.25007C1.50001 8.45745 1.66801 8.62508 1.87502 8.62508L7.12506 8.62508C7.33244 8.62508 7.50007 8.45745 7.50007 8.25007L7.50007 6.00005 7.87507 6.00005C8.08245 6.00005 8.25007 5.83243 8.25007 5.62505L8.25007 4.12504C8.25007 3.91803 8.08245 3.75003 7.87507 3.75003ZM6.75006 7.87507 2.25002 7.87507 2.25002 6.00005 6.75006 6.00005 6.75006 7.87507ZM7.50007 5.25005 7.12506 5.25005 1.87502 5.25005 1.50001 5.25005 1.50001 4.50004 7.50007 4.50004 7.50007 5.25005Z" transform="matrix(1.1111 0 -0 1 212 156)"/><path d="M1.87502 3.00003 3.75003 3.00003C3.95741 3.00003 4.12504 2.83202 4.12504 2.62502L4.12504 0.750007C4.12504 0.543005 3.95741 0.375003 3.75003 0.375003L1.87502 0.375003C1.66801 0.375003 1.50001 0.543005 1.50001 0.750007L1.50001 2.62502C1.50001 2.83202 1.66801 3.00003 1.87502 3.00003ZM2.25002 1.12501 3.37503 1.12501 3.37503 2.25002 2.25002 2.25002 2.25002 1.12501Z" transform="matrix(1.1111 0 -0 1 212 156)"/><path d="M6.18755 3.00003C6.91281 3.00003 7.50007 2.4124 7.50007 1.68751 7.50007 0.962633 6.91281 0.375003 6.18755 0.375003 5.4623 0.375003 4.87504 0.962633 4.87504 1.68751 4.87504 2.4124 5.4623 3.00003 6.18755 3.00003ZM6.18755 1.12501C6.49806 1.12501 6.75006 1.37664 6.75006 1.68751 6.75006 1.99839 6.49806 2.25002 6.18755 2.25002 5.87705 2.25002 5.62505 1.99839 5.62505 1.68751 5.62505 1.37664 5.87705 1.12501 6.18755 1.12501Z" transform="matrix(1.1111 0 -0 1 212 156)"/></g></g></g><path d="M206.5 190.5C206.5 189.948 206.948 189.5 207.5 189.5L247.5 189.5C248.052 189.5 248.5 189.948 248.5 190.5L248.5 194.5C248.5 195.052 248.052 195.5 247.5 195.5L207.5 195.5C206.948 195.5 206.5 195.052 206.5 194.5Z" stroke="#911EB4" stroke-width="1.33585" stroke-miterlimit="8" fill="#FFFFFF" fill-rule="evenodd"/><text font-family="Calibri,Calibri_MSFontService,sans-serif" font-weight="700" font-size="5" transform="translate(217.27 193)">STAKEHOLDER</text><g clip-path="url(#clip19)"><g clip-path="url(#clip20)"><g clip-path="url(#clip21)"><path d="M4.99999 4.58332C6.16665 4.58332 7.08331 3.66666 7.08331 2.49999 7.08331 1.33333 6.16665 0.416665 4.99999 0.416665 3.83332 0.416665 2.91666 1.33333 2.91666 2.49999 2.91666 3.66666 3.83332 4.58332 4.99999 4.58332ZM4.99999 1.25C5.70832 1.25 6.24998 1.79166 6.24998 2.49999 6.24998 3.20832 5.70832 3.74999 4.99999 3.74999 4.29165 3.74999 3.74999 3.20832 3.74999 2.49999 3.74999 1.79166 4.29165 1.25 4.99999 1.25Z" transform="matrix(1 0 -0 1.00001 206 187)"/><path d="M6.24998 5.41665 3.74999 5.41665C2.58333 5.41665 1.66666 6.33331 1.66666 7.49998L1.66666 9.16664C1.66666 9.41664 1.83333 9.58331 2.08333 9.58331 2.33333 9.58331 2.49999 9.41664 2.49999 9.16664L2.49999 7.49998C2.49999 6.79165 3.04166 6.24998 3.74999 6.24998L4.16665 6.24998 4.99999 7.91664 5.83332 6.24998 6.24998 6.24998C6.95831 6.24998 7.49998 6.79165 7.49998 7.49998L7.49998 9.16664C7.49998 9.41664 7.66664 9.58331 7.91664 9.58331 8.16664 9.58331 8.33331 9.41664 8.33331 9.16664L8.33331 7.49998C8.33331 6.33331 7.41664 5.41665 6.24998 5.41665Z" transform="matrix(1 0 -0 1.00001 206 187)"/></g></g></g><path d="M204.5 221.667C204.5 220.47 205.47 219.5 206.667 219.5L246.333 219.5C247.53 219.5 248.5 220.47 248.5 221.667L248.5 230.333C248.5 231.53 247.53 232.5 246.333 232.5L206.667 232.5C205.47 232.5 204.5 231.53 204.5 230.333Z" stroke="#F032E6" stroke-width="1.33585" stroke-miterlimit="8" fill="#FFFFFF" fill-rule="evenodd"/><text font-family="Calibri,Calibri_MSFontService,sans-serif" font-weight="700" font-size="5" transform="translate(216.138 224)">USER JOURNEY<tspan x="0" y="6">STAGE</tspan></text><g clip-path="url(#clip22)"><g clip-path="url(#clip23)"><g clip-path="url(#clip24)"><path d="M4.49999 3.27272C5.40244 3.27272 6.13635 2.53881 6.13635 1.63636 6.13635 0.733907 5.40244 0 4.49999 0 3.59753 0 2.86363 0.733907 2.86363 1.63636 2.86363 2.53881 3.59753 3.27272 4.49999 3.27272ZM4.49999 0.818179C4.95121 0.818179 5.31817 1.18513 5.31817 1.63636 5.31817 2.08758 4.95121 2.45454 4.49999 2.45454 4.04876 2.45454 3.68181 2.08758 3.68181 1.63636 3.68181 1.18513 4.04876 0.818179 4.49999 0.818179Z" transform="matrix(1 0 -0 1.06281 205 221)"/><path d="M2.45454 6.95452C2.68036 6.95452 2.86363 6.77166 2.86363 6.54543L2.86363 5.31817C2.86363 4.86694 3.23058 4.49999 3.68181 4.49999L5.31817 4.49999C5.76939 4.49999 6.13635 4.86694 6.13635 5.31817L6.13635 6.54543C6.13635 6.77166 6.31921 6.95452 6.54543 6.95452 6.77166 6.95452 6.95452 6.77166 6.95452 6.54543L6.95452 5.31817C6.95452 4.41571 6.22062 3.68181 5.31817 3.68181L3.68181 3.68181C2.77936 3.68181 2.04545 4.41571 2.04545 5.31817L2.04545 6.54543C2.04545 6.77166 2.22872 6.95452 2.45454 6.95452Z" transform="matrix(1 0 -0 1.06281 205 221)"/><path d="M7.7727 6.95452C7.24007 6.95452 6.79048 7.29775 6.62112 7.7727L5.65198 7.7727C5.48262 7.29775 5.03262 6.95452 4.5004 6.95452 3.96817 6.95452 3.51817 7.29775 3.3484 7.7727L2.37927 7.7727C2.20949 7.29775 1.7599 6.95452 1.22727 6.95452 0.550635 6.95452 0 7.50516 0 8.18179 0 8.85843 0.550635 9.40906 1.22727 9.40906 1.7599 9.40906 2.20949 9.06584 2.37927 8.59088L3.3484 8.59088C3.51776 9.06584 3.96776 9.40906 4.49999 9.40906 5.03221 9.40906 5.48221 9.06584 5.65157 8.59088L6.62071 8.59088C6.79007 9.06584 7.24007 9.40906 7.77229 9.40906 8.44893 9.40906 8.99956 8.85843 8.99956 8.18179 8.99956 7.50516 8.44934 6.95452 7.7727 6.95452ZM1.22727 8.59088C1.00186 8.59088 0.818179 8.40761 0.818179 8.18179 0.818179 7.95598 1.00186 7.7727 1.22727 7.7727 1.45268 7.7727 1.63636 7.95598 1.63636 8.18179 1.63636 8.40761 1.45268 8.59088 1.22727 8.59088ZM7.7727 8.59088C7.54689 8.59088 7.36361 8.40761 7.36361 8.18179 7.36361 7.95598 7.54689 7.7727 7.7727 7.7727 7.99852 7.7727 8.18179 7.95598 8.18179 8.18179 8.18179 8.40761 7.99852 8.59088 7.7727 8.59088Z" transform="matrix(1 0 -0 1.06281 205 221)"/></g></g></g><path d="M164.24 125 194.76 125C198.759 125 202 128.134 202 132 202 135.866 198.759 139 194.76 139L164.24 139C160.241 139 157 135.866 157 132 157 128.134 160.241 125 164.24 125Z" fill="#313131" fill-rule="evenodd"/><text fill="#FFFFFF" font-family="Calibri,Calibri_MSFontService,sans-serif" font-weight="700" font-size="5" transform="translate(163.899 134)">&lt;Measure Of|</text><path d="M165.205 94 199.795 94C204.327 94 208 96.9102 208 100.5 208 104.09 204.327 107 199.795 107L165.205 107C160.673 107 157 104.09 157 100.5 157 96.9102 160.673 94 165.205 94Z" fill="#313131" fill-rule="evenodd"/><text fill="#FFFFFF" font-family="Calibri,Calibri_MSFontService,sans-serif" font-weight="700" font-size="5" transform="translate(166.905 102)">&lt;Achieved by|</text><path d="M164.4 62 195.6 62C199.687 62 203 64.9102 203 68.5 203 72.0898 199.687 75 195.6 75L164.4 75C160.313 75 157 72.0898 157 68.5 157 64.9102 160.313 62 164.4 62Z" fill="#313131" fill-rule="evenodd"/><text fill="#FFFFFF" font-family="Calibri,Calibri_MSFontService,sans-serif" font-weight="700" font-size="5" transform="translate(162.981 71)">|Entry Criteria&gt;</text><path d="M163.918 30 193.082 30C196.903 30 200 33.134 200 37 200 40.866 196.903 44 193.082 44L163.918 44C160.097 44 157 40.866 157 37 157 33.134 160.097 30 163.918 30Z" fill="#313131" fill-rule="evenodd"/><text fill="#FFFFFF" font-family="Calibri,Calibri_MSFontService,sans-serif" font-weight="700" font-size="5" transform="translate(163.315 39)">|Exit Criteria&gt;</text><path d="M164.4 219 195.6 219C199.687 219 203 221.91 203 225.5 203 229.09 199.687 232 195.6 232L164.4 232C160.313 232 157 229.09 157 225.5 157 221.91 160.313 219 164.4 219Z" fill="#313131" fill-rule="evenodd"/><text fill="#FFFFFF" font-family="Calibri,Calibri_MSFontService,sans-serif" font-weight="700" font-size="5" transform="translate(166.404 228)">&lt;Guided by|</text><path d="M164.561 189 196.439 189C200.615 189 204 191.91 204 195.5 204 199.09 200.615 202 196.439 202L164.561 202C160.385 202 157 199.09 157 195.5 157 191.91 160.385 189 164.561 189Z" fill="#313131" fill-rule="evenodd"/><text fill="#FFFFFF" font-family="Calibri,Calibri_MSFontService,sans-serif" font-weight="700" font-size="5" transform="translate(166.153 197)">|Participant&gt;</text><path d="M165.527 157 201.473 157C206.183 157 210 159.91 210 163.5 210 167.09 206.183 170 201.473 170L165.527 170C160.817 170 157 167.09 157 163.5 157 159.91 160.817 157 165.527 157Z" fill="#313131" fill-rule="evenodd"/><text fill="#FFFFFF" font-family="Calibri,Calibri_MSFontService,sans-serif" font-weight="700" font-size="5" transform="translate(169.159 166)">&lt;Utilised by|</text><path d="M84 41 89.5 38 95 41Z" fill="#FFFFFF" fill-rule="evenodd"/><path d="M71.5001 30.6667C71.5001 29.47 72.4701 28.5 73.6668 28.5L100.333 28.5C101.53 28.5 102.5 29.47 102.5 30.6667L102.5 39.3333C102.5 40.53 101.53 41.5 100.333 41.5L73.6668 41.5C72.4701 41.5 71.5001 40.53 71.5001 39.3333Z" stroke="#F032E6" stroke-width="1.33585" stroke-miterlimit="8" fill="#FFFFFF" fill-rule="evenodd"/><text font-family="Calibri,Calibri_MSFontService,sans-serif" font-weight="700" font-size="5" transform="translate(83.3771 33)">VALUE<tspan x="0" y="6">STREAM</tspan></text><g clip-path="url(#clip25)"><g clip-path="url(#clip26)"><g clip-path="url(#clip27)"><path d="M7.1321 8.6246 1.12537 8.6246C0.981372 8.6246 0.850123 8.54173 0.787498 8.41235 0.724873 8.28223 0.742498 8.1281 0.832498 8.0156L1.39425 7.3121 0.832123 6.60861C0.742123 6.49611 0.724498 6.34198 0.787123 6.21186 0.850123 6.08211 0.981372 5.99961 1.12537 5.99961L7.1321 5.99961C7.24685 5.99961 7.35485 6.05248 7.42535 6.14173L8.16898 7.07923C8.27735 7.21535 8.27735 7.40885 8.16898 7.54498L7.42535 8.48248C7.35373 8.57172 7.2461 8.6246 7.1321 8.6246ZM1.90499 7.8746 6.9506 7.8746 7.39685 7.3121 6.9506 6.74961 1.90499 6.74961 2.16749 7.0781C2.27699 7.21498 2.27699 7.40923 2.16749 7.5461L1.90499 7.8746Z" transform="matrix(1.11111 0 -0 1 72 30)"/><path d="M4.49999 5.24961 4.49999 5.24961C4.40024 5.24961 4.30499 5.21061 4.23486 5.13974L2.36024 3.26287C2.21362 3.11624 2.21362 2.87924 2.36024 2.73224L4.23486 0.855372C4.37549 0.714748 4.62411 0.714373 4.76511 0.855372L6.64048 2.73224C6.71098 2.80274 6.75035 2.89799 6.75035 2.99737 6.75035 3.09674 6.71098 3.19274 6.64048 3.26287L4.76511 5.13974C4.69536 5.21061 4.59974 5.24961 4.49999 5.24961ZM3.15562 2.99737 4.49999 4.34324 5.84511 2.99737 4.49999 1.6515 3.15562 2.99737Z" transform="matrix(1.11111 0 -0 1 72 30)"/></g></g></g></g></svg>