<svg width="265" height="265" xmlns="http://www.w3.org/2000/svg" xmlns:xlink="http://www.w3.org/1999/xlink" overflow="hidden"><defs><clipPath id="clip0"><path d="M0 0 265 0 265 265 0 265Z" fill-rule="evenodd" clip-rule="evenodd"/></clipPath><clipPath id="clip1"><path d="M35 51 55 51 55 71 35 71Z" fill-rule="evenodd" clip-rule="evenodd"/></clipPath><clipPath id="clip2"><path d="M35 51 55 51 55 71 35 71Z" fill-rule="evenodd" clip-rule="evenodd"/></clipPath><clipPath id="clip3"><path d="M35 51 55 51 55 71 35 71Z" fill-rule="evenodd" clip-rule="evenodd"/></clipPath><clipPath id="clip4"><path d="M215 61 226 61 226 71 215 71Z" fill-rule="evenodd" clip-rule="evenodd"/></clipPath><clipPath id="clip5"><path d="M215 61 226 61 226 71 215 71Z" fill-rule="evenodd" clip-rule="evenodd"/></clipPath><clipPath id="clip6"><path d="M215 61 226 61 226 71 215 71Z" fill-rule="evenodd" clip-rule="evenodd"/></clipPath><clipPath id="clip7"><path d="M207 126 216 126 216 136 207 136Z" fill-rule="evenodd" clip-rule="evenodd"/></clipPath><clipPath id="clip8"><path d="M207 126 216 126 216 136 207 136Z" fill-rule="evenodd" clip-rule="evenodd"/></clipPath><clipPath id="clip9"><path d="M207 126 216 126 216 136 207 136Z" fill-rule="evenodd" clip-rule="evenodd"/></clipPath><clipPath id="clip10"><path d="M213 188 223 188 223 200 213 200Z" fill-rule="evenodd" clip-rule="evenodd"/></clipPath><clipPath id="clip11"><path d="M213 188 223 188 223 200 213 200Z" fill-rule="evenodd" clip-rule="evenodd"/></clipPath><clipPath id="clip12"><path d="M213 188 223 188 223 200 213 200Z" fill-rule="evenodd" clip-rule="evenodd"/></clipPath><clipPath id="clip13"><path d="M71 28 82 28 82 38 71 38Z" fill-rule="evenodd" clip-rule="evenodd"/></clipPath><clipPath id="clip14"><path d="M71 28 82 28 82 38 71 38Z" fill-rule="evenodd" clip-rule="evenodd"/></clipPath><clipPath id="clip15"><path d="M71 28 82 28 82 38 71 38Z" fill-rule="evenodd" clip-rule="evenodd"/></clipPath></defs><g clip-path="url(#clip0)"><rect x="0" y="0" width="265" height="265" fill="#313131"/><rect x="89.5" y="131.5" width="1.99999" height="1" stroke="#2F528F" stroke-width="1.33585" stroke-miterlimit="8" fill="#4472C4"/><path d="M23.5 9.75271C23.5 8.50859 24.5085 7.50003 25.7527 7.50003L249.247 7.50003C250.491 7.50003 251.5 8.50859 251.5 9.75271L251.5 249.247C251.5 250.491 250.491 251.5 249.247 251.5L25.7527 251.5C24.5085 251.5 23.5 250.491 23.5 249.247Z" stroke="#FF0000" stroke-width="0.667927" stroke-miterlimit="8" stroke-opacity="0" fill="none" fill-rule="evenodd"/><path d="M30.0794 43.5 149.921 43.5C153.002 43.5 155.5 45.998 155.5 49.0794L155.5 214.252C155.5 216.598 153.598 218.5 151.252 218.5L28.7483 218.5C26.402 218.5 24.5 216.598 24.5 214.252L24.5 49.0794C24.5 45.998 26.998 43.5 30.0794 43.5Z" stroke="#911EB4" stroke-width="4.67549" stroke-miterlimit="8" fill="#FFFFFF" fill-rule="evenodd"/><g clip-path="url(#clip1)"><g clip-path="url(#clip2)"><g clip-path="url(#clip3)"><path d="M41.3333 62.2426C39.5869 62.2426 38.1667 60.8279 38.1667 59.0901 38.1667 57.3524 39.5869 55.9385 41.3333 55.9385 43.0798 55.9385 44.5 57.3524 44.5 59.0901 44.5 60.8279 43.0798 62.2426 41.3333 62.2426ZM41.3333 57.5218C40.4601 57.5218 39.75 58.2256 39.75 59.0901 39.75 59.9546 40.4601 60.6584 41.3333 60.6584 42.2066 60.6584 42.9167 59.9546 42.9167 59.0901 42.9167 58.2256 42.2066 57.5218 41.3333 57.5218Z"/><path d="M48.4584 59.0957C46.7119 59.0957 45.2917 57.6818 45.2917 55.944 45.2917 54.2063 46.7119 52.7916 48.4584 52.7916 50.2048 52.7916 51.625 54.2055 51.625 55.9433 51.625 57.681 50.2048 59.0957 48.4584 59.0957ZM48.4584 54.375C47.5852 54.375 46.875 55.0788 46.875 55.9433 46.875 56.8078 47.5852 57.5115 48.4584 57.5115 49.3316 57.5115 50.0417 56.8078 50.0417 55.9433 50.0417 55.0788 49.3316 54.375 48.4584 54.375Z"/><path d="M46.0834 70.2083C45.6456 70.2083 45.2917 69.8545 45.2917 69.4167L45.2917 67.0068C45.2917 66.1146 44.5602 65.3894 43.6616 65.3894L39.0051 65.3894C38.1065 65.3894 37.375 66.1146 37.375 67.0068L37.375 69.4167C37.375 69.8545 37.0203 70.2083 36.5833 70.2083 36.1463 70.2083 35.7917 69.8545 35.7917 69.4167L35.7917 67.0068C35.7917 65.2422 37.2333 63.8061 39.0051 63.8061L43.6616 63.8061C45.4334 63.8061 46.875 65.2414 46.875 67.0068L46.875 69.4167C46.875 69.8545 46.5212 70.2083 46.0834 70.2083Z"/><path d="M53.2084 67.0607C52.7706 67.0607 52.4167 66.7068 52.4167 66.269L52.4167 63.8599C52.4167 62.9677 51.6805 62.2418 50.7764 62.2418L46.0834 62.2418C45.6456 62.2418 45.2917 61.8879 45.2917 61.4501 45.2917 61.0123 45.6456 60.6584 46.0834 60.6584L50.7764 60.6584C52.5537 60.6584 54 62.0945 54 63.8591L54 66.2682C54 66.7068 53.6462 67.0607 53.2084 67.0607Z"/></g></g></g><path d="M26.9702 6.36947C18.5628 6.36947 11.7473 10.3112 11.7473 15.1736L11.7473 248.948C11.7473 253.81 18.5628 257.752 26.9702 257.752L238.08 257.752C246.487 257.752 253.302 253.81 253.302 248.948L253.302 15.1736C253.302 10.3112 246.487 6.36947 238.08 6.36947ZM0 0 265 0 265 265 0 265Z" fill="#911EB4" fill-rule="evenodd"/><text font-family="Calibri,Calibri_MSFontService,sans-serif" font-weight="700" font-size="11" transform="translate(76.8848 63)">SEGMENT<tspan font-weight="400" font-size="9" x="-45.5945" y="57">Customer </tspan><tspan font-size="9" x="-6.18679" y="57">Segments</tspan><tspan font-weight="400" font-size="9" x="-45.5945" y="68">represent different groups of </tspan><tspan font-weight="400" font-size="9" x="-45.5945" y="79">like people (customers or </tspan><tspan font-weight="400" font-size="9" x="-45.5945" y="90">potential customers) based </tspan><tspan font-weight="400" font-size="9" x="-45.5945" y="102">on distinct needs and/or </tspan><tspan font-weight="400" font-size="9" x="-45.5945" y="113">characteristics. </tspan></text><path d="M215.5 63.5C215.5 62.9477 215.948 62.5 216.5 62.5L247.5 62.5C248.052 62.5 248.5 62.9477 248.5 63.5L248.5 67.4999C248.5 68.0522 248.052 68.4999 247.5 68.4999L216.5 68.4999C215.948 68.4999 215.5 68.0522 215.5 67.4999Z" stroke="#B74D41" stroke-width="1.33585" stroke-miterlimit="8" fill="#FFFFFF" fill-rule="evenodd"/><text font-family="Calibri,Calibri_MSFontService,sans-serif" font-weight="700" font-size="5" transform="translate(227.144 66)">PERSONA</text><g clip-path="url(#clip4)"><g clip-path="url(#clip5)"><g clip-path="url(#clip6)"><path d="M2.99999 4.87499C3.82499 4.87499 4.49999 4.19999 4.49999 3.37499 4.49999 2.54999 3.82499 1.87499 2.99999 1.87499 2.17499 1.87499 1.5 2.54999 1.5 3.37499 1.5 4.19999 2.17499 4.87499 2.99999 4.87499ZM2.99999 2.62499C3.41249 2.62499 3.74999 2.96249 3.74999 3.37499 3.74999 3.78749 3.41249 4.12499 2.99999 4.12499 2.58749 4.12499 2.24999 3.78749 2.24999 3.37499 2.24999 2.96249 2.58749 2.62499 2.99999 2.62499Z" transform="matrix(1.11111 0 -0 1 216 61)"/><path d="M8.24998 0.787498 6.74998 0.749998C6.74998 0.749998 6.74998 0.749998 6.74998 0.749998 6.56248 0.749998 6.41248 0.899997 6.41248 1.0875 6.41248 1.275 6.56248 1.4625 6.74998 1.4625L7.38748 1.4625 5.32498 3.52499C5.17498 3.67499 5.17498 3.89999 5.32498 4.04999 5.39998 4.12499 5.51248 4.16249 5.58748 4.16249 5.66248 4.16249 5.77498 4.12499 5.84998 4.04999L7.87498 2.02499 7.87498 2.62499C7.87498 2.81249 8.02498 2.96249 8.21248 2.96249 8.39997 2.96249 8.62497 2.81249 8.62497 2.62499L8.62497 1.125C8.62497 0.937497 8.47498 0.787498 8.24998 0.787498Z" transform="matrix(1.11111 0 -0 1 216 61)"/><path d="M4.12499 5.43748 1.91249 5.43748C1.05 5.43748 0.374999 6.11248 0.374999 6.93748L0.374999 8.06248C0.374999 8.24998 0.524998 8.43748 0.749998 8.43748 0.974997 8.43748 1.125 8.28748 1.125 8.06248L1.125 6.93748C1.125 6.52498 1.4625 6.18748 1.91249 6.18748L2.51249 6.18748 2.99999 7.12498 3.48749 6.18748 4.12499 6.18748C4.57499 6.18748 4.91249 6.52498 4.91249 6.93748L4.91249 8.06248C4.91249 8.24998 5.06249 8.43748 5.28748 8.43748 5.51248 8.43748 5.66248 8.28748 5.66248 8.06248L5.66248 6.93748C5.66248 6.11248 4.98749 5.43748 4.12499 5.43748Z" transform="matrix(1.11111 0 -0 1 216 61)"/></g></g></g><path d="M206.5 126.667C206.5 125.47 207.47 124.5 208.667 124.5L246.333 124.5C247.53 124.5 248.5 125.47 248.5 126.667L248.5 135.333C248.5 136.53 247.53 137.5 246.333 137.5L208.667 137.5C207.47 137.5 206.5 136.53 206.5 135.333Z" stroke="#F032E6" stroke-width="1.33585" stroke-miterlimit="8" fill="#FFFFFF" fill-rule="evenodd"/><text font-family="Calibri,Calibri_MSFontService,sans-serif" font-weight="700" font-size="5" transform="translate(218.151 129)">VALUE<tspan x="0" y="6">PROPOSITION</tspan></text><g clip-path="url(#clip7)"><g clip-path="url(#clip8)"><g clip-path="url(#clip9)"><path d="M214.875 129.75 208.125 129.75C207.918 129.75 207.75 129.918 207.75 130.125L207.75 131.625C207.75 131.832 207.918 132 208.125 132L208.5 132 208.5 134.25C208.5 134.457 208.668 134.625 208.875 134.625L214.125 134.625C214.332 134.625 214.5 134.457 214.5 134.25L214.5 132 214.875 132C215.082 132 215.25 131.832 215.25 131.625L215.25 130.125C215.25 129.918 215.082 129.75 214.875 129.75ZM213.75 133.875 209.25 133.875 209.25 132 213.75 132 213.75 133.875ZM214.5 131.25 214.125 131.25 208.875 131.25 208.5 131.25 208.5 130.5 214.5 130.5 214.5 131.25Z"/><path d="M211.223 129.26C211.299 129.336 211.4 129.375 211.5 129.375 211.6 129.375 211.7 129.336 211.777 129.26L212.885 128.15C213.038 127.997 213.038 127.749 212.885 127.595L211.777 126.485C211.63 126.338 211.37 126.338 211.223 126.485L210.115 127.595C209.961 127.749 209.961 127.997 210.115 128.15L211.223 129.26ZM211.5 127.318 212.054 127.873 211.5 128.428 210.946 127.873 211.5 127.318Z"/></g></g></g><path d="M213.5 189.667C213.5 188.47 214.47 187.5 215.667 187.5L246.333 187.5C247.53 187.5 248.5 188.47 248.5 189.667L248.5 198.333C248.5 199.53 247.53 200.5 246.333 200.5L215.667 200.5C214.47 200.5 213.5 199.53 213.5 198.333Z" stroke="#000080" stroke-width="1.33585" stroke-miterlimit="8" fill="#FFFFFF" fill-rule="evenodd"/><text font-family="Calibri,Calibri_MSFontService,sans-serif" font-weight="700" font-size="5" transform="translate(224.918 192)">BUSINESS<tspan x="0" y="6">OUTCOME</tspan></text><g clip-path="url(#clip10)"><g clip-path="url(#clip11)"><g clip-path="url(#clip12)"><path d="M8.62497 0.749998 3.36411 0.749998C3.15712 0.749998 2.98912 0.917997 2.98912 1.125L2.98912 1.5 0.374999 1.5C0.168 1.5 0 1.668 0 1.87499L0 6.37498C0 6.58236 0.168 6.74998 0.374999 6.74998L1.48575 6.74998 1.48575 7.49998C1.48575 7.70735 1.65375 7.87498 1.86074 7.87498L2.98912 7.87498 2.98912 8.24998C2.98912 8.45735 3.15712 8.62497 3.36411 8.62497L8.62497 8.62497C8.83235 8.62497 8.99997 8.45735 8.99997 8.24998L8.99997 1.125C8.99997 0.917997 8.83235 0.749998 8.62497 0.749998ZM0.749998 5.99998 0.749998 2.24999 2.98912 2.24999 2.98912 2.62499 1.86074 2.62499C1.65375 2.62499 1.48575 2.79299 1.48575 2.99999L1.48575 5.99998 0.749998 5.99998ZM2.23574 7.12498 2.23574 3.37499 2.98912 3.37499 2.98912 7.12498 2.23574 7.12498ZM8.24998 7.87498 3.73911 7.87498 3.73911 7.49998 3.73911 2.99999 3.73911 1.5 8.24998 1.5 8.24998 7.87498Z" transform="matrix(1 0 -0 1.11112 214 189)"/><path d="M4.49961 5.43748C4.61511 5.43748 4.72836 5.38386 4.80261 5.28411L5.60886 4.18424 6.42711 4.95411C6.51898 5.04036 6.64761 5.07411 6.77135 5.04599 6.8936 5.01674 6.9941 4.92786 7.03648 4.80936L7.85248 2.56574C7.92335 2.37112 7.82323 2.15587 7.62823 2.08499 7.43285 2.01449 7.21835 2.11462 7.14785 2.30924L6.52686 4.01774 5.81473 3.34762C5.73636 3.27412 5.63436 3.23774 5.52373 3.24749 5.41686 3.25724 5.31936 3.31237 5.25561 3.39899L4.19849 4.84086C4.07624 5.00811 4.11224 5.24248 4.27911 5.36473 4.34511 5.41423 4.42274 5.43748 4.49961 5.43748Z" transform="matrix(1 0 -0 1.11112 214 189)"/><path d="M4.49999 6.93748 7.49998 6.93748C7.70735 6.93748 7.87498 6.76986 7.87498 6.56248 7.87498 6.35511 7.70735 6.18748 7.49998 6.18748L4.49999 6.18748C4.29299 6.18748 4.12499 6.35511 4.12499 6.56248 4.12499 6.76986 4.29299 6.93748 4.49999 6.93748Z" transform="matrix(1 0 -0 1.11112 214 189)"/></g></g></g><path d="M164.561 124 196.439 124C200.615 124 204 126.91 204 130.5 204 134.09 200.615 137 196.439 137L164.561 137C160.385 137 157 134.09 157 130.5 157 126.91 160.385 124 164.561 124Z" fill="#313131" fill-rule="evenodd"/><text fill="#FFFFFF" font-family="Calibri,Calibri_MSFontService,sans-serif" font-weight="700" font-size="5" transform="translate(163.064 132)">|Beneficiary of&gt;</text><path d="M165.848 187 203.152 187C208.038 187 212 190.134 212 194 212 197.866 208.038 201 203.152 201L165.848 201C160.962 201 157 197.866 157 194 157 190.134 160.962 187 165.848 187Z" fill="#313131" fill-rule="evenodd"/><text fill="#FFFFFF" font-family="Calibri,Calibri_MSFontService,sans-serif" font-weight="700" font-size="5" transform="translate(177.675 196)">&lt;As a|</text><path d="M166.17 62 204.83 62C209.894 62 214 64.9102 214 68.5 214 72.0898 209.894 75 204.83 75L166.17 75C161.106 75 157 72.0898 157 68.5 157 64.9102 161.106 62 166.17 62Z" fill="#313131" fill-rule="evenodd"/><text fill="#FFFFFF" font-family="Calibri,Calibri_MSFontService,sans-serif" font-weight="700" font-size="5" transform="translate(164.4 71)">|Characterised By&gt;</text><path d="M84 41 89.5 38 95 41Z" fill="#FFFFFF" fill-rule="evenodd"/><path d="M71.5001 31.5C71.5001 30.9477 71.9478 30.5 72.5001 30.5L113.5 30.5C114.052 30.5 114.5 30.9477 114.5 31.5L114.5 35.5C114.5 36.0523 114.052 36.5 113.5 36.5L72.5001 36.5C71.9478 36.5 71.5001 36.0523 71.5001 35.5Z" stroke="#911EB4" stroke-width="1.33585" stroke-miterlimit="8" fill="#FFFFFF" fill-rule="evenodd"/><text font-family="Calibri,Calibri_MSFontService,sans-serif" font-weight="700" font-size="5" transform="translate(83.0711 34)">STAKEHOLDER</text><g clip-path="url(#clip13)"><g clip-path="url(#clip14)"><g clip-path="url(#clip15)"><path d="M77 32.5833C78.1666 32.5833 79.0833 31.6667 79.0833 30.5 79.0833 29.3334 78.1666 28.4167 77 28.4167 75.8333 28.4167 74.9166 29.3334 74.9166 30.5 74.9166 31.6667 75.8333 32.5833 77 32.5833ZM77 29.25C77.7083 29.25 78.25 29.7917 78.25 30.5 78.25 31.2083 77.7083 31.75 77 31.75 76.2916 31.75 75.75 31.2083 75.75 30.5 75.75 29.7917 76.2916 29.25 77 29.25Z"/><path d="M78.25 33.4167 75.75 33.4167C74.5833 33.4167 73.6667 34.3333 73.6667 35.5L73.6667 37.1667C73.6667 37.4167 73.8333 37.5833 74.0833 37.5833 74.3333 37.5833 74.5 37.4167 74.5 37.1667L74.5 35.5C74.5 34.7917 75.0416 34.25 75.75 34.25L76.1666 34.25 77 35.9167 77.8333 34.25 78.25 34.25C78.9583 34.25 79.5 34.7917 79.5 35.5L79.5 37.1667C79.5 37.4167 79.6666 37.5833 79.9166 37.5833 80.1666 37.5833 80.3333 37.4167 80.3333 37.1667L80.3333 35.5C80.3333 34.3333 79.4166 33.4167 78.25 33.4167Z"/></g></g></g></g></svg>