<svg width="189" height="189" xmlns="http://www.w3.org/2000/svg" xmlns:xlink="http://www.w3.org/1999/xlink" overflow="hidden"><defs><clipPath id="clip0"><path d="M0 0 189 0 189 189 0 189Z" fill-rule="evenodd" clip-rule="evenodd"/></clipPath><clipPath id="clip1"><path d="M3 3 47 3 47 48 3 48Z" fill-rule="evenodd" clip-rule="evenodd"/></clipPath><clipPath id="clip2"><path d="M3 3 47 3 47 48 3 48Z" fill-rule="evenodd" clip-rule="evenodd"/></clipPath><clipPath id="clip3"><path d="M3 3 47 3 47 48 3 48Z" fill-rule="evenodd" clip-rule="evenodd"/></clipPath></defs><g clip-path="url(#clip0)"><rect x="0" y="0" width="189" height="189" fill="#313131"/><text fill="#FFFFFF" font-family="Calibri,Calibri_MSFontService,sans-serif" font-weight="300" font-size="11" transform="translate(9.60032 -5)">STAKEHOLDER</text><rect x="3.50005" y="3.50005" width="1" height="1" stroke="#2F528F" stroke-width="1.33333" stroke-miterlimit="8" fill="#4472C4"/><rect x="0" y="0" width="189" height="189" stroke="#911EB4" stroke-width="8" stroke-miterlimit="8" fill="#FFFFFF"/><g clip-path="url(#clip1)"><g clip-path="url(#clip2)"><g clip-path="url(#clip3)"><path d="M22 20.1667C27.1333 20.1667 31.1667 16.1333 31.1667 11 31.1667 5.86667 27.1333 1.83333 22 1.83333 16.8667 1.83333 12.8333 5.86667 12.8333 11 12.8333 16.1333 16.8667 20.1667 22 20.1667ZM22 5.5C25.1167 5.5 27.5 7.88333 27.5 11 27.5 14.1167 25.1167 16.5 22 16.5 18.8833 16.5 16.5 14.1167 16.5 11 16.5 7.88333 18.8833 5.5 22 5.5Z" transform="matrix(1 0 -0 1.02273 3 3)"/><path d="M27.5 23.8333 16.5 23.8333C11.3667 23.8333 7.33333 27.8667 7.33333 33L7.33333 40.3333C7.33333 41.4333 8.06667 42.1667 9.16667 42.1667 10.2667 42.1667 11 41.4333 11 40.3333L11 33C11 29.8833 13.3833 27.5 16.5 27.5L18.3333 27.5 22 34.8333 25.6667 27.5 27.5 27.5C30.6167 27.5 33 29.8833 33 33L33 40.3333C33 41.4333 33.7333 42.1667 34.8333 42.1667 35.9333 42.1667 36.6667 41.4333 36.6667 40.3333L36.6667 33C36.6667 27.8667 32.6333 23.8333 27.5 23.8333Z" transform="matrix(1 0 -0 1.02273 3 3)"/></g></g></g><text font-family="Calibri,Calibri_MSFontService,sans-serif" font-weight="700" font-size="20" transform="translate(57.1781 23)">STAKEHOLDER<tspan font-weight="400" font-size="12" x="-50.6391" y="78">A </tspan><tspan font-size="12" x="-40.9724" y="78">Stakeholder</tspan><tspan font-weight="400" font-size="12" x="22.1942" y="78">is a broad definition </tspan><tspan font-weight="400" font-size="12" x="-50.6391" y="93">for anybody who is interested in or </tspan><tspan font-weight="400" font-size="12" x="-50.6391" y="107">anybody who is the target recipient </tspan><tspan font-weight="400" font-size="12" x="-50.6391" y="121">of a </tspan><tspan font-size="12" x="-29.6391" y="121">Product</tspan><tspan font-weight="400" font-size="12" x="12.3609" y="121">or an </tspan><tspan font-size="12" x="40.1942" y="121">Offering</tspan><tspan font-weight="400" font-size="12" x="81.5276" y="121">. </tspan></text></g></svg>