<svg width="189" height="189" xmlns="http://www.w3.org/2000/svg" xmlns:xlink="http://www.w3.org/1999/xlink" overflow="hidden"><defs><clipPath id="clip0"><path d="M0 0 189 0 189 189 0 189Z" fill-rule="evenodd" clip-rule="evenodd"/></clipPath><clipPath id="clip1"><path d="M3 3 47 3 47 48 3 48Z" fill-rule="evenodd" clip-rule="evenodd"/></clipPath><clipPath id="clip2"><path d="M3 3 47 3 47 48 3 48Z" fill-rule="evenodd" clip-rule="evenodd"/></clipPath><clipPath id="clip3"><path d="M3 3 47 3 47 48 3 48Z" fill-rule="evenodd" clip-rule="evenodd"/></clipPath></defs><g clip-path="url(#clip0)"><rect x="0" y="0" width="189" height="189" fill="#313131"/><text fill="#FFFFFF" font-family="Calibri,Calibri_MSFontService,sans-serif" font-weight="300" font-size="11" transform="translate(9.60032 -5)">USER JOURNEY</text><rect x="3.50005" y="3.50005" width="1" height="1" stroke="#2F528F" stroke-width="1.33333" stroke-miterlimit="8" fill="#4472C4"/><rect x="0" y="0" width="189" height="189" stroke="#F032E6" stroke-width="8" stroke-miterlimit="8" fill="#FFFFFF"/><g clip-path="url(#clip1)"><g clip-path="url(#clip2)"><g clip-path="url(#clip3)"><path d="M22 15.5833C26.0443 15.5833 29.3333 12.2943 29.3333 8.25 29.3333 4.20567 26.0443 0.916667 22 0.916667 17.9557 0.916667 14.6667 4.20567 14.6667 8.25 14.6667 12.2943 17.9557 15.5833 22 15.5833ZM22 4.58333C24.0222 4.58333 25.6667 6.22783 25.6667 8.25 25.6667 10.2722 24.0222 11.9167 22 11.9167 19.9778 11.9167 18.3333 10.2722 18.3333 8.25 18.3333 6.22783 19.9778 4.58333 22 4.58333Z" transform="matrix(1 0 -0 1.02273 3 3)"/><path d="M36.6667 32.0833C34.2797 32.0833 32.2648 33.6215 31.5058 35.75L27.1627 35.75C26.4037 33.6215 24.387 32.0833 22.0018 32.0833 19.6167 32.0833 17.6 33.6215 16.8392 35.75L12.496 35.75C11.7352 33.6215 9.72033 32.0833 7.33333 32.0833 4.301 32.0833 1.83333 34.551 1.83333 37.5833 1.83333 40.6157 4.301 43.0833 7.33333 43.0833 9.72033 43.0833 11.7352 41.5452 12.496 39.4167L16.8392 39.4167C17.5982 41.5452 19.6148 43.0833 22 43.0833 24.3852 43.0833 26.4018 41.5452 27.1608 39.4167L31.504 39.4167C32.263 41.5452 34.2797 43.0833 36.6648 43.0833 39.6972 43.0833 42.1648 40.6157 42.1648 37.5833 42.1648 34.551 39.699 32.0833 36.6667 32.0833ZM7.33333 39.4167C6.32317 39.4167 5.5 38.5953 5.5 37.5833 5.5 36.5713 6.32317 35.75 7.33333 35.75 8.3435 35.75 9.16667 36.5713 9.16667 37.5833 9.16667 38.5953 8.3435 39.4167 7.33333 39.4167ZM22 39.4167C20.9898 39.4167 20.1667 38.5953 20.1667 37.5833 20.1667 36.5713 20.9898 35.75 22 35.75 23.012 35.75 23.8333 36.5713 23.8333 37.5833 23.8333 38.5953 23.012 39.4167 22 39.4167ZM36.6667 39.4167C35.6547 39.4167 34.8333 38.5953 34.8333 37.5833 34.8333 36.5713 35.6547 35.75 36.6667 35.75 37.6787 35.75 38.5 36.5713 38.5 37.5833 38.5 38.5953 37.6787 39.4167 36.6667 39.4167Z" transform="matrix(1 0 -0 1.02273 3 3)"/><path d="M12.8333 32.0833C13.8453 32.0833 14.6667 31.2638 14.6667 30.25L14.6667 24.75C14.6667 22.7278 16.3112 21.0833 18.3333 21.0833L25.6667 21.0833C27.6888 21.0833 29.3333 22.7278 29.3333 24.75L29.3333 30.25C29.3333 31.2638 30.1528 32.0833 31.1667 32.0833 32.1805 32.0833 33 31.2638 33 30.25L33 24.75C33 20.7057 29.711 17.4167 25.6667 17.4167L18.3333 17.4167C14.289 17.4167 11 20.7057 11 24.75L11 30.25C11 31.2638 11.8213 32.0833 12.8333 32.0833Z" transform="matrix(1 0 -0 1.02273 3 3)"/></g></g></g><text font-family="Calibri,Calibri_MSFontService,sans-serif" font-weight="700" font-size="20" transform="translate(53.7114 23)">USER JOURNEY<tspan font-weight="400" font-size="12" x="-47.1724" y="78">The </tspan><tspan font-size="12" x="-26.3391" y="78">User Journey</tspan><tspan font-weight="400" font-size="12" x="41.4942" y="78">is the complete </tspan><tspan font-weight="400" font-size="12" x="-47.1724" y="93">sum of experiences that customers </tspan><tspan font-weight="400" font-size="12" x="-47.1724" y="107">go through when interacting with </tspan><tspan font-weight="400" font-size="12" x="-47.1724" y="121">an organization.</tspan></text></g></svg>