<svg width="265" height="265" xmlns="http://www.w3.org/2000/svg" xmlns:xlink="http://www.w3.org/1999/xlink" overflow="hidden"><defs><clipPath id="clip0"><path d="M0 0 265 0 265 265 0 265Z" fill-rule="evenodd" clip-rule="evenodd"/></clipPath><clipPath id="clip1"><path d="M35 51 55 51 55 71 35 71Z" fill-rule="evenodd" clip-rule="evenodd"/></clipPath><clipPath id="clip2"><path d="M35 51 55 51 55 71 35 71Z" fill-rule="evenodd" clip-rule="evenodd"/></clipPath><clipPath id="clip3"><path d="M35 51 55 51 55 71 35 71Z" fill-rule="evenodd" clip-rule="evenodd"/></clipPath><clipPath id="clip4"><path d="M223 61 234 61 234 71 223 71Z" fill-rule="evenodd" clip-rule="evenodd"/></clipPath><clipPath id="clip5"><path d="M223 61 234 61 234 71 223 71Z" fill-rule="evenodd" clip-rule="evenodd"/></clipPath><clipPath id="clip6"><path d="M223 61 234 61 234 71 223 71Z" fill-rule="evenodd" clip-rule="evenodd"/></clipPath><clipPath id="clip7"><path d="M210 124 219 124 219 134 210 134Z" fill-rule="evenodd" clip-rule="evenodd"/></clipPath><clipPath id="clip8"><path d="M210 124 219 124 219 134 210 134Z" fill-rule="evenodd" clip-rule="evenodd"/></clipPath><clipPath id="clip9"><path d="M210 124 219 124 219 134 210 134Z" fill-rule="evenodd" clip-rule="evenodd"/></clipPath><clipPath id="clip10"><path d="M214 186 224 186 224 198 214 198Z" fill-rule="evenodd" clip-rule="evenodd"/></clipPath><clipPath id="clip11"><path d="M214 186 224 186 224 198 214 198Z" fill-rule="evenodd" clip-rule="evenodd"/></clipPath><clipPath id="clip12"><path d="M214 186 224 186 224 198 214 198Z" fill-rule="evenodd" clip-rule="evenodd"/></clipPath></defs><g clip-path="url(#clip0)"><rect x="0" y="0" width="265" height="265" fill="#313131"/><rect x="89.5" y="131.5" width="1.99999" height="1" stroke="#2F528F" stroke-width="1.33585" stroke-miterlimit="8" fill="#4472C4"/><path d="M23.5 9.75271C23.5 8.50859 24.5085 7.50003 25.7527 7.50003L249.247 7.50003C250.491 7.50003 251.5 8.50859 251.5 9.75271L251.5 249.247C251.5 250.491 250.491 251.5 249.247 251.5L25.7527 251.5C24.5085 251.5 23.5 250.491 23.5 249.247Z" stroke="#FF0000" stroke-width="0.667927" stroke-miterlimit="8" stroke-opacity="0" fill="none" fill-rule="evenodd"/><path d="M30.0794 43.5 149.921 43.5C153.002 43.5 155.5 45.998 155.5 49.0794L155.5 214.252C155.5 216.598 153.598 218.5 151.252 218.5L28.7483 218.5C26.402 218.5 24.5 216.598 24.5 214.252L24.5 49.0794C24.5 45.998 26.998 43.5 30.0794 43.5Z" stroke="#E6BEFF" stroke-width="4.67549" stroke-miterlimit="8" fill="#FFFFFF" fill-rule="evenodd"/><g clip-path="url(#clip1)"><g clip-path="url(#clip2)"><g clip-path="url(#clip3)"><path d="M53.1047 69.0248 51.6543 64.6666 53.153 60.1668C53.1775 60.0892 53.1902 60.0093 53.1918 59.9285 53.191 59.9246 53.1925 59.9206 53.1925 59.9166 53.1925 59.9024 53.1854 59.8913 53.1846 59.8778 53.1815 59.8264 53.1815 59.7749 53.168 59.7251L51.5863 53.3917C51.4984 53.0386 51.1825 52.7916 50.8199 52.7916L36.5825 52.7916C36.3387 52.7916 36.1083 52.904 35.9595 53.0964 35.8099 53.2888 35.756 53.539 35.8154 53.7757L37.3418 59.885 35.8328 64.4165C35.779 64.5788 35.779 64.7553 35.8328 64.9176L37.4146 69.6676C37.5223 69.9906 37.8231 70.2083 38.1651 70.2083L52.4025 70.2083C52.4088 70.2091 52.4151 70.2083 52.4183 70.2083 52.8553 70.2083 53.2084 69.8545 53.2084 69.4167 53.2084 69.2742 53.1712 69.1396 53.1047 69.0248ZM38.7351 68.625 37.6806 65.4583 39.7461 65.4583C40.1823 65.4583 40.5369 65.1044 40.5369 64.6666 40.5369 64.2289 40.1823 63.875 39.7461 63.875L37.6806 63.875 38.7351 60.7083 42.1511 60.7083C42.5874 60.7083 42.9428 60.3536 42.9428 59.9166 42.9428 59.4796 42.5881 59.125 42.1511 59.125L38.7826 59.125 37.5959 54.375 50.2016 54.375 51.3883 59.125 50.029 59.125C49.5912 59.125 49.2382 59.4796 49.2382 59.9166 49.2382 60.3536 49.5912 60.7083 50.029 60.7083L51.3028 60.7083 50.2491 63.875 47.6556 63.875C47.2186 63.875 46.8647 64.2289 46.8647 64.6666 46.8647 65.1044 47.2186 65.4583 47.6556 65.4583L50.2491 65.4583 51.3028 68.625 38.7351 68.625Z"/><path d="M43.3062 63.875C42.2161 63.875 41.3286 64.7624 41.3286 65.8542 41.3286 66.9459 42.2161 67.8333 43.3062 67.8333 44.3963 67.8333 45.2838 66.9459 45.2838 65.8542 45.2838 64.7624 44.3963 63.875 43.3062 63.875ZM43.3062 66.25C43.0877 66.25 42.9104 66.0719 42.9104 65.8542 42.9104 65.6364 43.0877 65.4583 43.3062 65.4583 43.5239 65.4583 43.702 65.6364 43.702 65.8542 43.702 66.0719 43.5239 66.25 43.3062 66.25Z"/><path d="M48.2153 57.7736 46.6336 56.1903C46.324 55.8807 45.8237 55.8807 45.5149 56.1903 45.2054 56.4998 45.2054 57.0001 45.5149 57.3097L46.6621 58.4576 44.6314 61.8744C44.4082 62.2505 44.5309 62.735 44.9085 62.9598 45.0344 63.0358 45.1737 63.0714 45.3115 63.0714 45.5814 63.0714 45.8443 62.9337 45.9907 62.6851L48.3365 58.7394C48.5209 58.4267 48.4702 58.0293 48.2153 57.7736Z"/><path d="M43.7012 57.5416 43.7012 55.9583C43.7012 55.5213 43.3466 55.1666 42.9104 55.1666L41.3286 55.1666C40.8916 55.1666 40.5377 55.5213 40.5377 55.9583L40.5377 57.5416C40.5377 57.9786 40.8924 58.3333 41.3286 58.3333L42.9111 58.3333C43.3466 58.3333 43.7012 57.9786 43.7012 57.5416Z"/></g></g></g><path d="M26.9702 6.36947C18.5628 6.36947 11.7473 10.3112 11.7473 15.1736L11.7473 248.948C11.7473 253.81 18.5628 257.752 26.9702 257.752L238.08 257.752C246.487 257.752 253.302 253.81 253.302 248.948L253.302 15.1736C253.302 10.3112 246.487 6.36947 238.08 6.36947ZM0 0 265 0 265 265 0 265Z" fill="#E6BEFF" fill-rule="evenodd"/><text font-family="Calibri,Calibri_MSFontService,sans-serif" font-weight="700" font-size="11" transform="translate(75.9664 63)">STRATEGY<tspan font-weight="400" font-size="9" x="-44.6761" y="68">A </tspan><tspan font-size="9" x="-37.1619" y="68">Strategy</tspan><tspan font-weight="400" font-size="9" x="-2.59671" y="68">represents an </tspan><tspan font-weight="400" font-size="9" x="-44.6761" y="79">essential </tspan><tspan font-size="9" x="-8.94202" y="79">Course of Action</tspan><tspan font-weight="400" font-size="9" x="-44.6761" y="90">that will be sustained in </tspan><tspan font-weight="400" font-size="9" x="-44.6761" y="101">pursuit of a </tspan><tspan font-size="9" x="1.07689" y="101">Goal</tspan><tspan font-weight="400" font-size="9" x="19.1109" y="101">.</tspan></text><path d="M223.5 63.5C223.5 62.9477 223.948 62.5 224.5 62.5L247.5 62.5C248.052 62.5 248.5 62.9477 248.5 63.5L248.5 67.4999C248.5 68.0522 248.052 68.5 247.5 68.5L224.5 68.5C223.948 68.5 223.5 68.0522 223.5 67.4999Z" stroke="#F58230" stroke-width="1.33585" stroke-miterlimit="8" fill="#FFFFFF" fill-rule="evenodd"/><text font-family="Calibri,Calibri_MSFontService,sans-serif" font-weight="700" font-size="5" transform="translate(234.738 66)">GOAL</text><g clip-path="url(#clip4)"><g clip-path="url(#clip5)"><g clip-path="url(#clip6)"><path d="M7.21873 2.24999 5.62498 2.24999 5.62498 1.5 2.62499 1.5 2.62499 1.125C2.62499 0.917997 2.45699 0.749998 2.24999 0.749998 2.04299 0.749998 1.87499 0.917997 1.87499 1.125L1.87499 1.5 1.87499 4.49999 1.87499 7.87498C1.87499 8.08235 2.04299 8.24998 2.24999 8.24998 2.45699 8.24998 2.62499 8.08235 2.62499 7.87498L2.62499 4.49999 4.87499 4.49999 4.87499 5.24998 7.21873 5.24998C7.58623 5.24998 7.87498 4.92036 7.87498 4.49999L7.87498 2.99999C7.87498 2.57924 7.58623 2.24999 7.21873 2.24999ZM2.62499 3.74999 2.62499 2.24999 4.87499 2.24999 4.87499 3.74999 2.62499 3.74999ZM7.12498 4.49999 5.62498 4.49999 5.62498 2.99999 7.12498 2.99999 7.12498 4.49999Z" transform="matrix(1.00001 0 -0 1 224 61)"/></g></g></g><path d="M209.5 126.667C209.5 126.022 210.022 125.5 210.667 125.5L247.333 125.5C247.978 125.5 248.5 126.022 248.5 126.667L248.5 131.333C248.5 131.978 247.978 132.5 247.333 132.5L210.667 132.5C210.022 132.5 209.5 131.978 209.5 131.333Z" stroke="#E6194B" stroke-width="1.33585" stroke-miterlimit="8" fill="#FFFFFF" fill-rule="evenodd"/><text font-family="Calibri,Calibri_MSFontService,sans-serif" font-weight="700" font-size="5" transform="translate(220.505 130)">LEGISLATION</text><g clip-path="url(#clip7)"><g clip-path="url(#clip8)"><g clip-path="url(#clip9)"><path d="M217.875 130.375 216.75 130.375 216.75 124.75C216.75 124.543 216.582 124.375 216.375 124.375L211.125 124.375C210.918 124.375 210.75 124.543 210.75 124.75L210.75 130.75C210.75 131.784 211.591 132.625 212.625 132.625L216.375 132.625C217.409 132.625 218.25 131.784 218.25 130.75 218.25 130.543 218.082 130.375 217.875 130.375ZM211.5 130.75 211.5 125.125 216 125.125 216 130.375 214.125 130.375C213.918 130.375 213.75 130.543 213.75 130.75 213.75 131.37 213.245 131.875 212.625 131.875 212.005 131.875 211.5 131.37 211.5 130.75ZM216.375 131.875 214.116 131.875C214.281 131.656 214.405 131.404 214.462 131.125L217.431 131.125C217.275 131.56 216.863 131.875 216.375 131.875Z"/><path d="M212.625 127 214.875 127C215.082 127 215.25 126.832 215.25 126.625 215.25 126.418 215.082 126.25 214.875 126.25L212.625 126.25C212.418 126.25 212.25 126.418 212.25 126.625 212.25 126.832 212.418 127 212.625 127Z"/><path d="M212.625 128.5 214.125 128.5C214.332 128.5 214.5 128.332 214.5 128.125 214.5 127.918 214.332 127.75 214.125 127.75L212.625 127.75C212.418 127.75 212.25 127.918 212.25 128.125 212.25 128.332 212.418 128.5 212.625 128.5Z"/><path d="M214.875 130C215.082 130 215.25 129.832 215.25 129.625 215.25 129.418 215.082 129.25 214.875 129.25L212.625 129.25C212.418 129.25 212.25 129.418 212.25 129.625 212.25 129.832 212.418 130 212.625 130L214.875 130Z"/></g></g></g><path d="M214.5 190.5C214.5 189.948 214.948 189.5 215.5 189.5L247.5 189.5C248.052 189.5 248.5 189.948 248.5 190.5L248.5 194.5C248.5 195.052 248.052 195.5 247.5 195.5L215.5 195.5C214.948 195.5 214.5 195.052 214.5 194.5Z" stroke="#46F0F0" stroke-width="1.33585" stroke-miterlimit="8" fill="#FFFFFF" fill-rule="evenodd"/><text font-family="Calibri,Calibri_MSFontService,sans-serif" font-weight="700" font-size="5" transform="translate(225.442 193)">INITIATIVE</text><g clip-path="url(#clip10)"><g clip-path="url(#clip11)"><g clip-path="url(#clip12)"><path d="M3.74999 4.77449C4.57686 4.77449 5.24998 4.11824 5.24998 3.31124 5.24998 2.50387 4.57686 1.84762 3.74999 1.84762 2.92274 1.84762 2.24999 2.50424 2.24999 3.31124 2.24999 4.11824 2.92274 4.77449 3.74999 4.77449ZM3.74999 2.57962C4.16399 2.57962 4.49999 2.90774 4.49999 3.31162 4.49999 3.71549 4.16399 4.04361 3.74999 4.04361 3.33637 4.04361 2.99999 3.71549 2.99999 3.31162 2.99999 2.90774 3.33637 2.57962 3.74999 2.57962Z" transform="matrix(1 0 -0 1.11112 215 187)"/><path d="M7.49998 0.749998C7.2926 0.749998 7.12498 0.913872 7.12498 1.116L7.12498 3.54186 7.12498 3.67724 7.12498 3.70986C7.12498 4.70661 6.29473 5.51736 5.27398 5.51736L3.72599 5.51736C2.29162 5.51773 1.125 6.57936 1.125 7.8836 1.125 8.08573 1.293 8.24998 1.5 8.24998 1.707 8.24998 1.87499 8.08573 1.87499 7.8836 1.87499 6.98285 2.70524 6.24936 3.72599 6.24936L5.27398 6.24936C6.70798 6.24936 7.87535 5.11049 7.87535 3.71024L7.87535 3.67724 7.87535 3.54186 7.87535 1.116C7.87498 0.913872 7.70735 0.749998 7.49998 0.749998Z" transform="matrix(1 0 -0 1.11112 215 187)"/><path d="M5.99998 6.60411C5.79261 6.60411 5.62498 6.76835 5.62498 6.97085L5.62498 7.70248C5.62498 7.9046 5.79261 8.06848 5.99998 8.06848 6.20736 8.06848 6.37498 7.9046 6.37498 7.70248L6.37498 6.97085C6.37498 6.76835 6.20736 6.60411 5.99998 6.60411Z" transform="matrix(1 0 -0 1.11112 215 187)"/></g></g></g><path d="M165.044 125 198.956 125C203.399 125 207 128.134 207 132 207 135.866 203.399 139 198.956 139L165.044 139C160.601 139 157 135.866 157 132 157 128.134 160.601 125 165.044 125Z" fill="#313131" fill-rule="evenodd"/><text fill="#FFFFFF" font-family="Calibri,Calibri_MSFontService,sans-serif" font-weight="700" font-size="5" transform="translate(170.495 134)">&lt;Governs|</text><path d="M165.848 189 203.152 189C208.038 189 212 191.91 212 195.5 212 199.09 208.038 202 203.152 202L165.848 202C160.962 202 157 199.09 157 195.5 157 191.91 160.962 189 165.848 189Z" fill="#313131" fill-rule="evenodd"/><text fill="#FFFFFF" font-family="Calibri,Calibri_MSFontService,sans-serif" font-weight="700" font-size="5" transform="translate(164.066 197)">|Implemented by&gt;</text><path d="M167.457 62 211.543 62C217.318 62 222 64.9102 222 68.5 222 72.0898 217.318 75 211.543 75L167.457 75C161.682 75 157 72.0898 157 68.5 157 64.9102 161.682 62 167.457 62Z" fill="#313131" fill-rule="evenodd"/><text fill="#FFFFFF" font-family="Calibri,Calibri_MSFontService,sans-serif" font-weight="700" font-size="5" transform="translate(172.833 71)">&lt;Sustained by|</text></g></svg>