<svg width="265" height="265" xmlns="http://www.w3.org/2000/svg" xmlns:xlink="http://www.w3.org/1999/xlink" overflow="hidden"><defs><clipPath id="clip0"><path d="M0 0 265 0 265 265 0 265Z" fill-rule="evenodd" clip-rule="evenodd"/></clipPath><clipPath id="clip1"><path d="M35 51 55 51 55 71 35 71Z" fill-rule="evenodd" clip-rule="evenodd"/></clipPath><clipPath id="clip2"><path d="M35 51 55 51 55 71 35 71Z" fill-rule="evenodd" clip-rule="evenodd"/></clipPath><clipPath id="clip3"><path d="M35 51 55 51 55 71 35 71Z" fill-rule="evenodd" clip-rule="evenodd"/></clipPath><clipPath id="clip4"><path d="M215 49 226 49 226 60 215 60Z" fill-rule="evenodd" clip-rule="evenodd"/></clipPath><clipPath id="clip5"><path d="M215 49 226 49 226 60 215 60Z" fill-rule="evenodd" clip-rule="evenodd"/></clipPath><clipPath id="clip6"><path d="M215 49 226 49 226 60 215 60Z" fill-rule="evenodd" clip-rule="evenodd"/></clipPath><clipPath id="clip7"><path d="M224 99 235 99 235 108 224 108Z" fill-rule="evenodd" clip-rule="evenodd"/></clipPath><clipPath id="clip8"><path d="M224 99 235 99 235 108 224 108Z" fill-rule="evenodd" clip-rule="evenodd"/></clipPath><clipPath id="clip9"><path d="M224 99 235 99 235 108 224 108Z" fill-rule="evenodd" clip-rule="evenodd"/></clipPath><clipPath id="clip10"><path d="M206 148 215 148 215 160 206 160Z" fill-rule="evenodd" clip-rule="evenodd"/></clipPath><clipPath id="clip11"><path d="M206 148 215 148 215 160 206 160Z" fill-rule="evenodd" clip-rule="evenodd"/></clipPath><clipPath id="clip12"><path d="M206 148 215 148 215 160 206 160Z" fill-rule="evenodd" clip-rule="evenodd"/></clipPath><clipPath id="clip13"><path d="M216 202 227 202 227 212 216 212Z" fill-rule="evenodd" clip-rule="evenodd"/></clipPath><clipPath id="clip14"><path d="M216 202 227 202 227 212 216 212Z" fill-rule="evenodd" clip-rule="evenodd"/></clipPath><clipPath id="clip15"><path d="M216 202 227 202 227 212 216 212Z" fill-rule="evenodd" clip-rule="evenodd"/></clipPath><clipPath id="clip16"><path d="M71 30 82 30 82 39 71 39Z" fill-rule="evenodd" clip-rule="evenodd"/></clipPath><clipPath id="clip17"><path d="M71 30 82 30 82 39 71 39Z" fill-rule="evenodd" clip-rule="evenodd"/></clipPath><clipPath id="clip18"><path d="M71 30 82 30 82 39 71 39Z" fill-rule="evenodd" clip-rule="evenodd"/></clipPath></defs><g clip-path="url(#clip0)"><rect x="0" y="0" width="265" height="265" fill="#313131"/><rect x="89.5" y="131.5" width="1.99999" height="1" stroke="#2F528F" stroke-width="1.33585" stroke-miterlimit="8" fill="#4472C4"/><path d="M23.5 9.75271C23.5 8.50859 24.5085 7.50003 25.7527 7.50003L249.247 7.50003C250.491 7.50003 251.5 8.50859 251.5 9.75271L251.5 249.247C251.5 250.491 250.491 251.5 249.247 251.5L25.7527 251.5C24.5085 251.5 23.5 250.491 23.5 249.247Z" stroke="#FF0000" stroke-width="0.667927" stroke-miterlimit="8" stroke-opacity="0" fill="none" fill-rule="evenodd"/><path d="M30.0794 43.5 149.921 43.5C153.002 43.5 155.5 45.998 155.5 49.0794L155.5 214.252C155.5 216.598 153.598 218.5 151.252 218.5L28.7483 218.5C26.402 218.5 24.5 216.598 24.5 214.252L24.5 49.0794C24.5 45.998 26.998 43.5 30.0794 43.5Z" stroke="#46F0F0" stroke-width="4.67549" stroke-miterlimit="8" fill="#FFFFFF" fill-rule="evenodd"/><g clip-path="url(#clip1)"><g clip-path="url(#clip2)"><g clip-path="url(#clip3)"><path d="M44.5602 64.1901 44.5618 64.1917 48.4584 60.1383 47.4846 59.125 44.5602 62.165 43.0988 60.645 42.125 61.6583 44.5602 64.1917Z"/><path d="M50.8334 53.5833 38.9583 53.5833C38.5213 53.5833 38.1667 53.938 38.1667 54.375L38.1667 57.5416 37.375 57.5416C36.938 57.5416 36.5833 57.8963 36.5833 58.3333 36.5833 58.7703 36.938 59.125 37.375 59.125L38.1667 59.125 38.1667 60.7083 37.375 60.7083C36.938 60.7083 36.5833 61.063 36.5833 61.5 36.5833 61.9378 36.938 62.2916 37.375 62.2916L38.1667 62.2916 38.1667 63.875 37.375 63.875C36.938 63.875 36.5833 64.2289 36.5833 64.6666 36.5833 65.1044 36.938 65.4583 37.375 65.4583L38.1667 65.4583 38.1667 68.625C38.1667 69.0628 38.5213 69.4167 38.9583 69.4167L50.8334 69.4167C51.2712 69.4167 51.625 69.0628 51.625 68.625L51.625 54.375C51.625 53.938 51.2712 53.5833 50.8334 53.5833ZM50.0417 67.8333 39.75 67.8333 39.75 65.4583 40.5417 65.4583C40.9787 65.4583 41.3334 65.1044 41.3334 64.6666 41.3334 64.2289 40.9787 63.875 40.5417 63.875L39.75 63.875 39.75 62.2916 40.5417 62.2916C40.9787 62.2916 41.3334 61.9378 41.3334 61.5 41.3334 61.063 40.9787 60.7083 40.5417 60.7083L39.75 60.7083 39.75 59.125 40.5417 59.125C40.9787 59.125 41.3334 58.7703 41.3334 58.3333 41.3334 57.8963 40.9787 57.5416 40.5417 57.5416L39.75 57.5416 39.75 55.1666 50.0417 55.1666 50.0417 67.8333Z"/></g></g></g><path d="M26.9702 6.36947C18.5628 6.36947 11.7473 10.3112 11.7473 15.1736L11.7473 248.948C11.7473 253.81 18.5628 257.752 26.9702 257.752L238.08 257.752C246.487 257.752 253.302 253.81 253.302 248.948L253.302 15.1736C253.302 10.3112 246.487 6.36947 238.08 6.36947ZM0 0 265 0 265 265 0 265Z" fill="#46F0F0" fill-rule="evenodd"/><text font-family="Calibri,Calibri_MSFontService,sans-serif" font-weight="700" font-size="11" transform="translate(67.0329 63)">PROJECT TASK<tspan font-weight="400" font-size="9" x="-35.7426" y="57">A </tspan><tspan font-size="9" x="-28.2284" y="57">Project Task</tspan><tspan font-weight="400" font-size="9" x="21.0312" y="57">(sometimes </tspan><tspan font-weight="400" font-size="9" x="-35.7426" y="68">called an </tspan><tspan font-size="9" x="0.325493" y="68">Issue</tspan><tspan font-weight="400" font-size="9" x="19.8624" y="68">) is a granular </tspan><tspan font-weight="400" font-size="9" x="-35.7426" y="79">element of work that delivers </tspan><tspan font-weight="400" font-size="9" x="-35.7426" y="90">some progress towards the </tspan><tspan font-weight="400" font-size="9" x="-35.7426" y="102">enablement of a business </tspan><tspan font-size="9" x="-35.7426" y="113">Requirement</tspan><tspan font-weight="400" font-size="9" x="15.1869" y="113">.</tspan></text><path d="M215.5 50.5C215.5 49.3955 216.395 48.5 217.5 48.5L246.5 48.5C247.605 48.5 248.5 49.3955 248.5 50.5L248.5 58.5C248.5 59.6045 247.605 60.5 246.5 60.5L217.5 60.5C216.395 60.5 215.5 59.6045 215.5 58.5Z" stroke="#B74D41" stroke-width="1.33585" stroke-miterlimit="8" fill="#FFFFFF" fill-rule="evenodd"/><text font-family="Calibri,Calibri_MSFontService,sans-serif" font-weight="700" font-size="5" transform="translate(227.215 53)">TEAM<tspan x="0" y="6">MEMBER</tspan></text><g clip-path="url(#clip4)"><g clip-path="url(#clip5)"><g clip-path="url(#clip6)"><path d="M4.12504 4.50004C3.30003 4.50004 2.62502 3.82503 2.62502 3.00003 2.62502 2.17502 3.30003 1.50001 4.12504 1.50001 4.95004 1.50001 5.62505 2.17502 5.62505 3.00003 5.62505 3.82503 4.95004 4.50004 4.12504 4.50004ZM4.12504 2.25002C3.71253 2.25002 3.37503 2.58752 3.37503 3.00003 3.37503 3.41253 3.71253 3.75003 4.12504 3.75003 4.53754 3.75003 4.87504 3.41253 4.87504 3.00003 4.87504 2.58752 4.53754 2.25002 4.12504 2.25002Z" transform="matrix(1.1111 0 -0 1 216.417 50.375)"/><path d="M7.31256 2.62502C6.60006 2.62502 6.00005 2.02502 6.00005 1.31251 6.00005 0.600005 6.60006 0 7.31256 0 8.02507 0 8.62508 0.600005 8.62508 1.31251 8.62508 2.02502 8.02507 2.62502 7.31256 2.62502ZM7.31256 0.750007C7.01256 0.750007 6.75006 1.01251 6.75006 1.31251 6.75006 1.61251 7.01256 1.87502 7.31256 1.87502 7.61257 1.87502 7.87507 1.61251 7.87507 1.31251 7.87507 1.01251 7.61257 0.750007 7.31256 0.750007Z" transform="matrix(1.1111 0 -0 1 216.417 50.375)"/><path d="M8.25007 4.12504 6.37506 4.12504C6.15005 4.12504 6.00005 3.97503 6.00005 3.75003 6.00005 3.52503 6.15005 3.37503 6.37506 3.37503L8.25007 3.37503C8.47507 3.37503 8.62508 3.52503 8.62508 3.75003 8.62508 3.97503 8.47507 4.12504 8.25007 4.12504Z" transform="matrix(1.1111 0 -0 1 216.417 50.375)"/><path d="M0.937508 2.62502C0.225002 2.62502-0.375003 2.02502-0.375003 1.31251-0.375003 0.600005 0.225002 0 0.937508 0 1.65001 0 2.25002 0.600005 2.25002 1.31251 2.25002 2.02502 1.65001 2.62502 0.937508 2.62502ZM0.937508 0.750007C0.637506 0.750007 0.375003 1.01251 0.375003 1.31251 0.375003 1.61251 0.637506 1.87502 0.937508 1.87502 1.23751 1.87502 1.50001 1.61251 1.50001 1.31251 1.50001 1.01251 1.23751 0.750007 0.937508 0.750007Z" transform="matrix(1.1111 0 -0 1 216.417 50.375)"/><path d="M1.87502 4.12504 0 4.12504C-0.225002 4.12504-0.375003 3.97503-0.375003 3.75003-0.375003 3.52503-0.225002 3.37503 0 3.37503L1.87502 3.37503C2.10002 3.37503 2.25002 3.52503 2.25002 3.75003 2.25002 3.97503 2.10002 4.12504 1.87502 4.12504Z" transform="matrix(1.1111 0 -0 1 216.417 50.375)"/><path d="M6.41256 8.25007C6.22505 8.25007 6.03755 8.10007 6.03755 7.87507L6.03755 6.75006C6.03755 6.33756 5.70005 6.00005 5.25005 6.00005L3.03753 6.00005C2.58752 6.00005 2.25002 6.33756 2.25002 6.75006L2.25002 7.87507C2.25002 8.06257 2.10002 8.25007 1.87502 8.25007 1.65001 8.25007 1.50001 8.10007 1.50001 7.87507L1.50001 6.75006C1.50001 5.92505 2.17502 5.25005 3.03753 5.25005L5.25005 5.25005C6.11255 5.25005 6.78756 5.92505 6.78756 6.75006L6.78756 7.87507C6.78756 8.06257 6.60006 8.25007 6.41256 8.25007Z" transform="matrix(1.1111 0 -0 1 216.417 50.375)"/></g></g></g><path d="M224.5 101.5C224.5 100.948 224.948 100.5 225.5 100.5L247.5 100.5C248.052 100.5 248.5 100.948 248.5 101.5L248.5 105.5C248.5 106.052 248.052 106.5 247.5 106.5L225.5 106.5C224.948 106.5 224.5 106.052 224.5 105.5Z" stroke="#CEB023" stroke-width="1.33585" stroke-miterlimit="8" fill="#FFFFFF" fill-rule="evenodd"/><text font-family="Calibri,Calibri_MSFontService,sans-serif" font-weight="700" font-size="5" transform="translate(235.598 104)">USER</text><g clip-path="url(#clip7)"><g clip-path="url(#clip8)"><g clip-path="url(#clip9)"><path d="M2.99999 3.74999C1.94999 3.74999 1.125 2.92499 1.125 1.87499 1.125 0.824998 1.94999 0 2.99999 0 4.04999 0 4.87499 0.824998 4.87499 1.87499 4.87499 2.92499 4.04999 3.74999 2.99999 3.74999ZM2.99999 0.749998C2.36249 0.749998 1.87499 1.2375 1.87499 1.87499 1.87499 2.51249 2.36249 2.99999 2.99999 2.99999 3.63749 2.99999 4.12499 2.51249 4.12499 1.87499 4.12499 1.2375 3.63749 0.749998 2.99999 0.749998Z" transform="matrix(1.00001 0 -0 1 226.5 99.375)"/><path d="M6.74998 8.24998C6.52498 8.24998 6.37498 8.09998 6.37498 7.87498L6.37498 6.37498C6.37498 5.73748 5.88748 5.24998 5.24998 5.24998L2.99999 5.24998C2.36249 5.24998 1.87499 5.73748 1.87499 6.37498L1.87499 7.87498C1.87499 8.09998 1.72499 8.24998 1.5 8.24998 1.275 8.24998 1.125 8.09998 1.125 7.87498L1.125 6.37498C1.125 5.32498 1.94999 4.49999 2.99999 4.49999L5.24998 4.49999C6.29998 4.49999 7.12498 5.32498 7.12498 6.37498L7.12498 7.87498C7.12498 8.09998 6.97498 8.24998 6.74998 8.24998Z" transform="matrix(1.00001 0 -0 1 225.375 99.375)"/></g></g></g><path d="M205.5 152.5C205.5 151.948 205.948 151.5 206.5 151.5L247.5 151.5C248.052 151.5 248.5 151.948 248.5 152.5L248.5 156.5C248.5 157.052 248.052 157.5 247.5 157.5L206.5 157.5C205.948 157.5 205.5 157.052 205.5 156.5Z" stroke="#D2F53C" stroke-width="1.33585" stroke-miterlimit="8" fill="#FFFFFF" fill-rule="evenodd"/><text font-family="Calibri,Calibri_MSFontService,sans-serif" font-weight="700" font-size="5" transform="translate(216.589 155)">REQUIREMENT</text><g clip-path="url(#clip10)"><g clip-path="url(#clip11)"><g clip-path="url(#clip12)"><path d="M3.74999 5.32461 1.90424 7.12498 1.90387 7.1246 1.90387 7.12498 0.749998 5.99998 1.21125 5.54998 1.90387 6.22498 3.28874 4.87499Z" transform="matrix(1 0 -0 1.11112 206 149)"/><path d="M3.74999 1.575 1.90424 3.37499 1.90387 3.37499 1.90387 3.37499 0.749998 2.24999 1.21125 1.79999 1.90387 2.47499 3.28874 1.125Z" transform="matrix(1 0 -0 1.11112 206 149)"/><path d="M7.49998 3.37499 5.24998 3.37499C5.04261 3.37499 4.87499 3.20699 4.87499 2.99999L4.87499 1.5C4.87499 1.293 5.04261 1.125 5.24998 1.125L7.49998 1.125C7.70735 1.125 7.87498 1.293 7.87498 1.5L7.87498 2.99999C7.87498 3.20699 7.70735 3.37499 7.49998 3.37499ZM5.62498 2.62499 7.12498 2.62499 7.12498 1.87499 5.62498 1.87499 5.62498 2.62499Z" transform="matrix(1 0 -0 1.11112 206 149)"/><path d="M7.49998 7.12498 5.24998 7.12498C5.04261 7.12498 4.87499 6.95735 4.87499 6.74998L4.87499 5.24998C4.87499 5.04261 5.04261 4.87499 5.24998 4.87499L7.49998 4.87499C7.70735 4.87499 7.87498 5.04261 7.87498 5.24998L7.87498 6.74998C7.87498 6.95735 7.70735 7.12498 7.49998 7.12498ZM5.62498 6.37498 7.12498 6.37498 7.12498 5.62498 5.62498 5.62498 5.62498 6.37498Z" transform="matrix(1 0 -0 1.11112 206 149)"/></g></g></g><path d="M216.5 202.667C216.5 201.47 217.47 200.5 218.667 200.5L246.333 200.5C247.53 200.5 248.5 201.47 248.5 202.667L248.5 211.333C248.5 212.53 247.53 213.5 246.333 213.5L218.667 213.5C217.47 213.5 216.5 212.53 216.5 211.333Z" stroke="#46F0F0" stroke-width="1.33585" stroke-miterlimit="8" fill="#FFFFFF" fill-rule="evenodd"/><text font-family="Calibri,Calibri_MSFontService,sans-serif" font-weight="700" font-size="5" transform="translate(228.265 205)">PROJECT<tspan x="0" y="6">TASK</tspan></text><g clip-path="url(#clip13)"><g clip-path="url(#clip14)"><g clip-path="url(#clip15)"><path d="M4.52849 5.77423 4.52924 5.77498 6.37498 3.85499 5.91373 3.37499 4.52849 4.81499 3.83624 4.09499 3.37499 4.57499 4.52849 5.77498Z" transform="matrix(1.11111 0 -0 1 217 202)"/><path d="M7.49998 0.749998 1.87499 0.749998C1.668 0.749998 1.5 0.917997 1.5 1.125L1.5 2.62499 1.125 2.62499C0.917997 2.62499 0.749998 2.79299 0.749998 2.99999 0.749998 3.20699 0.917997 3.37499 1.125 3.37499L1.5 3.37499 1.5 4.12499 1.125 4.12499C0.917997 4.12499 0.749998 4.29299 0.749998 4.49999 0.749998 4.70736 0.917997 4.87499 1.125 4.87499L1.5 4.87499 1.5 5.62498 1.125 5.62498C0.917997 5.62498 0.749998 5.79261 0.749998 5.99998 0.749998 6.20736 0.917997 6.37498 1.125 6.37498L1.5 6.37498 1.5 7.87498C1.5 8.08235 1.668 8.24998 1.87499 8.24998L7.49998 8.24998C7.70735 8.24998 7.87498 8.08235 7.87498 7.87498L7.87498 1.125C7.87498 0.917997 7.70735 0.749998 7.49998 0.749998ZM7.12498 7.49998 2.24999 7.49998 2.24999 6.37498 2.62499 6.37498C2.83199 6.37498 2.99999 6.20736 2.99999 5.99998 2.99999 5.79261 2.83199 5.62498 2.62499 5.62498L2.24999 5.62498 2.24999 4.87499 2.62499 4.87499C2.83199 4.87499 2.99999 4.70736 2.99999 4.49999 2.99999 4.29299 2.83199 4.12499 2.62499 4.12499L2.24999 4.12499 2.24999 3.37499 2.62499 3.37499C2.83199 3.37499 2.99999 3.20699 2.99999 2.99999 2.99999 2.79299 2.83199 2.62499 2.62499 2.62499L2.24999 2.62499 2.24999 1.5 7.12498 1.5 7.12498 7.49998Z" transform="matrix(1.11111 0 -0 1 217 202)"/></g></g></g><path d="M166.17 48 204.83 48C209.894 48 214 50.9101 214 54.5 214 58.0899 209.894 61 204.83 61L166.17 61C161.106 61 157 58.0899 157 54.5 157 50.9101 161.106 48 166.17 48Z" fill="#313131" fill-rule="evenodd"/><text fill="#FFFFFF" font-family="Calibri,Calibri_MSFontService,sans-serif" font-weight="700" font-size="5" transform="translate(178.844 56)">|Has&gt;</text><path d="M167.618 100 212.382 100C218.246 100 223 102.91 223 106.5 223 110.09 218.246 113 212.382 113L167.618 113C161.754 113 157 110.09 157 106.5 157 102.91 161.754 100 167.618 100Z" fill="#313131" fill-rule="evenodd"/><text fill="#FFFFFF" font-family="Calibri,Calibri_MSFontService,sans-serif" font-weight="700" font-size="5" transform="translate(174.836 109)">|Assigned to&gt;</text><path d="M164.561 151 196.439 151C200.615 151 204 153.91 204 157.5 204 161.09 200.615 164 196.439 164L164.561 164C160.385 164 157 161.09 157 157.5 157 153.91 160.385 151 164.561 151Z" fill="#313131" fill-rule="evenodd"/><text fill="#FFFFFF" font-family="Calibri,Calibri_MSFontService,sans-serif" font-weight="700" font-size="5" transform="translate(166.32 159)">&lt;Cordinates|</text><path d="M166.331 200 205.669 200C210.822 200 215 202.91 215 206.5 215 210.09 210.822 213 205.669 213L166.331 213C161.178 213 157 210.09 157 206.5 157 202.91 161.178 200 166.331 200Z" fill="#313131" fill-rule="evenodd"/><text fill="#FFFFFF" font-family="Calibri,Calibri_MSFontService,sans-serif" font-weight="700" font-size="5" transform="translate(170.244 209)">|Predecessor&gt;</text><path d="M84 41 89.5 38 95 41Z" fill="#FFFFFF" fill-rule="evenodd"/><path d="M71.5001 30.6667C71.5001 29.47 72.4701 28.5 73.6668 28.5L101.333 28.5C102.53 28.5 103.5 29.47 103.5 30.6667L103.5 39.3332C103.5 40.5299 102.53 41.4999 101.333 41.4999L73.6668 41.4999C72.4701 41.4999 71.5001 40.5299 71.5001 39.3332Z" stroke="#46F0F0" stroke-width="1.33585" stroke-miterlimit="8" fill="#FFFFFF" fill-rule="evenodd"/><text font-family="Calibri,Calibri_MSFontService,sans-serif" font-weight="700" font-size="5" transform="translate(83.3771 33)">PROJECT<tspan x="0" y="6">PHASE</tspan></text><g clip-path="url(#clip16)"><g clip-path="url(#clip17)"><g clip-path="url(#clip18)"><path d="M8.5961 6.51823C8.63472 6.42711 8.63472 6.32286 8.5961 6.23173 8.57697 6.18561 8.5496 6.14398 8.51472 6.10948L7.3901 4.98486C7.24348 4.83824 7.00648 4.83824 6.85985 4.98486 6.71323 5.13148 6.71323 5.36848 6.85985 5.51511L7.34473 5.99998 3.37499 5.99998C2.34112 5.99998 1.5 5.15886 1.5 4.12499 1.5 3.09112 2.34112 2.24999 3.37499 2.24999 4.40886 2.24999 5.24998 3.09112 5.24998 4.12499L5.99998 4.12499C5.99998 2.67749 4.82211 1.5 3.37499 1.5 1.92749 1.5 0.749998 2.67749 0.749998 4.12499 0.749998 5.57211 1.92749 6.74998 3.37499 6.74998L7.34473 6.74998 6.85985 7.23485C6.71323 7.38148 6.71323 7.61848 6.85985 7.7651 6.93298 7.83823 7.02898 7.87498 7.12498 7.87498 7.22098 7.87498 7.31698 7.83823 7.3901 7.7651L8.51472 6.64048C8.5496 6.60598 8.57697 6.56436 8.5961 6.51823Z" transform="matrix(1.11111 0 -0 1 72 30)"/></g></g></g></g></svg>