<svg width="189" height="189" xmlns="http://www.w3.org/2000/svg" xmlns:xlink="http://www.w3.org/1999/xlink" overflow="hidden"><defs><clipPath id="clip0"><path d="M0 0 189 0 189 189 0 189Z" fill-rule="evenodd" clip-rule="evenodd"/></clipPath><clipPath id="clip1"><path d="M3 3 47 3 47 48 3 48Z" fill-rule="evenodd" clip-rule="evenodd"/></clipPath><clipPath id="clip2"><path d="M3 3 47 3 47 48 3 48Z" fill-rule="evenodd" clip-rule="evenodd"/></clipPath><clipPath id="clip3"><path d="M3 3 47 3 47 48 3 48Z" fill-rule="evenodd" clip-rule="evenodd"/></clipPath></defs><g clip-path="url(#clip0)"><rect x="0" y="0" width="189" height="189" fill="#313131"/><text fill="#FFFFFF" font-family="Calibri,Calibri_MSFontService,sans-serif" font-weight="300" font-size="11" transform="translate(9.60032 -5)">SKILL</text><rect x="3.50005" y="3.50005" width="1" height="1" stroke="#2F528F" stroke-width="1.33333" stroke-miterlimit="8" fill="#4472C4"/><rect x="0" y="0" width="189" height="189" stroke="#CEB023" stroke-width="8" stroke-miterlimit="8" fill="#FFFFFF"/><g clip-path="url(#clip1)"><g clip-path="url(#clip2)"><g clip-path="url(#clip3)"><path d="M20.1667 18.3333C15.1122 18.3333 11 14.2212 11 9.16667 11 4.11217 15.1122 0 20.1667 0 25.2212 0 29.3333 4.11217 29.3333 9.16667 29.3333 14.2212 25.2212 18.3333 20.1667 18.3333ZM20.1667 3.66667C17.1343 3.66667 14.6667 6.13433 14.6667 9.16667 14.6667 12.199 17.1343 14.6667 20.1667 14.6667 23.199 14.6667 25.6667 12.199 25.6667 9.16667 25.6667 6.13433 23.199 3.66667 20.1667 3.66667Z" transform="matrix(1 0 -0 1.02273 4.83333 4.875)"/><path d="M33 42.1667C31.9862 42.1667 31.1667 41.3472 31.1667 40.3333L31.1667 32.0833C31.1667 28.545 28.2828 25.6667 24.7372 25.6667L15.5962 25.6667C12.0505 25.6667 9.16667 28.545 9.16667 32.0833L9.16667 40.3333C9.16667 41.3472 8.34533 42.1667 7.33333 42.1667 6.32133 42.1667 5.5 41.3472 5.5 40.3333L5.5 32.0833C5.5 26.5247 10.0283 22 15.5962 22L24.7372 22C30.3032 22 34.8333 26.5247 34.8333 32.0833L34.8333 40.3333C34.8333 41.3472 34.0138 42.1667 33 42.1667Z" transform="matrix(1 0 -0 1.02273 4.83333 4.875)"/><path d="M20.1667 39.6605 15.6328 42.1667 16.5 36.8592 12.8333 33.1045 17.9007 32.3272 20.1667 27.5 22.4327 32.3272 27.5 33.1045 23.8333 36.8592 24.7005 42.1667Z" transform="matrix(1 0 -0 1.02273 4.83333 4.875)"/></g></g></g><text font-family="Calibri,Calibri_MSFontService,sans-serif" font-weight="700" font-size="20" transform="translate(95.2948 23)">SKILL<tspan font-weight="400" font-size="12" x="-88.7558" y="86">Specific knowledge or training that </tspan><tspan font-weight="400" font-size="12" x="-88.7558" y="101">is required to competently perform </tspan><tspan font-weight="400" font-size="12" x="-88.7558" y="115">a task, job or activity.</tspan></text></g></svg>