<svg width="189" height="189" xmlns="http://www.w3.org/2000/svg" xmlns:xlink="http://www.w3.org/1999/xlink" overflow="hidden"><defs><clipPath id="clip0"><path d="M0 0 189 0 189 189 0 189Z" fill-rule="evenodd" clip-rule="evenodd"/></clipPath><clipPath id="clip1"><path d="M3 3 47 3 47 48 3 48Z" fill-rule="evenodd" clip-rule="evenodd"/></clipPath><clipPath id="clip2"><path d="M3 3 47 3 47 48 3 48Z" fill-rule="evenodd" clip-rule="evenodd"/></clipPath><clipPath id="clip3"><path d="M3 3 47 3 47 48 3 48Z" fill-rule="evenodd" clip-rule="evenodd"/></clipPath></defs><g clip-path="url(#clip0)"><rect x="0" y="0" width="189" height="189" fill="#313131"/><text fill="#FFFFFF" font-family="Calibri,Calibri_MSFontService,sans-serif" font-weight="300" font-size="11" transform="translate(9.60032 -5)">CAPABILITY</text><rect x="3.50005" y="3.50005" width="1" height="1" stroke="#2F528F" stroke-width="1.33333" stroke-miterlimit="8" fill="#4472C4"/><rect x="0" y="0" width="189" height="189" stroke="#911EB4" stroke-width="8" stroke-miterlimit="8" fill="#FFFFFF"/><g clip-path="url(#clip1)"><g clip-path="url(#clip2)"><g clip-path="url(#clip3)"><path d="M38.5 18.3333 5.5 18.3333C4.488 18.3333 3.66667 19.1547 3.66667 20.1667L3.66667 27.5C3.66667 28.5138 4.488 29.3333 5.5 29.3333L7.33333 29.3333 7.33333 40.3333C7.33333 41.3472 8.15467 42.1667 9.16667 42.1667L34.8333 42.1667C35.8472 42.1667 36.6667 41.3472 36.6667 40.3333L36.6667 29.3333 38.5 29.3333C39.5138 29.3333 40.3333 28.5138 40.3333 27.5L40.3333 20.1667C40.3333 19.1547 39.5138 18.3333 38.5 18.3333ZM33 38.5 11 38.5 11 29.3333 33 29.3333 33 38.5ZM36.6667 25.6667 34.8333 25.6667 9.16667 25.6667 7.33333 25.6667 7.33333 22 36.6667 22 36.6667 25.6667Z" transform="matrix(1 0 -0 1.02273 3 3)"/><path d="M9.16667 14.6667 18.3333 14.6667C19.3472 14.6667 20.1667 13.8453 20.1667 12.8333L20.1667 3.66667C20.1667 2.65467 19.3472 1.83333 18.3333 1.83333L9.16667 1.83333C8.15467 1.83333 7.33333 2.65467 7.33333 3.66667L7.33333 12.8333C7.33333 13.8453 8.15467 14.6667 9.16667 14.6667ZM11 5.5 16.5 5.5 16.5 11 11 11 11 5.5Z" transform="matrix(1 0 -0 1.02273 3 3)"/><path d="M30.25 14.6667C33.7957 14.6667 36.6667 11.7938 36.6667 8.25 36.6667 4.70617 33.7957 1.83333 30.25 1.83333 26.7043 1.83333 23.8333 4.70617 23.8333 8.25 23.8333 11.7938 26.7043 14.6667 30.25 14.6667ZM30.25 5.5C31.768 5.5 33 6.73017 33 8.25 33 9.76983 31.768 11 30.25 11 28.732 11 27.5 9.76983 27.5 8.25 27.5 6.73017 28.732 5.5 30.25 5.5Z" transform="matrix(1 0 -0 1.02273 3 3)"/></g></g></g><text font-family="Calibri,Calibri_MSFontService,sans-serif" font-weight="700" font-size="20" transform="translate(69.3081 23)">CAPABILITY<tspan font-weight="400" font-size="12" x="-62.7691" y="71">A </tspan><tspan font-size="12" x="-53.1025" y="71">Business Capability</tspan><tspan font-weight="400" font-size="12" x="45.5642" y="71">is the </tspan><tspan font-weight="400" font-size="12" x="-62.7691" y="86">acquired capacity of an </tspan><tspan font-weight="400" font-size="12" x="-62.7691" y="100">organisation to successfully pursue </tspan><tspan font-weight="400" font-size="12" x="-62.7691" y="114">a business endeavour through a </tspan><tspan font-weight="400" font-size="12" x="-62.7691" y="129">coordinated set of Outcomes.</tspan></text></g></svg>