<svg width="265" height="265" xmlns="http://www.w3.org/2000/svg" xmlns:xlink="http://www.w3.org/1999/xlink" overflow="hidden"><defs><clipPath id="clip0"><path d="M0 0 265 0 265 265 0 265Z" fill-rule="evenodd" clip-rule="evenodd"/></clipPath><clipPath id="clip1"><path d="M35 51 55 51 55 71 35 71Z" fill-rule="evenodd" clip-rule="evenodd"/></clipPath><clipPath id="clip2"><path d="M35 51 55 51 55 71 35 71Z" fill-rule="evenodd" clip-rule="evenodd"/></clipPath><clipPath id="clip3"><path d="M35 51 55 51 55 71 35 71Z" fill-rule="evenodd" clip-rule="evenodd"/></clipPath><clipPath id="clip4"><path d="M213 81 224 81 224 92 213 92Z" fill-rule="evenodd" clip-rule="evenodd"/></clipPath><clipPath id="clip5"><path d="M213 81 224 81 224 92 213 92Z" fill-rule="evenodd" clip-rule="evenodd"/></clipPath><clipPath id="clip6"><path d="M213 81 224 81 224 92 213 92Z" fill-rule="evenodd" clip-rule="evenodd"/></clipPath><clipPath id="clip7"><path d="M219 166 231 166 231 177 219 177Z" fill-rule="evenodd" clip-rule="evenodd"/></clipPath><clipPath id="clip8"><path d="M219 166 231 166 231 177 219 177Z" fill-rule="evenodd" clip-rule="evenodd"/></clipPath><clipPath id="clip9"><path d="M219 166 231 166 231 177 219 177Z" fill-rule="evenodd" clip-rule="evenodd"/></clipPath><clipPath id="clip10"><path d="M71 222 82 222 82 234 71 234Z" fill-rule="evenodd" clip-rule="evenodd"/></clipPath><clipPath id="clip11"><path d="M71 222 82 222 82 234 71 234Z" fill-rule="evenodd" clip-rule="evenodd"/></clipPath><clipPath id="clip12"><path d="M71 222 82 222 82 234 71 234Z" fill-rule="evenodd" clip-rule="evenodd"/></clipPath><clipPath id="clip13"><path d="M71 28 82 28 82 38 71 38Z" fill-rule="evenodd" clip-rule="evenodd"/></clipPath><clipPath id="clip14"><path d="M71 28 82 28 82 38 71 38Z" fill-rule="evenodd" clip-rule="evenodd"/></clipPath><clipPath id="clip15"><path d="M71 28 82 28 82 38 71 38Z" fill-rule="evenodd" clip-rule="evenodd"/></clipPath></defs><g clip-path="url(#clip0)"><rect x="0" y="0" width="265" height="265" fill="#313131"/><rect x="89.5" y="131.5" width="1.99999" height="1" stroke="#2F528F" stroke-width="1.33585" stroke-miterlimit="8" fill="#4472C4"/><path d="M23.5 9.75271C23.5 8.50859 24.5085 7.50003 25.7527 7.50003L249.247 7.50003C250.491 7.50003 251.5 8.50859 251.5 9.75271L251.5 249.247C251.5 250.491 250.491 251.5 249.247 251.5L25.7527 251.5C24.5085 251.5 23.5 250.491 23.5 249.247Z" stroke="#FF0000" stroke-width="0.667927" stroke-miterlimit="8" stroke-opacity="0" fill="none" fill-rule="evenodd"/><path d="M30.0794 43.5 149.921 43.5C153.002 43.5 155.5 45.998 155.5 49.0794L155.5 214.252C155.5 216.598 153.598 218.5 151.252 218.5L28.7483 218.5C26.402 218.5 24.5 216.598 24.5 214.252L24.5 49.0794C24.5 45.998 26.998 43.5 30.0794 43.5Z" stroke="#5AA203" stroke-width="4.67549" stroke-miterlimit="8" fill="#FFFFFF" fill-rule="evenodd"/><g clip-path="url(#clip1)"><g clip-path="url(#clip2)"><g clip-path="url(#clip3)"><path d="M44.5 69.4167C44.2356 69.4167 43.9886 69.2837 43.8414 69.0644L39.0913 61.9291C38.914 61.6623 38.914 61.3155 39.0913 61.0487L43.8414 53.9142C44.1351 53.4732 44.865 53.4732 45.1587 53.9142L49.9087 61.0487C50.0868 61.3147 50.0868 61.6615 49.9087 61.9291L45.1587 69.0644C45.0114 69.2837 44.7644 69.4167 44.5 69.4167ZM40.7016 61.4889 44.5 67.1945 48.2985 61.4881 44.5 55.7833 40.7016 61.4889Z"/></g></g></g><path d="M26.9702 6.36947C18.5628 6.36947 11.7473 10.3112 11.7473 15.1736L11.7473 248.948C11.7473 253.81 18.5628 257.752 26.9702 257.752L238.08 257.752C246.487 257.752 253.302 253.81 253.302 248.948L253.302 15.1736C253.302 10.3112 246.487 6.36947 238.08 6.36947ZM0 0 265 0 265 265 0 265Z" fill="#5AA203" fill-rule="evenodd"/><text font-family="Calibri,Calibri_MSFontService,sans-serif" font-weight="700" font-size="11" transform="translate(73.3782 63)">LOGICGATE<tspan font-weight="400" font-size="9" x="-42.0879" y="40">A </tspan><tspan font-size="9" x="-34.5737" y="40">LogicGate</tspan><tspan font-weight="400" font-size="9" x="5.83589" y="40">is a flow </tspan><tspan font-weight="400" font-size="9" x="-42.0879" y="51">construct indicating possible </tspan><tspan font-weight="400" font-size="9" x="-42.0879" y="62">paths that the flow could </tspan><tspan font-weight="400" font-size="9" x="-42.0879" y="73">continue. </tspan><tspan font-size="9" x="-4.01603" y="73">LogicGates</tspan><tspan font-weight="400" font-size="9" x="40.0671" y="73">are </tspan><tspan font-weight="400" font-size="9" x="-42.0879" y="85">associated with </tspan><tspan font-size="9" x="19.3614" y="85">Outcomes</tspan><tspan font-weight="400" font-size="9" x="-42.0879" y="96">that contain the decision logic </tspan><tspan font-weight="400" font-size="9" x="-42.0879" y="107">for determining the flow </tspan><tspan font-weight="400" font-size="9" x="-42.0879" y="118">path. </tspan><tspan font-size="9" x="-20.2133" y="118">LogicGates</tspan><tspan font-weight="400" font-size="9" x="23.8699" y="118">may be of </tspan><tspan font-weight="400" font-size="9" x="-42.0879" y="129">type logical OR, AND or XOR</tspan></text><path d="M214.5 84.5C214.5 83.9477 214.948 83.5 215.5 83.5L247.5 83.5C248.052 83.5 248.5 83.9477 248.5 84.5L248.5 88.5C248.5 89.0523 248.052 89.5 247.5 89.5L215.5 89.5C214.948 89.5 214.5 89.0523 214.5 88.5Z" stroke="#5AA203" stroke-width="1.33585" stroke-miterlimit="8" fill="#FFFFFF" fill-rule="evenodd"/><text font-family="Calibri,Calibri_MSFontService,sans-serif" font-weight="700" font-size="5" transform="translate(225.272 87)">OUTCOME</text><g clip-path="url(#clip4)"><g clip-path="url(#clip5)"><g clip-path="url(#clip6)"><path d="M7.39019 5.73493C7.24356 5.5883 7.00656 5.5883 6.85993 5.73493 6.71331 5.88155 6.71331 6.11855 6.85993 6.26518L7.34481 6.75006 4.45054 6.75006 5.56205 5.08354C5.64642 4.95717 5.64642 4.79404 5.56205 4.66767L4.20079 2.62502 7.34481 2.62502 6.85993 3.1099C6.71331 3.25653 6.71331 3.49353 6.85993 3.64016 6.93306 3.71328 7.02906 3.75003 7.12506 3.75003 7.22106 3.75003 7.31706 3.71328 7.39019 3.64016L8.5152 2.51515C8.66183 2.36852 8.66183 2.13152 8.5152 1.98489L7.39019 0.859883C7.24356 0.713256 7.00656 0.713256 6.85993 0.859883 6.71331 1.00651 6.71331 1.24351 6.85993 1.39014L7.34481 1.87502 3.75003 1.87502C3.73466 1.87502 3.72153 1.88252 3.70653 1.88364L3.31203 1.29189C3.1729 1.08301 2.82715 1.08301 2.68802 1.29189L0.438004 4.66692C0.354003 4.79292 0.354003 4.95679 0.438004 5.08279L2.68802 8.45782C2.75777 8.56282 2.87478 8.62508 3.00003 8.62508 3.12528 8.62508 3.24228 8.56282 3.31203 8.4582L3.95066 7.50007 7.34481 7.50007 6.85993 7.98494C6.71331 8.13157 6.71331 8.36857 6.85993 8.5152 6.93306 8.58833 7.02906 8.62508 7.12506 8.62508 7.22106 8.62508 7.31706 8.58833 7.39019 8.5152L8.5152 7.39019C8.66183 7.24356 8.66183 7.00656 8.5152 6.85993L7.39019 5.73493ZM3.00003 7.57394 1.20076 4.87504 3.00003 2.17652 4.79929 4.87504 3.00003 7.57394Z" transform="matrix(1.1111 0 -0 1 214 82)"/></g></g></g><path d="M219.5 169.5C219.5 168.948 219.948 168.5 220.5 168.5L247.5 168.5C248.052 168.5 248.5 168.948 248.5 169.5L248.5 173.5C248.5 174.052 248.052 174.5 247.5 174.5L220.5 174.5C219.948 174.5 219.5 174.052 219.5 173.5Z" stroke="#5AA203" stroke-width="1.33585" stroke-miterlimit="8" fill="#FFFFFF" fill-rule="evenodd"/><text font-family="Calibri,Calibri_MSFontService,sans-serif" font-weight="700" font-size="5" transform="translate(231.129 172)">RESULT</text><g clip-path="url(#clip7)"><g clip-path="url(#clip8)"><g clip-path="url(#clip9)"><path d="M7.49998 2.19749 5.44915 4.3279 5.44832 4.3279 5.44832 4.3279 4.16665 2.99666 4.67915 2.46374 5.44832 3.26291 6.98748 1.665Z" transform="matrix(1.00001 0 -0 1 220 166.417)"/><path d="M7.49998 5.10998 5.44915 7.24081 5.44832 7.2404 5.44832 7.24081 4.16665 5.90998 4.67915 5.37582 5.44832 6.17498 6.98748 4.57749Z" transform="matrix(1.00001 0 -0 1 220 166.417)"/><path d="M8.74997 9.15539 2.91666 9.15539C2.68666 9.15539 2.49999 8.96914 2.49999 8.73872L2.49999 0.416665C2.49999 0.186666 2.68666 0 2.91666 0L8.74997 0C8.98039 0 9.16664 0.186666 9.16664 0.416665L9.16664 8.73872C9.16664 8.96872 8.98039 9.15539 8.74997 9.15539ZM3.33332 8.32206 8.33331 8.32206 8.33331 0.833331 3.33332 0.833331 3.33332 8.32206Z" transform="matrix(1.00001 0 -0 1 220 166.417)"/><path d="M1.66666 9.16664C1.43666 9.16664 1.25 8.98039 1.25 8.74997L1.25 0.416665C1.25 0.186666 1.43666 0 1.66666 0 1.89666 0 2.08333 0.186666 2.08333 0.416665L2.08333 8.74997C2.08333 8.98039 1.89666 9.16664 1.66666 9.16664Z" transform="matrix(1.00001 0 -0 1 220 166.417)"/></g></g></g><path d="M166.814 168 208.186 168C213.606 168 218 170.91 218 174.5 218 178.09 213.606 181 208.186 181L166.814 181C161.394 181 157 178.09 157 174.5 157 170.91 161.394 168 166.814 168Z" fill="#313131" fill-rule="evenodd"/><text fill="#FFFFFF" font-family="Calibri,Calibri_MSFontService,sans-serif" font-weight="700" font-size="5" transform="translate(172.749 176)">&lt;Decided by|</text><path d="M165.848 83 203.152 83C208.038 83 212 86.134 212 90 212 93.866 208.038 97 203.152 97L165.848 97C160.962 97 157 93.866 157 90 157 86.134 160.962 83 165.848 83Z" fill="#313131" fill-rule="evenodd"/><text fill="#FFFFFF" font-family="Calibri,Calibri_MSFontService,sans-serif" font-weight="700" font-size="5" transform="translate(178.176 92)">&lt;Has|</text><path d="M84 222 89.5 218 95 222Z" fill="#FFFFFF" fill-rule="evenodd"/><path d="M71.5001 226.5C71.5001 225.948 71.9478 225.5 72.5 225.5L99.5 225.5C100.052 225.5 100.5 225.948 100.5 226.5L100.5 230.5C100.5 231.052 100.052 231.5 99.5 231.5L72.5 231.5C71.9478 231.5 71.5001 231.052 71.5001 230.5Z" stroke="#5AA203" stroke-width="1.33585" stroke-miterlimit="8" fill="#FFFFFF" fill-rule="evenodd"/><text font-family="Calibri,Calibri_MSFontService,sans-serif" font-weight="700" font-size="5" transform="translate(83.0711 229)">RESULT</text><g clip-path="url(#clip10)"><g clip-path="url(#clip11)"><g clip-path="url(#clip12)"><path d="M7.49998 2.19749 5.44915 4.3279 5.44832 4.3279 5.44832 4.3279 4.16665 2.99666 4.67915 2.46374 5.44832 3.26291 6.98748 1.665Z" transform="matrix(1 0 -0 1.00001 72 223.417)"/><path d="M7.49998 5.10998 5.44915 7.24081 5.44832 7.2404 5.44832 7.24081 4.16665 5.90998 4.67915 5.37582 5.44832 6.17498 6.98748 4.57749Z" transform="matrix(1 0 -0 1.00001 72 223.417)"/><path d="M8.74997 9.15539 2.91666 9.15539C2.68666 9.15539 2.49999 8.96914 2.49999 8.73872L2.49999 0.416665C2.49999 0.186666 2.68666 0 2.91666 0L8.74997 0C8.98039 0 9.16664 0.186666 9.16664 0.416665L9.16664 8.73872C9.16664 8.96872 8.98039 9.15539 8.74997 9.15539ZM3.33332 8.32206 8.33331 8.32206 8.33331 0.833331 3.33332 0.833331 3.33332 8.32206Z" transform="matrix(1 0 -0 1.00001 72 223.417)"/><path d="M1.66666 9.16664C1.43666 9.16664 1.25 8.98039 1.25 8.74997L1.25 0.416665C1.25 0.186666 1.43666 0 1.66666 0 1.89666 0 2.08333 0.186666 2.08333 0.416665L2.08333 8.74997C2.08333 8.98039 1.89666 9.16664 1.66666 9.16664Z" transform="matrix(1 0 -0 1.00001 72 223.417)"/></g></g></g><path d="M84 41 89.5 38 95 41Z" fill="#FFFFFF" fill-rule="evenodd"/><path d="M71.5001 31.5C71.5001 30.9477 71.9478 30.5 72.5001 30.5L105.5 30.5C106.052 30.5 106.5 30.9477 106.5 31.5L106.5 35.5C106.5 36.0523 106.052 36.5 105.5 36.5L72.5001 36.5C71.9478 36.5 71.5001 36.0523 71.5001 35.5Z" stroke="#5AA203" stroke-width="1.33585" stroke-miterlimit="8" fill="#FFFFFF" fill-rule="evenodd"/><text font-family="Calibri,Calibri_MSFontService,sans-serif" font-weight="700" font-size="5" transform="translate(83.0711 34)">OUTCOME</text><g clip-path="url(#clip13)"><g clip-path="url(#clip14)"><g clip-path="url(#clip15)"><path d="M80.2112 34.3721C80.0483 34.2092 79.785 34.2092 79.6221 34.3721 79.4591 34.535 79.4591 34.7983 79.6221 34.9613L80.1608 35.5 76.945 35.5 78.18 33.6483C78.2737 33.5079 78.2737 33.3267 78.18 33.1863L76.6675 30.9167 80.1608 30.9167 79.6221 31.4554C79.4591 31.6183 79.4591 31.8817 79.6221 32.0446 79.7033 32.1258 79.81 32.1667 79.9166 32.1667 80.0233 32.1667 80.13 32.1258 80.2112 32.0446L81.4612 30.7946C81.6241 30.6317 81.6241 30.3683 81.4612 30.2054L80.2112 28.9554C80.0483 28.7925 79.785 28.7925 79.6221 28.9554 79.4591 29.1184 79.4591 29.3817 79.6221 29.5446L80.1608 30.0833 76.1666 30.0833C76.1496 30.0833 76.135 30.0917 76.1183 30.0929L75.68 29.4354C75.5254 29.2034 75.1412 29.2034 74.9866 29.4354L72.4867 33.1854C72.3933 33.3254 72.3933 33.5075 72.4867 33.6475L74.9866 37.3975C75.0641 37.5142 75.1942 37.5833 75.3333 37.5833 75.4725 37.5833 75.6025 37.5142 75.68 37.3979L76.3896 36.3333 80.1608 36.3333 79.6221 36.8721C79.4591 37.035 79.4591 37.2983 79.6221 37.4612 79.7033 37.5425 79.81 37.5833 79.9166 37.5833 80.0233 37.5833 80.13 37.5425 80.2112 37.4612L81.4612 36.2112C81.6241 36.0483 81.6241 35.785 81.4612 35.6221L80.2112 34.3721ZM75.3333 36.4154 73.3342 33.4167 75.3333 30.4183 77.3325 33.4167 75.3333 36.4154Z"/></g></g></g></g></svg>