<svg width="189" height="189" xmlns="http://www.w3.org/2000/svg" xmlns:xlink="http://www.w3.org/1999/xlink" overflow="hidden"><defs><clipPath id="clip0"><path d="M0 0 189 0 189 189 0 189Z" fill-rule="evenodd" clip-rule="evenodd"/></clipPath><clipPath id="clip1"><path d="M3 3 47 3 47 48 3 48Z" fill-rule="evenodd" clip-rule="evenodd"/></clipPath><clipPath id="clip2"><path d="M3 3 47 3 47 48 3 48Z" fill-rule="evenodd" clip-rule="evenodd"/></clipPath><clipPath id="clip3"><path d="M3 3 47 3 47 48 3 48Z" fill-rule="evenodd" clip-rule="evenodd"/></clipPath></defs><g clip-path="url(#clip0)"><rect x="0" y="0" width="189" height="189" fill="#313131"/><text fill="#FFFFFF" font-family="Calibri,Calibri_MSFontService,sans-serif" font-weight="300" font-size="11" transform="translate(9.60032 -5)">TEAM MEMBER</text><rect x="3.50005" y="3.50005" width="1" height="1" stroke="#2F528F" stroke-width="1.33333" stroke-miterlimit="8" fill="#4472C4"/><rect x="0" y="0" width="189" height="189" stroke="#B74D41" stroke-width="8" stroke-miterlimit="8" fill="#FFFFFF"/><g clip-path="url(#clip1)"><g clip-path="url(#clip2)"><g clip-path="url(#clip3)"><path d="M20.1667 22C16.1333 22 12.8333 18.7 12.8333 14.6667 12.8333 10.6333 16.1333 7.33333 20.1667 7.33333 24.2 7.33333 27.5 10.6333 27.5 14.6667 27.5 18.7 24.2 22 20.1667 22ZM20.1667 11C18.15 11 16.5 12.65 16.5 14.6667 16.5 16.6833 18.15 18.3333 20.1667 18.3333 22.1833 18.3333 23.8333 16.6833 23.8333 14.6667 23.8333 12.65 22.1833 11 20.1667 11Z" transform="matrix(1 0 -0 1.02273 4.83333 4.875)"/><path d="M35.75 12.8333C32.2667 12.8333 29.3333 9.9 29.3333 6.41667 29.3333 2.93333 32.2667 0 35.75 0 39.2333 0 42.1667 2.93333 42.1667 6.41667 42.1667 9.9 39.2333 12.8333 35.75 12.8333ZM35.75 3.66667C34.2833 3.66667 33 4.95 33 6.41667 33 7.88333 34.2833 9.16667 35.75 9.16667 37.2167 9.16667 38.5 7.88333 38.5 6.41667 38.5 4.95 37.2167 3.66667 35.75 3.66667Z" transform="matrix(1 0 -0 1.02273 4.83333 4.875)"/><path d="M40.3333 20.1667 31.1667 20.1667C30.0667 20.1667 29.3333 19.4333 29.3333 18.3333 29.3333 17.2333 30.0667 16.5 31.1667 16.5L40.3333 16.5C41.4333 16.5 42.1667 17.2333 42.1667 18.3333 42.1667 19.4333 41.4333 20.1667 40.3333 20.1667Z" transform="matrix(1 0 -0 1.02273 4.83333 4.875)"/><path d="M4.58333 12.8333C1.1 12.8333-1.83333 9.9-1.83333 6.41667-1.83333 2.93333 1.1 0 4.58333 0 8.06667 0 11 2.93333 11 6.41667 11 9.9 8.06667 12.8333 4.58333 12.8333ZM4.58333 3.66667C3.11667 3.66667 1.83333 4.95 1.83333 6.41667 1.83333 7.88333 3.11667 9.16667 4.58333 9.16667 6.05 9.16667 7.33333 7.88333 7.33333 6.41667 7.33333 4.95 6.05 3.66667 4.58333 3.66667Z" transform="matrix(1 0 -0 1.02273 4.83333 4.875)"/><path d="M9.16667 20.1667 0 20.1667C-1.1 20.1667-1.83333 19.4333-1.83333 18.3333-1.83333 17.2333-1.1 16.5 0 16.5L9.16667 16.5C10.2667 16.5 11 17.2333 11 18.3333 11 19.4333 10.2667 20.1667 9.16667 20.1667Z" transform="matrix(1 0 -0 1.02273 4.83333 4.875)"/><path d="M31.35 40.3333C30.4333 40.3333 29.5167 39.6 29.5167 38.5L29.5167 33C29.5167 30.9833 27.8667 29.3333 25.6667 29.3333L14.85 29.3333C12.65 29.3333 11 30.9833 11 33L11 38.5C11 39.4167 10.2667 40.3333 9.16667 40.3333 8.06667 40.3333 7.33333 39.6 7.33333 38.5L7.33333 33C7.33333 28.9667 10.6333 25.6667 14.85 25.6667L25.6667 25.6667C29.8833 25.6667 33.1833 28.9667 33.1833 33L33.1833 38.5C33.1833 39.4167 32.2667 40.3333 31.35 40.3333Z" transform="matrix(1 0 -0 1.02273 4.83333 4.875)"/></g></g></g><text font-family="Calibri,Calibri_MSFontService,sans-serif" font-weight="700" font-size="20" transform="translate(51.3348 23)">TEAM MEMBER<tspan font-weight="400" font-size="12" x="-44.7958" y="64">All levels of </tspan><tspan font-size="12" x="13.7042" y="64">Initiatives</tspan><tspan font-weight="400" font-size="12" x="65.8709" y="64">down to </tspan><tspan font-size="12" x="-44.7958" y="79">Project task</tspan><tspan font-weight="400" font-size="12" x="16.7042" y="79">can be assigned </tspan><tspan font-size="12" x="96.2042" y="79">Team </tspan><tspan font-size="12" x="-44.7958" y="93">members</tspan><tspan font-weight="400" font-size="12" x="5.2042" y="93">that are identified by </tspan><tspan font-weight="400" font-size="12" x="-44.7958" y="107">their identity as </tspan><tspan font-size="12" x="34.7042" y="107">Employee</tspan><tspan font-weight="400" font-size="12" x="86.7042" y="107">and the </tspan><tspan font-size="12" x="-44.7958" y="122">Role</tspan><tspan font-weight="400" font-size="12" x="-19.7958" y="122">that they hold within the </tspan><tspan font-weight="400" font-size="12" x="-44.7958" y="136">team.</tspan></text></g></svg>