<svg width="189" height="189" xmlns="http://www.w3.org/2000/svg" xmlns:xlink="http://www.w3.org/1999/xlink" overflow="hidden"><defs><clipPath id="clip0"><path d="M0 0 189 0 189 189 0 189Z" fill-rule="evenodd" clip-rule="evenodd"/></clipPath><clipPath id="clip1"><path d="M3 3 47 3 47 48 3 48Z" fill-rule="evenodd" clip-rule="evenodd"/></clipPath><clipPath id="clip2"><path d="M3 3 47 3 47 48 3 48Z" fill-rule="evenodd" clip-rule="evenodd"/></clipPath><clipPath id="clip3"><path d="M3 3 47 3 47 48 3 48Z" fill-rule="evenodd" clip-rule="evenodd"/></clipPath></defs><g clip-path="url(#clip0)"><rect x="0" y="0" width="189" height="189" fill="#313131"/><text fill="#FFFFFF" font-family="Calibri,Calibri_MSFontService,sans-serif" font-weight="300" font-size="11" transform="translate(9.60032 -5)">OBJECTIVE</text><rect x="3.50005" y="3.50005" width="1" height="1" stroke="#2F528F" stroke-width="1.33333" stroke-miterlimit="8" fill="#4472C4"/><rect x="0" y="0" width="189" height="189" stroke="#000080" stroke-width="8" stroke-miterlimit="8" fill="#FFFFFF"/><g clip-path="url(#clip1)"><g clip-path="url(#clip2)"><g clip-path="url(#clip3)"><path d="M41.6295 2.3705C40.9127 1.65367 39.754 1.65367 39.0372 2.3705L33.594 7.81367C30.4333 5.22683 26.3927 3.66667 22 3.66667 11.891 3.66667 3.66667 11.891 3.66667 22 3.66667 28.2627 6.82733 33.7993 11.6343 37.1067L9.70383 39.0372C8.987 39.754 8.987 40.9127 9.70383 41.6295 10.0613 41.987 10.5307 42.1667 11 42.1667 11.4693 42.1667 11.9387 41.987 12.2962 41.6295L14.9912 38.9327C17.1508 39.8328 19.5177 40.3333 22 40.3333 24.97 40.3333 27.7677 39.6073 30.2555 38.3497L33.5372 41.6295C33.8947 41.987 34.364 42.1667 34.8333 42.1667 35.3027 42.1667 35.772 41.987 36.1295 41.6295 36.8463 40.9127 36.8463 39.754 36.1295 39.0372L33.4162 36.3238C37.6218 32.9615 40.3333 27.7933 40.3333 22 40.3333 17.6073 38.775 13.5667 36.1863 10.406L41.6295 4.96283C42.3463 4.246 42.3463 3.08917 41.6295 2.3705ZM36.6667 22C36.6667 30.0887 30.0868 36.6667 22 36.6667 19.8055 36.6667 17.7283 36.1698 15.8565 35.3027 15.6145 35.0918 15.3358 34.969 15.0388 34.9085 10.4555 32.4243 7.33333 27.5715 7.33333 22 7.33333 13.9132 13.9132 7.33333 22 7.33333 25.3843 7.33333 28.4955 8.49567 30.976 10.428L28.3617 13.0423C26.565 11.7645 24.3723 11 22 11 15.9335 11 11 15.9335 11 22 11 28.0665 15.9335 33 22 33 28.0665 33 33 28.0665 33 22 33 19.6295 32.2373 17.435 30.9558 15.6365L33.5738 13.0222C35.5025 15.5063 36.6667 18.6157 36.6667 22ZM29.3333 22C29.3333 26.0462 26.0443 29.3333 22 29.3333 17.9557 29.3333 14.6667 26.0462 14.6667 22 14.6667 17.9557 17.9557 14.6667 22 14.6667 23.3548 14.6667 24.6107 15.0608 25.7033 15.7062L22.9387 18.469C22.638 18.392 22.3263 18.3333 22 18.3333 19.976 18.3333 18.3333 19.976 18.3333 22 18.3333 24.024 19.976 25.6667 22 25.6667 24.024 25.6667 25.6667 24.024 25.6667 22 25.6667 21.6737 25.6135 21.3638 25.531 21.0613L28.2957 18.2985C28.9373 19.3912 29.3333 20.6433 29.3333 22Z" transform="matrix(1 0 -0 1.02273 3 3)"/></g></g></g><text font-family="Calibri,Calibri_MSFontService,sans-serif" font-weight="700" font-size="20" transform="translate(72.4748 23)">OBJECTIVE<tspan font-weight="400" font-size="12" x="-65.9358" y="71">An </tspan><tspan font-size="12" x="-49.9358" y="71">Objective</tspan><tspan font-weight="400" font-size="12" x="0.230873" y="71">is a statement of an </tspan><tspan font-weight="400" font-size="12" x="-65.9358" y="86">attainable, time</tspan><tspan font-weight="400" font-size="12" x="11.5642" y="86">-</tspan><tspan font-weight="400" font-size="12" x="15.2309" y="86">based, and </tspan><tspan font-weight="400" font-size="12" x="-65.9358" y="100">measurable result that the </tspan><tspan font-weight="400" font-size="12" x="-65.9358" y="114">enterprise seeks to meet in order to </tspan><tspan font-weight="400" font-size="12" x="-65.9358" y="129">achieve its </tspan><tspan font-size="12" x="-11.7691" y="129">Goals</tspan><tspan font-weight="400" font-size="12" x="16.2309" y="129">.</tspan></text></g></svg>