<svg width="265" height="265" xmlns="http://www.w3.org/2000/svg" xmlns:xlink="http://www.w3.org/1999/xlink" overflow="hidden"><defs><clipPath id="clip0"><path d="M0 0 265 0 265 265 0 265Z" fill-rule="evenodd" clip-rule="evenodd"/></clipPath><clipPath id="clip1"><path d="M35 51 55 51 55 71 35 71Z" fill-rule="evenodd" clip-rule="evenodd"/></clipPath><clipPath id="clip2"><path d="M35 51 55 51 55 71 35 71Z" fill-rule="evenodd" clip-rule="evenodd"/></clipPath><clipPath id="clip3"><path d="M35 51 55 51 55 71 35 71Z" fill-rule="evenodd" clip-rule="evenodd"/></clipPath><clipPath id="clip4"><path d="M216 10 226 10 226 21 216 21Z" fill-rule="evenodd" clip-rule="evenodd"/></clipPath><clipPath id="clip5"><path d="M216 10 226 10 226 21 216 21Z" fill-rule="evenodd" clip-rule="evenodd"/></clipPath><clipPath id="clip6"><path d="M216 10 226 10 226 21 216 21Z" fill-rule="evenodd" clip-rule="evenodd"/></clipPath><clipPath id="clip7"><path d="M189 24 201 24 201 34 189 34Z" fill-rule="evenodd" clip-rule="evenodd"/></clipPath><clipPath id="clip8"><path d="M189 24 201 24 201 34 189 34Z" fill-rule="evenodd" clip-rule="evenodd"/></clipPath><clipPath id="clip9"><path d="M189 24 201 24 201 34 189 34Z" fill-rule="evenodd" clip-rule="evenodd"/></clipPath><clipPath id="clip10"><path d="M209 36 218 36 218 47 209 47Z" fill-rule="evenodd" clip-rule="evenodd"/></clipPath><clipPath id="clip11"><path d="M209 36 218 36 218 47 209 47Z" fill-rule="evenodd" clip-rule="evenodd"/></clipPath><clipPath id="clip12"><path d="M209 36 218 36 218 47 209 47Z" fill-rule="evenodd" clip-rule="evenodd"/></clipPath><clipPath id="clip13"><path d="M208 51 217 51 217 63 208 63Z" fill-rule="evenodd" clip-rule="evenodd"/></clipPath><clipPath id="clip14"><path d="M208 51 217 51 217 63 208 63Z" fill-rule="evenodd" clip-rule="evenodd"/></clipPath><clipPath id="clip15"><path d="M208 51 217 51 217 63 208 63Z" fill-rule="evenodd" clip-rule="evenodd"/></clipPath><clipPath id="clip16"><path d="M217 64 228 64 228 73 217 73Z" fill-rule="evenodd" clip-rule="evenodd"/></clipPath><clipPath id="clip17"><path d="M217 64 228 64 228 73 217 73Z" fill-rule="evenodd" clip-rule="evenodd"/></clipPath><clipPath id="clip18"><path d="M217 64 228 64 228 73 217 73Z" fill-rule="evenodd" clip-rule="evenodd"/></clipPath><clipPath id="clip19"><path d="M204 78 213 78 213 88 204 88Z" fill-rule="evenodd" clip-rule="evenodd"/></clipPath><clipPath id="clip20"><path d="M204 78 213 78 213 88 204 88Z" fill-rule="evenodd" clip-rule="evenodd"/></clipPath><clipPath id="clip21"><path d="M204 78 213 78 213 88 204 88Z" fill-rule="evenodd" clip-rule="evenodd"/></clipPath><clipPath id="clip22"><path d="M212 92 221 92 221 103 212 103Z" fill-rule="evenodd" clip-rule="evenodd"/></clipPath><clipPath id="clip23"><path d="M212 92 221 92 221 103 212 103Z" fill-rule="evenodd" clip-rule="evenodd"/></clipPath><clipPath id="clip24"><path d="M212 92 221 92 221 103 212 103Z" fill-rule="evenodd" clip-rule="evenodd"/></clipPath><clipPath id="clip25"><path d="M224 104 235 104 235 113 224 113Z" fill-rule="evenodd" clip-rule="evenodd"/></clipPath><clipPath id="clip26"><path d="M224 104 235 104 235 113 224 113Z" fill-rule="evenodd" clip-rule="evenodd"/></clipPath><clipPath id="clip27"><path d="M224 104 235 104 235 113 224 113Z" fill-rule="evenodd" clip-rule="evenodd"/></clipPath><clipPath id="clip28"><path d="M224 116 236 116 236 128 224 128Z" fill-rule="evenodd" clip-rule="evenodd"/></clipPath><clipPath id="clip29"><path d="M224 116 236 116 236 128 224 128Z" fill-rule="evenodd" clip-rule="evenodd"/></clipPath><clipPath id="clip30"><path d="M224 116 236 116 236 128 224 128Z" fill-rule="evenodd" clip-rule="evenodd"/></clipPath><clipPath id="clip31"><path d="M216 131 227 131 227 141 216 141Z" fill-rule="evenodd" clip-rule="evenodd"/></clipPath><clipPath id="clip32"><path d="M216 131 227 131 227 141 216 141Z" fill-rule="evenodd" clip-rule="evenodd"/></clipPath><clipPath id="clip33"><path d="M216 131 227 131 227 141 216 141Z" fill-rule="evenodd" clip-rule="evenodd"/></clipPath><clipPath id="clip34"><path d="M204 145 213 145 213 155 204 155Z" fill-rule="evenodd" clip-rule="evenodd"/></clipPath><clipPath id="clip35"><path d="M204 145 213 145 213 155 204 155Z" fill-rule="evenodd" clip-rule="evenodd"/></clipPath><clipPath id="clip36"><path d="M204 145 213 145 213 155 204 155Z" fill-rule="evenodd" clip-rule="evenodd"/></clipPath><clipPath id="clip37"><path d="M212 156 223 156 223 168 212 168Z" fill-rule="evenodd" clip-rule="evenodd"/></clipPath><clipPath id="clip38"><path d="M212 156 223 156 223 168 212 168Z" fill-rule="evenodd" clip-rule="evenodd"/></clipPath><clipPath id="clip39"><path d="M212 156 223 156 223 168 212 168Z" fill-rule="evenodd" clip-rule="evenodd"/></clipPath><clipPath id="clip40"><path d="M213 172 223 172 223 182 213 182Z" fill-rule="evenodd" clip-rule="evenodd"/></clipPath><clipPath id="clip41"><path d="M213 172 223 172 223 182 213 182Z" fill-rule="evenodd" clip-rule="evenodd"/></clipPath><clipPath id="clip42"><path d="M213 172 223 172 223 182 213 182Z" fill-rule="evenodd" clip-rule="evenodd"/></clipPath><clipPath id="clip43"><path d="M204 183 213 183 213 194 204 194Z" fill-rule="evenodd" clip-rule="evenodd"/></clipPath><clipPath id="clip44"><path d="M204 183 213 183 213 194 204 194Z" fill-rule="evenodd" clip-rule="evenodd"/></clipPath><clipPath id="clip45"><path d="M204 183 213 183 213 194 204 194Z" fill-rule="evenodd" clip-rule="evenodd"/></clipPath><clipPath id="clip46"><path d="M225 197 237 197 237 208 225 208Z" fill-rule="evenodd" clip-rule="evenodd"/></clipPath><clipPath id="clip47"><path d="M225 197 237 197 237 208 225 208Z" fill-rule="evenodd" clip-rule="evenodd"/></clipPath><clipPath id="clip48"><path d="M225 197 237 197 237 208 225 208Z" fill-rule="evenodd" clip-rule="evenodd"/></clipPath><clipPath id="clip49"><path d="M213 211 224 211 224 220 213 220Z" fill-rule="evenodd" clip-rule="evenodd"/></clipPath><clipPath id="clip50"><path d="M213 211 224 211 224 220 213 220Z" fill-rule="evenodd" clip-rule="evenodd"/></clipPath><clipPath id="clip51"><path d="M213 211 224 211 224 220 213 220Z" fill-rule="evenodd" clip-rule="evenodd"/></clipPath><clipPath id="clip52"><path d="M214 223 224 223 224 235 214 235Z" fill-rule="evenodd" clip-rule="evenodd"/></clipPath><clipPath id="clip53"><path d="M214 223 224 223 224 235 214 235Z" fill-rule="evenodd" clip-rule="evenodd"/></clipPath><clipPath id="clip54"><path d="M214 223 224 223 224 235 214 235Z" fill-rule="evenodd" clip-rule="evenodd"/></clipPath><clipPath id="clip55"><path d="M201 237 212 237 212 248 201 248Z" fill-rule="evenodd" clip-rule="evenodd"/></clipPath><clipPath id="clip56"><path d="M201 237 212 237 212 248 201 248Z" fill-rule="evenodd" clip-rule="evenodd"/></clipPath><clipPath id="clip57"><path d="M201 237 212 237 212 248 201 248Z" fill-rule="evenodd" clip-rule="evenodd"/></clipPath></defs><g clip-path="url(#clip0)"><rect x="0" y="0" width="265" height="265" fill="#313131"/><rect x="89.5" y="131.5" width="1.99999" height="1" stroke="#2F528F" stroke-width="1.33585" stroke-miterlimit="8" fill="#4472C4"/><path d="M23.5 9.75271C23.5 8.50859 24.5085 7.50003 25.7527 7.50003L249.247 7.50003C250.491 7.50003 251.5 8.50859 251.5 9.75271L251.5 249.247C251.5 250.491 250.491 251.5 249.247 251.5L25.7527 251.5C24.5085 251.5 23.5 250.491 23.5 249.247Z" stroke="#FF0000" stroke-width="0.667927" stroke-miterlimit="8" stroke-opacity="0" fill="none" fill-rule="evenodd"/><path d="M30.0794 43.5 149.921 43.5C153.002 43.5 155.5 45.998 155.5 49.0794L155.5 214.252C155.5 216.598 153.598 218.5 151.252 218.5L28.7483 218.5C26.402 218.5 24.5 216.598 24.5 214.252L24.5 49.0794C24.5 45.998 26.998 43.5 30.0794 43.5Z" stroke="#911EB4" stroke-width="4.67549" stroke-miterlimit="8" fill="#FFFFFF" fill-rule="evenodd"/><g clip-path="url(#clip1)"><g clip-path="url(#clip2)"><g clip-path="url(#clip3)"><path d="M51.625 59.9166 37.375 59.9166C36.938 59.9166 36.5833 60.2713 36.5833 60.7083L36.5833 63.875C36.5833 64.3128 36.938 64.6666 37.375 64.6666L38.1667 64.6666 38.1667 69.4167C38.1667 69.8545 38.5213 70.2083 38.9583 70.2083L50.0417 70.2083C50.4795 70.2083 50.8334 69.8545 50.8334 69.4167L50.8334 64.6666 51.625 64.6666C52.0628 64.6666 52.4167 64.3128 52.4167 63.875L52.4167 60.7083C52.4167 60.2713 52.0628 59.9166 51.625 59.9166ZM49.25 68.625 39.75 68.625 39.75 64.6666 49.25 64.6666 49.25 68.625ZM50.8334 63.0833 50.0417 63.0833 38.9583 63.0833 38.1667 63.0833 38.1667 61.5 50.8334 61.5 50.8334 63.0833Z"/><path d="M38.9583 58.3333 42.9167 58.3333C43.3545 58.3333 43.7084 57.9786 43.7084 57.5416L43.7084 53.5833C43.7084 53.1463 43.3545 52.7916 42.9167 52.7916L38.9583 52.7916C38.5213 52.7916 38.1667 53.1463 38.1667 53.5833L38.1667 57.5416C38.1667 57.9786 38.5213 58.3333 38.9583 58.3333ZM39.75 54.375 42.125 54.375 42.125 56.75 39.75 56.75 39.75 54.375Z"/><path d="M48.0625 58.3333C49.5936 58.3333 50.8334 57.0928 50.8334 55.5625 50.8334 54.0322 49.5936 52.7916 48.0625 52.7916 46.5314 52.7916 45.2917 54.0322 45.2917 55.5625 45.2917 57.0928 46.5314 58.3333 48.0625 58.3333ZM48.0625 54.375C48.718 54.375 49.25 54.9062 49.25 55.5625 49.25 56.2188 48.718 56.75 48.0625 56.75 47.407 56.75 46.875 56.2188 46.875 55.5625 46.875 54.9062 47.407 54.375 48.0625 54.375Z"/></g></g></g><path d="M26.9702 6.36947C18.5628 6.36947 11.7473 10.3112 11.7473 15.1736L11.7473 248.948C11.7473 253.81 18.5628 257.752 26.9702 257.752L238.08 257.752C246.487 257.752 253.302 253.81 253.302 248.948L253.302 15.1736C253.302 10.3112 246.487 6.36947 238.08 6.36947ZM0 0 265 0 265 265 0 265Z" fill="#911EB4" fill-rule="evenodd"/><text font-family="Calibri,Calibri_MSFontService,sans-serif" font-weight="700" font-size="11" transform="translate(73.1277 63)">CAPABILITY<tspan font-weight="400" font-size="9" x="-41.8374" y="57">A </tspan><tspan font-size="9" x="-34.3232" y="57">Business Capability</tspan><tspan font-weight="400" font-size="9" x="42.3214" y="57">is the </tspan><tspan font-weight="400" font-size="9" x="-41.8374" y="68">acquired capacity of an </tspan><tspan font-weight="400" font-size="9" x="-41.8374" y="79">organisation to successfully </tspan><tspan font-weight="400" font-size="9" x="-41.8374" y="90">pursue a business endeavour </tspan><tspan font-weight="400" font-size="9" x="-41.8374" y="102">through a coordinated set of </tspan><tspan font-weight="400" font-size="9" x="-41.8374" y="113">Outcomes.</tspan></text><path d="M216.5 13.5C216.5 12.9477 216.948 12.5 217.5 12.5L247.5 12.5C248.052 12.5 248.5 12.9477 248.5 13.5L248.5 17.5C248.5 18.0522 248.052 18.5 247.5 18.5L217.5 18.5C216.948 18.5 216.5 18.0522 216.5 17.5Z" stroke="#A65462" stroke-width="1.33585" stroke-miterlimit="8" fill="#FFFFFF" fill-rule="evenodd"/><text font-family="Calibri,Calibri_MSFontService,sans-serif" font-weight="700" font-size="5" transform="translate(227.655 16)">CONTEXT</text><g clip-path="url(#clip4)"><g clip-path="url(#clip5)"><g clip-path="url(#clip6)"><path d="M6.03936 6.74998 2.94562 6.74998C2.5573 6.74998 2.24249 7.06478 2.24249 7.4531 2.24249 7.84142 2.5573 8.15623 2.94562 8.15623L6.03936 8.15623C6.42768 8.15623 6.74248 7.84142 6.74248 7.4531 6.74248 7.06478 6.42768 6.74998 6.03936 6.74998ZM3.13312 7.73435C2.97778 7.73435 2.85187 7.60844 2.85187 7.4531 2.85187 7.29777 2.97778 7.17185 3.13312 7.17185 3.28845 7.17185 3.41436 7.29777 3.41436 7.4531 3.41436 7.60844 3.28845 7.73435 3.13312 7.73435ZM4.49249 7.73435C4.33715 7.73435 4.21124 7.60844 4.21124 7.4531 4.21124 7.29777 4.33715 7.17185 4.49249 7.17185 4.64782 7.17185 4.77374 7.29777 4.77374 7.4531 4.77374 7.60844 4.64782 7.73435 4.49249 7.73435ZM5.85186 7.73435C5.69652 7.73435 5.57061 7.60844 5.57061 7.4531 5.57061 7.29777 5.69652 7.17185 5.85186 7.17185 6.00719 7.17185 6.13311 7.29777 6.13311 7.4531 6.13311 7.60844 6.00719 7.73435 5.85186 7.73435Z" transform="matrix(1 0 -0 1.00001 217 11)"/><path d="M5.1403 2.62499C5.1403 2.70266 5.07734 2.76562 4.99967 2.76562 4.92201 2.76562 4.85905 2.70266 4.85905 2.62499 4.85905 2.54733 4.92201 2.48437 4.99967 2.48437 5.07734 2.48437 5.1403 2.54733 5.1403 2.62499Z" transform="matrix(1 0 -0 1.00001 217 11)"/><path d="M5.30717 1.68749 4.68749 1.68749 4.68749 1.26093C4.86685 1.15738 4.9283 0.928035 4.82475 0.748676 4.72119 0.569317 4.49185 0.507864 4.31249 0.611417 4.13313 0.71497 4.07167 0.944313 4.17523 1.12367 4.20814 1.18068 4.25548 1.22802 4.31249 1.26093L4.31249 1.68749 3.6928 1.68749C3.46572 1.68801 3.28176 1.87198 3.28124 2.09906L3.28124 3.15093C3.28176 3.37801 3.46572 3.56197 3.6928 3.56249L5.30717 3.56249C5.53425 3.56197 5.71822 3.37801 5.71873 3.15093L5.71873 2.09906C5.71822 1.87198 5.53425 1.68801 5.30717 1.68749ZM4.03124 2.90624C3.8759 2.90624 3.74999 2.78033 3.74999 2.62499 3.74999 2.46966 3.8759 2.34374 4.03124 2.34374 4.18657 2.34374 4.31249 2.46966 4.31249 2.62499 4.31249 2.78033 4.18657 2.90624 4.03124 2.90624ZM4.96874 2.90624C4.8134 2.90624 4.68749 2.78033 4.68749 2.62499 4.68749 2.46966 4.8134 2.34374 4.96874 2.34374 5.12407 2.34374 5.24998 2.46966 5.24998 2.62499 5.24998 2.78033 5.12407 2.90624 4.96874 2.90624Z" transform="matrix(1 0 -0 1.00001 217 11)"/><path d="M4.2028 2.62499C4.2028 2.70266 4.13984 2.76562 4.06218 2.76562 3.98451 2.76562 3.92155 2.70266 3.92155 2.62499 3.92155 2.54733 3.98451 2.48437 4.06218 2.48437 4.13984 2.48437 4.2028 2.54733 4.2028 2.62499Z" transform="matrix(1 0 -0 1.00001 217 11)"/><path d="M6.93748 5.51436 6.93748 4.73342C6.93748 4.50094 6.74902 4.31249 6.51654 4.31249L5.99998 4.31249 5.99998 3.84374 2.99999 3.84374 2.99999 4.40624 2.29593 4.40624C2.27056 4.40624 2.24999 4.38567 2.24999 4.3603L2.24999 3.58311C2.57227 3.48794 2.75636 3.14953 2.66119 2.82727 2.63567 2.74087 2.59129 2.66122 2.53124 2.59405L2.24999 2.84343C2.28933 2.88621 2.31167 2.94188 2.31281 2.99999 2.3121 3.12943 2.2066 3.23379 2.07716 3.23309 1.94772 3.23238 1.84336 3.12688 1.84407 2.99744 1.84437 2.94153 1.86464 2.88758 1.90124 2.8453L1.62 2.59874C1.39904 2.8526 1.42571 3.23751 1.67956 3.45846 1.73699 3.50845 1.80328 3.54724 1.87499 3.5728L1.87499 4.3603C1.87499 4.59278 2.06345 4.78124 2.29593 4.78124L2.99999 4.78124 2.99999 6.46873 5.99998 6.46873 5.99998 4.68749 6.51654 4.68749C6.54191 4.68749 6.56248 4.70805 6.56248 4.73342L6.56248 5.51436C6.24227 5.61794 6.06667 5.9615 6.17025 6.28171 6.19618 6.36185 6.23844 6.43574 6.29436 6.49873L6.57561 6.24936C6.53681 6.20683 6.5154 6.15129 6.51561 6.09373 6.51572 5.96429 6.62074 5.85944 6.75018 5.85955 6.87962 5.85967 6.98447 5.96469 6.98435 6.09413 6.98431 6.1509 6.96365 6.20573 6.92623 6.24842L7.20748 6.49498C7.4293 6.24257 7.4045 5.85813 7.15209 5.63631 7.08964 5.58142 7.0166 5.53992 6.93748 5.51436ZM5.62498 5.15623 5.36436 5.15623C5.35529 5.15786 5.34667 5.16137 5.33905 5.16655L5.05217 5.45998 4.83374 4.94249 4.42592 5.78623 4.13999 4.68749 3.91968 5.15623 3.46874 5.15623 3.46874 4.96874 3.80061 4.96874 4.19061 4.13905 4.47936 5.24342 4.84592 4.49342 5.11592 5.1328 5.20967 5.03905C5.25084 4.99739 5.30591 4.97235 5.36436 4.96874L5.62498 4.96874Z" transform="matrix(1 0 -0 1.00001 217 11)"/></g></g></g><path d="M190.5 26.6666C190.5 26.0223 191.022 25.5 191.667 25.5L247.333 25.5C247.978 25.5 248.5 26.0223 248.5 26.6666L248.5 31.3333C248.5 31.9776 247.978 32.5 247.333 32.5L191.667 32.5C191.022 32.5 190.5 31.9776 190.5 31.3333Z" stroke="#5AA203" stroke-width="1.33585" stroke-miterlimit="8" fill="#FFFFFF" fill-rule="evenodd"/><text font-family="Calibri,Calibri_MSFontService,sans-serif" font-weight="700" font-size="5" transform="translate(201.267 30)">CAPABILITY LIFE CYCLE</text><g clip-path="url(#clip7)"><g clip-path="url(#clip8)"><g clip-path="url(#clip9)"><path d="M6.03936 6.74998 2.94562 6.74998C2.5573 6.74998 2.24249 7.06478 2.24249 7.4531 2.24249 7.84142 2.5573 8.15623 2.94562 8.15623L6.03936 8.15623C6.42768 8.15623 6.74248 7.84142 6.74248 7.4531 6.74248 7.06478 6.42768 6.74998 6.03936 6.74998ZM3.13312 7.73435C2.97778 7.73435 2.85187 7.60844 2.85187 7.4531 2.85187 7.29777 2.97778 7.17185 3.13312 7.17185 3.28845 7.17185 3.41436 7.29777 3.41436 7.4531 3.41436 7.60844 3.28845 7.73435 3.13312 7.73435ZM4.49249 7.73435C4.33715 7.73435 4.21124 7.60844 4.21124 7.4531 4.21124 7.29777 4.33715 7.17185 4.49249 7.17185 4.64782 7.17185 4.77374 7.29777 4.77374 7.4531 4.77374 7.60844 4.64782 7.73435 4.49249 7.73435ZM5.85186 7.73435C5.69652 7.73435 5.57061 7.60844 5.57061 7.4531 5.57061 7.29777 5.69652 7.17185 5.85186 7.17185 6.00719 7.17185 6.13311 7.29777 6.13311 7.4531 6.13311 7.60844 6.00719 7.73435 5.85186 7.73435Z" transform="matrix(1.11112 0 -0 1 190 24)"/><path d="M5.1403 2.62499C5.1403 2.70266 5.07734 2.76562 4.99967 2.76562 4.92201 2.76562 4.85905 2.70266 4.85905 2.62499 4.85905 2.54733 4.92201 2.48437 4.99967 2.48437 5.07734 2.48437 5.1403 2.54733 5.1403 2.62499Z" transform="matrix(1.11112 0 -0 1 190 24)"/><path d="M5.30717 1.68749 4.68749 1.68749 4.68749 1.26093C4.86685 1.15738 4.9283 0.928035 4.82475 0.748676 4.72119 0.569317 4.49185 0.507864 4.31249 0.611417 4.13313 0.71497 4.07167 0.944313 4.17523 1.12367 4.20814 1.18068 4.25548 1.22802 4.31249 1.26093L4.31249 1.68749 3.6928 1.68749C3.46572 1.68801 3.28176 1.87198 3.28124 2.09906L3.28124 3.15093C3.28176 3.37801 3.46572 3.56197 3.6928 3.56249L5.30717 3.56249C5.53425 3.56197 5.71822 3.37801 5.71873 3.15093L5.71873 2.09906C5.71822 1.87198 5.53425 1.68801 5.30717 1.68749ZM4.03124 2.90624C3.8759 2.90624 3.74999 2.78033 3.74999 2.62499 3.74999 2.46966 3.8759 2.34374 4.03124 2.34374 4.18657 2.34374 4.31249 2.46966 4.31249 2.62499 4.31249 2.78033 4.18657 2.90624 4.03124 2.90624ZM4.96874 2.90624C4.8134 2.90624 4.68749 2.78033 4.68749 2.62499 4.68749 2.46966 4.8134 2.34374 4.96874 2.34374 5.12407 2.34374 5.24998 2.46966 5.24998 2.62499 5.24998 2.78033 5.12407 2.90624 4.96874 2.90624Z" transform="matrix(1.11112 0 -0 1 190 24)"/><path d="M4.2028 2.62499C4.2028 2.70266 4.13984 2.76562 4.06218 2.76562 3.98451 2.76562 3.92155 2.70266 3.92155 2.62499 3.92155 2.54733 3.98451 2.48437 4.06218 2.48437 4.13984 2.48437 4.2028 2.54733 4.2028 2.62499Z" transform="matrix(1.11112 0 -0 1 190 24)"/><path d="M6.93748 5.51436 6.93748 4.73342C6.93748 4.50094 6.74902 4.31249 6.51654 4.31249L5.99998 4.31249 5.99998 3.84374 2.99999 3.84374 2.99999 4.40624 2.29593 4.40624C2.27056 4.40624 2.24999 4.38567 2.24999 4.3603L2.24999 3.58311C2.57227 3.48794 2.75636 3.14953 2.66119 2.82727 2.63567 2.74087 2.59129 2.66122 2.53124 2.59405L2.24999 2.84343C2.28933 2.88621 2.31167 2.94188 2.31281 2.99999 2.3121 3.12943 2.2066 3.23379 2.07716 3.23309 1.94772 3.23238 1.84336 3.12688 1.84407 2.99744 1.84437 2.94153 1.86464 2.88758 1.90124 2.8453L1.62 2.59874C1.39904 2.8526 1.42571 3.23751 1.67956 3.45846 1.73699 3.50845 1.80328 3.54724 1.87499 3.5728L1.87499 4.3603C1.87499 4.59278 2.06345 4.78124 2.29593 4.78124L2.99999 4.78124 2.99999 6.46873 5.99998 6.46873 5.99998 4.68749 6.51654 4.68749C6.54191 4.68749 6.56248 4.70805 6.56248 4.73342L6.56248 5.51436C6.24227 5.61794 6.06667 5.9615 6.17025 6.28171 6.19618 6.36185 6.23844 6.43574 6.29436 6.49873L6.57561 6.24936C6.53681 6.20683 6.5154 6.15129 6.51561 6.09373 6.51572 5.96429 6.62074 5.85944 6.75018 5.85955 6.87962 5.85967 6.98447 5.96469 6.98435 6.09413 6.98431 6.1509 6.96365 6.20573 6.92623 6.24842L7.20748 6.49498C7.4293 6.24257 7.4045 5.85813 7.15209 5.63631 7.08964 5.58142 7.0166 5.53992 6.93748 5.51436ZM5.62498 5.15623 5.36436 5.15623C5.35529 5.15786 5.34667 5.16137 5.33905 5.16655L5.05217 5.45998 4.83374 4.94249 4.42592 5.78623 4.13999 4.68749 3.91968 5.15623 3.46874 5.15623 3.46874 4.96874 3.80061 4.96874 4.19061 4.13905 4.47936 5.24342 4.84592 4.49342 5.11592 5.1328 5.20967 5.03905C5.25084 4.99739 5.30591 4.97235 5.36436 4.96874L5.62498 4.96874Z" transform="matrix(1.11112 0 -0 1 190 24)"/></g></g></g><path d="M208.5 40.5C208.5 39.9478 208.948 39.5 209.5 39.5L247.5 39.5C248.052 39.5 248.5 39.9478 248.5 40.5L248.5 44.5C248.5 45.0523 248.052 45.5 247.5 45.5L209.5 45.5C208.948 45.5 208.5 45.0523 208.5 44.5Z" stroke="#B74D41" stroke-width="1.33585" stroke-miterlimit="8" fill="#FFFFFF" fill-rule="evenodd"/><text font-family="Calibri,Calibri_MSFontService,sans-serif" font-weight="700" font-size="5" transform="translate(219.654 43)">APPLICATION</text><g clip-path="url(#clip10)"><g clip-path="url(#clip11)"><g clip-path="url(#clip12)"><path d="M4.57049 6.45036C4.47449 6.45036 4.37849 6.41361 4.30536 6.34048L3.79011 5.82561 3.17399 5.82561C2.96699 5.82561 2.79899 5.65798 2.79899 5.45061L2.79899 4.83449 2.43037 4.46549C2.28412 4.31886 2.28412 4.08186 2.43037 3.93524L2.79899 3.56661 2.79899 2.79899C2.79899 2.59199 2.96699 2.42399 3.17399 2.42399L3.94161 2.42399 4.30536 2.06024C4.45199 1.91362 4.68899 1.91362 4.83561 2.06024L5.19973 2.42399 5.82598 2.42399C6.03336 2.42399 6.20098 2.59199 6.20098 2.79899L6.20098 3.42524 6.71061 3.93524C6.78111 4.00574 6.82048 4.10099 6.82048 4.20036 6.82048 4.29974 6.78148 4.39536 6.71061 4.46586L6.20098 4.97511 6.20098 5.45061C6.20098 5.65798 6.03336 5.82561 5.82598 5.82561L5.35048 5.82561 4.83561 6.34048C4.76249 6.41398 4.66649 6.45036 4.57049 6.45036ZM3.54899 5.07561 3.94536 5.07561C4.04474 5.07561 4.14036 5.11498 4.21049 5.18548L4.57049 5.54511 4.92974 5.18548C5.00024 5.11498 5.09511 5.07561 5.19486 5.07561L5.45061 5.07561 5.45061 4.81986C5.45061 4.72011 5.48998 4.62486 5.56048 4.55474L5.91486 4.20036 5.56048 3.84561C5.48998 3.77511 5.45061 3.67986 5.45061 3.58049L5.45061 3.17399 5.04411 3.17399C4.94436 3.17399 4.84911 3.13462 4.77899 3.06412L4.57049 2.85562 4.36199 3.06412C4.29149 3.13462 4.19661 3.17399 4.09686 3.17399L3.54899 3.17399 3.54899 3.72186C3.54899 3.82124 3.50961 3.91686 3.43911 3.98699L3.22574 4.20074 3.43949 4.41411C3.50961 4.48461 3.54899 4.57986 3.54899 4.67924L3.54899 5.07561Z" transform="matrix(1 0 -0 1.11111 209 37.4167)"/><path d="M7.49998 6.37498C7.2926 6.37498 7.12498 6.20736 7.12498 5.99998L7.12498 1.125 1.87499 1.125 1.87499 5.99998C1.87499 6.20736 1.707 6.37498 1.5 6.37498 1.293 6.37498 1.125 6.20736 1.125 5.99998L1.125 0.749998C1.125 0.542998 1.293 0.374999 1.5 0.374999L7.49998 0.374999C7.70735 0.374999 7.87498 0.542998 7.87498 0.749998L7.87498 5.99998C7.87498 6.20736 7.70735 6.37498 7.49998 6.37498Z" transform="matrix(1 0 -0 1.11111 209 37.4167)"/><path d="M2.62499 7.12498 3.37499 7.12498 3.37499 7.87498 2.62499 7.87498Z" transform="matrix(1 0 -0 1.11111 209 37.4167)"/><path d="M4.12499 7.12498 4.87499 7.12498 4.87499 7.87498 4.12499 7.87498Z" transform="matrix(1 0 -0 1.11111 209 37.4167)"/><path d="M5.62498 7.12498 6.37498 7.12498 6.37498 7.87498 5.62498 7.87498Z" transform="matrix(1 0 -0 1.11111 209 37.4167)"/><path d="M7.12498 7.12498 7.87498 7.12498 7.87498 7.87498 7.12498 7.87498Z" transform="matrix(1 0 -0 1.11111 209 37.4167)"/><path d="M1.125 7.12498 1.87499 7.12498 1.87499 7.87498 1.125 7.87498Z" transform="matrix(1 0 -0 1.11111 209 37.4167)"/><path d="M4.84836 4.09836C4.84836 4.30547 4.68047 4.47336 4.47336 4.47336 4.26626 4.47336 4.09836 4.30547 4.09836 4.09836 4.09836 3.89126 4.26626 3.72336 4.47336 3.72336 4.68047 3.72336 4.84836 3.89126 4.84836 4.09836Z" transform="matrix(1 0 -0 1.11111 209 37.4167)"/></g></g></g><path d="M207.5 53.5C207.5 52.3954 208.395 51.5 209.5 51.5L246.5 51.5C247.605 51.5 248.5 52.3954 248.5 53.5L248.5 61.5C248.5 62.6045 247.605 63.5 246.5 63.5L209.5 63.5C208.395 63.5 207.5 62.6045 207.5 61.5Z" stroke="#B74D41" stroke-width="1.33585" stroke-miterlimit="8" fill="#FFFFFF" fill-rule="evenodd"/><text font-family="Calibri,Calibri_MSFontService,sans-serif" font-weight="700" font-size="5" transform="translate(219.192 55)">APPLICATION<tspan x="0" y="6">FUNCTION</tspan></text><g clip-path="url(#clip13)"><g clip-path="url(#clip14)"><g clip-path="url(#clip15)"><path d="M7.49998 0.749998 1.5 0.749998C1.293 0.749998 1.125 0.917997 1.125 1.125L1.125 4.49999 1.125 4.87499 1.125 5.24998 1.87499 5.24998 1.87499 4.87499 1.87499 4.49999 1.87499 1.5 7.12498 1.5 7.12498 4.49999 7.12498 4.87499 7.12498 5.24998 7.87498 5.24998 7.87498 4.87499 7.87498 4.49999 7.87498 1.125C7.87498 0.917997 7.70735 0.749998 7.49998 0.749998Z" transform="matrix(1 0 -0 1.11112 208 52)"/><path d="M2.62499 7.49998 3.37499 7.49998 3.37499 8.24998 2.62499 8.24998Z" transform="matrix(1 0 -0 1.11112 208 52)"/><path d="M4.12499 7.49998 4.87499 7.49998 4.87499 8.24998 4.12499 8.24998Z" transform="matrix(1 0 -0 1.11112 208 52)"/><path d="M5.62498 7.49998 6.37498 7.49998 6.37498 8.24998 5.62498 8.24998Z" transform="matrix(1 0 -0 1.11112 208 52)"/><path d="M7.12498 7.49998 7.87498 7.49998 7.87498 8.24998 7.12498 8.24998Z" transform="matrix(1 0 -0 1.11112 208 52)"/><path d="M1.125 7.49998 1.87499 7.49998 1.87499 8.24998 1.125 8.24998Z" transform="matrix(1 0 -0 1.11112 208 52)"/><path d="M2.62499 5.99998 3.37499 5.99998 3.37499 6.74998 2.62499 6.74998Z" transform="matrix(1 0 -0 1.11112 208 52)"/><path d="M4.12499 5.99998 4.87499 5.99998 4.87499 6.74998 4.12499 6.74998Z" transform="matrix(1 0 -0 1.11112 208 52)"/><path d="M5.62498 5.99998 6.37498 5.99998 6.37498 6.74998 5.62498 6.74998Z" transform="matrix(1 0 -0 1.11112 208 52)"/><path d="M7.12498 5.99998 7.87498 5.99998 7.87498 6.74998 7.12498 6.74998Z" transform="matrix(1 0 -0 1.11112 208 52)"/><path d="M1.125 5.99998 1.87499 5.99998 1.87499 6.74998 1.125 6.74998Z" transform="matrix(1 0 -0 1.11112 208 52)"/><path d="M2.62499 4.49999 3.37499 4.49999 3.37499 5.24998 2.62499 5.24998Z" transform="matrix(1 0 -0 1.11112 208 52)"/><path d="M4.12499 4.49999 4.87499 4.49999 4.87499 5.24998 4.12499 5.24998Z" transform="matrix(1 0 -0 1.11112 208 52)"/><path d="M5.62498 4.49999 6.37498 4.49999 6.37498 5.24998 5.62498 5.24998Z" transform="matrix(1 0 -0 1.11112 208 52)"/><path d="M5.24998 2.99999C5.24998 3.4142 4.9142 3.74999 4.49999 3.74999 4.08577 3.74999 3.74999 3.4142 3.74999 2.99999 3.74999 2.58578 4.08577 2.24999 4.49999 2.24999 4.9142 2.24999 5.24998 2.58578 5.24998 2.99999Z" transform="matrix(1 0 -0 1.11112 208 52)"/></g></g></g><path d="M218.5 66.6667C218.5 66.0223 219.022 65.5 219.667 65.5L247.333 65.5C247.978 65.5 248.5 66.0223 248.5 66.6667L248.5 71.3333C248.5 71.9777 247.978 72.5 247.333 72.5L219.667 72.5C219.022 72.5 218.5 71.9777 218.5 71.3333Z" stroke="#B74D41" stroke-width="1.33585" stroke-miterlimit="8" fill="#FFFFFF" fill-rule="evenodd"/><text font-family="Calibri,Calibri_MSFontService,sans-serif" font-weight="700" font-size="5" transform="translate(229.239 70)">RECORD</text><g clip-path="url(#clip16)"><g clip-path="url(#clip17)"><g clip-path="url(#clip18)"><path d="M3.37499 7.87498 1.125 7.87498C0.917997 7.87498 0.749998 7.70735 0.749998 7.49998L0.749998 0.749998C0.749998 0.542998 0.917997 0.374999 1.125 0.374999L3.37499 0.374999C3.58236 0.374999 3.74999 0.542998 3.74999 0.749998L3.74999 7.49998C3.74999 7.70735 3.58236 7.87498 3.37499 7.87498ZM1.5 7.12498 2.99999 7.12498 2.99999 1.125 1.5 1.125 1.5 7.12498Z" transform="matrix(1.11111 0 -0 1 218.417 64.375)"/><path d="M7.12498 7.87498 4.87499 7.87498C4.66761 7.87498 4.49999 7.70735 4.49999 7.49998L4.49999 0.749998C4.49999 0.542998 4.66761 0.374999 4.87499 0.374999L7.12498 0.374999C7.33235 0.374999 7.49998 0.542998 7.49998 0.749998L7.49998 7.49998C7.49998 7.70735 7.33235 7.87498 7.12498 7.87498ZM5.24998 7.12498 6.74998 7.12498 6.74998 1.125 5.24998 1.125 5.24998 7.12498Z" transform="matrix(1.11111 0 -0 1 218.417 64.375)"/><path d="M1.87499 4.12499 2.62499 4.12499 2.62499 4.87499 1.87499 4.87499Z" transform="matrix(1.11111 0 -0 1 218.417 64.375)"/><path d="M1.87499 5.62498 2.62499 5.62498 2.62499 6.37498 1.87499 6.37498Z" transform="matrix(1.11111 0 -0 1 218.417 64.375)"/><path d="M5.62498 4.12499 6.37498 4.12499 6.37498 4.87499 5.62498 4.87499Z" transform="matrix(1.11111 0 -0 1 218.417 64.375)"/><path d="M5.62498 5.62498 6.37498 5.62498 6.37498 6.37498 5.62498 6.37498Z" transform="matrix(1.11111 0 -0 1 218.417 64.375)"/><path d="M6.37498 2.24999C6.37498 2.4571 6.20709 2.62499 5.99998 2.62499 5.79288 2.62499 5.62498 2.4571 5.62498 2.24999 5.62498 2.04289 5.79288 1.87499 5.99998 1.87499 6.20709 1.87499 6.37498 2.04289 6.37498 2.24999Z" transform="matrix(1.11111 0 -0 1 218.417 64.375)"/><path d="M2.62499 2.24999C2.62499 2.4571 2.4571 2.62499 2.24999 2.62499 2.04289 2.62499 1.87499 2.4571 1.87499 2.24999 1.87499 2.04289 2.04289 1.87499 2.24999 1.87499 2.4571 1.87499 2.62499 2.04289 2.62499 2.24999Z" transform="matrix(1.11111 0 -0 1 218.417 64.375)"/></g></g></g><path d="M203.5 79.6667C203.5 78.4701 204.47 77.5 205.667 77.5L246.333 77.5C247.53 77.5 248.5 78.4701 248.5 79.6667L248.5 88.3333C248.5 89.5299 247.53 90.5 246.333 90.5L205.667 90.5C204.47 90.5 203.5 89.5299 203.5 88.3333Z" stroke="#CEB023" stroke-width="1.33585" stroke-miterlimit="8" fill="#FFFFFF" fill-rule="evenodd"/><text font-family="Calibri,Calibri_MSFontService,sans-serif" font-weight="700" font-size="5" transform="translate(214.935 82)">ORGANISATION<tspan x="0" y="6">UNIT</tspan></text><g clip-path="url(#clip19)"><g clip-path="url(#clip20)"><g clip-path="url(#clip21)"><path d="M207.375 87.625 205.125 87.625C204.918 87.625 204.75 87.4573 204.75 87.25L204.75 85.75C204.75 85.5426 204.918 85.375 205.125 85.375L207.375 85.375C207.582 85.375 207.75 85.5426 207.75 85.75L207.75 87.25C207.75 87.4573 207.582 87.625 207.375 87.625ZM205.5 86.875 207 86.875 207 86.125 205.5 86.125 205.5 86.875Z"/><path d="M209.625 82 207.375 82C207.168 82 207 81.832 207 81.625L207 80.125C207 79.918 207.168 79.75 207.375 79.75L209.625 79.75C209.832 79.75 210 79.918 210 80.125L210 81.625C210 81.832 209.832 82 209.625 82ZM207.75 81.25 209.25 81.25 209.25 80.5 207.75 80.5 207.75 81.25Z"/><path d="M211.875 85.375 209.625 85.375C209.418 85.375 209.25 85.5426 209.25 85.75L209.25 87.25C209.25 87.4573 209.418 87.625 209.625 87.625L211.875 87.625C212.082 87.625 212.25 87.4573 212.25 87.25L212.25 85.75C212.25 85.5426 212.082 85.375 211.875 85.375Z"/><path d="M210.375 84.625C210.168 84.625 210 84.4573 210 84.25L210 83.6875C210 83.5825 209.918 83.5 209.814 83.5L207.186 83.5C207.084 83.5 207 83.584 207 83.6875L207 84.25C207 84.4573 206.832 84.625 206.625 84.625 206.418 84.625 206.25 84.4573 206.25 84.25L206.25 83.6875C206.25 83.1707 206.67 82.75 207.186 82.75L209.814 82.75C210.33 82.75 210.75 83.1707 210.75 83.6875L210.75 84.25C210.75 84.4573 210.582 84.625 210.375 84.625Z"/></g></g></g><path d="M211.5 93.5C211.5 92.3954 212.395 91.5 213.5 91.5L246.5 91.5C247.605 91.5 248.5 92.3954 248.5 93.5L248.5 101.5C248.5 102.605 247.605 103.5 246.5 103.5L213.5 103.5C212.395 103.5 211.5 102.605 211.5 101.5Z" stroke="#CEB023" stroke-width="1.33585" stroke-miterlimit="8" fill="#FFFFFF" fill-rule="evenodd"/><text font-family="Calibri,Calibri_MSFontService,sans-serif" font-weight="700" font-size="5" transform="translate(223.009 95)">POSITION<tspan x="0" y="6">SKILL LEVEL</tspan></text><g clip-path="url(#clip22)"><g clip-path="url(#clip23)"><g clip-path="url(#clip24)"><path d="M1.84124 4.49999 2.99999 3.85949 4.15874 4.49999 3.93749 3.14324 4.87499 2.18249 3.57936 1.98449 2.99999 0.749998 2.42062 1.98449 1.125 2.18249 2.06249 3.14324Z" transform="matrix(1 0 -0 1.11111 212 92)"/><path d="M7.87498 5.62498 3.37499 5.62498 3.37499 5.24998C3.37499 5.04261 3.20699 4.87499 2.99999 4.87499 2.79299 4.87499 2.62499 5.04261 2.62499 5.24998L2.62499 5.62498 1.125 5.62498C0.917997 5.62498 0.749998 5.79261 0.749998 5.99998L0.749998 7.49998C0.749998 7.70735 0.917997 7.87498 1.125 7.87498L2.62499 7.87498C2.62499 8.08235 2.79299 8.24998 2.99999 8.24998 3.20699 8.24998 3.37499 8.08235 3.37499 7.87498L7.87498 7.87498C8.08235 7.87498 8.24998 7.70735 8.24998 7.49998L8.24998 5.99998C8.24998 5.79261 8.08235 5.62498 7.87498 5.62498ZM1.5 7.12498 1.5 6.37498 2.62499 6.37498 2.62499 7.12498 1.5 7.12498ZM7.49998 7.12498 3.37499 7.12498 3.37499 6.37498 7.49998 6.37498 7.49998 7.12498Z" transform="matrix(1 0 -0 1.11111 212 92)"/></g></g></g><path d="M224.5 106.667C224.5 106.022 225.022 105.5 225.667 105.5L247.333 105.5C247.978 105.5 248.5 106.022 248.5 106.667L248.5 111.333C248.5 111.978 247.978 112.5 247.333 112.5L225.667 112.5C225.022 112.5 224.5 111.978 224.5 111.333Z" stroke="#CEB023" stroke-width="1.33585" stroke-miterlimit="8" fill="#FFFFFF" fill-rule="evenodd"/><text font-family="Calibri,Calibri_MSFontService,sans-serif" font-weight="700" font-size="5" transform="translate(235.598 110)">ROLE</text><g clip-path="url(#clip25)"><g clip-path="url(#clip26)"><g clip-path="url(#clip27)"><path d="M4.49999 3.74999C3.87974 3.74999 3.37499 4.25474 3.37499 4.87499 3.37499 5.49523 3.87974 5.99998 4.49999 5.99998 5.12023 5.99998 5.62498 5.49523 5.62498 4.87499 5.62498 4.25474 5.12023 3.74999 4.49999 3.74999ZM4.49999 5.24998C4.29299 5.24998 4.12499 5.08198 4.12499 4.87499 4.12499 4.66836 4.29299 4.49999 4.49999 4.49999 4.70699 4.49999 4.87499 4.66836 4.87499 4.87499 4.87499 5.08198 4.70699 5.24998 4.49999 5.24998Z" transform="matrix(1.00001 0 -0 1 225 104)"/><path d="M7.87498 1.87499 5.62498 1.87499 5.62498 1.125C5.62498 0.917997 5.45736 0.749998 5.24998 0.749998L3.74999 0.749998C3.54299 0.749998 3.37499 0.917997 3.37499 1.125L3.37499 1.87499 1.125 1.87499C0.917997 1.87499 0.749998 2.04299 0.749998 2.24999L0.749998 8.24998C0.749998 8.45735 0.917997 8.62497 1.125 8.62497L7.87498 8.62497C8.08235 8.62497 8.24998 8.45735 8.24998 8.24998L8.24998 2.24999C8.24998 2.04299 8.08235 1.87499 7.87498 1.87499ZM4.12499 1.5 4.87499 1.5 4.87499 2.62499 4.12499 2.62499 4.12499 1.5ZM5.62498 7.87498 3.37499 7.87498 3.37499 7.49998C3.37499 7.2896 3.53924 7.12498 3.74924 7.12498L5.25073 7.12498C5.46073 7.12498 5.62498 7.2896 5.62498 7.49998L5.62498 7.87498ZM7.49998 7.87498 6.37498 7.87498 6.37498 7.49998C6.37498 6.87973 5.87023 6.37498 5.25073 6.37498L3.74924 6.37498C3.12937 6.37498 2.62499 6.87973 2.62499 7.49998L2.62499 7.87498 1.5 7.87498 1.5 2.62499 3.37499 2.62499 3.37499 2.99999C3.37499 3.20699 3.54299 3.37499 3.74999 3.37499L5.24998 3.37499C5.45736 3.37499 5.62498 3.20699 5.62498 2.99999L5.62498 2.62499 7.49998 2.62499 7.49998 7.87498Z" transform="matrix(1.00001 0 -0 1 225 104)"/></g></g></g><path d="M224.5 120.5C224.5 119.948 224.948 119.5 225.5 119.5L247.5 119.5C248.052 119.5 248.5 119.948 248.5 120.5L248.5 124.5C248.5 125.052 248.052 125.5 247.5 125.5L225.5 125.5C224.948 125.5 224.5 125.052 224.5 124.5Z" stroke="#CEB023" stroke-width="1.33585" stroke-miterlimit="8" fill="#FFFFFF" fill-rule="evenodd"/><text font-family="Calibri,Calibri_MSFontService,sans-serif" font-weight="700" font-size="5" transform="translate(235.942 123)">SKILL</text><g clip-path="url(#clip28)"><g clip-path="url(#clip29)"><g clip-path="url(#clip30)"><path d="M230 121.583C228.851 121.583 227.917 120.649 227.917 119.5 227.917 118.351 228.851 117.417 230 117.417 231.149 117.417 232.083 118.351 232.083 119.5 232.083 120.649 231.149 121.583 230 121.583ZM230 118.25C229.311 118.25 228.75 118.811 228.75 119.5 228.75 120.189 229.311 120.75 230 120.75 230.689 120.75 231.25 120.189 231.25 119.5 231.25 118.811 230.689 118.25 230 118.25Z"/><path d="M232.917 127C232.686 127 232.5 126.814 232.5 126.583L232.5 124.708C232.5 123.904 231.845 123.25 231.039 123.25L228.961 123.25C228.155 123.25 227.5 123.904 227.5 124.708L227.5 126.583C227.5 126.814 227.313 127 227.083 127 226.853 127 226.667 126.814 226.667 126.583L226.667 124.708C226.667 123.445 227.696 122.417 228.961 122.417L231.039 122.417C232.304 122.417 233.333 123.445 233.333 124.708L233.333 126.583C233.333 126.814 233.147 127 232.917 127Z"/><path d="M230 126.43 228.97 127 229.167 125.794 228.333 124.94 229.485 124.764 230 123.667 230.515 124.764 231.667 124.94 230.833 125.794 231.03 127Z"/></g></g></g><path d="M217.5 133.5C217.5 132.948 217.948 132.5 218.5 132.5L247.5 132.5C248.052 132.5 248.5 132.948 248.5 133.5L248.5 137.5C248.5 138.052 248.052 138.5 247.5 138.5L218.5 138.5C217.948 138.5 217.5 138.052 217.5 137.5Z" stroke="#377692" stroke-width="1.33585" stroke-miterlimit="8" fill="#FFFFFF" fill-rule="evenodd"/><text font-family="Calibri,Calibri_MSFontService,sans-serif" font-weight="700" font-size="5" transform="translate(228.336 136)">PROCESS</text><g clip-path="url(#clip31)"><g clip-path="url(#clip32)"><g clip-path="url(#clip33)"><path d="M7.87498 3.37499 7.20598 3.37499 7.20598 1.5105C7.20598 1.3035 7.03873 1.1355 6.83098 1.1355L3.77136 1.1355C3.76386 1.1355 3.75749 1.13925 3.74999 1.13962L3.74999 0.749998C3.74999 0.542998 3.58199 0.374999 3.37499 0.374999L1.125 0.374999C0.917997 0.374999 0.749998 0.542998 0.749998 0.749998L0.749998 2.24999C0.749998 2.45699 0.917997 2.62499 1.125 2.62499L3.37499 2.62499C3.58199 2.62499 3.74999 2.45699 3.74999 2.24999L3.74999 1.88137C3.75749 1.88174 3.76386 1.88549 3.77136 1.88549L6.45598 1.88549 6.45598 3.37499 5.62498 3.37499C5.41761 3.37499 5.24998 3.54299 5.24998 3.74999L5.24998 4.12499 2.62499 4.12499C2.41799 4.12499 2.24999 4.29299 2.24999 4.49999L2.24999 6.37498 1.5 6.37498C1.293 6.37498 1.125 6.54261 1.125 6.74998L1.125 8.24998C1.125 8.45735 1.293 8.62497 1.5 8.62497L3.74999 8.62497C3.95736 8.62497 4.12499 8.45735 4.12499 8.24998L4.12499 7.87498 6.74998 7.87498C6.95735 7.87498 7.12498 7.70735 7.12498 7.49998L7.12498 5.62498 7.87498 5.62498C8.08235 5.62498 8.24998 5.45736 8.24998 5.24998L8.24998 3.74999C8.24998 3.54299 8.08235 3.37499 7.87498 3.37499ZM2.99999 1.87499 1.5 1.87499 1.5 1.125 2.99999 1.125 2.99999 1.87499ZM3.37499 7.87498 1.87499 7.87498 1.87499 7.12498 3.37499 7.12498 3.37499 7.87498ZM6.37498 7.12498 4.12499 7.12498 4.12499 6.74998C4.12499 6.54261 3.95736 6.37498 3.74999 6.37498L2.99999 6.37498 2.99999 4.87499 5.24998 4.87499 5.24998 5.24998C5.24998 5.45736 5.41761 5.62498 5.62498 5.62498L6.37498 5.62498 6.37498 7.12498ZM7.49998 4.87499 5.99998 4.87499 5.99998 4.12499 7.49998 4.12499 7.49998 4.87499Z" transform="matrix(1.11111 0 -0 1 217 131)"/></g></g></g><path d="M203.5 146.667C203.5 145.47 204.47 144.5 205.667 144.5L246.333 144.5C247.53 144.5 248.5 145.47 248.5 146.667L248.5 155.333C248.5 156.53 247.53 157.5 246.333 157.5L205.667 157.5C204.47 157.5 203.5 156.53 203.5 155.333Z" stroke="#F032E6" stroke-width="1.33585" stroke-miterlimit="8" fill="#FFFFFF" fill-rule="evenodd"/><text font-family="Calibri,Calibri_MSFontService,sans-serif" font-weight="700" font-size="5" transform="translate(215.107 149)">VALUE STREAM<tspan x="0" y="6">STAGE</tspan></text><g clip-path="url(#clip34)"><g clip-path="url(#clip35)"><g clip-path="url(#clip36)"><path d="M212.544 152.704 211.799 151.767C211.727 151.677 211.619 151.625 211.505 151.625L209.25 151.625C209.106 151.625 208.975 151.708 208.913 151.837 208.85 151.967 208.867 152.121 208.957 152.234L209.52 152.937 208.957 153.641C208.867 153.753 208.85 153.908 208.913 154.038 208.975 154.167 209.106 154.25 209.25 154.25L211.505 154.25C211.62 154.25 211.728 154.198 211.799 154.108L212.544 153.171C212.652 153.034 212.652 152.841 212.544 152.704Z"/><path d="M207.674 151.767C207.603 151.677 207.495 151.625 207.38 151.625L205.125 151.625C204.981 151.625 204.849 151.708 204.787 151.837 204.725 151.967 204.742 152.121 204.833 152.234L205.395 152.937 204.833 153.641C204.743 153.753 204.725 153.908 204.787 154.038 204.849 154.167 204.981 154.25 205.125 154.25L207.38 154.25C207.495 154.25 207.603 154.198 207.674 154.108L208.419 153.171C208.527 153.034 208.527 152.841 208.419 152.704L207.674 151.767ZM207.199 153.5 205.905 153.5 206.168 153.172C206.277 153.035 206.277 152.84 206.168 152.703L205.905 152.375 207.199 152.375 207.646 152.937 207.199 153.5Z"/><path d="M210.75 148.623C210.75 148.522 210.711 148.426 210.639 148.355L208.767 146.481C208.626 146.339 208.374 146.339 208.233 146.481L206.361 148.355C206.213 148.503 206.213 148.742 206.361 148.89L208.232 150.764C208.304 150.835 208.399 150.875 208.5 150.875 208.601 150.875 208.696 150.835 208.767 150.764L210.639 148.89C210.711 148.819 210.75 148.723 210.75 148.623ZM208.5 149.961 207.163 148.623 208.5 147.284 209.837 148.623 208.5 149.961Z"/></g></g></g><path d="M212.5 160.5C212.5 159.948 212.948 159.5 213.5 159.5L247.5 159.5C248.052 159.5 248.5 159.948 248.5 160.5L248.5 164.5C248.5 165.052 248.052 165.5 247.5 165.5L213.5 165.5C212.948 165.5 212.5 165.052 212.5 164.5Z" stroke="#FABEBE" stroke-width="1.33585" stroke-miterlimit="8" fill="#FFFFFF" fill-rule="evenodd"/><text font-family="Calibri,Calibri_MSFontService,sans-serif" font-weight="700" font-size="5" transform="translate(224.08 163)">PAINPOINT</text><g clip-path="url(#clip37)"><g clip-path="url(#clip38)"><g clip-path="url(#clip39)"><path d="M4.58332 9.58331C4.58332 9.58331 4.5829 9.58331 4.58249 9.58331 4.44332 9.58289 4.31374 9.51372 4.23665 9.39789 4.11457 9.21497 1.25 4.89832 1.25 2.84707 1.25 0.864581 2.55833-0.416665 4.58332-0.416665 6.63956-0.416665 7.91664 0.833748 7.91664 2.84707 7.91664 4.93207 5.05124 9.21789 4.92915 9.39872 4.85165 9.51414 4.72207 9.58331 4.58332 9.58331ZM4.58332 0.416665C3.83166 0.416665 2.08333 0.653331 2.08333 2.84707 2.08333 4.15624 3.66124 6.93498 4.58457 8.40081 5.5079 6.94373 7.08331 4.17915 7.08331 2.84707 7.08331 0.653331 5.33498 0.416665 4.58332 0.416665Z" transform="matrix(1 0 -0 1.00001 213.417 157.417)"/><path d="M4.99999 5.41665C4.99999 5.64677 4.81344 5.83332 4.58332 5.83332 4.3532 5.83332 4.16665 5.64677 4.16665 5.41665 4.16665 5.18653 4.3532 4.99999 4.58332 4.99999 4.81344 4.99999 4.99999 5.18653 4.99999 5.41665Z" transform="matrix(1 0 -0 1.00001 213.417 157.417)"/><path d="M4.5854 4.58332C4.3554 4.58332 4.16915 4.39707 4.16874 4.16707L4.16665 1.66708C4.16665 1.43708 4.3529 1.25 4.5829 1.25 4.58332 1.25 4.58332 1.25 4.58332 1.25 4.81332 1.25 4.99999 1.43625 4.99999 1.66625L5.00207 4.16624C5.00207 4.39624 4.81582 4.58332 4.5854 4.58332 4.58582 4.58332 4.58582 4.58332 4.5854 4.58332Z" transform="matrix(1 0 -0 1.00001 213.417 157.417)"/></g></g></g><path d="M213.5 173.5C213.5 172.395 214.396 171.5 215.5 171.5L246.5 171.5C247.605 171.5 248.5 172.395 248.5 173.5L248.5 181.5C248.5 182.605 247.605 183.5 246.5 183.5L215.5 183.5C214.396 183.5 213.5 182.605 213.5 181.5Z" stroke="#000080" stroke-width="1.33585" stroke-miterlimit="8" fill="#FFFFFF" fill-rule="evenodd"/><text font-family="Calibri,Calibri_MSFontService,sans-serif" font-weight="700" font-size="5" transform="translate(224.918 175)">BUSINESS<tspan x="0" y="6">OUTCOME</tspan></text><g clip-path="url(#clip40)"><g clip-path="url(#clip41)"><g clip-path="url(#clip42)"><path d="M8.62497 0.749998 3.36411 0.749998C3.15712 0.749998 2.98912 0.917997 2.98912 1.125L2.98912 1.5 0.374999 1.5C0.168 1.5 0 1.668 0 1.87499L0 6.37498C0 6.58236 0.168 6.74998 0.374999 6.74998L1.48575 6.74998 1.48575 7.49998C1.48575 7.70735 1.65375 7.87498 1.86074 7.87498L2.98912 7.87498 2.98912 8.24998C2.98912 8.45735 3.15712 8.62497 3.36411 8.62497L8.62497 8.62497C8.83235 8.62497 8.99997 8.45735 8.99997 8.24998L8.99997 1.125C8.99997 0.917997 8.83235 0.749998 8.62497 0.749998ZM0.749998 5.99998 0.749998 2.24999 2.98912 2.24999 2.98912 2.62499 1.86074 2.62499C1.65375 2.62499 1.48575 2.79299 1.48575 2.99999L1.48575 5.99998 0.749998 5.99998ZM2.23574 7.12498 2.23574 3.37499 2.98912 3.37499 2.98912 7.12498 2.23574 7.12498ZM8.24998 7.87498 3.73911 7.87498 3.73911 7.49998 3.73911 2.99999 3.73911 1.5 8.24998 1.5 8.24998 7.87498Z" transform="matrix(1 0 -0 1.11111 214 172)"/><path d="M4.49961 5.43748C4.61511 5.43748 4.72836 5.38386 4.80261 5.28411L5.60886 4.18424 6.42711 4.95411C6.51898 5.04036 6.64761 5.07411 6.77135 5.04599 6.8936 5.01674 6.9941 4.92786 7.03648 4.80936L7.85248 2.56574C7.92335 2.37112 7.82323 2.15587 7.62823 2.08499 7.43285 2.01449 7.21835 2.11462 7.14785 2.30924L6.52686 4.01774 5.81473 3.34762C5.73636 3.27412 5.63436 3.23774 5.52373 3.24749 5.41686 3.25724 5.31936 3.31237 5.25561 3.39899L4.19849 4.84086C4.07624 5.00811 4.11224 5.24248 4.27911 5.36473 4.34511 5.41423 4.42274 5.43748 4.49961 5.43748Z" transform="matrix(1 0 -0 1.11111 214 172)"/><path d="M4.49999 6.93748 7.49998 6.93748C7.70735 6.93748 7.87498 6.76986 7.87498 6.56248 7.87498 6.35511 7.70735 6.18748 7.49998 6.18748L4.49999 6.18748C4.29299 6.18748 4.12499 6.35511 4.12499 6.56248 4.12499 6.76986 4.29299 6.93748 4.49999 6.93748Z" transform="matrix(1 0 -0 1.11111 214 172)"/></g></g></g><path d="M203.5 186.667C203.5 186.022 204.022 185.5 204.667 185.5L247.333 185.5C247.978 185.5 248.5 186.022 248.5 186.667L248.5 191.333C248.5 191.978 247.978 192.5 247.333 192.5L204.667 192.5C204.022 192.5 203.5 191.978 203.5 191.333Z" stroke="#000080" stroke-width="1.33585" stroke-miterlimit="8" fill="#FFFFFF" fill-rule="evenodd"/><text font-family="Calibri,Calibri_MSFontService,sans-serif" font-weight="700" font-size="5" transform="translate(214.887 190)">ENHANCEMENT</text><g clip-path="url(#clip43)"><g clip-path="url(#clip44)"><g clip-path="url(#clip45)"><path d="M6.05211 1.96012C5.90548 1.81574 5.67111 1.81574 5.52486 1.96012L0.486374 6.93561C0.415124 7.00648 0.374999 7.1021 0.374999 7.2026 0.374999 7.3031 0.415124 7.39873 0.486374 7.4696L1.54725 8.51697C1.62037 8.58897 1.71562 8.62497 1.81087 8.62497 1.90612 8.62497 2.00137 8.58897 2.07449 8.51697L7.1126 3.54111C7.18348 3.47061 7.22398 3.37461 7.22398 3.27449 7.22398 3.17437 7.18423 3.07837 7.1126 3.00787L6.05211 1.96012ZM5.25673 4.32036 4.72949 3.79986 5.78848 2.75399 6.31536 3.27449 5.25673 4.32036Z" transform="matrix(1 0 -0 1.11111 204 184)"/><path d="M7.49998 1.48612 7.87498 1.48612 7.87498 1.11562 8.24998 1.11562 8.24998 0.745498 7.87498 0.745498 7.87498 0.374999 7.49998 0.374999 7.49998 0.745498 7.12498 0.745498 7.12498 1.11562 7.49998 1.11562Z" transform="matrix(1 0 -0 1.11111 204 184)"/><path d="M4.87499 1.48612 5.24998 1.48612 5.24998 1.11562 5.62498 1.11562 5.62498 0.745498 5.24998 0.745498 5.24998 0.374999 4.87499 0.374999 4.87499 0.745498 4.49999 0.745498 4.49999 1.11562 4.87499 1.11562Z" transform="matrix(1 0 -0 1.11111 204 184)"/><path d="M7.49998 2.22674 7.87498 2.22674 7.87498 2.59724 7.49998 2.59724Z" transform="matrix(1 0 -0 1.11111 204 184)"/><path d="M8.24998 1.48612 8.62497 1.48612 8.62497 1.85624 8.24998 1.85624Z" transform="matrix(1 0 -0 1.11111 204 184)"/><path d="M3.74999 1.85624 4.12499 1.85624 4.12499 2.22674 3.74999 2.22674Z" transform="matrix(1 0 -0 1.11111 204 184)"/><path d="M6.37498 1.11562 6.74998 1.11562 6.74998 1.48612 6.37498 1.48612Z" transform="matrix(1 0 -0 1.11111 204 184)"/><path d="M8.24998 3.33787 7.87498 3.33787 7.87498 3.70799 7.49998 3.70799 7.49998 4.07849 7.87498 4.07849 7.87498 4.44899 8.24998 4.44899 8.24998 4.07849 8.62497 4.07849 8.62497 3.70799 8.24998 3.70799Z" transform="matrix(1 0 -0 1.11111 204 184)"/></g></g></g><path d="M226.5 200.5C226.5 199.948 226.948 199.5 227.5 199.5L247.5 199.5C248.052 199.5 248.5 199.948 248.5 200.5L248.5 204.5C248.5 205.052 248.052 205.5 247.5 205.5L227.5 205.5C226.948 205.5 226.5 205.052 226.5 204.5Z" stroke="#000080" stroke-width="1.33585" stroke-miterlimit="8" fill="#FFFFFF" fill-rule="evenodd"/><text font-family="Calibri,Calibri_MSFontService,sans-serif" font-weight="700" font-size="5" transform="translate(237.317 203)">EPIC</text><g clip-path="url(#clip46)"><g clip-path="url(#clip47)"><g clip-path="url(#clip48)"><path d="M8.43789 2.08333 6.66706 2.08333 6.66706 1.25 4.16707 1.25 4.16707 0.833331C4.16707 0.603332 3.98041 0.416665 3.75041 0.416665 3.52041 0.416665 3.33374 0.603332 3.33374 0.833331L3.33374 1.25 3.33374 4.58332 3.33374 7.08331 2.08374 7.08331C1.92583 7.08331 1.78166 7.17248 1.71083 7.31373L0.877497 8.98039C0.774581 9.18622 0.857914 9.43706 1.06375 9.53956 1.27041 9.64206 1.51958 9.55914 1.62291 9.35372L2.34124 7.91664 5.15957 7.91664 5.8779 9.35289C5.95082 9.49914 6.0979 9.58331 6.25081 9.58331 6.3129 9.58331 6.37748 9.56914 6.43665 9.53956 6.64248 9.43706 6.7254 9.18622 6.6229 8.98039L5.78957 7.31373C5.71915 7.17248 5.57498 7.08331 5.41707 7.08331L4.16707 7.08331 4.16707 4.58332 5.83373 4.58332 5.83373 5.41665 8.43789 5.41665C8.84622 5.41665 9.16706 5.05082 9.16706 4.58332L9.16706 2.91666C9.16706 2.44916 8.84622 2.08333 8.43789 2.08333ZM4.16707 3.74999 4.16707 2.08333 5.83373 2.08333 5.83373 3.74999 4.16707 3.74999ZM8.33372 4.58332 6.66706 4.58332 6.66706 2.91666 8.33372 2.91666 8.33372 4.58332Z" transform="matrix(1.00001 0 -0 1 226 197)"/></g></g></g><path d="M213.5 213.5C213.5 212.948 213.948 212.5 214.5 212.5L247.5 212.5C248.052 212.5 248.5 212.948 248.5 213.5L248.5 217.5C248.5 218.052 248.052 218.5 247.5 218.5L214.5 218.5C213.948 218.5 213.5 218.052 213.5 217.5Z" stroke="#000080" stroke-width="1.33585" stroke-miterlimit="8" fill="#FFFFFF" fill-rule="evenodd"/><text font-family="Calibri,Calibri_MSFontService,sans-serif" font-weight="700" font-size="5" transform="translate(224.931 217)">OBJECTIVE</text><g clip-path="url(#clip49)"><g clip-path="url(#clip50)"><g clip-path="url(#clip51)"><path d="M8.5151 0.484874C8.36847 0.338249 8.13148 0.338249 7.98485 0.484874L6.87148 1.59825C6.22498 1.06912 5.39848 0.749998 4.49999 0.749998 2.43224 0.749998 0.749998 2.43224 0.749998 4.49999 0.749998 5.78098 1.3965 6.91348 2.37974 7.58998L1.98487 7.98485C1.83824 8.13148 1.83824 8.36847 1.98487 8.5151 2.05799 8.58823 2.15399 8.62497 2.24999 8.62497 2.34599 8.62497 2.44199 8.58823 2.51512 8.5151L3.06637 7.96348C3.50811 8.1476 3.99224 8.24998 4.49999 8.24998 5.10748 8.24998 5.67973 8.10148 6.18861 7.84423L6.85985 8.5151C6.93298 8.58823 7.02898 8.62497 7.12498 8.62497 7.22098 8.62497 7.31698 8.58823 7.3901 8.5151 7.53673 8.36847 7.53673 8.13148 7.3901 7.98485L6.8351 7.42985C7.69535 6.74211 8.24998 5.68498 8.24998 4.49999 8.24998 3.60149 7.93123 2.77499 7.40173 2.12849L8.5151 1.01512C8.66172 0.868497 8.66172 0.631873 8.5151 0.484874ZM7.49998 4.49999C7.49998 6.15448 6.15411 7.49998 4.49999 7.49998 4.05111 7.49998 3.62624 7.39835 3.24337 7.22098 3.19387 7.17785 3.13687 7.15273 3.07612 7.14035 2.13862 6.63223 1.5 5.63961 1.5 4.49999 1.5 2.84587 2.84587 1.5 4.49999 1.5 5.19223 1.5 5.82861 1.73774 6.33598 2.13299L5.80123 2.66774C5.43373 2.40637 4.98524 2.24999 4.49999 2.24999 3.25912 2.24999 2.24999 3.25912 2.24999 4.49999 2.24999 5.74086 3.25912 6.74998 4.49999 6.74998 5.74086 6.74998 6.74998 5.74086 6.74998 4.49999 6.74998 4.01511 6.59398 3.56624 6.33186 3.19837L6.86735 2.66362C7.26185 3.17174 7.49998 3.80774 7.49998 4.49999ZM5.99998 4.49999C5.99998 5.32761 5.32723 5.99998 4.49999 5.99998 3.67274 5.99998 2.99999 5.32761 2.99999 4.49999 2.99999 3.67274 3.67274 2.99999 4.49999 2.99999 4.77711 2.99999 5.03399 3.08062 5.25748 3.21262L4.69199 3.77774C4.63049 3.76199 4.56674 3.74999 4.49999 3.74999 4.08599 3.74999 3.74999 4.08599 3.74999 4.49999 3.74999 4.91399 4.08599 5.24998 4.49999 5.24998 4.91399 5.24998 5.24998 4.91399 5.24998 4.49999 5.24998 4.43324 5.23911 4.36986 5.22223 4.30799L5.78773 3.74286C5.91898 3.96636 5.99998 4.22249 5.99998 4.49999Z" transform="matrix(1.11111 0 -0 1 214 211)"/></g></g></g><path d="M214.5 227.5C214.5 226.948 214.948 226.5 215.5 226.5L247.5 226.5C248.052 226.5 248.5 226.948 248.5 227.5L248.5 231.5C248.5 232.052 248.052 232.5 247.5 232.5L215.5 232.5C214.948 232.5 214.5 232.052 214.5 231.5Z" stroke="#46F0F0" stroke-width="1.33585" stroke-miterlimit="8" fill="#FFFFFF" fill-rule="evenodd"/><text font-family="Calibri,Calibri_MSFontService,sans-serif" font-weight="700" font-size="5" transform="translate(225.442 230)">INITIATIVE</text><g clip-path="url(#clip52)"><g clip-path="url(#clip53)"><g clip-path="url(#clip54)"><path d="M3.74999 4.77449C4.57686 4.77449 5.24998 4.11824 5.24998 3.31124 5.24998 2.50387 4.57686 1.84762 3.74999 1.84762 2.92274 1.84762 2.24999 2.50424 2.24999 3.31124 2.24999 4.11824 2.92274 4.77449 3.74999 4.77449ZM3.74999 2.57962C4.16399 2.57962 4.49999 2.90774 4.49999 3.31162 4.49999 3.71549 4.16399 4.04361 3.74999 4.04361 3.33637 4.04361 2.99999 3.71549 2.99999 3.31162 2.99999 2.90774 3.33637 2.57962 3.74999 2.57962Z" transform="matrix(1 0 -0 1.11112 215 224)"/><path d="M7.49998 0.749998C7.2926 0.749998 7.12498 0.913872 7.12498 1.116L7.12498 3.54186 7.12498 3.67724 7.12498 3.70986C7.12498 4.70661 6.29473 5.51736 5.27398 5.51736L3.72599 5.51736C2.29162 5.51773 1.125 6.57936 1.125 7.8836 1.125 8.08573 1.293 8.24998 1.5 8.24998 1.707 8.24998 1.87499 8.08573 1.87499 7.8836 1.87499 6.98285 2.70524 6.24936 3.72599 6.24936L5.27398 6.24936C6.70798 6.24936 7.87535 5.11049 7.87535 3.71024L7.87535 3.67724 7.87535 3.54186 7.87535 1.116C7.87498 0.913872 7.70735 0.749998 7.49998 0.749998Z" transform="matrix(1 0 -0 1.11112 215 224)"/><path d="M5.99998 6.60411C5.79261 6.60411 5.62498 6.76835 5.62498 6.97085L5.62498 7.70248C5.62498 7.9046 5.79261 8.06848 5.99998 8.06848 6.20736 8.06848 6.37498 7.9046 6.37498 7.70248L6.37498 6.97085C6.37498 6.76835 6.20736 6.60411 5.99998 6.60411Z" transform="matrix(1 0 -0 1.11112 215 224)"/></g></g></g><path d="M201.5 240.843 203.843 238.5 246.157 238.5 248.5 240.843 248.5 244.157 246.157 246.5 203.843 246.5 201.5 244.157Z" stroke="#000000" stroke-width="1.33585" stroke-miterlimit="8" fill="#FFFFFF" fill-rule="evenodd"/><text font-family="Calibri,Calibri_MSFontService,sans-serif" font-weight="700" font-size="5" transform="translate(213.292 243)">Implementation</text><g clip-path="url(#clip55)"><g clip-path="url(#clip56)"><g clip-path="url(#clip57)"><path d="M210.167 242 208.917 242 208.917 240.958 210.25 239.625C210.417 239.458 210.417 239.208 210.25 239.042L208.792 237.583C208.708 237.458 208.625 237.417 208.5 237.417 208.375 237.417 208.292 237.458 208.208 237.542L206.75 239C206.667 239.083 206.625 239.167 206.625 239.292 206.625 239.417 206.667 239.5 206.75 239.583L208.083 240.958 208.083 242 204.333 242 204.333 239.917 205.167 239.917C205.417 239.917 205.583 239.75 205.583 239.5L205.583 237.833C205.583 237.583 205.417 237.417 205.167 237.417L202.667 237.417C202.417 237.417 202.25 237.583 202.25 237.833L202.25 239.5C202.25 239.75 202.417 239.917 202.667 239.917L203.5 239.917 203.5 242 201.833 242C201.583 242 201.417 242.167 201.417 242.417 201.417 242.667 201.583 242.833 201.833 242.833L210.167 242.833C210.417 242.833 210.583 242.667 210.583 242.417 210.583 242.167 210.417 242 210.167 242ZM208.5 238.417 209.375 239.292 208.5 240.208 207.625 239.333 208.5 238.417ZM203.083 239.083 203.083 238.25 204.75 238.25 204.75 239.083 203.083 239.083Z"/><path d="M205.833 245.417 204.917 244.542 204.333 245.125 205.833 246.583 208.208 244.25 207.625 243.667Z"/></g></g></g><path d="M166.492 65 206.508 65C211.75 65 216 68.134 216 72 216 75.866 211.75 79 206.508 79L166.492 79C161.25 79 157 75.866 157 72 157 68.134 161.25 65 166.492 65Z" fill="#313131" fill-rule="evenodd"/><text fill="#FFFFFF" font-family="Calibri,Calibri_MSFontService,sans-serif" font-weight="700" font-size="5" transform="translate(163.231 71)">&lt;Deployed by|Input&gt; <tspan x="14.3604" y="6">Output&gt;</tspan></text><path d="M166.331 132 205.669 132C210.822 132 215 134.91 215 138.5 215 142.09 210.822 145 205.669 145L166.331 145C161.178 145 157 142.09 157 138.5 157 134.91 161.178 132 166.331 132Z" fill="#313131" fill-rule="evenodd"/><text fill="#FFFFFF" font-family="Calibri,Calibri_MSFontService,sans-serif" font-weight="700" font-size="5" transform="translate(176.423 141)">&lt;Enacts|</text><path d="M166.331 12 205.669 12C210.822 12 215 14.9101 215 18.5 215 22.0899 210.822 25 205.669 25L166.331 25C161.178 25 157 22.0899 157 18.5 157 14.9101 161.178 12 166.331 12Z" fill="#313131" fill-rule="evenodd"/><text fill="#FFFFFF" font-family="Calibri,Calibri_MSFontService,sans-serif" font-weight="700" font-size="5" transform="translate(176.423 20)">&lt;Enacts|</text><path d="M161.987 25 183.013 25C185.767 25 188 28.134 188 32 188 35.866 185.767 39 183.013 39L161.987 39C159.233 39 157 35.866 157 32 157 28.134 159.233 25 161.987 25Z" fill="#313131" fill-rule="evenodd"/><text fill="#FFFFFF" font-family="Calibri,Calibri_MSFontService,sans-serif" font-weight="700" font-size="5" transform="translate(167.573 34)">&lt;Of|</text><path d="M167.618 119 212.382 119C218.246 119 223 121.91 223 125.5 223 129.09 218.246 132 212.382 132L167.618 132C161.754 132 157 129.09 157 125.5 157 121.91 161.754 119 167.618 119Z" fill="#313131" fill-rule="evenodd"/><text fill="#FFFFFF" font-family="Calibri,Calibri_MSFontService,sans-serif" font-weight="700" font-size="5" transform="translate(172.833 127)">|Supported by&gt;</text><path d="M165.527 91 201.473 91C206.183 91 210 93.9102 210 97.5 210 101.09 206.183 104 201.473 104L165.527 104C160.817 104 157 101.09 157 97.5 157 93.9102 160.817 91 165.527 91Z" fill="#313131" fill-rule="evenodd"/><text fill="#FFFFFF" font-family="Calibri,Calibri_MSFontService,sans-serif" font-weight="700" font-size="5" transform="translate(166.153 99)">|Supported by&gt;</text><path d="M167.618 105 212.382 105C218.246 105 223 108.134 223 112 223 115.866 218.246 119 212.382 119L167.618 119C161.754 119 157 115.866 157 112 157 108.134 161.754 105 167.618 105Z" fill="#313131" fill-rule="evenodd"/><text fill="#FFFFFF" font-family="Calibri,Calibri_MSFontService,sans-serif" font-weight="700" font-size="5" transform="translate(173.417 114)">|Delegated to&gt;</text><path d="M164.24 77 194.76 77C198.759 77 202 80.134 202 84 202 87.866 198.759 91 194.76 91L164.24 91C160.241 91 157 87.866 157 84 157 80.134 160.241 77 164.24 77Z" fill="#313131" fill-rule="evenodd"/><text fill="#FFFFFF" font-family="Calibri,Calibri_MSFontService,sans-serif" font-weight="700" font-size="5" transform="translate(163.565 86)">|Responsible&gt;</text><path d="M164.883 51 198.117 51C202.471 51 206 53.9101 206 57.5 206 61.0899 202.471 64 198.117 64L164.883 64C160.529 64 157 61.0899 157 57.5 157 53.9101 160.529 51 164.883 51Z" fill="#313131" fill-rule="evenodd"/><text fill="#FFFFFF" font-family="Calibri,Calibri_MSFontService,sans-serif" font-weight="700" font-size="5" transform="translate(165.068 59)">|Delivered by&gt;</text><path d="M165.044 39 198.956 39C203.399 39 207 41.9101 207 45.5 207 49.0898 203.399 52 198.956 52L165.044 52C160.601 52 157 49.0898 157 45.5 157 41.9101 160.601 39 165.044 39Z" fill="#313131" fill-rule="evenodd"/><text fill="#FFFFFF" font-family="Calibri,Calibri_MSFontService,sans-serif" font-weight="700" font-size="5" transform="translate(165.736 47)">|Delivered by&gt;</text><path d="M165.848 212 203.152 212C208.038 212 212 215.134 212 219 212 222.866 208.038 226 203.152 226L165.848 226C160.962 226 157 222.866 157 219 157 215.134 160.962 212 165.848 212Z" fill="#313131" fill-rule="evenodd"/><text fill="#FFFFFF" font-family="Calibri,Calibri_MSFontService,sans-serif" font-weight="700" font-size="5" transform="translate(167.99 221)">|Evaluated by&gt;</text><path d="M165.687 159 202.313 159C207.11 159 211 161.91 211 165.5 211 169.09 207.11 172 202.313 172L165.687 172C160.889 172 157 169.09 157 165.5 157 161.91 160.889 159 165.687 159Z" fill="#313131" fill-rule="evenodd"/><text fill="#FFFFFF" font-family="Calibri,Calibri_MSFontService,sans-serif" font-weight="700" font-size="5" transform="translate(177.508 167)">|Has&gt;</text><path d="M165.848 226 203.152 226C208.038 226 212 228.91 212 232.5 212 236.09 208.038 239 203.152 239L165.848 239C160.962 239 157 236.09 157 232.5 157 228.91 160.962 226 165.848 226Z" fill="#313131" fill-rule="evenodd"/><text fill="#FFFFFF" font-family="Calibri,Calibri_MSFontService,sans-serif" font-weight="700" font-size="5" transform="translate(169.994 234)">|Uplifted by&gt;</text><path d="M167.779 199 213.221 199C219.174 199 224 201.91 224 205.5 224 209.09 219.174 212 213.221 212L167.779 212C161.826 212 157 209.09 157 205.5 157 201.91 161.826 199 167.779 199Z" fill="#313131" fill-rule="evenodd"/><text fill="#FFFFFF" font-family="Calibri,Calibri_MSFontService,sans-serif" font-weight="700" font-size="5" transform="translate(176.005 207)">|Uplifted by&gt;</text><path d="M164.24 185 194.76 185C198.759 185 202 188.134 202 192 202 195.866 198.759 199 194.76 199L164.24 199C160.241 199 157 195.866 157 192 157 188.134 160.241 185 164.24 185Z" fill="#313131" fill-rule="evenodd"/><text fill="#FFFFFF" font-family="Calibri,Calibri_MSFontService,sans-serif" font-weight="700" font-size="5" transform="translate(164.651 194)">|Uplifted by&gt;</text><path d="M165.848 171 203.152 171C208.038 171 212 173.91 212 177.5 212 181.09 208.038 184 203.152 184L165.848 184C160.962 184 157 181.09 157 177.5 157 173.91 160.962 171 165.848 171Z" fill="#313131" fill-rule="evenodd"/><text fill="#FFFFFF" font-family="Calibri,Calibri_MSFontService,sans-serif" font-weight="700" font-size="5" transform="translate(169.994 179)">|Uplifted by&gt;</text><path d="M164.24 144 194.76 144C198.759 144 202 146.91 202 150.5 202 154.09 198.759 157 194.76 157L164.24 157C160.241 157 157 154.09 157 150.5 157 146.91 160.241 144 164.24 144Z" fill="#313131" fill-rule="evenodd"/><text fill="#FFFFFF" font-family="Calibri,Calibri_MSFontService,sans-serif" font-weight="700" font-size="5" transform="translate(165.151 153)">|Utilised by&gt;</text><path d="M163.757 238 192.243 238C195.975 238 199 240.91 199 244.5 199 248.09 195.975 251 192.243 251L163.757 251C160.025 251 157 248.09 157 244.5 157 240.91 160.025 238 163.757 238Z" fill="#313131" fill-rule="evenodd"/><text fill="#FFFFFF" font-family="Calibri,Calibri_MSFontService,sans-serif" font-weight="700" font-size="5" transform="translate(165.235 243)">&lt;Statement <tspan x="3.59344" y="6">Subject|</tspan></text></g></svg>