<svg width="189" height="189" xmlns="http://www.w3.org/2000/svg" xmlns:xlink="http://www.w3.org/1999/xlink" overflow="hidden"><defs><clipPath id="clip0"><path d="M0 0 189 0 189 189 0 189Z" fill-rule="evenodd" clip-rule="evenodd"/></clipPath><clipPath id="clip1"><path d="M3 3 47 3 47 48 3 48Z" fill-rule="evenodd" clip-rule="evenodd"/></clipPath><clipPath id="clip2"><path d="M3 3 47 3 47 48 3 48Z" fill-rule="evenodd" clip-rule="evenodd"/></clipPath><clipPath id="clip3"><path d="M3 3 47 3 47 48 3 48Z" fill-rule="evenodd" clip-rule="evenodd"/></clipPath></defs><g clip-path="url(#clip0)"><rect x="0" y="0" width="189" height="189" fill="#313131"/><text fill="#FFFFFF" font-family="Calibri,Calibri_MSFontService,sans-serif" font-weight="300" font-size="11" transform="translate(9.60032 -5)">SCOPE INCREMENT</text><rect x="3.50005" y="3.50005" width="1" height="1" stroke="#2F528F" stroke-width="1.33333" stroke-miterlimit="8" fill="#4472C4"/><rect x="0" y="0" width="189" height="189" stroke="#000080" stroke-width="8" stroke-miterlimit="8" fill="#FFFFFF"/><g clip-path="url(#clip1)"><g clip-path="url(#clip2)"><g clip-path="url(#clip3)"><path d="M42.0255 30.0337C42.2143 29.5882 42.2143 29.0785 42.0255 28.633 41.932 28.4075 41.7982 28.204 41.6277 28.0353L36.1295 22.5372C35.4127 21.8203 34.254 21.8203 33.5372 22.5372 32.8203 23.254 32.8203 24.4127 33.5372 25.1295L35.9077 27.5 11 27.5C9.988 27.5 9.16667 28.3195 9.16667 29.3333 9.16667 30.3472 9.988 31.1667 11 31.1667L35.9077 31.1667 33.5372 33.5372C32.8203 34.254 32.8203 35.4127 33.5372 36.1295 33.8947 36.487 34.364 36.6667 34.8333 36.6667 35.3027 36.6667 35.772 36.487 36.1295 36.1295L41.6277 30.6313C41.7982 30.4627 41.932 30.2592 42.0255 30.0337Z" transform="matrix(1 0 -0 1.02273 3 3)"/><path d="M18.3333 36.6667 5.5 36.6667 5.5 7.33333 23.8333 7.33333 23.8333 18.7C23.8333 19.712 24.6528 20.5333 25.6667 20.5333 26.6805 20.5333 27.5 19.712 27.5 18.7L27.5 5.5C27.5 4.488 26.6805 3.66667 25.6667 3.66667L3.66667 3.66667C2.65467 3.66667 1.83333 4.488 1.83333 5.5L1.83333 38.5C1.83333 39.5138 2.65467 40.3333 3.66667 40.3333L18.3333 40.3333C19.3472 40.3333 20.1667 39.5138 20.1667 38.5 20.1667 37.4862 19.3472 36.6667 18.3333 36.6667Z" transform="matrix(1 0 -0 1.02273 3 3)"/></g></g></g><text font-family="Calibri,Calibri_MSFontService,sans-serif" font-weight="700" font-size="20" transform="translate(89.6981 23)">SCOPE <tspan x="-23.32" y="24">INCREMENT</tspan><tspan font-weight="400" font-size="12" x="-83.1591" y="64">A </tspan><tspan font-size="12" x="-73.4924" y="64">Scope increment</tspan><tspan font-weight="400" font-size="12" x="12.8409" y="64">defines an </tspan><tspan font-weight="400" font-size="12" x="-83.1591" y="79">initially delineated scope of work </tspan><tspan font-weight="400" font-size="12" x="-83.1591" y="93">relative to the realisation of an </tspan><tspan font-size="12" x="-83.1591" y="107">Initiative</tspan><tspan font-weight="400" font-size="12" x="-38.4924" y="107">. To be delivered, a </tspan><tspan font-size="12" x="57.0076" y="107">Scope </tspan><tspan font-size="12" x="-83.1591" y="122">increment</tspan><tspan font-weight="400" font-size="12" x="-29.1591" y="122">refined into </tspan><tspan font-size="12" x="31.0076" y="122">Epics</tspan><tspan font-weight="400" font-size="12" x="58.8409" y="122">or </tspan><tspan font-size="12" x="-83.1591" y="136">Enhancements</tspan><tspan font-weight="400" font-size="12" x="-9.49244" y="136">.</tspan></text></g></svg>