<svg width="265" height="265" xmlns="http://www.w3.org/2000/svg" xmlns:xlink="http://www.w3.org/1999/xlink" overflow="hidden"><defs><clipPath id="clip0"><path d="M0 0 265 0 265 265 0 265Z" fill-rule="evenodd" clip-rule="evenodd"/></clipPath><clipPath id="clip1"><path d="M35 51 55 51 55 71 35 71Z" fill-rule="evenodd" clip-rule="evenodd"/></clipPath><clipPath id="clip2"><path d="M35 51 55 51 55 71 35 71Z" fill-rule="evenodd" clip-rule="evenodd"/></clipPath><clipPath id="clip3"><path d="M35 51 55 51 55 71 35 71Z" fill-rule="evenodd" clip-rule="evenodd"/></clipPath><clipPath id="clip4"><path d="M207 82 216 82 216 94 207 94Z" fill-rule="evenodd" clip-rule="evenodd"/></clipPath><clipPath id="clip5"><path d="M207 82 216 82 216 94 207 94Z" fill-rule="evenodd" clip-rule="evenodd"/></clipPath><clipPath id="clip6"><path d="M207 82 216 82 216 94 207 94Z" fill-rule="evenodd" clip-rule="evenodd"/></clipPath><clipPath id="clip7"><path d="M223 166 235 166 235 177 223 177Z" fill-rule="evenodd" clip-rule="evenodd"/></clipPath><clipPath id="clip8"><path d="M223 166 235 166 235 177 223 177Z" fill-rule="evenodd" clip-rule="evenodd"/></clipPath><clipPath id="clip9"><path d="M223 166 235 166 235 177 223 177Z" fill-rule="evenodd" clip-rule="evenodd"/></clipPath></defs><g clip-path="url(#clip0)"><rect x="0" y="0" width="265" height="265" fill="#313131"/><rect x="89.5" y="131.5" width="1.99999" height="1" stroke="#2F528F" stroke-width="1.33585" stroke-miterlimit="8" fill="#4472C4"/><path d="M23.5 9.75271C23.5 8.50859 24.5085 7.50003 25.7527 7.50003L249.247 7.50003C250.491 7.50003 251.5 8.50859 251.5 9.75271L251.5 249.247C251.5 250.491 250.491 251.5 249.247 251.5L25.7527 251.5C24.5085 251.5 23.5 250.491 23.5 249.247Z" stroke="#FF0000" stroke-width="0.667927" stroke-miterlimit="8" stroke-opacity="0" fill="none" fill-rule="evenodd"/><path d="M30.0794 43.5 149.921 43.5C153.002 43.5 155.5 45.998 155.5 49.0794L155.5 214.252C155.5 216.598 153.598 218.5 151.252 218.5L28.7483 218.5C26.402 218.5 24.5 216.598 24.5 214.252L24.5 49.0794C24.5 45.998 26.998 43.5 30.0794 43.5Z" stroke="#FABEBE" stroke-width="4.67549" stroke-miterlimit="8" fill="#FFFFFF" fill-rule="evenodd"/><g clip-path="url(#clip1)"><g clip-path="url(#clip2)"><g clip-path="url(#clip3)"><path d="M53.2084 54.375 52.4167 54.375 52.4167 53.5833C52.4167 53.1463 52.0628 52.7916 51.625 52.7916L37.375 52.7916C36.938 52.7916 36.5833 53.1463 36.5833 53.5833L36.5833 54.375 35.7917 54.375C35.3547 54.375 35 54.7296 35 55.1666 35 55.6036 35.3547 55.9583 35.7917 55.9583L36.5833 55.9583 36.5833 56.75C36.5833 57.187 36.938 57.5416 37.375 57.5416L38.1667 57.5416 38.1667 69.4167C38.1667 69.8545 38.5213 70.2083 38.9583 70.2083L50.0417 70.2083C50.4795 70.2083 50.8334 69.8545 50.8334 69.4167L50.8334 57.5416 51.625 57.5416C52.0628 57.5416 52.4167 57.187 52.4167 56.75L52.4167 55.9583 53.2084 55.9583C53.6462 55.9583 54 55.6036 54 55.1666 54 54.7296 53.6462 54.375 53.2084 54.375ZM49.25 68.625 39.75 68.625 39.75 57.5416 49.25 57.5416 49.25 68.625ZM50.8334 55.9583 50.0417 55.9583 38.9583 55.9583 38.1667 55.9583 38.1667 54.375 50.8334 54.375 50.8334 55.9583Z"/><path d="M42.125 60.7083 46.875 60.7083C47.3128 60.7083 47.6667 60.3536 47.6667 59.9166 47.6667 59.4796 47.3128 59.125 46.875 59.125L42.125 59.125C41.688 59.125 41.3334 59.4796 41.3334 59.9166 41.3334 60.3536 41.688 60.7083 42.125 60.7083Z"/><path d="M42.125 63.875 45.2917 63.875C45.7295 63.875 46.0834 63.5211 46.0834 63.0833 46.0834 62.6455 45.7295 62.2916 45.2917 62.2916L42.125 62.2916C41.688 62.2916 41.3334 62.6455 41.3334 63.0833 41.3334 63.5211 41.688 63.875 42.125 63.875Z"/><path d="M42.125 67.0417 46.875 67.0417C47.3128 67.0417 47.6667 66.6878 47.6667 66.25 47.6667 65.8122 47.3128 65.4583 46.875 65.4583L42.125 65.4583C41.688 65.4583 41.3334 65.8122 41.3334 66.25 41.3334 66.6878 41.688 67.0417 42.125 67.0417Z"/></g></g></g><path d="M26.9702 6.36947C18.5628 6.36947 11.7473 10.3112 11.7473 15.1736L11.7473 248.948C11.7473 253.81 18.5628 257.752 26.9702 257.752L238.08 257.752C246.487 257.752 253.302 253.81 253.302 248.948L253.302 15.1736C253.302 10.3112 246.487 6.36947 238.08 6.36947ZM0 0 265 0 265 265 0 265Z" fill="#FABEBE" fill-rule="evenodd"/><text font-family="Calibri,Calibri_MSFontService,sans-serif" font-weight="700" font-size="11" transform="translate(76.1334 63)">SCENARIO<tspan font-weight="400" font-size="9" x="-44.843" y="74">A user </tspan><tspan font-size="9" x="-18.6269" y="74">Scenario</tspan><tspan font-weight="400" font-size="9" x="14.6025" y="74">, often </tspan><tspan font-weight="400" font-size="9" x="-44.843" y="85">described as a Customer Job, </tspan><tspan font-weight="400" font-size="9" x="-44.843" y="96">Problem, or Needs/Wants.</tspan></text><path d="M206.5 84.5001C206.5 83.3955 207.395 82.5 208.5 82.5L246.5 82.5C247.605 82.5 248.5 83.3955 248.5 84.5001L248.5 92.5C248.5 93.6046 247.605 94.5 246.5 94.5L208.5 94.5C207.395 94.5 206.5 93.6046 206.5 92.5Z" stroke="#F032E6" stroke-width="1.33585" stroke-miterlimit="8" fill="#FFFFFF" fill-rule="evenodd"/><text font-family="Calibri,Calibri_MSFontService,sans-serif" font-weight="700" font-size="5" transform="translate(218.151 86)">VALUE<tspan x="0" y="6">PROPOSITION</tspan></text><g clip-path="url(#clip4)"><g clip-path="url(#clip5)"><g clip-path="url(#clip6)"><path d="M7.87498 3.74999 1.125 3.74999C0.917997 3.74999 0.749998 3.91799 0.749998 4.12499L0.749998 5.62498C0.749998 5.83236 0.917997 5.99998 1.125 5.99998L1.5 5.99998 1.5 8.24998C1.5 8.45735 1.668 8.62497 1.87499 8.62497L7.12498 8.62497C7.33235 8.62497 7.49998 8.45735 7.49998 8.24998L7.49998 5.99998 7.87498 5.99998C8.08235 5.99998 8.24998 5.83236 8.24998 5.62498L8.24998 4.12499C8.24998 3.91799 8.08235 3.74999 7.87498 3.74999ZM6.74998 7.87498 2.24999 7.87498 2.24999 5.99998 6.74998 5.99998 6.74998 7.87498ZM7.49998 5.24998 7.12498 5.24998 1.87499 5.24998 1.5 5.24998 1.5 4.49999 7.49998 4.49999 7.49998 5.24998Z" transform="matrix(1 0 -0 1.11112 207 83)"/><path d="M4.22286 3.25987C4.29899 3.33637 4.39949 3.37499 4.49999 3.37499 4.60011 3.37499 4.70024 3.33637 4.77674 3.25987L5.88486 2.15024C6.03786 1.99649 6.03786 1.74862 5.88486 1.59525L4.77674 0.485249C4.62974 0.337874 4.36986 0.337874 4.22286 0.485249L3.11474 1.59525C2.96137 1.74862 2.96137 1.99649 3.11474 2.15024L4.22286 3.25987ZM4.49999 1.31812 5.05423 1.87274 4.49999 2.42774 3.94574 1.87274 4.49999 1.31812Z" transform="matrix(1 0 -0 1.11112 207 83)"/></g></g></g><path d="M223.5 169.5C223.5 168.948 223.948 168.5 224.5 168.5L247.5 168.5C248.052 168.5 248.5 168.948 248.5 169.5L248.5 173.5C248.5 174.052 248.052 174.5 247.5 174.5L224.5 174.5C223.948 174.5 223.5 174.052 223.5 173.5Z" stroke="#FABEBE" stroke-width="1.33585" stroke-miterlimit="8" fill="#FFFFFF" fill-rule="evenodd"/><text font-family="Calibri,Calibri_MSFontService,sans-serif" font-weight="700" font-size="5" transform="translate(235.082 172)">NEED</text><g clip-path="url(#clip7)"><g clip-path="url(#clip8)"><g clip-path="url(#clip9)"><path d="M7.91164 2.08333 7.49581 2.08333C7.49581 1.62375 7.12206 1.25 6.66248 1.25L6.24665 1.25C6.24665 0.790414 5.87332 0.416665 5.41373 0.416665L4.99749 0.416665C4.5379 0.416665 4.16457 0.790414 4.16457 1.25L3.74874 1.25C3.28957 1.25 2.91582 1.62375 2.91582 2.08333L2.91582 3.33332 2.49958 3.33332C2.04041 3.33332 1.66666 3.70707 1.66666 4.16665L1.66666 6.66665C1.66666 6.74998 1.69166 6.82748 1.73458 6.89248L2.54249 8.53123C2.61249 8.67372 2.75749 8.76372 2.91624 8.76372L7.49581 8.76372C7.65414 8.76372 7.79873 8.67372 7.86914 8.53206L8.70706 6.8429C8.74456 6.76748 8.75664 6.68373 8.74581 6.60331L8.74581 2.91666C8.74414 2.45708 8.37123 2.08333 7.91164 2.08333ZM7.91081 6.57081 7.23706 7.93039 3.17499 7.93039 2.49999 6.56081 2.49958 4.16665 2.91582 4.16665 2.91582 5.83332C2.91582 6.06373 3.10249 6.24998 3.33249 6.24998 3.56249 6.24998 3.74916 6.06373 3.74916 5.83332L3.74916 2.08333 4.16499 2.08333 4.16499 4.58332C4.16499 4.81332 4.35124 4.99999 4.58165 4.99999 4.81207 4.99999 4.99832 4.81332 4.99832 4.58332L4.99832 1.25 5.41373 1.25 5.41373 2.08333 5.41373 4.58332C5.41373 4.81332 5.59957 4.99999 5.8304 4.99999 6.06082 4.99999 6.24707 4.81332 6.24707 4.58332L6.24707 2.08333 6.6629 2.08333 6.6629 2.91666 6.6629 4.58332C6.6629 4.81332 6.84873 4.99999 7.07956 4.99999 7.30998 4.99999 7.49623 4.81332 7.49623 4.58332L7.49623 2.91666 7.91164 2.91666 7.91164 6.57081 7.91081 6.57081Z" transform="matrix(1.00001 0 -0 1 224 166)"/><path d="M7.91164 9.16664 2.49958 9.16664C2.26958 9.16664 2.08291 9.35289 2.08291 9.58331 2.08291 9.81372 2.26958 9.99997 2.49958 9.99997L7.91164 9.99997C8.14206 9.99997 8.32831 9.81372 8.32831 9.58331 8.32831 9.35289 8.14206 9.16664 7.91164 9.16664Z" transform="matrix(1.00001 0 -0 1 224 166)"/></g></g></g><path d="M167.457 168 211.543 168C217.318 168 222 170.91 222 174.5 222 178.09 217.318 181 211.543 181L167.457 181C161.682 181 157 178.09 157 174.5 157 170.91 161.682 168 167.457 168Z" fill="#313131" fill-rule="evenodd"/><text fill="#FFFFFF" font-family="Calibri,Calibri_MSFontService,sans-serif" font-weight="700" font-size="5" transform="translate(178.427 176)">|Related&gt;</text><path d="M164.561 82 196.439 82C200.615 82 204 84.9101 204 88.5 204 92.0899 200.615 95 196.439 95L164.561 95C160.385 95 157 92.0899 157 88.5 157 84.9101 160.385 82 164.561 82Z" fill="#313131" fill-rule="evenodd"/><text fill="#FFFFFF" font-family="Calibri,Calibri_MSFontService,sans-serif" font-weight="700" font-size="5" transform="translate(175.588 90)">|Of&gt;</text></g></svg>