<svg width="189" height="189" xmlns="http://www.w3.org/2000/svg" xmlns:xlink="http://www.w3.org/1999/xlink" overflow="hidden"><defs><clipPath id="clip0"><path d="M0 0 189 0 189 189 0 189Z" fill-rule="evenodd" clip-rule="evenodd"/></clipPath><clipPath id="clip1"><path d="M3 3 47 3 47 48 3 48Z" fill-rule="evenodd" clip-rule="evenodd"/></clipPath><clipPath id="clip2"><path d="M3 3 47 3 47 48 3 48Z" fill-rule="evenodd" clip-rule="evenodd"/></clipPath><clipPath id="clip3"><path d="M3 3 47 3 47 48 3 48Z" fill-rule="evenodd" clip-rule="evenodd"/></clipPath></defs><g clip-path="url(#clip0)"><rect x="0" y="0" width="189" height="189" fill="#313131"/><text fill="#FFFFFF" font-family="Calibri,Calibri_MSFontService,sans-serif" font-weight="300" font-size="11" transform="translate(9.60032 -5)">POSITION</text><rect x="3.50005" y="3.50005" width="1" height="1" stroke="#2F528F" stroke-width="1.33333" stroke-miterlimit="8" fill="#4472C4"/><rect x="0" y="0" width="189" height="189" stroke="#B74D41" stroke-width="8" stroke-miterlimit="8" fill="#FFFFFF"/><g clip-path="url(#clip1)"><g clip-path="url(#clip2)"><g clip-path="url(#clip3)"><path d="M22 12.8333C25.0323 12.8333 27.5 10.3657 27.5 7.33333 27.5 4.301 25.0323 1.83333 22 1.83333 18.9677 1.83333 16.5 4.301 16.5 7.33333 16.5 10.3657 18.9677 12.8333 22 12.8333ZM22 5.5C23.012 5.5 23.8333 6.32317 23.8333 7.33333 23.8333 8.3435 23.012 9.16667 22 9.16667 20.9898 9.16667 20.1667 8.3435 20.1667 7.33333 20.1667 6.32317 20.9898 5.5 22 5.5Z" transform="matrix(1 0 -0 1.02273 3 3)"/><path d="M40.3333 31.1667 38.5 31.1667 38.5 25.6062C38.5 25.1185 38.3075 24.651 37.961 24.3082 37.6182 23.9653 37.1543 23.7728 36.6667 23.7728 36.6648 23.7728 36.6648 23.7728 36.663 23.7728L31.1667 23.7838 31.1667 20.1667C31.1667 17.1343 28.699 14.6667 25.6703 14.6667L18.3297 14.6667C15.2992 14.6667 12.8333 17.1343 12.8333 20.1667L12.8333 23.8223 7.32967 23.8333C6.31767 23.8352 5.5 24.6547 5.5 25.6667L5.5 31.1667 3.66667 31.1667C2.65467 31.1667 1.83333 31.9862 1.83333 33L1.83333 40.3333C1.83333 41.3472 2.65467 42.1667 3.66667 42.1667L11 42.1667C12.012 42.1667 12.8333 41.3472 12.8333 40.3333L12.8333 33C12.8333 31.9862 12.012 31.1667 11 31.1667L9.16667 31.1667 9.16667 27.4963 20.1667 27.4725 20.1667 31.1667 18.3333 31.1667C17.3213 31.1667 16.5 31.9862 16.5 33L16.5 40.3333C16.5 41.3472 17.3213 42.1667 18.3333 42.1667L25.6667 42.1667C26.6805 42.1667 27.5 41.3472 27.5 40.3333L27.5 33C27.5 31.9862 26.6805 31.1667 25.6667 31.1667L23.8333 31.1667 23.8333 27.4652 34.8333 27.4413 34.8333 31.1667 33 31.1667C31.9862 31.1667 31.1667 31.9862 31.1667 33L31.1667 40.3333C31.1667 41.3472 31.9862 42.1667 33 42.1667L40.3333 42.1667C41.3472 42.1667 42.1667 41.3472 42.1667 40.3333L42.1667 33C42.1667 31.9862 41.3472 31.1667 40.3333 31.1667ZM9.16667 38.5 5.5 38.5 5.5 34.8333 7.03083 34.8333C7.1335 34.8517 7.227 34.8938 7.33333 34.8938 7.43967 34.8938 7.53317 34.8517 7.63583 34.8333L9.16667 34.8333 9.16667 38.5ZM23.8333 38.5 20.1667 38.5 20.1667 34.8333 23.8333 34.8333 23.8333 38.5ZM16.5 20.1667C16.5 19.1382 17.303 18.3333 18.3297 18.3333L25.6703 18.3333C26.697 18.3333 27.5 19.1382 27.5 20.1667L27.5 23.7912 16.5 23.815 16.5 20.1667ZM38.5 38.5 34.8333 38.5 34.8333 34.8333 38.5 34.8333 38.5 38.5Z" transform="matrix(1 0 -0 1.02273 3 3)"/></g></g></g><text font-family="Calibri,Calibri_MSFontService,sans-serif" font-weight="700" font-size="20" transform="translate(76.2948 23)">POSITION<tspan font-size="12" x="-69.7558" y="57">Position</tspan><tspan font-weight="400" font-size="12" x="-26.2558" y="57">is used to represent a </tspan><tspan font-size="12" x="-69.7558" y="72">unique</tspan><tspan font-weight="400" font-size="12" x="-32.0891" y="72">element (node) within an </tspan><tspan font-weight="400" font-size="12" x="-69.7558" y="86">organisational structure. They are </tspan><tspan font-weight="400" font-size="12" x="-69.7558" y="100">used in a </tspan><tspan font-size="12" x="-23.5891" y="100">headcount</tspan><tspan font-weight="400" font-size="12" x="30.0775" y="100">/administrative </tspan><tspan font-weight="400" font-size="12" x="-69.7558" y="115">context, whereas </tspan><tspan font-size="12" x="16.7442" y="115">Role</tspan><tspan font-weight="400" font-size="12" x="44.4109" y="115">provides the </tspan><tspan font-weight="400" font-size="12" x="-69.7558" y="129">functional description of the </tspan><tspan font-size="12" x="-69.7558" y="144">Position</tspan><tspan font-weight="400" font-size="12" x="-26.2558" y="144">holder’s job role.</tspan></text></g></svg>