<svg width="265" height="265" xmlns="http://www.w3.org/2000/svg" xmlns:xlink="http://www.w3.org/1999/xlink" overflow="hidden"><defs><clipPath id="clip0"><path d="M0 0 265 0 265 265 0 265Z" fill-rule="evenodd" clip-rule="evenodd"/></clipPath><clipPath id="clip1"><path d="M35 51 55 51 55 71 35 71Z" fill-rule="evenodd" clip-rule="evenodd"/></clipPath><clipPath id="clip2"><path d="M35 51 55 51 55 71 35 71Z" fill-rule="evenodd" clip-rule="evenodd"/></clipPath><clipPath id="clip3"><path d="M35 51 55 51 55 71 35 71Z" fill-rule="evenodd" clip-rule="evenodd"/></clipPath><clipPath id="clip4"><path d="M215 124 225 124 225 134 215 134Z" fill-rule="evenodd" clip-rule="evenodd"/></clipPath><clipPath id="clip5"><path d="M215 124 225 124 225 134 215 134Z" fill-rule="evenodd" clip-rule="evenodd"/></clipPath><clipPath id="clip6"><path d="M215 124 225 124 225 134 215 134Z" fill-rule="evenodd" clip-rule="evenodd"/></clipPath></defs><g clip-path="url(#clip0)"><rect x="0" y="0" width="265" height="265" fill="#313131"/><rect x="89.5" y="131.5" width="1.99999" height="1" stroke="#2F528F" stroke-width="1.33585" stroke-miterlimit="8" fill="#4472C4"/><path d="M23.5 9.75271C23.5 8.50859 24.5085 7.50003 25.7527 7.50003L249.247 7.50003C250.491 7.50003 251.5 8.50859 251.5 9.75271L251.5 249.247C251.5 250.491 250.491 251.5 249.247 251.5L25.7527 251.5C24.5085 251.5 23.5 250.491 23.5 249.247Z" stroke="#FF0000" stroke-width="0.667927" stroke-miterlimit="8" stroke-opacity="0" fill="none" fill-rule="evenodd"/><path d="M30.0794 43.5 149.921 43.5C153.002 43.5 155.5 45.998 155.5 49.0794L155.5 214.252C155.5 216.598 153.598 218.5 151.252 218.5L28.7483 218.5C26.402 218.5 24.5 216.598 24.5 214.252L24.5 49.0794C24.5 45.998 26.998 43.5 30.0794 43.5Z" stroke="#B74D41" stroke-width="4.67549" stroke-miterlimit="8" fill="#FFFFFF" fill-rule="evenodd"/><g clip-path="url(#clip1)"><g clip-path="url(#clip2)"><g clip-path="url(#clip3)"><path d="M41.3334 62.2916C43.075 62.2916 44.5 60.8666 44.5 59.125 44.5 57.3833 43.075 55.9583 41.3334 55.9583 39.5917 55.9583 38.1667 57.3833 38.1667 59.125 38.1667 60.8666 39.5917 62.2916 41.3334 62.2916ZM41.3334 57.5416C42.2042 57.5416 42.9167 58.2541 42.9167 59.125 42.9167 59.9958 42.2042 60.7083 41.3334 60.7083 40.4625 60.7083 39.75 59.9958 39.75 59.125 39.75 58.2541 40.4625 57.5416 41.3334 57.5416Z"/><path d="M52.4167 53.6625 49.25 53.5833C49.25 53.5833 49.25 53.5833 49.25 53.5833 48.8542 53.5833 48.5375 53.9 48.5375 54.2958 48.5375 54.6916 48.8542 55.0875 49.25 55.0875L50.5959 55.0875 46.2417 59.4416C45.925 59.7583 45.925 60.2333 46.2417 60.55 46.4 60.7083 46.6375 60.7875 46.7959 60.7875 46.9542 60.7875 47.1917 60.7083 47.35 60.55L51.625 56.275 51.625 57.5416C51.625 57.9375 51.9417 58.2541 52.3375 58.2541 52.7334 58.2541 53.2084 57.9375 53.2084 57.5416L53.2084 54.375C53.2084 53.9791 52.8917 53.6625 52.4167 53.6625Z"/><path d="M43.7084 63.4791 39.0375 63.4791C37.2167 63.4791 35.7917 64.9042 35.7917 66.6458L35.7917 69.0208C35.7917 69.4167 36.1083 69.8125 36.5833 69.8125 37.0583 69.8125 37.375 69.4958 37.375 69.0208L37.375 66.6458C37.375 65.775 38.0875 65.0625 39.0375 65.0625L40.3042 65.0625 41.3334 67.0417 42.3625 65.0625 43.7084 65.0625C44.6584 65.0625 45.3709 65.775 45.3709 66.6458L45.3709 69.0208C45.3709 69.4167 45.6875 69.8125 46.1625 69.8125 46.6375 69.8125 46.9542 69.4958 46.9542 69.0208L46.9542 66.6458C46.9542 64.9042 45.5292 63.4791 43.7084 63.4791Z"/></g></g></g><path d="M26.9702 6.36947C18.5628 6.36947 11.7473 10.3112 11.7473 15.1736L11.7473 248.948C11.7473 253.81 18.5628 257.752 26.9702 257.752L238.08 257.752C246.487 257.752 253.302 253.81 253.302 248.948L253.302 15.1736C253.302 10.3112 246.487 6.36947 238.08 6.36947ZM0 0 265 0 265 265 0 265Z" fill="#B74D41" fill-rule="evenodd"/><text font-family="Calibri,Calibri_MSFontService,sans-serif" font-weight="700" font-size="11" transform="translate(77.5527 63)">PERSONA<tspan font-size="9" x="-46.2624" y="40">Personas</tspan><tspan font-weight="400" font-size="9" x="-9.02547" y="40">are fictitious </tspan><tspan font-weight="400" font-size="9" x="-46.2624" y="51">characters created by a </tspan><tspan font-weight="400" font-size="9" x="-46.2624" y="62">business organisation to </tspan><tspan font-weight="400" font-size="9" x="-46.2624" y="73">mimic a real customer. They </tspan><tspan font-weight="400" font-size="9" x="-46.2624" y="85">are made based on profiles, </tspan><tspan font-weight="400" font-size="9" x="-46.2624" y="96">which include foundational </tspan><tspan font-weight="400" font-size="9" x="-46.2624" y="107">demographic information </tspan><tspan font-weight="400" font-size="9" x="-46.2624" y="118">that is collected through </tspan><tspan font-weight="400" font-size="9" x="-46.2624" y="129">research with real people. </tspan></text><path d="M215.5 126.667C215.5 126.022 216.022 125.5 216.667 125.5L247.333 125.5C247.978 125.5 248.5 126.022 248.5 126.667L248.5 131.333C248.5 131.978 247.978 132.5 247.333 132.5L216.667 132.5C216.022 132.5 215.5 131.978 215.5 131.333Z" stroke="#911EB4" stroke-width="1.33585" stroke-miterlimit="8" fill="#FFFFFF" fill-rule="evenodd"/><text font-family="Calibri,Calibri_MSFontService,sans-serif" font-weight="700" font-size="5" transform="translate(226.633 130)">SEGMENT</text><g clip-path="url(#clip4)"><g clip-path="url(#clip5)"><g clip-path="url(#clip6)"><path d="M219 128.852C218.173 128.852 217.5 128.182 217.5 127.359 217.5 126.535 218.173 125.866 219 125.866 219.827 125.866 220.5 126.535 220.5 127.359 220.5 128.182 219.827 128.852 219 128.852ZM219 126.616C218.586 126.616 218.25 126.949 218.25 127.359 218.25 127.768 218.586 128.101 219 128.101 219.414 128.101 219.75 127.768 219.75 127.359 219.75 126.949 219.414 126.616 219 126.616Z"/><path d="M222.375 127.361C221.548 127.361 220.875 126.691 220.875 125.868 220.875 125.045 221.548 124.375 222.375 124.375 223.202 124.375 223.875 125.045 223.875 125.868 223.875 126.691 223.202 127.361 222.375 127.361ZM222.375 125.125C221.961 125.125 221.625 125.458 221.625 125.868 221.625 126.277 221.961 126.611 222.375 126.611 222.789 126.611 223.125 126.277 223.125 125.868 223.125 125.458 222.789 125.125 222.375 125.125Z"/><path d="M221.25 132.625C221.043 132.625 220.875 132.457 220.875 132.25L220.875 131.109C220.875 130.686 220.528 130.342 220.103 130.342L217.897 130.342C217.471 130.342 217.125 130.686 217.125 131.109L217.125 132.25C217.125 132.457 216.957 132.625 216.75 132.625 216.543 132.625 216.375 132.457 216.375 132.25L216.375 131.109C216.375 130.273 217.058 129.592 217.897 129.592L220.103 129.592C220.942 129.592 221.625 130.272 221.625 131.109L221.625 132.25C221.625 132.457 221.457 132.625 221.25 132.625Z"/><path d="M224.625 131.134C224.418 131.134 224.25 130.966 224.25 130.759L224.25 129.618C224.25 129.195 223.901 128.851 223.473 128.851L221.25 128.851C221.043 128.851 220.875 128.684 220.875 128.476 220.875 128.269 221.043 128.101 221.25 128.101L223.473 128.101C224.315 128.101 225 128.782 225 129.618L225 130.759C225 130.966 224.832 131.134 224.625 131.134Z"/></g></g></g><path d="M166.17 125 204.83 125C209.894 125 214 128.134 214 132 214 135.866 209.894 139 204.83 139L166.17 139C161.106 139 157 135.866 157 132 157 128.134 161.106 125 166.17 125Z" fill="#313131" fill-rule="evenodd"/><text fill="#FFFFFF" font-family="Calibri,Calibri_MSFontService,sans-serif" font-weight="700" font-size="5" transform="translate(164.4 134)">&lt;Characterised By|</text></g></svg>