<svg width="189" height="189" xmlns="http://www.w3.org/2000/svg" xmlns:xlink="http://www.w3.org/1999/xlink" overflow="hidden"><defs><clipPath id="clip0"><path d="M0 0 189 0 189 189 0 189Z" fill-rule="evenodd" clip-rule="evenodd"/></clipPath><clipPath id="clip1"><path d="M3 3 47 3 47 48 3 48Z" fill-rule="evenodd" clip-rule="evenodd"/></clipPath><clipPath id="clip2"><path d="M3 3 47 3 47 48 3 48Z" fill-rule="evenodd" clip-rule="evenodd"/></clipPath><clipPath id="clip3"><path d="M3 3 47 3 47 48 3 48Z" fill-rule="evenodd" clip-rule="evenodd"/></clipPath></defs><g clip-path="url(#clip0)"><rect x="0" y="0" width="189" height="189" fill="#313131"/><text fill="#FFFFFF" font-family="Calibri,Calibri_MSFontService,sans-serif" font-weight="300" font-size="11" transform="translate(9.60032 -5)">SKILL FAMILY</text><rect x="3.50005" y="3.50005" width="1" height="1" stroke="#2F528F" stroke-width="1.33333" stroke-miterlimit="8" fill="#4472C4"/><rect x="0" y="0" width="189" height="189" stroke="#CEB023" stroke-width="8" stroke-miterlimit="8" fill="#FFFFFF"/><g clip-path="url(#clip1)"><g clip-path="url(#clip2)"><g clip-path="url(#clip3)"><path d="M22 14.6667 19.734 19.4938 14.6667 20.2693 18.3333 24.0258 17.468 29.3333 22 26.8272 26.5338 29.3333 25.6667 24.0258 29.3333 20.2693 24.266 19.4938Z" transform="matrix(1 0 -0 1.02273 3 3)"/><path d="M38.5 14.6667C39.5138 14.6667 40.3333 13.8453 40.3333 12.8333L40.3333 5.5C40.3333 4.488 39.5138 3.66667 38.5 3.66667L31.1667 3.66667C30.1528 3.66667 29.3333 4.488 29.3333 5.5L29.3333 7.33333 14.6667 7.33333 14.6667 5.5C14.6667 4.488 13.8453 3.66667 12.8333 3.66667L5.5 3.66667C4.488 3.66667 3.66667 4.488 3.66667 5.5L3.66667 12.8333C3.66667 13.8453 4.488 14.6667 5.5 14.6667L7.33333 14.6667 7.33333 29.3333 5.5 29.3333C4.488 29.3333 3.66667 30.1528 3.66667 31.1667L3.66667 38.5C3.66667 39.5138 4.488 40.3333 5.5 40.3333L12.8333 40.3333C13.8453 40.3333 14.6667 39.5138 14.6667 38.5L14.6667 36.6667 29.3333 36.6667 29.3333 38.5C29.3333 39.5138 30.1528 40.3333 31.1667 40.3333L38.5 40.3333C39.5138 40.3333 40.3333 39.5138 40.3333 38.5L40.3333 31.1667C40.3333 30.1528 39.5138 29.3333 38.5 29.3333L36.6667 29.3333 36.6667 14.6667 38.5 14.6667ZM33 7.33333 36.6667 7.33333 36.6667 11 33 11 33 7.33333ZM7.33333 7.33333 11 7.33333 11 11 7.33333 11 7.33333 7.33333ZM11 36.6667 7.33333 36.6667 7.33333 33 11 33 11 36.6667ZM36.6667 36.6667 33 36.6667 33 33 36.6667 33 36.6667 36.6667ZM33 29.3333 31.1667 29.3333C30.1528 29.3333 29.3333 30.1528 29.3333 31.1667L29.3333 33 14.6667 33 14.6667 31.1667C14.6667 30.1528 13.8453 29.3333 12.8333 29.3333L11 29.3333 11 14.6667 12.8333 14.6667C13.8453 14.6667 14.6667 13.8453 14.6667 12.8333L14.6667 11 29.3333 11 29.3333 12.8333C29.3333 13.8453 30.1528 14.6667 31.1667 14.6667L33 14.6667 33 29.3333Z" transform="matrix(1 0 -0 1.02273 3 3)"/></g></g></g><text font-family="Calibri,Calibri_MSFontService,sans-serif" font-weight="700" font-size="20" transform="translate(62.9914 23)">SKILL FAMILY<tspan font-weight="400" font-size="12" x="-56.4524" y="100">A logical grouping of related skills.</tspan></text></g></svg>