<svg width="265" height="265" xmlns="http://www.w3.org/2000/svg" xmlns:xlink="http://www.w3.org/1999/xlink" overflow="hidden"><defs><clipPath id="clip0"><path d="M0 0 265 0 265 265 0 265Z" fill-rule="evenodd" clip-rule="evenodd"/></clipPath><clipPath id="clip1"><path d="M35 51 55 51 55 71 35 71Z" fill-rule="evenodd" clip-rule="evenodd"/></clipPath><clipPath id="clip2"><path d="M35 51 55 51 55 71 35 71Z" fill-rule="evenodd" clip-rule="evenodd"/></clipPath><clipPath id="clip3"><path d="M35 51 55 51 55 71 35 71Z" fill-rule="evenodd" clip-rule="evenodd"/></clipPath><clipPath id="clip4"><path d="M212 61 222 61 222 71 212 71Z" fill-rule="evenodd" clip-rule="evenodd"/></clipPath><clipPath id="clip5"><path d="M212 61 222 61 222 71 212 71Z" fill-rule="evenodd" clip-rule="evenodd"/></clipPath><clipPath id="clip6"><path d="M212 61 222 61 222 71 212 71Z" fill-rule="evenodd" clip-rule="evenodd"/></clipPath><clipPath id="clip7"><path d="M223 124 235 124 235 134 223 134Z" fill-rule="evenodd" clip-rule="evenodd"/></clipPath><clipPath id="clip8"><path d="M223 124 235 124 235 134 223 134Z" fill-rule="evenodd" clip-rule="evenodd"/></clipPath><clipPath id="clip9"><path d="M223 124 235 124 235 134 223 134Z" fill-rule="evenodd" clip-rule="evenodd"/></clipPath><clipPath id="clip10"><path d="M213 188 223 188 223 200 213 200Z" fill-rule="evenodd" clip-rule="evenodd"/></clipPath><clipPath id="clip11"><path d="M213 188 223 188 223 200 213 200Z" fill-rule="evenodd" clip-rule="evenodd"/></clipPath><clipPath id="clip12"><path d="M213 188 223 188 223 200 213 200Z" fill-rule="evenodd" clip-rule="evenodd"/></clipPath></defs><g clip-path="url(#clip0)"><rect x="0" y="0" width="265" height="265" fill="#313131"/><rect x="89.5" y="131.5" width="1.99999" height="1" stroke="#2F528F" stroke-width="1.33585" stroke-miterlimit="8" fill="#4472C4"/><path d="M23.5 9.75271C23.5 8.50859 24.5085 7.50003 25.7527 7.50003L249.247 7.50003C250.491 7.50003 251.5 8.50859 251.5 9.75271L251.5 249.247C251.5 250.491 250.491 251.5 249.247 251.5L25.7527 251.5C24.5085 251.5 23.5 250.491 23.5 249.247Z" stroke="#FF0000" stroke-width="0.667927" stroke-miterlimit="8" stroke-opacity="0" fill="none" fill-rule="evenodd"/><path d="M30.0794 43.5 149.921 43.5C153.002 43.5 155.5 45.998 155.5 49.0794L155.5 214.252C155.5 216.598 153.598 218.5 151.252 218.5L28.7483 218.5C26.402 218.5 24.5 216.598 24.5 214.252L24.5 49.0794C24.5 45.998 26.998 43.5 30.0794 43.5Z" stroke="#FABEBE" stroke-width="4.67549" stroke-miterlimit="8" fill="#FFFFFF" fill-rule="evenodd"/><g clip-path="url(#clip1)"><g clip-path="url(#clip2)"><g clip-path="url(#clip3)"><path d="M44.5 71C44.5 71 44.4992 71 44.4984 71 44.234 70.9992 43.9878 70.8678 43.8414 70.6477 43.6094 70.3002 38.1667 62.0985 38.1667 58.2011 38.1667 54.4343 40.6525 52 44.5 52 48.4069 52 50.8334 54.3757 50.8334 58.2011 50.8334 62.1626 45.3891 70.3057 45.1571 70.6493 45.0099 70.8686 44.7636 71 44.5 71ZM44.5 53.5833C43.0719 53.5833 39.75 54.033 39.75 58.2011 39.75 60.6885 42.7481 65.9682 44.5024 68.7532 46.2567 65.9848 49.25 60.7321 49.25 58.2011 49.25 54.033 45.9282 53.5833 44.5 53.5833Z"/><path d="M45.2917 63.0833C45.2917 63.5205 44.9373 63.875 44.5 63.875 44.0628 63.875 43.7084 63.5205 43.7084 63.0833 43.7084 62.6461 44.0628 62.2916 44.5 62.2916 44.9373 62.2916 45.2917 62.6461 45.2917 63.0833Z"/><path d="M44.504 61.5C44.067 61.5 43.7131 61.1461 43.7123 60.7091L43.7084 55.9591C43.7084 55.5221 44.0622 55.1666 44.4992 55.1666 44.5 55.1666 44.5 55.1666 44.5 55.1666 44.937 55.1666 45.2917 55.5205 45.2917 55.9575L45.2957 60.7075C45.2957 61.1445 44.9418 61.5 44.504 61.5 44.5048 61.5 44.5048 61.5 44.504 61.5Z"/></g></g></g><path d="M26.9702 6.36947C18.5628 6.36947 11.7473 10.3112 11.7473 15.1736L11.7473 248.948C11.7473 253.81 18.5628 257.752 26.9702 257.752L238.08 257.752C246.487 257.752 253.302 253.81 253.302 248.948L253.302 15.1736C253.302 10.3112 246.487 6.36947 238.08 6.36947ZM0 0 265 0 265 265 0 265Z" fill="#FABEBE" fill-rule="evenodd"/><text font-family="Calibri,Calibri_MSFontService,sans-serif" font-weight="700" font-size="11" transform="translate(73.7956 63)">PAINPOINT<tspan font-weight="400" font-size="9" x="-42.5053" y="40">A specific issue or frustration </tspan><tspan font-weight="400" font-size="9" x="-42.5053" y="51">experienced within the </tspan><tspan font-weight="400" font-size="9" x="-42.5053" y="62">context of a business’s </tspan><tspan font-weight="400" font-size="9" x="-42.5053" y="73">operation, as perceived by </tspan><tspan font-weight="400" font-size="9" x="-42.5053" y="85">many perspectives, e.g. </tspan><tspan font-weight="400" font-size="9" x="-42.5053" y="96">customer, process, </tspan><tspan font-size="9" x="31.9686" y="96">capability</tspan><tspan font-weight="400" font-size="9" x="69.8734" y="96">, </tspan><tspan font-weight="400" font-size="9" x="-42.5053" y="107">lack of skills, which prevents a </tspan><tspan font-weight="400" font-size="9" x="-42.5053" y="118">business from achieving its </tspan><tspan font-weight="400" font-size="9" x="-42.5053" y="129">goals or operating effectively.</tspan></text><path d="M212.5 63.5C212.5 62.9477 212.948 62.5 213.5 62.5L247.5 62.5C248.052 62.5 248.5 62.9477 248.5 63.5L248.5 67.4999C248.5 68.0522 248.052 68.4999 247.5 68.4999L213.5 68.4999C212.948 68.4999 212.5 68.0522 212.5 67.4999Z" stroke="#911EB4" stroke-width="1.33585" stroke-miterlimit="8" fill="#FFFFFF" fill-rule="evenodd"/><text font-family="Calibri,Calibri_MSFontService,sans-serif" font-weight="700" font-size="5" transform="translate(223.229 66)">CAPABILITY</text><g clip-path="url(#clip4)"><g clip-path="url(#clip5)"><g clip-path="url(#clip6)"><path d="M7.87498 3.74999 1.125 3.74999C0.917997 3.74999 0.749998 3.91799 0.749998 4.12499L0.749998 5.62498C0.749998 5.83236 0.917997 5.99998 1.125 5.99998L1.5 5.99998 1.5 8.24998C1.5 8.45735 1.668 8.62497 1.87499 8.62497L7.12498 8.62497C7.33235 8.62497 7.49998 8.45735 7.49998 8.24998L7.49998 5.99998 7.87498 5.99998C8.08235 5.99998 8.24998 5.83236 8.24998 5.62498L8.24998 4.12499C8.24998 3.91799 8.08235 3.74999 7.87498 3.74999ZM6.74998 7.87498 2.24999 7.87498 2.24999 5.99998 6.74998 5.99998 6.74998 7.87498ZM7.49998 5.24998 7.12498 5.24998 1.87499 5.24998 1.5 5.24998 1.5 4.49999 7.49998 4.49999 7.49998 5.24998Z" transform="matrix(1.11111 0 -0 1 212 61)"/><path d="M1.87499 2.99999 3.74999 2.99999C3.95736 2.99999 4.12499 2.83199 4.12499 2.62499L4.12499 0.749998C4.12499 0.542998 3.95736 0.374999 3.74999 0.374999L1.87499 0.374999C1.668 0.374999 1.5 0.542998 1.5 0.749998L1.5 2.62499C1.5 2.83199 1.668 2.99999 1.87499 2.99999ZM2.24999 1.125 3.37499 1.125 3.37499 2.24999 2.24999 2.24999 2.24999 1.125Z" transform="matrix(1.11111 0 -0 1 212 61)"/><path d="M6.18748 2.99999C6.91273 2.99999 7.49998 2.41237 7.49998 1.68749 7.49998 0.962622 6.91273 0.374999 6.18748 0.374999 5.46223 0.374999 4.87499 0.962622 4.87499 1.68749 4.87499 2.41237 5.46223 2.99999 6.18748 2.99999ZM6.18748 1.125C6.49798 1.125 6.74998 1.37662 6.74998 1.68749 6.74998 1.99837 6.49798 2.24999 6.18748 2.24999 5.87698 2.24999 5.62498 1.99837 5.62498 1.68749 5.62498 1.37662 5.87698 1.125 6.18748 1.125Z" transform="matrix(1.11111 0 -0 1 212 61)"/></g></g></g><path d="M223.5 126.667C223.5 126.022 224.022 125.5 224.667 125.5L247.333 125.5C247.978 125.5 248.5 126.022 248.5 126.667L248.5 131.333C248.5 131.978 247.978 132.5 247.333 132.5L224.667 132.5C224.022 132.5 223.5 131.978 223.5 131.333Z" stroke="#FABEBE" stroke-width="1.33585" stroke-miterlimit="8" fill="#FFFFFF" fill-rule="evenodd"/><text font-family="Calibri,Calibri_MSFontService,sans-serif" font-weight="700" font-size="5" transform="translate(235.082 130)">NEED</text><g clip-path="url(#clip7)"><g clip-path="url(#clip8)"><g clip-path="url(#clip9)"><path d="M7.12048 1.87499 6.74623 1.87499C6.74623 1.46137 6.40986 1.125 5.99623 1.125L5.62198 1.125C5.62198 0.711373 5.28598 0.374999 4.87236 0.374999L4.49774 0.374999C4.08411 0.374999 3.74811 0.711373 3.74811 1.125L3.37386 1.125C2.96062 1.125 2.62424 1.46137 2.62424 1.87499L2.62424 2.99999 2.24962 2.99999C1.83637 2.99999 1.5 3.33637 1.5 3.74999L1.5 5.99998C1.5 6.07498 1.5225 6.14473 1.56112 6.20323L2.28824 7.6781C2.35124 7.80635 2.48174 7.88735 2.62462 7.88735L6.74623 7.88735C6.88873 7.88735 7.01885 7.80635 7.08223 7.67885L7.83635 6.15861C7.8701 6.09073 7.88098 6.01536 7.87123 5.94298L7.87123 2.62499C7.86973 2.21137 7.5341 1.87499 7.12048 1.87499ZM7.11973 5.91373 6.51336 7.13735 2.85749 7.13735 2.24999 5.90473 2.24962 3.74999 2.62424 3.74999 2.62424 5.24998C2.62424 5.45736 2.79224 5.62498 2.99924 5.62498 3.20624 5.62498 3.37424 5.45736 3.37424 5.24998L3.37424 1.87499 3.74849 1.87499 3.74849 4.12499C3.74849 4.33199 3.91611 4.49999 4.12349 4.49999 4.33086 4.49999 4.49849 4.33199 4.49849 4.12499L4.49849 1.125 4.87236 1.125 4.87236 1.87499 4.87236 4.12499C4.87236 4.33199 5.03961 4.49999 5.24736 4.49999 5.45473 4.49999 5.62236 4.33199 5.62236 4.12499L5.62236 1.87499 5.99661 1.87499 5.99661 2.62499 5.99661 4.12499C5.99661 4.33199 6.16386 4.49999 6.37161 4.49999 6.57898 4.49999 6.7466 4.33199 6.7466 4.12499L6.7466 2.62499 7.12048 2.62499 7.12048 5.91373 7.11973 5.91373Z" transform="matrix(1.11112 0 -0 1 224 124)"/><path d="M7.12048 8.24998 2.24962 8.24998C2.04262 8.24998 1.87462 8.4176 1.87462 8.62497 1.87462 8.83235 2.04262 8.99997 2.24962 8.99997L7.12048 8.99997C7.32785 8.99997 7.49548 8.83235 7.49548 8.62497 7.49548 8.4176 7.32785 8.24998 7.12048 8.24998Z" transform="matrix(1.11112 0 -0 1 224 124)"/></g></g></g><path d="M213.5 189.667C213.5 188.47 214.47 187.5 215.667 187.5L246.333 187.5C247.53 187.5 248.5 188.47 248.5 189.667L248.5 198.333C248.5 199.53 247.53 200.5 246.333 200.5L215.667 200.5C214.47 200.5 213.5 199.53 213.5 198.333Z" stroke="#000080" stroke-width="1.33585" stroke-miterlimit="8" fill="#FFFFFF" fill-rule="evenodd"/><text font-family="Calibri,Calibri_MSFontService,sans-serif" font-weight="700" font-size="5" transform="translate(224.918 192)">BUSINESS<tspan x="0" y="6">OUTCOME</tspan></text><g clip-path="url(#clip10)"><g clip-path="url(#clip11)"><g clip-path="url(#clip12)"><path d="M8.62497 0.749998 3.36411 0.749998C3.15712 0.749998 2.98912 0.917997 2.98912 1.125L2.98912 1.5 0.374999 1.5C0.168 1.5 0 1.668 0 1.87499L0 6.37498C0 6.58236 0.168 6.74998 0.374999 6.74998L1.48575 6.74998 1.48575 7.49998C1.48575 7.70735 1.65375 7.87498 1.86074 7.87498L2.98912 7.87498 2.98912 8.24998C2.98912 8.45735 3.15712 8.62497 3.36411 8.62497L8.62497 8.62497C8.83235 8.62497 8.99997 8.45735 8.99997 8.24998L8.99997 1.125C8.99997 0.917997 8.83235 0.749998 8.62497 0.749998ZM0.749998 5.99998 0.749998 2.24999 2.98912 2.24999 2.98912 2.62499 1.86074 2.62499C1.65375 2.62499 1.48575 2.79299 1.48575 2.99999L1.48575 5.99998 0.749998 5.99998ZM2.23574 7.12498 2.23574 3.37499 2.98912 3.37499 2.98912 7.12498 2.23574 7.12498ZM8.24998 7.87498 3.73911 7.87498 3.73911 7.49998 3.73911 2.99999 3.73911 1.5 8.24998 1.5 8.24998 7.87498Z" transform="matrix(1 0 -0 1.11112 214 189)"/><path d="M4.49961 5.43748C4.61511 5.43748 4.72836 5.38386 4.80261 5.28411L5.60886 4.18424 6.42711 4.95411C6.51898 5.04036 6.64761 5.07411 6.77135 5.04599 6.8936 5.01674 6.9941 4.92786 7.03648 4.80936L7.85248 2.56574C7.92335 2.37112 7.82323 2.15587 7.62823 2.08499 7.43285 2.01449 7.21835 2.11462 7.14785 2.30924L6.52686 4.01774 5.81473 3.34762C5.73636 3.27412 5.63436 3.23774 5.52373 3.24749 5.41686 3.25724 5.31936 3.31237 5.25561 3.39899L4.19849 4.84086C4.07624 5.00811 4.11224 5.24248 4.27911 5.36473 4.34511 5.41423 4.42274 5.43748 4.49961 5.43748Z" transform="matrix(1 0 -0 1.11112 214 189)"/><path d="M4.49999 6.93748 7.49998 6.93748C7.70735 6.93748 7.87498 6.76986 7.87498 6.56248 7.87498 6.35511 7.70735 6.18748 7.49998 6.18748L4.49999 6.18748C4.29299 6.18748 4.12499 6.35511 4.12499 6.56248 4.12499 6.76986 4.29299 6.93748 4.49999 6.93748Z" transform="matrix(1 0 -0 1.11112 214 189)"/></g></g></g><path d="M167.457 125 211.543 125C217.318 125 222 128.134 222 132 222 135.866 217.318 139 211.543 139L167.457 139C161.682 139 157 135.866 157 132 157 128.134 161.682 125 167.457 125Z" fill="#313131" fill-rule="evenodd"/><text fill="#FFFFFF" font-family="Calibri,Calibri_MSFontService,sans-serif" font-weight="700" font-size="5" transform="translate(169.076 134)">|Consolidated To&gt;</text><path d="M165.527 62 201.473 62C206.183 62 210 64.9102 210 68.5 210 72.0898 206.183 75 201.473 75L165.527 75C160.817 75 157 72.0898 157 68.5 157 64.9102 160.817 62 165.527 62Z" fill="#313131" fill-rule="evenodd"/><text fill="#FFFFFF" font-family="Calibri,Calibri_MSFontService,sans-serif" font-weight="700" font-size="5" transform="translate(176.84 71)">&lt;Has|</text><path d="M165.848 187 203.152 187C208.038 187 212 190.134 212 194 212 197.866 208.038 201 203.152 201L165.848 201C160.962 201 157 197.866 157 194 157 190.134 160.962 187 165.848 187Z" fill="#313131" fill-rule="evenodd"/><text fill="#FFFFFF" font-family="Calibri,Calibri_MSFontService,sans-serif" font-weight="700" font-size="5" transform="translate(168.157 196)">|Mitigated by&gt;</text></g></svg>