<svg width="265" height="265" xmlns="http://www.w3.org/2000/svg" xmlns:xlink="http://www.w3.org/1999/xlink" overflow="hidden"><defs><clipPath id="clip0"><path d="M0 0 265 0 265 265 0 265Z" fill-rule="evenodd" clip-rule="evenodd"/></clipPath><clipPath id="clip1"><path d="M35 51 55 51 55 71 35 71Z" fill-rule="evenodd" clip-rule="evenodd"/></clipPath><clipPath id="clip2"><path d="M35 51 55 51 55 71 35 71Z" fill-rule="evenodd" clip-rule="evenodd"/></clipPath><clipPath id="clip3"><path d="M35 51 55 51 55 71 35 71Z" fill-rule="evenodd" clip-rule="evenodd"/></clipPath><clipPath id="clip4"><path d="M204 82 213 82 213 94 204 94Z" fill-rule="evenodd" clip-rule="evenodd"/></clipPath><clipPath id="clip5"><path d="M204 82 213 82 213 94 204 94Z" fill-rule="evenodd" clip-rule="evenodd"/></clipPath><clipPath id="clip6"><path d="M204 82 213 82 213 94 204 94Z" fill-rule="evenodd" clip-rule="evenodd"/></clipPath><clipPath id="clip7"><path d="M212 166 222 166 222 177 212 177Z" fill-rule="evenodd" clip-rule="evenodd"/></clipPath><clipPath id="clip8"><path d="M212 166 222 166 222 177 212 177Z" fill-rule="evenodd" clip-rule="evenodd"/></clipPath><clipPath id="clip9"><path d="M212 166 222 166 222 177 212 177Z" fill-rule="evenodd" clip-rule="evenodd"/></clipPath><clipPath id="clip10"><path d="M71 224 82 224 82 236 71 236Z" fill-rule="evenodd" clip-rule="evenodd"/></clipPath><clipPath id="clip11"><path d="M71 224 82 224 82 236 71 236Z" fill-rule="evenodd" clip-rule="evenodd"/></clipPath><clipPath id="clip12"><path d="M71 224 82 224 82 236 71 236Z" fill-rule="evenodd" clip-rule="evenodd"/></clipPath></defs><g clip-path="url(#clip0)"><rect x="0" y="0" width="265" height="265" fill="#313131"/><rect x="89.5" y="131.5" width="1.99999" height="1" stroke="#2F528F" stroke-width="1.33585" stroke-miterlimit="8" fill="#4472C4"/><path d="M23.5 9.75271C23.5 8.50859 24.5085 7.50003 25.7527 7.50003L249.247 7.50003C250.491 7.50003 251.5 8.50859 251.5 9.75271L251.5 249.247C251.5 250.491 250.491 251.5 249.247 251.5L25.7527 251.5C24.5085 251.5 23.5 250.491 23.5 249.247Z" stroke="#FF0000" stroke-width="0.667927" stroke-miterlimit="8" stroke-opacity="0" fill="none" fill-rule="evenodd"/><path d="M30.0794 43.5 149.921 43.5C153.002 43.5 155.5 45.998 155.5 49.0794L155.5 214.252C155.5 216.598 153.598 218.5 151.252 218.5L28.7483 218.5C26.402 218.5 24.5 216.598 24.5 214.252L24.5 49.0794C24.5 45.998 26.998 43.5 30.0794 43.5Z" stroke="#B74D41" stroke-width="4.67549" stroke-miterlimit="8" fill="#FFFFFF" fill-rule="evenodd"/><g clip-path="url(#clip1)"><g clip-path="url(#clip2)"><g clip-path="url(#clip3)"><path d="M44.6489 66.4091C44.4462 66.4091 44.2435 66.3315 44.0891 66.1772L43.0014 65.0902 41.7007 65.0902C41.2637 65.0902 40.909 64.7363 40.909 64.2985L40.909 62.9978 40.1308 62.2188C39.8221 61.9093 39.8221 61.4089 40.1308 61.0994L40.909 60.3212 40.909 58.7006C40.909 58.2636 41.2637 57.909 41.7007 57.909L43.3212 57.909 44.0891 57.141C44.3987 56.8315 44.899 56.8315 45.2086 57.141L45.9773 57.909 47.2994 57.909C47.7372 57.909 48.091 58.2636 48.091 58.7006L48.091 60.0227 49.1669 61.0994C49.3157 61.2482 49.3989 61.4493 49.3989 61.6591 49.3989 61.8689 49.3165 62.0708 49.1669 62.2196L48.091 63.2947 48.091 64.2985C48.091 64.7363 47.7372 65.0902 47.2994 65.0902L46.2955 65.0902 45.2086 66.1772C45.0542 66.3323 44.8515 66.4091 44.6489 66.4091ZM42.4924 63.5069 43.3291 63.5069C43.5389 63.5069 43.7408 63.59 43.8889 63.7388L44.6489 64.498 45.4073 63.7388C45.5561 63.59 45.7564 63.5069 45.967 63.5069L46.5069 63.5069 46.5069 62.9669C46.5069 62.7564 46.59 62.5553 46.7389 62.4072L47.487 61.6591 46.7389 60.9102C46.59 60.7613 46.5069 60.5603 46.5069 60.3505L46.5069 59.4923 45.6487 59.4923C45.4382 59.4923 45.2371 59.4092 45.089 59.2603L44.6489 58.8202 44.2087 59.2603C44.0599 59.4092 43.8596 59.4923 43.649 59.4923L42.4924 59.4923 42.4924 60.6489C42.4924 60.8587 42.4092 61.0606 42.2604 61.2086L41.8099 61.6599 42.2612 62.1104C42.4092 62.2592 42.4924 62.4603 42.4924 62.6701L42.4924 63.5069Z"/><path d="M50.8334 66.25C50.3956 66.25 50.0417 65.8961 50.0417 65.4583L50.0417 55.1666 38.9583 55.1666 38.9583 65.4583C38.9583 65.8961 38.6037 66.25 38.1667 66.25 37.7297 66.25 37.375 65.8961 37.375 65.4583L37.375 54.375C37.375 53.938 37.7297 53.5833 38.1667 53.5833L50.8334 53.5833C51.2712 53.5833 51.625 53.938 51.625 54.375L51.625 65.4583C51.625 65.8961 51.2712 66.25 50.8334 66.25Z"/><path d="M40.5417 67.8333 42.125 67.8333 42.125 69.4167 40.5417 69.4167Z"/><path d="M43.7084 67.8333 45.2917 67.8333 45.2917 69.4167 43.7084 69.4167Z"/><path d="M46.875 67.8333 48.4584 67.8333 48.4584 69.4167 46.875 69.4167Z"/><path d="M50.0417 67.8333 51.625 67.8333 51.625 69.4167 50.0417 69.4167Z"/><path d="M37.375 67.8333 38.9583 67.8333 38.9583 69.4167 37.375 69.4167Z"/><path d="M45.2355 61.4438C45.2355 61.881 44.881 62.2354 44.4438 62.2354 44.0066 62.2354 43.6521 61.881 43.6521 61.4438 43.6521 61.0065 44.0066 60.6521 44.4438 60.6521 44.881 60.6521 45.2355 61.0065 45.2355 61.4438Z"/></g></g></g><path d="M26.9702 6.36947C18.5628 6.36947 11.7473 10.3112 11.7473 15.1736L11.7473 248.948C11.7473 253.81 18.5628 257.752 26.9702 257.752L238.08 257.752C246.487 257.752 253.302 253.81 253.302 248.948L253.302 15.1736C253.302 10.3112 246.487 6.36947 238.08 6.36947ZM0 0 265 0 265 265 0 265Z" fill="#B74D41" fill-rule="evenodd"/><text font-family="Calibri,Calibri_MSFontService,sans-serif" font-weight="700" font-size="11" transform="translate(68.9532 63)">APPLICATION<tspan font-weight="400" font-size="9" x="-37.6629" y="40">An </tspan><tspan font-size="9" x="-25.3062" y="40">Application</tspan><tspan font-weight="400" font-size="9" x="21.2817" y="40">is an abstract </tspan><tspan font-weight="400" font-size="9" x="-37.6629" y="51">(logical) technology item that </tspan><tspan font-weight="400" font-size="9" x="-37.6629" y="62">is used during the course of </tspan><tspan font-weight="400" font-size="9" x="-37.6629" y="73">an organisation's operations. </tspan><tspan font-size="9" x="-37.6629" y="85">Applications</tspan><tspan font-weight="400" font-size="9" x="12.5986" y="85">are identified </tspan><tspan font-weight="400" font-size="9" x="-37.6629" y="96">and described from a </tspan><tspan font-weight="400" font-size="9" x="-37.6629" y="107">business perspective </tspan><tspan font-weight="400" font-size="9" x="-37.6629" y="118">(functional) often in terms of </tspan><tspan font-weight="400" font-size="9" x="-37.6629" y="129">their purpose or usage. </tspan></text><path d="M203.5 84.5C203.5 83.3954 204.395 82.5 205.5 82.5L246.5 82.5C247.605 82.5 248.5 83.3954 248.5 84.5L248.5 92.5C248.5 93.6045 247.605 94.5 246.5 94.5L205.5 94.5C204.395 94.5 203.5 93.6045 203.5 92.5Z" stroke="#CEB023" stroke-width="1.33585" stroke-miterlimit="8" fill="#FFFFFF" fill-rule="evenodd"/><text font-family="Calibri,Calibri_MSFontService,sans-serif" font-weight="700" font-size="5" transform="translate(214.935 86)">ORGANISATION<tspan x="0" y="6">UNIT</tspan></text><g clip-path="url(#clip4)"><g clip-path="url(#clip5)"><g clip-path="url(#clip6)"><path d="M2.99999 8.24998 0.749998 8.24998C0.542998 8.24998 0.374999 8.08235 0.374999 7.87498L0.374999 6.37498C0.374999 6.16761 0.542998 5.99998 0.749998 5.99998L2.99999 5.99998C3.20699 5.99998 3.37499 6.16761 3.37499 6.37498L3.37499 7.87498C3.37499 8.08235 3.20699 8.24998 2.99999 8.24998ZM1.125 7.49998 2.62499 7.49998 2.62499 6.74998 1.125 6.74998 1.125 7.49998Z" transform="matrix(1 0 -0 1.11112 204.375 83.4166)"/><path d="M5.24998 2.62499 2.99999 2.62499C2.79299 2.62499 2.62499 2.45699 2.62499 2.24999L2.62499 0.749998C2.62499 0.542998 2.79299 0.374999 2.99999 0.374999L5.24998 0.374999C5.45736 0.374999 5.62498 0.542998 5.62498 0.749998L5.62498 2.24999C5.62498 2.45699 5.45736 2.62499 5.24998 2.62499ZM3.37499 1.87499 4.87499 1.87499 4.87499 1.125 3.37499 1.125 3.37499 1.87499Z" transform="matrix(1 0 -0 1.11112 204.375 83.4166)"/><path d="M7.49998 5.99998 5.24998 5.99998C5.04261 5.99998 4.87499 6.16761 4.87499 6.37498L4.87499 7.87498C4.87499 8.08235 5.04261 8.24998 5.24998 8.24998L7.49998 8.24998C7.70735 8.24998 7.87498 8.08235 7.87498 7.87498L7.87498 6.37498C7.87498 6.16761 7.70735 5.99998 7.49998 5.99998Z" transform="matrix(1 0 -0 1.11112 204.375 83.4166)"/><path d="M5.99998 5.24998C5.79261 5.24998 5.62498 5.08236 5.62498 4.87499L5.62498 4.31249C5.62498 4.20749 5.54286 4.12499 5.43861 4.12499L2.81137 4.12499C2.70862 4.12499 2.62499 4.20899 2.62499 4.31249L2.62499 4.87499C2.62499 5.08236 2.45699 5.24998 2.24999 5.24998 2.04299 5.24998 1.87499 5.08236 1.87499 4.87499L1.87499 4.31249C1.87499 3.79574 2.29499 3.37499 2.81137 3.37499L5.43861 3.37499C5.95498 3.37499 6.37498 3.79574 6.37498 4.31249L6.37498 4.87499C6.37498 5.08236 6.20736 5.24998 5.99998 5.24998Z" transform="matrix(1 0 -0 1.11112 204.375 83.4166)"/></g></g></g><path d="M212.5 169.5C212.5 168.948 212.948 168.5 213.5 168.5L247.5 168.5C248.052 168.5 248.5 168.948 248.5 169.5L248.5 173.5C248.5 174.052 248.052 174.5 247.5 174.5L213.5 174.5C212.948 174.5 212.5 174.052 212.5 173.5Z" stroke="#911EB4" stroke-width="1.33585" stroke-miterlimit="8" fill="#FFFFFF" fill-rule="evenodd"/><text font-family="Calibri,Calibri_MSFontService,sans-serif" font-weight="700" font-size="5" transform="translate(223.229 172)">CAPABILITY</text><g clip-path="url(#clip7)"><g clip-path="url(#clip8)"><g clip-path="url(#clip9)"><path d="M220.75 170.167 213.25 170.167C213.02 170.167 212.833 170.353 212.833 170.583L212.833 172.25C212.833 172.48 213.02 172.667 213.25 172.667L213.667 172.667 213.667 175.167C213.667 175.397 213.853 175.583 214.083 175.583L219.917 175.583C220.147 175.583 220.333 175.397 220.333 175.167L220.333 172.667 220.75 172.667C220.98 172.667 221.167 172.48 221.167 172.25L221.167 170.583C221.167 170.353 220.98 170.167 220.75 170.167ZM219.5 174.75 214.5 174.75 214.5 172.667 219.5 172.667 219.5 174.75ZM220.333 171.833 219.917 171.833 214.083 171.833 213.667 171.833 213.667 171 220.333 171 220.333 171.833Z"/><path d="M214.083 169.333 216.167 169.333C216.397 169.333 216.583 169.147 216.583 168.917L216.583 166.833C216.583 166.603 216.397 166.417 216.167 166.417L214.083 166.417C213.853 166.417 213.667 166.603 213.667 166.833L213.667 168.917C213.667 169.147 213.853 169.333 214.083 169.333ZM214.5 167.25 215.75 167.25 215.75 168.5 214.5 168.5 214.5 167.25Z"/><path d="M218.875 169.333C219.681 169.333 220.333 168.68 220.333 167.875 220.333 167.07 219.681 166.417 218.875 166.417 218.069 166.417 217.417 167.07 217.417 167.875 217.417 168.68 218.069 169.333 218.875 169.333ZM218.875 167.25C219.22 167.25 219.5 167.53 219.5 167.875 219.5 168.22 219.22 168.5 218.875 168.5 218.53 168.5 218.25 168.22 218.25 167.875 218.25 167.53 218.53 167.25 218.875 167.25Z"/></g></g></g><path d="M164.24 82 194.76 82C198.759 82 202 84.9101 202 88.5 202 92.0899 198.759 95 194.76 95L164.24 95C160.241 95 157 92.0899 157 88.5 157 84.9101 160.241 82 164.24 82Z" fill="#313131" fill-rule="evenodd"/><text fill="#FFFFFF" font-family="Calibri,Calibri_MSFontService,sans-serif" font-weight="700" font-size="5" transform="translate(165.151 90)">|Has owner&gt;</text><path d="M165.527 168 201.473 168C206.183 168 210 170.91 210 174.5 210 178.09 206.183 181 201.473 181L165.527 181C160.817 181 157 178.09 157 174.5 157 170.91 160.817 168 165.527 168Z" fill="#313131" fill-rule="evenodd"/><text fill="#FFFFFF" font-family="Calibri,Calibri_MSFontService,sans-serif" font-weight="700" font-size="5" transform="translate(167.072 176)">&lt;Delivered by|</text><path d="M84 222 89.5 218 95 222Z" fill="#FFFFFF" fill-rule="evenodd"/><path d="M71.5001 225.667C71.5001 224.47 72.4701 223.5 73.6668 223.5L110.333 223.5C111.53 223.5 112.5 224.47 112.5 225.667L112.5 234.333C112.5 235.53 111.53 236.5 110.333 236.5L73.6668 236.5C72.4701 236.5 71.5001 235.53 71.5001 234.333Z" stroke="#B74D41" stroke-width="1.33585" stroke-miterlimit="8" fill="#FFFFFF" fill-rule="evenodd"/><text font-family="Calibri,Calibri_MSFontService,sans-serif" font-weight="700" font-size="5" transform="translate(83.3771 228)">APPLICATION<tspan x="0" y="6">FUNCTION</tspan></text><g clip-path="url(#clip10)"><g clip-path="url(#clip11)"><g clip-path="url(#clip12)"><path d="M8.33331 0.833331 1.66666 0.833331C1.43666 0.833331 1.25 1.02 1.25 1.25L1.25 4.99999 1.25 5.41665 1.25 5.83332 2.08333 5.83332 2.08333 5.41665 2.08333 4.99999 2.08333 1.66666 7.91664 1.66666 7.91664 4.99999 7.91664 5.41665 7.91664 5.83332 8.74997 5.83332 8.74997 5.41665 8.74997 4.99999 8.74997 1.25C8.74997 1.02 8.56372 0.833331 8.33331 0.833331Z" transform="matrix(1 0 -0 1.00001 72 225)"/><path d="M2.91666 8.33331 3.74999 8.33331 3.74999 9.16664 2.91666 9.16664Z" transform="matrix(1 0 -0 1.00001 72 225)"/><path d="M4.58332 8.33331 5.41665 8.33331 5.41665 9.16664 4.58332 9.16664Z" transform="matrix(1 0 -0 1.00001 72 225)"/><path d="M6.24998 8.33331 7.08331 8.33331 7.08331 9.16664 6.24998 9.16664Z" transform="matrix(1 0 -0 1.00001 72 225)"/><path d="M7.91664 8.33331 8.74997 8.33331 8.74997 9.16664 7.91664 9.16664Z" transform="matrix(1 0 -0 1.00001 72 225)"/><path d="M1.25 8.33331 2.08333 8.33331 2.08333 9.16664 1.25 9.16664Z" transform="matrix(1 0 -0 1.00001 72 225)"/><path d="M2.91666 6.66665 3.74999 6.66665 3.74999 7.49998 2.91666 7.49998Z" transform="matrix(1 0 -0 1.00001 72 225)"/><path d="M4.58332 6.66665 5.41665 6.66665 5.41665 7.49998 4.58332 7.49998Z" transform="matrix(1 0 -0 1.00001 72 225)"/><path d="M6.24998 6.66665 7.08331 6.66665 7.08331 7.49998 6.24998 7.49998Z" transform="matrix(1 0 -0 1.00001 72 225)"/><path d="M7.91664 6.66665 8.74997 6.66665 8.74997 7.49998 7.91664 7.49998Z" transform="matrix(1 0 -0 1.00001 72 225)"/><path d="M1.25 6.66665 2.08333 6.66665 2.08333 7.49998 1.25 7.49998Z" transform="matrix(1 0 -0 1.00001 72 225)"/><path d="M2.91666 4.99999 3.74999 4.99999 3.74999 5.83332 2.91666 5.83332Z" transform="matrix(1 0 -0 1.00001 72 225)"/><path d="M4.58332 4.99999 5.41665 4.99999 5.41665 5.83332 4.58332 5.83332Z" transform="matrix(1 0 -0 1.00001 72 225)"/><path d="M6.24998 4.99999 7.08331 4.99999 7.08331 5.83332 6.24998 5.83332Z" transform="matrix(1 0 -0 1.00001 72 225)"/><path d="M5.83332 3.33332C5.83332 3.79356 5.46022 4.16665 4.99999 4.16665 4.53975 4.16665 4.16665 3.79356 4.16665 3.33332 4.16665 2.87309 4.53975 2.49999 4.99999 2.49999 5.46022 2.49999 5.83332 2.87309 5.83332 3.33332Z" transform="matrix(1 0 -0 1.00001 72 225)"/></g></g></g></g></svg>