<svg width="189" height="189" xmlns="http://www.w3.org/2000/svg" xmlns:xlink="http://www.w3.org/1999/xlink" overflow="hidden"><defs><clipPath id="clip0"><path d="M0 0 189 0 189 189 0 189Z" fill-rule="evenodd" clip-rule="evenodd"/></clipPath><clipPath id="clip1"><path d="M3 3 47 3 47 45 3 45Z" fill-rule="evenodd" clip-rule="evenodd"/></clipPath><clipPath id="clip2"><path d="M3 3 47 3 47 45 3 45Z" fill-rule="evenodd" clip-rule="evenodd"/></clipPath><clipPath id="clip3"><path d="M3 3 47 3 47 45 3 45Z" fill-rule="evenodd" clip-rule="evenodd"/></clipPath></defs><g clip-path="url(#clip0)"><rect x="0" y="0" width="189" height="189" fill="#313131"/><text fill="#FFFFFF" font-family="Calibri,Calibri_MSFontService,sans-serif" font-weight="300" font-size="11" transform="translate(9.60032 -5)">BUSINESS DRIVER</text><rect x="3.50005" y="3.50005" width="1" height="1" stroke="#2F528F" stroke-width="1.33333" stroke-miterlimit="8" fill="#4472C4"/><rect x="0" y="0" width="189" height="189" stroke="#000080" stroke-width="8" stroke-miterlimit="8" fill="#FFFFFF"/><g clip-path="url(#clip1)"><g clip-path="url(#clip2)"><g clip-path="url(#clip3)"><path d="M31.0417 12.7826C31.0417 13.7911 30.2241 14.6087 29.2156 14.6087 28.207 14.6087 27.3895 13.7911 27.3895 12.7826 27.3895 11.7741 28.207 10.9565 29.2156 10.9565 30.2241 10.9565 31.0417 11.7741 31.0417 12.7826Z" transform="matrix(1.00397 0 -0 1 3 3)"/><path d="M40.1739 38.3478 25.5652 38.3478 25.5652 22.3586 27.9848 24.979C28.3317 25.3534 28.8157 25.5652 29.327 25.5652 29.3324 25.5652 29.3379 25.5652 29.3434 25.5652 29.8583 25.5597 30.3477 25.3388 30.6892 24.9535L33.6329 21.6501 36.4998 21.6501C37.5097 21.6501 38.3259 20.832 38.3259 19.824L38.3259 16.789 41.4522 13.7249C41.8028 13.3816 42 12.9104 42 12.4192 42 11.928 41.8028 11.4587 41.4503 11.1154L38.3259 8.05852 38.3259 5.39791C38.3259 4.38991 37.5097 3.57183 36.4998 3.57183L33.5817 3.57183 30.6326 0.551478C30.2911 0.204522 29.8291 0.00547826 29.3416 0.00182609 28.8923 0.0109565 28.3883 0.188087 28.0432 0.529565L24.9608 3.57365 21.8984 3.57365C20.8904 3.57365 20.0723 4.39174 20.0723 5.39974L20.0723 8.06583 17.1433 10.9565 5.47826 10.9565C4.47026 10.9565 3.65217 11.7746 3.65217 12.7826L3.65217 38.3478 1.82609 38.3478C0.818087 38.3478 0 39.1641 0 40.1739 0 41.1837 0.818087 42 1.82609 42L5.47826 42 23.7391 42 40.1739 42C41.1837 42 42 41.1837 42 40.1739 42 39.1641 41.1837 38.3478 40.1739 38.3478ZM23.1803 10.1238C23.5273 9.78052 23.7245 9.31304 23.7245 8.82548L23.7245 7.224 25.7095 7.224C26.1897 7.224 26.6517 7.03409 26.9914 6.69626L29.3032 4.41548 31.5073 6.67252C31.8506 7.02496 32.3217 7.22217 32.8148 7.22217L34.6756 7.22217 34.6756 8.82365C34.6756 9.31487 34.8728 9.78417 35.2252 10.1293L37.5663 12.4192 35.2216 14.7183C34.8728 15.0616 34.6737 15.5309 34.6737 16.0221L34.6737 17.9997 32.8148 17.9997C32.2943 17.9997 31.7977 18.2225 31.4525 18.6097L29.3014 21.0219 27.0517 18.5859C26.7065 18.2116 26.2208 17.9997 25.7113 17.9997L25.5652 17.9997 25.5652 12.7826C25.5652 12.7351 25.5415 12.6968 25.5378 12.6493L25.5378 12.3626C25.5378 11.875 25.3443 11.4076 24.9955 11.0643 24.6485 10.721 24.1774 10.5621 23.6917 10.5365L22.753 10.5457 23.1803 10.1238ZM7.30435 38.3478 7.30435 14.6087 21.913 14.6087 21.913 38.3478 7.30435 38.3478Z" transform="matrix(1.00397 0 -0 1 3 3)"/><path d="M9.13043 18.2609 12.7826 18.2609 12.7826 23.7391 9.13043 23.7391Z" transform="matrix(1.00397 0 -0 1 3 3)"/><path d="M9.13043 27.3913 12.7826 27.3913 12.7826 32.8696 9.13043 32.8696Z" transform="matrix(1.00397 0 -0 1 3 3)"/><path d="M16.4348 18.2609 20.087 18.2609 20.087 23.7391 16.4348 23.7391Z" transform="matrix(1.00397 0 -0 1 3 3)"/><path d="M16.4348 27.3913 20.087 27.3913 20.087 32.8696 16.4348 32.8696Z" transform="matrix(1.00397 0 -0 1 3 3)"/></g></g></g><text font-family="Calibri,Calibri_MSFontService,sans-serif" font-weight="700" font-size="20" transform="translate(76.3081 23)">BUSINESS <tspan x="9.24" y="24">DRIVER</tspan><tspan font-size="12" x="-69.7691" y="78">Business drivers</tspan><tspan font-weight="400" font-size="12" x="13.3975" y="78">are the key inputs </tspan><tspan font-weight="400" font-size="12" x="-69.7691" y="93">and activities that contribute to the </tspan><tspan font-weight="400" font-size="12" x="-69.7691" y="107">overall operational and financial </tspan><tspan font-weight="400" font-size="12" x="-69.7691" y="121">value of a</tspan><tspan font-weight="400" font-size="12" x="-19.7691" y="121">business.</tspan></text></g></svg>