<svg width="265" height="265" xmlns="http://www.w3.org/2000/svg" xmlns:xlink="http://www.w3.org/1999/xlink" overflow="hidden"><defs><clipPath id="clip0"><path d="M0 0 265 0 265 265 0 265Z" fill-rule="evenodd" clip-rule="evenodd"/></clipPath><clipPath id="clip1"><path d="M35 51 55 51 55 71 35 71Z" fill-rule="evenodd" clip-rule="evenodd"/></clipPath><clipPath id="clip2"><path d="M35 51 55 51 55 71 35 71Z" fill-rule="evenodd" clip-rule="evenodd"/></clipPath><clipPath id="clip3"><path d="M35 51 55 51 55 71 35 71Z" fill-rule="evenodd" clip-rule="evenodd"/></clipPath><clipPath id="clip4"><path d="M216 126 227 126 227 136 216 136Z" fill-rule="evenodd" clip-rule="evenodd"/></clipPath><clipPath id="clip5"><path d="M216 126 227 126 227 136 216 136Z" fill-rule="evenodd" clip-rule="evenodd"/></clipPath><clipPath id="clip6"><path d="M216 126 227 126 227 136 216 136Z" fill-rule="evenodd" clip-rule="evenodd"/></clipPath></defs><g clip-path="url(#clip0)"><rect x="0" y="0" width="265" height="265" fill="#313131"/><rect x="89.5" y="131.5" width="1.99999" height="1" stroke="#2F528F" stroke-width="1.33585" stroke-miterlimit="8" fill="#4472C4"/><path d="M23.5 9.75271C23.5 8.50859 24.5085 7.50003 25.7527 7.50003L249.247 7.50003C250.491 7.50003 251.5 8.50859 251.5 9.75271L251.5 249.247C251.5 250.491 250.491 251.5 249.247 251.5L25.7527 251.5C24.5085 251.5 23.5 250.491 23.5 249.247Z" stroke="#FF0000" stroke-width="0.667927" stroke-miterlimit="8" stroke-opacity="0" fill="none" fill-rule="evenodd"/><path d="M30.0794 43.5 149.921 43.5C153.002 43.5 155.5 45.998 155.5 49.0794L155.5 214.252C155.5 216.598 153.598 218.5 151.252 218.5L28.7483 218.5C26.402 218.5 24.5 216.598 24.5 214.252L24.5 49.0794C24.5 45.998 26.998 43.5 30.0794 43.5Z" stroke="#46F0F0" stroke-width="4.67549" stroke-miterlimit="8" fill="#FFFFFF" fill-rule="evenodd"/><g clip-path="url(#clip1)"><g clip-path="url(#clip2)"><g clip-path="url(#clip3)"><path d="M39.5212 63.3042C39.2117 62.9946 38.7106 62.9946 38.401 63.3042 38.0915 63.6129 38.0915 64.1133 38.401 64.4236L41.5724 67.5974C41.7268 67.751 41.9303 67.8294 42.1329 67.8294 42.3356 67.8294 42.5383 67.751 42.6926 67.5974 43.0022 67.2887 43.0022 66.7883 42.6926 66.478L39.5212 63.3042Z"/><path d="M37.9355 66.478C37.626 66.1677 37.1248 66.1677 36.8153 66.478 36.5058 66.7867 36.5058 67.2871 36.8153 67.5974L38.401 69.1847C38.5554 69.3391 38.7588 69.4167 38.9607 69.4167 39.1626 69.4167 39.3661 69.3391 39.5204 69.1847 39.83 68.8752 39.83 68.3748 39.5204 68.0653L37.9355 66.478Z"/><path d="M52.1848 53.8152C52.0145 53.645 51.7731 53.5611 51.5387 53.588L46.4919 54.1485C46.3122 54.1683 46.1451 54.2483 46.0184 54.3757L43.9443 56.4515 38.5736 57.5258C38.287 57.5844 38.0558 57.7934 37.9711 58.0728 37.8864 58.3523 37.9624 58.6555 38.169 58.8621L40.3374 61.0321C40.3596 61.0614 40.3707 61.0954 40.3968 61.1216L44.8832 65.6095C44.9101 65.6357 44.9457 65.6491 44.975 65.6713L47.141 67.8381C47.2907 67.9885 47.4933 68.07 47.7007 68.07 47.7783 68.07 47.8535 68.059 47.9303 68.036 48.2098 67.9521 48.4196 67.7201 48.4766 67.4335L49.5493 62.0581 51.6227 59.9831C51.7501 59.8557 51.8301 59.6894 51.8499 59.5105L52.4104 54.4605C52.4381 54.2245 52.355 53.9855 52.1848 53.8152ZM41.9271 58.4695 40.9716 59.4266 40.3335 58.7893 41.9271 58.4695ZM47.2154 65.6729 46.5766 65.034 47.5329 64.0777 47.2154 65.6729ZM50.3085 59.0616 48.2628 61.1089C48.262 61.1089 48.262 61.1089 48.262 61.1089L45.4421 63.9304 42.0767 60.5618 44.8959 57.7403C44.8974 57.7395 44.8974 57.738 44.899 57.7364L46.9415 55.6915 50.7289 55.2703 50.3085 59.0616Z"/><path d="M49.6657 57.9105C49.6657 58.7859 48.9561 59.4955 48.0807 59.4955 47.2054 59.4955 46.4958 58.7859 46.4958 57.9105 46.4958 57.0352 47.2054 56.3256 48.0807 56.3256 48.9561 56.3256 49.6657 57.0352 49.6657 57.9105Z"/></g></g></g><path d="M26.9702 6.36947C18.5628 6.36947 11.7473 10.3112 11.7473 15.1736L11.7473 248.948C11.7473 253.81 18.5628 257.752 26.9702 257.752L238.08 257.752C246.487 257.752 253.302 253.81 253.302 248.948L253.302 15.1736C253.302 10.3112 246.487 6.36947 238.08 6.36947ZM0 0 265 0 265 265 0 265Z" fill="#46F0F0" fill-rule="evenodd"/><text font-family="Calibri,Calibri_MSFontService,sans-serif" font-weight="700" font-size="11" transform="translate(80.0575 63)">RELEASE<tspan font-weight="400" font-size="9" x="-48.7671" y="62">A </tspan><tspan font-size="9" x="-41.253" y="62">Release</tspan><tspan font-weight="400" font-size="9" x="-9.02548" y="62">is the delivery of a </tspan><tspan font-weight="400" font-size="9" x="-48.7671" y="73">defined scope of a technology </tspan><tspan font-weight="400" font-size="9" x="-48.7671" y="84">solution that enables </tspan><tspan font-weight="400" font-size="9" x="-48.7671" y="95">corresponding business </tspan><tspan font-weight="400" font-size="9" x="-48.7671" y="107">capabilities.</tspan></text><path d="M216.5 126.667C216.5 125.47 217.47 124.5 218.667 124.5L246.333 124.5C247.53 124.5 248.5 125.47 248.5 126.667L248.5 135.333C248.5 136.53 247.53 137.5 246.333 137.5L218.667 137.5C217.47 137.5 216.5 136.53 216.5 135.333Z" stroke="#46F0F0" stroke-width="1.33585" stroke-miterlimit="8" fill="#FFFFFF" fill-rule="evenodd"/><text font-family="Calibri,Calibri_MSFontService,sans-serif" font-weight="700" font-size="5" transform="translate(228.265 129)">PROJECT<tspan x="0" y="6">PHASE</tspan></text><g clip-path="url(#clip4)"><g clip-path="url(#clip5)"><g clip-path="url(#clip6)"><path d="M8.5961 6.51823C8.63472 6.42711 8.63472 6.32286 8.5961 6.23173 8.57697 6.18561 8.5496 6.14398 8.51472 6.10948L7.3901 4.98486C7.24348 4.83824 7.00648 4.83824 6.85985 4.98486 6.71323 5.13148 6.71323 5.36848 6.85985 5.51511L7.34473 5.99998 3.37499 5.99998C2.34112 5.99998 1.5 5.15886 1.5 4.12499 1.5 3.09112 2.34112 2.24999 3.37499 2.24999 4.40886 2.24999 5.24998 3.09112 5.24998 4.12499L5.99998 4.12499C5.99998 2.67749 4.82211 1.5 3.37499 1.5 1.92749 1.5 0.749998 2.67749 0.749998 4.12499 0.749998 5.57211 1.92749 6.74998 3.37499 6.74998L7.34473 6.74998 6.85985 7.23485C6.71323 7.38148 6.71323 7.61848 6.85985 7.7651 6.93298 7.83823 7.02898 7.87498 7.12498 7.87498 7.22098 7.87498 7.31698 7.83823 7.3901 7.7651L8.51472 6.64048C8.5496 6.60598 8.57697 6.56436 8.5961 6.51823Z" transform="matrix(1.11111 0 -0 1 217 126)"/></g></g></g><path d="M166.331 124 205.669 124C210.822 124 215 126.91 215 130.5 215 134.09 210.822 137 205.669 137L166.331 137C161.178 137 157 134.09 157 130.5 157 126.91 161.178 124 166.331 124Z" fill="#313131" fill-rule="evenodd"/><text fill="#FFFFFF" font-family="Calibri,Calibri_MSFontService,sans-serif" font-weight="700" font-size="5" transform="translate(171.664 132)">&lt;In scope of|</text></g></svg>