<svg width="265" height="265" xmlns="http://www.w3.org/2000/svg" xmlns:xlink="http://www.w3.org/1999/xlink" overflow="hidden"><defs><clipPath id="clip0"><path d="M0 0 265 0 265 265 0 265Z" fill-rule="evenodd" clip-rule="evenodd"/></clipPath><clipPath id="clip1"><path d="M35 51 55 51 55 71 35 71Z" fill-rule="evenodd" clip-rule="evenodd"/></clipPath><clipPath id="clip2"><path d="M35 51 55 51 55 71 35 71Z" fill-rule="evenodd" clip-rule="evenodd"/></clipPath><clipPath id="clip3"><path d="M35 51 55 51 55 71 35 71Z" fill-rule="evenodd" clip-rule="evenodd"/></clipPath><clipPath id="clip4"><path d="M224 61 235 61 235 71 224 71Z" fill-rule="evenodd" clip-rule="evenodd"/></clipPath><clipPath id="clip5"><path d="M224 61 235 61 235 71 224 71Z" fill-rule="evenodd" clip-rule="evenodd"/></clipPath><clipPath id="clip6"><path d="M224 61 235 61 235 71 224 71Z" fill-rule="evenodd" clip-rule="evenodd"/></clipPath><clipPath id="clip7"><path d="M224 124 236 124 236 134 224 134Z" fill-rule="evenodd" clip-rule="evenodd"/></clipPath><clipPath id="clip8"><path d="M224 124 236 124 236 134 224 134Z" fill-rule="evenodd" clip-rule="evenodd"/></clipPath><clipPath id="clip9"><path d="M224 124 236 124 236 134 224 134Z" fill-rule="evenodd" clip-rule="evenodd"/></clipPath><clipPath id="clip10"><path d="M212 186 222 186 222 198 212 198Z" fill-rule="evenodd" clip-rule="evenodd"/></clipPath><clipPath id="clip11"><path d="M212 186 222 186 222 198 212 198Z" fill-rule="evenodd" clip-rule="evenodd"/></clipPath><clipPath id="clip12"><path d="M212 186 222 186 222 198 212 198Z" fill-rule="evenodd" clip-rule="evenodd"/></clipPath></defs><g clip-path="url(#clip0)"><rect x="0" y="0" width="265" height="265" fill="#313131"/><rect x="89.5" y="131.5" width="1.99999" height="1" stroke="#2F528F" stroke-width="1.33585" stroke-miterlimit="8" fill="#4472C4"/><path d="M23.5 9.75271C23.5 8.50859 24.5085 7.50003 25.7527 7.50003L249.247 7.50003C250.491 7.50003 251.5 8.50859 251.5 9.75271L251.5 249.247C251.5 250.491 250.491 251.5 249.247 251.5L25.7527 251.5C24.5085 251.5 23.5 250.491 23.5 249.247Z" stroke="#FF0000" stroke-width="0.667927" stroke-miterlimit="8" stroke-opacity="0" fill="none" fill-rule="evenodd"/><path d="M30.0794 43.5 149.921 43.5C153.002 43.5 155.5 45.998 155.5 49.0794L155.5 214.252C155.5 216.598 153.598 218.5 151.252 218.5L28.7483 218.5C26.402 218.5 24.5 216.598 24.5 214.252L24.5 49.0794C24.5 45.998 26.998 43.5 30.0794 43.5Z" stroke="#CEB023" stroke-width="4.67549" stroke-miterlimit="8" fill="#FFFFFF" fill-rule="evenodd"/><g clip-path="url(#clip1)"><g clip-path="url(#clip2)"><g clip-path="url(#clip3)"><path d="M38.8871 61.5 41.3334 60.1478 43.7796 61.5 43.3125 58.6357 45.2917 56.6075 42.5565 56.1895 41.3334 53.5833 40.1102 56.1895 37.375 56.6075 39.3542 58.6357Z"/><path d="M51.625 63.875 42.125 63.875 42.125 63.0833C42.125 62.6455 41.7704 62.2916 41.3334 62.2916 40.8963 62.2916 40.5417 62.6455 40.5417 63.0833L40.5417 63.875 37.375 63.875C36.938 63.875 36.5833 64.2289 36.5833 64.6666L36.5833 67.8333C36.5833 68.2711 36.938 68.625 37.375 68.625L40.5417 68.625C40.5417 69.0628 40.8963 69.4167 41.3334 69.4167 41.7704 69.4167 42.125 69.0628 42.125 68.625L51.625 68.625C52.0628 68.625 52.4167 68.2711 52.4167 67.8333L52.4167 64.6666C52.4167 64.2289 52.0628 63.875 51.625 63.875ZM38.1667 67.0417 38.1667 65.4583 40.5417 65.4583 40.5417 67.0417 38.1667 67.0417ZM50.8334 67.0417 42.125 67.0417 42.125 65.4583 50.8334 65.4583 50.8334 67.0417Z"/></g></g></g><path d="M26.9702 6.36947C18.5628 6.36947 11.7473 10.3112 11.7473 15.1736L11.7473 248.948C11.7473 253.81 18.5628 257.752 26.9702 257.752L238.08 257.752C246.487 257.752 253.302 253.81 253.302 248.948L253.302 15.1736C253.302 10.3112 246.487 6.36947 238.08 6.36947ZM0 0 265 0 265 265 0 265Z" fill="#CEB023" fill-rule="evenodd"/><text font-family="Calibri,Calibri_MSFontService,sans-serif" font-weight="700" font-size="11" transform="translate(64.7786 63)">POSITION SKILL <tspan x="21.2067" y="13">LEVEL</tspan><tspan font-size="9" x="-33.4883" y="68">Position skill levels</tspan><tspan font-weight="400" font-size="9" x="41.8205" y="68">define the </tspan><tspan font-weight="400" font-size="9" x="-33.4883" y="79">different levels of </tspan><tspan font-weight="400" font-size="9" x="-33.4883" y="90">competency at which a </tspan><tspan font-size="9" x="56.8488" y="90">Skill</tspan><tspan font-weight="400" font-size="9" x="-33.4883" y="101">can be possessed.</tspan></text><path d="M224.5 63.5C224.5 62.9477 224.948 62.5 225.5 62.5L247.5 62.5C248.052 62.5 248.5 62.9477 248.5 63.5L248.5 67.4999C248.5 68.0522 248.052 68.5 247.5 68.5L225.5 68.5C224.948 68.5 224.5 68.0522 224.5 67.4999Z" stroke="#CEB023" stroke-width="1.33585" stroke-miterlimit="8" fill="#FFFFFF" fill-rule="evenodd"/><text font-family="Calibri,Calibri_MSFontService,sans-serif" font-weight="700" font-size="5" transform="translate(235.598 66)">ROLE</text><g clip-path="url(#clip4)"><g clip-path="url(#clip5)"><g clip-path="url(#clip6)"><path d="M4.49999 3.74999C3.87974 3.74999 3.37499 4.25474 3.37499 4.87499 3.37499 5.49523 3.87974 5.99998 4.49999 5.99998 5.12023 5.99998 5.62498 5.49523 5.62498 4.87499 5.62498 4.25474 5.12023 3.74999 4.49999 3.74999ZM4.49999 5.24998C4.29299 5.24998 4.12499 5.08198 4.12499 4.87499 4.12499 4.66836 4.29299 4.49999 4.49999 4.49999 4.70699 4.49999 4.87499 4.66836 4.87499 4.87499 4.87499 5.08198 4.70699 5.24998 4.49999 5.24998Z" transform="matrix(1.00001 0 -0 1 225 61)"/><path d="M7.87498 1.87499 5.62498 1.87499 5.62498 1.125C5.62498 0.917997 5.45736 0.749998 5.24998 0.749998L3.74999 0.749998C3.54299 0.749998 3.37499 0.917997 3.37499 1.125L3.37499 1.87499 1.125 1.87499C0.917997 1.87499 0.749998 2.04299 0.749998 2.24999L0.749998 8.24998C0.749998 8.45735 0.917997 8.62497 1.125 8.62497L7.87498 8.62497C8.08235 8.62497 8.24998 8.45735 8.24998 8.24998L8.24998 2.24999C8.24998 2.04299 8.08235 1.87499 7.87498 1.87499ZM4.12499 1.5 4.87499 1.5 4.87499 2.62499 4.12499 2.62499 4.12499 1.5ZM5.62498 7.87498 3.37499 7.87498 3.37499 7.49998C3.37499 7.2896 3.53924 7.12498 3.74924 7.12498L5.25073 7.12498C5.46073 7.12498 5.62498 7.2896 5.62498 7.49998L5.62498 7.87498ZM7.49998 7.87498 6.37498 7.87498 6.37498 7.49998C6.37498 6.87973 5.87023 6.37498 5.25073 6.37498L3.74924 6.37498C3.12937 6.37498 2.62499 6.87973 2.62499 7.49998L2.62499 7.87498 1.5 7.87498 1.5 2.62499 3.37499 2.62499 3.37499 2.99999C3.37499 3.20699 3.54299 3.37499 3.74999 3.37499L5.24998 3.37499C5.45736 3.37499 5.62498 3.20699 5.62498 2.99999L5.62498 2.62499 7.49998 2.62499 7.49998 7.87498Z" transform="matrix(1.00001 0 -0 1 225 61)"/></g></g></g><path d="M224.5 126.667C224.5 126.022 225.022 125.5 225.667 125.5L247.333 125.5C247.978 125.5 248.5 126.022 248.5 126.667L248.5 131.333C248.5 131.978 247.978 132.5 247.333 132.5L225.667 132.5C225.022 132.5 224.5 131.978 224.5 131.333Z" stroke="#CEB023" stroke-width="1.33585" stroke-miterlimit="8" fill="#FFFFFF" fill-rule="evenodd"/><text font-family="Calibri,Calibri_MSFontService,sans-serif" font-weight="700" font-size="5" transform="translate(235.942 130)">SKILL</text><g clip-path="url(#clip7)"><g clip-path="url(#clip8)"><g clip-path="url(#clip9)"><path d="M4.12499 3.74999C3.09112 3.74999 2.24999 2.90887 2.24999 1.87499 2.24999 0.841123 3.09112 0 4.12499 0 5.15886 0 5.99998 0.841123 5.99998 1.87499 5.99998 2.90887 5.15886 3.74999 4.12499 3.74999ZM4.12499 0.749998C3.50474 0.749998 2.99999 1.25475 2.99999 1.87499 2.99999 2.49524 3.50474 2.99999 4.12499 2.99999 4.74524 2.99999 5.24998 2.49524 5.24998 1.87499 5.24998 1.25475 4.74524 0.749998 4.12499 0.749998Z" transform="matrix(1.11112 0 -0 1 225.417 124.375)"/><path d="M6.74998 8.62497C6.54261 8.62497 6.37498 8.45735 6.37498 8.24998L6.37498 6.56248C6.37498 5.83873 5.78511 5.24998 5.05986 5.24998L3.19012 5.24998C2.46487 5.24998 1.87499 5.83873 1.87499 6.56248L1.87499 8.24998C1.87499 8.45735 1.707 8.62497 1.5 8.62497 1.293 8.62497 1.125 8.45735 1.125 8.24998L1.125 6.56248C1.125 5.42548 2.05124 4.49999 3.19012 4.49999L5.05986 4.49999C6.19836 4.49999 7.12498 5.42548 7.12498 6.56248L7.12498 8.24998C7.12498 8.45735 6.95735 8.62497 6.74998 8.62497Z" transform="matrix(1.11112 0 -0 1 225.417 124.375)"/><path d="M4.12499 8.11235 3.19762 8.62497 3.37499 7.53935 2.62499 6.77135 3.66149 6.61236 4.12499 5.62498 4.58849 6.61236 5.62498 6.77135 4.87499 7.53935 5.05236 8.62497Z" transform="matrix(1.11112 0 -0 1 225.417 124.375)"/></g></g></g><path d="M212.5 190.5C212.5 189.948 212.948 189.5 213.5 189.5L247.5 189.5C248.052 189.5 248.5 189.948 248.5 190.5L248.5 194.5C248.5 195.052 248.052 195.5 247.5 195.5L213.5 195.5C212.948 195.5 212.5 195.052 212.5 194.5Z" stroke="#911EB4" stroke-width="1.33585" stroke-miterlimit="8" fill="#FFFFFF" fill-rule="evenodd"/><text font-family="Calibri,Calibri_MSFontService,sans-serif" font-weight="700" font-size="5" transform="translate(223.229 193)">CAPABILITY</text><g clip-path="url(#clip10)"><g clip-path="url(#clip11)"><g clip-path="url(#clip12)"><path d="M8.74997 4.16665 1.25 4.16665C1.02 4.16665 0.833331 4.35332 0.833331 4.58332L0.833331 6.24998C0.833331 6.4804 1.02 6.66665 1.25 6.66665L1.66666 6.66665 1.66666 9.16664C1.66666 9.39706 1.85333 9.58331 2.08333 9.58331L7.91664 9.58331C8.14706 9.58331 8.33331 9.39706 8.33331 9.16664L8.33331 6.66665 8.74997 6.66665C8.98039 6.66665 9.16664 6.4804 9.16664 6.24998L9.16664 4.58332C9.16664 4.35332 8.98039 4.16665 8.74997 4.16665ZM7.49998 8.74997 2.49999 8.74997 2.49999 6.66665 7.49998 6.66665 7.49998 8.74997ZM8.33331 5.83332 7.91664 5.83332 2.08333 5.83332 1.66666 5.83332 1.66666 4.99999 8.33331 4.99999 8.33331 5.83332Z" transform="matrix(1 0 -0 1.00001 212 187)"/><path d="M2.08333 3.33332 4.16665 3.33332C4.39707 3.33332 4.58332 3.14666 4.58332 2.91666L4.58332 0.833331C4.58332 0.603332 4.39707 0.416665 4.16665 0.416665L2.08333 0.416665C1.85333 0.416665 1.66666 0.603332 1.66666 0.833331L1.66666 2.91666C1.66666 3.14666 1.85333 3.33332 2.08333 3.33332ZM2.49999 1.25 3.74999 1.25 3.74999 2.49999 2.49999 2.49999 2.49999 1.25Z" transform="matrix(1 0 -0 1.00001 212 187)"/><path d="M6.87498 3.33332C7.68081 3.33332 8.33331 2.68041 8.33331 1.87499 8.33331 1.06958 7.68081 0.416665 6.87498 0.416665 6.06915 0.416665 5.41665 1.06958 5.41665 1.87499 5.41665 2.68041 6.06915 3.33332 6.87498 3.33332ZM6.87498 1.25C7.21998 1.25 7.49998 1.52958 7.49998 1.87499 7.49998 2.22041 7.21998 2.49999 6.87498 2.49999 6.52998 2.49999 6.24998 2.22041 6.24998 1.87499 6.24998 1.52958 6.52998 1.25 6.87498 1.25Z" transform="matrix(1 0 -0 1.00001 212 187)"/></g></g></g><path d="M167.618 125 212.382 125C218.246 125 223 128.134 223 132 223 135.866 218.246 139 212.382 139L167.618 139C161.754 139 157 135.866 157 132 157 128.134 161.754 125 167.618 125Z" fill="#313131" fill-rule="evenodd"/><text fill="#FFFFFF" font-family="Calibri,Calibri_MSFontService,sans-serif" font-weight="700" font-size="5" transform="translate(183.519 134)">&lt;Has|</text><path d="M167.618 62 212.382 62C218.246 62 223 64.9102 223 68.5 223 72.0898 218.246 75 212.382 75L167.618 75C161.754 75 157 72.0898 157 68.5 157 64.9102 161.754 62 167.618 62Z" fill="#313131" fill-rule="evenodd"/><text fill="#FFFFFF" font-family="Calibri,Calibri_MSFontService,sans-serif" font-weight="700" font-size="5" transform="translate(174.335 71)">|Required by&gt;</text><path d="M165.527 189 201.473 189C206.183 189 210 191.91 210 195.5 210 199.09 206.183 202 201.473 202L165.527 202C160.817 202 157 199.09 157 195.5 157 191.91 160.817 189 165.527 189Z" fill="#313131" fill-rule="evenodd"/><text fill="#FFFFFF" font-family="Calibri,Calibri_MSFontService,sans-serif" font-weight="700" font-size="5" transform="translate(166.153 197)">&lt;Supported by|</text></g></svg>