<svg width="265" height="265" xmlns="http://www.w3.org/2000/svg" xmlns:xlink="http://www.w3.org/1999/xlink" overflow="hidden"><defs><clipPath id="clip0"><path d="M0 0 265 0 265 265 0 265Z" fill-rule="evenodd" clip-rule="evenodd"/></clipPath><clipPath id="clip1"><path d="M35 51 55 51 55 71 35 71Z" fill-rule="evenodd" clip-rule="evenodd"/></clipPath><clipPath id="clip2"><path d="M35 51 55 51 55 71 35 71Z" fill-rule="evenodd" clip-rule="evenodd"/></clipPath><clipPath id="clip3"><path d="M35 51 55 51 55 71 35 71Z" fill-rule="evenodd" clip-rule="evenodd"/></clipPath><clipPath id="clip4"><path d="M206 38 215 38 215 49 206 49Z" fill-rule="evenodd" clip-rule="evenodd"/></clipPath><clipPath id="clip5"><path d="M206 38 215 38 215 49 206 49Z" fill-rule="evenodd" clip-rule="evenodd"/></clipPath><clipPath id="clip6"><path d="M206 38 215 38 215 49 206 49Z" fill-rule="evenodd" clip-rule="evenodd"/></clipPath><clipPath id="clip7"><path d="M225 81 237 81 237 92 225 92Z" fill-rule="evenodd" clip-rule="evenodd"/></clipPath><clipPath id="clip8"><path d="M225 81 237 81 237 92 225 92Z" fill-rule="evenodd" clip-rule="evenodd"/></clipPath><clipPath id="clip9"><path d="M225 81 237 81 237 92 225 92Z" fill-rule="evenodd" clip-rule="evenodd"/></clipPath><clipPath id="clip10"><path d="M212 124 222 124 222 134 212 134Z" fill-rule="evenodd" clip-rule="evenodd"/></clipPath><clipPath id="clip11"><path d="M212 124 222 124 222 134 212 134Z" fill-rule="evenodd" clip-rule="evenodd"/></clipPath><clipPath id="clip12"><path d="M212 124 222 124 222 134 212 134Z" fill-rule="evenodd" clip-rule="evenodd"/></clipPath><clipPath id="clip13"><path d="M214 168 225 168 225 177 214 177Z" fill-rule="evenodd" clip-rule="evenodd"/></clipPath><clipPath id="clip14"><path d="M214 168 225 168 225 177 214 177Z" fill-rule="evenodd" clip-rule="evenodd"/></clipPath><clipPath id="clip15"><path d="M214 168 225 168 225 177 214 177Z" fill-rule="evenodd" clip-rule="evenodd"/></clipPath><clipPath id="clip16"><path d="M216 210 227 210 227 220 216 220Z" fill-rule="evenodd" clip-rule="evenodd"/></clipPath><clipPath id="clip17"><path d="M216 210 227 210 227 220 216 220Z" fill-rule="evenodd" clip-rule="evenodd"/></clipPath><clipPath id="clip18"><path d="M216 210 227 210 227 220 216 220Z" fill-rule="evenodd" clip-rule="evenodd"/></clipPath><clipPath id="clip19"><path d="M71 222 82 222 82 234 71 234Z" fill-rule="evenodd" clip-rule="evenodd"/></clipPath><clipPath id="clip20"><path d="M71 222 82 222 82 234 71 234Z" fill-rule="evenodd" clip-rule="evenodd"/></clipPath><clipPath id="clip21"><path d="M71 222 82 222 82 234 71 234Z" fill-rule="evenodd" clip-rule="evenodd"/></clipPath></defs><g clip-path="url(#clip0)"><rect x="0" y="0" width="265" height="265" fill="#313131"/><rect x="89.5" y="131.5" width="1.99999" height="1" stroke="#2F528F" stroke-width="1.33585" stroke-miterlimit="8" fill="#4472C4"/><path d="M23.5 9.75271C23.5 8.50859 24.5085 7.50003 25.7527 7.50003L249.247 7.50003C250.491 7.50003 251.5 8.50859 251.5 9.75271L251.5 249.247C251.5 250.491 250.491 251.5 249.247 251.5L25.7527 251.5C24.5085 251.5 23.5 250.491 23.5 249.247Z" stroke="#FF0000" stroke-width="0.667927" stroke-miterlimit="8" stroke-opacity="0" fill="none" fill-rule="evenodd"/><path d="M30.0794 43.5 149.921 43.5C153.002 43.5 155.5 45.998 155.5 49.0794L155.5 214.252C155.5 216.598 153.598 218.5 151.252 218.5L28.7483 218.5C26.402 218.5 24.5 216.598 24.5 214.252L24.5 49.0794C24.5 45.998 26.998 43.5 30.0794 43.5Z" stroke="#000080" stroke-width="4.67549" stroke-miterlimit="8" fill="#FFFFFF" fill-rule="evenodd"/><g clip-path="url(#clip1)"><g clip-path="url(#clip2)"><g clip-path="url(#clip3)"><path d="M47.7767 56.138C47.4672 55.8332 46.9724 55.8332 46.6637 56.138L36.0268 66.6419C35.8764 66.7915 35.7917 66.9934 35.7917 67.2055 35.7917 67.4177 35.8764 67.6196 36.0268 67.7692L38.2664 69.9803C38.4208 70.1323 38.6219 70.2083 38.823 70.2083 39.0241 70.2083 39.2251 70.1323 39.3795 69.9803L50.0156 59.4757C50.1652 59.3268 50.2507 59.1242 50.2507 58.9128 50.2507 58.7014 50.1668 58.4988 50.0156 58.3499L47.7767 56.138ZM46.0976 61.1208 44.9845 60.0219 47.2202 57.814 48.3325 58.9128 46.0976 61.1208Z"/><path d="M50.8334 55.1373 51.625 55.1373 51.625 54.3552 52.4167 54.3552 52.4167 53.5738 51.625 53.5738 51.625 52.7916 50.8334 52.7916 50.8334 53.5738 50.0417 53.5738 50.0417 54.3552 50.8334 54.3552Z"/><path d="M45.2917 55.1373 46.0834 55.1373 46.0834 54.3552 46.875 54.3552 46.875 53.5738 46.0834 53.5738 46.0834 52.7916 45.2917 52.7916 45.2917 53.5738 44.5 53.5738 44.5 54.3552 45.2917 54.3552Z"/><path d="M50.8334 56.7009 51.625 56.7009 51.625 57.483 50.8334 57.483Z"/><path d="M52.4167 55.1373 53.2084 55.1373 53.2084 55.9187 52.4167 55.9187Z"/><path d="M42.9167 55.9187 43.7084 55.9187 43.7084 56.7009 42.9167 56.7009Z"/><path d="M48.4584 54.3552 49.25 54.3552 49.25 55.1373 48.4584 55.1373Z"/><path d="M52.4167 59.0466 51.625 59.0466 51.625 59.828 50.8334 59.828 50.8334 60.6101 51.625 60.6101 51.625 61.3923 52.4167 61.3923 52.4167 60.6101 53.2084 60.6101 53.2084 59.828 52.4167 59.828Z"/></g></g></g><path d="M26.9702 6.36947C18.5628 6.36947 11.7473 10.3112 11.7473 15.1736L11.7473 248.948C11.7473 253.81 18.5628 257.752 26.9702 257.752L238.08 257.752C246.487 257.752 253.302 253.81 253.302 248.948L253.302 15.1736C253.302 10.3112 246.487 6.36947 238.08 6.36947ZM0 0 265 0 265 265 0 265Z" fill="#000080" fill-rule="evenodd"/><text font-family="Calibri,Calibri_MSFontService,sans-serif" font-weight="700" font-size="11" transform="translate(63.7767 63)">ENHANCEMENT<tspan font-weight="400" font-size="9" x="-32.4864" y="57">An</tspan><tspan font-size="9" x="-20.1297" y="57">Enhancement</tspan><tspan font-weight="400" font-size="9" x="35.3082" y="57">defines </tspan><tspan font-weight="400" font-size="9" x="-32.4864" y="68">work</tspan><tspan font-weight="400" font-size="9" x="-11.1127" y="68">to be done in order to </tspan><tspan font-weight="400" font-size="9" x="-32.4864" y="79">deliver scoped </tspan><tspan font-size="9" x="24.9553" y="79">enhancements</tspan><tspan font-weight="400" font-size="9" x="-32.4864" y="90">to a </tspan><tspan font-size="9" x="-15.4543" y="90">Product feature</tspan><tspan font-weight="400" font-size="9" x="-32.4864" y="102">(Enhancements and Epics are </tspan><tspan font-weight="400" font-size="9" x="-32.4864" y="113">equivalent).</tspan></text><path d="M205.5 42.5C205.5 41.9478 205.948 41.5 206.5 41.5L247.5 41.5C248.052 41.5 248.5 41.9478 248.5 42.5L248.5 46.5C248.5 47.0523 248.052 47.5 247.5 47.5L206.5 47.5C205.948 47.5 205.5 47.0523 205.5 46.5Z" stroke="#D2F53C" stroke-width="1.33585" stroke-miterlimit="8" fill="#FFFFFF" fill-rule="evenodd"/><text font-family="Calibri,Calibri_MSFontService,sans-serif" font-weight="700" font-size="5" transform="translate(216.589 45)">REQUIREMENT</text><g clip-path="url(#clip4)"><g clip-path="url(#clip5)"><g clip-path="url(#clip6)"><path d="M3.74999 5.32461 1.90424 7.12498 1.90387 7.1246 1.90387 7.12498 0.749998 5.99998 1.21125 5.54998 1.90387 6.22498 3.28874 4.87499Z" transform="matrix(1 0 -0 1.11111 206 39)"/><path d="M3.74999 1.575 1.90424 3.37499 1.90387 3.37499 1.90387 3.37499 0.749998 2.24999 1.21125 1.79999 1.90387 2.47499 3.28874 1.125Z" transform="matrix(1 0 -0 1.11111 206 39)"/><path d="M7.49998 3.37499 5.24998 3.37499C5.04261 3.37499 4.87499 3.20699 4.87499 2.99999L4.87499 1.5C4.87499 1.293 5.04261 1.125 5.24998 1.125L7.49998 1.125C7.70735 1.125 7.87498 1.293 7.87498 1.5L7.87498 2.99999C7.87498 3.20699 7.70735 3.37499 7.49998 3.37499ZM5.62498 2.62499 7.12498 2.62499 7.12498 1.87499 5.62498 1.87499 5.62498 2.62499Z" transform="matrix(1 0 -0 1.11111 206 39)"/><path d="M7.49998 7.12498 5.24998 7.12498C5.04261 7.12498 4.87499 6.95735 4.87499 6.74998L4.87499 5.24998C4.87499 5.04261 5.04261 4.87499 5.24998 4.87499L7.49998 4.87499C7.70735 4.87499 7.87498 5.04261 7.87498 5.24998L7.87498 6.74998C7.87498 6.95735 7.70735 7.12498 7.49998 7.12498ZM5.62498 6.37498 7.12498 6.37498 7.12498 5.62498 5.62498 5.62498 5.62498 6.37498Z" transform="matrix(1 0 -0 1.11111 206 39)"/></g></g></g><path d="M226.5 84.5C226.5 83.9477 226.948 83.5 227.5 83.5L247.5 83.5C248.052 83.5 248.5 83.9477 248.5 84.5L248.5 88.5C248.5 89.0523 248.052 89.5 247.5 89.5L227.5 89.5C226.948 89.5 226.5 89.0523 226.5 88.5Z" stroke="#D2F53C" stroke-width="1.33585" stroke-miterlimit="8" fill="#FFFFFF" fill-rule="evenodd"/><text font-family="Calibri,Calibri_MSFontService,sans-serif" font-weight="700" font-size="5" transform="translate(237.317 87)">RISK</text><g clip-path="url(#clip7)"><g clip-path="url(#clip8)"><g clip-path="url(#clip9)"><path d="M6.92819 4.62192C7.09694 5.3063 6.39381 5.9813 5.70005 5.70005 5.11879 5.4938 4.89379 4.81879 5.29692 4.23754 6.2063 3.02815 5.54067 1.12501 4.03129 0.468754 4.71567 1.76252 3.66566 2.95315 3.06565 3.45003 2.46565 3.94691 2.06252 4.46254 1.94064 4.76254 1.33126 6.2438 2.24064 7.65944 2.8594 7.99695 2.57815 7.35944 2.31565 6.14068 3.4219 4.99692 3.4219 4.99692 3.10315 6.21568 3.79691 7.05944 4.49066 7.90319 4.48129 8.53132 4.48129 8.53132 5.55942 8.53132 6.58131 7.88444 7.01256 6.82506 7.34069 6.19693 7.36881 5.20317 6.92819 4.62192" transform="matrix(1.11111 0 -0 1 226 82)"/></g></g></g><path d="M212.5 126.667C212.5 126.022 213.022 125.5 213.667 125.5L247.333 125.5C247.978 125.5 248.5 126.022 248.5 126.667L248.5 131.333C248.5 131.978 247.978 132.5 247.333 132.5L213.667 132.5C213.022 132.5 212.5 131.978 212.5 131.333Z" stroke="#911EB4" stroke-width="1.33585" stroke-miterlimit="8" fill="#FFFFFF" fill-rule="evenodd"/><text font-family="Calibri,Calibri_MSFontService,sans-serif" font-weight="700" font-size="5" transform="translate(223.229 130)">CAPABILITY</text><g clip-path="url(#clip10)"><g clip-path="url(#clip11)"><g clip-path="url(#clip12)"><path d="M7.87498 3.74999 1.125 3.74999C0.917997 3.74999 0.749998 3.91799 0.749998 4.12499L0.749998 5.62498C0.749998 5.83236 0.917997 5.99998 1.125 5.99998L1.5 5.99998 1.5 8.24998C1.5 8.45735 1.668 8.62497 1.87499 8.62497L7.12498 8.62497C7.33235 8.62497 7.49998 8.45735 7.49998 8.24998L7.49998 5.99998 7.87498 5.99998C8.08235 5.99998 8.24998 5.83236 8.24998 5.62498L8.24998 4.12499C8.24998 3.91799 8.08235 3.74999 7.87498 3.74999ZM6.74998 7.87498 2.24999 7.87498 2.24999 5.99998 6.74998 5.99998 6.74998 7.87498ZM7.49998 5.24998 7.12498 5.24998 1.87499 5.24998 1.5 5.24998 1.5 4.49999 7.49998 4.49999 7.49998 5.24998Z" transform="matrix(1.11111 0 -0 1 212 124)"/><path d="M1.87499 2.99999 3.74999 2.99999C3.95736 2.99999 4.12499 2.83199 4.12499 2.62499L4.12499 0.749998C4.12499 0.542998 3.95736 0.374999 3.74999 0.374999L1.87499 0.374999C1.668 0.374999 1.5 0.542998 1.5 0.749998L1.5 2.62499C1.5 2.83199 1.668 2.99999 1.87499 2.99999ZM2.24999 1.125 3.37499 1.125 3.37499 2.24999 2.24999 2.24999 2.24999 1.125Z" transform="matrix(1.11111 0 -0 1 212 124)"/><path d="M6.18748 2.99999C6.91273 2.99999 7.49998 2.41237 7.49998 1.68749 7.49998 0.962622 6.91273 0.374999 6.18748 0.374999 5.46223 0.374999 4.87499 0.962622 4.87499 1.68749 4.87499 2.41237 5.46223 2.99999 6.18748 2.99999ZM6.18748 1.125C6.49798 1.125 6.74998 1.37662 6.74998 1.68749 6.74998 1.99837 6.49798 2.24999 6.18748 2.24999 5.87698 2.24999 5.62498 1.99837 5.62498 1.68749 5.62498 1.37662 5.87698 1.125 6.18748 1.125Z" transform="matrix(1.11111 0 -0 1 212 124)"/></g></g></g><path d="M214.5 168.667C214.5 167.47 215.47 166.5 216.667 166.5L246.333 166.5C247.53 166.5 248.5 167.47 248.5 168.667L248.5 177.333C248.5 178.53 247.53 179.5 246.333 179.5L216.667 179.5C215.47 179.5 214.5 178.53 214.5 177.333Z" stroke="#911EB4" stroke-width="1.33585" stroke-miterlimit="8" fill="#FFFFFF" fill-rule="evenodd"/><text font-family="Calibri,Calibri_MSFontService,sans-serif" font-weight="700" font-size="5" transform="translate(226.306 171)">PRODUCT<tspan x="0" y="6">FEATURE</tspan></text><g clip-path="url(#clip13)"><g clip-path="url(#clip14)"><g clip-path="url(#clip15)"><path d="M7.87498 3.74999 1.125 3.74999C0.917997 3.74999 0.749998 3.91799 0.749998 4.12499L0.749998 5.62498C0.749998 5.83236 0.917997 5.99998 1.125 5.99998L1.5 5.99998 1.5 8.24998C1.5 8.45735 1.668 8.62497 1.87499 8.62497L7.12498 8.62497C7.33235 8.62497 7.49998 8.45735 7.49998 8.24998L7.49998 5.99998 7.87498 5.99998C8.08235 5.99998 8.24998 5.83236 8.24998 5.62498L8.24998 4.12499C8.24998 3.91799 8.08235 3.74999 7.87498 3.74999ZM6.74998 7.87498 2.24999 7.87498 2.24999 5.99998 6.74998 5.99998 6.74998 7.87498ZM7.49998 5.24998 7.12498 5.24998 1.87499 5.24998 1.5 5.24998 1.5 4.49999 7.49998 4.49999 7.49998 5.24998Z" transform="matrix(1.11111 0 -0 1 215 168)"/><path d="M4.22136 2.87587C4.29224 2.95499 4.39386 2.99999 4.49999 2.99999 4.60611 2.99999 4.70811 2.95499 4.77861 2.87587L5.90361 1.626C5.99586 1.52325 6.02398 1.37812 5.97786 1.24837L5.75248 0.623248C5.69923 0.474374 5.55823 0.374999 5.39998 0.374999L3.59999 0.374999C3.44174 0.374999 3.30074 0.474374 3.24712 0.622873L3.02212 1.248C2.97524 1.37775 3.00374 1.52325 3.09637 1.62562L4.22136 2.87587ZM3.86361 1.125 5.13673 1.125 5.19636 1.29075 4.49999 2.06437 3.80399 1.29112 3.86361 1.125Z" transform="matrix(1.11111 0 -0 1 215 168)"/></g></g></g><path d="M216.5 211.5C216.5 210.395 217.395 209.5 218.5 209.5L246.5 209.5C247.605 209.5 248.5 210.395 248.5 211.5L248.5 219.5C248.5 220.605 247.605 221.5 246.5 221.5L218.5 221.5C217.395 221.5 216.5 220.605 216.5 219.5Z" stroke="#46F0F0" stroke-width="1.33585" stroke-miterlimit="8" fill="#FFFFFF" fill-rule="evenodd"/><text font-family="Calibri,Calibri_MSFontService,sans-serif" font-weight="700" font-size="5" transform="translate(228.265 213)">PROJECT<tspan x="0" y="6">PHASE</tspan></text><g clip-path="url(#clip16)"><g clip-path="url(#clip17)"><g clip-path="url(#clip18)"><path d="M226.551 217.242C226.594 217.141 226.594 217.025 226.551 216.924 226.53 216.873 226.5 216.827 226.461 216.788L225.211 215.539C225.048 215.376 224.785 215.376 224.622 215.539 224.459 215.702 224.459 215.965 224.622 216.128L225.161 216.667 220.75 216.667C219.601 216.667 218.667 215.732 218.667 214.583 218.667 213.435 219.601 212.5 220.75 212.5 221.899 212.5 222.833 213.435 222.833 214.583L223.667 214.583C223.667 212.975 222.358 211.667 220.75 211.667 219.142 211.667 217.833 212.975 217.833 214.583 217.833 216.191 219.142 217.5 220.75 217.5L225.161 217.5 224.622 218.039C224.459 218.202 224.459 218.465 224.622 218.628 224.703 218.709 224.81 218.75 224.917 218.75 225.023 218.75 225.13 218.709 225.211 218.628L226.461 217.378C226.5 217.34 226.53 217.294 226.551 217.242Z"/></g></g></g><path d="M164.561 41 196.439 41C200.615 41 204 43.9101 204 47.5 204 51.0899 200.615 54.0001 196.439 54.0001L164.561 54.0001C160.385 54.0001 157 51.0899 157 47.5 157 43.9101 160.385 41 164.561 41Z" fill="#313131" fill-rule="evenodd"/><text fill="#FFFFFF" font-family="Calibri,Calibri_MSFontService,sans-serif" font-weight="700" font-size="5" transform="translate(165.736 49)">|Clarified by&gt;</text><path d="M166.331 209 205.669 209C210.822 209 215 211.91 215 215.5 215 219.09 210.822 222 205.669 222L166.331 222C161.178 222 157 219.09 157 215.5 157 211.91 161.178 209 166.331 209Z" fill="#313131" fill-rule="evenodd"/><text fill="#FFFFFF" font-family="Calibri,Calibri_MSFontService,sans-serif" font-weight="700" font-size="5" transform="translate(167.072 217)">|Contributed by&gt;</text><path d="M166.17 166 204.83 166C209.894 166 214 169.134 214 173 214 176.866 209.894 180 204.83 180L166.17 180C161.106 180 157 176.866 157 173 157 169.134 161.106 166 166.17 166Z" fill="#313131" fill-rule="evenodd"/><text fill="#FFFFFF" font-family="Calibri,Calibri_MSFontService,sans-serif" font-weight="700" font-size="5" transform="translate(172.499 175)">|Enhances&gt;</text><path d="M167.779 83 213.221 83C219.174 83 224 86.134 224 90 224 93.866 219.174 97 213.221 97L167.779 97C161.826 97 157 93.866 157 90 157 86.134 161.826 83 167.779 83Z" fill="#313131" fill-rule="evenodd"/><text fill="#FFFFFF" font-family="Calibri,Calibri_MSFontService,sans-serif" font-weight="700" font-size="5" transform="translate(181.265 92)">&lt;Tracks|</text><path d="M165.527 125 201.473 125C206.183 125 210 128.134 210 132 210 135.866 206.183 139 201.473 139L165.527 139C160.817 139 157 135.866 157 132 157 128.134 160.817 125 165.527 125Z" fill="#313131" fill-rule="evenodd"/><text fill="#FFFFFF" font-family="Calibri,Calibri_MSFontService,sans-serif" font-weight="700" font-size="5" transform="translate(168.658 134)">&lt;Uplifted by|</text><path d="M84 222 89.5 218 95 222Z" fill="#FFFFFF" fill-rule="evenodd"/><path d="M71.5001 226.5C71.5001 225.948 71.9478 225.5 72.5001 225.5L122.5 225.5C123.052 225.5 123.5 225.948 123.5 226.5L123.5 230.5C123.5 231.052 123.052 231.5 122.5 231.5L72.5001 231.5C71.9478 231.5 71.5001 231.052 71.5001 230.5Z" stroke="#000080" stroke-width="1.33585" stroke-miterlimit="8" fill="#FFFFFF" fill-rule="evenodd"/><text font-family="Calibri,Calibri_MSFontService,sans-serif" font-weight="700" font-size="5" transform="translate(83.0711 229)">SCOPE INCREMENT</text><g clip-path="url(#clip19)"><g clip-path="url(#clip20)"><g clip-path="url(#clip21)"><path d="M9.55122 6.82581C9.59414 6.72456 9.59414 6.60873 9.55122 6.50748 9.52997 6.45623 9.49956 6.40998 9.4608 6.37165L8.21123 5.12207C8.04831 4.95915 7.78498 4.95915 7.62206 5.12207 7.45914 5.28498 7.45914 5.54832 7.62206 5.71123L8.16081 6.24998 2.49999 6.24998C2.26999 6.24998 2.08333 6.43623 2.08333 6.66665 2.08333 6.89706 2.26999 7.08331 2.49999 7.08331L8.16081 7.08331 7.62206 7.62206C7.45914 7.78498 7.45914 8.04831 7.62206 8.21123 7.70331 8.29248 7.80998 8.33331 7.91664 8.33331 8.02331 8.33331 8.12998 8.29248 8.21123 8.21123L9.4608 6.96165C9.49956 6.92331 9.52997 6.87706 9.55122 6.82581Z" transform="matrix(1 0 -0 1.00001 72 223)"/><path d="M4.16665 8.33331 1.25 8.33331 1.25 1.66666 5.41665 1.66666 5.41665 4.24999C5.41665 4.47999 5.6029 4.66665 5.83332 4.66665 6.06373 4.66665 6.24998 4.47999 6.24998 4.24999L6.24998 1.25C6.24998 1.02 6.06373 0.833331 5.83332 0.833331L0.833331 0.833331C0.603332 0.833331 0.416665 1.02 0.416665 1.25L0.416665 8.74997C0.416665 8.98039 0.603332 9.16664 0.833331 9.16664L4.16665 9.16664C4.39707 9.16664 4.58332 8.98039 4.58332 8.74997 4.58332 8.51956 4.39707 8.33331 4.16665 8.33331Z" transform="matrix(1 0 -0 1.00001 72 223)"/></g></g></g></g></svg>