<svg width="265" height="265" xmlns="http://www.w3.org/2000/svg" xmlns:xlink="http://www.w3.org/1999/xlink" overflow="hidden"><defs><clipPath id="clip0"><path d="M0 0 265 0 265 265 0 265Z" fill-rule="evenodd" clip-rule="evenodd"/></clipPath><clipPath id="clip1"><path d="M35 51 55 51 55 71 35 71Z" fill-rule="evenodd" clip-rule="evenodd"/></clipPath><clipPath id="clip2"><path d="M35 51 55 51 55 71 35 71Z" fill-rule="evenodd" clip-rule="evenodd"/></clipPath><clipPath id="clip3"><path d="M35 51 55 51 55 71 35 71Z" fill-rule="evenodd" clip-rule="evenodd"/></clipPath><clipPath id="clip4"><path d="M213 33 224 33 224 43 213 43Z" fill-rule="evenodd" clip-rule="evenodd"/></clipPath><clipPath id="clip5"><path d="M213 33 224 33 224 43 213 43Z" fill-rule="evenodd" clip-rule="evenodd"/></clipPath><clipPath id="clip6"><path d="M213 33 224 33 224 43 213 43Z" fill-rule="evenodd" clip-rule="evenodd"/></clipPath><clipPath id="clip7"><path d="M219 70 231 70 231 79 219 79Z" fill-rule="evenodd" clip-rule="evenodd"/></clipPath><clipPath id="clip8"><path d="M219 70 231 70 231 79 219 79Z" fill-rule="evenodd" clip-rule="evenodd"/></clipPath><clipPath id="clip9"><path d="M219 70 231 70 231 79 219 79Z" fill-rule="evenodd" clip-rule="evenodd"/></clipPath><clipPath id="clip10"><path d="M224 106 235 106 235 115 224 115Z" fill-rule="evenodd" clip-rule="evenodd"/></clipPath><clipPath id="clip11"><path d="M224 106 235 106 235 115 224 115Z" fill-rule="evenodd" clip-rule="evenodd"/></clipPath><clipPath id="clip12"><path d="M224 106 235 106 235 115 224 115Z" fill-rule="evenodd" clip-rule="evenodd"/></clipPath><clipPath id="clip13"><path d="M216 141 227 141 227 152 216 152Z" fill-rule="evenodd" clip-rule="evenodd"/></clipPath><clipPath id="clip14"><path d="M216 141 227 141 227 152 216 152Z" fill-rule="evenodd" clip-rule="evenodd"/></clipPath><clipPath id="clip15"><path d="M216 141 227 141 227 152 216 152Z" fill-rule="evenodd" clip-rule="evenodd"/></clipPath><clipPath id="clip16"><path d="M224 177 236 177 236 188 224 188Z" fill-rule="evenodd" clip-rule="evenodd"/></clipPath><clipPath id="clip17"><path d="M224 177 236 177 236 188 224 188Z" fill-rule="evenodd" clip-rule="evenodd"/></clipPath><clipPath id="clip18"><path d="M224 177 236 177 236 188 224 188Z" fill-rule="evenodd" clip-rule="evenodd"/></clipPath><clipPath id="clip19"><path d="M212 214 222 214 222 224 212 224Z" fill-rule="evenodd" clip-rule="evenodd"/></clipPath><clipPath id="clip20"><path d="M212 214 222 214 222 224 212 224Z" fill-rule="evenodd" clip-rule="evenodd"/></clipPath><clipPath id="clip21"><path d="M212 214 222 214 222 224 212 224Z" fill-rule="evenodd" clip-rule="evenodd"/></clipPath></defs><g clip-path="url(#clip0)"><rect x="0" y="0" width="265" height="265" fill="#313131"/><rect x="89.5" y="131.5" width="1.99999" height="1" stroke="#2F528F" stroke-width="1.33585" stroke-miterlimit="8" fill="#4472C4"/><path d="M23.5 9.75271C23.5 8.50859 24.5085 7.50003 25.7527 7.50003L249.247 7.50003C250.491 7.50003 251.5 8.50859 251.5 9.75271L251.5 249.247C251.5 250.491 250.491 251.5 249.247 251.5L25.7527 251.5C24.5085 251.5 23.5 250.491 23.5 249.247Z" stroke="#FF0000" stroke-width="0.667927" stroke-miterlimit="8" stroke-opacity="0" fill="none" fill-rule="evenodd"/><path d="M30.0794 43.5 149.921 43.5C153.002 43.5 155.5 45.998 155.5 49.0794L155.5 214.252C155.5 216.598 153.598 218.5 151.252 218.5L28.7483 218.5C26.402 218.5 24.5 216.598 24.5 214.252L24.5 49.0794C24.5 45.998 26.998 43.5 30.0794 43.5Z" stroke="#A65462" stroke-width="4.67549" stroke-miterlimit="8" fill="#FFFFFF" fill-rule="evenodd"/><g clip-path="url(#clip1)"><g clip-path="url(#clip2)"><g clip-path="url(#clip3)"><path d="M47.7498 66.25 41.2186 66.25C40.3988 66.25 39.7342 66.9146 39.7342 67.7344 39.7342 68.5542 40.3988 69.2187 41.2186 69.2187L47.7498 69.2187C48.5696 69.2187 49.2342 68.5542 49.2342 67.7344 49.2342 66.9146 48.5696 66.25 47.7498 66.25ZM41.6144 68.3281C41.2865 68.3281 41.0206 68.0623 41.0206 67.7344 41.0206 67.4064 41.2865 67.1406 41.6144 67.1406 41.9423 67.1406 42.2081 67.4064 42.2081 67.7344 42.2081 68.0623 41.9423 68.3281 41.6144 68.3281ZM44.4842 68.3281C44.1563 68.3281 43.8904 68.0623 43.8904 67.7344 43.8904 67.4064 44.1563 67.1406 44.4842 67.1406 44.8121 67.1406 45.0779 67.4064 45.0779 67.7344 45.0779 68.0623 44.8121 68.3281 44.4842 68.3281ZM47.354 68.3281C47.0261 68.3281 46.7602 68.0623 46.7602 67.7344 46.7602 67.4064 47.0261 67.1406 47.354 67.1406 47.6819 67.1406 47.9477 67.4064 47.9477 67.7344 47.9477 68.0623 47.6819 68.3281 47.354 68.3281Z"/><path d="M45.8518 57.5416C45.8518 57.7056 45.7189 57.8385 45.5549 57.8385 45.391 57.8385 45.258 57.7056 45.258 57.5416 45.258 57.3777 45.391 57.2448 45.5549 57.2448 45.7189 57.2448 45.8518 57.3777 45.8518 57.5416Z"/><path d="M46.2041 55.5625 44.8959 55.5625 44.8959 54.6619C45.2745 54.4433 45.4042 53.9591 45.1856 53.5805 44.967 53.2018 44.4828 53.0721 44.1042 53.2907 43.7255 53.5093 43.5958 53.9935 43.8144 54.3722 43.8839 54.4925 43.9838 54.5924 44.1042 54.6619L44.1042 55.5625 42.796 55.5625C42.3166 55.5635 41.9282 55.9519 41.9271 56.4313L41.9271 58.6519C41.9282 59.1313 42.3166 59.5197 42.796 59.5208L46.2041 59.5208C46.6835 59.5197 47.0719 59.1313 47.0729 58.6519L47.0729 56.4313C47.0719 55.9519 46.6835 55.5635 46.2041 55.5625ZM43.5104 58.1354C43.1825 58.1354 42.9167 57.8696 42.9167 57.5416 42.9167 57.2137 43.1825 56.9479 43.5104 56.9479 43.8384 56.9479 44.1042 57.2137 44.1042 57.5416 44.1042 57.8696 43.8384 58.1354 43.5104 58.1354ZM45.4896 58.1354C45.1617 58.1354 44.8959 57.8696 44.8959 57.5416 44.8959 57.2137 45.1617 56.9479 45.4896 56.9479 45.8175 56.9479 46.0834 57.2137 46.0834 57.5416 46.0834 57.8696 45.8175 58.1354 45.4896 58.1354Z"/><path d="M43.8726 57.5416C43.8726 57.7056 43.7397 57.8385 43.5758 57.8385 43.4118 57.8385 43.2789 57.7056 43.2789 57.5416 43.2789 57.3777 43.4118 57.2448 43.5758 57.2448 43.7397 57.2448 43.8726 57.3777 43.8726 57.5416Z"/><path d="M49.6459 63.6414 49.6459 61.9928C49.6459 61.502 49.248 61.1041 48.7572 61.1041L47.6667 61.1041 47.6667 60.1146 41.3334 60.1146 41.3334 61.3021 39.847 61.3021C39.7934 61.3021 39.75 61.2586 39.75 61.2051L39.75 59.5643C40.4304 59.3634 40.819 58.649 40.6181 57.9687 40.5642 57.7863 40.4705 57.6181 40.3438 57.4763L39.75 58.0028C39.8331 58.0931 39.8802 58.2106 39.8826 58.3333 39.8811 58.6066 39.6584 58.8269 39.3851 58.8254 39.1119 58.8239 38.8916 58.6012 38.8931 58.3279 38.8937 58.2099 38.9365 58.096 39.0138 58.0067L38.42 57.4862C37.9535 58.0221 38.0098 58.8347 38.5458 59.3012 38.667 59.4067 38.8069 59.4886 38.9583 59.5426L38.9583 61.2051C38.9583 61.6959 39.3562 62.0937 39.847 62.0937L41.3334 62.0937 41.3334 65.6562 47.6667 65.6562 47.6667 61.8958 48.7572 61.8958C48.8108 61.8958 48.8542 61.9392 48.8542 61.9928L48.8542 63.6414C48.1782 63.8601 47.8075 64.5854 48.0262 65.2614 48.0809 65.4306 48.1701 65.5866 48.2882 65.7196L48.8819 65.1931C48.8 65.1033 48.7548 64.9861 48.7552 64.8646 48.7555 64.5913 48.9772 64.3699 49.2505 64.3702 49.5237 64.3704 49.7451 64.5921 49.7448 64.8654 49.7447 64.9853 49.7011 65.101 49.6221 65.1911L50.2159 65.7117C50.6842 65.1788 50.6318 64.3672 50.0989 63.8989 49.9671 63.783 49.8129 63.6954 49.6459 63.6414ZM46.875 62.8854 46.3248 62.8854C46.3057 62.8888 46.2875 62.8962 46.2714 62.9072L45.6658 63.5266 45.2046 62.4341 44.3437 64.2154 43.74 61.8958 43.2749 62.8854 42.3229 62.8854 42.3229 62.4896 43.0236 62.4896 43.8469 60.738 44.4565 63.0695 45.2303 61.4861 45.8003 62.8359 45.9983 62.638C46.0852 62.55 46.2014 62.4972 46.3248 62.4896L46.875 62.4896Z"/></g></g></g><path d="M26.9702 6.36947C18.5628 6.36947 11.7473 10.3112 11.7473 15.1736L11.7473 248.948C11.7473 253.81 18.5628 257.752 26.9702 257.752L238.08 257.752C246.487 257.752 253.302 253.81 253.302 248.948L253.302 15.1736C253.302 10.3112 246.487 6.36947 238.08 6.36947ZM0 0 265 0 265 265 0 265Z" fill="#A65462" fill-rule="evenodd"/><text font-family="Calibri,Calibri_MSFontService,sans-serif" font-weight="700" font-size="11" transform="translate(78.0537 63)">CONTEXT<tspan font-weight="400" font-size="9" x="-46.7633" y="40">The </tspan><tspan font-size="9" x="-30.5661" y="40">Context</tspan><tspan font-weight="400" font-size="9" x="1.99532" y="40">of a domain </tspan><tspan font-weight="400" font-size="9" x="-46.7633" y="51">represents its current state</tspan><tspan font-weight="400" font-size="9" x="57.0993" y="51">-</tspan><tspan font-weight="400" font-size="9" x="-46.7633" y="62">of</tspan><tspan font-weight="400" font-size="9" x="-38.9152" y="62">-</tspan><tspan font-weight="400" font-size="9" x="-36.0765" y="62">affairs; that state of all </tspan><tspan font-weight="400" font-size="9" x="-46.7633" y="73">resource instances in the </tspan><tspan font-weight="400" font-size="9" x="-46.7633" y="85">domain at a point in time. The </tspan><tspan font-size="9" x="-46.7633" y="96">Context</tspan><tspan font-weight="400" font-size="9" x="-14.2019" y="96">is captured when a </tspan><tspan font-weight="400" font-size="9" x="-46.7633" y="107">Process is created and placed </tspan><tspan font-weight="400" font-size="9" x="-46.7633" y="118">in the context of its </tspan><tspan font-weight="400" font-size="9" x="-46.7633" y="129">resources.</tspan></text><path d="M214.5 36.5001C214.5 35.9478 214.948 35.5001 215.5 35.5001L247.5 35.5001C248.052 35.5001 248.5 35.9478 248.5 36.5001L248.5 40.5C248.5 41.0523 248.052 41.5 247.5 41.5L215.5 41.5C214.948 41.5 214.5 41.0523 214.5 40.5Z" stroke="#5AA203" stroke-width="1.33585" stroke-miterlimit="8" fill="#FFFFFF" fill-rule="evenodd"/><text font-family="Calibri,Calibri_MSFontService,sans-serif" font-weight="700" font-size="5" transform="translate(225.272 39)">OUTCOME</text><g clip-path="url(#clip4)"><g clip-path="url(#clip5)"><g clip-path="url(#clip6)"><path d="M222.211 39.3721C222.048 39.2092 221.785 39.2092 221.622 39.3721 221.459 39.535 221.459 39.7983 221.622 39.9612L222.161 40.5 218.945 40.5 220.18 38.6483C220.274 38.5079 220.274 38.3267 220.18 38.1862L218.667 35.9167 222.161 35.9167 221.622 36.4554C221.459 36.6183 221.459 36.8817 221.622 37.0446 221.703 37.1258 221.81 37.1667 221.917 37.1667 222.023 37.1667 222.13 37.1258 222.211 37.0446L223.461 35.7946C223.624 35.6317 223.624 35.3683 223.461 35.2054L222.211 33.9554C222.048 33.7925 221.785 33.7925 221.622 33.9554 221.459 34.1183 221.459 34.3817 221.622 34.5446L222.161 35.0833 218.167 35.0833C218.15 35.0833 218.135 35.0917 218.118 35.0929L217.68 34.4354C217.525 34.2033 217.141 34.2033 216.987 34.4354L214.487 38.1854C214.393 38.3254 214.393 38.5075 214.487 38.6475L216.987 42.3975C217.064 42.5141 217.194 42.5833 217.333 42.5833 217.472 42.5833 217.602 42.5141 217.68 42.3979L218.39 41.3333 222.161 41.3333 221.622 41.8721C221.459 42.035 221.459 42.2983 221.622 42.4612 221.703 42.5425 221.81 42.5833 221.917 42.5833 222.023 42.5833 222.13 42.5425 222.211 42.4612L223.461 41.2112C223.624 41.0483 223.624 40.785 223.461 40.6221L222.211 39.3721ZM217.333 41.4154 215.334 38.4167 217.333 35.4183 219.332 38.4167 217.333 41.4154Z"/></g></g></g><path d="M219.5 72.5001C219.5 71.9478 219.948 71.5001 220.5 71.5001L247.5 71.5001C248.052 71.5001 248.5 71.9478 248.5 72.5001L248.5 76.5C248.5 77.0523 248.052 77.5 247.5 77.5L220.5 77.5C219.948 77.5 219.5 77.0523 219.5 76.5Z" stroke="#5AA203" stroke-width="1.33585" stroke-miterlimit="8" fill="#FFFFFF" fill-rule="evenodd"/><text font-family="Calibri,Calibri_MSFontService,sans-serif" font-weight="700" font-size="5" transform="translate(231.129 75)">RESULT</text><g clip-path="url(#clip7)"><g clip-path="url(#clip8)"><g clip-path="url(#clip9)"><path d="M6.74998 1.97774 4.90424 3.89511 4.90349 3.89511 4.90349 3.89511 3.74999 2.69699 4.21124 2.21737 4.90349 2.93662 6.28873 1.4985Z" transform="matrix(1.11112 0 -0 1 220 70.375)"/><path d="M6.74998 4.59899 4.90424 6.51673 4.90349 6.51636 4.90349 6.51673 3.74999 5.31898 4.21124 4.83824 4.90349 5.55748 6.28873 4.11974Z" transform="matrix(1.11112 0 -0 1 220 70.375)"/><path d="M7.87498 8.23985 2.62499 8.23985C2.41799 8.23985 2.24999 8.07223 2.24999 7.86485L2.24999 0.374999C2.24999 0.168 2.41799 0 2.62499 0L7.87498 0C8.08235 0 8.24998 0.168 8.24998 0.374999L8.24998 7.86485C8.24998 8.07185 8.08235 8.23985 7.87498 8.23985ZM2.99999 7.48985 7.49998 7.48985 7.49998 0.749998 2.99999 0.749998 2.99999 7.48985Z" transform="matrix(1.11112 0 -0 1 220 70.375)"/><path d="M1.5 8.24998C1.293 8.24998 1.125 8.08235 1.125 7.87498L1.125 0.374999C1.125 0.168 1.293 0 1.5 0 1.707 0 1.87499 0.168 1.87499 0.374999L1.87499 7.87498C1.87499 8.08235 1.707 8.24998 1.5 8.24998Z" transform="matrix(1.11112 0 -0 1 220 70.375)"/></g></g></g><path d="M224.5 108.667C224.5 108.022 225.022 107.5 225.667 107.5L247.333 107.5C247.978 107.5 248.5 108.022 248.5 108.667L248.5 113.333C248.5 113.978 247.978 114.5 247.333 114.5L225.667 114.5C225.022 114.5 224.5 113.978 224.5 113.333Z" stroke="#CEB023" stroke-width="1.33585" stroke-miterlimit="8" fill="#FFFFFF" fill-rule="evenodd"/><text font-family="Calibri,Calibri_MSFontService,sans-serif" font-weight="700" font-size="5" transform="translate(235.598 112)">ROLE</text><g clip-path="url(#clip10)"><g clip-path="url(#clip11)"><g clip-path="url(#clip12)"><path d="M4.49999 3.74999C3.87974 3.74999 3.37499 4.25474 3.37499 4.87499 3.37499 5.49523 3.87974 5.99998 4.49999 5.99998 5.12023 5.99998 5.62498 5.49523 5.62498 4.87499 5.62498 4.25474 5.12023 3.74999 4.49999 3.74999ZM4.49999 5.24998C4.29299 5.24998 4.12499 5.08198 4.12499 4.87499 4.12499 4.66836 4.29299 4.49999 4.49999 4.49999 4.70699 4.49999 4.87499 4.66836 4.87499 4.87499 4.87499 5.08198 4.70699 5.24998 4.49999 5.24998Z" transform="matrix(1.00001 0 -0 1 225 106)"/><path d="M7.87498 1.87499 5.62498 1.87499 5.62498 1.125C5.62498 0.917997 5.45736 0.749998 5.24998 0.749998L3.74999 0.749998C3.54299 0.749998 3.37499 0.917997 3.37499 1.125L3.37499 1.87499 1.125 1.87499C0.917997 1.87499 0.749998 2.04299 0.749998 2.24999L0.749998 8.24998C0.749998 8.45735 0.917997 8.62497 1.125 8.62497L7.87498 8.62497C8.08235 8.62497 8.24998 8.45735 8.24998 8.24998L8.24998 2.24999C8.24998 2.04299 8.08235 1.87499 7.87498 1.87499ZM4.12499 1.5 4.87499 1.5 4.87499 2.62499 4.12499 2.62499 4.12499 1.5ZM5.62498 7.87498 3.37499 7.87498 3.37499 7.49998C3.37499 7.2896 3.53924 7.12498 3.74924 7.12498L5.25073 7.12498C5.46073 7.12498 5.62498 7.2896 5.62498 7.49998L5.62498 7.87498ZM7.49998 7.87498 6.37498 7.87498 6.37498 7.49998C6.37498 6.87973 5.87023 6.37498 5.25073 6.37498L3.74924 6.37498C3.12937 6.37498 2.62499 6.87973 2.62499 7.49998L2.62499 7.87498 1.5 7.87498 1.5 2.62499 3.37499 2.62499 3.37499 2.99999C3.37499 3.20699 3.54299 3.37499 3.74999 3.37499L5.24998 3.37499C5.45736 3.37499 5.62498 3.20699 5.62498 2.99999L5.62498 2.62499 7.49998 2.62499 7.49998 7.87498Z" transform="matrix(1.00001 0 -0 1 225 106)"/></g></g></g><path d="M217.5 145.5C217.5 144.948 217.948 144.5 218.5 144.5L247.5 144.5C248.052 144.5 248.5 144.948 248.5 145.5L248.5 149.5C248.5 150.052 248.052 150.5 247.5 150.5L218.5 150.5C217.948 150.5 217.5 150.052 217.5 149.5Z" stroke="#377692" stroke-width="1.33585" stroke-miterlimit="8" fill="#FFFFFF" fill-rule="evenodd"/><text font-family="Calibri,Calibri_MSFontService,sans-serif" font-weight="700" font-size="5" transform="translate(228.336 148)">PROCESS</text><g clip-path="url(#clip13)"><g clip-path="url(#clip14)"><g clip-path="url(#clip15)"><path d="M225.75 145.75 225.007 145.75 225.007 143.678C225.007 143.448 224.821 143.262 224.59 143.262L221.19 143.262C221.182 143.262 221.175 143.266 221.167 143.266L221.167 142.833C221.167 142.603 220.98 142.417 220.75 142.417L218.25 142.417C218.02 142.417 217.833 142.603 217.833 142.833L217.833 144.5C217.833 144.73 218.02 144.917 218.25 144.917L220.75 144.917C220.98 144.917 221.167 144.73 221.167 144.5L221.167 144.09C221.175 144.091 221.182 144.095 221.19 144.095L224.173 144.095 224.173 145.75 223.25 145.75C223.02 145.75 222.833 145.937 222.833 146.167L222.833 146.583 219.917 146.583C219.687 146.583 219.5 146.77 219.5 147L219.5 149.083 218.667 149.083C218.437 149.083 218.25 149.27 218.25 149.5L218.25 151.167C218.25 151.397 218.437 151.583 218.667 151.583L221.167 151.583C221.397 151.583 221.583 151.397 221.583 151.167L221.583 150.75 224.5 150.75C224.73 150.75 224.917 150.564 224.917 150.333L224.917 148.25 225.75 148.25C225.98 148.25 226.167 148.064 226.167 147.833L226.167 146.167C226.167 145.937 225.98 145.75 225.75 145.75ZM220.333 144.083 218.667 144.083 218.667 143.25 220.333 143.25 220.333 144.083ZM220.75 150.75 219.083 150.75 219.083 149.917 220.75 149.917 220.75 150.75ZM224.083 149.917 221.583 149.917 221.583 149.5C221.583 149.27 221.397 149.083 221.167 149.083L220.333 149.083 220.333 147.417 222.833 147.417 222.833 147.833C222.833 148.064 223.02 148.25 223.25 148.25L224.083 148.25 224.083 149.917ZM225.333 147.417 223.667 147.417 223.667 146.583 225.333 146.583 225.333 147.417Z"/></g></g></g><path d="M224.5 181.5C224.5 180.948 224.948 180.5 225.5 180.5L247.5 180.5C248.052 180.5 248.5 180.948 248.5 181.5L248.5 185.5C248.5 186.052 248.052 186.5 247.5 186.5L225.5 186.5C224.948 186.5 224.5 186.052 224.5 185.5Z" stroke="#377692" stroke-width="1.33585" stroke-miterlimit="8" fill="#FFFFFF" fill-rule="evenodd"/><text font-family="Calibri,Calibri_MSFontService,sans-serif" font-weight="700" font-size="5" transform="translate(235.942 184)">TASK</text><g clip-path="url(#clip16)"><g clip-path="url(#clip17)"><g clip-path="url(#clip18)"><path d="M4.51915 6.16665 3.55749 5.16665 2.91666 5.83332 4.51915 7.49998 4.51915 7.49956 4.51999 7.49998 7.08331 4.83332 6.44248 4.16665Z" transform="matrix(1.00001 0 -0 1 225 178)"/><path d="M8.33331 1.25 7.08331 1.25 7.08331 0.833331C7.08331 0.603332 6.89706 0.416665 6.66665 0.416665L3.33332 0.416665C3.10332 0.416665 2.91666 0.603332 2.91666 0.833331L2.91666 1.25 1.66666 1.25C1.43666 1.25 1.25 1.43666 1.25 1.66666L1.25 9.16664C1.25 9.39706 1.43666 9.58331 1.66666 9.58331L8.33331 9.58331C8.56372 9.58331 8.74997 9.39706 8.74997 9.16664L8.74997 1.66666C8.74997 1.43666 8.56372 1.25 8.33331 1.25ZM3.74999 1.25 6.24998 1.25 6.24998 2.08333 3.74999 2.08333 3.74999 1.25ZM7.91664 8.74997 2.08333 8.74997 2.08333 2.08333 2.91666 2.08333 2.91666 2.49999C2.91666 2.72999 3.10332 2.91666 3.33332 2.91666L6.66665 2.91666C6.89706 2.91666 7.08331 2.72999 7.08331 2.49999L7.08331 2.08333 7.91664 2.08333 7.91664 8.74997Z" transform="matrix(1.00001 0 -0 1 225 178)"/></g></g></g><path d="M212.5 217.5C212.5 216.948 212.948 216.5 213.5 216.5L247.5 216.5C248.052 216.5 248.5 216.948 248.5 217.5L248.5 221.5C248.5 222.052 248.052 222.5 247.5 222.5L213.5 222.5C212.948 222.5 212.5 222.052 212.5 221.5Z" stroke="#911EB4" stroke-width="1.33585" stroke-miterlimit="8" fill="#FFFFFF" fill-rule="evenodd"/><text font-family="Calibri,Calibri_MSFontService,sans-serif" font-weight="700" font-size="5" transform="translate(223.229 220)">CAPABILITY</text><g clip-path="url(#clip19)"><g clip-path="url(#clip20)"><g clip-path="url(#clip21)"><path d="M7.87498 3.74999 1.125 3.74999C0.917997 3.74999 0.749998 3.91799 0.749998 4.12499L0.749998 5.62498C0.749998 5.83236 0.917997 5.99998 1.125 5.99998L1.5 5.99998 1.5 8.24998C1.5 8.45735 1.668 8.62497 1.87499 8.62497L7.12498 8.62497C7.33235 8.62497 7.49998 8.45735 7.49998 8.24998L7.49998 5.99998 7.87498 5.99998C8.08235 5.99998 8.24998 5.83236 8.24998 5.62498L8.24998 4.12499C8.24998 3.91799 8.08235 3.74999 7.87498 3.74999ZM6.74998 7.87498 2.24999 7.87498 2.24999 5.99998 6.74998 5.99998 6.74998 7.87498ZM7.49998 5.24998 7.12498 5.24998 1.87499 5.24998 1.5 5.24998 1.5 4.49999 7.49998 4.49999 7.49998 5.24998Z" transform="matrix(1.11111 0 -0 1 212 215)"/><path d="M1.87499 2.99999 3.74999 2.99999C3.95736 2.99999 4.12499 2.83199 4.12499 2.62499L4.12499 0.749998C4.12499 0.542998 3.95736 0.374999 3.74999 0.374999L1.87499 0.374999C1.668 0.374999 1.5 0.542998 1.5 0.749998L1.5 2.62499C1.5 2.83199 1.668 2.99999 1.87499 2.99999ZM2.24999 1.125 3.37499 1.125 3.37499 2.24999 2.24999 2.24999 2.24999 1.125Z" transform="matrix(1.11111 0 -0 1 212 215)"/><path d="M6.18748 2.99999C6.91273 2.99999 7.49998 2.41237 7.49998 1.68749 7.49998 0.962622 6.91273 0.374999 6.18748 0.374999 5.46223 0.374999 4.87499 0.962622 4.87499 1.68749 4.87499 2.41237 5.46223 2.99999 6.18748 2.99999ZM6.18748 1.125C6.49798 1.125 6.74998 1.37662 6.74998 1.68749 6.74998 1.99837 6.49798 2.24999 6.18748 2.24999 5.87698 2.24999 5.62498 1.99837 5.62498 1.68749 5.62498 1.37662 5.87698 1.125 6.18748 1.125Z" transform="matrix(1.11111 0 -0 1 212 215)"/></g></g></g><path d="M167.618 180 212.382 180C218.246 180 223 182.91 223 186.5 223 190.09 218.246 193 212.382 193L167.618 193C161.754 193 157 190.09 157 186.5 157 182.91 161.754 180 167.618 180Z" fill="#313131" fill-rule="evenodd"/><text fill="#FFFFFF" font-family="Calibri,Calibri_MSFontService,sans-serif" font-weight="700" font-size="5" transform="translate(175.421 188)">&lt;Enabled by|</text><path d="M165.527 216 201.473 216C206.183 216 210 218.91 210 222.5 210 226.09 206.183 229 201.473 229L165.527 229C160.817 229 157 226.09 157 222.5 157 218.91 160.817 216 165.527 216Z" fill="#313131" fill-rule="evenodd"/><text fill="#FFFFFF" font-family="Calibri,Calibri_MSFontService,sans-serif" font-weight="700" font-size="5" transform="translate(173.751 224)">|Enacts&gt;</text><path d="M165.848 35 203.152 35C208.038 35 212 37.9101 212 41.5 212 45.0898 208.038 48 203.152 48L165.848 48C160.962 48 157 45.0898 157 41.5 157 37.9101 160.962 35 165.848 35Z" fill="#313131" fill-rule="evenodd"/><text fill="#FFFFFF" font-family="Calibri,Calibri_MSFontService,sans-serif" font-weight="700" font-size="5" transform="translate(166.32 43)">|Established by&gt;</text><path d="M166.814 71 208.186 71C213.606 71 218 73.9101 218 77.5 218 81.0898 213.606 84 208.186 84L166.814 84C161.394 84 157 81.0898 157 77.5 157 73.9101 161.394 71 166.814 71Z" fill="#313131" fill-rule="evenodd"/><text fill="#FFFFFF" font-family="Calibri,Calibri_MSFontService,sans-serif" font-weight="700" font-size="5" transform="translate(168.992 80)">|Established by&gt;</text><path d="M166.331 144 205.669 144C210.822 144 215 146.91 215 150.5 215 154.09 210.822 157 205.669 157L166.331 157C161.178 157 157 154.09 157 150.5 157 146.91 161.178 144 166.331 144Z" fill="#313131" fill-rule="evenodd"/><text fill="#FFFFFF" font-family="Calibri,Calibri_MSFontService,sans-serif" font-weight="700" font-size="5" transform="translate(171.163 152)">&lt;Executes in|</text><path d="M167.618 107 212.382 107C218.246 107 223 110.134 223 114 223 117.866 218.246 121 212.382 121L167.618 121C161.754 121 157 117.866 157 114 157 110.134 161.754 107 167.618 107Z" fill="#313131" fill-rule="evenodd"/><text fill="#FFFFFF" font-family="Calibri,Calibri_MSFontService,sans-serif" font-weight="700" font-size="5" transform="translate(174.252 116)">|Responsible&gt;</text></g></svg>