<svg width="265" height="265" xmlns="http://www.w3.org/2000/svg" xmlns:xlink="http://www.w3.org/1999/xlink" overflow="hidden"><defs><clipPath id="clip0"><path d="M0 0 265 0 265 265 0 265Z" fill-rule="evenodd" clip-rule="evenodd"/></clipPath><clipPath id="clip1"><path d="M35 51 55 51 55 71 35 71Z" fill-rule="evenodd" clip-rule="evenodd"/></clipPath><clipPath id="clip2"><path d="M35 51 55 51 55 71 35 71Z" fill-rule="evenodd" clip-rule="evenodd"/></clipPath><clipPath id="clip3"><path d="M35 51 55 51 55 71 35 71Z" fill-rule="evenodd" clip-rule="evenodd"/></clipPath><clipPath id="clip4"><path d="M213 33 223 33 223 43 213 43Z" fill-rule="evenodd" clip-rule="evenodd"/></clipPath><clipPath id="clip5"><path d="M213 33 223 33 223 43 213 43Z" fill-rule="evenodd" clip-rule="evenodd"/></clipPath><clipPath id="clip6"><path d="M213 33 223 33 223 43 213 43Z" fill-rule="evenodd" clip-rule="evenodd"/></clipPath><clipPath id="clip7"><path d="M224 70 235 70 235 79 224 79Z" fill-rule="evenodd" clip-rule="evenodd"/></clipPath><clipPath id="clip8"><path d="M224 70 235 70 235 79 224 79Z" fill-rule="evenodd" clip-rule="evenodd"/></clipPath><clipPath id="clip9"><path d="M224 70 235 70 235 79 224 79Z" fill-rule="evenodd" clip-rule="evenodd"/></clipPath><clipPath id="clip10"><path d="M214 106 224 106 224 115 214 115Z" fill-rule="evenodd" clip-rule="evenodd"/></clipPath><clipPath id="clip11"><path d="M214 106 224 106 224 115 214 115Z" fill-rule="evenodd" clip-rule="evenodd"/></clipPath><clipPath id="clip12"><path d="M214 106 224 106 224 115 214 115Z" fill-rule="evenodd" clip-rule="evenodd"/></clipPath><clipPath id="clip13"><path d="M213 141 224 141 224 152 213 152Z" fill-rule="evenodd" clip-rule="evenodd"/></clipPath><clipPath id="clip14"><path d="M213 141 224 141 224 152 213 152Z" fill-rule="evenodd" clip-rule="evenodd"/></clipPath><clipPath id="clip15"><path d="M213 141 224 141 224 152 213 152Z" fill-rule="evenodd" clip-rule="evenodd"/></clipPath><clipPath id="clip16"><path d="M217 177 227 177 227 188 217 188Z" fill-rule="evenodd" clip-rule="evenodd"/></clipPath><clipPath id="clip17"><path d="M217 177 227 177 227 188 217 188Z" fill-rule="evenodd" clip-rule="evenodd"/></clipPath><clipPath id="clip18"><path d="M217 177 227 177 227 188 217 188Z" fill-rule="evenodd" clip-rule="evenodd"/></clipPath><clipPath id="clip19"><path d="M216 215 227 215 227 226 216 226Z" fill-rule="evenodd" clip-rule="evenodd"/></clipPath><clipPath id="clip20"><path d="M216 215 227 215 227 226 216 226Z" fill-rule="evenodd" clip-rule="evenodd"/></clipPath><clipPath id="clip21"><path d="M216 215 227 215 227 226 216 226Z" fill-rule="evenodd" clip-rule="evenodd"/></clipPath></defs><g clip-path="url(#clip0)"><rect x="0" y="0" width="265" height="265" fill="#313131"/><rect x="89.5" y="131.5" width="1.99999" height="1" stroke="#2F528F" stroke-width="1.33585" stroke-miterlimit="8" fill="#4472C4"/><path d="M23.5 9.75271C23.5 8.50859 24.5085 7.50003 25.7527 7.50003L249.247 7.50003C250.491 7.50003 251.5 8.50859 251.5 9.75271L251.5 249.247C251.5 250.491 250.491 251.5 249.247 251.5L25.7527 251.5C24.5085 251.5 23.5 250.491 23.5 249.247Z" stroke="#FF0000" stroke-width="0.667927" stroke-miterlimit="8" stroke-opacity="0" fill="none" fill-rule="evenodd"/><path d="M30.0794 43.5 149.921 43.5C153.002 43.5 155.5 45.998 155.5 49.0794L155.5 214.252C155.5 216.598 153.598 218.5 151.252 218.5L28.7483 218.5C26.402 218.5 24.5 216.598 24.5 214.252L24.5 49.0794C24.5 45.998 26.998 43.5 30.0794 43.5Z" stroke="#B74D41" stroke-width="4.67549" stroke-miterlimit="8" fill="#FFFFFF" fill-rule="evenodd"/><g clip-path="url(#clip1)"><g clip-path="url(#clip2)"><g clip-path="url(#clip3)"><path d="M44.5 62.2916C42.7584 62.2916 41.3333 60.8666 41.3333 59.125 41.3333 57.3833 42.7584 55.9583 44.5 55.9583 46.2417 55.9583 47.6667 57.3833 47.6667 59.125 47.6667 60.8666 46.2417 62.2916 44.5 62.2916ZM44.5 57.5416C43.6292 57.5416 42.9167 58.2541 42.9167 59.125 42.9167 59.9958 43.6292 60.7083 44.5 60.7083 45.3709 60.7083 46.0834 59.9958 46.0834 59.125 46.0834 58.2541 45.3709 57.5416 44.5 57.5416Z"/><path d="M51.2292 58.3333C49.725 58.3333 48.4584 57.0666 48.4584 55.5625 48.4584 54.0583 49.725 52.7916 51.2292 52.7916 52.7334 52.7916 54 54.0583 54 55.5625 54 57.0666 52.7334 58.3333 51.2292 58.3333ZM51.2292 54.375C50.5959 54.375 50.0417 54.9291 50.0417 55.5625 50.0417 56.1958 50.5959 56.75 51.2292 56.75 51.8625 56.75 52.4167 56.1958 52.4167 55.5625 52.4167 54.9291 51.8625 54.375 51.2292 54.375Z"/><path d="M53.2084 61.5 49.25 61.5C48.775 61.5 48.4584 61.1833 48.4584 60.7083 48.4584 60.2333 48.775 59.9166 49.25 59.9166L53.2084 59.9166C53.6834 59.9166 54 60.2333 54 60.7083 54 61.1833 53.6834 61.5 53.2084 61.5Z"/><path d="M37.7708 58.3333C36.2667 58.3333 35 57.0666 35 55.5625 35 54.0583 36.2667 52.7916 37.7708 52.7916 39.275 52.7916 40.5417 54.0583 40.5417 55.5625 40.5417 57.0666 39.275 58.3333 37.7708 58.3333ZM37.7708 54.375C37.1375 54.375 36.5833 54.9291 36.5833 55.5625 36.5833 56.1958 37.1375 56.75 37.7708 56.75 38.4042 56.75 38.9583 56.1958 38.9583 55.5625 38.9583 54.9291 38.4042 54.375 37.7708 54.375Z"/><path d="M39.75 61.5 35.7917 61.5C35.3167 61.5 35 61.1833 35 60.7083 35 60.2333 35.3167 59.9166 35.7917 59.9166L39.75 59.9166C40.225 59.9166 40.5417 60.2333 40.5417 60.7083 40.5417 61.1833 40.225 61.5 39.75 61.5Z"/><path d="M49.3292 70.2083C48.9334 70.2083 48.5375 69.8917 48.5375 69.4167L48.5375 67.0417C48.5375 66.1708 47.825 65.4583 46.875 65.4583L42.2042 65.4583C41.2542 65.4583 40.5417 66.1708 40.5417 67.0417L40.5417 69.4167C40.5417 69.8125 40.225 70.2083 39.75 70.2083 39.275 70.2083 38.9583 69.8917 38.9583 69.4167L38.9583 67.0417C38.9583 65.3 40.3833 63.875 42.2042 63.875L46.875 63.875C48.6959 63.875 50.1209 65.3 50.1209 67.0417L50.1209 69.4167C50.1209 69.8125 49.725 70.2083 49.3292 70.2083Z"/></g></g></g><path d="M26.9702 6.36947C18.5628 6.36947 11.7473 10.3112 11.7473 15.1736L11.7473 248.948C11.7473 253.81 18.5628 257.752 26.9702 257.752L238.08 257.752C246.487 257.752 253.302 253.81 253.302 248.948L253.302 15.1736C253.302 10.3112 246.487 6.36947 238.08 6.36947ZM0 0 265 0 265 265 0 265Z" fill="#B74D41" fill-rule="evenodd"/><text font-family="Calibri,Calibri_MSFontService,sans-serif" font-weight="700" font-size="11" transform="translate(63.9437 63)">TEAM MEMBER<tspan font-weight="400" font-size="9" x="-32.6534" y="51">All levels of </tspan><tspan font-size="9" x="12.9326" y="51">Initiatives</tspan><tspan font-weight="400" font-size="9" x="53.3422" y="51">down </tspan><tspan font-weight="400" font-size="9" x="-32.6534" y="62">to </tspan><tspan font-size="9" x="-22.3006" y="62">Project task</tspan><tspan font-weight="400" font-size="9" x="25.4562" y="62">can be </tspan><tspan font-weight="400" font-size="9" x="-32.6534" y="73">assigned </tspan><tspan font-size="9" x="2.24576" y="73">Team members</tspan><tspan font-weight="400" font-size="9" x="65.0309" y="73">that </tspan><tspan font-weight="400" font-size="9" x="-32.6534" y="84">are identified by their identity </tspan><tspan font-weight="400" font-size="9" x="-32.6534" y="96">as </tspan><tspan font-size="9" x="-22.3006" y="96">Employee</tspan><tspan font-weight="400" font-size="9" x="18.276" y="96">and the </tspan><tspan font-size="9" x="49.5016" y="96">Role</tspan><tspan font-weight="400" font-size="9" x="-32.6534" y="107">that they hold within the </tspan><tspan font-weight="400" font-size="9" x="-32.6534" y="118">team.</tspan></text><path d="M213.5 36.5001C213.5 35.9478 213.948 35.5001 214.5 35.5001L247.5 35.5001C248.052 35.5001 248.5 35.9478 248.5 36.5001L248.5 40.5C248.5 41.0523 248.052 41.5 247.5 41.5L214.5 41.5C213.948 41.5 213.5 41.0523 213.5 40.5Z" stroke="#B74D41" stroke-width="1.33585" stroke-miterlimit="8" fill="#FFFFFF" fill-rule="evenodd"/><text font-family="Calibri,Calibri_MSFontService,sans-serif" font-weight="700" font-size="5" transform="translate(224.591 39)">EMPLOYEE</text><g clip-path="url(#clip4)"><g clip-path="url(#clip5)"><g clip-path="url(#clip6)"><path d="M4.12499 3.56249C3.09112 3.56249 2.24999 2.72137 2.24999 1.68749 2.24999 0.653623 3.09112-0.187499 4.12499-0.187499 5.15886-0.187499 5.99998 0.653623 5.99998 1.68749 5.99998 2.72137 5.15886 3.56249 4.12499 3.56249ZM4.12499 0.562498C3.50474 0.562498 2.99999 1.06725 2.99999 1.68749 2.99999 2.30774 3.50474 2.81249 4.12499 2.81249 4.74524 2.81249 5.24998 2.30774 5.24998 1.68749 5.24998 1.06725 4.74524 0.562498 4.12499 0.562498Z" transform="matrix(1 0 -0 1.11111 214.375 33.625)"/><path d="M7.49998 8.43748C7.2926 8.43748 7.12498 8.26985 7.12498 8.06248L7.12498 6.37498C7.12498 5.65123 6.53698 5.06249 5.81398 5.06249L2.43599 5.06249C1.71299 5.06249 1.125 5.65123 1.125 6.37498L1.125 8.06248C1.125 8.26985 0.956997 8.43748 0.749998 8.43748 0.542998 8.43748 0.374999 8.26985 0.374999 8.06248L0.374999 6.37498C0.374999 5.23798 1.29937 4.31249 2.43599 4.31249L5.81398 4.31249C6.95023 4.31249 7.87498 5.23798 7.87498 6.37498L7.87498 8.06248C7.87498 8.26985 7.70735 8.43748 7.49998 8.43748Z" transform="matrix(1 0 -0 1.11111 214.375 33.625)"/><path d="M5.99998 8.43748 3.74999 8.43748C3.54299 8.43748 3.37499 8.26985 3.37499 8.06248L3.37499 6.56248C3.37499 6.35511 3.54299 6.18748 3.74999 6.18748L5.99998 6.18748C6.20736 6.18748 6.37498 6.35511 6.37498 6.56248L6.37498 8.06248C6.37498 8.26985 6.20736 8.43748 5.99998 8.43748ZM4.12499 7.68748 5.62498 7.68748 5.62498 6.93748 4.12499 6.93748 4.12499 7.68748Z" transform="matrix(1 0 -0 1.11111 214.375 33.625)"/><path d="M4.87499 6.93748C4.66761 6.93748 4.49999 6.76986 4.49999 6.56248L4.49999 5.81248C4.49999 5.60511 4.66761 5.43748 4.87499 5.43748 5.08236 5.43748 5.24998 5.60511 5.24998 5.81248L5.24998 6.56248C5.24998 6.76986 5.08236 6.93748 4.87499 6.93748Z" transform="matrix(1 0 -0 1.11111 214.375 33.625)"/></g></g></g><path d="M224.5 72.5001C224.5 71.9478 224.948 71.5001 225.5 71.5001L247.5 71.5001C248.052 71.5001 248.5 71.9478 248.5 72.5001L248.5 76.5C248.5 77.0523 248.052 77.5 247.5 77.5L225.5 77.5C224.948 77.5 224.5 77.0523 224.5 76.5Z" stroke="#CEB023" stroke-width="1.33585" stroke-miterlimit="8" fill="#FFFFFF" fill-rule="evenodd"/><text font-family="Calibri,Calibri_MSFontService,sans-serif" font-weight="700" font-size="5" transform="translate(235.598 75)">ROLE</text><g clip-path="url(#clip7)"><g clip-path="url(#clip8)"><g clip-path="url(#clip9)"><path d="M4.49999 3.74999C3.87974 3.74999 3.37499 4.25474 3.37499 4.87499 3.37499 5.49523 3.87974 5.99998 4.49999 5.99998 5.12023 5.99998 5.62498 5.49523 5.62498 4.87499 5.62498 4.25474 5.12023 3.74999 4.49999 3.74999ZM4.49999 5.24998C4.29299 5.24998 4.12499 5.08198 4.12499 4.87499 4.12499 4.66836 4.29299 4.49999 4.49999 4.49999 4.70699 4.49999 4.87499 4.66836 4.87499 4.87499 4.87499 5.08198 4.70699 5.24998 4.49999 5.24998Z" transform="matrix(1.00001 0 -0 1 225 70)"/><path d="M7.87498 1.87499 5.62498 1.87499 5.62498 1.125C5.62498 0.917997 5.45736 0.749998 5.24998 0.749998L3.74999 0.749998C3.54299 0.749998 3.37499 0.917997 3.37499 1.125L3.37499 1.87499 1.125 1.87499C0.917997 1.87499 0.749998 2.04299 0.749998 2.24999L0.749998 8.24998C0.749998 8.45735 0.917997 8.62497 1.125 8.62497L7.87498 8.62497C8.08235 8.62497 8.24998 8.45735 8.24998 8.24998L8.24998 2.24999C8.24998 2.04299 8.08235 1.87499 7.87498 1.87499ZM4.12499 1.5 4.87499 1.5 4.87499 2.62499 4.12499 2.62499 4.12499 1.5ZM5.62498 7.87498 3.37499 7.87498 3.37499 7.49998C3.37499 7.2896 3.53924 7.12498 3.74924 7.12498L5.25073 7.12498C5.46073 7.12498 5.62498 7.2896 5.62498 7.49998L5.62498 7.87498ZM7.49998 7.87498 6.37498 7.87498 6.37498 7.49998C6.37498 6.87973 5.87023 6.37498 5.25073 6.37498L3.74924 6.37498C3.12937 6.37498 2.62499 6.87973 2.62499 7.49998L2.62499 7.87498 1.5 7.87498 1.5 2.62499 3.37499 2.62499 3.37499 2.99999C3.37499 3.20699 3.54299 3.37499 3.74999 3.37499L5.24998 3.37499C5.45736 3.37499 5.62498 3.20699 5.62498 2.99999L5.62498 2.62499 7.49998 2.62499 7.49998 7.87498Z" transform="matrix(1.00001 0 -0 1 225 70)"/></g></g></g><path d="M214.5 108.667C214.5 108.022 215.022 107.5 215.667 107.5L247.333 107.5C247.978 107.5 248.5 108.022 248.5 108.667L248.5 113.333C248.5 113.978 247.978 114.5 247.333 114.5L215.667 114.5C215.022 114.5 214.5 113.978 214.5 113.333Z" stroke="#46F0F0" stroke-width="1.33585" stroke-miterlimit="8" fill="#FFFFFF" fill-rule="evenodd"/><text font-family="Calibri,Calibri_MSFontService,sans-serif" font-weight="700" font-size="5" transform="translate(225.442 112)">INITIATIVE</text><g clip-path="url(#clip10)"><g clip-path="url(#clip11)"><g clip-path="url(#clip12)"><path d="M218.75 110.774C219.577 110.774 220.25 110.118 220.25 109.311 220.25 108.504 219.577 107.848 218.75 107.848 217.923 107.848 217.25 108.504 217.25 109.311 217.25 110.118 217.923 110.774 218.75 110.774ZM218.75 108.58C219.164 108.58 219.5 108.908 219.5 109.312 219.5 109.715 219.164 110.044 218.75 110.044 218.336 110.044 218 109.715 218 109.312 218 108.908 218.336 108.58 218.75 108.58Z"/><path d="M222.5 106.75C222.293 106.75 222.125 106.914 222.125 107.116L222.125 109.542 222.125 109.677 222.125 109.71C222.125 110.707 221.295 111.517 220.274 111.517L218.726 111.517C217.292 111.518 216.125 112.579 216.125 113.884 216.125 114.086 216.293 114.25 216.5 114.25 216.707 114.25 216.875 114.086 216.875 113.884 216.875 112.983 217.705 112.249 218.726 112.249L220.274 112.249C221.708 112.249 222.875 111.11 222.875 109.71L222.875 109.677 222.875 109.542 222.875 107.116C222.875 106.914 222.707 106.75 222.5 106.75Z"/><path d="M221 112.604C220.793 112.604 220.625 112.768 220.625 112.971L220.625 113.702C220.625 113.905 220.793 114.068 221 114.068 221.207 114.068 221.375 113.905 221.375 113.702L221.375 112.971C221.375 112.768 221.207 112.604 221 112.604Z"/></g></g></g><path d="M213.5 145.5C213.5 144.948 213.948 144.5 214.5 144.5L247.5 144.5C248.052 144.5 248.5 144.948 248.5 145.5L248.5 149.5C248.5 150.052 248.052 150.5 247.5 150.5L214.5 150.5C213.948 150.5 213.5 150.052 213.5 149.5Z" stroke="#46F0F0" stroke-width="1.33585" stroke-miterlimit="8" fill="#FFFFFF" fill-rule="evenodd"/><text font-family="Calibri,Calibri_MSFontService,sans-serif" font-weight="700" font-size="5" transform="translate(224.931 148)">PROGRAM</text><g clip-path="url(#clip13)"><g clip-path="url(#clip14)"><g clip-path="url(#clip15)"><path d="M222.75 151.167 215.25 151.167C215.02 151.167 214.833 150.98 214.833 150.75L214.833 143.25C214.833 143.02 215.02 142.833 215.25 142.833L217.333 142.833C217.563 142.833 217.75 143.02 217.75 143.25 217.75 143.48 217.563 143.667 217.333 143.667L215.667 143.667 215.667 150.333 222.333 150.333 222.333 148.667C222.333 148.436 222.52 148.25 222.75 148.25 222.98 148.25 223.167 148.436 223.167 148.667L223.167 150.75C223.167 150.98 222.98 151.167 222.75 151.167Z"/><path d="M221.083 147.862C220.972 147.862 220.866 147.818 220.787 147.739L220.216 147.163 219.531 147.163C219.301 147.163 219.115 146.976 219.115 146.746L219.115 146.055 218.704 145.641C218.543 145.479 218.543 145.217 218.704 145.054L219.115 144.641 219.115 143.78C219.115 143.55 219.301 143.363 219.531 143.363L220.383 143.363 220.787 142.956C220.866 142.878 220.972 142.833 221.083 142.833L221.083 142.833C221.195 142.833 221.3 142.878 221.379 142.957L221.783 143.363 222.478 143.363C222.709 143.363 222.895 143.55 222.895 143.78L222.895 144.483 223.462 145.055C223.624 145.217 223.624 145.48 223.462 145.642L222.895 146.213 222.895 146.747C222.895 146.977 222.709 147.164 222.478 147.164L221.951 147.164 221.379 147.74C221.3 147.818 221.195 147.862 221.083 147.862ZM219.948 146.33 220.389 146.33C220.501 146.33 220.606 146.374 220.685 146.453L221.083 146.855 221.482 146.453C221.56 146.374 221.666 146.33 221.777 146.33L222.062 146.33 222.062 146.041C222.062 145.931 222.105 145.825 222.183 145.747L222.58 145.348 222.183 144.948C222.105 144.87 222.062 144.765 222.062 144.655L222.062 144.197 221.609 144.197C221.498 144.197 221.392 144.152 221.313 144.073L221.083 143.842 220.853 144.074C220.775 144.152 220.668 144.197 220.557 144.197L219.948 144.197 219.948 144.813C219.948 144.923 219.905 145.028 219.827 145.106L219.587 145.348 219.827 145.59C219.905 145.668 219.948 145.774 219.948 145.884L219.948 146.33Z"/><path d="M217.75 146.167 216.917 146.167C216.687 146.167 216.5 145.98 216.5 145.75 216.5 145.52 216.687 145.333 216.917 145.333L217.75 145.333C217.98 145.333 218.167 145.52 218.167 145.75 218.167 145.98 217.98 146.167 217.75 146.167Z"/><path d="M217.75 147.833 216.917 147.833C216.687 147.833 216.5 147.647 216.5 147.417 216.5 147.187 216.687 147 216.917 147L217.75 147C217.98 147 218.167 147.187 218.167 147.417 218.167 147.647 217.98 147.833 217.75 147.833Z"/><path d="M217.75 149.5 216.917 149.5C216.687 149.5 216.5 149.314 216.5 149.083 216.5 148.853 216.687 148.667 216.917 148.667L217.75 148.667C217.98 148.667 218.167 148.853 218.167 149.083 218.167 149.314 217.98 149.5 217.75 149.5Z"/><path d="M220.25 149.5 219.417 149.5C219.186 149.5 219 149.314 219 149.083 219 148.853 219.186 148.667 219.417 148.667L220.25 148.667C220.48 148.667 220.667 148.853 220.667 149.083 220.667 149.314 220.48 149.5 220.25 149.5Z"/><path d="M221.5 145.333C221.5 145.563 221.314 145.75 221.084 145.75 220.854 145.75 220.667 145.563 220.667 145.333 220.667 145.103 220.854 144.917 221.084 144.917 221.314 144.917 221.5 145.103 221.5 145.333Z"/></g></g></g><path d="M217.5 181.5C217.5 180.948 217.948 180.5 218.5 180.5L247.5 180.5C248.052 180.5 248.5 180.948 248.5 181.5L248.5 185.5C248.5 186.052 248.052 186.5 247.5 186.5L218.5 186.5C217.948 186.5 217.5 186.052 217.5 185.5Z" stroke="#46F0F0" stroke-width="1.33585" stroke-miterlimit="8" fill="#FFFFFF" fill-rule="evenodd"/><text font-family="Calibri,Calibri_MSFontService,sans-serif" font-weight="700" font-size="5" transform="translate(228.551 184)">PROJECT</text><g clip-path="url(#clip16)"><g clip-path="url(#clip17)"><g clip-path="url(#clip18)"><path d="M7.87498 1.5 2.81249 1.5 2.81249 0.749998 2.06249 0.749998 2.06249 0.749998C1.3245 0.843373 0.749998 1.48725 0.749998 2.24999L0.749998 6.74998C0.749998 7.57723 1.42275 8.24998 2.24999 8.24998L7.87498 8.24998C8.08235 8.24998 8.24998 8.08235 8.24998 7.87498L8.24998 1.87499C8.24998 1.668 8.08235 1.5 7.87498 1.5ZM2.06249 1.52662 2.06249 5.26911C1.85924 5.29461 1.66987 5.35986 1.5 5.45886L1.5 2.24999C1.5 1.90162 1.73999 1.61025 2.06249 1.52662ZM7.49998 7.49998 2.24999 7.49998C1.83637 7.49998 1.5 7.16398 1.5 6.74998 1.5 6.33598 1.83637 5.99998 2.24999 5.99998L2.81249 5.99998 2.81249 2.24999 7.49998 2.24999 7.49998 7.49998Z" transform="matrix(1 0 -0 1.11111 218 178)"/><path d="M4.12499 4.49999 4.49999 4.49999 4.49999 5.24998 4.12499 5.24998C3.91799 5.24998 3.74999 5.41761 3.74999 5.62498 3.74999 5.83236 3.91799 5.99998 4.12499 5.99998L4.49999 5.99998 4.49999 6.37498C4.49999 6.58236 4.66761 6.74998 4.87499 6.74998 5.08236 6.74998 5.24998 6.58236 5.24998 6.37498L5.24998 5.99998 6.37498 5.99998C6.58236 5.99998 6.74998 5.83236 6.74998 5.62498 6.74998 5.41761 6.58236 5.24998 6.37498 5.24998L5.24998 5.24998 5.24998 4.49999 6.37498 4.49999C6.58236 4.49999 6.74998 4.33199 6.74998 4.12499 6.74998 3.91799 6.58236 3.74999 6.37498 3.74999L5.24998 3.74999 5.24998 3.37499C5.24998 3.16799 5.08236 2.99999 4.87499 2.99999 4.66761 2.99999 4.49999 3.16799 4.49999 3.37499L4.49999 3.74999 4.12499 3.74999C3.91799 3.74999 3.74999 3.91799 3.74999 4.12499 3.74999 4.33199 3.91799 4.49999 4.12499 4.49999Z" transform="matrix(1 0 -0 1.11111 218 178)"/></g></g></g><path d="M216.5 217.5C216.5 216.395 217.395 215.5 218.5 215.5L246.5 215.5C247.605 215.5 248.5 216.395 248.5 217.5L248.5 225.5C248.5 226.605 247.605 227.5 246.5 227.5L218.5 227.5C217.395 227.5 216.5 226.605 216.5 225.5Z" stroke="#46F0F0" stroke-width="1.33585" stroke-miterlimit="8" fill="#FFFFFF" fill-rule="evenodd"/><text font-family="Calibri,Calibri_MSFontService,sans-serif" font-weight="700" font-size="5" transform="translate(228.265 219)">PROJECT<tspan x="0" y="6">TASK</tspan></text><g clip-path="url(#clip19)"><g clip-path="url(#clip20)"><g clip-path="url(#clip21)"><path d="M222.032 222.416 222.032 222.417 224.083 220.283 223.571 219.75 222.032 221.35 221.262 220.55 220.75 221.083 222.032 222.417Z"/><path d="M225.333 216.833 219.083 216.833C218.853 216.833 218.667 217.02 218.667 217.25L218.667 218.917 218.25 218.917C218.02 218.917 217.833 219.103 217.833 219.333 217.833 219.563 218.02 219.75 218.25 219.75L218.667 219.75 218.667 220.583 218.25 220.583C218.02 220.583 217.833 220.77 217.833 221 217.833 221.23 218.02 221.417 218.25 221.417L218.667 221.417 218.667 222.25 218.25 222.25C218.02 222.25 217.833 222.436 217.833 222.667 217.833 222.897 218.02 223.083 218.25 223.083L218.667 223.083 218.667 224.75C218.667 224.98 218.853 225.167 219.083 225.167L225.333 225.167C225.564 225.167 225.75 224.98 225.75 224.75L225.75 217.25C225.75 217.02 225.564 216.833 225.333 216.833ZM224.917 224.333 219.5 224.333 219.5 223.083 219.917 223.083C220.147 223.083 220.333 222.897 220.333 222.667 220.333 222.436 220.147 222.25 219.917 222.25L219.5 222.25 219.5 221.417 219.917 221.417C220.147 221.417 220.333 221.23 220.333 221 220.333 220.77 220.147 220.583 219.917 220.583L219.5 220.583 219.5 219.75 219.917 219.75C220.147 219.75 220.333 219.563 220.333 219.333 220.333 219.103 220.147 218.917 219.917 218.917L219.5 218.917 219.5 217.667 224.917 217.667 224.917 224.333Z"/></g></g></g><path d="M165.848 35 203.152 35C208.038 35 212 37.9101 212 41.5 212 45.0898 208.038 48 203.152 48L165.848 48C160.962 48 157 45.0898 157 41.5 157 37.9101 160.962 35 165.848 35Z" fill="#313131" fill-rule="evenodd"/><text fill="#FFFFFF" font-family="Calibri,Calibri_MSFontService,sans-serif" font-weight="700" font-size="5" transform="translate(173.835 43)">|Held By&gt;</text><path d="M167.618 71 212.382 71C218.246 71 223 73.9101 223 77.5 223 81.0898 218.246 84 212.382 84L167.618 84C161.754 84 157 81.0898 157 77.5 157 73.9101 161.754 71 167.618 71Z" fill="#313131" fill-rule="evenodd"/><text fill="#FFFFFF" font-family="Calibri,Calibri_MSFontService,sans-serif" font-weight="700" font-size="5" transform="translate(177.675 80)">&lt;Occupies|</text><path d="M166.331 215 205.669 215C210.822 215 215 217.91 215 221.5 215 225.09 210.822 228 205.669 228L166.331 228C161.178 228 157 225.09 157 221.5 157 217.91 161.178 215 166.331 215Z" fill="#313131" fill-rule="evenodd"/><text fill="#FFFFFF" font-family="Calibri,Calibri_MSFontService,sans-serif" font-weight="700" font-size="5" transform="translate(179.512 223)">&lt;Has|</text><path d="M165.848 107 203.152 107C208.038 107 212 110.134 212 114 212 117.866 208.038 121 203.152 121L165.848 121C160.962 121 157 117.866 157 114 157 110.134 160.962 107 165.848 107Z" fill="#313131" fill-rule="evenodd"/><text fill="#FFFFFF" font-family="Calibri,Calibri_MSFontService,sans-serif" font-weight="700" font-size="5" transform="translate(178.176 116)">&lt;Has|</text><path d="M165.848 144 203.152 144C208.038 144 212 146.91 212 150.5 212 154.09 208.038 157 203.152 157L165.848 157C160.962 157 157 154.09 157 150.5 157 146.91 160.962 144 165.848 144Z" fill="#313131" fill-rule="evenodd"/><text fill="#FFFFFF" font-family="Calibri,Calibri_MSFontService,sans-serif" font-weight="700" font-size="5" transform="translate(178.176 152)">&lt;Has|</text><path d="M166.331 180 205.669 180C210.822 180 215 182.91 215 186.5 215 190.09 210.822 193 205.669 193L166.331 193C161.178 193 157 190.09 157 186.5 157 182.91 161.178 180 166.331 180Z" fill="#313131" fill-rule="evenodd"/><text fill="#FFFFFF" font-family="Calibri,Calibri_MSFontService,sans-serif" font-weight="700" font-size="5" transform="translate(179.512 188)">&lt;Has|</text></g></svg>