<svg width="189" height="189" xmlns="http://www.w3.org/2000/svg" xmlns:xlink="http://www.w3.org/1999/xlink" overflow="hidden"><defs><clipPath id="clip0"><path d="M0 0 189 0 189 189 0 189Z" fill-rule="evenodd" clip-rule="evenodd"/></clipPath><clipPath id="clip1"><path d="M3 3 47 3 47 48 3 48Z" fill-rule="evenodd" clip-rule="evenodd"/></clipPath><clipPath id="clip2"><path d="M3 3 47 3 47 48 3 48Z" fill-rule="evenodd" clip-rule="evenodd"/></clipPath><clipPath id="clip3"><path d="M3 3 47 3 47 48 3 48Z" fill-rule="evenodd" clip-rule="evenodd"/></clipPath></defs><g clip-path="url(#clip0)"><rect x="0" y="0" width="189" height="189" fill="#313131"/><text fill="#FFFFFF" font-family="Calibri,Calibri_MSFontService,sans-serif" font-weight="300" font-size="11" transform="translate(9.60032 -5)">SEGMENT</text><rect x="3.50005" y="3.50005" width="1" height="1" stroke="#2F528F" stroke-width="1.33333" stroke-miterlimit="8" fill="#4472C4"/><rect x="0" y="0" width="189" height="189" stroke="#911EB4" stroke-width="8" stroke-miterlimit="8" fill="#FFFFFF"/><g clip-path="url(#clip1)"><g clip-path="url(#clip2)"><g clip-path="url(#clip3)"><path d="M12.8333 20.9697C8.789 20.9697 5.5 17.6935 5.5 13.6693 5.5 9.64517 8.789 6.37083 12.8333 6.37083 16.8777 6.37083 20.1667 9.64517 20.1667 13.6693 20.1667 17.6935 16.8777 20.9697 12.8333 20.9697ZM12.8333 10.0375C10.8112 10.0375 9.16667 11.6673 9.16667 13.6693 9.16667 15.6713 10.8112 17.3012 12.8333 17.3012 14.8555 17.3012 16.5 15.6713 16.5 13.6693 16.5 11.6673 14.8555 10.0375 12.8333 10.0375Z" transform="matrix(1 0 -0 1.02273 4.83333 5.8125)"/><path d="M29.3333 13.6822C25.289 13.6822 22 10.4078 22 6.38367 22 2.3595 25.289-0.916667 29.3333-0.916667 33.3777-0.916667 36.6667 2.35767 36.6667 6.38183 36.6667 10.406 33.3777 13.6822 29.3333 13.6822ZM29.3333 2.75C27.3112 2.75 25.6667 4.37983 25.6667 6.38183 25.6667 8.38383 27.3112 10.0137 29.3333 10.0137 31.3555 10.0137 33 8.38383 33 6.38183 33 4.37983 31.3555 2.75 29.3333 2.75Z" transform="matrix(1 0 -0 1.02273 4.83333 5.8125)"/><path d="M23.8333 39.4167C22.8195 39.4167 22 38.5972 22 37.5833L22 32.0027C22 29.9365 20.306 28.2572 18.2252 28.2572L7.4415 28.2572C5.36067 28.2572 3.66667 29.9365 3.66667 32.0027L3.66667 37.5833C3.66667 38.5972 2.84533 39.4167 1.83333 39.4167 0.821333 39.4167 0 38.5972 0 37.5833L0 32.0027C0 27.9162 3.3385 24.5905 7.4415 24.5905L18.2252 24.5905C22.3282 24.5905 25.6667 27.9143 25.6667 32.0027L25.6667 37.5833C25.6667 38.5972 24.8472 39.4167 23.8333 39.4167Z" transform="matrix(1 0 -0 1.02273 4.83333 5.8125)"/><path d="M40.3333 32.1273C39.3195 32.1273 38.5 31.3078 38.5 30.294L38.5 24.7152C38.5 22.649 36.795 20.9678 34.7013 20.9678L23.8333 20.9678C22.8195 20.9678 22 20.1483 22 19.1345 22 18.1207 22.8195 17.3012 23.8333 17.3012L34.7013 17.3012C38.8172 17.3012 42.1667 20.6268 42.1667 24.7133L42.1667 30.2922C42.1667 31.3078 41.3472 32.1273 40.3333 32.1273Z" transform="matrix(1 0 -0 1.02273 4.83333 5.8125)"/></g></g></g><text font-family="Calibri,Calibri_MSFontService,sans-serif" font-weight="700" font-size="20" transform="translate(75.6915 23)">SEGMENT<tspan font-weight="400" font-size="12" x="-69.1525" y="71">Customer </tspan><tspan font-size="12" x="-18.9858" y="71">Segments</tspan><tspan font-weight="400" font-size="12" x="32.3475" y="71">represent </tspan><tspan font-weight="400" font-size="12" x="-69.1525" y="86">different groups of like people </tspan><tspan font-weight="400" font-size="12" x="-69.1525" y="100">(customers or potential customers) </tspan><tspan font-weight="400" font-size="12" x="-69.1525" y="114">based on distinct needs and/or </tspan><tspan font-weight="400" font-size="12" x="-69.1525" y="129">characteristics. </tspan></text></g></svg>