<svg width="265" height="265" xmlns="http://www.w3.org/2000/svg" xmlns:xlink="http://www.w3.org/1999/xlink" overflow="hidden"><defs><clipPath id="clip0"><path d="M0 0 265 0 265 265 0 265Z" fill-rule="evenodd" clip-rule="evenodd"/></clipPath><clipPath id="clip1"><path d="M35 51 55 51 55 71 35 71Z" fill-rule="evenodd" clip-rule="evenodd"/></clipPath><clipPath id="clip2"><path d="M35 51 55 51 55 71 35 71Z" fill-rule="evenodd" clip-rule="evenodd"/></clipPath><clipPath id="clip3"><path d="M35 51 55 51 55 71 35 71Z" fill-rule="evenodd" clip-rule="evenodd"/></clipPath><clipPath id="clip4"><path d="M215 62 226 62 226 72 215 72Z" fill-rule="evenodd" clip-rule="evenodd"/></clipPath><clipPath id="clip5"><path d="M215 62 226 62 226 72 215 72Z" fill-rule="evenodd" clip-rule="evenodd"/></clipPath><clipPath id="clip6"><path d="M215 62 226 62 226 72 215 72Z" fill-rule="evenodd" clip-rule="evenodd"/></clipPath><clipPath id="clip7"><path d="M224 124 235 124 235 134 224 134Z" fill-rule="evenodd" clip-rule="evenodd"/></clipPath><clipPath id="clip8"><path d="M224 124 235 124 235 134 224 134Z" fill-rule="evenodd" clip-rule="evenodd"/></clipPath><clipPath id="clip9"><path d="M224 124 235 124 235 134 224 134Z" fill-rule="evenodd" clip-rule="evenodd"/></clipPath><clipPath id="clip10"><path d="M214 186 224 186 224 198 214 198Z" fill-rule="evenodd" clip-rule="evenodd"/></clipPath><clipPath id="clip11"><path d="M214 186 224 186 224 198 214 198Z" fill-rule="evenodd" clip-rule="evenodd"/></clipPath><clipPath id="clip12"><path d="M214 186 224 186 224 198 214 198Z" fill-rule="evenodd" clip-rule="evenodd"/></clipPath><clipPath id="clip13"><path d="M71 222 82 222 82 234 71 234Z" fill-rule="evenodd" clip-rule="evenodd"/></clipPath><clipPath id="clip14"><path d="M71 222 82 222 82 234 71 234Z" fill-rule="evenodd" clip-rule="evenodd"/></clipPath><clipPath id="clip15"><path d="M71 222 82 222 82 234 71 234Z" fill-rule="evenodd" clip-rule="evenodd"/></clipPath></defs><g clip-path="url(#clip0)"><rect x="0" y="0" width="265" height="265" fill="#313131"/><rect x="89.5" y="131.5" width="1.99999" height="1" stroke="#2F528F" stroke-width="1.33585" stroke-miterlimit="8" fill="#4472C4"/><path d="M23.5 9.75271C23.5 8.50859 24.5085 7.50003 25.7527 7.50003L249.247 7.50003C250.491 7.50003 251.5 8.50859 251.5 9.75271L251.5 249.247C251.5 250.491 250.491 251.5 249.247 251.5L25.7527 251.5C24.5085 251.5 23.5 250.491 23.5 249.247Z" stroke="#FF0000" stroke-width="0.667927" stroke-miterlimit="8" stroke-opacity="0" fill="none" fill-rule="evenodd"/><path d="M30.0794 43.5 149.921 43.5C153.002 43.5 155.5 45.998 155.5 49.0794L155.5 214.252C155.5 216.598 153.598 218.5 151.252 218.5L28.7483 218.5C26.402 218.5 24.5 216.598 24.5 214.252L24.5 49.0794C24.5 45.998 26.998 43.5 30.0794 43.5Z" stroke="#46F0F0" stroke-width="4.67549" stroke-miterlimit="8" fill="#FFFFFF" fill-rule="evenodd"/><g clip-path="url(#clip1)"><g clip-path="url(#clip2)"><g clip-path="url(#clip3)"><path d="M51.625 69.4167 37.375 69.4167C36.938 69.4167 36.5833 69.0628 36.5833 68.625L36.5833 54.375C36.5833 53.938 36.938 53.5833 37.375 53.5833L41.3333 53.5833C41.7704 53.5833 42.125 53.938 42.125 54.375 42.125 54.812 41.7704 55.1666 41.3333 55.1666L38.1667 55.1666 38.1667 67.8333 50.8334 67.8333 50.8334 64.6666C50.8334 64.2289 51.1872 63.875 51.625 63.875 52.0628 63.875 52.4167 64.2289 52.4167 64.6666L52.4167 68.625C52.4167 69.0628 52.0628 69.4167 51.625 69.4167Z"/><path d="M48.4584 63.1387C48.2462 63.1387 48.0459 63.0548 47.8963 62.9036L46.8101 61.8095 45.5094 61.8095C45.0716 61.8095 44.7177 61.4548 44.7177 61.0178L44.7177 59.7037 43.9379 58.9183C43.6316 58.6096 43.6316 58.1116 43.9379 57.8029L44.7177 57.0175 44.7177 55.382C44.7177 54.945 45.0724 54.5903 45.5094 54.5903L47.1284 54.5903 47.8963 53.8168C48.0459 53.6672 48.2462 53.5833 48.4584 53.5833L48.4584 53.5833C48.6705 53.5833 48.8708 53.6672 49.0205 53.8176L49.7884 54.5903 51.1089 54.5903C51.5467 54.5903 51.9005 54.945 51.9005 55.382L51.9005 56.7175 52.978 57.8037C53.286 58.1124 53.286 58.6112 52.978 58.9191L51.9005 60.0053 51.9005 61.0194C51.9005 61.4564 51.5467 61.8111 51.1089 61.8111L50.1066 61.8111 49.0205 62.9052C48.8708 63.0548 48.6705 63.1387 48.4584 63.1387ZM46.3011 60.227 47.1394 60.227C47.3516 60.227 47.5519 60.3109 47.7015 60.4605L48.4584 61.2237 49.2152 60.4605C49.364 60.3109 49.5651 60.227 49.7773 60.227L50.3172 60.227 50.3172 59.6783C50.3172 59.4693 50.3995 59.2683 50.5476 59.1202L51.3013 58.361 50.5476 57.6018C50.3987 57.4538 50.3172 57.2535 50.3172 57.0437L50.3172 56.1736 49.4575 56.1736C49.2461 56.1736 49.045 56.0897 48.8954 55.9393L48.4584 55.4991 48.0206 55.9401C47.8717 56.0897 47.6699 56.1736 47.4577 56.1736L46.3011 56.1736 46.3011 57.3437C46.3011 57.5527 46.2187 57.753 46.0707 57.9018L45.6155 58.361 46.0707 58.821C46.2187 58.9698 46.3011 59.1701 46.3011 59.3791L46.3011 60.227Z"/><path d="M42.125 59.9166 40.5417 59.9166C40.1047 59.9166 39.75 59.562 39.75 59.125 39.75 58.688 40.1047 58.3333 40.5417 58.3333L42.125 58.3333C42.562 58.3333 42.9167 58.688 42.9167 59.125 42.9167 59.562 42.562 59.9166 42.125 59.9166Z"/><path d="M42.125 63.0833 40.5417 63.0833C40.1047 63.0833 39.75 62.7294 39.75 62.2916 39.75 61.8546 40.1047 61.5 40.5417 61.5L42.125 61.5C42.562 61.5 42.9167 61.8546 42.9167 62.2916 42.9167 62.7294 42.562 63.0833 42.125 63.0833Z"/><path d="M42.125 66.25 40.5417 66.25C40.1047 66.25 39.75 65.8961 39.75 65.4583 39.75 65.0205 40.1047 64.6666 40.5417 64.6666L42.125 64.6666C42.562 64.6666 42.9167 65.0205 42.9167 65.4583 42.9167 65.8961 42.562 66.25 42.125 66.25Z"/><path d="M46.875 66.25 45.2917 66.25C44.8539 66.25 44.5 65.8961 44.5 65.4583 44.5 65.0205 44.8539 64.6666 45.2917 64.6666L46.875 64.6666C47.3128 64.6666 47.6667 65.0205 47.6667 65.4583 47.6667 65.8961 47.3128 66.25 46.875 66.25Z"/><path d="M49.2508 58.3333C49.2508 58.7705 48.8964 59.125 48.4592 59.125 48.0219 59.125 47.6675 58.7705 47.6675 58.3333 47.6675 57.8961 48.0219 57.5416 48.4592 57.5416 48.8964 57.5416 49.2508 57.8961 49.2508 58.3333Z"/></g></g></g><path d="M26.9702 6.36947C18.5628 6.36947 11.7473 10.3112 11.7473 15.1736L11.7473 248.948C11.7473 253.81 18.5628 257.752 26.9702 257.752L238.08 257.752C246.487 257.752 253.302 253.81 253.302 248.948L253.302 15.1736C253.302 10.3112 246.487 6.36947 238.08 6.36947ZM0 0 265 0 265 265 0 265Z" fill="#46F0F0" fill-rule="evenodd"/><text font-family="Calibri,Calibri_MSFontService,sans-serif" font-weight="700" font-size="11" transform="translate(75.048 63)">PROGRAM<tspan font-weight="400" font-size="9" x="-43.7577" y="62">A </tspan><tspan font-size="9" x="-36.2435" y="62">Program</tspan><tspan font-weight="400" font-size="9" x="-0.509415" y="62">is a defined set of </tspan><tspan font-weight="400" font-size="9" x="-43.7577" y="73">individual </tspan><tspan font-size="9" x="-4.85094" y="73">Projects</tspan><tspan font-weight="400" font-size="9" x="28.3784" y="73">that a </tspan><tspan font-weight="400" font-size="9" x="-43.7577" y="84">project office or programme </tspan><tspan font-weight="400" font-size="9" x="-43.7577" y="95">manager is charged with </tspan><tspan font-weight="400" font-size="9" x="-43.7577" y="107">coordinating.</tspan></text><path d="M215.5 63.5C215.5 62.3954 216.395 61.5 217.5 61.5L246.5 61.5C247.605 61.5 248.5 62.3954 248.5 63.5L248.5 71.5C248.5 72.6046 247.605 73.5 246.5 73.5L217.5 73.5C216.395 73.5 215.5 72.6046 215.5 71.5Z" stroke="#B74D41" stroke-width="1.33585" stroke-miterlimit="8" fill="#FFFFFF" fill-rule="evenodd"/><text font-family="Calibri,Calibri_MSFontService,sans-serif" font-weight="700" font-size="5" transform="translate(227.215 65)">TEAM<tspan x="0" y="6">MEMBER</tspan></text><g clip-path="url(#clip4)"><g clip-path="url(#clip5)"><g clip-path="url(#clip6)"><path d="M221 67.4167C220.083 67.4167 219.333 66.6667 219.333 65.75 219.333 64.8334 220.083 64.0834 221 64.0834 221.917 64.0834 222.667 64.8334 222.667 65.75 222.667 66.6667 221.917 67.4167 221 67.4167ZM221 64.9167C220.542 64.9167 220.167 65.2917 220.167 65.75 220.167 66.2083 220.542 66.5833 221 66.5833 221.458 66.5833 221.833 66.2083 221.833 65.75 221.833 65.2917 221.458 64.9167 221 64.9167Z"/><path d="M224.542 65.3334C223.75 65.3334 223.083 64.6667 223.083 63.875 223.083 63.0834 223.75 62.4167 224.542 62.4167 225.333 62.4167 226 63.0834 226 63.875 226 64.6667 225.333 65.3334 224.542 65.3334ZM224.542 63.25C224.208 63.25 223.917 63.5417 223.917 63.875 223.917 64.2084 224.208 64.5 224.542 64.5 224.875 64.5 225.167 64.2084 225.167 63.875 225.167 63.5417 224.875 63.25 224.542 63.25Z"/><path d="M225.583 67 223.5 67C223.25 67 223.083 66.8333 223.083 66.5833 223.083 66.3333 223.25 66.1667 223.5 66.1667L225.583 66.1667C225.833 66.1667 226 66.3333 226 66.5833 226 66.8333 225.833 67 225.583 67Z"/><path d="M217.458 65.3334C216.667 65.3334 216 64.6667 216 63.875 216 63.0834 216.667 62.4167 217.458 62.4167 218.25 62.4167 218.917 63.0834 218.917 63.875 218.917 64.6667 218.25 65.3334 217.458 65.3334ZM217.458 63.25C217.125 63.25 216.833 63.5417 216.833 63.875 216.833 64.2084 217.125 64.5 217.458 64.5 217.792 64.5 218.083 64.2084 218.083 63.875 218.083 63.5417 217.792 63.25 217.458 63.25Z"/><path d="M218.5 67 216.417 67C216.167 67 216 66.8333 216 66.5833 216 66.3333 216.167 66.1667 216.417 66.1667L218.5 66.1667C218.75 66.1667 218.917 66.3333 218.917 66.5833 218.917 66.8333 218.75 67 218.5 67Z"/><path d="M223.542 71.5833C223.333 71.5833 223.125 71.4167 223.125 71.1667L223.125 69.9167C223.125 69.4583 222.75 69.0833 222.25 69.0833L219.792 69.0833C219.292 69.0833 218.917 69.4583 218.917 69.9167L218.917 71.1667C218.917 71.375 218.75 71.5833 218.5 71.5833 218.25 71.5833 218.083 71.4167 218.083 71.1667L218.083 69.9167C218.083 69 218.833 68.25 219.792 68.25L222.25 68.25C223.208 68.25 223.958 69 223.958 69.9167L223.958 71.1667C223.958 71.375 223.75 71.5833 223.542 71.5833Z"/></g></g></g><path d="M224.5 126.667C224.5 126.022 225.022 125.5 225.667 125.5L247.333 125.5C247.978 125.5 248.5 126.022 248.5 126.667L248.5 131.333C248.5 131.978 247.978 132.5 247.333 132.5L225.667 132.5C225.022 132.5 224.5 131.978 224.5 131.333Z" stroke="#CEB023" stroke-width="1.33585" stroke-miterlimit="8" fill="#FFFFFF" fill-rule="evenodd"/><text font-family="Calibri,Calibri_MSFontService,sans-serif" font-weight="700" font-size="5" transform="translate(235.598 130)">USER</text><g clip-path="url(#clip7)"><g clip-path="url(#clip8)"><g clip-path="url(#clip9)"><path d="M2.99999 3.74999C1.94999 3.74999 1.125 2.92499 1.125 1.87499 1.125 0.824998 1.94999 0 2.99999 0 4.04999 0 4.87499 0.824998 4.87499 1.87499 4.87499 2.92499 4.04999 3.74999 2.99999 3.74999ZM2.99999 0.749998C2.36249 0.749998 1.87499 1.2375 1.87499 1.87499 1.87499 2.51249 2.36249 2.99999 2.99999 2.99999 3.63749 2.99999 4.12499 2.51249 4.12499 1.87499 4.12499 1.2375 3.63749 0.749998 2.99999 0.749998Z" transform="matrix(1.00001 0 -0 1 226.5 124.375)"/><path d="M6.74998 8.24998C6.52498 8.24998 6.37498 8.09998 6.37498 7.87498L6.37498 6.37498C6.37498 5.73748 5.88748 5.24998 5.24998 5.24998L2.99999 5.24998C2.36249 5.24998 1.87499 5.73748 1.87499 6.37498L1.87499 7.87498C1.87499 8.09998 1.72499 8.24998 1.5 8.24998 1.275 8.24998 1.125 8.09998 1.125 7.87498L1.125 6.37498C1.125 5.32498 1.94999 4.49999 2.99999 4.49999L5.24998 4.49999C6.29998 4.49999 7.12498 5.32498 7.12498 6.37498L7.12498 7.87498C7.12498 8.09998 6.97498 8.24998 6.74998 8.24998Z" transform="matrix(1.00001 0 -0 1 225.375 124.375)"/></g></g></g><path d="M214.5 190.5C214.5 189.948 214.948 189.5 215.5 189.5L247.5 189.5C248.052 189.5 248.5 189.948 248.5 190.5L248.5 194.5C248.5 195.052 248.052 195.5 247.5 195.5L215.5 195.5C214.948 195.5 214.5 195.052 214.5 194.5Z" stroke="#46F0F0" stroke-width="1.33585" stroke-miterlimit="8" fill="#FFFFFF" fill-rule="evenodd"/><text font-family="Calibri,Calibri_MSFontService,sans-serif" font-weight="700" font-size="5" transform="translate(225.442 193)">INITIATIVE</text><g clip-path="url(#clip10)"><g clip-path="url(#clip11)"><g clip-path="url(#clip12)"><path d="M3.74999 4.77449C4.57686 4.77449 5.24998 4.11824 5.24998 3.31124 5.24998 2.50387 4.57686 1.84762 3.74999 1.84762 2.92274 1.84762 2.24999 2.50424 2.24999 3.31124 2.24999 4.11824 2.92274 4.77449 3.74999 4.77449ZM3.74999 2.57962C4.16399 2.57962 4.49999 2.90774 4.49999 3.31162 4.49999 3.71549 4.16399 4.04361 3.74999 4.04361 3.33637 4.04361 2.99999 3.71549 2.99999 3.31162 2.99999 2.90774 3.33637 2.57962 3.74999 2.57962Z" transform="matrix(1 0 -0 1.11112 215 187)"/><path d="M7.49998 0.749998C7.2926 0.749998 7.12498 0.913872 7.12498 1.116L7.12498 3.54186 7.12498 3.67724 7.12498 3.70986C7.12498 4.70661 6.29473 5.51736 5.27398 5.51736L3.72599 5.51736C2.29162 5.51773 1.125 6.57936 1.125 7.8836 1.125 8.08573 1.293 8.24998 1.5 8.24998 1.707 8.24998 1.87499 8.08573 1.87499 7.8836 1.87499 6.98285 2.70524 6.24936 3.72599 6.24936L5.27398 6.24936C6.70798 6.24936 7.87535 5.11049 7.87535 3.71024L7.87535 3.67724 7.87535 3.54186 7.87535 1.116C7.87498 0.913872 7.70735 0.749998 7.49998 0.749998Z" transform="matrix(1 0 -0 1.11112 215 187)"/><path d="M5.99998 6.60411C5.79261 6.60411 5.62498 6.76835 5.62498 6.97085L5.62498 7.70248C5.62498 7.9046 5.79261 8.06848 5.99998 8.06848 6.20736 8.06848 6.37498 7.9046 6.37498 7.70248L6.37498 6.97085C6.37498 6.76835 6.20736 6.60411 5.99998 6.60411Z" transform="matrix(1 0 -0 1.11112 215 187)"/></g></g></g><path d="M167.618 125 212.382 125C218.246 125 223 128.134 223 132 223 135.866 218.246 139 212.382 139L167.618 139C161.754 139 157 135.866 157 132 157 128.134 161.754 125 167.618 125Z" fill="#313131" fill-rule="evenodd"/><text fill="#FFFFFF" font-family="Calibri,Calibri_MSFontService,sans-serif" font-weight="700" font-size="5" transform="translate(172.332 134)">|Subscribed by&gt;</text><path d="M166.17 61 204.83 61C209.894 61 214 63.9102 214 67.5 214 71.0899 209.894 74 204.83 74L166.17 74C161.106 74 157 71.0899 157 67.5 157 63.9102 161.106 61 166.17 61Z" fill="#313131" fill-rule="evenodd"/><text fill="#FFFFFF" font-family="Calibri,Calibri_MSFontService,sans-serif" font-weight="700" font-size="5" transform="translate(178.844 69)">|Has&gt;</text><path d="M165.848 189 203.152 189C208.038 189 212 191.91 212 195.5 212 199.09 208.038 202 203.152 202L165.848 202C160.962 202 157 199.09 157 195.5 157 191.91 160.962 189 165.848 189Z" fill="#313131" fill-rule="evenodd"/><text fill="#FFFFFF" font-family="Calibri,Calibri_MSFontService,sans-serif" font-weight="700" font-size="5" transform="translate(168.408 197)">&lt;Delivered by|</text><path d="M84 222 89.5 218 95 222Z" fill="#FFFFFF" fill-rule="evenodd"/><path d="M71.5001 226.5C71.5001 225.948 71.9478 225.5 72.5001 225.5L102.5 225.5C103.052 225.5 103.5 225.948 103.5 226.5L103.5 230.5C103.5 231.052 103.052 231.5 102.5 231.5L72.5001 231.5C71.9478 231.5 71.5001 231.052 71.5001 230.5Z" stroke="#46F0F0" stroke-width="1.33585" stroke-miterlimit="8" fill="#FFFFFF" fill-rule="evenodd"/><text font-family="Calibri,Calibri_MSFontService,sans-serif" font-weight="700" font-size="5" transform="translate(83.0711 229)">PROJECT</text><g clip-path="url(#clip13)"><g clip-path="url(#clip14)"><g clip-path="url(#clip15)"><path d="M8.74997 1.66666 3.12499 1.66666 3.12499 0.833331 2.29166 0.833331 2.29166 0.833331C1.47166 0.937081 0.833331 1.6525 0.833331 2.49999L0.833331 7.49998C0.833331 8.41914 1.58083 9.16664 2.49999 9.16664L8.74997 9.16664C8.98039 9.16664 9.16664 8.98039 9.16664 8.74997L9.16664 2.08333C9.16664 1.85333 8.98039 1.66666 8.74997 1.66666ZM2.29166 1.69625 2.29166 5.85457C2.06583 5.8829 1.85541 5.9554 1.66666 6.0654L1.66666 2.49999C1.66666 2.11291 1.93333 1.78916 2.29166 1.69625ZM8.33331 8.33331 2.49999 8.33331C2.04041 8.33331 1.66666 7.95998 1.66666 7.49998 1.66666 7.03998 2.04041 6.66665 2.49999 6.66665L3.12499 6.66665 3.12499 2.49999 8.33331 2.49999 8.33331 8.33331Z" transform="matrix(1 0 -0 1.00001 72 223)"/><path d="M4.58332 4.99999 4.99999 4.99999 4.99999 5.83332 4.58332 5.83332C4.35332 5.83332 4.16665 6.01957 4.16665 6.24998 4.16665 6.4804 4.35332 6.66665 4.58332 6.66665L4.99999 6.66665 4.99999 7.08331C4.99999 7.31373 5.18623 7.49998 5.41665 7.49998 5.64707 7.49998 5.83332 7.31373 5.83332 7.08331L5.83332 6.66665 7.08331 6.66665C7.31373 6.66665 7.49998 6.4804 7.49998 6.24998 7.49998 6.01957 7.31373 5.83332 7.08331 5.83332L5.83332 5.83332 5.83332 4.99999 7.08331 4.99999C7.31373 4.99999 7.49998 4.81332 7.49998 4.58332 7.49998 4.35332 7.31373 4.16665 7.08331 4.16665L5.83332 4.16665 5.83332 3.74999C5.83332 3.51999 5.64707 3.33332 5.41665 3.33332 5.18623 3.33332 4.99999 3.51999 4.99999 3.74999L4.99999 4.16665 4.58332 4.16665C4.35332 4.16665 4.16665 4.35332 4.16665 4.58332 4.16665 4.81332 4.35332 4.99999 4.58332 4.99999Z" transform="matrix(1 0 -0 1.00001 72 223)"/></g></g></g></g></svg>