<svg width="265" height="265" xmlns="http://www.w3.org/2000/svg" xmlns:xlink="http://www.w3.org/1999/xlink" overflow="hidden"><defs><clipPath id="clip0"><path d="M0 0 265 0 265 265 0 265Z" fill-rule="evenodd" clip-rule="evenodd"/></clipPath><clipPath id="clip1"><path d="M35 51 55 51 55 71 35 71Z" fill-rule="evenodd" clip-rule="evenodd"/></clipPath><clipPath id="clip2"><path d="M35 51 55 51 55 71 35 71Z" fill-rule="evenodd" clip-rule="evenodd"/></clipPath><clipPath id="clip3"><path d="M35 51 55 51 55 71 35 71Z" fill-rule="evenodd" clip-rule="evenodd"/></clipPath><clipPath id="clip4"><path d="M214 124 224 124 224 134 214 134Z" fill-rule="evenodd" clip-rule="evenodd"/></clipPath><clipPath id="clip5"><path d="M214 124 224 124 224 134 214 134Z" fill-rule="evenodd" clip-rule="evenodd"/></clipPath><clipPath id="clip6"><path d="M214 124 224 124 224 134 214 134Z" fill-rule="evenodd" clip-rule="evenodd"/></clipPath><clipPath id="clip7"><path d="M43 28 55 28 55 38 43 38Z" fill-rule="evenodd" clip-rule="evenodd"/></clipPath><clipPath id="clip8"><path d="M43 28 55 28 55 38 43 38Z" fill-rule="evenodd" clip-rule="evenodd"/></clipPath><clipPath id="clip9"><path d="M43 28 55 28 55 38 43 38Z" fill-rule="evenodd" clip-rule="evenodd"/></clipPath><clipPath id="clip10"><path d="M100 28 110 28 110 38 100 38Z" fill-rule="evenodd" clip-rule="evenodd"/></clipPath><clipPath id="clip11"><path d="M100 28 110 28 110 38 100 38Z" fill-rule="evenodd" clip-rule="evenodd"/></clipPath><clipPath id="clip12"><path d="M100 28 110 28 110 38 100 38Z" fill-rule="evenodd" clip-rule="evenodd"/></clipPath></defs><g clip-path="url(#clip0)"><rect x="0" y="0" width="265" height="265" fill="#313131"/><rect x="89.5" y="131.5" width="1.99999" height="1" stroke="#2F528F" stroke-width="1.33585" stroke-miterlimit="8" fill="#4472C4"/><path d="M23.5 9.75271C23.5 8.50859 24.5085 7.50003 25.7527 7.50003L249.247 7.50003C250.491 7.50003 251.5 8.50859 251.5 9.75271L251.5 249.247C251.5 250.491 250.491 251.5 249.247 251.5L25.7527 251.5C24.5085 251.5 23.5 250.491 23.5 249.247Z" stroke="#FF0000" stroke-width="0.667927" stroke-miterlimit="8" stroke-opacity="0" fill="none" fill-rule="evenodd"/><path d="M30.0794 43.5 149.921 43.5C153.002 43.5 155.5 45.998 155.5 49.0794L155.5 214.252C155.5 216.598 153.598 218.5 151.252 218.5L28.7483 218.5C26.402 218.5 24.5 216.598 24.5 214.252L24.5 49.0794C24.5 45.998 26.998 43.5 30.0794 43.5Z" stroke="#000080" stroke-width="4.67549" stroke-miterlimit="8" fill="#FFFFFF" fill-rule="evenodd"/><g clip-path="url(#clip1)"><g clip-path="url(#clip2)"><g clip-path="url(#clip3)"><path d="M53.1474 64.9691C53.229 64.7767 53.229 64.5566 53.1474 64.3642 53.107 64.2669 53.0493 64.179 52.9756 64.1061L50.6014 61.7319C50.2919 61.4224 49.7915 61.4224 49.482 61.7319 49.1725 62.0415 49.1725 62.5418 49.482 62.8514L50.5056 63.875 39.75 63.875C39.313 63.875 38.9583 64.2289 38.9583 64.6666 38.9583 65.1044 39.313 65.4583 39.75 65.4583L50.5056 65.4583 49.482 66.4819C49.1725 66.7915 49.1725 67.2918 49.482 67.6014 49.6364 67.7557 49.839 67.8333 50.0417 67.8333 50.2444 67.8333 50.447 67.7557 50.6014 67.6014L52.9756 65.2271C53.0493 65.1543 53.107 65.0664 53.1474 64.9691Z"/><path d="M42.9167 67.8333 37.375 67.8333 37.375 55.1666 45.2917 55.1666 45.2917 60.075C45.2917 60.512 45.6456 60.8666 46.0834 60.8666 46.5212 60.8666 46.875 60.512 46.875 60.075L46.875 54.375C46.875 53.938 46.5212 53.5833 46.0834 53.5833L36.5833 53.5833C36.1463 53.5833 35.7917 53.938 35.7917 54.375L35.7917 68.625C35.7917 69.0628 36.1463 69.4167 36.5833 69.4167L42.9167 69.4167C43.3545 69.4167 43.7084 69.0628 43.7084 68.625 43.7084 68.1872 43.3545 67.8333 42.9167 67.8333Z"/></g></g></g><path d="M26.9702 6.36947C18.5628 6.36947 11.7473 10.3112 11.7473 15.1736L11.7473 248.948C11.7473 253.81 18.5628 257.752 26.9702 257.752L238.08 257.752C246.487 257.752 253.302 253.81 253.302 248.948L253.302 15.1736C253.302 10.3112 246.487 6.36947 238.08 6.36947ZM0 0 265 0 265 265 0 265Z" fill="#000080" fill-rule="evenodd"/><text font-family="Calibri,Calibri_MSFontService,sans-serif" font-weight="700" font-size="11" transform="translate(56.513 63)">SCOPE INCREMENT<tspan font-weight="400" font-size="9" x="-25.2227" y="51">A </tspan><tspan font-size="9" x="-17.7085" y="51">Scope increment</tspan><tspan font-weight="400" font-size="9" x="49.2511" y="51">defines an </tspan><tspan font-weight="400" font-size="9" x="-25.2227" y="62">initially delineated scope of </tspan><tspan font-weight="400" font-size="9" x="-25.2227" y="73">work relative to the </tspan><tspan font-weight="400" font-size="9" x="-25.2227" y="84">realisation of an </tspan><tspan font-size="9" x="38.7313" y="84">Initiative</tspan><tspan font-weight="400" font-size="9" x="73.2965" y="84">. To </tspan><tspan font-weight="400" font-size="9" x="-25.2227" y="96">be delivered, a </tspan><tspan font-size="9" x="33.2209" y="96">Scope </tspan><tspan font-size="9" x="-25.2227" y="107">increment</tspan><tspan font-weight="400" font-size="9" x="16.6897" y="107">refined into </tspan><tspan font-size="9" x="63.6116" y="107">Epics</tspan><tspan font-weight="400" font-size="9" x="-25.2227" y="118">or </tspan><tspan font-size="9" x="-14.7029" y="118">Enhancements</tspan><tspan font-weight="400" font-size="9" x="42.2379" y="118">.</tspan></text><path d="M214.5 126.667C214.5 126.022 215.022 125.5 215.667 125.5L247.333 125.5C247.978 125.5 248.5 126.022 248.5 126.667L248.5 131.333C248.5 131.978 247.978 132.5 247.333 132.5L215.667 132.5C215.022 132.5 214.5 131.978 214.5 131.333Z" stroke="#46F0F0" stroke-width="1.33585" stroke-miterlimit="8" fill="#FFFFFF" fill-rule="evenodd"/><text font-family="Calibri,Calibri_MSFontService,sans-serif" font-weight="700" font-size="5" transform="translate(225.442 130)">INITIATIVE</text><g clip-path="url(#clip4)"><g clip-path="url(#clip5)"><g clip-path="url(#clip6)"><path d="M218.75 128.775C219.577 128.775 220.25 128.118 220.25 127.311 220.25 126.504 219.577 125.848 218.75 125.848 217.923 125.848 217.25 126.504 217.25 127.311 217.25 128.118 217.923 128.775 218.75 128.775ZM218.75 126.58C219.164 126.58 219.5 126.908 219.5 127.312 219.5 127.716 219.164 128.044 218.75 128.044 218.336 128.044 218 127.716 218 127.312 218 126.908 218.336 126.58 218.75 126.58Z"/><path d="M222.5 124.75C222.293 124.75 222.125 124.914 222.125 125.116L222.125 127.542 222.125 127.677 222.125 127.71C222.125 128.707 221.295 129.517 220.274 129.517L218.726 129.517C217.292 129.518 216.125 130.579 216.125 131.884 216.125 132.086 216.293 132.25 216.5 132.25 216.707 132.25 216.875 132.086 216.875 131.884 216.875 130.983 217.705 130.249 218.726 130.249L220.274 130.249C221.708 130.249 222.875 129.111 222.875 127.71L222.875 127.677 222.875 127.542 222.875 125.116C222.875 124.914 222.707 124.75 222.5 124.75Z"/><path d="M221 130.604C220.793 130.604 220.625 130.768 220.625 130.971L220.625 131.703C220.625 131.905 220.793 132.069 221 132.069 221.207 132.069 221.375 131.905 221.375 131.703L221.375 130.971C221.375 130.768 221.207 130.604 221 130.604Z"/></g></g></g><path d="M165.848 125 203.152 125C208.038 125 212 128.134 212 132 212 135.866 208.038 139 203.152 139L165.848 139C160.962 139 157 135.866 157 132 157 128.134 160.962 125 165.848 125Z" fill="#313131" fill-rule="evenodd"/><text fill="#FFFFFF" font-family="Calibri,Calibri_MSFontService,sans-serif" font-weight="700" font-size="5" transform="translate(171.079 134)">&lt;Scoped by|</text><path d="M84 41 89.5 38 95 41Z" fill="#FFFFFF" fill-rule="evenodd"/><path d="M44.5 31.5C44.5 30.9477 44.9477 30.5 45.5 30.5L87.5 30.5C88.0523 30.5 88.5 30.9477 88.5 31.5L88.5 35.5C88.5 36.0523 88.0523 36.5 87.5 36.5L45.5 36.5C44.9477 36.5 44.5 36.0523 44.5 35.5Z" stroke="#000080" stroke-width="1.33585" stroke-miterlimit="8" fill="#FFFFFF" fill-rule="evenodd"/><text font-family="Calibri,Calibri_MSFontService,sans-serif" font-weight="700" font-size="5" transform="translate(55.2198 34)">ENHANCEMENT</text><g clip-path="url(#clip7)"><g clip-path="url(#clip8)"><g clip-path="url(#clip9)"><path d="M6.72456 2.17791C6.56165 2.01749 6.30123 2.01749 6.13873 2.17791L0.540415 7.70623C0.461249 7.78498 0.416665 7.89123 0.416665 8.00289 0.416665 8.11456 0.461249 8.22081 0.540415 8.29956L1.71916 9.46331C1.80041 9.5433 1.90624 9.58331 2.01208 9.58331 2.11791 9.58331 2.22374 9.5433 2.30499 9.46331L7.90289 3.93457C7.98164 3.85624 8.02664 3.74957 8.02664 3.63832 8.02664 3.52707 7.98248 3.42041 7.90289 3.34207L6.72456 2.17791ZM5.84082 4.8004 5.25498 4.22207 6.43165 3.05999 7.01706 3.63832 5.84082 4.8004Z" transform="matrix(1.00001 0 -0 1 44 28)"/><path d="M8.33331 1.65125 8.74997 1.65125 8.74997 1.23958 9.16664 1.23958 9.16664 0.828331 8.74997 0.828331 8.74997 0.416665 8.33331 0.416665 8.33331 0.828331 7.91664 0.828331 7.91664 1.23958 8.33331 1.23958Z" transform="matrix(1.00001 0 -0 1 44 28)"/><path d="M5.41665 1.65125 5.83332 1.65125 5.83332 1.23958 6.24998 1.23958 6.24998 0.828331 5.83332 0.828331 5.83332 0.416665 5.41665 0.416665 5.41665 0.828331 4.99999 0.828331 4.99999 1.23958 5.41665 1.23958Z" transform="matrix(1.00001 0 -0 1 44 28)"/><path d="M8.33331 2.47416 8.74997 2.47416 8.74997 2.88582 8.33331 2.88582Z" transform="matrix(1.00001 0 -0 1 44 28)"/><path d="M9.16664 1.65125 9.58331 1.65125 9.58331 2.06249 9.16664 2.06249Z" transform="matrix(1.00001 0 -0 1 44 28)"/><path d="M4.16665 2.06249 4.58332 2.06249 4.58332 2.47416 4.16665 2.47416Z" transform="matrix(1.00001 0 -0 1 44 28)"/><path d="M7.08331 1.23958 7.49998 1.23958 7.49998 1.65124 7.08331 1.65124Z" transform="matrix(1.00001 0 -0 1 44 28)"/><path d="M9.16664 3.70874 8.74997 3.70874 8.74997 4.11999 8.33331 4.11999 8.33331 4.53165 8.74997 4.53165 8.74997 4.94332 9.16664 4.94332 9.16664 4.53165 9.58331 4.53165 9.58331 4.11999 9.16664 4.11999Z" transform="matrix(1.00001 0 -0 1 44 28)"/></g></g></g><path d="M99.5 31.5C99.5 30.9477 99.9477 30.5 100.5 30.5L121.5 30.5C122.052 30.5 122.5 30.9477 122.5 31.5L122.5 35.5C122.5 36.0523 122.052 36.5 121.5 36.5L100.5 36.5C99.9477 36.5 99.5 36.0523 99.5 35.5Z" stroke="#000080" stroke-width="1.33585" stroke-miterlimit="8" fill="#FFFFFF" fill-rule="evenodd"/><text font-family="Calibri,Calibri_MSFontService,sans-serif" font-weight="700" font-size="5" transform="translate(110.922 34)">EPIC</text><g clip-path="url(#clip10)"><g clip-path="url(#clip11)"><g clip-path="url(#clip12)"><path d="M108.438 30.0833 106.667 30.0833 106.667 29.25 104.167 29.25 104.167 28.8334C104.167 28.6034 103.98 28.4167 103.75 28.4167 103.52 28.4167 103.334 28.6034 103.334 28.8334L103.334 29.25 103.334 32.5833 103.334 35.0833 102.084 35.0833C101.926 35.0833 101.782 35.1725 101.711 35.3138L100.878 36.9804C100.775 37.1862 100.858 37.4371 101.064 37.5396 101.27 37.6421 101.52 37.5592 101.623 37.3537L102.341 35.9167 105.16 35.9167 105.878 37.3529C105.951 37.4992 106.098 37.5833 106.251 37.5833 106.313 37.5833 106.377 37.5692 106.437 37.5396 106.642 37.4371 106.725 37.1862 106.623 36.9804L105.79 35.3138C105.719 35.1725 105.575 35.0833 105.417 35.0833L104.167 35.0833 104.167 32.5833 105.834 32.5833 105.834 33.4167 108.438 33.4167C108.846 33.4167 109.167 33.0508 109.167 32.5833L109.167 30.9167C109.167 30.4492 108.846 30.0833 108.438 30.0833ZM104.167 31.75 104.167 30.0833 105.834 30.0833 105.834 31.75 104.167 31.75ZM108.334 32.5833 106.667 32.5833 106.667 30.9167 108.334 30.9167 108.334 32.5833Z"/></g></g></g></g></svg>