<svg width="189" height="189" xmlns="http://www.w3.org/2000/svg" xmlns:xlink="http://www.w3.org/1999/xlink" overflow="hidden"><defs><clipPath id="clip0"><path d="M0 0 189 0 189 189 0 189Z" fill-rule="evenodd" clip-rule="evenodd"/></clipPath><clipPath id="clip1"><path d="M3 3 47 3 47 48 3 48Z" fill-rule="evenodd" clip-rule="evenodd"/></clipPath><clipPath id="clip2"><path d="M3 3 47 3 47 48 3 48Z" fill-rule="evenodd" clip-rule="evenodd"/></clipPath><clipPath id="clip3"><path d="M3 3 47 3 47 48 3 48Z" fill-rule="evenodd" clip-rule="evenodd"/></clipPath></defs><g clip-path="url(#clip0)"><rect x="0" y="0" width="189" height="189" fill="#313131"/><text fill="#FFFFFF" font-family="Calibri,Calibri_MSFontService,sans-serif" font-weight="300" font-size="11" transform="translate(9.60032 -5)">POSTCONDITION</text><rect x="3.50005" y="3.50005" width="1" height="1" stroke="#2F528F" stroke-width="1.33333" stroke-miterlimit="8" fill="#4472C4"/><rect x="0" y="0" width="189" height="189" stroke="#64A592" stroke-width="8" stroke-miterlimit="8" fill="#FFFFFF"/><g clip-path="url(#clip1)"><g clip-path="url(#clip2)"><g clip-path="url(#clip3)"><path d="M40.5735 42.1667 9.16667 42.1667C8.54333 42.1667 7.96217 41.8495 7.62483 41.3252 7.2875 40.8027 7.23983 40.1408 7.49833 39.5743L16.3185 20.1667 7.49833 0.759C7.23983 0.190667 7.2875-0.4675 7.62483-0.993667 7.96217-1.51617 8.54333-1.83333 9.16667-1.83333L40.414-1.83333C41.4278-1.83333 42.2473-1.012 42.2473 0 42.2473 1.012 41.4278 1.83333 40.414 1.83333L12.0138 1.83333 20.0017 19.4077C20.2217 19.8898 20.2217 20.4417 20.0017 20.9238L12.0138 38.5 40.5735 38.5C41.5873 38.5 42.4068 39.3195 42.4068 40.3333 42.4068 41.3472 41.5873 42.1667 40.5735 42.1667Z" transform="matrix(1 0 -0 1.02273 4.83333 4.875)"/><path d="M0 42.1667C-0.254833 42.1667-0.5115 42.1153-0.757167 42.0017-1.67933 41.5818-2.08633 40.4965-1.66833 39.5743L7.15183 20.1667-1.66833 0.759C-2.08817-0.163167-1.68117-1.25033-0.759-1.66833 0.157667-2.08817 1.2485-1.68117 1.66833-0.757167L10.835 19.4095C11.055 19.8917 11.055 20.4435 10.835 20.9257L1.66833 41.0923C1.36217 41.767 0.694833 42.1667 0 42.1667Z" transform="matrix(1 0 -0 1.02273 4.83333 4.875)"/><path d="M40.3333 15.7667 29.0547 27.5 22 20.1667 24.8197 17.2333 29.051 21.6333 37.5137 12.8333Z" transform="matrix(1 0 -0 1.02273 4.83333 4.875)"/></g></g></g><text font-family="Calibri,Calibri_MSFontService,sans-serif" font-weight="700" font-size="20" transform="translate(53.3514 23)">POSTCONDITIO<tspan x="56.7733" y="24">N</tspan><tspan font-weight="400" font-size="12" x="-46.8124" y="57">A type of business rule (</tspan><tspan font-size="12" x="70.1876" y="57">Condition</tspan><tspan font-weight="400" font-size="12" x="119.188" y="57">) </tspan><tspan font-weight="400" font-size="12" x="-46.8124" y="72">that contains a value constraint on </tspan><tspan font-weight="400" font-size="12" x="-46.8124" y="86">the permitted state of a property or </tspan><tspan font-weight="400" font-size="12" x="-46.8124" y="100">set of properties for the </tspan><tspan font-size="12" x="72.5209" y="100">Outcome</tspan><tspan font-weight="400" font-size="12" x="-46.8124" y="115">of a </tspan><tspan font-size="12" x="-25.8124" y="115">Process Task</tspan><tspan font-weight="400" font-size="12" x="37.3542" y="115">. It is also used for </tspan><tspan font-weight="400" font-size="12" x="-46.8124" y="129">the </tspan><tspan font-size="12" x="-27.8124" y="129">Exit criteria</tspan><tspan font-weight="400" font-size="12" x="31.8542" y="129">of a </tspan><tspan font-size="12" x="52.8542" y="129">Value stream </tspan><tspan font-size="12" x="-46.8124" y="144">stage</tspan><tspan font-weight="400" font-size="12" x="-20.1458" y="144">.</tspan></text></g></svg>