<svg width="265" height="265" xmlns="http://www.w3.org/2000/svg" xmlns:xlink="http://www.w3.org/1999/xlink" overflow="hidden"><defs><clipPath id="clip0"><path d="M0 0 265 0 265 265 0 265Z" fill-rule="evenodd" clip-rule="evenodd"/></clipPath></defs><g clip-path="url(#clip0)"><rect x="0" y="0" width="265" height="265" fill="#B74D41"/><text fill="#FFFFFF" font-family="Calibri,Calibri_MSFontService,sans-serif" font-weight="700" font-size="24" transform="translate(80.4581 44)">RESOURCE<tspan font-size="14" x="-48.1303" y="56">The</tspan><tspan font-size="14" x="-8.72265" y="56">people</tspan><tspan font-size="14" x="49.22" y="56">(eg</tspan><tspan font-size="14" x="85.1211" y="56">individuals,</tspan><tspan font-size="14" x="-48.1303" y="73">agents,</tspan><tspan font-size="14" x="-1.79625" y="73">companies,</tspan><tspan font-size="14" x="68.7569" y="73">organisational</tspan><tspan font-size="14" x="-48.1303" y="90">units),</tspan><tspan font-size="14" x="7.03374" y="90">things</tspan><tspan font-size="14" x="60.8553" y="90">(eg</tspan><tspan font-size="14" x="96.9768" y="90">products,</tspan><tspan font-size="14" x="-48.1303" y="107">services,</tspan><tspan font-size="14" x="15.0489" y="107">materials,</tspan><tspan font-size="14" x="86.4035" y="107">assets)</tspan><tspan font-size="14" x="139.557" y="107">or</tspan><tspan font-size="14" x="-48.1303" y="123">business</tspan><tspan font-size="14" x="9.09096" y="123">concepts</tspan><tspan font-size="14" x="67.9821" y="123">(eg</tspan><tspan font-size="14" x="86.0161" y="123">.</tspan><tspan font-size="14" x="96.8098" y="123">accounts,</tspan><tspan font-size="14" x="-48.1303" y="140">orders,</tspan><tspan font-size="14" x="18.4152" y="140">invoices,</tspan><tspan font-size="14" x="94.4721" y="140">contracts,</tspan><tspan font-size="14" x="-48.1303" y="157">warranties)</tspan><tspan font-size="14" x="23.3044" y="157">that</tspan><tspan font-size="14" x="51.6579" y="157">enable</tspan><tspan font-size="14" x="95.3738" y="157">a</tspan><tspan font-size="14" x="106.528" y="157">state</tspan><tspan font-size="14" x="140.058" y="157">of</tspan><tspan font-size="14" x="-48.1303" y="174">affairs</tspan><tspan font-size="14" x="-11.2274" y="174">.</tspan></text></g></svg>