<svg width="265" height="265" xmlns="http://www.w3.org/2000/svg" xmlns:xlink="http://www.w3.org/1999/xlink" overflow="hidden"><defs><clipPath id="clip0"><path d="M0 0 265 0 265 265 0 265Z" fill-rule="evenodd" clip-rule="evenodd"/></clipPath></defs><g clip-path="url(#clip0)"><rect x="0" y="0" width="265" height="265" fill="#D2F53C"/><text font-family="Calibri,Calibri_MSFontService,sans-serif" font-weight="700" font-size="24" transform="translate(85.384 44)">CONTROL<tspan font-size="14" x="-53.0563" y="65">Controls</tspan><tspan font-size="14" x="16.6887" y="65">govern,</tspan><tspan font-size="14" x="81.5911" y="65">guide</tspan><tspan font-size="14" x="134.631" y="65">or</tspan><tspan font-size="14" x="-53.0563" y="82">influence</tspan><tspan font-size="14" x="8.33957" y="82">business</tspan><tspan font-size="14" x="65.8948" y="82">behaviour,</tspan><tspan font-size="14" x="136.134" y="82">in</tspan><tspan font-size="14" x="-53.0563" y="99">support</tspan><tspan font-size="14" x="10.6239" y="99">of</tspan><tspan font-size="14" x="40.734" y="99">business</tspan><tspan font-size="14" x="108.916" y="99">Policy</tspan><tspan font-size="14" x="143.481" y="99">.</tspan><tspan font-size="14" x="-53.0563" y="116">Business</tspan><tspan font-size="14" x="6.16881" y="116">Rules</tspan><tspan font-size="14" x="46.525" y="116">provide</tspan><tspan font-size="14" x="100.066" y="116">specific,</tspan><tspan font-size="14" x="-53.0563" y="132">actionable</tspan><tspan font-size="14" x="37.4478" y="132">governance</tspan><tspan font-size="14" x="134.631" y="132">or</tspan><tspan font-size="14" x="-53.0563" y="149">guidance</tspan><tspan font-size="14" x="6.61632" y="149">to</tspan><tspan font-size="14" x="26.2066" y="149">implement</tspan><tspan font-size="14" x="97.0603" y="149">business</tspan><tspan font-size="14" x="-53.0563" y="166">Policies</tspan><tspan font-size="14" x="-8.9731" y="166">.</tspan></text></g></svg>