<svg width="265" height="265" xmlns="http://www.w3.org/2000/svg" xmlns:xlink="http://www.w3.org/1999/xlink" overflow="hidden"><defs><clipPath id="clip0"><path d="M0 0 265 0 265 265 0 265Z" fill-rule="evenodd" clip-rule="evenodd"/></clipPath><clipPath id="clip1"><path d="M35 51 55 51 55 71 35 71Z" fill-rule="evenodd" clip-rule="evenodd"/></clipPath><clipPath id="clip2"><path d="M35 51 55 51 55 71 35 71Z" fill-rule="evenodd" clip-rule="evenodd"/></clipPath><clipPath id="clip3"><path d="M35 51 55 51 55 71 35 71Z" fill-rule="evenodd" clip-rule="evenodd"/></clipPath><clipPath id="clip4"><path d="M214 20 225 20 225 31 214 31Z" fill-rule="evenodd" clip-rule="evenodd"/></clipPath><clipPath id="clip5"><path d="M214 20 225 20 225 31 214 31Z" fill-rule="evenodd" clip-rule="evenodd"/></clipPath><clipPath id="clip6"><path d="M214 20 225 20 225 31 214 31Z" fill-rule="evenodd" clip-rule="evenodd"/></clipPath><clipPath id="clip7"><path d="M222 42 233 42 233 54 222 54Z" fill-rule="evenodd" clip-rule="evenodd"/></clipPath><clipPath id="clip8"><path d="M222 42 233 42 233 54 222 54Z" fill-rule="evenodd" clip-rule="evenodd"/></clipPath><clipPath id="clip9"><path d="M222 42 233 42 233 54 222 54Z" fill-rule="evenodd" clip-rule="evenodd"/></clipPath><clipPath id="clip10"><path d="M223 66 234 66 234 76 223 76Z" fill-rule="evenodd" clip-rule="evenodd"/></clipPath><clipPath id="clip11"><path d="M223 66 234 66 234 76 223 76Z" fill-rule="evenodd" clip-rule="evenodd"/></clipPath><clipPath id="clip12"><path d="M223 66 234 66 234 76 223 76Z" fill-rule="evenodd" clip-rule="evenodd"/></clipPath><clipPath id="clip13"><path d="M214 91 225 91 225 102 214 102Z" fill-rule="evenodd" clip-rule="evenodd"/></clipPath><clipPath id="clip14"><path d="M214 91 225 91 225 102 214 102Z" fill-rule="evenodd" clip-rule="evenodd"/></clipPath><clipPath id="clip15"><path d="M214 91 225 91 225 102 214 102Z" fill-rule="evenodd" clip-rule="evenodd"/></clipPath><clipPath id="clip16"><path d="M210 111 219 111 219 122 210 122Z" fill-rule="evenodd" clip-rule="evenodd"/></clipPath><clipPath id="clip17"><path d="M210 111 219 111 219 122 210 122Z" fill-rule="evenodd" clip-rule="evenodd"/></clipPath><clipPath id="clip18"><path d="M210 111 219 111 219 122 210 122Z" fill-rule="evenodd" clip-rule="evenodd"/></clipPath><clipPath id="clip19"><path d="M215 136 225 136 225 145 215 145Z" fill-rule="evenodd" clip-rule="evenodd"/></clipPath><clipPath id="clip20"><path d="M215 136 225 136 225 145 215 145Z" fill-rule="evenodd" clip-rule="evenodd"/></clipPath><clipPath id="clip21"><path d="M215 136 225 136 225 145 215 145Z" fill-rule="evenodd" clip-rule="evenodd"/></clipPath><clipPath id="clip22"><path d="M217 160 227 160 227 171 217 171Z" fill-rule="evenodd" clip-rule="evenodd"/></clipPath><clipPath id="clip23"><path d="M217 160 227 160 227 171 217 171Z" fill-rule="evenodd" clip-rule="evenodd"/></clipPath><clipPath id="clip24"><path d="M217 160 227 160 227 171 217 171Z" fill-rule="evenodd" clip-rule="evenodd"/></clipPath><clipPath id="clip25"><path d="M218 181 228 181 228 191 218 191Z" fill-rule="evenodd" clip-rule="evenodd"/></clipPath><clipPath id="clip26"><path d="M218 181 228 181 228 191 218 191Z" fill-rule="evenodd" clip-rule="evenodd"/></clipPath><clipPath id="clip27"><path d="M218 181 228 181 228 191 218 191Z" fill-rule="evenodd" clip-rule="evenodd"/></clipPath><clipPath id="clip28"><path d="M223 205 235 205 235 214 223 214Z" fill-rule="evenodd" clip-rule="evenodd"/></clipPath><clipPath id="clip29"><path d="M223 205 235 205 235 214 223 214Z" fill-rule="evenodd" clip-rule="evenodd"/></clipPath><clipPath id="clip30"><path d="M223 205 235 205 235 214 223 214Z" fill-rule="evenodd" clip-rule="evenodd"/></clipPath><clipPath id="clip31"><path d="M214 227 225 227 225 238 214 238Z" fill-rule="evenodd" clip-rule="evenodd"/></clipPath><clipPath id="clip32"><path d="M214 227 225 227 225 238 214 238Z" fill-rule="evenodd" clip-rule="evenodd"/></clipPath><clipPath id="clip33"><path d="M214 227 225 227 225 238 214 238Z" fill-rule="evenodd" clip-rule="evenodd"/></clipPath></defs><g clip-path="url(#clip0)"><rect x="0" y="0" width="265" height="265" fill="#313131"/><rect x="89.5" y="131.5" width="1.99999" height="1" stroke="#2F528F" stroke-width="1.33585" stroke-miterlimit="8" fill="#4472C4"/><path d="M23.5 9.75271C23.5 8.50859 24.5085 7.50003 25.7527 7.50003L249.247 7.50003C250.491 7.50003 251.5 8.50859 251.5 9.75271L251.5 249.247C251.5 250.491 250.491 251.5 249.247 251.5L25.7527 251.5C24.5085 251.5 23.5 250.491 23.5 249.247Z" stroke="#FF0000" stroke-width="0.667927" stroke-miterlimit="8" stroke-opacity="0" fill="none" fill-rule="evenodd"/><path d="M30.0794 43.5 149.921 43.5C153.002 43.5 155.5 45.998 155.5 49.0794L155.5 214.252C155.5 216.598 153.598 218.5 151.252 218.5L28.7483 218.5C26.402 218.5 24.5 216.598 24.5 214.252L24.5 49.0794C24.5 45.998 26.998 43.5 30.0794 43.5Z" stroke="#F032E6" stroke-width="4.67549" stroke-miterlimit="8" fill="#FFFFFF" fill-rule="evenodd"/><g clip-path="url(#clip1)"><g clip-path="url(#clip2)"><g clip-path="url(#clip3)"><path d="M51.625 59.9166 37.375 59.9166C36.938 59.9166 36.5833 60.2713 36.5833 60.7083L36.5833 63.875C36.5833 64.3128 36.938 64.6666 37.375 64.6666L38.1667 64.6666 38.1667 69.4167C38.1667 69.8545 38.5213 70.2083 38.9583 70.2083L50.0417 70.2083C50.4795 70.2083 50.8334 69.8545 50.8334 69.4167L50.8334 64.6666 51.625 64.6666C52.0628 64.6666 52.4167 64.3128 52.4167 63.875L52.4167 60.7083C52.4167 60.2713 52.0628 59.9166 51.625 59.9166ZM49.25 68.625 39.75 68.625 39.75 64.6666 49.25 64.6666 49.25 68.625ZM50.8334 63.0833 50.0417 63.0833 38.9583 63.0833 38.1667 63.0833 38.1667 61.5 50.8334 61.5 50.8334 63.0833Z"/><path d="M43.915 58.8819C44.0757 59.0434 44.2879 59.125 44.5 59.125 44.7114 59.125 44.9228 59.0434 45.0843 58.8819L47.4237 56.5394C47.7467 56.2148 47.7467 55.6915 47.4237 55.3677L45.0843 53.0244C44.7739 52.7132 44.2253 52.7132 43.915 53.0244L41.5756 55.3677C41.2518 55.6915 41.2518 56.2148 41.5756 56.5394L43.915 58.8819ZM44.5 54.7827 45.6701 55.9535 44.5 57.1252 43.3299 55.9535 44.5 54.7827Z"/></g></g></g><path d="M26.9702 6.36947C18.5628 6.36947 11.7473 10.3112 11.7473 15.1736L11.7473 248.948C11.7473 253.81 18.5628 257.752 26.9702 257.752L238.08 257.752C246.487 257.752 253.302 253.81 253.302 248.948L253.302 15.1736C253.302 10.3112 246.487 6.36947 238.08 6.36947ZM0 0 265 0 265 265 0 265Z" fill="#F032E6" fill-rule="evenodd"/><text font-family="Calibri,Calibri_MSFontService,sans-serif" font-weight="700" font-size="11" transform="translate(84.065 63)">VALUE <tspan x="-16.1972" y="13">PROPOSITION</tspan><tspan font-weight="400" font-size="9" x="-52.7747" y="57">A commitment, or promise, </tspan><tspan font-weight="400" font-size="9" x="-52.7747" y="68">to deliver stated benefits to </tspan><tspan font-weight="400" font-size="9" x="-52.7747" y="79">customers, where the </tspan><tspan font-weight="400" font-size="9" x="-52.7747" y="90">benefits are derived from </tspan><tspan font-weight="400" font-size="9" x="-52.7747" y="102">provided goods and/or </tspan><tspan font-weight="400" font-size="9" x="-52.7747" y="113">services.</tspan></text><path d="M214.5 23.5C214.5 22.9477 214.948 22.5 215.5 22.5L247.5 22.5C248.052 22.5 248.5 22.9477 248.5 23.5L248.5 27.5C248.5 28.0523 248.052 28.5 247.5 28.5L215.5 28.5C214.948 28.5 214.5 28.0523 214.5 27.5Z" stroke="#911EB4" stroke-width="1.33585" stroke-miterlimit="8" fill="#FFFFFF" fill-rule="evenodd"/><text font-family="Calibri,Calibri_MSFontService,sans-serif" font-weight="700" font-size="5" transform="translate(226.123 26)">OFFERING</text><g clip-path="url(#clip4)"><g clip-path="url(#clip5)"><g clip-path="url(#clip6)"><path d="M223.75 24.1667 216.25 24.1667C216.02 24.1667 215.833 24.3534 215.833 24.5834L215.833 26.25C215.833 26.4804 216.02 26.6667 216.25 26.6667L216.667 26.6667 216.667 29.1667C216.667 29.3971 216.853 29.5834 217.083 29.5834L222.917 29.5834C223.147 29.5834 223.333 29.3971 223.333 29.1667L223.333 26.6667 223.75 26.6667C223.98 26.6667 224.167 26.4804 224.167 26.25L224.167 24.5834C224.167 24.3538 223.98 24.1667 223.75 24.1667ZM222.5 28.75 217.5 28.75 217.5 26.6667 222.5 26.6667 222.5 28.75ZM223.333 25.8334 222.917 25.8334 217.083 25.8334 216.667 25.8334 216.667 25 223.333 25 223.333 25.8334Z"/><path d="M216.961 22.3784 217.5 21.8396 217.5 22.9167C217.5 23.1467 217.687 23.3334 217.917 23.3334 218.147 23.3334 218.333 23.1467 218.333 22.9167L218.333 21.8396 218.872 22.3784C218.953 22.4592 219.06 22.5 219.167 22.5 219.273 22.5 219.38 22.4592 219.461 22.378 219.624 22.215 219.624 21.9517 219.461 21.7888L218.211 20.5388C218.048 20.3759 217.785 20.3759 217.622 20.5388L216.372 21.7888C216.209 21.9517 216.209 22.215 216.372 22.378 216.535 22.5409 216.798 22.5413 216.961 22.3784Z"/><path d="M221.128 22.3784 221.667 21.8396 221.667 22.9167C221.667 23.1467 221.853 23.3334 222.083 23.3334 222.314 23.3334 222.5 23.1467 222.5 22.9167L222.5 21.8396 223.039 22.3784C223.12 22.4592 223.227 22.5 223.333 22.5 223.44 22.5 223.547 22.4592 223.628 22.378 223.791 22.215 223.791 21.9517 223.628 21.7888L222.378 20.5388C222.215 20.3759 221.952 20.3759 221.789 20.5388L220.539 21.7888C220.376 21.9517 220.376 22.215 220.539 22.378 220.702 22.5409 220.965 22.5413 221.128 22.3784Z"/></g></g></g><path d="M222.5 46.5C222.5 45.9478 222.948 45.5 223.5 45.5L247.5 45.5C248.052 45.5 248.5 45.9478 248.5 46.5L248.5 50.5C248.5 51.0522 248.052 51.5 247.5 51.5L223.5 51.5C222.948 51.5 222.5 51.0522 222.5 50.5Z" stroke="#911EB4" stroke-width="1.33585" stroke-miterlimit="8" fill="#FFFFFF" fill-rule="evenodd"/><text font-family="Calibri,Calibri_MSFontService,sans-serif" font-weight="700" font-size="5" transform="translate(233.535 49)">PLACE</text><g clip-path="url(#clip7)"><g clip-path="url(#clip8)"><g clip-path="url(#clip9)"><path d="M5.25005 2.81252C5.25005 3.22674 4.91426 3.56253 4.50004 3.56253 4.08582 3.56253 3.75003 3.22674 3.75003 2.81252 3.75003 2.39831 4.08582 2.06252 4.50004 2.06252 4.91426 2.06252 5.25005 2.39831 5.25005 2.81252Z" transform="matrix(1 0 -0 1.11111 223 43)"/><path d="M8.25007 7.68757 4.91592 7.68757C5.3048 6.88206 6.75006 3.81416 6.75006 2.81252 6.75006 1.57164 5.74093 0.562505 4.50004 0.562505 3.25915 0.562505 2.25002 1.57164 2.25002 2.81252 2.25002 3.81416 3.69528 6.88206 4.08341 7.68757L0.750007 7.68757C0.543005 7.68757 0.375003 7.85519 0.375003 8.06257 0.375003 8.26995 0.543005 8.43757 0.750007 8.43757L8.25007 8.43757C8.45745 8.43757 8.62508 8.26995 8.62508 8.06257 8.62508 7.85519 8.45745 7.68757 8.25007 7.68757ZM4.50004 1.31251C5.3273 1.31251 6.00005 1.98527 6.00005 2.81252 6.00005 3.40128 5.18105 5.35167 4.50004 6.81568 3.81866 5.35167 3.00003 3.40165 3.00003 2.81252 3.00003 1.98527 3.67278 1.31251 4.50004 1.31251Z" transform="matrix(1 0 -0 1.11111 223 43)"/></g></g></g><path d="M223.5 69.5C223.5 68.9477 223.948 68.5 224.5 68.5L247.5 68.5C248.052 68.5 248.5 68.9477 248.5 69.5L248.5 73.4999C248.5 74.0522 248.052 74.5 247.5 74.5L224.5 74.5C223.948 74.5 223.5 74.0522 223.5 73.4999Z" stroke="#911EB4" stroke-width="1.33585" stroke-miterlimit="8" fill="#FFFFFF" fill-rule="evenodd"/><text font-family="Calibri,Calibri_MSFontService,sans-serif" font-weight="700" font-size="5" transform="translate(234.566 72)">PRICE</text><g clip-path="url(#clip10)"><g clip-path="url(#clip11)"><g clip-path="url(#clip12)"><path d="M6.25355 4.78992C5.9228 4.55554 5.43567 4.36766 4.79254 4.22516 4.34479 4.11229 4.02904 4.00578 3.84678 3.90453 3.66341 3.80403 3.57191 3.67466 3.57191 3.51716 3.57191 3.34503 3.65741 3.20365 3.82803 3.09303 3.99866 2.9824 4.24054 2.92728 4.55291 2.92728 4.87842 2.92728 5.13117 2.99365 5.31117 3.1264 5.49117 3.25915 5.58155 3.43315 5.58155 3.64803L6.71443 3.64803 6.72231 3.62891C6.73543 3.23103 6.54118 2.8969 6.13768 2.62577 5.80168 2.39965 5.3768 2.27327 4.87504 2.23614L4.87504 1.12501C4.87504 0.918008 4.70742 0.750007 4.50004 0.750007 4.29266 0.750007 4.12504 0.918008 4.12504 1.12501L4.12504 2.24177C3.69041 2.28677 3.3199 2.39965 3.01315 2.58152 2.6059 2.82265 2.40265 3.13353 2.40265 3.51416 2.40265 3.89478 2.5804 4.19441 2.93478 4.41341 3.2899 4.63242 3.81453 4.82142 4.50791 4.98117 4.90579 5.07679 5.18405 5.1788 5.34305 5.28717 5.50205 5.39555 5.58117 5.53917 5.58117 5.7173 5.58117 5.89168 5.4968 6.0308 5.32917 6.1343 5.1608 6.23893 4.91779 6.29105 4.60054 6.29105 4.22141 6.29105 3.92591 6.22655 3.71403 6.09755 3.50216 5.96893 3.39565 5.76643 3.39565 5.49042L2.25864 5.49042 2.25077 5.50955C2.23727 5.97905 2.46677 6.34506 2.93928 6.60531 3.2899 6.79881 3.68516 6.91956 4.12504 6.96981L4.12504 7.87507C4.12504 8.08245 4.29266 8.25007 4.50004 8.25007 4.70742 8.25007 4.87504 8.08245 4.87504 7.87507L4.87504 6.98406C5.39292 6.95481 5.82455 6.84793 6.1598 6.65256 6.55318 6.42268 6.75006 6.10918 6.75006 5.7113 6.75006 5.33105 6.58468 5.02354 6.25355 4.78992Z" transform="matrix(1 0 -0 1.1111 224 66)"/></g></g></g><path d="M214.5 91.6667C214.5 90.4701 215.47 89.5 216.667 89.5L246.333 89.5C247.53 89.5 248.5 90.4701 248.5 91.6667L248.5 100.333C248.5 101.53 247.53 102.5 246.333 102.5L216.667 102.5C215.47 102.5 214.5 101.53 214.5 100.333Z" stroke="#911EB4" stroke-width="1.33585" stroke-miterlimit="8" fill="#FFFFFF" fill-rule="evenodd"/><text font-family="Calibri,Calibri_MSFontService,sans-serif" font-weight="700" font-size="5" transform="translate(226.306 94)">PRODUCT<tspan x="0" y="6">FEATURE</tspan></text><g clip-path="url(#clip13)"><g clip-path="url(#clip14)"><g clip-path="url(#clip15)"><path d="M223.75 95.1667 216.25 95.1667C216.02 95.1667 215.833 95.3534 215.833 95.5834L215.833 97.25C215.833 97.4804 216.02 97.6667 216.25 97.6667L216.667 97.6667 216.667 100.167C216.667 100.397 216.853 100.583 217.083 100.583L222.917 100.583C223.147 100.583 223.333 100.397 223.333 100.167L223.333 97.6667 223.75 97.6667C223.98 97.6667 224.167 97.4804 224.167 97.25L224.167 95.5834C224.167 95.3534 223.98 95.1667 223.75 95.1667ZM222.5 99.75 217.5 99.75 217.5 97.6667 222.5 97.6667 222.5 99.75ZM223.333 96.8334 222.917 96.8334 217.083 96.8334 216.667 96.8334 216.667 96 223.333 96 223.333 96.8334Z"/><path d="M219.69 94.1954C219.769 94.2834 219.882 94.3334 220 94.3334 220.118 94.3334 220.231 94.2834 220.31 94.1954L221.56 92.8067C221.662 92.6925 221.693 92.5313 221.642 92.3871L221.392 91.6925C221.332 91.5271 221.176 91.4167 221 91.4167L219 91.4167C218.824 91.4167 218.667 91.5271 218.608 91.6921L218.358 92.3867C218.306 92.5309 218.337 92.6925 218.44 92.8063L219.69 94.1954ZM219.293 92.25 220.707 92.25 220.774 92.4342 220 93.2938 219.227 92.4346 219.293 92.25Z"/></g></g></g><path d="M209.5 115.5C209.5 114.948 209.948 114.5 210.5 114.5L247.5 114.5C248.052 114.5 248.5 114.948 248.5 115.5L248.5 119.5C248.5 120.052 248.052 120.5 247.5 120.5L210.5 120.5C209.948 120.5 209.5 120.052 209.5 119.5Z" stroke="#911EB4" stroke-width="1.33585" stroke-miterlimit="8" fill="#FFFFFF" fill-rule="evenodd"/><text font-family="Calibri,Calibri_MSFontService,sans-serif" font-weight="700" font-size="5" transform="translate(220.505 118)">PROMOTION</text><g clip-path="url(#clip16)"><g clip-path="url(#clip17)"><g clip-path="url(#clip18)"><path d="M4.12499 5.29536 2.73449 5.99998 2.99999 4.50749 1.87499 3.45074 3.42974 3.23287 4.12499 1.87499 4.82024 3.23287 6.37498 3.45074 5.24998 4.50749 5.51548 5.99998Z" transform="matrix(1 0 -0 1.11111 210.375 112.417)"/><path d="M4.12499 8.24998C1.85062 8.24998 0 6.39898 0 4.12499 0 1.85062 1.85062 0 4.12499 0 6.39898 0 8.24998 1.85062 8.24998 4.12499 8.24998 6.39898 6.39898 8.24998 4.12499 8.24998ZM4.12499 0.749998C2.26424 0.749998 0.749998 2.26424 0.749998 4.12499 0.749998 5.98611 2.26424 7.49998 4.12499 7.49998 5.98611 7.49998 7.49998 5.98611 7.49998 4.12499 7.49998 2.26424 5.98611 0.749998 4.12499 0.749998Z" transform="matrix(1 0 -0 1.11111 210.375 112.417)"/></g></g></g><path d="M215.5 138.5C215.5 137.948 215.948 137.5 216.5 137.5L247.5 137.5C248.052 137.5 248.5 137.948 248.5 138.5L248.5 142.5C248.5 143.052 248.052 143.5 247.5 143.5L216.5 143.5C215.948 143.5 215.5 143.052 215.5 142.5Z" stroke="#911EB4" stroke-width="1.33585" stroke-miterlimit="8" fill="#FFFFFF" fill-rule="evenodd"/><text font-family="Calibri,Calibri_MSFontService,sans-serif" font-weight="700" font-size="5" transform="translate(226.633 141)">SEGMENT</text><g clip-path="url(#clip19)"><g clip-path="url(#clip20)"><g clip-path="url(#clip21)"><path d="M219 140.852C218.173 140.852 217.5 140.182 217.5 139.359 217.5 138.535 218.173 137.866 219 137.866 219.827 137.866 220.5 138.535 220.5 139.359 220.5 140.182 219.827 140.852 219 140.852ZM219 138.616C218.586 138.616 218.25 138.949 218.25 139.359 218.25 139.768 218.586 140.101 219 140.101 219.414 140.101 219.75 139.768 219.75 139.359 219.75 138.949 219.414 138.616 219 138.616Z"/><path d="M222.375 139.361C221.548 139.361 220.875 138.691 220.875 137.868 220.875 137.045 221.548 136.375 222.375 136.375 223.202 136.375 223.875 137.045 223.875 137.868 223.875 138.691 223.202 139.361 222.375 139.361ZM222.375 137.125C221.961 137.125 221.625 137.458 221.625 137.868 221.625 138.277 221.961 138.611 222.375 138.611 222.789 138.611 223.125 138.277 223.125 137.868 223.125 137.458 222.789 137.125 222.375 137.125Z"/><path d="M221.25 144.625C221.043 144.625 220.875 144.457 220.875 144.25L220.875 143.108C220.875 142.686 220.528 142.342 220.103 142.342L217.897 142.342C217.471 142.342 217.125 142.686 217.125 143.108L217.125 144.25C217.125 144.457 216.957 144.625 216.75 144.625 216.543 144.625 216.375 144.457 216.375 144.25L216.375 143.108C216.375 142.273 217.058 141.592 217.897 141.592L220.103 141.592C220.942 141.592 221.625 142.272 221.625 143.108L221.625 144.25C221.625 144.457 221.457 144.625 221.25 144.625Z"/><path d="M224.625 143.134C224.418 143.134 224.25 142.966 224.25 142.759L224.25 141.618C224.25 141.195 223.901 140.851 223.473 140.851L221.25 140.851C221.043 140.851 220.875 140.684 220.875 140.476 220.875 140.269 221.043 140.101 221.25 140.101L223.473 140.101C224.315 140.101 225 140.782 225 141.617L225 142.759C225 142.966 224.832 143.134 224.625 143.134Z"/></g></g></g><path d="M217.5 161.5C217.5 160.395 218.395 159.5 219.5 159.5L246.5 159.5C247.605 159.5 248.5 160.395 248.5 161.5L248.5 169.5C248.5 170.605 247.605 171.5 246.5 171.5L219.5 171.5C218.395 171.5 217.5 170.605 217.5 169.5Z" stroke="#F032E6" stroke-width="1.33585" stroke-miterlimit="8" fill="#FFFFFF" fill-rule="evenodd"/><text font-family="Calibri,Calibri_MSFontService,sans-serif" font-weight="700" font-size="5" transform="translate(228.966 163)">VALUE<tspan x="0" y="6">STREAM</tspan></text><g clip-path="url(#clip22)"><g clip-path="url(#clip23)"><g clip-path="url(#clip24)"><path d="M7.1321 8.6246 1.12537 8.6246C0.981372 8.6246 0.850123 8.54173 0.787498 8.41235 0.724873 8.28223 0.742498 8.1281 0.832498 8.0156L1.39425 7.3121 0.832123 6.60861C0.742123 6.49611 0.724498 6.34198 0.787123 6.21186 0.850123 6.08211 0.981372 5.99961 1.12537 5.99961L7.1321 5.99961C7.24685 5.99961 7.35485 6.05248 7.42535 6.14173L8.16898 7.07923C8.27735 7.21535 8.27735 7.40885 8.16898 7.54498L7.42535 8.48248C7.35373 8.57172 7.2461 8.6246 7.1321 8.6246ZM1.90499 7.8746 6.9506 7.8746 7.39685 7.3121 6.9506 6.74961 1.90499 6.74961 2.16749 7.0781C2.27699 7.21498 2.27699 7.40923 2.16749 7.5461L1.90499 7.8746Z" transform="matrix(1 0 -0 1.11111 218 160)"/><path d="M4.49999 5.24961 4.49999 5.24961C4.40024 5.24961 4.30499 5.21061 4.23486 5.13974L2.36024 3.26287C2.21362 3.11624 2.21362 2.87924 2.36024 2.73224L4.23486 0.855372C4.37549 0.714748 4.62411 0.714373 4.76511 0.855372L6.64048 2.73224C6.71098 2.80274 6.75035 2.89799 6.75035 2.99737 6.75035 3.09674 6.71098 3.19274 6.64048 3.26287L4.76511 5.13974C4.69536 5.21061 4.59974 5.24961 4.49999 5.24961ZM3.15562 2.99737 4.49999 4.34324 5.84511 2.99737 4.49999 1.6515 3.15562 2.99737Z" transform="matrix(1 0 -0 1.11111 218 160)"/></g></g></g><path d="M218.5 184.5C218.5 183.948 218.948 183.5 219.5 183.5L247.5 183.5C248.052 183.5 248.5 183.948 248.5 184.5L248.5 188.5C248.5 189.052 248.052 189.5 247.5 189.5L219.5 189.5C218.948 189.5 218.5 189.052 218.5 188.5Z" stroke="#FABEBE" stroke-width="1.33585" stroke-miterlimit="8" fill="#FFFFFF" fill-rule="evenodd"/><text font-family="Calibri,Calibri_MSFontService,sans-serif" font-weight="700" font-size="5" transform="translate(229.582 187)">BENEFIT</text><g clip-path="url(#clip25)"><g clip-path="url(#clip26)"><g clip-path="url(#clip27)"><path d="M221.062 188.937C221.158 188.937 221.254 188.901 221.328 188.828L225.937 184.218 225.937 184.904C225.937 185.111 226.105 185.279 226.312 185.279 226.52 185.279 226.687 185.111 226.687 184.904L226.687 183.312C226.687 183.264 226.678 183.215 226.659 183.169 226.62 183.077 226.548 183.005 226.456 182.966 226.41 182.947 226.361 182.937 226.312 182.937L224.721 182.937C224.514 182.937 224.346 183.105 224.346 183.312 224.346 183.519 224.514 183.687 224.721 183.687L225.407 183.687 220.797 188.297C220.651 188.444 220.651 188.681 220.797 188.828 220.87 188.901 220.966 188.937 221.062 188.937Z"/><path d="M227.25 189.5 220.125 189.5 220.125 182.75C220.125 182.543 219.957 182.375 219.75 182.375 219.543 182.375 219.375 182.543 219.375 182.75L219.375 189.875C219.375 190.082 219.543 190.25 219.75 190.25L227.25 190.25C227.457 190.25 227.625 190.082 227.625 189.875 227.625 189.668 227.457 189.5 227.25 189.5Z"/></g></g></g><path d="M223.5 207.5C223.5 206.948 223.948 206.5 224.5 206.5L247.5 206.5C248.052 206.5 248.5 206.948 248.5 207.5L248.5 211.5C248.5 212.052 248.052 212.5 247.5 212.5L224.5 212.5C223.948 212.5 223.5 212.052 223.5 211.5Z" stroke="#FABEBE" stroke-width="1.33585" stroke-miterlimit="8" fill="#FFFFFF" fill-rule="evenodd"/><text font-family="Calibri,Calibri_MSFontService,sans-serif" font-weight="700" font-size="5" transform="translate(235.082 210)">NEED</text><g clip-path="url(#clip28)"><g clip-path="url(#clip29)"><g clip-path="url(#clip30)"><path d="M7.12048 1.87499 6.74623 1.87499C6.74623 1.46137 6.40986 1.125 5.99623 1.125L5.62198 1.125C5.62198 0.711373 5.28598 0.374999 4.87236 0.374999L4.49774 0.374999C4.08411 0.374999 3.74811 0.711373 3.74811 1.125L3.37386 1.125C2.96062 1.125 2.62424 1.46137 2.62424 1.87499L2.62424 2.99999 2.24962 2.99999C1.83637 2.99999 1.5 3.33637 1.5 3.74999L1.5 5.99998C1.5 6.07498 1.5225 6.14473 1.56112 6.20323L2.28824 7.6781C2.35124 7.80635 2.48174 7.88735 2.62462 7.88735L6.74623 7.88735C6.88873 7.88735 7.01885 7.80635 7.08223 7.67885L7.83635 6.15861C7.8701 6.09073 7.88098 6.01536 7.87123 5.94298L7.87123 2.62499C7.86973 2.21137 7.5341 1.87499 7.12048 1.87499ZM7.11973 5.91373 6.51336 7.13735 2.85749 7.13735 2.24999 5.90473 2.24962 3.74999 2.62424 3.74999 2.62424 5.24998C2.62424 5.45736 2.79224 5.62498 2.99924 5.62498 3.20624 5.62498 3.37424 5.45736 3.37424 5.24998L3.37424 1.87499 3.74849 1.87499 3.74849 4.12499C3.74849 4.33199 3.91611 4.49999 4.12349 4.49999 4.33086 4.49999 4.49849 4.33199 4.49849 4.12499L4.49849 1.125 4.87236 1.125 4.87236 1.87499 4.87236 4.12499C4.87236 4.33199 5.03961 4.49999 5.24736 4.49999 5.45473 4.49999 5.62236 4.33199 5.62236 4.12499L5.62236 1.87499 5.99661 1.87499 5.99661 2.62499 5.99661 4.12499C5.99661 4.33199 6.16386 4.49999 6.37161 4.49999 6.57898 4.49999 6.7466 4.33199 6.7466 4.12499L6.7466 2.62499 7.12048 2.62499 7.12048 5.91373 7.11973 5.91373Z" transform="matrix(1.11112 0 -0 1 224 205)"/><path d="M7.12048 8.24998 2.24962 8.24998C2.04262 8.24998 1.87462 8.4176 1.87462 8.62497 1.87462 8.83235 2.04262 8.99997 2.24962 8.99997L7.12048 8.99997C7.32785 8.99997 7.49548 8.83235 7.49548 8.62497 7.49548 8.4176 7.32785 8.24998 7.12048 8.24998Z" transform="matrix(1.11112 0 -0 1 224 205)"/></g></g></g><path d="M214.5 230.5C214.5 229.948 214.948 229.5 215.5 229.5L247.5 229.5C248.052 229.5 248.5 229.948 248.5 230.5L248.5 234.5C248.5 235.052 248.052 235.5 247.5 235.5L215.5 235.5C214.948 235.5 214.5 235.052 214.5 234.5Z" stroke="#FABEBE" stroke-width="1.33585" stroke-miterlimit="8" fill="#FFFFFF" fill-rule="evenodd"/><text font-family="Calibri,Calibri_MSFontService,sans-serif" font-weight="700" font-size="5" transform="translate(225.953 233)">SCENARIO</text><g clip-path="url(#clip31)"><g clip-path="url(#clip32)"><g clip-path="url(#clip33)"><path d="M8.62508 1.12501 8.25007 1.12501 8.25007 0.750007C8.25007 0.543005 8.08245 0.375003 7.87507 0.375003L1.12501 0.375003C0.918008 0.375003 0.750007 0.543005 0.750007 0.750007L0.750007 1.12501 0.375003 1.12501C0.168001 1.12501 0 1.29301 0 1.50001 0 1.70701 0.168001 1.87502 0.375003 1.87502L0.750007 1.87502 0.750007 2.25002C0.750007 2.45702 0.918008 2.62502 1.12501 2.62502L1.50001 2.62502 1.50001 8.25007C1.50001 8.45745 1.66801 8.62508 1.87502 8.62508L7.12506 8.62508C7.33244 8.62508 7.50007 8.45745 7.50007 8.25007L7.50007 2.62502 7.87507 2.62502C8.08245 2.62502 8.25007 2.45702 8.25007 2.25002L8.25007 1.87502 8.62508 1.87502C8.83245 1.87502 9.00008 1.70701 9.00008 1.50001 9.00008 1.29301 8.83245 1.12501 8.62508 1.12501ZM6.75006 7.87507 2.25002 7.87507 2.25002 2.62502 6.75006 2.62502 6.75006 7.87507ZM7.50007 1.87502 7.12506 1.87502 1.87502 1.87502 1.50001 1.87502 1.50001 1.12501 7.50007 1.12501 7.50007 1.87502Z" transform="matrix(1.1111 0 -0 1 215 228)"/><path d="M3.37503 4.12504 5.62505 4.12504C5.83243 4.12504 6.00005 3.95703 6.00005 3.75003 6.00005 3.54303 5.83243 3.37503 5.62505 3.37503L3.37503 3.37503C3.16803 3.37503 3.00003 3.54303 3.00003 3.75003 3.00003 3.95703 3.16803 4.12504 3.37503 4.12504Z" transform="matrix(1.1111 0 -0 1 215 228)"/><path d="M3.37503 5.62505 4.87504 5.62505C5.08242 5.62505 5.25005 5.45742 5.25005 5.25005 5.25005 5.04267 5.08242 4.87504 4.87504 4.87504L3.37503 4.87504C3.16803 4.87504 3.00003 5.04267 3.00003 5.25005 3.00003 5.45742 3.16803 5.62505 3.37503 5.62505Z" transform="matrix(1.1111 0 -0 1 215 228)"/><path d="M3.37503 7.12506 5.62505 7.12506C5.83243 7.12506 6.00005 6.95744 6.00005 6.75006 6.00005 6.54268 5.83243 6.37506 5.62505 6.37506L3.37503 6.37506C3.16803 6.37506 3.00003 6.54268 3.00003 6.75006 3.00003 6.95744 3.16803 7.12506 3.37503 7.12506Z" transform="matrix(1.1111 0 -0 1 215 228)"/></g></g></g><path d="M166.17 137 204.83 137C209.894 137 214 139.91 214 143.5 214 147.09 209.894 150 204.83 150L166.17 150C161.106 150 157 147.09 157 143.5 157 139.91 161.106 137 166.17 137Z" fill="#313131" fill-rule="evenodd"/><text fill="#FFFFFF" font-family="Calibri,Calibri_MSFontService,sans-serif" font-weight="700" font-size="5" transform="translate(167.74 145)">&lt;Beneficiary of|</text><path d="M166.492 183 206.508 183C211.75 183 216 185.91 216 189.5 216 193.09 211.75 196 206.508 196L166.492 196C161.25 196 157 193.09 157 189.5 157 185.91 161.25 183 166.492 183Z" fill="#313131" fill-rule="evenodd"/><text fill="#FFFFFF" font-family="Calibri,Calibri_MSFontService,sans-serif" font-weight="700" font-size="5" transform="translate(181.599 192)">&lt;Of|</text><path d="M167.135 45 209.865 45C215.462 45 220 47.9101 220 51.5 220 55.0899 215.462 58 209.865 58L167.135 58C161.538 58 157 55.0899 157 51.5 157 47.9101 161.538 45 167.135 45Z" fill="#313131" fill-rule="evenodd"/><text fill="#FFFFFF" font-family="Calibri,Calibri_MSFontService,sans-serif" font-weight="700" font-size="5" transform="translate(174.92 53)">&lt;Feature of|</text><path d="M167.457 68 211.543 68C217.318 68 222 70.9101 222 74.5 222 78.0898 217.318 81 211.543 81L167.457 81C161.682 81 157 78.0898 157 74.5 157 70.9101 161.682 68 167.457 68Z" fill="#313131" fill-rule="evenodd"/><text fill="#FFFFFF" font-family="Calibri,Calibri_MSFontService,sans-serif" font-weight="700" font-size="5" transform="translate(175.588 76)">&lt;Feature of|</text><path d="M166.17 89.0001 204.83 89.0001C209.894 89.0001 214 92.134 214 96 214 99.866 209.894 103 204.83 103L166.17 103C161.106 103 157 99.866 157 96 157 92.134 161.106 89.0001 166.17 89.0001Z" fill="#313131" fill-rule="evenodd"/><text fill="#FFFFFF" font-family="Calibri,Calibri_MSFontService,sans-serif" font-weight="700" font-size="5" transform="translate(171.58 98)">&lt;Feature of|</text><path d="M165.044 114 198.956 114C203.399 114 207 116.91 207 120.5 207 124.09 203.399 127 198.956 127L165.044 127C160.601 127 157 124.09 157 120.5 157 116.91 160.601 114 165.044 114Z" fill="#313131" fill-rule="evenodd"/><text fill="#FFFFFF" font-family="Calibri,Calibri_MSFontService,sans-serif" font-weight="700" font-size="5" transform="translate(168.241 122)">&lt;Feature of|</text><path d="M167.457 206 211.543 206C217.318 206 222 208.91 222 212.5 222 216.09 217.318 219 211.543 219L167.457 219C161.682 219 157 216.09 157 212.5 157 208.91 161.682 206 167.457 206Z" fill="#313131" fill-rule="evenodd"/><text fill="#FFFFFF" font-family="Calibri,Calibri_MSFontService,sans-serif" font-weight="700" font-size="5" transform="translate(178.26 215)">&lt;Need of|</text><path d="M166.17 22 204.83 22C209.894 22 214 24.9102 214 28.5 214 32.0899 209.894 35 204.83 35L166.17 35C161.106 35 157 32.0899 157 28.5 157 24.9102 161.106 22 166.17 22Z" fill="#313131" fill-rule="evenodd"/><text fill="#FFFFFF" font-family="Calibri,Calibri_MSFontService,sans-serif" font-weight="700" font-size="5" transform="translate(171.747 30)">&lt;Offered in|</text><path d="M166.17 229 204.83 229C209.894 229 214 232.134 214 236 214 239.866 209.894 243 204.83 243L166.17 243C161.106 243 157 239.866 157 236 157 232.134 161.106 229 166.17 229Z" fill="#313131" fill-rule="evenodd"/><text fill="#FFFFFF" font-family="Calibri,Calibri_MSFontService,sans-serif" font-weight="700" font-size="5" transform="translate(180.263 238)">&lt;Of|</text><path d="M166.492 159 206.508 159C211.75 159 216 161.91 216 165.5 216 169.09 211.75 172 206.508 172L166.492 172C161.25 172 157 169.09 157 165.5 157 161.91 161.25 159 166.492 159Z" fill="#313131" fill-rule="evenodd"/><text fill="#FFFFFF" font-family="Calibri,Calibri_MSFontService,sans-serif" font-weight="700" font-size="5" transform="translate(174.419 167)">&lt;Supports|</text></g></svg>