<svg width="189" height="189" xmlns="http://www.w3.org/2000/svg" xmlns:xlink="http://www.w3.org/1999/xlink" overflow="hidden"><defs><clipPath id="clip0"><path d="M0 0 189 0 189 189 0 189Z" fill-rule="evenodd" clip-rule="evenodd"/></clipPath><clipPath id="clip1"><path d="M3 3 47 3 47 48 3 48Z" fill-rule="evenodd" clip-rule="evenodd"/></clipPath><clipPath id="clip2"><path d="M3 3 47 3 47 48 3 48Z" fill-rule="evenodd" clip-rule="evenodd"/></clipPath><clipPath id="clip3"><path d="M3 3 47 3 47 48 3 48Z" fill-rule="evenodd" clip-rule="evenodd"/></clipPath></defs><g clip-path="url(#clip0)"><rect x="0" y="0" width="189" height="189" fill="#313131"/><text fill="#FFFFFF" font-family="Calibri,Calibri_MSFontService,sans-serif" font-weight="300" font-size="11" transform="translate(9.60032 -5)">LOGICGATE</text><rect x="3.50005" y="3.50005" width="1" height="1" stroke="#2F528F" stroke-width="1.33333" stroke-miterlimit="8" fill="#4472C4"/><rect x="0" y="0" width="189" height="189" stroke="#5AA203" stroke-width="8" stroke-miterlimit="8" fill="#FFFFFF"/><g clip-path="url(#clip1)"><g clip-path="url(#clip2)"><g clip-path="url(#clip3)"><path d="M25.6667 38.5C25.0543 38.5 24.4823 38.192 24.1413 37.6842L13.1413 21.1603C12.7307 20.5425 12.7307 19.7395 13.1413 19.1217L24.1413 2.59967C24.8215 1.5785 26.5118 1.5785 27.192 2.59967L38.192 19.1217C38.6045 19.7377 38.6045 20.5407 38.192 21.1603L27.192 37.6842C26.851 38.192 26.279 38.5 25.6667 38.5ZM16.8703 20.141 25.6667 33.3538 34.463 20.1392 25.6667 6.92817 16.8703 20.141Z" transform="matrix(1 0 -0 1.02273 -0.666667 4.875)"/></g></g></g><text font-family="Calibri,Calibri_MSFontService,sans-serif" font-weight="700" font-size="20" transform="translate(70.1582 23)">LOGICGATE<tspan font-weight="400" font-size="12" x="-63.6192" y="50">A </tspan><tspan font-size="12" x="-53.9525" y="50">LogicGate</tspan><tspan font-weight="400" font-size="12" x="-2.28583" y="50">is a flow construct </tspan><tspan font-weight="400" font-size="12" x="-63.6192" y="65">indicating possible paths that the </tspan><tspan font-weight="400" font-size="12" x="-63.6192" y="79">flow could continue. </tspan><tspan font-size="12" x="38.7142" y="79">LogicGates</tspan><tspan font-weight="400" font-size="12" x="95.2142" y="79">are </tspan><tspan font-weight="400" font-size="12" x="-63.6192" y="93">associated with </tspan><tspan font-size="12" x="14.5475" y="93">Outcomes</tspan><tspan font-weight="400" font-size="12" x="68.2142" y="93">that </tspan><tspan font-weight="400" font-size="12" x="-63.6192" y="108">contain the decision logic for </tspan><tspan font-weight="400" font-size="12" x="-63.6192" y="122">determining the flow path. </tspan><tspan font-size="12" x="-63.6192" y="137">LogicGates</tspan><tspan font-weight="400" font-size="12" x="-7.11916" y="137">may be of type logical </tspan><tspan font-weight="400" font-size="12" x="-63.6192" y="151">OR, AND or XOR</tspan></text></g></svg>