<svg width="265" height="265" xmlns="http://www.w3.org/2000/svg" xmlns:xlink="http://www.w3.org/1999/xlink" overflow="hidden"><defs><clipPath id="clip0"><path d="M0 0 265 0 265 265 0 265Z" fill-rule="evenodd" clip-rule="evenodd"/></clipPath><clipPath id="clip1"><path d="M35 51 55 51 55 71 35 71Z" fill-rule="evenodd" clip-rule="evenodd"/></clipPath><clipPath id="clip2"><path d="M35 51 55 51 55 71 35 71Z" fill-rule="evenodd" clip-rule="evenodd"/></clipPath><clipPath id="clip3"><path d="M35 51 55 51 55 71 35 71Z" fill-rule="evenodd" clip-rule="evenodd"/></clipPath><clipPath id="clip4"><path d="M213 38 224 38 224 49 213 49Z" fill-rule="evenodd" clip-rule="evenodd"/></clipPath><clipPath id="clip5"><path d="M213 38 224 38 224 49 213 49Z" fill-rule="evenodd" clip-rule="evenodd"/></clipPath><clipPath id="clip6"><path d="M213 38 224 38 224 49 213 49Z" fill-rule="evenodd" clip-rule="evenodd"/></clipPath><clipPath id="clip7"><path d="M210 81 219 81 219 92 210 92Z" fill-rule="evenodd" clip-rule="evenodd"/></clipPath><clipPath id="clip8"><path d="M210 81 219 81 219 92 210 92Z" fill-rule="evenodd" clip-rule="evenodd"/></clipPath><clipPath id="clip9"><path d="M210 81 219 81 219 92 210 92Z" fill-rule="evenodd" clip-rule="evenodd"/></clipPath><clipPath id="clip10"><path d="M220 124 231 124 231 134 220 134Z" fill-rule="evenodd" clip-rule="evenodd"/></clipPath><clipPath id="clip11"><path d="M220 124 231 124 231 134 220 134Z" fill-rule="evenodd" clip-rule="evenodd"/></clipPath><clipPath id="clip12"><path d="M220 124 231 124 231 134 220 134Z" fill-rule="evenodd" clip-rule="evenodd"/></clipPath><clipPath id="clip13"><path d="M214 166 224 166 224 177 214 177Z" fill-rule="evenodd" clip-rule="evenodd"/></clipPath><clipPath id="clip14"><path d="M214 166 224 166 224 177 214 177Z" fill-rule="evenodd" clip-rule="evenodd"/></clipPath><clipPath id="clip15"><path d="M214 166 224 166 224 177 214 177Z" fill-rule="evenodd" clip-rule="evenodd"/></clipPath><clipPath id="clip16"><path d="M212 209 222 209 222 218 212 218Z" fill-rule="evenodd" clip-rule="evenodd"/></clipPath><clipPath id="clip17"><path d="M212 209 222 209 222 218 212 218Z" fill-rule="evenodd" clip-rule="evenodd"/></clipPath><clipPath id="clip18"><path d="M212 209 222 209 222 218 212 218Z" fill-rule="evenodd" clip-rule="evenodd"/></clipPath></defs><g clip-path="url(#clip0)"><rect x="0" y="0" width="265" height="265" fill="#313131"/><rect x="89.5" y="131.5" width="1.99999" height="1" stroke="#2F528F" stroke-width="1.33585" stroke-miterlimit="8" fill="#4472C4"/><path d="M23.5 9.75271C23.5 8.50859 24.5085 7.50003 25.7527 7.50003L249.247 7.50003C250.491 7.50003 251.5 8.50859 251.5 9.75271L251.5 249.247C251.5 250.491 250.491 251.5 249.247 251.5L25.7527 251.5C24.5085 251.5 23.5 250.491 23.5 249.247Z" stroke="#FF0000" stroke-width="0.667927" stroke-miterlimit="8" stroke-opacity="0" fill="none" fill-rule="evenodd"/><path d="M30.0794 43.5 149.921 43.5C153.002 43.5 155.5 45.998 155.5 49.0794L155.5 214.252C155.5 216.598 153.598 218.5 151.252 218.5L28.7483 218.5C26.402 218.5 24.5 216.598 24.5 214.252L24.5 49.0794C24.5 45.998 26.998 43.5 30.0794 43.5Z" stroke="#F58230" stroke-width="4.67549" stroke-miterlimit="8" fill="#FFFFFF" fill-rule="evenodd"/><g clip-path="url(#clip1)"><g clip-path="url(#clip2)"><g clip-path="url(#clip3)"><path d="M50.2396 56.75 46.875 56.75 46.875 55.1666 40.5417 55.1666 40.5417 54.375C40.5417 53.938 40.187 53.5833 39.75 53.5833 39.313 53.5833 38.9583 53.938 38.9583 54.375L38.9583 55.1666 38.9583 61.5 38.9583 68.625C38.9583 69.0628 39.313 69.4167 39.75 69.4167 40.187 69.4167 40.5417 69.0628 40.5417 68.625L40.5417 61.5 45.2917 61.5 45.2917 63.0833 50.2396 63.0833C51.0155 63.0833 51.625 62.3874 51.625 61.5L51.625 58.3333C51.625 57.445 51.0155 56.75 50.2396 56.75ZM40.5417 59.9166 40.5417 56.75 45.2917 56.75 45.2917 59.9166 40.5417 59.9166ZM50.0417 61.5 46.875 61.5 46.875 58.3333 50.0417 58.3333 50.0417 61.5Z"/></g></g></g><path d="M26.9702 6.36947C18.5628 6.36947 11.7473 10.3112 11.7473 15.1736L11.7473 248.948C11.7473 253.81 18.5628 257.752 26.9702 257.752L238.08 257.752C246.487 257.752 253.302 253.81 253.302 248.948L253.302 15.1736C253.302 10.3112 246.487 6.36947 238.08 6.36947ZM0 0 265 0 265 265 0 265Z" fill="#F58230" fill-rule="evenodd"/><text font-family="Calibri,Calibri_MSFontService,sans-serif" font-weight="700" font-size="11" transform="translate(86.3193 63)">GOAL<tspan font-weight="400" font-size="9" x="-55.029" y="57">A </tspan><tspan font-size="9" x="-47.5148" y="57">Goal</tspan><tspan font-weight="400" font-size="9" x="-27.31" y="57">is a statement about a </tspan><tspan font-weight="400" font-size="9" x="-55.029" y="68">desired state or condition of </tspan><tspan font-weight="400" font-size="9" x="-55.029" y="79">the enterprise to be brought </tspan><tspan font-weight="400" font-size="9" x="-55.029" y="90">about or sustained through </tspan><tspan font-weight="400" font-size="9" x="-55.029" y="102">appropriate </tspan><tspan font-size="9" x="-7.60616" y="102">Courses of </tspan><tspan font-size="9" x="-55.029" y="113">Action</tspan><tspan font-weight="400" font-size="9" x="-29.9817" y="113">.</tspan></text><path d="M213.5 42.5C213.5 41.9478 213.948 41.5 214.5 41.5L247.5 41.5C248.052 41.5 248.5 41.9478 248.5 42.5L248.5 46.5C248.5 47.0523 248.052 47.5 247.5 47.5L214.5 47.5C213.948 47.5 213.5 47.0523 213.5 46.5Z" stroke="#000080" stroke-width="1.33585" stroke-miterlimit="8" fill="#FFFFFF" fill-rule="evenodd"/><text font-family="Calibri,Calibri_MSFontService,sans-serif" font-weight="700" font-size="5" transform="translate(224.931 45)">OBJECTIVE</text><g clip-path="url(#clip4)"><g clip-path="url(#clip5)"><g clip-path="url(#clip6)"><path d="M223.461 39.5387C223.298 39.3758 223.035 39.3758 222.872 39.5387L221.635 40.7758C220.917 40.1879 219.998 39.8333 219 39.8333 216.702 39.8333 214.833 41.7025 214.833 44 214.833 45.4233 215.552 46.6816 216.644 47.4333L216.205 47.872C216.042 48.035 216.042 48.2983 216.205 48.4612 216.287 48.5425 216.393 48.5833 216.5 48.5833 216.607 48.5833 216.713 48.5425 216.795 48.4612L217.407 47.8483C217.898 48.0529 218.436 48.1666 219 48.1666 219.675 48.1666 220.311 48.0016 220.876 47.7158L221.622 48.4612C221.703 48.5425 221.81 48.5833 221.917 48.5833 222.023 48.5833 222.13 48.5425 222.211 48.4612 222.374 48.2983 222.374 48.035 222.211 47.872L221.595 47.2554C222.55 46.4912 223.167 45.3166 223.167 44 223.167 43.0016 222.812 42.0833 222.224 41.365L223.461 40.1279C223.624 39.965 223.624 39.7021 223.461 39.5387ZM222.333 44C222.333 45.8383 220.838 47.3333 219 47.3333 218.501 47.3333 218.029 47.2204 217.604 47.0233 217.549 46.9754 217.485 46.9475 217.418 46.9337 216.376 46.3691 215.667 45.2662 215.667 44 215.667 42.1621 217.162 40.6666 219 40.6666 219.769 40.6666 220.476 40.9308 221.04 41.37L220.446 41.9641C220.037 41.6737 219.539 41.5 219 41.5 217.621 41.5 216.5 42.6212 216.5 44 216.5 45.3787 217.621 46.5 219 46.5 220.379 46.5 221.5 45.3787 221.5 44 221.5 43.4612 221.327 42.9625 221.035 42.5537L221.63 41.9596C222.069 42.5241 222.333 43.2308 222.333 44ZM220.667 44C220.667 44.9196 219.919 45.6666 219 45.6666 218.081 45.6666 217.333 44.9196 217.333 44 217.333 43.0808 218.081 42.3333 219 42.3333 219.308 42.3333 219.593 42.4229 219.842 42.5696L219.213 43.1975C219.145 43.18 219.074 43.1666 219 43.1666 218.54 43.1666 218.167 43.54 218.167 44 218.167 44.46 218.54 44.8333 219 44.8333 219.46 44.8333 219.833 44.46 219.833 44 219.833 43.9258 219.821 43.8554 219.802 43.7866L220.431 43.1587C220.577 43.4071 220.667 43.6916 220.667 44Z"/></g></g></g><path d="M209.5 84.5C209.5 83.9477 209.948 83.5 210.5 83.5L247.5 83.5C248.052 83.5 248.5 83.9477 248.5 84.5L248.5 88.5C248.5 89.0523 248.052 89.5 247.5 89.5L210.5 89.5C209.948 89.5 209.5 89.0523 209.5 88.5Z" stroke="#E6194B" stroke-width="1.33585" stroke-miterlimit="8" fill="#FFFFFF" fill-rule="evenodd"/><text font-family="Calibri,Calibri_MSFontService,sans-serif" font-weight="700" font-size="5" transform="translate(220.505 87)">LEGISLATION</text><g clip-path="url(#clip7)"><g clip-path="url(#clip8)"><g clip-path="url(#clip9)"><path d="M7.87498 6.37498 6.74998 6.37498 6.74998 0.749998C6.74998 0.542998 6.58236 0.374999 6.37498 0.374999L1.125 0.374999C0.917997 0.374999 0.749998 0.542998 0.749998 0.749998L0.749998 6.74998C0.749998 7.78385 1.59112 8.62497 2.62499 8.62497L6.37498 8.62497C7.40885 8.62497 8.24998 7.78385 8.24998 6.74998 8.24998 6.54261 8.08235 6.37498 7.87498 6.37498ZM1.5 6.74998 1.5 1.125 5.99998 1.125 5.99998 6.37498 4.12499 6.37498C3.91799 6.37498 3.74999 6.54261 3.74999 6.74998 3.74999 7.37023 3.24524 7.87498 2.62499 7.87498 2.00474 7.87498 1.5 7.37023 1.5 6.74998ZM6.37498 7.87498 4.11561 7.87498C4.28099 7.65598 4.40549 7.4036 4.46211 7.12498L7.43098 7.12498C7.27498 7.56035 6.86323 7.87498 6.37498 7.87498Z" transform="matrix(1 0 -0 1.00001 210 82)"/><path d="M2.62499 2.99999 4.87499 2.99999C5.08236 2.99999 5.24998 2.83199 5.24998 2.62499 5.24998 2.41799 5.08236 2.24999 4.87499 2.24999L2.62499 2.24999C2.41799 2.24999 2.24999 2.41799 2.24999 2.62499 2.24999 2.83199 2.41799 2.99999 2.62499 2.99999Z" transform="matrix(1 0 -0 1.00001 210 82)"/><path d="M2.62499 4.49999 4.12499 4.49999C4.33236 4.49999 4.49999 4.33199 4.49999 4.12499 4.49999 3.91799 4.33236 3.74999 4.12499 3.74999L2.62499 3.74999C2.41799 3.74999 2.24999 3.91799 2.24999 4.12499 2.24999 4.33199 2.41799 4.49999 2.62499 4.49999Z" transform="matrix(1 0 -0 1.00001 210 82)"/><path d="M4.87499 5.99998C5.08236 5.99998 5.24998 5.83236 5.24998 5.62498 5.24998 5.41761 5.08236 5.24998 4.87499 5.24998L2.62499 5.24998C2.41799 5.24998 2.24999 5.41761 2.24999 5.62498 2.24999 5.83236 2.41799 5.99998 2.62499 5.99998L4.87499 5.99998Z" transform="matrix(1 0 -0 1.00001 210 82)"/></g></g></g><path d="M220.5 126.667C220.5 126.022 221.022 125.5 221.667 125.5L247.333 125.5C247.978 125.5 248.5 126.022 248.5 126.667L248.5 131.333C248.5 131.978 247.978 132.5 247.333 132.5L221.667 132.5C221.022 132.5 220.5 131.978 220.5 131.333Z" stroke="#E6194B" stroke-width="1.33585" stroke-miterlimit="8" fill="#FFFFFF" fill-rule="evenodd"/><text font-family="Calibri,Calibri_MSFontService,sans-serif" font-weight="700" font-size="5" transform="translate(231.816 130)">POLICY</text><g clip-path="url(#clip10)"><g clip-path="url(#clip11)"><g clip-path="url(#clip12)"><path d="M3.74999 8.24998 0.749998 8.24998C0.542998 8.24998 0.374999 8.08235 0.374999 7.87498L0.374999 0.374999C0.374999 0.168 0.542998 0 0.749998 0L6.74998 0C6.95735 0 7.12498 0.168 7.12498 0.374999L7.12498 3.37499C7.12498 3.58199 6.95735 3.74999 6.74998 3.74999 6.54261 3.74999 6.37498 3.58199 6.37498 3.37499L6.37498 0.749998 1.125 0.749998 1.125 7.49998 3.74999 7.49998C3.95736 7.49998 4.12499 7.6676 4.12499 7.87498 4.12499 8.08235 3.95736 8.24998 3.74999 8.24998Z" transform="matrix(1.00001 0 -0 1 221.375 124.375)"/><path d="M5.62498 8.24998C5.51361 8.24998 5.40823 8.20048 5.33623 8.11535L3.46124 5.86536C3.37799 5.76523 3.35249 5.63023 3.39336 5.50648L3.76836 4.38149C3.82049 4.22811 3.96336 4.12499 4.12499 4.12499L7.12498 4.12499C7.28698 4.12499 7.42948 4.22811 7.48048 4.38149L7.85548 5.50648C7.89673 5.63023 7.87123 5.76523 7.7876 5.86536L5.91261 8.11535C5.84173 8.20048 5.73636 8.24998 5.62498 8.24998ZM4.17186 5.54548 5.62498 7.28923 7.0781 5.54623 6.8546 4.87499 4.39499 4.87499 4.17186 5.54548Z" transform="matrix(1.00001 0 -0 1 221.375 124.375)"/><path d="M5.24998 2.62499 2.24999 2.62499C2.04299 2.62499 1.87499 2.45699 1.87499 2.24999 1.87499 2.04299 2.04299 1.87499 2.24999 1.87499L5.24998 1.87499C5.45736 1.87499 5.62498 2.04299 5.62498 2.24999 5.62498 2.45699 5.45736 2.62499 5.24998 2.62499Z" transform="matrix(1.00001 0 -0 1 221.375 124.375)"/><path d="M3.37499 4.12499 2.24999 4.12499C2.04299 4.12499 1.87499 3.95699 1.87499 3.74999 1.87499 3.54299 2.04299 3.37499 2.24999 3.37499L3.37499 3.37499C3.58236 3.37499 3.74999 3.54299 3.74999 3.74999 3.74999 3.95699 3.58236 4.12499 3.37499 4.12499Z" transform="matrix(1.00001 0 -0 1 221.375 124.375)"/><path d="M2.62499 5.62498 2.24999 5.62498C2.04299 5.62498 1.87499 5.45736 1.87499 5.24998 1.87499 5.04261 2.04299 4.87499 2.24999 4.87499L2.62199 4.87499C2.82899 4.87499 2.99849 5.04261 2.99849 5.24998 2.99849 5.45736 2.83199 5.62498 2.62499 5.62498Z" transform="matrix(1.00001 0 -0 1 221.375 124.375)"/></g></g></g><path d="M214.5 169.5C214.5 168.948 214.948 168.5 215.5 168.5L247.5 168.5C248.052 168.5 248.5 168.948 248.5 169.5L248.5 173.5C248.5 174.052 248.052 174.5 247.5 174.5L215.5 174.5C214.948 174.5 214.5 174.052 214.5 173.5Z" stroke="#E6BEFF" stroke-width="1.33585" stroke-miterlimit="8" fill="#FFFFFF" fill-rule="evenodd"/><text font-family="Calibri,Calibri_MSFontService,sans-serif" font-weight="700" font-size="5" transform="translate(225.612 172)">STRATEGY</text><g clip-path="url(#clip13)"><g clip-path="url(#clip14)"><g clip-path="url(#clip15)"><path d="M8.57585 8.06435 7.88885 5.99998 8.59872 3.86849C8.61035 3.83174 8.61635 3.79386 8.6171 3.75561 8.61672 3.75374 8.61747 3.75186 8.61747 3.74999 8.61747 3.74324 8.6141 3.73799 8.61372 3.73161 8.61222 3.70724 8.61222 3.68286 8.60585 3.65924L7.8566 0.659248C7.81498 0.491999 7.66535 0.374999 7.4936 0.374999L0.749623 0.374999C0.634123 0.374999 0.524998 0.428249 0.454499 0.519373 0.383624 0.610498 0.358124 0.728998 0.386249 0.841123L1.10925 3.73499 0.394499 5.88148C0.368999 5.95836 0.368999 6.04198 0.394499 6.11886L1.14375 8.36885C1.19475 8.52185 1.33725 8.62497 1.49925 8.62497L8.24323 8.62497C8.24623 8.62535 8.24923 8.62497 8.25073 8.62497 8.45773 8.62497 8.62497 8.45735 8.62497 8.24998 8.62497 8.18248 8.60735 8.11873 8.57585 8.06435ZM1.76924 7.87498 1.26975 6.37498 2.24812 6.37498C2.45474 6.37498 2.62274 6.20736 2.62274 5.99998 2.62274 5.79261 2.45474 5.62498 2.24812 5.62498L1.26975 5.62498 1.76924 4.12499 3.38737 4.12499C3.59399 4.12499 3.76236 3.95699 3.76236 3.74999 3.76236 3.54299 3.59436 3.37499 3.38737 3.37499L1.79174 3.37499 1.22962 1.125 7.20073 1.125 7.76285 3.37499 7.11898 3.37499C6.9116 3.37499 6.74436 3.54299 6.74436 3.74999 6.74436 3.95699 6.9116 4.12499 7.11898 4.12499L7.72235 4.12499 7.22323 5.62498 5.99473 5.62498C5.78773 5.62498 5.62011 5.79261 5.62011 5.99998 5.62011 6.20736 5.78773 6.37498 5.99473 6.37498L7.22323 6.37498 7.72235 7.87498 1.76924 7.87498Z" transform="matrix(1 0 -0 1.11111 215 166)"/><path d="M3.93449 5.62498C3.41811 5.62498 2.99774 6.04536 2.99774 6.56248 2.99774 7.0796 3.41811 7.49998 3.93449 7.49998 4.45086 7.49998 4.87124 7.0796 4.87124 6.56248 4.87124 6.04536 4.45086 5.62498 3.93449 5.62498ZM3.93449 6.74998C3.83099 6.74998 3.74699 6.66561 3.74699 6.56248 3.74699 6.45936 3.83099 6.37498 3.93449 6.37498 4.03761 6.37498 4.12199 6.45936 4.12199 6.56248 4.12199 6.66561 4.03761 6.74998 3.93449 6.74998Z" transform="matrix(1 0 -0 1.11111 215 166)"/><path d="M6.25986 2.73487 5.51061 1.98487C5.36398 1.83824 5.12699 1.83824 4.98074 1.98487 4.83411 2.13149 4.83411 2.36849 4.98074 2.51512L5.52411 3.05887 4.56224 4.67736C4.45649 4.85549 4.51461 5.08499 4.69349 5.19148 4.75311 5.22748 4.81911 5.24436 4.88436 5.24436 5.01224 5.24436 5.13673 5.17911 5.20611 5.06136L6.31723 3.19237C6.40461 3.04424 6.38061 2.85599 6.25986 2.73487Z" transform="matrix(1 0 -0 1.11111 215 166)"/><path d="M4.12161 2.62499 4.12161 1.87499C4.12161 1.668 3.95361 1.5 3.74699 1.5L2.99774 1.5C2.79074 1.5 2.62312 1.668 2.62312 1.87499L2.62312 2.62499C2.62312 2.83199 2.79112 2.99999 2.99774 2.99999L3.74736 2.99999C3.95361 2.99999 4.12161 2.83199 4.12161 2.62499Z" transform="matrix(1 0 -0 1.11111 215 166)"/></g></g></g><path d="M212.5 211.5C212.5 210.948 212.948 210.5 213.5 210.5L247.5 210.5C248.052 210.5 248.5 210.948 248.5 211.5L248.5 215.5C248.5 216.052 248.052 216.5 247.5 216.5L213.5 216.5C212.948 216.5 212.5 216.052 212.5 215.5Z" stroke="#46F0F0" stroke-width="1.33585" stroke-miterlimit="8" fill="#FFFFFF" fill-rule="evenodd"/><text font-family="Calibri,Calibri_MSFontService,sans-serif" font-weight="700" font-size="5" transform="translate(223.229 214)">MILESTONE</text><g clip-path="url(#clip16)"><g clip-path="url(#clip17)"><g clip-path="url(#clip18)"><path d="M8.24998 7.49998 7.49998 7.49998 7.49998 1.96687 4.49999 0.322499 1.5 1.96687 1.5 7.49998 0.749998 7.49998C0.542998 7.49998 0.374999 7.6676 0.374999 7.87498 0.374999 8.08235 0.542998 8.24998 0.749998 8.24998L1.5 8.24998 7.49998 8.24998 8.24998 8.24998C8.45735 8.24998 8.62497 8.08235 8.62497 7.87498 8.62497 7.6676 8.45735 7.49998 8.24998 7.49998ZM2.24999 2.41087 4.12499 1.383 4.12499 7.49998 2.24999 7.49998 2.24999 2.41087ZM4.87499 7.49998 4.87499 1.383 6.74998 2.41087 6.74998 7.49998 4.87499 7.49998Z" transform="matrix(1.11111 0 -0 1 212 209.375)"/></g></g></g><path d="M166.974 125 209.025 125C214.534 125 219 128.134 219 132 219 135.866 214.534 139 209.025 139L166.974 139C161.466 139 157 135.866 157 132 157 128.134 161.466 125 166.974 125Z" fill="#313131" fill-rule="evenodd"/><text fill="#FFFFFF" font-family="Calibri,Calibri_MSFontService,sans-serif" font-weight="700" font-size="5" transform="translate(173 134)">|Directed by&gt;</text><path d="M165.044 83 198.956 83C203.399 83 207 86.134 207 90 207 93.866 203.399 97 198.956 97L165.044 97C160.601 97 157 93.866 157 90 157 86.134 160.601 83 165.044 83Z" fill="#313131" fill-rule="evenodd"/><text fill="#FFFFFF" font-family="Calibri,Calibri_MSFontService,sans-serif" font-weight="700" font-size="5" transform="translate(166.988 92)">|Directed by&gt;</text><path d="M165.527 210 201.473 210C206.183 210 210 212.91 210 216.5 210 220.09 206.183 223 201.473 223L165.527 223C160.817 223 157 220.09 157 216.5 157 212.91 160.817 210 165.527 210Z" fill="#313131" fill-rule="evenodd"/><text fill="#FFFFFF" font-family="Calibri,Calibri_MSFontService,sans-serif" font-weight="700" font-size="5" transform="translate(169.576 218)">|Feature of&gt;</text><path d="M165.848 41 203.152 41C208.038 41 212 43.9101 212 47.5 212 51.0899 208.038 54.0001 203.152 54.0001L165.848 54.0001C160.962 54.0001 157 51.0899 157 47.5 157 43.9101 160.962 41 165.848 41Z" fill="#313131" fill-rule="evenodd"/><text fill="#FFFFFF" font-family="Calibri,Calibri_MSFontService,sans-serif" font-weight="700" font-size="5" transform="translate(163.565 49)">|Substantiated by&gt;</text><path d="M165.848 168 203.152 168C208.038 168 212 170.91 212 174.5 212 178.09 208.038 181 203.152 181L165.848 181C160.962 181 157 178.09 157 174.5 157 170.91 160.962 168 165.848 168Z" fill="#313131" fill-rule="evenodd"/><text fill="#FFFFFF" font-family="Calibri,Calibri_MSFontService,sans-serif" font-weight="700" font-size="5" transform="translate(168.157 176)">|Sustained by&gt;</text></g></svg>