<svg width="265" height="265" xmlns="http://www.w3.org/2000/svg" xmlns:xlink="http://www.w3.org/1999/xlink" overflow="hidden"><defs><clipPath id="clip0"><path d="M0 0 265 0 265 265 0 265Z" fill-rule="evenodd" clip-rule="evenodd"/></clipPath></defs><g clip-path="url(#clip0)"><rect x="0" y="0" width="265" height="265" fill="#F032E6"/><text fill="#FFFFFF" font-family="Calibri,Calibri_MSFontService,sans-serif" font-weight="700" font-size="24" transform="translate(96.348 44)">MEANS<tspan font-size="14" x="-64.0203" y="48">Means</tspan><tspan font-size="14" x="-9.63766" y="48">define</tspan><tspan font-size="14" x="42.5742" y="48">the</tspan><tspan font-size="14" x="77.0793" y="48">behaviour</tspan><tspan font-size="14" x="-64.0203" y="65">(expressed</tspan><tspan font-size="14" x="5.39737" y="65">as</tspan><tspan font-size="14" x="24.0592" y="65">Courses</tspan><tspan font-size="14" x="75.9505" y="65">of</tspan><tspan font-size="14" x="94.1114" y="65">Action)</tspan><tspan font-size="14" x="-64.0203" y="82">and</tspan><tspan font-size="14" x="-29.5619" y="82">constraints</tspan><tspan font-size="14" x="47.804" y="82">(expressed</tspan><tspan font-size="14" x="123.667" y="82">as</tspan><tspan font-size="14" x="-64.0203" y="99">Directives)</tspan><tspan font-size="14" x="2.37834" y="99">relating</tspan><tspan font-size="14" x="51.4175" y="99">to</tspan><tspan font-size="14" x="67.8953" y="99">endeavours</tspan><tspan font-size="14" x="-64.0203" y="115">the</tspan><tspan font-size="14" x="-38.0179" y="115">business</tspan><tspan font-size="14" x="18.7158" y="115">will</tspan><tspan font-size="14" x="46.3947" y="115">pursue</tspan><tspan font-size="14" x="86.6373" y="115">.</tspan><tspan font-size="14" x="96.9501" y="115">Means</tspan><tspan font-size="14" x="-64.0203" y="132">establish</tspan><tspan font-size="14" x="-5.97074" y="132">“how”</tspan><tspan font-size="14" x="37.892" y="132">the</tspan><tspan font-size="14" x="63.2198" y="132">organisation</tspan><tspan font-size="14" x="-64.0203" y="149">plans</tspan><tspan font-size="14" x="-26.1488" y="149">to</tspan><tspan font-size="14" x="-6.97931" y="149">achieve</tspan><tspan font-size="14" x="44.2507" y="149">its</tspan><tspan font-size="14" x="65.09" y="149">stated</tspan><tspan font-size="14" x="108.639" y="149">Ends</tspan><tspan font-size="14" x="-64.0203" y="166">and</tspan><tspan font-size="14" x="-38.7526" y="166">are</tspan><tspan font-size="14" x="-16.4906" y="166">elaborated</tspan><tspan font-size="14" x="50.5225" y="166">in</tspan><tspan font-size="14" x="64.9364" y="166">support</tspan><tspan font-size="14" x="113.922" y="166">of</tspan><tspan font-size="14" x="129.345" y="166">a</tspan><tspan font-size="14" x="-64.0203" y="183">Mission</tspan><tspan font-size="14" x="-18.4343" y="183">.</tspan></text></g></svg>