<svg width="265" height="265" xmlns="http://www.w3.org/2000/svg" xmlns:xlink="http://www.w3.org/1999/xlink" overflow="hidden"><defs><clipPath id="clip0"><path d="M0 0 265 0 265 265 0 265Z" fill-rule="evenodd" clip-rule="evenodd"/></clipPath><clipPath id="clip1"><path d="M35 51 55 51 55 71 35 71Z" fill-rule="evenodd" clip-rule="evenodd"/></clipPath><clipPath id="clip2"><path d="M35 51 55 51 55 71 35 71Z" fill-rule="evenodd" clip-rule="evenodd"/></clipPath><clipPath id="clip3"><path d="M35 51 55 51 55 71 35 71Z" fill-rule="evenodd" clip-rule="evenodd"/></clipPath><clipPath id="clip4"><path d="M217 82 227 82 227 94 217 94Z" fill-rule="evenodd" clip-rule="evenodd"/></clipPath><clipPath id="clip5"><path d="M217 82 227 82 227 94 217 94Z" fill-rule="evenodd" clip-rule="evenodd"/></clipPath><clipPath id="clip6"><path d="M217 82 227 82 227 94 217 94Z" fill-rule="evenodd" clip-rule="evenodd"/></clipPath><clipPath id="clip7"><path d="M204 168 213 168 213 177 204 177Z" fill-rule="evenodd" clip-rule="evenodd"/></clipPath><clipPath id="clip8"><path d="M204 168 213 168 213 177 204 177Z" fill-rule="evenodd" clip-rule="evenodd"/></clipPath><clipPath id="clip9"><path d="M204 168 213 168 213 177 204 177Z" fill-rule="evenodd" clip-rule="evenodd"/></clipPath><clipPath id="clip10"><path d="M71 222 82 222 82 234 71 234Z" fill-rule="evenodd" clip-rule="evenodd"/></clipPath><clipPath id="clip11"><path d="M71 222 82 222 82 234 71 234Z" fill-rule="evenodd" clip-rule="evenodd"/></clipPath><clipPath id="clip12"><path d="M71 222 82 222 82 234 71 234Z" fill-rule="evenodd" clip-rule="evenodd"/></clipPath></defs><g clip-path="url(#clip0)"><rect x="0" y="0" width="265" height="265" fill="#313131"/><rect x="89.5" y="131.5" width="1.99999" height="1" stroke="#2F528F" stroke-width="1.33585" stroke-miterlimit="8" fill="#4472C4"/><path d="M23.5 9.75271C23.5 8.50859 24.5085 7.50003 25.7527 7.50003L249.247 7.50003C250.491 7.50003 251.5 8.50859 251.5 9.75271L251.5 249.247C251.5 250.491 250.491 251.5 249.247 251.5L25.7527 251.5C24.5085 251.5 23.5 250.491 23.5 249.247Z" stroke="#FF0000" stroke-width="0.667927" stroke-miterlimit="8" stroke-opacity="0" fill="none" fill-rule="evenodd"/><path d="M30.0794 43.5 149.921 43.5C153.002 43.5 155.5 45.998 155.5 49.0794L155.5 214.252C155.5 216.598 153.598 218.5 151.252 218.5L28.7483 218.5C26.402 218.5 24.5 216.598 24.5 214.252L24.5 49.0794C24.5 45.998 26.998 43.5 30.0794 43.5Z" stroke="#911EB4" stroke-width="4.67549" stroke-miterlimit="8" fill="#FFFFFF" fill-rule="evenodd"/><g clip-path="url(#clip1)"><g clip-path="url(#clip2)"><g clip-path="url(#clip3)"><path d="M44.5 60.7083C46.7167 60.7083 48.4584 58.9666 48.4584 56.75 48.4584 54.5333 46.7167 52.7916 44.5 52.7916 42.2834 52.7916 40.5417 54.5333 40.5417 56.75 40.5417 58.9666 42.2834 60.7083 44.5 60.7083ZM44.5 54.375C45.8459 54.375 46.875 55.4041 46.875 56.75 46.875 58.0958 45.8459 59.125 44.5 59.125 43.1542 59.125 42.125 58.0958 42.125 56.75 42.125 55.4041 43.1542 54.375 44.5 54.375Z"/><path d="M46.875 62.2916 42.125 62.2916C39.9083 62.2916 38.1667 64.0333 38.1667 66.25L38.1667 69.4167C38.1667 69.8917 38.4833 70.2083 38.9583 70.2083 39.4333 70.2083 39.75 69.8917 39.75 69.4167L39.75 66.25C39.75 64.9042 40.7792 63.875 42.125 63.875L42.9167 63.875 44.5 67.0417 46.0834 63.875 46.875 63.875C48.2209 63.875 49.25 64.9042 49.25 66.25L49.25 69.4167C49.25 69.8917 49.5667 70.2083 50.0417 70.2083 50.5167 70.2083 50.8334 69.8917 50.8334 69.4167L50.8334 66.25C50.8334 64.0333 49.0917 62.2916 46.875 62.2916Z"/></g></g></g><path d="M26.9702 6.36947C18.5628 6.36947 11.7473 10.3112 11.7473 15.1736L11.7473 248.948C11.7473 253.81 18.5628 257.752 26.9702 257.752L238.08 257.752C246.487 257.752 253.302 253.81 253.302 248.948L253.302 15.1736C253.302 10.3112 246.487 6.36947 238.08 6.36947ZM0 0 265 0 265 265 0 265Z" fill="#911EB4" fill-rule="evenodd"/><text font-family="Calibri,Calibri_MSFontService,sans-serif" font-weight="700" font-size="11" transform="translate(66.7824 63)">STAKEHOLDER<tspan font-weight="400" font-size="9" x="-35.4921" y="62">A </tspan><tspan font-size="9" x="-27.9779" y="62">Stakeholder</tspan><tspan font-weight="400" font-size="9" x="20.9478" y="62">is a broad </tspan><tspan font-weight="400" font-size="9" x="-35.4921" y="73">definition for anybody who is </tspan><tspan font-weight="400" font-size="9" x="-35.4921" y="84">interested in or anybody who </tspan><tspan font-weight="400" font-size="9" x="-35.4921" y="95">is the target recipient of a </tspan><tspan font-size="9" x="-35.4921" y="107">Product</tspan><tspan font-weight="400" font-size="9" x="-2.93062" y="107">or an </tspan><tspan font-size="9" x="19.111" y="107">Offering</tspan><tspan font-weight="400" font-size="9" x="51.3384" y="107">. </tspan></text><path d="M217.5 84.5001C217.5 83.3955 218.395 82.5 219.5 82.5L246.5 82.5C247.605 82.5 248.5 83.3955 248.5 84.5001L248.5 92.4999C248.5 93.6045 247.605 94.5 246.5 94.5L219.5 94.5C218.395 94.5 217.5 93.6045 217.5 92.4999Z" stroke="#F032E6" stroke-width="1.33585" stroke-miterlimit="8" fill="#FFFFFF" fill-rule="evenodd"/><text font-family="Calibri,Calibri_MSFontService,sans-serif" font-weight="700" font-size="5" transform="translate(228.966 86)">VALUE<tspan x="0" y="6">STREAM</tspan></text><g clip-path="url(#clip4)"><g clip-path="url(#clip5)"><g clip-path="url(#clip6)"><path d="M7.1321 8.6246 1.12537 8.6246C0.981372 8.6246 0.850123 8.54173 0.787498 8.41235 0.724873 8.28223 0.742498 8.1281 0.832498 8.0156L1.39425 7.3121 0.832123 6.60861C0.742123 6.49611 0.724498 6.34198 0.787123 6.21186 0.850123 6.08211 0.981372 5.99961 1.12537 5.99961L7.1321 5.99961C7.24685 5.99961 7.35485 6.05248 7.42535 6.14173L8.16898 7.07923C8.27735 7.21535 8.27735 7.40885 8.16898 7.54498L7.42535 8.48248C7.35373 8.57172 7.2461 8.6246 7.1321 8.6246ZM1.90499 7.8746 6.9506 7.8746 7.39685 7.3121 6.9506 6.74961 1.90499 6.74961 2.16749 7.0781C2.27699 7.21498 2.27699 7.40923 2.16749 7.5461L1.90499 7.8746Z" transform="matrix(1 0 -0 1.11112 218 83)"/><path d="M4.49999 5.24961 4.49999 5.24961C4.40024 5.24961 4.30499 5.21061 4.23486 5.13974L2.36024 3.26287C2.21362 3.11624 2.21362 2.87924 2.36024 2.73224L4.23486 0.855372C4.37549 0.714748 4.62411 0.714373 4.76511 0.855372L6.64048 2.73224C6.71098 2.80274 6.75035 2.89799 6.75035 2.99737 6.75035 3.09674 6.71098 3.19274 6.64048 3.26287L4.76511 5.13974C4.69536 5.21061 4.59974 5.24961 4.49999 5.24961ZM3.15562 2.99737 4.49999 4.34324 5.84511 2.99737 4.49999 1.6515 3.15562 2.99737Z" transform="matrix(1 0 -0 1.11112 218 83)"/></g></g></g><path d="M203.5 168.667C203.5 167.47 204.47 166.5 205.667 166.5L246.333 166.5C247.53 166.5 248.5 167.47 248.5 168.667L248.5 177.333C248.5 178.53 247.53 179.5 246.333 179.5L205.667 179.5C204.47 179.5 203.5 178.53 203.5 177.333Z" stroke="#F032E6" stroke-width="1.33585" stroke-miterlimit="8" fill="#FFFFFF" fill-rule="evenodd"/><text font-family="Calibri,Calibri_MSFontService,sans-serif" font-weight="700" font-size="5" transform="translate(215.107 171)">VALUE STREAM<tspan x="0" y="6">STAGE</tspan></text><g clip-path="url(#clip7)"><g clip-path="url(#clip8)"><g clip-path="url(#clip9)"><path d="M212.544 174.704 211.799 173.767C211.727 173.677 211.619 173.625 211.505 173.625L209.25 173.625C209.106 173.625 208.975 173.708 208.913 173.837 208.85 173.967 208.867 174.122 208.957 174.234L209.52 174.938 208.957 175.641C208.867 175.754 208.85 175.908 208.913 176.038 208.975 176.167 209.106 176.25 209.25 176.25L211.505 176.25C211.62 176.25 211.728 176.198 211.799 176.108L212.544 175.171C212.652 175.034 212.652 174.841 212.544 174.704Z"/><path d="M207.674 173.767C207.603 173.677 207.495 173.625 207.38 173.625L205.125 173.625C204.981 173.625 204.849 173.708 204.787 173.837 204.725 173.967 204.742 174.122 204.833 174.234L205.395 174.938 204.833 175.641C204.743 175.754 204.725 175.908 204.787 176.038 204.849 176.167 204.981 176.25 205.125 176.25L207.38 176.25C207.495 176.25 207.603 176.198 207.674 176.108L208.419 175.171C208.527 175.034 208.527 174.841 208.419 174.704L207.674 173.767ZM207.199 175.5 205.905 175.5 206.168 175.172C206.277 175.035 206.277 174.84 206.168 174.703L205.905 174.375 207.199 174.375 207.646 174.938 207.199 175.5Z"/><path d="M210.75 170.623C210.75 170.522 210.711 170.426 210.639 170.355L208.767 168.481C208.626 168.339 208.374 168.339 208.233 168.481L206.361 170.355C206.213 170.503 206.213 170.742 206.361 170.89L208.232 172.764C208.304 172.835 208.399 172.875 208.5 172.875 208.601 172.875 208.696 172.835 208.767 172.764L210.639 170.89C210.711 170.819 210.75 170.723 210.75 170.623ZM208.5 171.961 207.163 170.623 208.5 169.284 209.837 170.623 208.5 171.961Z"/></g></g></g><path d="M164.24 166 194.76 166C198.759 166 202 169.134 202 173 202 176.866 198.759 180 194.76 180L164.24 180C160.241 180 157 176.866 157 173 157 169.134 160.241 166 164.24 166Z" fill="#313131" fill-rule="evenodd"/><text fill="#FFFFFF" font-family="Calibri,Calibri_MSFontService,sans-serif" font-weight="700" font-size="5" transform="translate(164.817 175)">&lt;Participant|</text><path d="M166.492 82 206.508 82C211.75 82 216 84.9101 216 88.5 216 92.0899 211.75 95 206.508 95L166.492 95C161.25 95 157 92.0899 157 88.5 157 84.9101 161.25 82 166.492 82Z" fill="#313131" fill-rule="evenodd"/><text fill="#FFFFFF" font-family="Calibri,Calibri_MSFontService,sans-serif" font-weight="700" font-size="5" transform="translate(174.502 87)">&lt;Triggering <tspan x="-2.50471" y="6">&lt;Benefitting|</tspan></text><path d="M84 222 89.5 218 95 222Z" fill="#FFFFFF" fill-rule="evenodd"/><path d="M71.5001 226.5C71.5001 225.948 71.9478 225.5 72.5 225.5L103.5 225.5C104.052 225.5 104.5 225.948 104.5 226.5L104.5 230.5C104.5 231.052 104.052 231.5 103.5 231.5L72.5 231.5C71.9478 231.5 71.5001 231.052 71.5001 230.5Z" stroke="#911EB4" stroke-width="1.33585" stroke-miterlimit="8" fill="#FFFFFF" fill-rule="evenodd"/><text font-family="Calibri,Calibri_MSFontService,sans-serif" font-weight="700" font-size="5" transform="translate(83.0711 229)">SEGMENT</text><g clip-path="url(#clip10)"><g clip-path="url(#clip11)"><g clip-path="url(#clip12)"><path d="M2.91666 4.76582C1.99749 4.76582 1.25 4.02124 1.25 3.10666 1.25 2.19208 1.99749 1.44791 2.91666 1.44791 3.83582 1.44791 4.58332 2.19208 4.58332 3.10666 4.58332 4.02124 3.83582 4.76582 2.91666 4.76582ZM2.91666 2.28124C2.45708 2.28124 2.08333 2.65166 2.08333 3.10666 2.08333 3.56166 2.45708 3.93207 2.91666 3.93207 3.37624 3.93207 3.74999 3.56166 3.74999 3.10666 3.74999 2.65166 3.37624 2.28124 2.91666 2.28124Z" transform="matrix(1 0 -0 1.00001 72.4167 223.625)"/><path d="M6.66665 3.10957C5.74748 3.10957 4.99999 2.36541 4.99999 1.45083 4.99999 0.536248 5.74748-0.208333 6.66665-0.208333 7.58581-0.208333 8.33331 0.535832 8.33331 1.45041 8.33331 2.36499 7.58581 3.10957 6.66665 3.10957ZM6.66665 0.624998C6.20707 0.624998 5.83332 0.995414 5.83332 1.45041 5.83332 1.90541 6.20707 2.27583 6.66665 2.27583 7.12623 2.27583 7.49998 1.90541 7.49998 1.45041 7.49998 0.995414 7.12623 0.624998 6.66665 0.624998Z" transform="matrix(1 0 -0 1.00001 72.4167 223.625)"/><path d="M5.41665 8.95831C5.18623 8.95831 4.99999 8.77206 4.99999 8.54164L4.99999 7.27331C4.99999 6.80373 4.61499 6.42206 4.14207 6.42206L1.69124 6.42206C1.21833 6.42206 0.833331 6.80373 0.833331 7.27331L0.833331 8.54164C0.833331 8.77206 0.646665 8.95831 0.416665 8.95831 0.186666 8.95831 0 8.77206 0 8.54164L0 7.27331C0 6.34456 0.758748 5.58873 1.69124 5.58873L4.14207 5.58873C5.07457 5.58873 5.83332 6.34415 5.83332 7.27331L5.83332 8.54164C5.83332 8.77206 5.64707 8.95831 5.41665 8.95831Z" transform="matrix(1 0 -0 1.00001 72.4167 223.625)"/><path d="M9.16664 7.30165C8.93622 7.30165 8.74997 7.1154 8.74997 6.88498L8.74997 5.61707C8.74997 5.14748 8.36248 4.7654 7.88664 4.7654L5.41665 4.7654C5.18623 4.7654 4.99999 4.57915 4.99999 4.34874 4.99999 4.11832 5.18623 3.93207 5.41665 3.93207L7.88664 3.93207C8.82206 3.93207 9.58331 4.6879 9.58331 5.61665L9.58331 6.88456C9.58331 7.1154 9.39706 7.30165 9.16664 7.30165Z" transform="matrix(1 0 -0 1.00001 72.4167 223.625)"/></g></g></g></g></svg>