<svg width="265" height="265" xmlns="http://www.w3.org/2000/svg" xmlns:xlink="http://www.w3.org/1999/xlink" overflow="hidden"><defs><clipPath id="clip0"><path d="M0 0 265 0 265 265 0 265Z" fill-rule="evenodd" clip-rule="evenodd"/></clipPath><clipPath id="clip1"><path d="M35 51 55 51 55 71 35 71Z" fill-rule="evenodd" clip-rule="evenodd"/></clipPath><clipPath id="clip2"><path d="M35 51 55 51 55 71 35 71Z" fill-rule="evenodd" clip-rule="evenodd"/></clipPath><clipPath id="clip3"><path d="M35 51 55 51 55 71 35 71Z" fill-rule="evenodd" clip-rule="evenodd"/></clipPath><clipPath id="clip4"><path d="M208 35 217 35 217 45 208 45Z" fill-rule="evenodd" clip-rule="evenodd"/></clipPath><clipPath id="clip5"><path d="M208 35 217 35 217 45 208 45Z" fill-rule="evenodd" clip-rule="evenodd"/></clipPath><clipPath id="clip6"><path d="M208 35 217 35 217 45 208 45Z" fill-rule="evenodd" clip-rule="evenodd"/></clipPath><clipPath id="clip7"><path d="M224 70 235 70 235 79 224 79Z" fill-rule="evenodd" clip-rule="evenodd"/></clipPath><clipPath id="clip8"><path d="M224 70 235 70 235 79 224 79Z" fill-rule="evenodd" clip-rule="evenodd"/></clipPath><clipPath id="clip9"><path d="M224 70 235 70 235 79 224 79Z" fill-rule="evenodd" clip-rule="evenodd"/></clipPath><clipPath id="clip10"><path d="M206 106 215 106 215 115 206 115Z" fill-rule="evenodd" clip-rule="evenodd"/></clipPath><clipPath id="clip11"><path d="M206 106 215 106 215 115 206 115Z" fill-rule="evenodd" clip-rule="evenodd"/></clipPath><clipPath id="clip12"><path d="M206 106 215 106 215 115 206 115Z" fill-rule="evenodd" clip-rule="evenodd"/></clipPath><clipPath id="clip13"><path d="M204 141 213 141 213 152 204 152Z" fill-rule="evenodd" clip-rule="evenodd"/></clipPath><clipPath id="clip14"><path d="M204 141 213 141 213 152 204 152Z" fill-rule="evenodd" clip-rule="evenodd"/></clipPath><clipPath id="clip15"><path d="M204 141 213 141 213 152 204 152Z" fill-rule="evenodd" clip-rule="evenodd"/></clipPath><clipPath id="clip16"><path d="M225 177 237 177 237 188 225 188Z" fill-rule="evenodd" clip-rule="evenodd"/></clipPath><clipPath id="clip17"><path d="M225 177 237 177 237 188 225 188Z" fill-rule="evenodd" clip-rule="evenodd"/></clipPath><clipPath id="clip18"><path d="M225 177 237 177 237 188 225 188Z" fill-rule="evenodd" clip-rule="evenodd"/></clipPath><clipPath id="clip19"><path d="M216 215 227 215 227 226 216 226Z" fill-rule="evenodd" clip-rule="evenodd"/></clipPath><clipPath id="clip20"><path d="M216 215 227 215 227 226 216 226Z" fill-rule="evenodd" clip-rule="evenodd"/></clipPath><clipPath id="clip21"><path d="M216 215 227 215 227 226 216 226Z" fill-rule="evenodd" clip-rule="evenodd"/></clipPath></defs><g clip-path="url(#clip0)"><rect x="0" y="0" width="265" height="265" fill="#313131"/><rect x="89.5" y="131.5" width="1.99999" height="1" stroke="#2F528F" stroke-width="1.33585" stroke-miterlimit="8" fill="#4472C4"/><path d="M23.5 9.75271C23.5 8.50859 24.5085 7.50003 25.7527 7.50003L249.247 7.50003C250.491 7.50003 251.5 8.50859 251.5 9.75271L251.5 249.247C251.5 250.491 250.491 251.5 249.247 251.5L25.7527 251.5C24.5085 251.5 23.5 250.491 23.5 249.247Z" stroke="#FF0000" stroke-width="0.667927" stroke-miterlimit="8" stroke-opacity="0" fill="none" fill-rule="evenodd"/><path d="M30.0794 43.5 149.921 43.5C153.002 43.5 155.5 45.998 155.5 49.0794L155.5 214.252C155.5 216.598 153.598 218.5 151.252 218.5L28.7483 218.5C26.402 218.5 24.5 216.598 24.5 214.252L24.5 49.0794C24.5 45.998 26.998 43.5 30.0794 43.5Z" stroke="#D2F53C" stroke-width="4.67549" stroke-miterlimit="8" fill="#FFFFFF" fill-rule="evenodd"/><g clip-path="url(#clip1)"><g clip-path="url(#clip2)"><g clip-path="url(#clip3)"><path d="M42.9167 63.2409 39.0201 67.0417 39.0193 67.0409 39.0193 67.0417 36.5833 64.6666 37.5571 63.7166 39.0193 65.1416 41.9429 62.2916Z"/><path d="M42.9167 55.325 39.0201 59.125 39.0193 59.125 39.0193 59.125 36.5833 56.75 37.5571 55.8 39.0193 57.225 41.9429 54.375Z"/><path d="M50.8334 59.125 46.0834 59.125C45.6456 59.125 45.2917 58.7703 45.2917 58.3333L45.2917 55.1666C45.2917 54.7296 45.6456 54.375 46.0834 54.375L50.8334 54.375C51.2712 54.375 51.625 54.7296 51.625 55.1666L51.625 58.3333C51.625 58.7703 51.2712 59.125 50.8334 59.125ZM46.875 57.5416 50.0417 57.5416 50.0417 55.9583 46.875 55.9583 46.875 57.5416Z"/><path d="M50.8334 67.0417 46.0834 67.0417C45.6456 67.0417 45.2917 66.6878 45.2917 66.25L45.2917 63.0833C45.2917 62.6455 45.6456 62.2916 46.0834 62.2916L50.8334 62.2916C51.2712 62.2916 51.625 62.6455 51.625 63.0833L51.625 66.25C51.625 66.6878 51.2712 67.0417 50.8334 67.0417ZM46.875 65.4583 50.0417 65.4583 50.0417 63.875 46.875 63.875 46.875 65.4583Z"/></g></g></g><path d="M26.9702 6.36947C18.5628 6.36947 11.7473 10.3112 11.7473 15.1736L11.7473 248.948C11.7473 253.81 18.5628 257.752 26.9702 257.752L238.08 257.752C246.487 257.752 253.302 253.81 253.302 248.948L253.302 15.1736C253.302 10.3112 246.487 6.36947 238.08 6.36947ZM0 0 265 0 265 265 0 265Z" fill="#D2F53C" fill-rule="evenodd"/><text font-family="Calibri,Calibri_MSFontService,sans-serif" font-weight="700" font-size="11" transform="translate(65.6136 63)">REQUIREMENT<tspan font-weight="400" font-size="9" x="-34.3232" y="40">A </tspan><tspan font-size="9" x="-26.8091" y="40">Requirement</tspan><tspan font-weight="400" font-size="9" x="26.2911" y="40">elaborates a </tspan><tspan font-weight="400" font-size="9" x="-34.3232" y="51">directive of a business </tspan><tspan font-size="9" x="-34.3232" y="62">Stakeholder</tspan><tspan font-weight="400" font-size="9" x="14.6024" y="62">toward the </tspan><tspan font-weight="400" font-size="9" x="-34.3232" y="73">enablement of a business </tspan><tspan font-weight="400" font-size="9" x="-34.3232" y="85">function. </tspan><tspan font-size="9" x="1.9118" y="85">Requirements</tspan><tspan font-weight="400" font-size="9" x="58.6856" y="85">are </tspan><tspan font-weight="400" font-size="9" x="-34.3232" y="96">stated as a </tspan><tspan font-size="9" x="8.92503" y="96">User story</tspan><tspan font-weight="400" font-size="9" x="48.6667" y="96">, </tspan><tspan font-weight="400" font-size="9" x="-34.3232" y="107">identifying the Stakeholder </tspan><tspan font-weight="400" font-size="9" x="-34.3232" y="118">(</tspan><tspan font-size="9" x="-31.4846" y="118">As</tspan><tspan font-size="9" x="-22.1336" y="118">-</tspan><tspan font-size="9" x="-19.2949" y="118">A</tspan><tspan font-weight="400" font-size="9" x="-13.6175" y="118">), the directive (</tspan><tspan font-size="9" x="46.8299" y="118">I</tspan><tspan font-size="9" x="49.3346" y="118">-</tspan><tspan font-size="9" x="52.1733" y="118">Want</tspan><tspan font-weight="400" font-size="9" x="73.547" y="118">) </tspan><tspan font-weight="400" font-size="9" x="-34.3232" y="129">and the motivation (</tspan><tspan font-size="9" x="43.6572" y="129">So</tspan><tspan font-size="9" x="53.0082" y="129">-</tspan><tspan font-size="9" x="55.8469" y="129">That</tspan><tspan font-weight="400" font-size="9" x="73.38" y="129">).</tspan></text><path d="M207.5 35.6667C207.5 34.47 208.47 33.5 209.667 33.5L246.333 33.5C247.53 33.5 248.5 34.47 248.5 35.6667L248.5 44.3332C248.5 45.5299 247.53 46.4999 246.333 46.4999L209.667 46.4999C208.47 46.4999 207.5 45.5299 207.5 44.3332Z" stroke="#B74D41" stroke-width="1.33585" stroke-miterlimit="8" fill="#FFFFFF" fill-rule="evenodd"/><text font-family="Calibri,Calibri_MSFontService,sans-serif" font-weight="700" font-size="5" transform="translate(219.192 38)">APPLICATION<tspan x="0" y="6">FUNCTION</tspan></text><g clip-path="url(#clip4)"><g clip-path="url(#clip5)"><g clip-path="url(#clip6)"><path d="M7.49998 0.749998 1.5 0.749998C1.293 0.749998 1.125 0.917997 1.125 1.125L1.125 4.49999 1.125 4.87499 1.125 5.24998 1.87499 5.24998 1.87499 4.87499 1.87499 4.49999 1.87499 1.5 7.12498 1.5 7.12498 4.49999 7.12498 4.87499 7.12498 5.24998 7.87498 5.24998 7.87498 4.87499 7.87498 4.49999 7.87498 1.125C7.87498 0.917997 7.70735 0.749998 7.49998 0.749998Z" transform="matrix(1 0 -0 1.11111 208 35)"/><path d="M2.62499 7.49998 3.37499 7.49998 3.37499 8.24998 2.62499 8.24998Z" transform="matrix(1 0 -0 1.11111 208 35)"/><path d="M4.12499 7.49998 4.87499 7.49998 4.87499 8.24998 4.12499 8.24998Z" transform="matrix(1 0 -0 1.11111 208 35)"/><path d="M5.62498 7.49998 6.37498 7.49998 6.37498 8.24998 5.62498 8.24998Z" transform="matrix(1 0 -0 1.11111 208 35)"/><path d="M7.12498 7.49998 7.87498 7.49998 7.87498 8.24998 7.12498 8.24998Z" transform="matrix(1 0 -0 1.11111 208 35)"/><path d="M1.125 7.49998 1.87499 7.49998 1.87499 8.24998 1.125 8.24998Z" transform="matrix(1 0 -0 1.11111 208 35)"/><path d="M2.62499 5.99998 3.37499 5.99998 3.37499 6.74998 2.62499 6.74998Z" transform="matrix(1 0 -0 1.11111 208 35)"/><path d="M4.12499 5.99998 4.87499 5.99998 4.87499 6.74998 4.12499 6.74998Z" transform="matrix(1 0 -0 1.11111 208 35)"/><path d="M5.62498 5.99998 6.37498 5.99998 6.37498 6.74998 5.62498 6.74998Z" transform="matrix(1 0 -0 1.11111 208 35)"/><path d="M7.12498 5.99998 7.87498 5.99998 7.87498 6.74998 7.12498 6.74998Z" transform="matrix(1 0 -0 1.11111 208 35)"/><path d="M1.125 5.99998 1.87499 5.99998 1.87499 6.74998 1.125 6.74998Z" transform="matrix(1 0 -0 1.11111 208 35)"/><path d="M2.62499 4.49999 3.37499 4.49999 3.37499 5.24998 2.62499 5.24998Z" transform="matrix(1 0 -0 1.11111 208 35)"/><path d="M4.12499 4.49999 4.87499 4.49999 4.87499 5.24998 4.12499 5.24998Z" transform="matrix(1 0 -0 1.11111 208 35)"/><path d="M5.62498 4.49999 6.37498 4.49999 6.37498 5.24998 5.62498 5.24998Z" transform="matrix(1 0 -0 1.11111 208 35)"/><path d="M5.24998 2.99999C5.24998 3.4142 4.9142 3.74999 4.49999 3.74999 4.08577 3.74999 3.74999 3.4142 3.74999 2.99999 3.74999 2.58578 4.08577 2.24999 4.49999 2.24999 4.9142 2.24999 5.24998 2.58578 5.24998 2.99999Z" transform="matrix(1 0 -0 1.11111 208 35)"/></g></g></g><path d="M224.5 72.5001C224.5 71.9478 224.948 71.5001 225.5 71.5001L247.5 71.5001C248.052 71.5001 248.5 71.9478 248.5 72.5001L248.5 76.5C248.5 77.0523 248.052 77.5 247.5 77.5L225.5 77.5C224.948 77.5 224.5 77.0523 224.5 76.5Z" stroke="#CEB023" stroke-width="1.33585" stroke-miterlimit="8" fill="#FFFFFF" fill-rule="evenodd"/><text font-family="Calibri,Calibri_MSFontService,sans-serif" font-weight="700" font-size="5" transform="translate(235.598 75)">ROLE</text><g clip-path="url(#clip7)"><g clip-path="url(#clip8)"><g clip-path="url(#clip9)"><path d="M4.49999 3.74999C3.87974 3.74999 3.37499 4.25474 3.37499 4.87499 3.37499 5.49523 3.87974 5.99998 4.49999 5.99998 5.12023 5.99998 5.62498 5.49523 5.62498 4.87499 5.62498 4.25474 5.12023 3.74999 4.49999 3.74999ZM4.49999 5.24998C4.29299 5.24998 4.12499 5.08198 4.12499 4.87499 4.12499 4.66836 4.29299 4.49999 4.49999 4.49999 4.70699 4.49999 4.87499 4.66836 4.87499 4.87499 4.87499 5.08198 4.70699 5.24998 4.49999 5.24998Z" transform="matrix(1.00001 0 -0 1 225 70)"/><path d="M7.87498 1.87499 5.62498 1.87499 5.62498 1.125C5.62498 0.917997 5.45736 0.749998 5.24998 0.749998L3.74999 0.749998C3.54299 0.749998 3.37499 0.917997 3.37499 1.125L3.37499 1.87499 1.125 1.87499C0.917997 1.87499 0.749998 2.04299 0.749998 2.24999L0.749998 8.24998C0.749998 8.45735 0.917997 8.62497 1.125 8.62497L7.87498 8.62497C8.08235 8.62497 8.24998 8.45735 8.24998 8.24998L8.24998 2.24999C8.24998 2.04299 8.08235 1.87499 7.87498 1.87499ZM4.12499 1.5 4.87499 1.5 4.87499 2.62499 4.12499 2.62499 4.12499 1.5ZM5.62498 7.87498 3.37499 7.87498 3.37499 7.49998C3.37499 7.2896 3.53924 7.12498 3.74924 7.12498L5.25073 7.12498C5.46073 7.12498 5.62498 7.2896 5.62498 7.49998L5.62498 7.87498ZM7.49998 7.87498 6.37498 7.87498 6.37498 7.49998C6.37498 6.87973 5.87023 6.37498 5.25073 6.37498L3.74924 6.37498C3.12937 6.37498 2.62499 6.87973 2.62499 7.49998L2.62499 7.87498 1.5 7.87498 1.5 2.62499 3.37499 2.62499 3.37499 2.99999C3.37499 3.20699 3.54299 3.37499 3.74999 3.37499L5.24998 3.37499C5.45736 3.37499 5.62498 3.20699 5.62498 2.99999L5.62498 2.62499 7.49998 2.62499 7.49998 7.87498Z" transform="matrix(1.00001 0 -0 1 225 70)"/></g></g></g><path d="M205.5 108.667C205.5 108.022 206.022 107.5 206.667 107.5L247.333 107.5C247.978 107.5 248.5 108.022 248.5 108.667L248.5 113.333C248.5 113.978 247.978 114.5 247.333 114.5L206.667 114.5C206.022 114.5 205.5 113.978 205.5 113.333Z" stroke="#D2F53C" stroke-width="1.33585" stroke-miterlimit="8" fill="#FFFFFF" fill-rule="evenodd"/><text font-family="Calibri,Calibri_MSFontService,sans-serif" font-weight="700" font-size="5" transform="translate(216.589 112)">REQUIREMENT</text><g clip-path="url(#clip10)"><g clip-path="url(#clip11)"><g clip-path="url(#clip12)"><path d="M209.75 111.325 207.904 113.125 207.904 113.125 207.904 113.125 206.75 112 207.211 111.55 207.904 112.225 209.289 110.875Z"/><path d="M209.75 107.575 207.904 109.375 207.904 109.375 207.904 109.375 206.75 108.25 207.211 107.8 207.904 108.475 209.289 107.125Z"/><path d="M213.5 109.375 211.25 109.375C211.043 109.375 210.875 109.207 210.875 109L210.875 107.5C210.875 107.293 211.043 107.125 211.25 107.125L213.5 107.125C213.707 107.125 213.875 107.293 213.875 107.5L213.875 109C213.875 109.207 213.707 109.375 213.5 109.375ZM211.625 108.625 213.125 108.625 213.125 107.875 211.625 107.875 211.625 108.625Z"/><path d="M213.5 113.125 211.25 113.125C211.043 113.125 210.875 112.957 210.875 112.75L210.875 111.25C210.875 111.043 211.043 110.875 211.25 110.875L213.5 110.875C213.707 110.875 213.875 111.043 213.875 111.25L213.875 112.75C213.875 112.957 213.707 113.125 213.5 113.125ZM211.625 112.375 213.125 112.375 213.125 111.625 211.625 111.625 211.625 112.375Z"/></g></g></g><path d="M203.5 145.5C203.5 144.948 203.948 144.5 204.5 144.5L247.5 144.5C248.052 144.5 248.5 144.948 248.5 145.5L248.5 149.5C248.5 150.052 248.052 150.5 247.5 150.5L204.5 150.5C203.948 150.5 203.5 150.052 203.5 149.5Z" stroke="#000080" stroke-width="1.33585" stroke-miterlimit="8" fill="#FFFFFF" fill-rule="evenodd"/><text font-family="Calibri,Calibri_MSFontService,sans-serif" font-weight="700" font-size="5" transform="translate(214.887 148)">ENHANCEMENT</text><g clip-path="url(#clip13)"><g clip-path="url(#clip14)"><g clip-path="url(#clip15)"><path d="M6.05211 1.96012C5.90548 1.81574 5.67111 1.81574 5.52486 1.96012L0.486374 6.93561C0.415124 7.00648 0.374999 7.1021 0.374999 7.2026 0.374999 7.3031 0.415124 7.39873 0.486374 7.4696L1.54725 8.51697C1.62037 8.58897 1.71562 8.62497 1.81087 8.62497 1.90612 8.62497 2.00137 8.58897 2.07449 8.51697L7.1126 3.54111C7.18348 3.47061 7.22398 3.37461 7.22398 3.27449 7.22398 3.17437 7.18423 3.07837 7.1126 3.00787L6.05211 1.96012ZM5.25673 4.32036 4.72949 3.79986 5.78848 2.75399 6.31536 3.27449 5.25673 4.32036Z" transform="matrix(1 0 -0 1.11111 204 142)"/><path d="M7.49998 1.48612 7.87498 1.48612 7.87498 1.11562 8.24998 1.11562 8.24998 0.745498 7.87498 0.745498 7.87498 0.374999 7.49998 0.374999 7.49998 0.745498 7.12498 0.745498 7.12498 1.11562 7.49998 1.11562Z" transform="matrix(1 0 -0 1.11111 204 142)"/><path d="M4.87499 1.48612 5.24998 1.48612 5.24998 1.11562 5.62498 1.11562 5.62498 0.745498 5.24998 0.745498 5.24998 0.374999 4.87499 0.374999 4.87499 0.745498 4.49999 0.745498 4.49999 1.11562 4.87499 1.11562Z" transform="matrix(1 0 -0 1.11111 204 142)"/><path d="M7.49998 2.22674 7.87498 2.22674 7.87498 2.59724 7.49998 2.59724Z" transform="matrix(1 0 -0 1.11111 204 142)"/><path d="M8.24998 1.48612 8.62497 1.48612 8.62497 1.85624 8.24998 1.85624Z" transform="matrix(1 0 -0 1.11111 204 142)"/><path d="M3.74999 1.85624 4.12499 1.85624 4.12499 2.22674 3.74999 2.22674Z" transform="matrix(1 0 -0 1.11111 204 142)"/><path d="M6.37498 1.11562 6.74998 1.11562 6.74998 1.48612 6.37498 1.48612Z" transform="matrix(1 0 -0 1.11111 204 142)"/><path d="M8.24998 3.33787 7.87498 3.33787 7.87498 3.70799 7.49998 3.70799 7.49998 4.07849 7.87498 4.07849 7.87498 4.44899 8.24998 4.44899 8.24998 4.07849 8.62497 4.07849 8.62497 3.70799 8.24998 3.70799Z" transform="matrix(1 0 -0 1.11111 204 142)"/></g></g></g><path d="M226.5 181.5C226.5 180.948 226.948 180.5 227.5 180.5L247.5 180.5C248.052 180.5 248.5 180.948 248.5 181.5L248.5 185.5C248.5 186.052 248.052 186.5 247.5 186.5L227.5 186.5C226.948 186.5 226.5 186.052 226.5 185.5Z" stroke="#000080" stroke-width="1.33585" stroke-miterlimit="8" fill="#FFFFFF" fill-rule="evenodd"/><text font-family="Calibri,Calibri_MSFontService,sans-serif" font-weight="700" font-size="5" transform="translate(237.317 184)">EPIC</text><g clip-path="url(#clip16)"><g clip-path="url(#clip17)"><g clip-path="url(#clip18)"><path d="M8.43789 2.08333 6.66706 2.08333 6.66706 1.25 4.16707 1.25 4.16707 0.833331C4.16707 0.603332 3.98041 0.416665 3.75041 0.416665 3.52041 0.416665 3.33374 0.603332 3.33374 0.833331L3.33374 1.25 3.33374 4.58332 3.33374 7.08331 2.08374 7.08331C1.92583 7.08331 1.78166 7.17248 1.71083 7.31373L0.877497 8.98039C0.774581 9.18622 0.857914 9.43706 1.06375 9.53956 1.27041 9.64206 1.51958 9.55914 1.62291 9.35372L2.34124 7.91664 5.15957 7.91664 5.8779 9.35289C5.95082 9.49914 6.0979 9.58331 6.25081 9.58331 6.3129 9.58331 6.37748 9.56914 6.43665 9.53956 6.64248 9.43706 6.7254 9.18622 6.6229 8.98039L5.78957 7.31373C5.71915 7.17248 5.57498 7.08331 5.41707 7.08331L4.16707 7.08331 4.16707 4.58332 5.83373 4.58332 5.83373 5.41665 8.43789 5.41665C8.84622 5.41665 9.16706 5.05082 9.16706 4.58332L9.16706 2.91666C9.16706 2.44916 8.84622 2.08333 8.43789 2.08333ZM4.16707 3.74999 4.16707 2.08333 5.83373 2.08333 5.83373 3.74999 4.16707 3.74999ZM8.33372 4.58332 6.66706 4.58332 6.66706 2.91666 8.33372 2.91666 8.33372 4.58332Z" transform="matrix(1.00001 0 -0 1 226 178)"/></g></g></g><path d="M216.5 217.5C216.5 216.395 217.395 215.5 218.5 215.5L246.5 215.5C247.605 215.5 248.5 216.395 248.5 217.5L248.5 225.5C248.5 226.605 247.605 227.5 246.5 227.5L218.5 227.5C217.395 227.5 216.5 226.605 216.5 225.5Z" stroke="#46F0F0" stroke-width="1.33585" stroke-miterlimit="8" fill="#FFFFFF" fill-rule="evenodd"/><text font-family="Calibri,Calibri_MSFontService,sans-serif" font-weight="700" font-size="5" transform="translate(228.265 219)">PROJECT<tspan x="0" y="6">TASK</tspan></text><g clip-path="url(#clip19)"><g clip-path="url(#clip20)"><g clip-path="url(#clip21)"><path d="M222.032 222.416 222.032 222.417 224.083 220.283 223.571 219.75 222.032 221.35 221.262 220.55 220.75 221.083 222.032 222.417Z"/><path d="M225.333 216.833 219.083 216.833C218.853 216.833 218.667 217.02 218.667 217.25L218.667 218.917 218.25 218.917C218.02 218.917 217.833 219.103 217.833 219.333 217.833 219.563 218.02 219.75 218.25 219.75L218.667 219.75 218.667 220.583 218.25 220.583C218.02 220.583 217.833 220.77 217.833 221 217.833 221.23 218.02 221.417 218.25 221.417L218.667 221.417 218.667 222.25 218.25 222.25C218.02 222.25 217.833 222.436 217.833 222.667 217.833 222.897 218.02 223.083 218.25 223.083L218.667 223.083 218.667 224.75C218.667 224.98 218.853 225.167 219.083 225.167L225.333 225.167C225.564 225.167 225.75 224.98 225.75 224.75L225.75 217.25C225.75 217.02 225.564 216.833 225.333 216.833ZM224.917 224.333 219.5 224.333 219.5 223.083 219.917 223.083C220.147 223.083 220.333 222.897 220.333 222.667 220.333 222.436 220.147 222.25 219.917 222.25L219.5 222.25 219.5 221.417 219.917 221.417C220.147 221.417 220.333 221.23 220.333 221 220.333 220.77 220.147 220.583 219.917 220.583L219.5 220.583 219.5 219.75 219.917 219.75C220.147 219.75 220.333 219.563 220.333 219.333 220.333 219.103 220.147 218.917 219.917 218.917L219.5 218.917 219.5 217.667 224.917 217.667 224.917 224.333Z"/></g></g></g><path d="M164.24 144 194.76 144C198.759 144 202 146.91 202 150.5 202 154.09 198.759 157 194.76 157L164.24 157C160.241 157 157 154.09 157 150.5 157 146.91 160.241 144 164.24 144Z" fill="#313131" fill-rule="evenodd"/><text fill="#FFFFFF" font-family="Calibri,Calibri_MSFontService,sans-serif" font-weight="700" font-size="5" transform="translate(164.4 152)">&lt;Clarified by|</text><path d="M167.779 180 213.221 180C219.174 180 224 182.91 224 186.5 224 190.09 219.174 193 213.221 193L167.779 193C161.826 193 157 190.09 157 186.5 157 182.91 161.826 180 167.779 180Z" fill="#313131" fill-rule="evenodd"/><text fill="#FFFFFF" font-family="Calibri,Calibri_MSFontService,sans-serif" font-weight="700" font-size="5" transform="translate(175.755 188)">&lt;Clarified by|</text><path d="M166.331 215 205.669 215C210.822 215 215 217.91 215 221.5 215 225.09 210.822 228 205.669 228L166.331 228C161.178 228 157 225.09 157 221.5 157 217.91 161.178 215 166.331 215Z" fill="#313131" fill-rule="evenodd"/><text fill="#FFFFFF" font-family="Calibri,Calibri_MSFontService,sans-serif" font-weight="700" font-size="5" transform="translate(171.664 223)">|Cordinates&gt;</text><path d="M164.883 33 198.117 33C202.471 33 206 36.134 206 40 206 43.866 202.471 47 198.117 47L164.883 47C160.529 47 157 43.866 157 40 157 36.134 160.529 33 164.883 33Z" fill="#313131" fill-rule="evenodd"/><text fill="#FFFFFF" font-family="Calibri,Calibri_MSFontService,sans-serif" font-weight="700" font-size="5" transform="translate(164.901 42)">&lt;Enhanced by|</text><path d="M164.561 107 196.439 107C200.615 107 204 110.134 204 114 204 117.866 200.615 121 196.439 121L164.561 121C160.385 121 157 117.866 157 114 157 110.134 160.385 107 164.561 107Z" fill="#313131" fill-rule="evenodd"/><text fill="#FFFFFF" font-family="Calibri,Calibri_MSFontService,sans-serif" font-weight="700" font-size="5" transform="translate(169.743 116)">|Related&gt;</text><path d="M167.618 71 212.382 71C218.246 71 223 73.9101 223 77.5 223 81.0898 218.246 84 212.382 84L167.618 84C161.754 84 157 81.0898 157 77.5 157 73.9101 161.754 71 167.618 71Z" fill="#313131" fill-rule="evenodd"/><text fill="#FFFFFF" font-family="Calibri,Calibri_MSFontService,sans-serif" font-weight="700" font-size="5" transform="translate(183.019 80)">|As a&gt;</text></g></svg>