<svg width="265" height="265" xmlns="http://www.w3.org/2000/svg" xmlns:xlink="http://www.w3.org/1999/xlink" overflow="hidden"><defs><clipPath id="clip0"><path d="M0 0 265 0 265 265 0 265Z" fill-rule="evenodd" clip-rule="evenodd"/></clipPath><clipPath id="clip1"><path d="M35 51 55 51 55 71 35 71Z" fill-rule="evenodd" clip-rule="evenodd"/></clipPath><clipPath id="clip2"><path d="M35 51 55 51 55 71 35 71Z" fill-rule="evenodd" clip-rule="evenodd"/></clipPath><clipPath id="clip3"><path d="M35 51 55 51 55 71 35 71Z" fill-rule="evenodd" clip-rule="evenodd"/></clipPath><clipPath id="clip4"><path d="M216 81 226 81 226 92 216 92Z" fill-rule="evenodd" clip-rule="evenodd"/></clipPath><clipPath id="clip5"><path d="M216 81 226 81 226 92 216 92Z" fill-rule="evenodd" clip-rule="evenodd"/></clipPath><clipPath id="clip6"><path d="M216 81 226 81 226 92 216 92Z" fill-rule="evenodd" clip-rule="evenodd"/></clipPath><clipPath id="clip7"><path d="M212 166 222 166 222 177 212 177Z" fill-rule="evenodd" clip-rule="evenodd"/></clipPath><clipPath id="clip8"><path d="M212 166 222 166 222 177 212 177Z" fill-rule="evenodd" clip-rule="evenodd"/></clipPath><clipPath id="clip9"><path d="M212 166 222 166 222 177 212 177Z" fill-rule="evenodd" clip-rule="evenodd"/></clipPath><clipPath id="clip10"><path d="M43 222 55 222 55 234 43 234Z" fill-rule="evenodd" clip-rule="evenodd"/></clipPath><clipPath id="clip11"><path d="M43 222 55 222 55 234 43 234Z" fill-rule="evenodd" clip-rule="evenodd"/></clipPath><clipPath id="clip12"><path d="M43 222 55 222 55 234 43 234Z" fill-rule="evenodd" clip-rule="evenodd"/></clipPath><clipPath id="clip13"><path d="M100 222 110 222 110 234 100 234Z" fill-rule="evenodd" clip-rule="evenodd"/></clipPath><clipPath id="clip14"><path d="M100 222 110 222 110 234 100 234Z" fill-rule="evenodd" clip-rule="evenodd"/></clipPath><clipPath id="clip15"><path d="M100 222 110 222 110 234 100 234Z" fill-rule="evenodd" clip-rule="evenodd"/></clipPath><clipPath id="clip16"><path d="M71 30 82 30 82 39 71 39Z" fill-rule="evenodd" clip-rule="evenodd"/></clipPath><clipPath id="clip17"><path d="M71 30 82 30 82 39 71 39Z" fill-rule="evenodd" clip-rule="evenodd"/></clipPath><clipPath id="clip18"><path d="M71 30 82 30 82 39 71 39Z" fill-rule="evenodd" clip-rule="evenodd"/></clipPath></defs><g clip-path="url(#clip0)"><rect x="0" y="0" width="265" height="265" fill="#313131"/><rect x="89.5" y="131.5" width="1.99999" height="1" stroke="#2F528F" stroke-width="1.33585" stroke-miterlimit="8" fill="#4472C4"/><path d="M23.5 9.75271C23.5 8.50859 24.5085 7.50003 25.7527 7.50003L249.247 7.50003C250.491 7.50003 251.5 8.50859 251.5 9.75271L251.5 249.247C251.5 250.491 250.491 251.5 249.247 251.5L25.7527 251.5C24.5085 251.5 23.5 250.491 23.5 249.247Z" stroke="#FF0000" stroke-width="0.667927" stroke-miterlimit="8" stroke-opacity="0" fill="none" fill-rule="evenodd"/><path d="M30.0794 43.5 149.921 43.5C153.002 43.5 155.5 45.998 155.5 49.0794L155.5 214.252C155.5 216.598 153.598 218.5 151.252 218.5L28.7483 218.5C26.402 218.5 24.5 216.598 24.5 214.252L24.5 49.0794C24.5 45.998 26.998 43.5 30.0794 43.5Z" stroke="#377692" stroke-width="4.67549" stroke-miterlimit="8" fill="#FFFFFF" fill-rule="evenodd"/><g clip-path="url(#clip1)"><g clip-path="url(#clip2)"><g clip-path="url(#clip3)"><path d="M51.625 59.125 50.2127 59.125 50.2127 55.1888C50.2127 54.7518 49.8596 54.3971 49.421 54.3971L42.9618 54.3971C42.946 54.3971 42.9325 54.405 42.9167 54.4058L42.9167 53.5833C42.9167 53.1463 42.562 52.7916 42.125 52.7916L37.375 52.7916C36.938 52.7916 36.5833 53.1463 36.5833 53.5833L36.5833 56.75C36.5833 57.187 36.938 57.5416 37.375 57.5416L42.125 57.5416C42.562 57.5416 42.9167 57.187 42.9167 56.75L42.9167 55.9718C42.9325 55.9725 42.946 55.9805 42.9618 55.9805L48.6294 55.9805 48.6294 59.125 46.875 59.125C46.4372 59.125 46.0834 59.4796 46.0834 59.9166L46.0834 60.7083 40.5417 60.7083C40.1047 60.7083 39.75 61.063 39.75 61.5L39.75 65.4583 38.1667 65.4583C37.7297 65.4583 37.375 65.8122 37.375 66.25L37.375 69.4167C37.375 69.8545 37.7297 70.2083 38.1667 70.2083L42.9167 70.2083C43.3545 70.2083 43.7084 69.8545 43.7084 69.4167L43.7084 68.625 49.25 68.625C49.6878 68.625 50.0417 68.2711 50.0417 67.8333L50.0417 63.875 51.625 63.875C52.0628 63.875 52.4167 63.5211 52.4167 63.0833L52.4167 59.9166C52.4167 59.4796 52.0628 59.125 51.625 59.125ZM41.3334 55.9583 38.1667 55.9583 38.1667 54.375 41.3334 54.375 41.3334 55.9583ZM42.125 68.625 38.9583 68.625 38.9583 67.0417 42.125 67.0417 42.125 68.625ZM48.4584 67.0417 43.7084 67.0417 43.7084 66.25C43.7084 65.8122 43.3545 65.4583 42.9167 65.4583L41.3334 65.4583 41.3334 62.2916 46.0834 62.2916 46.0834 63.0833C46.0834 63.5211 46.4372 63.875 46.875 63.875L48.4584 63.875 48.4584 67.0417ZM50.8334 62.2916 47.6667 62.2916 47.6667 60.7083 50.8334 60.7083 50.8334 62.2916Z"/></g></g></g><path d="M26.9702 6.36947C18.5628 6.36947 11.7473 10.3112 11.7473 15.1736L11.7473 248.948C11.7473 253.81 18.5628 257.752 26.9702 257.752L238.08 257.752C246.487 257.752 253.302 253.81 253.302 248.948L253.302 15.1736C253.302 10.3112 246.487 6.36947 238.08 6.36947ZM0 0 265 0 265 265 0 265Z" fill="#377692" fill-rule="evenodd"/><text font-family="Calibri,Calibri_MSFontService,sans-serif" font-weight="700" font-size="11" transform="translate(78.9721 63)">PROCESS<tspan font-weight="400" font-size="9" x="-47.6818" y="68">A collection of </tspan><tspan font-size="9" x="9.259" y="68">Tasks</tspan><tspan font-weight="400" font-size="9" x="32.6364" y="68">and </tspan><tspan font-weight="400" font-size="9" x="-47.6818" y="79">decision logic that collectively </tspan><tspan font-weight="400" font-size="9" x="-47.6818" y="90">coordinates the execution of </tspan><tspan font-weight="400" font-size="9" x="-47.6818" y="101">a business endeavour.</tspan></text><path d="M216.5 84.5001C216.5 83.9477 216.948 83.5 217.5 83.5L247.5 83.5C248.052 83.5 248.5 83.9477 248.5 84.5001L248.5 88.5C248.5 89.0523 248.052 89.5 247.5 89.5L217.5 89.5C216.948 89.5 216.5 89.0523 216.5 88.5Z" stroke="#A65462" stroke-width="1.33585" stroke-miterlimit="8" fill="#FFFFFF" fill-rule="evenodd"/><text font-family="Calibri,Calibri_MSFontService,sans-serif" font-weight="700" font-size="5" transform="translate(227.655 87)">CONTEXT</text><g clip-path="url(#clip4)"><g clip-path="url(#clip5)"><g clip-path="url(#clip6)"><path d="M6.03936 6.74998 2.94562 6.74998C2.5573 6.74998 2.24249 7.06478 2.24249 7.4531 2.24249 7.84142 2.5573 8.15623 2.94562 8.15623L6.03936 8.15623C6.42768 8.15623 6.74248 7.84142 6.74248 7.4531 6.74248 7.06478 6.42768 6.74998 6.03936 6.74998ZM3.13312 7.73435C2.97778 7.73435 2.85187 7.60844 2.85187 7.4531 2.85187 7.29777 2.97778 7.17185 3.13312 7.17185 3.28845 7.17185 3.41436 7.29777 3.41436 7.4531 3.41436 7.60844 3.28845 7.73435 3.13312 7.73435ZM4.49249 7.73435C4.33715 7.73435 4.21124 7.60844 4.21124 7.4531 4.21124 7.29777 4.33715 7.17185 4.49249 7.17185 4.64782 7.17185 4.77374 7.29777 4.77374 7.4531 4.77374 7.60844 4.64782 7.73435 4.49249 7.73435ZM5.85186 7.73435C5.69652 7.73435 5.57061 7.60844 5.57061 7.4531 5.57061 7.29777 5.69652 7.17185 5.85186 7.17185 6.00719 7.17185 6.13311 7.29777 6.13311 7.4531 6.13311 7.60844 6.00719 7.73435 5.85186 7.73435Z" transform="matrix(1 0 -0 1.00001 217 82)"/><path d="M5.1403 2.62499C5.1403 2.70266 5.07734 2.76562 4.99967 2.76562 4.92201 2.76562 4.85905 2.70266 4.85905 2.62499 4.85905 2.54733 4.92201 2.48437 4.99967 2.48437 5.07734 2.48437 5.1403 2.54733 5.1403 2.62499Z" transform="matrix(1 0 -0 1.00001 217 82)"/><path d="M5.30717 1.68749 4.68749 1.68749 4.68749 1.26093C4.86685 1.15738 4.9283 0.928035 4.82475 0.748676 4.72119 0.569317 4.49185 0.507864 4.31249 0.611417 4.13313 0.71497 4.07167 0.944313 4.17523 1.12367 4.20814 1.18068 4.25548 1.22802 4.31249 1.26093L4.31249 1.68749 3.6928 1.68749C3.46572 1.68801 3.28176 1.87198 3.28124 2.09906L3.28124 3.15093C3.28176 3.37801 3.46572 3.56197 3.6928 3.56249L5.30717 3.56249C5.53425 3.56197 5.71822 3.37801 5.71873 3.15093L5.71873 2.09906C5.71822 1.87198 5.53425 1.68801 5.30717 1.68749ZM4.03124 2.90624C3.8759 2.90624 3.74999 2.78033 3.74999 2.62499 3.74999 2.46966 3.8759 2.34374 4.03124 2.34374 4.18657 2.34374 4.31249 2.46966 4.31249 2.62499 4.31249 2.78033 4.18657 2.90624 4.03124 2.90624ZM4.96874 2.90624C4.8134 2.90624 4.68749 2.78033 4.68749 2.62499 4.68749 2.46966 4.8134 2.34374 4.96874 2.34374 5.12407 2.34374 5.24998 2.46966 5.24998 2.62499 5.24998 2.78033 5.12407 2.90624 4.96874 2.90624Z" transform="matrix(1 0 -0 1.00001 217 82)"/><path d="M4.2028 2.62499C4.2028 2.70266 4.13984 2.76562 4.06218 2.76562 3.98451 2.76562 3.92155 2.70266 3.92155 2.62499 3.92155 2.54733 3.98451 2.48437 4.06218 2.48437 4.13984 2.48437 4.2028 2.54733 4.2028 2.62499Z" transform="matrix(1 0 -0 1.00001 217 82)"/><path d="M6.93748 5.51436 6.93748 4.73342C6.93748 4.50094 6.74902 4.31249 6.51654 4.31249L5.99998 4.31249 5.99998 3.84374 2.99999 3.84374 2.99999 4.40624 2.29593 4.40624C2.27056 4.40624 2.24999 4.38567 2.24999 4.3603L2.24999 3.58311C2.57227 3.48794 2.75636 3.14953 2.66119 2.82727 2.63567 2.74087 2.59129 2.66122 2.53124 2.59405L2.24999 2.84343C2.28933 2.88621 2.31167 2.94188 2.31281 2.99999 2.3121 3.12943 2.2066 3.23379 2.07716 3.23309 1.94772 3.23238 1.84336 3.12688 1.84407 2.99744 1.84437 2.94153 1.86464 2.88758 1.90124 2.8453L1.62 2.59874C1.39904 2.8526 1.42571 3.23751 1.67956 3.45846 1.73699 3.50845 1.80328 3.54724 1.87499 3.5728L1.87499 4.3603C1.87499 4.59278 2.06345 4.78124 2.29593 4.78124L2.99999 4.78124 2.99999 6.46873 5.99998 6.46873 5.99998 4.68749 6.51654 4.68749C6.54191 4.68749 6.56248 4.70805 6.56248 4.73342L6.56248 5.51436C6.24227 5.61794 6.06667 5.9615 6.17025 6.28171 6.19618 6.36185 6.23844 6.43574 6.29436 6.49873L6.57561 6.24936C6.53681 6.20683 6.5154 6.15129 6.51561 6.09373 6.51572 5.96429 6.62074 5.85944 6.75018 5.85955 6.87962 5.85967 6.98447 5.96469 6.98435 6.09413 6.98431 6.1509 6.96365 6.20573 6.92623 6.24842L7.20748 6.49498C7.4293 6.24257 7.4045 5.85813 7.15209 5.63631 7.08964 5.58142 7.0166 5.53992 6.93748 5.51436ZM5.62498 5.15623 5.36436 5.15623C5.35529 5.15786 5.34667 5.16137 5.33905 5.16655L5.05217 5.45998 4.83374 4.94249 4.42592 5.78623 4.13999 4.68749 3.91968 5.15623 3.46874 5.15623 3.46874 4.96874 3.80061 4.96874 4.19061 4.13905 4.47936 5.24342 4.84592 4.49342 5.11592 5.1328 5.20967 5.03905C5.25084 4.99739 5.30591 4.97235 5.36436 4.96874L5.62498 4.96874Z" transform="matrix(1 0 -0 1.00001 217 82)"/></g></g></g><path d="M212.5 169.5C212.5 168.948 212.948 168.5 213.5 168.5L247.5 168.5C248.052 168.5 248.5 168.948 248.5 169.5L248.5 173.5C248.5 174.052 248.052 174.5 247.5 174.5L213.5 174.5C212.948 174.5 212.5 174.052 212.5 173.5Z" stroke="#911EB4" stroke-width="1.33585" stroke-miterlimit="8" fill="#FFFFFF" fill-rule="evenodd"/><text font-family="Calibri,Calibri_MSFontService,sans-serif" font-weight="700" font-size="5" transform="translate(223.229 172)">CAPABILITY</text><g clip-path="url(#clip7)"><g clip-path="url(#clip8)"><g clip-path="url(#clip9)"><path d="M220.75 170.167 213.25 170.167C213.02 170.167 212.833 170.353 212.833 170.583L212.833 172.25C212.833 172.48 213.02 172.667 213.25 172.667L213.667 172.667 213.667 175.167C213.667 175.397 213.853 175.583 214.083 175.583L219.917 175.583C220.147 175.583 220.333 175.397 220.333 175.167L220.333 172.667 220.75 172.667C220.98 172.667 221.167 172.48 221.167 172.25L221.167 170.583C221.167 170.353 220.98 170.167 220.75 170.167ZM219.5 174.75 214.5 174.75 214.5 172.667 219.5 172.667 219.5 174.75ZM220.333 171.833 219.917 171.833 214.083 171.833 213.667 171.833 213.667 171 220.333 171 220.333 171.833Z"/><path d="M214.083 169.333 216.167 169.333C216.397 169.333 216.583 169.147 216.583 168.917L216.583 166.833C216.583 166.603 216.397 166.417 216.167 166.417L214.083 166.417C213.853 166.417 213.667 166.603 213.667 166.833L213.667 168.917C213.667 169.147 213.853 169.333 214.083 169.333ZM214.5 167.25 215.75 167.25 215.75 168.5 214.5 168.5 214.5 167.25Z"/><path d="M218.875 169.333C219.681 169.333 220.333 168.68 220.333 167.875 220.333 167.07 219.681 166.417 218.875 166.417 218.069 166.417 217.417 167.07 217.417 167.875 217.417 168.68 218.069 169.333 218.875 169.333ZM218.875 167.25C219.22 167.25 219.5 167.53 219.5 167.875 219.5 168.22 219.22 168.5 218.875 168.5 218.53 168.5 218.25 168.22 218.25 167.875 218.25 167.53 218.53 167.25 218.875 167.25Z"/></g></g></g><path d="M165.527 168 201.473 168C206.183 168 210 170.91 210 174.5 210 178.09 206.183 181 201.473 181L165.527 181C160.817 181 157 178.09 157 174.5 157 170.91 160.817 168 165.527 168Z" fill="#313131" fill-rule="evenodd"/><text fill="#FFFFFF" font-family="Calibri,Calibri_MSFontService,sans-serif" font-weight="700" font-size="5" transform="translate(173.751 176)">|Enacts&gt;</text><path d="M166.331 83 205.669 83C210.822 83 215 86.134 215 90 215 93.866 210.822 97 205.669 97L166.331 97C161.178 97 157 93.866 157 90 157 86.134 161.178 83 166.331 83Z" fill="#313131" fill-rule="evenodd"/><text fill="#FFFFFF" font-family="Calibri,Calibri_MSFontService,sans-serif" font-weight="700" font-size="5" transform="translate(171.163 92)">|Executes in&gt;</text><path d="M84 222 89.5 218 95 222Z" fill="#FFFFFF" fill-rule="evenodd"/><path d="M44.5 226.5C44.5 225.948 44.9478 225.5 45.5001 225.5L77.5 225.5C78.0523 225.5 78.5 225.948 78.5 226.5L78.5 230.5C78.5 231.052 78.0523 231.5 77.5 231.5L45.5001 231.5C44.9478 231.5 44.5 231.052 44.5 230.5Z" stroke="#5AA203" stroke-width="1.33585" stroke-miterlimit="8" fill="#FFFFFF" fill-rule="evenodd"/><text font-family="Calibri,Calibri_MSFontService,sans-serif" font-weight="700" font-size="5" transform="translate(55.2198 229)">OUTCOME</text><g clip-path="url(#clip10)"><g clip-path="url(#clip11)"><g clip-path="url(#clip12)"><path d="M52.2113 229.372C52.0484 229.209 51.785 229.209 51.6221 229.372 51.4592 229.535 51.4592 229.798 51.6221 229.961L52.1609 230.5 48.945 230.5 50.18 228.648C50.2738 228.508 50.2738 228.327 50.18 228.186L48.6675 225.917 52.1609 225.917 51.6221 226.455C51.4592 226.618 51.4592 226.882 51.6221 227.045 51.7034 227.126 51.81 227.167 51.9167 227.167 52.0234 227.167 52.13 227.126 52.2113 227.045L53.4613 225.795C53.6242 225.632 53.6242 225.368 53.4613 225.205L52.2113 223.955C52.0484 223.792 51.785 223.792 51.6221 223.955 51.4592 224.118 51.4592 224.382 51.6221 224.545L52.1609 225.083 48.1667 225.083C48.1496 225.083 48.135 225.092 48.1183 225.093L47.68 224.435C47.5254 224.203 47.1412 224.203 46.9867 224.435L44.4866 228.185C44.3933 228.325 44.3933 228.508 44.4866 228.648L46.9867 232.398C47.0642 232.514 47.1942 232.583 47.3333 232.583 47.4725 232.583 47.6025 232.514 47.68 232.398L48.3896 231.333 52.1609 231.333 51.6221 231.872C51.4592 232.035 51.4592 232.298 51.6221 232.461 51.7034 232.543 51.81 232.583 51.9167 232.583 52.0234 232.583 52.13 232.543 52.2113 232.461L53.4613 231.211C53.6242 231.048 53.6242 230.785 53.4613 230.622L52.2113 229.372ZM47.3333 231.415 45.3341 228.417 47.3333 225.418 49.3325 228.417 47.3333 231.415Z"/></g></g></g><path d="M99.5 226.5C99.5 225.948 99.9477 225.5 100.5 225.5L122.5 225.5C123.052 225.5 123.5 225.948 123.5 226.5L123.5 230.5C123.5 231.052 123.052 231.5 122.5 231.5L100.5 231.5C99.9477 231.5 99.5 231.052 99.5 230.5Z" stroke="#377692" stroke-width="1.33585" stroke-miterlimit="8" fill="#FFFFFF" fill-rule="evenodd"/><text font-family="Calibri,Calibri_MSFontService,sans-serif" font-weight="700" font-size="5" transform="translate(110.922 229)">TASK</text><g clip-path="url(#clip13)"><g clip-path="url(#clip14)"><g clip-path="url(#clip15)"><path d="M4.51915 6.16665 3.55749 5.16665 2.91666 5.83332 4.51915 7.49998 4.51915 7.49956 4.51999 7.49998 7.08331 4.83332 6.44248 4.16665Z" transform="matrix(1 0 -0 1.00001 100 223)"/><path d="M8.33331 1.25 7.08331 1.25 7.08331 0.833331C7.08331 0.603332 6.89706 0.416665 6.66665 0.416665L3.33332 0.416665C3.10332 0.416665 2.91666 0.603332 2.91666 0.833331L2.91666 1.25 1.66666 1.25C1.43666 1.25 1.25 1.43666 1.25 1.66666L1.25 9.16664C1.25 9.39706 1.43666 9.58331 1.66666 9.58331L8.33331 9.58331C8.56372 9.58331 8.74997 9.39706 8.74997 9.16664L8.74997 1.66666C8.74997 1.43666 8.56372 1.25 8.33331 1.25ZM3.74999 1.25 6.24998 1.25 6.24998 2.08333 3.74999 2.08333 3.74999 1.25ZM7.91664 8.74997 2.08333 8.74997 2.08333 2.08333 2.91666 2.08333 2.91666 2.49999C2.91666 2.72999 3.10332 2.91666 3.33332 2.91666L6.66665 2.91666C6.89706 2.91666 7.08331 2.72999 7.08331 2.49999L7.08331 2.08333 7.91664 2.08333 7.91664 8.74997Z" transform="matrix(1 0 -0 1.00001 100 223)"/></g></g></g><path d="M84 41 89.5 38 95 41Z" fill="#FFFFFF" fill-rule="evenodd"/><path d="M71.5001 30.6667C71.5001 29.47 72.4701 28.5 73.6668 28.5L102.333 28.5C103.53 28.5 104.5 29.47 104.5 30.6667L104.5 39.3333C104.5 40.53 103.53 41.5 102.333 41.5L73.6668 41.5C72.4701 41.5 71.5001 40.53 71.5001 39.3333Z" stroke="#377692" stroke-width="1.33585" stroke-miterlimit="8" fill="#FFFFFF" fill-rule="evenodd"/><text font-family="Calibri,Calibri_MSFontService,sans-serif" font-weight="700" font-size="5" transform="translate(83.3771 33)">PROCESS<tspan x="0" y="6">GROUP</tspan></text><g clip-path="url(#clip16)"><g clip-path="url(#clip17)"><g clip-path="url(#clip18)"><path d="M1.87499 2.24999C1.2375 2.24999 0.749998 1.76249 0.749998 1.125 0.749998 0.487499 1.2375 0 1.87499 0 2.51249 0 2.99999 0.487499 2.99999 1.125 2.99999 1.76249 2.51249 2.24999 1.87499 2.24999ZM1.87499 0.749998C1.65 0.749998 1.5 0.899997 1.5 1.125 1.5 1.35 1.65 1.5 1.87499 1.5 2.09999 1.5 2.24999 1.35 2.24999 1.125 2.24999 0.899997 2.09999 0.749998 1.87499 0.749998Z" transform="matrix(1.11111 0 -0 1 72.4167 30.375)"/><path d="M3.37499 4.87499C3.14999 4.87499 2.99999 4.72499 2.99999 4.49999L2.99999 3.74999C2.99999 3.52499 2.84999 3.37499 2.62499 3.37499L1.125 3.37499C0.899997 3.37499 0.749998 3.52499 0.749998 3.74999L0.749998 4.49999C0.749998 4.72499 0.599998 4.87499 0.374999 4.87499 0.15 4.87499 0 4.72499 0 4.49999L0 3.74999C0 3.11249 0.487499 2.62499 1.125 2.62499L2.62499 2.62499C3.26249 2.62499 3.74999 3.11249 3.74999 3.74999L3.74999 4.49999C3.74999 4.72499 3.59999 4.87499 3.37499 4.87499Z" transform="matrix(1.11111 0 -0 1 72.4167 30.375)"/><path d="M6.37498 2.24999C5.73748 2.24999 5.24998 1.76249 5.24998 1.125 5.24998 0.487499 5.73748 0 6.37498 0 7.01248 0 7.49998 0.487499 7.49998 1.125 7.49998 1.76249 7.01248 2.24999 6.37498 2.24999ZM6.37498 0.749998C6.14998 0.749998 5.99998 0.899997 5.99998 1.125 5.99998 1.35 6.14998 1.5 6.37498 1.5 6.59998 1.5 6.74998 1.35 6.74998 1.125 6.74998 0.899997 6.59998 0.749998 6.37498 0.749998Z" transform="matrix(1.11111 0 -0 1 72.4167 30.375)"/><path d="M7.87498 4.87499C7.64998 4.87499 7.49998 4.72499 7.49998 4.49999L7.49998 3.74999C7.49998 3.52499 7.34998 3.37499 7.12498 3.37499L5.62498 3.37499C5.39998 3.37499 5.24998 3.52499 5.24998 3.74999L5.24998 4.49999C5.24998 4.72499 5.09999 4.87499 4.87499 4.87499 4.64999 4.87499 4.49999 4.72499 4.49999 4.49999L4.49999 3.74999C4.49999 3.11249 4.98749 2.62499 5.62498 2.62499L7.12498 2.62499C7.76248 2.62499 8.24998 3.11249 8.24998 3.74999L8.24998 4.49999C8.24998 4.72499 8.09998 4.87499 7.87498 4.87499Z" transform="matrix(1.11111 0 -0 1 72.4167 30.375)"/><path d="M1.5 7.87498 0.374999 7.87498C0.15 7.87498 0 7.72498 0 7.49998L0 6.37498C0 6.14998 0.15 5.99998 0.374999 5.99998 0.599998 5.99998 0.749998 6.14998 0.749998 6.37498L0.749998 7.12498 1.5 7.12498C1.72499 7.12498 1.87499 7.27498 1.87499 7.49998 1.87499 7.72498 1.72499 7.87498 1.5 7.87498Z" transform="matrix(1.11111 0 -0 1 72.4167 30.375)"/><path d="M7.87498 7.87498 6.74998 7.87498C6.52498 7.87498 6.37498 7.72498 6.37498 7.49998 6.37498 7.27498 6.52498 7.12498 6.74998 7.12498L7.49998 7.12498 7.49998 6.37498C7.49998 6.14998 7.64998 5.99998 7.87498 5.99998 8.09998 5.99998 8.24998 6.14998 8.24998 6.37498L8.24998 7.49998C8.24998 7.72498 8.09998 7.87498 7.87498 7.87498Z" transform="matrix(1.11111 0 -0 1 72.4167 30.375)"/><path d="M5.24998 8.62497 2.99999 8.62497C2.77499 8.62497 2.62499 8.47498 2.62499 8.24998L2.62499 6.74998C2.62499 6.52498 2.77499 6.37498 2.99999 6.37498L5.24998 6.37498C5.47498 6.37498 5.62498 6.52498 5.62498 6.74998L5.62498 8.24998C5.62498 8.47498 5.47498 8.62497 5.24998 8.62497ZM3.37499 7.87498 4.87499 7.87498 4.87499 7.12498 3.37499 7.12498 3.37499 7.87498Z" transform="matrix(1.11111 0 -0 1 72.4167 30.375)"/></g></g></g></g></svg>