<svg width="189" height="189" xmlns="http://www.w3.org/2000/svg" xmlns:xlink="http://www.w3.org/1999/xlink" overflow="hidden"><defs><clipPath id="clip0"><path d="M0 0 189 0 189 189 0 189Z" fill-rule="evenodd" clip-rule="evenodd"/></clipPath><clipPath id="clip1"><path d="M3 3 47 3 47 48 3 48Z" fill-rule="evenodd" clip-rule="evenodd"/></clipPath><clipPath id="clip2"><path d="M3 3 47 3 47 48 3 48Z" fill-rule="evenodd" clip-rule="evenodd"/></clipPath><clipPath id="clip3"><path d="M3 3 47 3 47 48 3 48Z" fill-rule="evenodd" clip-rule="evenodd"/></clipPath></defs><g clip-path="url(#clip0)"><rect x="0" y="0" width="189" height="189" fill="#313131"/><text fill="#FFFFFF" font-family="Calibri,Calibri_MSFontService,sans-serif" font-weight="300" font-size="11" transform="translate(9.60032 0)">COMPONENT</text><rect x="3.50005" y="3.50005" width="1" height="1" stroke="#2F528F" stroke-width="1.33333" stroke-miterlimit="8" fill="#4472C4"/><rect x="0" y="0" width="189" height="189" stroke="#B74D41" stroke-width="8" stroke-miterlimit="8" fill="#FFFFFF"/><g clip-path="url(#clip1)"><g clip-path="url(#clip2)"><g clip-path="url(#clip3)"><path d="M42.1667-1.83333 1.83333-1.83333C0.821333-1.83333 0-1.012 0 0L0 14.1167C0 15.1287 0.821333 15.95 1.83333 15.95L14.3312 15.95C15.1598 19.415 18.2838 22 22 22 25.7143 22 28.8365 19.415 29.667 15.95L42.1667 15.95C43.1805 15.95 44 15.1287 44 14.1167L44 0C44-1.012 43.1805-1.83333 42.1667-1.83333ZM40.3333 12.2833 28.0482 12.2833C27.0343 12.2833 26.2148 13.1047 26.2148 14.1167 26.2148 16.4432 24.3247 18.3333 22 18.3333 19.6735 18.3333 17.7833 16.4413 17.7833 14.1167 17.7833 13.1047 16.962 12.2833 15.95 12.2833L3.66667 12.2833 3.66667 1.83333 40.3333 1.83333 40.3333 12.2833Z" transform="matrix(1 0 -0 1.02273 3 4.875)"/><path d="M42.1667 24.3815 28.0757 24.3815C28.0702 24.3815 28.0665 24.3852 28.061 24.3852 28.0555 24.3852 28.0518 24.3815 28.0463 24.3815 27.0325 24.3815 26.213 25.201 26.213 26.2148 26.213 28.5432 24.3228 30.4352 21.9982 30.4352 19.6717 30.4352 17.7815 28.5432 17.7815 26.2148 17.7815 25.201 16.9602 24.3815 15.9482 24.3815 15.9115 24.3815 15.8822 24.3998 15.8473 24.4017 15.8107 24.3998 15.7813 24.3815 15.7465 24.3815L1.83333 24.3815C0.821333 24.3815 0 25.201 0 26.2148L0 40.3333C0 41.3472 0.821333 42.1667 1.83333 42.1667L42.1667 42.1667C43.1805 42.1667 44 41.3472 44 40.3333L44 26.2148C44 25.201 43.1805 24.3815 42.1667 24.3815ZM40.3333 38.5 3.66667 38.5 3.66667 28.0482 14.3532 28.0482C15.1837 31.5113 18.2875 34.1018 22 34.1018 25.7107 34.1018 28.8127 31.5113 29.645 28.0482L40.3333 28.0482 40.3333 38.5Z" transform="matrix(1 0 -0 1.02273 3 4.875)"/></g></g></g><text font-family="Calibri,Calibri_MSFontService,sans-serif" font-weight="700" font-size="20" transform="translate(83.8948 23)">SYSTEM <tspan x="-23.0267" y="24">COMPONENT</tspan><tspan font-weight="400" font-size="12" x="-77.3558" y="78">A granular element of computing </tspan><tspan font-weight="400" font-size="12" x="-77.3558" y="93">resource within a </tspan><tspan font-size="12" x="9.81087" y="93">System</tspan><tspan font-weight="400" font-size="12" x="48.6442" y="93">that can </tspan><tspan font-weight="400" font-size="12" x="-77.3558" y="107">be invoked to enable a distinct </tspan><tspan font-weight="400" font-size="12" x="-77.3558" y="121">technology feature.</tspan></text></g></svg>