<svg width="189" height="189" xmlns="http://www.w3.org/2000/svg" xmlns:xlink="http://www.w3.org/1999/xlink" overflow="hidden"><defs><clipPath id="clip0"><path d="M0 0 189 0 189 189 0 189Z" fill-rule="evenodd" clip-rule="evenodd"/></clipPath><clipPath id="clip1"><path d="M3 3 47 3 47 48 3 48Z" fill-rule="evenodd" clip-rule="evenodd"/></clipPath><clipPath id="clip2"><path d="M3 3 47 3 47 48 3 48Z" fill-rule="evenodd" clip-rule="evenodd"/></clipPath><clipPath id="clip3"><path d="M3 3 47 3 47 48 3 48Z" fill-rule="evenodd" clip-rule="evenodd"/></clipPath></defs><g clip-path="url(#clip0)"><rect x="0" y="0" width="189" height="189" fill="#313131"/><text fill="#FFFFFF" font-family="Calibri,Calibri_MSFontService,sans-serif" font-weight="300" font-size="11" transform="translate(9.60032 -5)">RESULT</text><rect x="3.50005" y="3.50005" width="1" height="1" stroke="#2F528F" stroke-width="1.33333" stroke-miterlimit="8" fill="#4472C4"/><rect x="0" y="0" width="189" height="189" stroke="#5AA203" stroke-width="8" stroke-miterlimit="8" fill="#FFFFFF"/><g clip-path="url(#clip1)"><g clip-path="url(#clip2)"><g clip-path="url(#clip3)"><path d="M33 9.669 23.9763 19.0428 23.9727 19.0428 23.9727 19.0428 18.3333 13.1853 20.5883 10.8405 23.9727 14.3568 30.745 7.326Z" transform="matrix(1 0 -0 1.02273 3 4.875)"/><path d="M33 22.484 23.9763 31.8597 23.9727 31.8578 23.9727 31.8597 18.3333 26.004 20.5883 23.6537 23.9727 27.17 30.745 20.141Z" transform="matrix(1 0 -0 1.02273 3 4.875)"/><path d="M38.5 40.2838 12.8333 40.2838C11.8213 40.2838 11 39.4643 11 38.4505L11 1.83333C11 0.821333 11.8213 0 12.8333 0L38.5 0C39.5138 0 40.3333 0.821333 40.3333 1.83333L40.3333 38.4505C40.3333 39.4625 39.5138 40.2838 38.5 40.2838ZM14.6667 36.6172 36.6667 36.6172 36.6667 3.66667 14.6667 3.66667 14.6667 36.6172Z" transform="matrix(1 0 -0 1.02273 3 4.875)"/><path d="M7.33333 40.3333C6.32133 40.3333 5.5 39.5138 5.5 38.5L5.5 1.83333C5.5 0.821333 6.32133 0 7.33333 0 8.34533 0 9.16667 0.821333 9.16667 1.83333L9.16667 38.5C9.16667 39.5138 8.34533 40.3333 7.33333 40.3333Z" transform="matrix(1 0 -0 1.02273 3 4.875)"/></g></g></g><text font-family="Calibri,Calibri_MSFontService,sans-serif" font-weight="700" font-size="20" transform="translate(86.5415 23)">RESULT<tspan font-weight="400" font-size="12" x="-80.0025" y="86">A </tspan><tspan font-size="12" x="-70.3358" y="86">Result</tspan><tspan font-weight="400" font-size="12" x="-36.3358" y="86">is a Particular </tspan><tspan font-size="12" x="31.6642" y="86">Outcome </tspan><tspan font-size="12" x="-80.0025" y="101">State</tspan><tspan font-weight="400" font-size="12" x="-51.3358" y="101">obtained by a </tspan><tspan font-size="12" x="17.9975" y="101">LogicGate</tspan><tspan font-weight="400" font-size="12" x="-80.0025" y="115">decision.</tspan></text></g></svg>