<svg width="189" height="189" xmlns="http://www.w3.org/2000/svg" xmlns:xlink="http://www.w3.org/1999/xlink" overflow="hidden"><defs><clipPath id="clip0"><path d="M0 0 189 0 189 189 0 189Z" fill-rule="evenodd" clip-rule="evenodd"/></clipPath><clipPath id="clip1"><path d="M3 3 47 3 47 48 3 48Z" fill-rule="evenodd" clip-rule="evenodd"/></clipPath><clipPath id="clip2"><path d="M3 3 47 3 47 48 3 48Z" fill-rule="evenodd" clip-rule="evenodd"/></clipPath><clipPath id="clip3"><path d="M3 3 47 3 47 48 3 48Z" fill-rule="evenodd" clip-rule="evenodd"/></clipPath></defs><g clip-path="url(#clip0)"><rect x="0" y="0" width="189" height="189" fill="#313131"/><text fill="#FFFFFF" font-family="Calibri,Calibri_MSFontService,sans-serif" font-weight="300" font-size="11" transform="translate(9.60032 -5)">BENEFIT</text><rect x="3.50005" y="3.50005" width="1" height="1" stroke="#2F528F" stroke-width="1.33333" stroke-miterlimit="8" fill="#4472C4"/><rect x="0" y="0" width="189" height="189" stroke="#FABEBE" stroke-width="8" stroke-miterlimit="8" fill="#FFFFFF"/><g clip-path="url(#clip1)"><g clip-path="url(#clip2)"><g clip-path="url(#clip3)"><path d="M10.0833 33.9167C10.5527 33.9167 11.022 33.737 11.3795 33.3795L33.9167 10.8423 33.9167 14.1955C33.9167 15.2075 34.7362 16.0288 35.75 16.0288 36.7638 16.0288 37.5833 15.2075 37.5833 14.1955L37.5833 6.41667C37.5833 6.17833 37.5375 5.94 37.4422 5.71633 37.2533 5.26717 36.8995 4.9115 36.4503 4.7245 36.2267 4.631 35.9883 4.58333 35.75 4.58333L27.9712 4.58333C26.9573 4.58333 26.1378 5.40467 26.1378 6.41667 26.1378 7.42867 26.9573 8.25 27.9712 8.25L31.3243 8.25 8.78717 30.7872C8.07033 31.504 8.07033 32.6627 8.78717 33.3795 9.14467 33.737 9.614 33.9167 10.0833 33.9167Z" transform="matrix(1 0 -0 1.02273 3 3)"/><path d="M40.3333 36.6667 5.5 36.6667 5.5 3.66667C5.5 2.65467 4.67867 1.83333 3.66667 1.83333 2.65467 1.83333 1.83333 2.65467 1.83333 3.66667L1.83333 38.5C1.83333 39.5138 2.65467 40.3333 3.66667 40.3333L40.3333 40.3333C41.3472 40.3333 42.1667 39.5138 42.1667 38.5 42.1667 37.4862 41.3472 36.6667 40.3333 36.6667Z" transform="matrix(1 0 -0 1.02273 3 3)"/></g></g></g><text font-family="Calibri,Calibri_MSFontService,sans-serif" font-weight="700" font-size="20" transform="translate(82.5448 23)">BENEFIT<tspan font-weight="400" font-size="12" x="-76.0058" y="78">A positive impact experienced by a </tspan><tspan font-weight="400" font-size="12" x="-76.0058" y="93">party resulting from an </tspan><tspan font-weight="400" font-size="12" x="-76.0058" y="107">interaction/transaction with </tspan><tspan font-weight="400" font-size="12" x="-76.0058" y="121">another party or entity.</tspan></text></g></svg>