<svg width="265" height="265" xmlns="http://www.w3.org/2000/svg" xmlns:xlink="http://www.w3.org/1999/xlink" overflow="hidden"><defs><clipPath id="clip0"><path d="M0 0 265 0 265 265 0 265Z" fill-rule="evenodd" clip-rule="evenodd"/></clipPath><clipPath id="clip1"><path d="M35 51 55 51 55 71 35 71Z" fill-rule="evenodd" clip-rule="evenodd"/></clipPath><clipPath id="clip2"><path d="M35 51 55 51 55 71 35 71Z" fill-rule="evenodd" clip-rule="evenodd"/></clipPath><clipPath id="clip3"><path d="M35 51 55 51 55 71 35 71Z" fill-rule="evenodd" clip-rule="evenodd"/></clipPath><clipPath id="clip4"><path d="M216 61 226 61 226 71 216 71Z" fill-rule="evenodd" clip-rule="evenodd"/></clipPath><clipPath id="clip5"><path d="M216 61 226 61 226 71 216 71Z" fill-rule="evenodd" clip-rule="evenodd"/></clipPath><clipPath id="clip6"><path d="M216 61 226 61 226 71 216 71Z" fill-rule="evenodd" clip-rule="evenodd"/></clipPath><clipPath id="clip7"><path d="M208 124 218 124 218 134 208 134Z" fill-rule="evenodd" clip-rule="evenodd"/></clipPath><clipPath id="clip8"><path d="M208 124 218 124 218 134 208 134Z" fill-rule="evenodd" clip-rule="evenodd"/></clipPath><clipPath id="clip9"><path d="M208 124 218 124 218 134 208 134Z" fill-rule="evenodd" clip-rule="evenodd"/></clipPath><clipPath id="clip10"><path d="M213 186 224 186 224 198 213 198Z" fill-rule="evenodd" clip-rule="evenodd"/></clipPath><clipPath id="clip11"><path d="M213 186 224 186 224 198 213 198Z" fill-rule="evenodd" clip-rule="evenodd"/></clipPath><clipPath id="clip12"><path d="M213 186 224 186 224 198 213 198Z" fill-rule="evenodd" clip-rule="evenodd"/></clipPath><clipPath id="clip13"><path d="M71 28 82 28 82 38 71 38Z" fill-rule="evenodd" clip-rule="evenodd"/></clipPath><clipPath id="clip14"><path d="M71 28 82 28 82 38 71 38Z" fill-rule="evenodd" clip-rule="evenodd"/></clipPath><clipPath id="clip15"><path d="M71 28 82 28 82 38 71 38Z" fill-rule="evenodd" clip-rule="evenodd"/></clipPath></defs><g clip-path="url(#clip0)"><rect x="0" y="0" width="265" height="265" fill="#313131"/><rect x="89.5" y="131.5" width="1.99999" height="1" stroke="#2F528F" stroke-width="1.33585" stroke-miterlimit="8" fill="#4472C4"/><path d="M23.5 9.75271C23.5 8.50859 24.5085 7.50003 25.7527 7.50003L249.247 7.50003C250.491 7.50003 251.5 8.50859 251.5 9.75271L251.5 249.247C251.5 250.491 250.491 251.5 249.247 251.5L25.7527 251.5C24.5085 251.5 23.5 250.491 23.5 249.247Z" stroke="#FF0000" stroke-width="0.667927" stroke-miterlimit="8" stroke-opacity="0" fill="none" fill-rule="evenodd"/><path d="M30.0794 43.5 149.921 43.5C153.002 43.5 155.5 45.998 155.5 49.0794L155.5 214.252C155.5 216.598 153.598 218.5 151.252 218.5L28.7483 218.5C26.402 218.5 24.5 216.598 24.5 214.252L24.5 49.0794C24.5 45.998 26.998 43.5 30.0794 43.5Z" stroke="#377692" stroke-width="4.67549" stroke-miterlimit="8" fill="#FFFFFF" fill-rule="evenodd"/><g clip-path="url(#clip1)"><g clip-path="url(#clip2)"><g clip-path="url(#clip3)"><path d="M43.5864 63.7166 41.7593 61.8166 40.5417 63.0833 43.5864 66.25 43.5864 66.2492 43.588 66.25 48.4584 61.1833 47.2408 59.9166Z"/><path d="M50.8334 54.375 48.4584 54.375 48.4584 53.5833C48.4584 53.1463 48.1045 52.7916 47.6667 52.7916L41.3334 52.7916C40.8963 52.7916 40.5417 53.1463 40.5417 53.5833L40.5417 54.375 38.1667 54.375C37.7297 54.375 37.375 54.7296 37.375 55.1666L37.375 69.4167C37.375 69.8545 37.7297 70.2083 38.1667 70.2083L50.8334 70.2083C51.2712 70.2083 51.625 69.8545 51.625 69.4167L51.625 55.1666C51.625 54.7296 51.2712 54.375 50.8334 54.375ZM42.125 54.375 46.875 54.375 46.875 55.9583 42.125 55.9583 42.125 54.375ZM50.0417 68.625 38.9583 68.625 38.9583 55.9583 40.5417 55.9583 40.5417 56.75C40.5417 57.187 40.8963 57.5416 41.3334 57.5416L47.6667 57.5416C48.1045 57.5416 48.4584 57.187 48.4584 56.75L48.4584 55.9583 50.0417 55.9583 50.0417 68.625Z"/></g></g></g><path d="M26.9702 6.36947C18.5628 6.36947 11.7473 10.3112 11.7473 15.1736L11.7473 248.948C11.7473 253.81 18.5628 257.752 26.9702 257.752L238.08 257.752C246.487 257.752 253.302 253.81 253.302 248.948L253.302 15.1736C253.302 10.3112 246.487 6.36947 238.08 6.36947ZM0 0 265 0 265 265 0 265Z" fill="#377692" fill-rule="evenodd"/><text font-family="Calibri,Calibri_MSFontService,sans-serif" font-weight="700" font-size="11" transform="translate(87.4881 63)">TASK<tspan font-weight="400" font-size="9" x="-56.1978" y="68">A granular unit of work in a </tspan><tspan font-weight="400" font-size="9" x="-56.1978" y="79">business </tspan><tspan font-size="9" x="-21.6326" y="79">Process</tspan><tspan font-weight="400" font-size="9" x="9.75999" y="79">that </tspan><tspan font-weight="400" font-size="9" x="-56.1978" y="90">achieves some tangible </tspan><tspan font-weight="400" font-size="9" x="-56.1978" y="101">business </tspan><tspan font-size="9" x="-21.6326" y="101">Outcome</tspan><tspan font-weight="400" font-size="9" x="14.1015" y="101">.</tspan></text><path d="M216.5 63.5C216.5 62.9477 216.948 62.5 217.5 62.5L247.5 62.5C248.052 62.5 248.5 62.9477 248.5 63.5L248.5 67.5C248.5 68.0523 248.052 68.5 247.5 68.5L217.5 68.5C216.948 68.5 216.5 68.0523 216.5 67.5Z" stroke="#A65462" stroke-width="1.33585" stroke-miterlimit="8" fill="#FFFFFF" fill-rule="evenodd"/><text font-family="Calibri,Calibri_MSFontService,sans-serif" font-weight="700" font-size="5" transform="translate(227.655 66)">CONTEXT</text><g clip-path="url(#clip4)"><g clip-path="url(#clip5)"><g clip-path="url(#clip6)"><path d="M223.039 67.75 219.946 67.75C219.557 67.75 219.242 68.0648 219.242 68.4531 219.242 68.8415 219.557 69.1563 219.946 69.1563L223.039 69.1563C223.428 69.1563 223.742 68.8415 223.742 68.4531 223.742 68.0648 223.428 67.75 223.039 67.75ZM220.133 68.7344C219.978 68.7344 219.852 68.6085 219.852 68.4531 219.852 68.2978 219.978 68.1719 220.133 68.1719 220.288 68.1719 220.414 68.2978 220.414 68.4531 220.414 68.6085 220.288 68.7344 220.133 68.7344ZM221.492 68.7344C221.337 68.7344 221.211 68.6085 221.211 68.4531 221.211 68.2978 221.337 68.1719 221.492 68.1719 221.648 68.1719 221.774 68.2978 221.774 68.4531 221.774 68.6085 221.648 68.7344 221.492 68.7344ZM222.852 68.7344C222.697 68.7344 222.571 68.6085 222.571 68.4531 222.571 68.2978 222.697 68.1719 222.852 68.1719 223.007 68.1719 223.133 68.2978 223.133 68.4531 223.133 68.6085 223.007 68.7344 222.852 68.7344Z"/><path d="M222.14 63.625C222.14 63.7027 222.077 63.7656 222 63.7656 221.922 63.7656 221.859 63.7027 221.859 63.625 221.859 63.5474 221.922 63.4844 222 63.4844 222.077 63.4844 222.14 63.5474 222.14 63.625Z"/><path d="M222.307 62.6875 221.687 62.6875 221.687 62.261C221.867 62.1574 221.928 61.9281 221.825 61.7487 221.721 61.5693 221.492 61.5079 221.312 61.6114 221.133 61.715 221.072 61.9443 221.175 62.1237 221.208 62.1807 221.255 62.2281 221.312 62.261L221.312 62.6875 220.693 62.6875C220.466 62.688 220.282 62.872 220.281 63.0991L220.281 64.151C220.282 64.378 220.466 64.562 220.693 64.5625L222.307 64.5625C222.534 64.562 222.718 64.378 222.719 64.151L222.719 63.0991C222.718 62.872 222.534 62.688 222.307 62.6875ZM221.031 63.9063C220.876 63.9063 220.75 63.7804 220.75 63.625 220.75 63.4697 220.876 63.3438 221.031 63.3438 221.187 63.3438 221.312 63.4697 221.312 63.625 221.312 63.7804 221.187 63.9063 221.031 63.9063ZM221.969 63.9063C221.813 63.9063 221.687 63.7804 221.687 63.625 221.687 63.4697 221.813 63.3438 221.969 63.3438 222.124 63.3438 222.25 63.4697 222.25 63.625 222.25 63.7804 222.124 63.9063 221.969 63.9063Z"/><path d="M221.203 63.625C221.203 63.7027 221.14 63.7656 221.062 63.7656 220.984 63.7656 220.922 63.7027 220.922 63.625 220.922 63.5474 220.984 63.4844 221.062 63.4844 221.14 63.4844 221.203 63.5474 221.203 63.625Z"/><path d="M223.937 66.5144 223.937 65.7335C223.937 65.501 223.749 65.3125 223.517 65.3125L223 65.3125 223 64.8438 220 64.8438 220 65.4063 219.296 65.4063C219.271 65.4063 219.25 65.3857 219.25 65.3603L219.25 64.5831C219.572 64.488 219.756 64.1496 219.661 63.8273 219.636 63.7409 219.591 63.6612 219.531 63.5941L219.25 63.8435C219.289 63.8862 219.312 63.9419 219.313 64 219.312 64.1295 219.207 64.2338 219.077 64.2331 218.948 64.2324 218.843 64.1269 218.844 63.9975 218.844 63.9416 218.865 63.8876 218.901 63.8453L218.62 63.5988C218.399 63.8526 218.426 64.2375 218.68 64.4585 218.737 64.5085 218.803 64.5473 218.875 64.5728L218.875 65.3603C218.875 65.5928 219.063 65.7813 219.296 65.7813L220 65.7813 220 67.4688 223 67.4688 223 65.6875 223.517 65.6875C223.542 65.6875 223.562 65.7081 223.562 65.7335L223.562 66.5144C223.242 66.618 223.067 66.9615 223.17 67.2817 223.196 67.3619 223.238 67.4358 223.294 67.4988L223.576 67.2494C223.537 67.2069 223.515 67.1513 223.516 67.0938 223.516 66.9643 223.621 66.8595 223.75 66.8596 223.88 66.8597 223.984 66.9647 223.984 67.0942 223.984 67.1509 223.964 67.2058 223.926 67.2485L224.207 67.495C224.429 67.2426 224.404 66.8582 224.152 66.6363 224.09 66.5815 224.017 66.5399 223.937 66.5144ZM222.625 66.1563 222.364 66.1563C222.355 66.1579 222.347 66.1614 222.339 66.1666L222.052 66.46 221.834 65.9425 221.426 66.7863 221.14 65.6875 220.92 66.1563 220.469 66.1563 220.469 65.9688 220.801 65.9688 221.191 65.1391 221.479 66.2435 221.846 65.4935 222.116 66.1328 222.21 66.0391C222.251 65.9974 222.306 65.9724 222.364 65.9688L222.625 65.9688Z"/></g></g></g><path d="M207.5 126.667C207.5 126.022 208.022 125.5 208.667 125.5L247.333 125.5C247.978 125.5 248.5 126.022 248.5 126.667L248.5 131.333C248.5 131.978 247.978 132.5 247.333 132.5L208.667 132.5C208.022 132.5 207.5 131.978 207.5 131.333Z" stroke="#C76F36" stroke-width="1.33585" stroke-miterlimit="8" fill="#FFFFFF" fill-rule="evenodd"/><text font-family="Calibri,Calibri_MSFontService,sans-serif" font-weight="700" font-size="5" transform="translate(219.143 130)">INTERACTION</text><g clip-path="url(#clip7)"><g clip-path="url(#clip8)"><g clip-path="url(#clip9)"><path d="M1.125 4.12499C1.332 4.12499 1.5 3.95699 1.5 3.74999L1.5 2.24999 6.96973 2.24999 6.48486 2.73487C6.33823 2.88149 6.33823 3.11849 6.48486 3.26512 6.55798 3.33824 6.65398 3.37499 6.74998 3.37499 6.84598 3.37499 6.94198 3.33824 7.0151 3.26512L8.1401 2.14012C8.28673 1.99349 8.28673 1.75649 8.1401 1.60987L7.0151 0.484874C6.86848 0.338249 6.63148 0.338249 6.48486 0.484874 6.33823 0.631498 6.33823 0.868497 6.48486 1.01512L6.96973 1.5 1.125 1.5C0.917997 1.5 0.749998 1.66837 0.749998 1.87499L0.749998 3.74999C0.749998 3.95699 0.917997 4.12499 1.125 4.12499Z" transform="matrix(1.11111 0 -0 1 208 124)"/><path d="M7.87498 4.49999C7.6676 4.49999 7.49998 4.66761 7.49998 4.87499L7.49998 6.37498 2.03024 6.37498 2.51512 5.89011C2.66174 5.74348 2.66174 5.50648 2.51512 5.35986 2.36849 5.21323 2.13149 5.21323 1.98487 5.35986L0.859872 6.48486C0.713248 6.63148 0.713248 6.86848 0.859872 7.0151L1.98487 8.1401C2.05799 8.21323 2.15399 8.24998 2.24999 8.24998 2.34599 8.24998 2.44199 8.21323 2.51512 8.1401 2.66174 7.99348 2.66174 7.75648 2.51512 7.60985L2.03024 7.12498 7.87498 7.12498C8.08235 7.12498 8.24998 6.95735 8.24998 6.74998L8.24998 4.87499C8.24998 4.66761 8.08235 4.49999 7.87498 4.49999Z" transform="matrix(1.11111 0 -0 1 208 124)"/></g></g></g><path d="M214.5 190.5C214.5 189.948 214.948 189.5 215.5 189.5L247.5 189.5C248.052 189.5 248.5 189.948 248.5 190.5L248.5 194.5C248.5 195.052 248.052 195.5 247.5 195.5L215.5 195.5C214.948 195.5 214.5 195.052 214.5 194.5Z" stroke="#5AA203" stroke-width="1.33585" stroke-miterlimit="8" fill="#FFFFFF" fill-rule="evenodd"/><text font-family="Calibri,Calibri_MSFontService,sans-serif" font-weight="700" font-size="5" transform="translate(225.272 193)">OUTCOME</text><g clip-path="url(#clip10)"><g clip-path="url(#clip11)"><g clip-path="url(#clip12)"><path d="M8.21123 6.37206C8.04831 6.20915 7.78498 6.20915 7.62206 6.37206 7.45914 6.53498 7.45914 6.79831 7.62206 6.96123L8.16081 7.49998 4.94499 7.49998 6.17998 5.64832C6.27373 5.5079 6.27373 5.32665 6.17998 5.18623L4.66749 2.91666 8.16081 2.91666 7.62206 3.45541C7.45914 3.61832 7.45914 3.88166 7.62206 4.04457 7.70331 4.12582 7.80998 4.16665 7.91664 4.16665 8.02331 4.16665 8.12998 4.12582 8.21123 4.04457L9.46122 2.79457C9.62414 2.63166 9.62414 2.36833 9.46122 2.20541L8.21123 0.955414C8.04831 0.792498 7.78498 0.792498 7.62206 0.955414 7.45914 1.11833 7.45914 1.38166 7.62206 1.54458L8.16081 2.08333 4.16665 2.08333C4.14957 2.08333 4.13499 2.09166 4.11832 2.09291L3.67999 1.43541C3.52541 1.20333 3.14124 1.20333 2.98666 1.43541L0.486665 5.1854C0.393332 5.3254 0.393332 5.50748 0.486665 5.64748L2.98666 9.39747C3.06416 9.51414 3.19416 9.58331 3.33332 9.58331 3.47249 9.58331 3.60249 9.51414 3.67999 9.39789L4.38957 8.33331 8.16081 8.33331 7.62206 8.87206C7.45914 9.03497 7.45914 9.29831 7.62206 9.46122 7.70331 9.54247 7.80998 9.58331 7.91664 9.58331 8.02331 9.58331 8.12998 9.54247 8.21123 9.46122L9.46122 8.21123C9.62414 8.04831 9.62414 7.78498 9.46122 7.62206L8.21123 6.37206ZM3.33332 8.41539 1.33416 5.41665 3.33332 2.41833 5.33248 5.41665 3.33332 8.41539Z" transform="matrix(1 0 -0 1.00001 214 187)"/></g></g></g><path d="M165.848 189 203.152 189C208.038 189 212 191.91 212 195.5 212 199.09 208.038 202 203.152 202L165.848 202C160.962 202 157 199.09 157 195.5 157 191.91 160.962 189 165.848 189Z" fill="#313131" fill-rule="evenodd"/><text fill="#FFFFFF" font-family="Calibri,Calibri_MSFontService,sans-serif" font-weight="700" font-size="5" transform="translate(168.909 197)">&lt;Achieved by|</text><path d="M166.331 62 205.669 62C210.822 62 215 64.9102 215 68.5 215 72.0898 210.822 75 205.669 75L166.331 75C161.178 75 157 72.0898 157 68.5 157 64.9102 161.178 62 166.331 62Z" fill="#313131" fill-rule="evenodd"/><text fill="#FFFFFF" font-family="Calibri,Calibri_MSFontService,sans-serif" font-weight="700" font-size="5" transform="translate(171.413 71)">|Enabled by&gt;</text><path d="M164.883 125 198.117 125C202.471 125 206 128.134 206 132 206 135.866 202.471 139 198.117 139L164.883 139C160.529 139 157 135.866 157 132 157 128.134 160.529 125 164.883 125Z" fill="#313131" fill-rule="evenodd"/><text fill="#FFFFFF" font-family="Calibri,Calibri_MSFontService,sans-serif" font-weight="700" font-size="5" transform="translate(166.821 134)">|Invoked by&gt;</text><path d="M84 41 89.5 38 95 41Z" fill="#FFFFFF" fill-rule="evenodd"/><path d="M71.5001 31.5C71.5001 30.9477 71.9478 30.5 72.5001 30.5L102.5 30.5C103.052 30.5 103.5 30.9477 103.5 31.5L103.5 35.5C103.5 36.0523 103.052 36.5 102.5 36.5L72.5001 36.5C71.9478 36.5 71.5001 36.0523 71.5001 35.5Z" stroke="#377692" stroke-width="1.33585" stroke-miterlimit="8" fill="#FFFFFF" fill-rule="evenodd"/><text font-family="Calibri,Calibri_MSFontService,sans-serif" font-weight="700" font-size="5" transform="translate(83.0711 34)">PROCESS</text><g clip-path="url(#clip13)"><g clip-path="url(#clip14)"><g clip-path="url(#clip15)"><path d="M80.75 31.75 80.0066 31.75 80.0066 29.6783C80.0066 29.4484 79.8208 29.2617 79.59 29.2617L76.1904 29.2617C76.1821 29.2617 76.175 29.2659 76.1666 29.2663L76.1666 28.8334C76.1666 28.6034 75.98 28.4167 75.75 28.4167L73.25 28.4167C73.02 28.4167 72.8333 28.6034 72.8333 28.8334L72.8333 30.5C72.8333 30.73 73.02 30.9167 73.25 30.9167L75.75 30.9167C75.98 30.9167 76.1666 30.73 76.1666 30.5L76.1666 30.0904C76.175 30.0908 76.1821 30.095 76.1904 30.095L79.1733 30.095 79.1733 31.75 78.25 31.75C78.0196 31.75 77.8333 31.9367 77.8333 32.1667L77.8333 32.5833 74.9166 32.5833C74.6867 32.5833 74.5 32.77 74.5 33L74.5 35.0833 73.6667 35.0833C73.4367 35.0833 73.25 35.2696 73.25 35.5L73.25 37.1667C73.25 37.3971 73.4367 37.5833 73.6667 37.5833L76.1666 37.5833C76.3971 37.5833 76.5833 37.3971 76.5833 37.1667L76.5833 36.75 79.5 36.75C79.7304 36.75 79.9166 36.5637 79.9166 36.3333L79.9166 34.25 80.75 34.25C80.9804 34.25 81.1666 34.0638 81.1666 33.8333L81.1666 32.1667C81.1666 31.9367 80.9804 31.75 80.75 31.75ZM75.3333 30.0833 73.6667 30.0833 73.6667 29.25 75.3333 29.25 75.3333 30.0833ZM75.75 36.75 74.0833 36.75 74.0833 35.9167 75.75 35.9167 75.75 36.75ZM79.0833 35.9167 76.5833 35.9167 76.5833 35.5C76.5833 35.2696 76.3971 35.0833 76.1666 35.0833L75.3333 35.0833 75.3333 33.4167 77.8333 33.4167 77.8333 33.8333C77.8333 34.0638 78.0196 34.25 78.25 34.25L79.0833 34.25 79.0833 35.9167ZM80.3333 33.4167 78.6666 33.4167 78.6666 32.5833 80.3333 32.5833 80.3333 33.4167Z"/></g></g></g></g></svg>