<svg width="189" height="189" xmlns="http://www.w3.org/2000/svg" xmlns:xlink="http://www.w3.org/1999/xlink" overflow="hidden"><defs><clipPath id="clip0"><path d="M0 0 189 0 189 189 0 189Z" fill-rule="evenodd" clip-rule="evenodd"/></clipPath><clipPath id="clip1"><path d="M3 3 47 3 47 48 3 48Z" fill-rule="evenodd" clip-rule="evenodd"/></clipPath><clipPath id="clip2"><path d="M3 3 47 3 47 48 3 48Z" fill-rule="evenodd" clip-rule="evenodd"/></clipPath><clipPath id="clip3"><path d="M3 3 47 3 47 48 3 48Z" fill-rule="evenodd" clip-rule="evenodd"/></clipPath></defs><g clip-path="url(#clip0)"><rect x="0" y="0" width="189" height="189" fill="#313131"/><text fill="#FFFFFF" font-family="Calibri,Calibri_MSFontService,sans-serif" font-weight="300" font-size="11" transform="translate(9.60032 -5)">PRODUCT FEATURE</text><rect x="3.50005" y="3.50005" width="1" height="1" stroke="#2F528F" stroke-width="1.33333" stroke-miterlimit="8" fill="#4472C4"/><rect x="0" y="0" width="189" height="189" stroke="#911EB4" stroke-width="8" stroke-miterlimit="8" fill="#FFFFFF"/><g clip-path="url(#clip1)"><g clip-path="url(#clip2)"><g clip-path="url(#clip3)"><path d="M38.5 18.3333 5.5 18.3333C4.488 18.3333 3.66667 19.1547 3.66667 20.1667L3.66667 27.5C3.66667 28.5138 4.488 29.3333 5.5 29.3333L7.33333 29.3333 7.33333 40.3333C7.33333 41.3472 8.15467 42.1667 9.16667 42.1667L34.8333 42.1667C35.8472 42.1667 36.6667 41.3472 36.6667 40.3333L36.6667 29.3333 38.5 29.3333C39.5138 29.3333 40.3333 28.5138 40.3333 27.5L40.3333 20.1667C40.3333 19.1547 39.5138 18.3333 38.5 18.3333ZM33 38.5 11 38.5 11 29.3333 33 29.3333 33 38.5ZM36.6667 25.6667 34.8333 25.6667 9.16667 25.6667 7.33333 25.6667 7.33333 22 36.6667 22 36.6667 25.6667Z" transform="matrix(1 0 -0 1.02273 3 3)"/><path d="M20.6378 14.0598C20.9843 14.4467 21.4812 14.6667 22 14.6667 22.5188 14.6667 23.0175 14.4467 23.3622 14.0598L28.8622 7.94933C29.3132 7.447 29.4507 6.7375 29.2252 6.10317L28.1233 3.047C27.863 2.31917 27.1737 1.83333 26.4 1.83333L17.6 1.83333C16.8263 1.83333 16.137 2.31917 15.8748 3.04517L14.7748 6.10133C14.5457 6.73567 14.685 7.447 15.1378 7.9475L20.6378 14.0598ZM18.8888 5.5 25.113 5.5 25.4045 6.31033 22 10.0925 18.5973 6.31217 18.8888 5.5Z" transform="matrix(1 0 -0 1.02273 3 3)"/></g></g></g><text font-family="Calibri,Calibri_MSFontService,sans-serif" font-weight="700" font-size="20" transform="translate(75.9248 23)">PRODUCT <tspan x="4.10667" y="24">FEATURE</tspan><tspan font-weight="400" font-size="12" x="-69.3858" y="71">A </tspan><tspan font-size="12" x="-59.7191" y="71">Product feature</tspan><tspan font-weight="400" font-size="12" x="21.7809" y="71">is one of the </tspan><tspan font-weight="400" font-size="12" x="-69.3858" y="86">distinguishing characteristics of </tspan><tspan font-weight="400" font-size="12" x="-69.3858" y="100">a</tspan><tspan font-size="12" x="-61.0524" y="100">Product</tspan><tspan font-weight="400" font-size="12" x="-19.0524" y="100">or service that helps </tspan><tspan font-weight="400" font-size="12" x="-69.3858" y="114">boost its appeal to potential </tspan><tspan font-weight="400" font-size="12" x="-69.3858" y="129">buyers.</tspan></text></g></svg>