<svg width="265" height="265" xmlns="http://www.w3.org/2000/svg" xmlns:xlink="http://www.w3.org/1999/xlink" overflow="hidden"><defs><clipPath id="clip0"><path d="M0 0 265 0 265 265 0 265Z" fill-rule="evenodd" clip-rule="evenodd"/></clipPath><clipPath id="clip1"><path d="M35 51 55 51 55 71 35 71Z" fill-rule="evenodd" clip-rule="evenodd"/></clipPath><clipPath id="clip2"><path d="M35 51 55 51 55 71 35 71Z" fill-rule="evenodd" clip-rule="evenodd"/></clipPath><clipPath id="clip3"><path d="M35 51 55 51 55 71 35 71Z" fill-rule="evenodd" clip-rule="evenodd"/></clipPath><clipPath id="clip4"><path d="M222 38 233 38 233 49 222 49Z" fill-rule="evenodd" clip-rule="evenodd"/></clipPath><clipPath id="clip5"><path d="M222 38 233 38 233 49 222 49Z" fill-rule="evenodd" clip-rule="evenodd"/></clipPath><clipPath id="clip6"><path d="M222 38 233 38 233 49 222 49Z" fill-rule="evenodd" clip-rule="evenodd"/></clipPath><clipPath id="clip7"><path d="M223 81 234 81 234 92 223 92Z" fill-rule="evenodd" clip-rule="evenodd"/></clipPath><clipPath id="clip8"><path d="M223 81 234 81 234 92 223 92Z" fill-rule="evenodd" clip-rule="evenodd"/></clipPath><clipPath id="clip9"><path d="M223 81 234 81 234 92 223 92Z" fill-rule="evenodd" clip-rule="evenodd"/></clipPath><clipPath id="clip10"><path d="M214 126 225 126 225 136 214 136Z" fill-rule="evenodd" clip-rule="evenodd"/></clipPath><clipPath id="clip11"><path d="M214 126 225 126 225 136 214 136Z" fill-rule="evenodd" clip-rule="evenodd"/></clipPath><clipPath id="clip12"><path d="M214 126 225 126 225 136 214 136Z" fill-rule="evenodd" clip-rule="evenodd"/></clipPath><clipPath id="clip13"><path d="M210 166 219 166 219 177 210 177Z" fill-rule="evenodd" clip-rule="evenodd"/></clipPath><clipPath id="clip14"><path d="M210 166 219 166 219 177 210 177Z" fill-rule="evenodd" clip-rule="evenodd"/></clipPath><clipPath id="clip15"><path d="M210 166 219 166 219 177 210 177Z" fill-rule="evenodd" clip-rule="evenodd"/></clipPath><clipPath id="clip16"><path d="M207 210 216 210 216 220 207 220Z" fill-rule="evenodd" clip-rule="evenodd"/></clipPath><clipPath id="clip17"><path d="M207 210 216 210 216 220 207 220Z" fill-rule="evenodd" clip-rule="evenodd"/></clipPath><clipPath id="clip18"><path d="M207 210 216 210 216 220 207 220Z" fill-rule="evenodd" clip-rule="evenodd"/></clipPath></defs><g clip-path="url(#clip0)"><rect x="0" y="0" width="265" height="265" fill="#313131"/><rect x="89.5" y="131.5" width="1.99999" height="1" stroke="#2F528F" stroke-width="1.33585" stroke-miterlimit="8" fill="#4472C4"/><path d="M23.5 9.75271C23.5 8.50859 24.5085 7.50003 25.7527 7.50003L249.247 7.50003C250.491 7.50003 251.5 8.50859 251.5 9.75271L251.5 249.247C251.5 250.491 250.491 251.5 249.247 251.5L25.7527 251.5C24.5085 251.5 23.5 250.491 23.5 249.247Z" stroke="#FF0000" stroke-width="0.667927" stroke-miterlimit="8" stroke-opacity="0" fill="none" fill-rule="evenodd"/><path d="M30.0794 43.5 149.921 43.5C153.002 43.5 155.5 45.998 155.5 49.0794L155.5 214.252C155.5 216.598 153.598 218.5 151.252 218.5L28.7483 218.5C26.402 218.5 24.5 216.598 24.5 214.252L24.5 49.0794C24.5 45.998 26.998 43.5 30.0794 43.5Z" stroke="#911EB4" stroke-width="4.67549" stroke-miterlimit="8" fill="#FFFFFF" fill-rule="evenodd"/><g clip-path="url(#clip1)"><g clip-path="url(#clip2)"><g clip-path="url(#clip3)"><path d="M51.625 59.9166 37.375 59.9166C36.938 59.9166 36.5833 60.2713 36.5833 60.7083L36.5833 63.875C36.5833 64.3128 36.938 64.6666 37.375 64.6666L38.1667 64.6666 38.1667 69.4167C38.1667 69.8545 38.5213 70.2083 38.9583 70.2083L50.0417 70.2083C50.4795 70.2083 50.8334 69.8545 50.8334 69.4167L50.8334 64.6666 51.625 64.6666C52.0628 64.6666 52.4167 64.3128 52.4167 63.875L52.4167 60.7083C52.4167 60.2721 52.0628 59.9166 51.625 59.9166ZM49.25 68.625 39.75 68.625 39.75 64.6666 49.25 64.6666 49.25 68.625ZM50.8334 63.0833 50.0417 63.0833 38.9583 63.0833 38.1667 63.0833 38.1667 61.5 50.8334 61.5 50.8334 63.0833Z"/><path d="M38.7264 56.5188 39.75 55.4952 39.75 57.5416C39.75 57.9786 40.1047 58.3333 40.5417 58.3333 40.9787 58.3333 41.3334 57.9786 41.3334 57.5416L41.3334 55.4952 42.357 56.5188C42.5114 56.6724 42.714 56.75 42.9167 56.75 43.1194 56.75 43.322 56.6724 43.4764 56.518 43.7859 56.2085 43.7859 55.7081 43.4764 55.3986L41.1014 53.0236C40.7918 52.714 40.2915 52.714 39.982 53.0236L37.607 55.3986C37.2974 55.7081 37.2974 56.2085 37.607 56.518 37.9165 56.8275 38.4168 56.8283 38.7264 56.5188Z"/><path d="M46.6431 56.5188 47.6667 55.4952 47.6667 57.5416C47.6667 57.9786 48.0206 58.3333 48.4584 58.3333 48.8962 58.3333 49.25 57.9786 49.25 57.5416L49.25 55.4952 50.2737 56.5188C50.428 56.6724 50.6307 56.75 50.8334 56.75 51.036 56.75 51.2387 56.6724 51.3931 56.518 51.7026 56.2085 51.7026 55.7081 51.3931 55.3986L49.0181 53.0236C48.7085 52.714 48.2082 52.714 47.8987 53.0236L45.5237 55.3986C45.2141 55.7081 45.2141 56.2085 45.5237 56.518 45.8332 56.8275 46.3335 56.8283 46.6431 56.5188Z"/></g></g></g><path d="M26.9702 6.36947C18.5628 6.36947 11.7473 10.3112 11.7473 15.1736L11.7473 248.948C11.7473 253.81 18.5628 257.752 26.9702 257.752L238.08 257.752C246.487 257.752 253.302 253.81 253.302 248.948L253.302 15.1736C253.302 10.3112 246.487 6.36947 238.08 6.36947ZM0 0 265 0 265 265 0 265Z" fill="#911EB4" fill-rule="evenodd"/><text font-family="Calibri,Calibri_MSFontService,sans-serif" font-weight="700" font-size="11" transform="translate(76.4673 63)">OFFERING<tspan font-weight="400" font-size="9" x="-45.177" y="34">A packaged combination of </tspan><tspan font-size="9" x="-45.177" y="45">Product(s)</tspan><tspan font-weight="400" font-size="9" x="-5.43535" y="45">, terms and </tspan><tspan font-weight="400" font-size="9" x="-45.177" y="56">marketing elements, </tspan><tspan font-weight="400" font-size="9" x="-45.177" y="67">targeting a market </tspan><tspan font-size="9" x="27.794" y="67">segment</tspan><tspan font-weight="400" font-size="9" x="61.1904" y="67">. </tspan><tspan font-weight="400" font-size="9" x="-45.177" y="79">An </tspan><tspan font-size="9" x="-32.8204" y="79">Offering</tspan><tspan font-weight="400" font-size="9" x="1.57788" y="79">is designed to </tspan><tspan font-weight="400" font-size="9" x="-45.177" y="90">meet needs of a </tspan><tspan font-size="9" x="18.61" y="90">Segment</tspan><tspan font-weight="400" font-size="9" x="52.6743" y="90">, </tspan><tspan font-weight="400" font-size="9" x="-45.177" y="101">and in doing so, provides </tspan><tspan font-weight="400" font-size="9" x="-45.177" y="112">benefits to customers and </tspan><tspan font-weight="400" font-size="9" x="-45.177" y="123">supports a </tspan><tspan font-size="9" x="-2.93063" y="123">Value proposition</tspan><tspan font-weight="400" font-size="9" x="-45.177" y="135">of the offering entity.</tspan></text><path d="M222.5 42.5001C222.5 41.9478 222.948 41.5 223.5 41.5L247.5 41.5C248.052 41.5 248.5 41.9478 248.5 42.5001L248.5 46.5C248.5 47.0523 248.052 47.5 247.5 47.5L223.5 47.5C222.948 47.5 222.5 47.0523 222.5 46.5Z" stroke="#911EB4" stroke-width="1.33585" stroke-miterlimit="8" fill="#FFFFFF" fill-rule="evenodd"/><text font-family="Calibri,Calibri_MSFontService,sans-serif" font-weight="700" font-size="5" transform="translate(233.535 45)">PLACE</text><g clip-path="url(#clip4)"><g clip-path="url(#clip5)"><g clip-path="url(#clip6)"><path d="M5.25005 2.81252C5.25005 3.22674 4.91426 3.56253 4.50004 3.56253 4.08582 3.56253 3.75003 3.22674 3.75003 2.81252 3.75003 2.39831 4.08582 2.06252 4.50004 2.06252 4.91426 2.06252 5.25005 2.39831 5.25005 2.81252Z" transform="matrix(1 0 -0 1.1111 223 39)"/><path d="M8.25007 7.68757 4.91592 7.68757C5.3048 6.88206 6.75006 3.81416 6.75006 2.81252 6.75006 1.57164 5.74093 0.562505 4.50004 0.562505 3.25915 0.562505 2.25002 1.57164 2.25002 2.81252 2.25002 3.81416 3.69528 6.88206 4.08341 7.68757L0.750007 7.68757C0.543005 7.68757 0.375003 7.85519 0.375003 8.06257 0.375003 8.26995 0.543005 8.43757 0.750007 8.43757L8.25007 8.43757C8.45745 8.43757 8.62508 8.26995 8.62508 8.06257 8.62508 7.85519 8.45745 7.68757 8.25007 7.68757ZM4.50004 1.31251C5.3273 1.31251 6.00005 1.98527 6.00005 2.81252 6.00005 3.40128 5.18105 5.35167 4.50004 6.81568 3.81866 5.35167 3.00003 3.40165 3.00003 2.81252 3.00003 1.98527 3.67278 1.31251 4.50004 1.31251Z" transform="matrix(1 0 -0 1.1111 223 39)"/></g></g></g><path d="M223.5 84.5C223.5 83.9477 223.948 83.5 224.5 83.5L247.5 83.5C248.052 83.5 248.5 83.9477 248.5 84.5L248.5 88.5C248.5 89.0523 248.052 89.5 247.5 89.5L224.5 89.5C223.948 89.5 223.5 89.0523 223.5 88.5Z" stroke="#911EB4" stroke-width="1.33585" stroke-miterlimit="8" fill="#FFFFFF" fill-rule="evenodd"/><text font-family="Calibri,Calibri_MSFontService,sans-serif" font-weight="700" font-size="5" transform="translate(234.566 87)">PRICE</text><g clip-path="url(#clip7)"><g clip-path="url(#clip8)"><g clip-path="url(#clip9)"><path d="M230.254 86.7899C229.923 86.5555 229.436 86.3676 228.793 86.2251 228.345 86.1123 228.029 86.0058 227.847 85.9045 227.663 85.804 227.572 85.6746 227.572 85.5171 227.572 85.345 227.657 85.2036 227.828 85.093 227.999 84.9824 228.241 84.9272 228.553 84.9272 228.878 84.9272 229.131 84.9936 229.311 85.1264 229.491 85.2591 229.582 85.4331 229.582 85.648L230.714 85.648 230.722 85.6289C230.735 85.231 230.541 84.8969 230.138 84.6257 229.802 84.3996 229.377 84.2732 228.875 84.2361L228.875 83.125C228.875 82.918 228.707 82.75 228.5 82.75 228.293 82.75 228.125 82.918 228.125 83.125L228.125 84.2417C227.69 84.2867 227.32 84.3996 227.013 84.5815 226.606 84.8226 226.403 85.1335 226.403 85.5141 226.403 85.8948 226.58 86.1944 226.935 86.4134 227.29 86.6324 227.814 86.8214 228.508 86.9811 228.906 87.0768 229.184 87.1788 229.343 87.2871 229.502 87.3955 229.581 87.5391 229.581 87.7173 229.581 87.8916 229.497 88.0308 229.329 88.1343 229.161 88.2389 228.918 88.291 228.601 88.291 228.221 88.291 227.926 88.2265 227.714 88.0975 227.502 87.9689 227.396 87.7664 227.396 87.4904L226.259 87.4904 226.251 87.5095C226.237 87.979 226.467 88.345 226.939 88.6053 227.29 88.7988 227.685 88.9195 228.125 88.9698L228.125 89.875C228.125 90.0824 228.293 90.25 228.5 90.25 228.707 90.25 228.875 90.0824 228.875 89.875L228.875 88.984C229.393 88.9548 229.825 88.8479 230.16 88.6525 230.553 88.4227 230.75 88.1091 230.75 87.7113 230.75 87.331 230.585 87.0235 230.254 86.7899Z"/></g></g></g><path d="M214.5 126.667C214.5 125.47 215.47 124.5 216.667 124.5L246.333 124.5C247.53 124.5 248.5 125.47 248.5 126.667L248.5 135.333C248.5 136.53 247.53 137.5 246.333 137.5L216.667 137.5C215.47 137.5 214.5 136.53 214.5 135.333Z" stroke="#911EB4" stroke-width="1.33585" stroke-miterlimit="8" fill="#FFFFFF" fill-rule="evenodd"/><text font-family="Calibri,Calibri_MSFontService,sans-serif" font-weight="700" font-size="5" transform="translate(226.306 129)">PRODUCT<tspan x="0" y="6">FEATURE</tspan></text><g clip-path="url(#clip10)"><g clip-path="url(#clip11)"><g clip-path="url(#clip12)"><path d="M7.87498 3.74999 1.125 3.74999C0.917997 3.74999 0.749998 3.91799 0.749998 4.12499L0.749998 5.62498C0.749998 5.83236 0.917997 5.99998 1.125 5.99998L1.5 5.99998 1.5 8.24998C1.5 8.45735 1.668 8.62497 1.87499 8.62497L7.12498 8.62497C7.33235 8.62497 7.49998 8.45735 7.49998 8.24998L7.49998 5.99998 7.87498 5.99998C8.08235 5.99998 8.24998 5.83236 8.24998 5.62498L8.24998 4.12499C8.24998 3.91799 8.08235 3.74999 7.87498 3.74999ZM6.74998 7.87498 2.24999 7.87498 2.24999 5.99998 6.74998 5.99998 6.74998 7.87498ZM7.49998 5.24998 7.12498 5.24998 1.87499 5.24998 1.5 5.24998 1.5 4.49999 7.49998 4.49999 7.49998 5.24998Z" transform="matrix(1.11111 0 -0 1 215 126)"/><path d="M4.22136 2.87587C4.29224 2.95499 4.39386 2.99999 4.49999 2.99999 4.60611 2.99999 4.70811 2.95499 4.77861 2.87587L5.90361 1.626C5.99586 1.52325 6.02398 1.37812 5.97786 1.24837L5.75248 0.623248C5.69923 0.474374 5.55823 0.374999 5.39998 0.374999L3.59999 0.374999C3.44174 0.374999 3.30074 0.474374 3.24712 0.622873L3.02212 1.248C2.97524 1.37775 3.00374 1.52325 3.09637 1.62562L4.22136 2.87587ZM3.86361 1.125 5.13673 1.125 5.19636 1.29075 4.49999 2.06437 3.80399 1.29112 3.86361 1.125Z" transform="matrix(1.11111 0 -0 1 215 126)"/></g></g></g><path d="M209.5 169.5C209.5 168.948 209.948 168.5 210.5 168.5L247.5 168.5C248.052 168.5 248.5 168.948 248.5 169.5L248.5 173.5C248.5 174.052 248.052 174.5 247.5 174.5L210.5 174.5C209.948 174.5 209.5 174.052 209.5 173.5Z" stroke="#911EB4" stroke-width="1.33585" stroke-miterlimit="8" fill="#FFFFFF" fill-rule="evenodd"/><text font-family="Calibri,Calibri_MSFontService,sans-serif" font-weight="700" font-size="5" transform="translate(220.505 172)">PROMOTION</text><g clip-path="url(#clip13)"><g clip-path="url(#clip14)"><g clip-path="url(#clip15)"><path d="M4.12499 5.29536 2.73449 5.99998 2.99999 4.50749 1.87499 3.45074 3.42974 3.23287 4.12499 1.87499 4.82024 3.23287 6.37498 3.45074 5.24998 4.50749 5.51548 5.99998Z" transform="matrix(1 0 -0 1.11111 210.375 166.417)"/><path d="M4.12499 8.24998C1.85062 8.24998 0 6.39898 0 4.12499 0 1.85062 1.85062 0 4.12499 0 6.39898 0 8.24998 1.85062 8.24998 4.12499 8.24998 6.39898 6.39898 8.24998 4.12499 8.24998ZM4.12499 0.749998C2.26424 0.749998 0.749998 2.26424 0.749998 4.12499 0.749998 5.98611 2.26424 7.49998 4.12499 7.49998 5.98611 7.49998 7.49998 5.98611 7.49998 4.12499 7.49998 2.26424 5.98611 0.749998 4.12499 0.749998Z" transform="matrix(1 0 -0 1.11111 210.375 166.417)"/></g></g></g><path d="M206.5 211.5C206.5 210.395 207.395 209.5 208.5 209.5L246.5 209.5C247.605 209.5 248.5 210.395 248.5 211.5L248.5 219.5C248.5 220.605 247.605 221.5 246.5 221.5L208.5 221.5C207.395 221.5 206.5 220.605 206.5 219.5Z" stroke="#F032E6" stroke-width="1.33585" stroke-miterlimit="8" fill="#FFFFFF" fill-rule="evenodd"/><text font-family="Calibri,Calibri_MSFontService,sans-serif" font-weight="700" font-size="5" transform="translate(218.151 213)">VALUE<tspan x="0" y="6">PROPOSITION</tspan></text><g clip-path="url(#clip16)"><g clip-path="url(#clip17)"><g clip-path="url(#clip18)"><path d="M7.87498 3.74999 1.125 3.74999C0.917997 3.74999 0.749998 3.91799 0.749998 4.12499L0.749998 5.62498C0.749998 5.83236 0.917997 5.99998 1.125 5.99998L1.5 5.99998 1.5 8.24998C1.5 8.45735 1.668 8.62497 1.87499 8.62497L7.12498 8.62497C7.33235 8.62497 7.49998 8.45735 7.49998 8.24998L7.49998 5.99998 7.87498 5.99998C8.08235 5.99998 8.24998 5.83236 8.24998 5.62498L8.24998 4.12499C8.24998 3.91799 8.08235 3.74999 7.87498 3.74999ZM6.74998 7.87498 2.24999 7.87498 2.24999 5.99998 6.74998 5.99998 6.74998 7.87498ZM7.49998 5.24998 7.12498 5.24998 1.87499 5.24998 1.5 5.24998 1.5 4.49999 7.49998 4.49999 7.49998 5.24998Z" transform="matrix(1 0 -0 1.11111 207 210)"/><path d="M4.22286 3.25987C4.29899 3.33637 4.39949 3.37499 4.49999 3.37499 4.60011 3.37499 4.70024 3.33637 4.77674 3.25987L5.88486 2.15024C6.03786 1.99649 6.03786 1.74862 5.88486 1.59525L4.77674 0.485249C4.62974 0.337874 4.36986 0.337874 4.22286 0.485249L3.11474 1.59525C2.96137 1.74862 2.96137 1.99649 3.11474 2.15024L4.22286 3.25987ZM4.49999 1.31812 5.05423 1.87274 4.49999 2.42774 3.94574 1.87274 4.49999 1.31812Z" transform="matrix(1 0 -0 1.11111 207 210)"/></g></g></g><path d="M166.17 124 204.83 124C209.894 124 214 126.91 214 130.5 214 134.09 209.894 137 204.83 137L166.17 137C161.106 137 157 134.09 157 130.5 157 126.91 161.106 124 166.17 124Z" fill="#313131" fill-rule="evenodd"/><text fill="#FFFFFF" font-family="Calibri,Calibri_MSFontService,sans-serif" font-weight="700" font-size="5" transform="translate(171.163 132)">&lt;Offered by|</text><path d="M164.561 209 196.439 209C200.615 209 204 211.91 204 215.5 204 219.09 200.615 222 196.439 222L164.561 222C160.385 222 157 219.09 157 215.5 157 211.91 160.385 209 164.561 209Z" fill="#313131" fill-rule="evenodd"/><text fill="#FFFFFF" font-family="Calibri,Calibri_MSFontService,sans-serif" font-weight="700" font-size="5" transform="translate(167.072 217)">|Offered in&gt;</text><path d="M167.135 41 209.865 41C215.462 41 220 43.9101 220 47.5 220 51.0899 215.462 54.0001 209.865 54.0001L167.135 54.0001C161.538 54.0001 157 51.0899 157 47.5 157 43.9101 161.538 41 167.135 41Z" fill="#313131" fill-rule="evenodd"/><text fill="#FFFFFF" font-family="Calibri,Calibri_MSFontService,sans-serif" font-weight="700" font-size="5" transform="translate(176.506 49)">|Has item&gt;</text><path d="M167.457 83 211.543 83C217.318 83 222 86.134 222 90 222 93.866 217.318 97 211.543 97L167.457 97C161.682 97 157 93.866 157 90 157 86.134 161.682 83 167.457 83Z" fill="#313131" fill-rule="evenodd"/><text fill="#FFFFFF" font-family="Calibri,Calibri_MSFontService,sans-serif" font-weight="700" font-size="5" transform="translate(177.174 92)">|Has item&gt;</text><path d="M165.044 168 198.956 168C203.399 168 207 170.91 207 174.5 207 178.09 203.399 181 198.956 181L165.044 181C160.601 181 157 178.09 157 174.5 157 170.91 160.601 168 165.044 168Z" fill="#313131" fill-rule="evenodd"/><text fill="#FFFFFF" font-family="Calibri,Calibri_MSFontService,sans-serif" font-weight="700" font-size="5" transform="translate(169.827 176)">|Has item&gt;</text></g></svg>