<svg width="189" height="189" xmlns="http://www.w3.org/2000/svg" xmlns:xlink="http://www.w3.org/1999/xlink" overflow="hidden"><defs><clipPath id="clip0"><path d="M0 0 189 0 189 189 0 189Z" fill-rule="evenodd" clip-rule="evenodd"/></clipPath><clipPath id="clip1"><path d="M3 3 47 3 47 48 3 48Z" fill-rule="evenodd" clip-rule="evenodd"/></clipPath><clipPath id="clip2"><path d="M3 3 47 3 47 48 3 48Z" fill-rule="evenodd" clip-rule="evenodd"/></clipPath><clipPath id="clip3"><path d="M3 3 47 3 47 48 3 48Z" fill-rule="evenodd" clip-rule="evenodd"/></clipPath></defs><g clip-path="url(#clip0)"><rect x="0" y="0" width="189" height="189" fill="#313131"/><text fill="#FFFFFF" font-family="Calibri,Calibri_MSFontService,sans-serif" font-weight="300" font-size="11" transform="translate(9.60032 -5)">OUTCOME</text><rect x="3.50005" y="3.50005" width="1" height="1" stroke="#2F528F" stroke-width="1.33333" stroke-miterlimit="8" fill="#4472C4"/><rect x="0" y="0" width="189" height="189" stroke="#5AA203" stroke-width="8" stroke-miterlimit="8" fill="#FFFFFF"/><g clip-path="url(#clip1)"><g clip-path="url(#clip2)"><g clip-path="url(#clip3)"><path d="M36.1295 28.0372C35.4127 27.3203 34.254 27.3203 33.5372 28.0372 32.8203 28.754 32.8203 29.9127 33.5372 30.6295L35.9077 33 21.758 33 27.192 24.8527C27.6045 24.2348 27.6045 23.4373 27.192 22.8195L20.537 12.8333 35.9077 12.8333 33.5372 15.2038C32.8203 15.9207 32.8203 17.0793 33.5372 17.7962 33.8947 18.1537 34.364 18.3333 34.8333 18.3333 35.3027 18.3333 35.772 18.1537 36.1295 17.7962L41.6295 12.2962C42.3463 11.5793 42.3463 10.4207 41.6295 9.70383L36.1295 4.20383C35.4127 3.487 34.254 3.487 33.5372 4.20383 32.8203 4.92067 32.8203 6.07933 33.5372 6.79617L35.9077 9.16667 18.3333 9.16667C18.2582 9.16667 18.194 9.20333 18.1207 9.20883L16.192 6.31583C15.5118 5.29467 13.8215 5.29467 13.1413 6.31583L2.14133 22.8158C1.73067 23.4318 1.73067 24.233 2.14133 24.849L13.1413 41.349C13.4823 41.8623 14.0543 42.1667 14.6667 42.1667 15.279 42.1667 15.851 41.8623 16.192 41.3508L19.3142 36.6667 35.9077 36.6667 33.5372 39.0372C32.8203 39.754 32.8203 40.9127 33.5372 41.6295 33.8947 41.987 34.364 42.1667 34.8333 42.1667 35.3027 42.1667 35.772 41.987 36.1295 41.6295L41.6295 36.1295C42.3463 35.4127 42.3463 34.254 41.6295 33.5372L36.1295 28.0372ZM14.6667 37.0278 5.87033 23.8333 14.6667 10.6407 23.463 23.8333 14.6667 37.0278Z" transform="matrix(1 0 -0 1.02273 3 3)"/></g></g></g><text font-family="Calibri,Calibri_MSFontService,sans-serif" font-weight="700" font-size="20" transform="translate(73.0881 23)">OUTCOME<tspan font-weight="400" font-size="12" x="-66.5491" y="57">An </tspan><tspan font-size="12" x="-50.5491" y="57">Outcome</tspan><tspan font-weight="400" font-size="12" x="-1.7158" y="57">describes a particular </tspan><tspan font-weight="400" font-size="12" x="-66.5491" y="72">state for a </tspan><tspan font-size="12" x="-14.3825" y="72">Record</tspan><tspan font-weight="400" font-size="12" x="20.7842" y="72">, defined by a </tspan><tspan font-weight="400" font-size="12" x="-66.5491" y="86">pattern of constraints on the </tspan><tspan font-weight="400" font-size="12" x="-66.5491" y="100">property values of the </tspan><tspan font-size="12" x="44.2842" y="100">Record</tspan><tspan font-weight="400" font-size="12" x="79.4509" y="100">. </tspan><tspan font-weight="400" font-size="12" x="-66.5491" y="115">Outcomes are only associated with </tspan><tspan font-weight="400" font-size="12" x="-66.5491" y="129">those </tspan><tspan font-size="12" x="-36.5491" y="129">Records</tspan><tspan font-weight="400" font-size="12" x="6.11754" y="129">that change their </tspan><tspan font-weight="400" font-size="12" x="-66.5491" y="144">state in a business </tspan><tspan font-size="12" x="25.1175" y="144">Process task</tspan><tspan font-weight="400" font-size="12" x="86.4509" y="144">.</tspan></text></g></svg>