<svg width="189" height="189" xmlns="http://www.w3.org/2000/svg" xmlns:xlink="http://www.w3.org/1999/xlink" overflow="hidden"><defs><clipPath id="clip0"><path d="M0 0 189 0 189 189 0 189Z" fill-rule="evenodd" clip-rule="evenodd"/></clipPath><clipPath id="clip1"><path d="M3 3 47 3 47 48 3 48Z" fill-rule="evenodd" clip-rule="evenodd"/></clipPath><clipPath id="clip2"><path d="M3 3 47 3 47 48 3 48Z" fill-rule="evenodd" clip-rule="evenodd"/></clipPath><clipPath id="clip3"><path d="M3 3 47 3 47 48 3 48Z" fill-rule="evenodd" clip-rule="evenodd"/></clipPath></defs><g clip-path="url(#clip0)"><rect x="0" y="0" width="189" height="189" fill="#313131"/><text fill="#FFFFFF" font-family="Calibri,Calibri_MSFontService,sans-serif" font-weight="300" font-size="11" transform="translate(9.60032 -5)">RECORD</text><rect x="3.50005" y="3.50005" width="1" height="1" stroke="#2F528F" stroke-width="1.33333" stroke-miterlimit="8" fill="#4472C4"/><rect x="0" y="0" width="189" height="189" stroke="#B74D41" stroke-width="8" stroke-miterlimit="8" fill="#FFFFFF"/><g clip-path="url(#clip1)"><g clip-path="url(#clip2)"><g clip-path="url(#clip3)"><path d="M16.5 38.5 5.5 38.5C4.488 38.5 3.66667 37.6805 3.66667 36.6667L3.66667 3.66667C3.66667 2.65467 4.488 1.83333 5.5 1.83333L16.5 1.83333C17.5138 1.83333 18.3333 2.65467 18.3333 3.66667L18.3333 36.6667C18.3333 37.6805 17.5138 38.5 16.5 38.5ZM7.33333 34.8333 14.6667 34.8333 14.6667 5.5 7.33333 5.5 7.33333 34.8333Z" transform="matrix(1 0 -0 1.02273 4.83333 4.875)"/><path d="M34.8333 38.5 23.8333 38.5C22.8195 38.5 22 37.6805 22 36.6667L22 3.66667C22 2.65467 22.8195 1.83333 23.8333 1.83333L34.8333 1.83333C35.8472 1.83333 36.6667 2.65467 36.6667 3.66667L36.6667 36.6667C36.6667 37.6805 35.8472 38.5 34.8333 38.5ZM25.6667 34.8333 33 34.8333 33 5.5 25.6667 5.5 25.6667 34.8333Z" transform="matrix(1 0 -0 1.02273 4.83333 4.875)"/><path d="M9.16667 20.1667 12.8333 20.1667 12.8333 23.8333 9.16667 23.8333Z" transform="matrix(1 0 -0 1.02273 4.83333 4.875)"/><path d="M9.16667 27.5 12.8333 27.5 12.8333 31.1667 9.16667 31.1667Z" transform="matrix(1 0 -0 1.02273 4.83333 4.875)"/><path d="M27.5 20.1667 31.1667 20.1667 31.1667 23.8333 27.5 23.8333Z" transform="matrix(1 0 -0 1.02273 4.83333 4.875)"/><path d="M27.5 27.5 31.1667 27.5 31.1667 31.1667 27.5 31.1667Z" transform="matrix(1 0 -0 1.02273 4.83333 4.875)"/><path d="M31.1667 11C31.1667 12.0125 30.3459 12.8333 29.3333 12.8333 28.3208 12.8333 27.5 12.0125 27.5 11 27.5 9.98748 28.3208 9.16667 29.3333 9.16667 30.3459 9.16667 31.1667 9.98748 31.1667 11Z" transform="matrix(1 0 -0 1.02273 4.83333 4.875)"/><path d="M12.8333 11C12.8333 12.0125 12.0125 12.8333 11 12.8333 9.98748 12.8333 9.16667 12.0125 9.16667 11 9.16667 9.98748 9.98748 9.16667 11 9.16667 12.0125 9.16667 12.8333 9.98748 12.8333 11Z" transform="matrix(1 0 -0 1.02273 4.83333 4.875)"/></g></g></g><text font-family="Calibri,Calibri_MSFontService,sans-serif" font-weight="700" font-size="20" transform="translate(82.2648 23)">RECORD<tspan font-weight="400" font-size="12" x="-75.7258" y="71">An interaction/transaction </tspan><tspan font-size="12" x="56.1075" y="71">Record</tspan><tspan font-weight="400" font-size="12" x="-75.7258" y="86">is a log of the information that was </tspan><tspan font-weight="400" font-size="12" x="-75.7258" y="100">considered or exchanged in the </tspan><tspan font-weight="400" font-size="12" x="-75.7258" y="114">evaluation and execution of a </tspan><tspan font-weight="400" font-size="12" x="-75.7258" y="129">business transaction or interaction.</tspan></text></g></svg>