<svg width="189" height="189" xmlns="http://www.w3.org/2000/svg" xmlns:xlink="http://www.w3.org/1999/xlink" overflow="hidden"><defs><clipPath id="clip0"><path d="M0 0 189 0 189 189 0 189Z" fill-rule="evenodd" clip-rule="evenodd"/></clipPath><clipPath id="clip1"><path d="M3 3 47 3 47 48 3 48Z" fill-rule="evenodd" clip-rule="evenodd"/></clipPath><clipPath id="clip2"><path d="M3 3 47 3 47 48 3 48Z" fill-rule="evenodd" clip-rule="evenodd"/></clipPath><clipPath id="clip3"><path d="M3 3 47 3 47 48 3 48Z" fill-rule="evenodd" clip-rule="evenodd"/></clipPath></defs><g clip-path="url(#clip0)"><rect x="0" y="0" width="189" height="189" fill="#313131"/><text fill="#FFFFFF" font-family="Calibri,Calibri_MSFontService,sans-serif" font-weight="300" font-size="11" transform="translate(9.60032 -5)">PROCESS</text><rect x="3.50005" y="3.50005" width="1" height="1" stroke="#2F528F" stroke-width="1.33333" stroke-miterlimit="8" fill="#4472C4"/><rect x="0" y="0" width="189" height="189" stroke="#377692" stroke-width="8" stroke-miterlimit="8" fill="#FFFFFF"/><g clip-path="url(#clip1)"><g clip-path="url(#clip2)"><g clip-path="url(#clip3)"><path d="M38.5 16.5 35.2293 16.5 35.2293 7.38467C35.2293 6.37267 34.4117 5.55133 33.396 5.55133L18.4378 5.55133C18.4012 5.55133 18.37 5.56967 18.3333 5.5715L18.3333 3.66667C18.3333 2.65467 17.512 1.83333 16.5 1.83333L5.5 1.83333C4.488 1.83333 3.66667 2.65467 3.66667 3.66667L3.66667 11C3.66667 12.012 4.488 12.8333 5.5 12.8333L16.5 12.8333C17.512 12.8333 18.3333 12.012 18.3333 11L18.3333 9.19783C18.37 9.19967 18.4012 9.218 18.4378 9.218L31.5627 9.218 31.5627 16.5 27.5 16.5C26.4862 16.5 25.6667 17.3213 25.6667 18.3333L25.6667 20.1667 12.8333 20.1667C11.8213 20.1667 11 20.988 11 22L11 31.1667 7.33333 31.1667C6.32133 31.1667 5.5 31.9862 5.5 33L5.5 40.3333C5.5 41.3472 6.32133 42.1667 7.33333 42.1667L18.3333 42.1667C19.3472 42.1667 20.1667 41.3472 20.1667 40.3333L20.1667 38.5 33 38.5C34.0138 38.5 34.8333 37.6805 34.8333 36.6667L34.8333 27.5 38.5 27.5C39.5138 27.5 40.3333 26.6805 40.3333 25.6667L40.3333 18.3333C40.3333 17.3213 39.5138 16.5 38.5 16.5ZM14.6667 9.16667 7.33333 9.16667 7.33333 5.5 14.6667 5.5 14.6667 9.16667ZM16.5 38.5 9.16667 38.5 9.16667 34.8333 16.5 34.8333 16.5 38.5ZM31.1667 34.8333 20.1667 34.8333 20.1667 33C20.1667 31.9862 19.3472 31.1667 18.3333 31.1667L14.6667 31.1667 14.6667 23.8333 25.6667 23.8333 25.6667 25.6667C25.6667 26.6805 26.4862 27.5 27.5 27.5L31.1667 27.5 31.1667 34.8333ZM36.6667 23.8333 29.3333 23.8333 29.3333 20.1667 36.6667 20.1667 36.6667 23.8333Z" transform="matrix(1 0 -0 1.02273 3 3)"/></g></g></g><text font-family="Calibri,Calibri_MSFontService,sans-serif" font-weight="700" font-size="20" transform="translate(79.4048 23)">PROCESS<tspan font-weight="400" font-size="12" x="-72.8658" y="78">A collection of </tspan><tspan font-size="12" x="-0.365776" y="78">Tasks</tspan><tspan font-weight="400" font-size="12" x="29.8009" y="78">and decision </tspan><tspan font-weight="400" font-size="12" x="-72.8658" y="93">logic that collectively coordinates </tspan><tspan font-weight="400" font-size="12" x="-72.8658" y="107">the execution of a business </tspan><tspan font-weight="400" font-size="12" x="-72.8658" y="121">endeavour.</tspan></text></g></svg>