<svg width="265" height="265" xmlns="http://www.w3.org/2000/svg" xmlns:xlink="http://www.w3.org/1999/xlink" overflow="hidden"><defs><clipPath id="clip0"><path d="M0 0 265 0 265 265 0 265Z" fill-rule="evenodd" clip-rule="evenodd"/></clipPath><clipPath id="clip1"><path d="M35 51 55 51 55 71 35 71Z" fill-rule="evenodd" clip-rule="evenodd"/></clipPath><clipPath id="clip2"><path d="M35 51 55 51 55 71 35 71Z" fill-rule="evenodd" clip-rule="evenodd"/></clipPath><clipPath id="clip3"><path d="M35 51 55 51 55 71 35 71Z" fill-rule="evenodd" clip-rule="evenodd"/></clipPath><clipPath id="clip4"><path d="M213 82 223 82 223 94 213 94Z" fill-rule="evenodd" clip-rule="evenodd"/></clipPath><clipPath id="clip5"><path d="M213 82 223 82 223 94 213 94Z" fill-rule="evenodd" clip-rule="evenodd"/></clipPath><clipPath id="clip6"><path d="M213 82 223 82 223 94 213 94Z" fill-rule="evenodd" clip-rule="evenodd"/></clipPath><clipPath id="clip7"><path d="M214 166 224 166 224 177 214 177Z" fill-rule="evenodd" clip-rule="evenodd"/></clipPath><clipPath id="clip8"><path d="M214 166 224 166 224 177 214 177Z" fill-rule="evenodd" clip-rule="evenodd"/></clipPath><clipPath id="clip9"><path d="M214 166 224 166 224 177 214 177Z" fill-rule="evenodd" clip-rule="evenodd"/></clipPath><clipPath id="clip10"><path d="M71 28 82 28 82 38 71 38Z" fill-rule="evenodd" clip-rule="evenodd"/></clipPath><clipPath id="clip11"><path d="M71 28 82 28 82 38 71 38Z" fill-rule="evenodd" clip-rule="evenodd"/></clipPath><clipPath id="clip12"><path d="M71 28 82 28 82 38 71 38Z" fill-rule="evenodd" clip-rule="evenodd"/></clipPath></defs><g clip-path="url(#clip0)"><rect x="0" y="0" width="265" height="265" fill="#313131"/><rect x="89.5" y="131.5" width="1.99999" height="1" stroke="#2F528F" stroke-width="1.33585" stroke-miterlimit="8" fill="#4472C4"/><path d="M23.5 9.75271C23.5 8.50859 24.5085 7.50003 25.7527 7.50003L249.247 7.50003C250.491 7.50003 251.5 8.50859 251.5 9.75271L251.5 249.247C251.5 250.491 250.491 251.5 249.247 251.5L25.7527 251.5C24.5085 251.5 23.5 250.491 23.5 249.247Z" stroke="#FF0000" stroke-width="0.667927" stroke-miterlimit="8" stroke-opacity="0" fill="none" fill-rule="evenodd"/><path d="M30.0794 43.5 149.921 43.5C153.002 43.5 155.5 45.998 155.5 49.0794L155.5 214.252C155.5 216.598 153.598 218.5 151.252 218.5L28.7483 218.5C26.402 218.5 24.5 216.598 24.5 214.252L24.5 49.0794C24.5 45.998 26.998 43.5 30.0794 43.5Z" stroke="#000080" stroke-width="4.67549" stroke-miterlimit="8" fill="#FFFFFF" fill-rule="evenodd"/><g clip-path="url(#clip1)"><g clip-path="url(#clip2)"><g clip-path="url(#clip3)"><path d="M13.3036 5.47828C13.3036 5.9105 12.9532 6.26089 12.521 6.26089 12.0888 6.26089 11.7384 5.9105 11.7384 5.47828 11.7384 5.04605 12.0888 4.69567 12.521 4.69567 12.9532 4.69567 13.3036 5.04605 13.3036 5.47828Z" transform="matrix(1.01157 0 -0 1 35 52)"/><path d="M17.2174 16.4348 10.9566 16.4348 10.9566 9.58229 11.9935 10.7053C12.1422 10.8658 12.3496 10.9566 12.5687 10.9566 12.5711 10.9566 12.5734 10.9566 12.5758 10.9566 12.7965 10.9542 13.0062 10.8595 13.1526 10.6944L14.4141 9.27864 15.6428 9.27864C16.0756 9.27864 16.4254 8.92803 16.4254 8.49602L16.4254 7.19533 17.7653 5.8821C17.9155 5.73497 18.0001 5.53306 18.0001 5.32254 18.0001 5.11201 17.9155 4.91088 17.7645 4.76375L16.4254 3.45366 16.4254 2.3134C16.4254 1.8814 16.0756 1.53079 15.6428 1.53079L14.3922 1.53079 13.1283 0.236348C12.9819 0.0876524 12.7839 0.00234783 12.575 0.000782611 12.3825 0.00469567 12.1665 0.0806089 12.0186 0.226957L10.6975 1.53157 9.38507 1.53157C8.95307 1.53157 8.60246 1.88218 8.60246 2.31418L8.60246 3.45679 7.34715 4.69567 2.34783 4.69567C1.91583 4.69567 1.56522 5.04628 1.56522 5.47828L1.56522 16.4348 0.782611 16.4348C0.35061 16.4348 0 16.7847 0 17.2174 0 17.6502 0.35061 18.0001 0.782611 18.0001L2.34783 18.0001 10.1739 18.0001 17.2174 18.0001C17.6502 18.0001 18.0001 17.6502 18.0001 17.2174 18.0001 16.7847 17.6502 16.4348 17.2174 16.4348ZM9.93446 4.3388C10.0832 4.19166 10.1677 3.99132 10.1677 3.78236L10.1677 3.09601 11.0184 3.09601C11.2242 3.09601 11.4222 3.01462 11.5678 2.86983L12.5586 1.89235 13.5032 2.85966C13.6503 3.0107 13.8522 3.09523 14.0635 3.09523L14.861 3.09523 14.861 3.78158C14.861 3.9921 14.9455 4.19323 15.0966 4.34114L16.0999 5.32254 15.095 6.30784C14.9455 6.45498 14.8602 6.65611 14.8602 6.86663L14.8602 7.7142 14.0635 7.7142C13.8405 7.7142 13.6276 7.80967 13.4797 7.97559L12.5578 9.00942 11.5936 7.96541C11.4457 7.80498 11.2375 7.7142 11.0192 7.7142L10.9566 7.7142 10.9566 5.47828C10.9566 5.45793 10.9464 5.44149 10.9448 5.42115L10.9448 5.29828C10.9448 5.08932 10.8619 4.88897 10.7124 4.74184 10.5637 4.59471 10.3618 4.52662 10.1536 4.51567L9.75133 4.51958 9.93446 4.3388ZM3.13044 16.4348 3.13044 6.26089 9.39133 6.26089 9.39133 16.4348 3.13044 16.4348Z" transform="matrix(1.01157 0 -0 1 35 52)"/><path d="M3.91305 7.82611 5.47828 7.82611 5.47828 10.1739 3.91305 10.1739Z" transform="matrix(1.01157 0 -0 1 35 52)"/><path d="M3.91305 11.7392 5.47828 11.7392 5.47828 14.087 3.91305 14.087Z" transform="matrix(1.01157 0 -0 1 35 52)"/><path d="M7.0435 7.82611 8.60872 7.82611 8.60872 10.1739 7.0435 10.1739Z" transform="matrix(1.01157 0 -0 1 35 52)"/><path d="M7.0435 11.7392 8.60872 11.7392 8.60872 14.087 7.0435 14.087Z" transform="matrix(1.01157 0 -0 1 35 52)"/></g></g></g><path d="M26.9702 6.36947C18.5628 6.36947 11.7473 10.3112 11.7473 15.1736L11.7473 248.948C11.7473 253.81 18.5628 257.752 26.9702 257.752L238.08 257.752C246.487 257.752 253.302 253.81 253.302 248.948L253.302 15.1736C253.302 10.3112 246.487 6.36947 238.08 6.36947ZM0 0 265 0 265 265 0 265Z" fill="#000080" fill-rule="evenodd"/><text font-family="Calibri,Calibri_MSFontService,sans-serif" font-weight="700" font-size="11" transform="translate(59.6022 63)">BUSINESS DRIVER<tspan font-size="9" x="-28.3119" y="62">Business drivers</tspan><tspan font-weight="400" font-size="9" x="35.9761" y="62">are the key </tspan><tspan font-weight="400" font-size="9" x="-28.3119" y="73">inputs and activities that </tspan><tspan font-weight="400" font-size="9" x="-28.3119" y="84">contribute to the overall </tspan><tspan font-weight="400" font-size="9" x="-28.3119" y="95">operational and financial </tspan><tspan font-weight="400" font-size="9" x="-28.3119" y="107">value of a</tspan><tspan font-weight="400" font-size="9" x="10.9288" y="107">business.</tspan></text><path d="M213.5 84.5001C213.5 83.3955 214.396 82.5 215.5 82.5L246.5 82.5C247.605 82.5 248.5 83.3955 248.5 84.5001L248.5 92.5C248.5 93.6046 247.605 94.5001 246.5 94.5001L215.5 94.5001C214.396 94.5001 213.5 93.6046 213.5 92.5Z" stroke="#000080" stroke-width="1.33585" stroke-miterlimit="8" fill="#FFFFFF" fill-rule="evenodd"/><text font-family="Calibri,Calibri_MSFontService,sans-serif" font-weight="700" font-size="5" transform="translate(224.918 86)">BUSINESS<tspan x="0" y="6">OUTCOME</tspan></text><g clip-path="url(#clip4)"><g clip-path="url(#clip5)"><g clip-path="url(#clip6)"><path d="M8.62497 0.749998 3.36411 0.749998C3.15712 0.749998 2.98912 0.917997 2.98912 1.125L2.98912 1.5 0.374999 1.5C0.168 1.5 0 1.668 0 1.87499L0 6.37498C0 6.58236 0.168 6.74998 0.374999 6.74998L1.48575 6.74998 1.48575 7.49998C1.48575 7.70735 1.65375 7.87498 1.86074 7.87498L2.98912 7.87498 2.98912 8.24998C2.98912 8.45735 3.15712 8.62497 3.36411 8.62497L8.62497 8.62497C8.83235 8.62497 8.99997 8.45735 8.99997 8.24998L8.99997 1.125C8.99997 0.917997 8.83235 0.749998 8.62497 0.749998ZM0.749998 5.99998 0.749998 2.24999 2.98912 2.24999 2.98912 2.62499 1.86074 2.62499C1.65375 2.62499 1.48575 2.79299 1.48575 2.99999L1.48575 5.99998 0.749998 5.99998ZM2.23574 7.12498 2.23574 3.37499 2.98912 3.37499 2.98912 7.12498 2.23574 7.12498ZM8.24998 7.87498 3.73911 7.87498 3.73911 7.49998 3.73911 2.99999 3.73911 1.5 8.24998 1.5 8.24998 7.87498Z" transform="matrix(1 0 -0 1.11112 214 83)"/><path d="M4.49961 5.43748C4.61511 5.43748 4.72836 5.38386 4.80261 5.28411L5.60886 4.18424 6.42711 4.95411C6.51898 5.04036 6.64761 5.07411 6.77135 5.04599 6.8936 5.01674 6.9941 4.92786 7.03648 4.80936L7.85248 2.56574C7.92335 2.37112 7.82323 2.15587 7.62823 2.08499 7.43285 2.01449 7.21835 2.11462 7.14785 2.30924L6.52686 4.01774 5.81473 3.34762C5.73636 3.27412 5.63436 3.23774 5.52373 3.24749 5.41686 3.25724 5.31936 3.31237 5.25561 3.39899L4.19849 4.84086C4.07624 5.00811 4.11224 5.24248 4.27911 5.36473 4.34511 5.41423 4.42274 5.43748 4.49961 5.43748Z" transform="matrix(1 0 -0 1.11112 214 83)"/><path d="M4.49999 6.93748 7.49998 6.93748C7.70735 6.93748 7.87498 6.76986 7.87498 6.56248 7.87498 6.35511 7.70735 6.18748 7.49998 6.18748L4.49999 6.18748C4.29299 6.18748 4.12499 6.35511 4.12499 6.56248 4.12499 6.76986 4.29299 6.93748 4.49999 6.93748Z" transform="matrix(1 0 -0 1.11112 214 83)"/></g></g></g><path d="M214.5 169.5C214.5 168.948 214.948 168.5 215.5 168.5L247.5 168.5C248.052 168.5 248.5 168.948 248.5 169.5L248.5 173.5C248.5 174.052 248.052 174.5 247.5 174.5L215.5 174.5C214.948 174.5 214.5 174.052 214.5 173.5Z" stroke="#46F0F0" stroke-width="1.33585" stroke-miterlimit="8" fill="#FFFFFF" fill-rule="evenodd"/><text font-family="Calibri,Calibri_MSFontService,sans-serif" font-weight="700" font-size="5" transform="translate(225.442 172)">INITIATIVE</text><g clip-path="url(#clip7)"><g clip-path="url(#clip8)"><g clip-path="url(#clip9)"><path d="M3.74999 4.77449C4.57686 4.77449 5.24998 4.11824 5.24998 3.31124 5.24998 2.50387 4.57686 1.84762 3.74999 1.84762 2.92274 1.84762 2.24999 2.50424 2.24999 3.31124 2.24999 4.11824 2.92274 4.77449 3.74999 4.77449ZM3.74999 2.57962C4.16399 2.57962 4.49999 2.90774 4.49999 3.31162 4.49999 3.71549 4.16399 4.04361 3.74999 4.04361 3.33637 4.04361 2.99999 3.71549 2.99999 3.31162 2.99999 2.90774 3.33637 2.57962 3.74999 2.57962Z" transform="matrix(1 0 -0 1.11111 215 166)"/><path d="M7.49998 0.749998C7.2926 0.749998 7.12498 0.913872 7.12498 1.116L7.12498 3.54186 7.12498 3.67724 7.12498 3.70986C7.12498 4.70661 6.29473 5.51736 5.27398 5.51736L3.72599 5.51736C2.29162 5.51773 1.125 6.57936 1.125 7.8836 1.125 8.08573 1.293 8.24998 1.5 8.24998 1.707 8.24998 1.87499 8.08573 1.87499 7.8836 1.87499 6.98285 2.70524 6.24936 3.72599 6.24936L5.27398 6.24936C6.70798 6.24936 7.87535 5.11049 7.87535 3.71024L7.87535 3.67724 7.87535 3.54186 7.87535 1.116C7.87498 0.913872 7.70735 0.749998 7.49998 0.749998Z" transform="matrix(1 0 -0 1.11111 215 166)"/><path d="M5.99998 6.60411C5.79261 6.60411 5.62498 6.76835 5.62498 6.97085L5.62498 7.70248C5.62498 7.9046 5.79261 8.06848 5.99998 8.06848 6.20736 8.06848 6.37498 7.9046 6.37498 7.70248L6.37498 6.97085C6.37498 6.76835 6.20736 6.60411 5.99998 6.60411Z" transform="matrix(1 0 -0 1.11111 215 166)"/></g></g></g><path d="M165.848 168 203.152 168C208.038 168 212 170.91 212 174.5 212 178.09 208.038 181 203.152 181L165.848 181C160.962 181 157 178.09 157 174.5 157 170.91 160.962 168 165.848 168Z" fill="#313131" fill-rule="evenodd"/><text fill="#FFFFFF" font-family="Calibri,Calibri_MSFontService,sans-serif" font-weight="700" font-size="5" transform="translate(169.743 176)">&lt;Clarified by|</text><path d="M165.848 82 203.152 82C208.038 82 212 84.9101 212 88.5 212 92.0899 208.038 95 203.152 95L165.848 95C160.962 95 157 92.0899 157 88.5 157 84.9101 160.962 82 165.848 82Z" fill="#313131" fill-rule="evenodd"/><text fill="#FFFFFF" font-family="Calibri,Calibri_MSFontService,sans-serif" font-weight="700" font-size="5" transform="translate(171.664 90)">&lt;Driven By|</text><path d="M84 41 89.5 38 95 41Z" fill="#FFFFFF" fill-rule="evenodd"/><path d="M71.5001 31.5C71.5001 30.9477 71.9478 30.5 72.5001 30.5L106.5 30.5C107.052 30.5 107.5 30.9477 107.5 31.5L107.5 35.5C107.5 36.0523 107.052 36.5 106.5 36.5L72.5001 36.5C71.9478 36.5 71.5001 36.0523 71.5001 35.5Z" stroke="#000080" stroke-width="1.33585" stroke-miterlimit="8" fill="#FFFFFF" fill-rule="evenodd"/><text font-family="Calibri,Calibri_MSFontService,sans-serif" font-weight="700" font-size="5" transform="translate(83.0711 34)">VALUEDIAL</text><g clip-path="url(#clip10)"><g clip-path="url(#clip11)"><g clip-path="url(#clip12)"><path d="M81.4583 32.6971 77.2916 28.5384C77.1296 28.3763 76.8704 28.3763 76.7083 28.5384L72.5417 32.6971C72.4617 32.7767 72.4167 32.8867 72.4167 33 72.4167 33.1138 72.4617 33.2233 72.5417 33.3038L76.7083 37.4625C76.7896 37.5425 76.8946 37.5833 77 37.5833 77.1054 37.5833 77.2108 37.5425 77.2916 37.4625L81.4583 33.3038C81.5379 33.2233 81.5833 33.1138 81.5833 33 81.5833 32.8867 81.5387 32.7767 81.4583 32.6971ZM73.4287 33 76.9583 29.4771 76.9583 36.5233 73.4287 33Z"/></g></g></g></g></svg>