<svg width="189" height="189" xmlns="http://www.w3.org/2000/svg" xmlns:xlink="http://www.w3.org/1999/xlink" overflow="hidden"><defs><clipPath id="clip0"><path d="M0 0 189 0 189 189 0 189Z" fill-rule="evenodd" clip-rule="evenodd"/></clipPath><clipPath id="clip1"><path d="M3 3 47 3 47 48 3 48Z" fill-rule="evenodd" clip-rule="evenodd"/></clipPath><clipPath id="clip2"><path d="M3 3 47 3 47 48 3 48Z" fill-rule="evenodd" clip-rule="evenodd"/></clipPath><clipPath id="clip3"><path d="M3 3 47 3 47 48 3 48Z" fill-rule="evenodd" clip-rule="evenodd"/></clipPath></defs><g clip-path="url(#clip0)"><rect x="0" y="0" width="189" height="189" fill="#313131"/><text fill="#FFFFFF" font-family="Calibri,Calibri_MSFontService,sans-serif" font-weight="300" font-size="11" transform="translate(9.60032 -5)">ROLE</text><rect x="3.50005" y="3.50005" width="1" height="1" stroke="#2F528F" stroke-width="1.33333" stroke-miterlimit="8" fill="#4472C4"/><rect x="0" y="0" width="189" height="189" stroke="#CEB023" stroke-width="8" stroke-miterlimit="8" fill="#FFFFFF"/><g clip-path="url(#clip1)"><g clip-path="url(#clip2)"><g clip-path="url(#clip3)"><path d="M22 18.3333C18.9677 18.3333 16.5 20.801 16.5 23.8333 16.5 26.8657 18.9677 29.3333 22 29.3333 25.0323 29.3333 27.5 26.8657 27.5 23.8333 27.5 20.801 25.0323 18.3333 22 18.3333ZM22 25.6667C20.988 25.6667 20.1667 24.8453 20.1667 23.8333 20.1667 22.8232 20.988 22 22 22 23.012 22 23.8333 22.8232 23.8333 23.8333 23.8333 24.8453 23.012 25.6667 22 25.6667Z" transform="matrix(1 0 -0 1.02273 3 3)"/><path d="M38.5 9.16667 27.5 9.16667 27.5 5.5C27.5 4.488 26.6805 3.66667 25.6667 3.66667L18.3333 3.66667C17.3213 3.66667 16.5 4.488 16.5 5.5L16.5 9.16667 5.5 9.16667C4.488 9.16667 3.66667 9.988 3.66667 11L3.66667 40.3333C3.66667 41.3472 4.488 42.1667 5.5 42.1667L38.5 42.1667C39.5138 42.1667 40.3333 41.3472 40.3333 40.3333L40.3333 11C40.3333 9.988 39.5138 9.16667 38.5 9.16667ZM20.1667 7.33333 23.8333 7.33333 23.8333 12.8333 20.1667 12.8333 20.1667 7.33333ZM27.5 38.5 16.5 38.5 16.5 36.6667C16.5 35.6382 17.303 34.8333 18.3297 34.8333L25.6703 34.8333C26.697 34.8333 27.5 35.6382 27.5 36.6667L27.5 38.5ZM36.6667 38.5 31.1667 38.5 31.1667 36.6667C31.1667 33.6343 28.699 31.1667 25.6703 31.1667L18.3297 31.1667C15.2992 31.1667 12.8333 33.6343 12.8333 36.6667L12.8333 38.5 7.33333 38.5 7.33333 12.8333 16.5 12.8333 16.5 14.6667C16.5 15.6787 17.3213 16.5 18.3333 16.5L25.6667 16.5C26.6805 16.5 27.5 15.6787 27.5 14.6667L27.5 12.8333 36.6667 12.8333 36.6667 38.5Z" transform="matrix(1 0 -0 1.02273 3 3)"/></g></g></g><text font-family="Calibri,Calibri_MSFontService,sans-serif" font-weight="700" font-size="20" transform="translate(95.2248 23)">ROLE<tspan font-size="12" x="-88.6858" y="86">Roles</tspan><tspan font-weight="400" font-size="12" x="-58.8525" y="86">identify the actors in a </tspan><tspan font-weight="400" font-size="12" x="-88.6858" y="101">domain and their designated </tspan><tspan font-size="12" x="-88.6858" y="115">Responsibilities</tspan><tspan font-weight="400" font-size="12" x="-10.1858" y="115">.</tspan></text></g></svg>