<svg width="189" height="189" xmlns="http://www.w3.org/2000/svg" xmlns:xlink="http://www.w3.org/1999/xlink" overflow="hidden"><defs><clipPath id="clip0"><path d="M0 0 189 0 189 189 0 189Z" fill-rule="evenodd" clip-rule="evenodd"/></clipPath><clipPath id="clip1"><path d="M3 3 47 3 47 48 3 48Z" fill-rule="evenodd" clip-rule="evenodd"/></clipPath><clipPath id="clip2"><path d="M3 3 47 3 47 48 3 48Z" fill-rule="evenodd" clip-rule="evenodd"/></clipPath><clipPath id="clip3"><path d="M3 3 47 3 47 48 3 48Z" fill-rule="evenodd" clip-rule="evenodd"/></clipPath></defs><g clip-path="url(#clip0)"><rect x="0" y="0" width="189" height="189" fill="#313131"/><text fill="#FFFFFF" font-family="Calibri,Calibri_MSFontService,sans-serif" font-weight="300" font-size="11" transform="translate(9.60032 0)">STAGE</text><rect x="3.50005" y="3.50005" width="1" height="1" stroke="#2F528F" stroke-width="1.33333" stroke-miterlimit="8" fill="#4472C4"/><rect x="0" y="0" width="189" height="189" stroke="#F032E6" stroke-width="8" stroke-miterlimit="8" fill="#FFFFFF"/><g clip-path="url(#clip1)"><g clip-path="url(#clip2)"><g clip-path="url(#clip3)"><path d="M41.7688 32.7763 38.1278 28.193C37.7758 27.7548 37.2497 27.5 36.6923 27.5L25.6667 27.5C24.9608 27.5 24.321 27.9052 24.0167 28.5377 23.7123 29.1738 23.7948 29.9273 24.2348 30.4792L26.9885 33.9167 24.2348 37.3542C23.7948 37.906 23.7123 38.6595 24.0167 39.2957 24.321 39.9282 24.9608 40.3333 25.6667 40.3333L36.6923 40.3333C37.2515 40.3333 37.7813 40.0785 38.1278 39.6403L41.7688 35.057C42.2987 34.3897 42.2987 33.4437 41.7688 32.7763Z" transform="matrix(1 0 -0 1.02273 3 3)"/><path d="M17.9593 28.193C17.6128 27.7548 17.0848 27.5 16.5257 27.5L5.5 27.5C4.796 27.5 4.1525 27.9052 3.84817 28.5377 3.542 29.1738 3.62817 29.9273 4.07 30.4792L6.82 33.9167 4.07 37.3542C3.63 37.906 3.54383 38.6595 3.84817 39.2957 4.1525 39.9282 4.796 40.3333 5.5 40.3333L16.5257 40.3333C17.0848 40.3333 17.6128 40.0785 17.9612 39.6403L21.604 35.057C22.1338 34.3897 22.1338 33.4437 21.604 32.7763L17.9593 28.193ZM15.6402 36.6667 9.31517 36.6667 10.5985 35.0625C11.1338 34.3933 11.1338 33.44 10.5985 32.7708L9.31517 31.1667 15.6402 31.1667 17.8255 33.9167 15.6402 36.6667Z" transform="matrix(1 0 -0 1.02273 3 3)"/><path d="M33 12.8223C33 12.331 32.8075 11.8598 32.4573 11.5133L23.3072 2.35217C22.6142 1.65917 21.3858 1.65917 20.6928 2.35217L11.5408 11.5133C10.8167 12.2375 10.8167 13.4072 11.5408 14.1295L20.691 23.2907C21.0393 23.639 21.5068 23.8333 22 23.8333 22.4913 23.8333 22.9588 23.639 23.3072 23.2907L32.4573 14.1295C32.8075 13.783 33 13.3118 33 12.8223ZM22 19.3637 15.4642 12.8223 22 6.27917 28.5358 12.8223 22 19.3637Z" transform="matrix(1 0 -0 1.02273 3 3)"/></g></g></g><text font-family="Calibri,Calibri_MSFontService,sans-serif" font-weight="700" font-size="20" transform="translate(52.7081 23)">VALUE STREAM <tspan x="38.0133" y="24">STAGE</tspan><tspan font-weight="400" font-size="12" x="-46.1691" y="78">A </tspan><tspan font-size="12" x="-36.5025" y="78">Value Stream Stage</tspan><tspan font-weight="400" font-size="12" x="63.6642" y="78">represents a </tspan><tspan font-weight="400" font-size="12" x="-46.1691" y="93">group of </tspan><tspan font-size="12" x="-2.00247" y="93">business Capabilities</tspan><tspan font-weight="400" font-size="12" x="104.664" y="93">that </tspan><tspan font-weight="400" font-size="12" x="-46.1691" y="107">are enabled as a finite step in the </tspan><tspan font-weight="400" font-size="12" x="-46.1691" y="121">pursuit of a business endeavour.</tspan></text></g></svg>