<svg width="189" height="189" xmlns="http://www.w3.org/2000/svg" xmlns:xlink="http://www.w3.org/1999/xlink" overflow="hidden"><defs><clipPath id="clip0"><path d="M0 0 189 0 189 189 0 189Z" fill-rule="evenodd" clip-rule="evenodd"/></clipPath><clipPath id="clip1"><path d="M3 3 47 3 47 48 3 48Z" fill-rule="evenodd" clip-rule="evenodd"/></clipPath><clipPath id="clip2"><path d="M3 3 47 3 47 48 3 48Z" fill-rule="evenodd" clip-rule="evenodd"/></clipPath><clipPath id="clip3"><path d="M3 3 47 3 47 48 3 48Z" fill-rule="evenodd" clip-rule="evenodd"/></clipPath></defs><g clip-path="url(#clip0)"><rect x="0" y="0" width="189" height="189" fill="#313131"/><text fill="#FFFFFF" font-family="Calibri,Calibri_MSFontService,sans-serif" font-weight="300" font-size="11" transform="translate(9.60032 -5)">MILESTONE</text><rect x="3.50005" y="3.50005" width="1" height="1" stroke="#2F528F" stroke-width="1.33333" stroke-miterlimit="8" fill="#4472C4"/><rect x="0" y="0" width="189" height="189" stroke="#46F0F0" stroke-width="8" stroke-miterlimit="8" fill="#FFFFFF"/><g clip-path="url(#clip1)"><g clip-path="url(#clip2)"><g clip-path="url(#clip3)"><path d="M40.3333 36.6667 36.6667 36.6667 36.6667 9.61583 22 1.57667 7.33333 9.61583 7.33333 36.6667 3.66667 36.6667C2.65467 36.6667 1.83333 37.4862 1.83333 38.5 1.83333 39.5138 2.65467 40.3333 3.66667 40.3333L7.33333 40.3333 36.6667 40.3333 40.3333 40.3333C41.3472 40.3333 42.1667 39.5138 42.1667 38.5 42.1667 37.4862 41.3472 36.6667 40.3333 36.6667ZM11 11.7865 20.1667 6.76133 20.1667 36.6667 11 36.6667 11 11.7865ZM23.8333 36.6667 23.8333 6.76133 33 11.7865 33 36.6667 23.8333 36.6667Z" transform="matrix(1 0 -0 1.02273 3 4.875)"/></g></g></g><text font-family="Calibri,Calibri_MSFontService,sans-serif" font-weight="700" font-size="20" transform="translate(68.6748 23)">MILESTONE<tspan font-weight="400" font-size="12" x="-62.1358" y="78">A project </tspan><tspan font-size="12" x="-15.1358" y="78">Milestone</tspan><tspan font-weight="400" font-size="12" x="38.0309" y="78">is a task of zero </tspan><tspan font-weight="400" font-size="12" x="-62.1358" y="93">duration that shows an important </tspan><tspan font-weight="400" font-size="12" x="-62.1358" y="107">achievement in an </tspan><tspan font-size="12" x="30.3642" y="107">Initiative</tspan><tspan font-weight="400" font-size="12" x="77.6975" y="107">or a </tspan><tspan font-size="12" x="-62.1358" y="121">Project</tspan><tspan font-weight="400" font-size="12" x="-26.8025" y="121">. </tspan></text></g></svg>