<svg width="189" height="189" xmlns="http://www.w3.org/2000/svg" xmlns:xlink="http://www.w3.org/1999/xlink" overflow="hidden"><defs><clipPath id="clip0"><path d="M0 0 189 0 189 189 0 189Z" fill-rule="evenodd" clip-rule="evenodd"/></clipPath><clipPath id="clip1"><path d="M3 3 47 3 47 48 3 48Z" fill-rule="evenodd" clip-rule="evenodd"/></clipPath><clipPath id="clip2"><path d="M3 3 47 3 47 48 3 48Z" fill-rule="evenodd" clip-rule="evenodd"/></clipPath><clipPath id="clip3"><path d="M3 3 47 3 47 48 3 48Z" fill-rule="evenodd" clip-rule="evenodd"/></clipPath></defs><g clip-path="url(#clip0)"><rect x="0" y="0" width="189" height="189" fill="#313131"/><text fill="#FFFFFF" font-family="Calibri,Calibri_MSFontService,sans-serif" font-weight="300" font-size="11" transform="translate(9.60032 -5)">REQUIREMENT</text><rect x="3.50005" y="3.50005" width="1" height="1" stroke="#2F528F" stroke-width="1.33333" stroke-miterlimit="8" fill="#4472C4"/><rect x="0" y="0" width="189" height="189" stroke="#D2F53C" stroke-width="8" stroke-miterlimit="8" fill="#FFFFFF"/><g clip-path="url(#clip1)"><g clip-path="url(#clip2)"><g clip-path="url(#clip3)"><path d="M18.3333 26.0315 9.30967 34.8333 9.30783 34.8315 9.30783 34.8333 3.66667 29.3333 5.92167 27.1333 9.30783 30.4333 16.0783 23.8333Z" transform="matrix(1 0 -0 1.02273 3 3)"/><path d="M18.3333 7.7 9.30967 16.5 9.30783 16.5 9.30783 16.5 3.66667 11 5.92167 8.8 9.30783 12.1 16.0783 5.5Z" transform="matrix(1 0 -0 1.02273 3 3)"/><path d="M36.6667 16.5 25.6667 16.5C24.6528 16.5 23.8333 15.6787 23.8333 14.6667L23.8333 7.33333C23.8333 6.32133 24.6528 5.5 25.6667 5.5L36.6667 5.5C37.6805 5.5 38.5 6.32133 38.5 7.33333L38.5 14.6667C38.5 15.6787 37.6805 16.5 36.6667 16.5ZM27.5 12.8333 34.8333 12.8333 34.8333 9.16667 27.5 9.16667 27.5 12.8333Z" transform="matrix(1 0 -0 1.02273 3 3)"/><path d="M36.6667 34.8333 25.6667 34.8333C24.6528 34.8333 23.8333 34.0138 23.8333 33L23.8333 25.6667C23.8333 24.6528 24.6528 23.8333 25.6667 23.8333L36.6667 23.8333C37.6805 23.8333 38.5 24.6528 38.5 25.6667L38.5 33C38.5 34.0138 37.6805 34.8333 36.6667 34.8333ZM27.5 31.1667 34.8333 31.1667 34.8333 27.5 27.5 27.5 27.5 31.1667Z" transform="matrix(1 0 -0 1.02273 3 3)"/></g></g></g><text font-family="Calibri,Calibri_MSFontService,sans-serif" font-weight="700" font-size="20" transform="translate(54.5481 23)">REQUIREMENT<tspan font-weight="400" font-size="12" x="-48.0091" y="50">A </tspan><tspan font-size="12" x="-38.3425" y="50">Requirement</tspan><tspan font-weight="400" font-size="12" x="29.9909" y="50">elaborates a </tspan><tspan font-weight="400" font-size="12" x="-48.0091" y="65">directive of a business </tspan><tspan font-size="12" x="62.8242" y="65">Stakeholder</tspan><tspan font-weight="400" font-size="12" x="-48.0091" y="79">toward the enablement of a </tspan><tspan font-weight="400" font-size="12" x="-48.0091" y="93">business function. </tspan><tspan font-size="12" x="42.9909" y="93">Requirements</tspan><tspan font-weight="400" font-size="12" x="-48.0091" y="108">are stated as a </tspan><tspan font-size="12" x="25.1575" y="108">User story</tspan><tspan font-weight="400" font-size="12" x="76.3242" y="108">, </tspan><tspan font-weight="400" font-size="12" x="-48.0091" y="122">identifying the Stakeholder (</tspan><tspan font-size="12" x="90.9909" y="122">As</tspan><tspan font-size="12" x="103.158" y="122">-</tspan><tspan font-size="12" x="106.824" y="122">A</tspan><tspan font-weight="400" font-size="12" x="114.158" y="122">), </tspan><tspan font-weight="400" font-size="12" x="-48.0091" y="137">the directive (</tspan><tspan font-size="12" x="19.9909" y="137">I</tspan><tspan font-size="12" x="23.1575" y="137">-</tspan><tspan font-size="12" x="26.8242" y="137">Want</tspan><tspan font-weight="400" font-size="12" x="54.3242" y="137">) and the </tspan><tspan font-weight="400" font-size="12" x="-48.0091" y="151">motivation (</tspan><tspan font-size="12" x="11.8242" y="151">So</tspan><tspan font-size="12" x="23.9909" y="151">-</tspan><tspan font-size="12" x="27.6575" y="151">That</tspan><tspan font-weight="400" font-size="12" x="50.3242" y="151">).</tspan></text></g></svg>