<svg width="189" height="189" xmlns="http://www.w3.org/2000/svg" xmlns:xlink="http://www.w3.org/1999/xlink" overflow="hidden"><defs><clipPath id="clip0"><path d="M0 0 189 0 189 189 0 189Z" fill-rule="evenodd" clip-rule="evenodd"/></clipPath><clipPath id="clip1"><path d="M3 3 47 3 47 48 3 48Z" fill-rule="evenodd" clip-rule="evenodd"/></clipPath><clipPath id="clip2"><path d="M3 3 47 3 47 48 3 48Z" fill-rule="evenodd" clip-rule="evenodd"/></clipPath><clipPath id="clip3"><path d="M3 3 47 3 47 48 3 48Z" fill-rule="evenodd" clip-rule="evenodd"/></clipPath></defs><g clip-path="url(#clip0)"><rect x="0" y="0" width="189" height="189" fill="#313131"/><text fill="#FFFFFF" font-family="Calibri,Calibri_MSFontService,sans-serif" font-weight="300" font-size="11" transform="translate(9.60032 0)">LEVEL</text><rect x="3.50005" y="3.50005" width="1" height="1" stroke="#2F528F" stroke-width="1.33333" stroke-miterlimit="8" fill="#4472C4"/><rect x="0" y="0" width="189" height="189" stroke="#CEB023" stroke-width="8" stroke-miterlimit="8" fill="#FFFFFF"/><g clip-path="url(#clip1)"><g clip-path="url(#clip2)"><g clip-path="url(#clip3)"><path d="M9.00167 22 14.6667 18.8687 20.3317 22 19.25 15.367 23.8333 10.67 17.4992 9.702 14.6667 3.66667 11.8342 9.702 5.5 10.67 10.0833 15.367Z" transform="matrix(1 0 -0 1.02273 3 3)"/><path d="M38.5 27.5 16.5 27.5 16.5 25.6667C16.5 24.6528 15.6787 23.8333 14.6667 23.8333 13.6547 23.8333 12.8333 24.6528 12.8333 25.6667L12.8333 27.5 5.5 27.5C4.488 27.5 3.66667 28.3195 3.66667 29.3333L3.66667 36.6667C3.66667 37.6805 4.488 38.5 5.5 38.5L12.8333 38.5C12.8333 39.5138 13.6547 40.3333 14.6667 40.3333 15.6787 40.3333 16.5 39.5138 16.5 38.5L38.5 38.5C39.5138 38.5 40.3333 37.6805 40.3333 36.6667L40.3333 29.3333C40.3333 28.3195 39.5138 27.5 38.5 27.5ZM7.33333 34.8333 7.33333 31.1667 12.8333 31.1667 12.8333 34.8333 7.33333 34.8333ZM36.6667 34.8333 16.5 34.8333 16.5 31.1667 36.6667 31.1667 36.6667 34.8333Z" transform="matrix(1 0 -0 1.02273 3 3)"/></g></g></g><text font-family="Calibri,Calibri_MSFontService,sans-serif" font-weight="700" font-size="20" transform="translate(52.6281 23)">POSITION SKILL <tspan x="39.8333" y="24">LEVEL</tspan><tspan font-size="12" x="-46.0891" y="86">Position skill levels</tspan><tspan font-weight="400" font-size="12" x="50.9109" y="86">define the </tspan><tspan font-weight="400" font-size="12" x="-46.0891" y="101">different levels of competency at </tspan><tspan font-weight="400" font-size="12" x="-46.0891" y="115">which a </tspan><tspan font-size="12" x="-6.08913" y="115">Skill</tspan><tspan font-weight="400" font-size="12" x="17.0775" y="115">can be possessed.</tspan></text></g></svg>