<svg width="265" height="265" xmlns="http://www.w3.org/2000/svg" xmlns:xlink="http://www.w3.org/1999/xlink" overflow="hidden"><defs><clipPath id="clip0"><path d="M0 0 265 0 265 265 0 265Z" fill-rule="evenodd" clip-rule="evenodd"/></clipPath><clipPath id="clip1"><path d="M35 51 55 51 55 71 35 71Z" fill-rule="evenodd" clip-rule="evenodd"/></clipPath><clipPath id="clip2"><path d="M35 51 55 51 55 71 35 71Z" fill-rule="evenodd" clip-rule="evenodd"/></clipPath><clipPath id="clip3"><path d="M35 51 55 51 55 71 35 71Z" fill-rule="evenodd" clip-rule="evenodd"/></clipPath><clipPath id="clip4"><path d="M213 47 223 47 223 58 213 58Z" fill-rule="evenodd" clip-rule="evenodd"/></clipPath><clipPath id="clip5"><path d="M213 47 223 47 223 58 213 58Z" fill-rule="evenodd" clip-rule="evenodd"/></clipPath><clipPath id="clip6"><path d="M213 47 223 47 223 58 213 58Z" fill-rule="evenodd" clip-rule="evenodd"/></clipPath><clipPath id="clip7"><path d="M215 99 226 99 226 108 215 108Z" fill-rule="evenodd" clip-rule="evenodd"/></clipPath><clipPath id="clip8"><path d="M215 99 226 99 226 108 215 108Z" fill-rule="evenodd" clip-rule="evenodd"/></clipPath><clipPath id="clip9"><path d="M215 99 226 99 226 108 215 108Z" fill-rule="evenodd" clip-rule="evenodd"/></clipPath><clipPath id="clip10"><path d="M204 150 213 150 213 162 204 162Z" fill-rule="evenodd" clip-rule="evenodd"/></clipPath><clipPath id="clip11"><path d="M204 150 213 150 213 162 204 162Z" fill-rule="evenodd" clip-rule="evenodd"/></clipPath><clipPath id="clip12"><path d="M204 150 213 150 213 162 204 162Z" fill-rule="evenodd" clip-rule="evenodd"/></clipPath><clipPath id="clip13"><path d="M224 200 235 200 235 211 224 211Z" fill-rule="evenodd" clip-rule="evenodd"/></clipPath><clipPath id="clip14"><path d="M224 200 235 200 235 211 224 211Z" fill-rule="evenodd" clip-rule="evenodd"/></clipPath><clipPath id="clip15"><path d="M224 200 235 200 235 211 224 211Z" fill-rule="evenodd" clip-rule="evenodd"/></clipPath></defs><g clip-path="url(#clip0)"><rect x="0" y="0" width="265" height="265" fill="#313131"/><rect x="89.5" y="131.5" width="1.99999" height="1" stroke="#2F528F" stroke-width="1.33585" stroke-miterlimit="8" fill="#4472C4"/><path d="M23.5 9.75271C23.5 8.50859 24.5085 7.50003 25.7527 7.50003L249.247 7.50003C250.491 7.50003 251.5 8.50859 251.5 9.75271L251.5 249.247C251.5 250.491 250.491 251.5 249.247 251.5L25.7527 251.5C24.5085 251.5 23.5 250.491 23.5 249.247Z" stroke="#FF0000" stroke-width="0.667927" stroke-miterlimit="8" stroke-opacity="0" fill="none" fill-rule="evenodd"/><path d="M30.0794 43.5 149.921 43.5C153.002 43.5 155.5 45.998 155.5 49.0794L155.5 214.252C155.5 216.598 153.598 218.5 151.252 218.5L28.7483 218.5C26.402 218.5 24.5 216.598 24.5 214.252L24.5 49.0794C24.5 45.998 26.998 43.5 30.0794 43.5Z" stroke="#B74D41" stroke-width="4.67549" stroke-miterlimit="8" fill="#FFFFFF" fill-rule="evenodd"/><g clip-path="url(#clip1)"><g clip-path="url(#clip2)"><g clip-path="url(#clip3)"><path d="M44.5 57.5416C45.8094 57.5416 46.875 56.476 46.875 55.1666 46.875 53.8572 45.8094 52.7916 44.5 52.7916 43.1906 52.7916 42.125 53.8572 42.125 55.1666 42.125 56.476 43.1906 57.5416 44.5 57.5416ZM44.5 54.375C44.937 54.375 45.2917 54.7304 45.2917 55.1666 45.2917 55.6028 44.937 55.9583 44.5 55.9583 44.0638 55.9583 43.7084 55.6028 43.7084 55.1666 43.7084 54.7304 44.0638 54.375 44.5 54.375Z"/><path d="M52.4167 65.4583 51.625 65.4583 51.625 63.0572C51.625 62.8466 51.5419 62.6447 51.3923 62.4967 51.2442 62.3486 51.044 62.2655 50.8334 62.2655 50.8326 62.2655 50.8326 62.2655 50.8318 62.2655L48.4584 62.2703 48.4584 60.7083C48.4584 59.3989 47.3928 58.3333 46.0849 58.3333L42.9151 58.3333C41.6065 58.3333 40.5417 59.3989 40.5417 60.7083L40.5417 62.2869 38.1651 62.2916C37.7281 62.2924 37.375 62.6463 37.375 63.0833L37.375 65.4583 36.5833 65.4583C36.1463 65.4583 35.7917 65.8122 35.7917 66.25L35.7917 69.4167C35.7917 69.8545 36.1463 70.2083 36.5833 70.2083L39.75 70.2083C40.187 70.2083 40.5417 69.8545 40.5417 69.4167L40.5417 66.25C40.5417 65.8122 40.187 65.4583 39.75 65.4583L38.9583 65.4583 38.9583 63.8734 43.7084 63.8631 43.7084 65.4583 42.9167 65.4583C42.4797 65.4583 42.125 65.8122 42.125 66.25L42.125 69.4167C42.125 69.8545 42.4797 70.2083 42.9167 70.2083L46.0834 70.2083C46.5212 70.2083 46.875 69.8545 46.875 69.4167L46.875 66.25C46.875 65.8122 46.5212 65.4583 46.0834 65.4583L45.2917 65.4583 45.2917 63.8599 50.0417 63.8496 50.0417 65.4583 49.25 65.4583C48.8122 65.4583 48.4584 65.8122 48.4584 66.25L48.4584 69.4167C48.4584 69.8545 48.8122 70.2083 49.25 70.2083L52.4167 70.2083C52.8545 70.2083 53.2084 69.8545 53.2084 69.4167L53.2084 66.25C53.2084 65.8122 52.8545 65.4583 52.4167 65.4583ZM38.9583 68.625 37.375 68.625 37.375 67.0417 38.036 67.0417C38.0804 67.0496 38.1208 67.0678 38.1667 67.0678 38.2126 67.0678 38.253 67.0496 38.2973 67.0417L38.9583 67.0417 38.9583 68.625ZM45.2917 68.625 43.7084 68.625 43.7084 67.0417 45.2917 67.0417 45.2917 68.625ZM42.125 60.7083C42.125 60.2642 42.4718 59.9166 42.9151 59.9166L46.0849 59.9166C46.5283 59.9166 46.875 60.2642 46.875 60.7083L46.875 62.2734 42.125 62.2837 42.125 60.7083ZM51.625 68.625 50.0417 68.625 50.0417 67.0417 51.625 67.0417 51.625 68.625Z"/></g></g></g><path d="M26.9702 6.36947C18.5628 6.36947 11.7473 10.3112 11.7473 15.1736L11.7473 248.948C11.7473 253.81 18.5628 257.752 26.9702 257.752L238.08 257.752C246.487 257.752 253.302 253.81 253.302 248.948L253.302 15.1736C253.302 10.3112 246.487 6.36947 238.08 6.36947ZM0 0 265 0 265 265 0 265Z" fill="#B74D41" fill-rule="evenodd"/><text font-family="Calibri,Calibri_MSFontService,sans-serif" font-weight="700" font-size="11" transform="translate(77.3023 63)">POSITION<tspan font-size="9" x="-46.012" y="40">Position</tspan><tspan font-weight="400" font-size="9" x="-12.2817" y="40">is used to represent </tspan><tspan font-weight="400" font-size="9" x="-46.012" y="51">a </tspan><tspan font-size="9" x="-39.3327" y="51">unique</tspan><tspan font-weight="400" font-size="9" x="-10.1109" y="51">element (node) </tspan><tspan font-weight="400" font-size="9" x="-46.012" y="62">within an organisational </tspan><tspan font-weight="400" font-size="9" x="-46.012" y="73">structure. They are used in a </tspan><tspan font-size="9" x="-46.012" y="85">headcount</tspan><tspan font-weight="400" font-size="9" x="-4.60049" y="85">/administrative </tspan><tspan font-weight="400" font-size="9" x="-46.012" y="96">context, whereas </tspan><tspan font-size="9" x="21.9496" y="96">Role</tspan><tspan font-weight="400" font-size="9" x="-46.012" y="107">provides the functional </tspan><tspan font-weight="400" font-size="9" x="-46.012" y="118">description of the </tspan><tspan font-size="9" x="23.7864" y="118">Position</tspan><tspan font-weight="400" font-size="9" x="-46.012" y="129">holder’s job role.</tspan></text><path d="M213.5 50.6667C213.5 50.0223 214.022 49.5 214.667 49.5L247.333 49.5C247.978 49.5 248.5 50.0223 248.5 50.6667L248.5 55.3333C248.5 55.9777 247.978 56.5 247.333 56.5L214.667 56.5C214.022 56.5 213.5 55.9777 213.5 55.3333Z" stroke="#B74D41" stroke-width="1.33585" stroke-miterlimit="8" fill="#FFFFFF" fill-rule="evenodd"/><text font-family="Calibri,Calibri_MSFontService,sans-serif" font-weight="700" font-size="5" transform="translate(224.591 54)">EMPLOYEE</text><g clip-path="url(#clip4)"><g clip-path="url(#clip5)"><g clip-path="url(#clip6)"><path d="M4.12499 3.56249C3.09112 3.56249 2.24999 2.72137 2.24999 1.68749 2.24999 0.653623 3.09112-0.187499 4.12499-0.187499 5.15886-0.187499 5.99998 0.653623 5.99998 1.68749 5.99998 2.72137 5.15886 3.56249 4.12499 3.56249ZM4.12499 0.562498C3.50474 0.562498 2.99999 1.06725 2.99999 1.68749 2.99999 2.30774 3.50474 2.81249 4.12499 2.81249 4.74524 2.81249 5.24998 2.30774 5.24998 1.68749 5.24998 1.06725 4.74524 0.562498 4.12499 0.562498Z" transform="matrix(1 0 -0 1.00001 214.375 48.5625)"/><path d="M7.49998 8.43748C7.2926 8.43748 7.12498 8.26985 7.12498 8.06248L7.12498 6.37498C7.12498 5.65123 6.53698 5.06249 5.81398 5.06249L2.43599 5.06249C1.71299 5.06249 1.125 5.65123 1.125 6.37498L1.125 8.06248C1.125 8.26985 0.956997 8.43748 0.749998 8.43748 0.542998 8.43748 0.374999 8.26985 0.374999 8.06248L0.374999 6.37498C0.374999 5.23798 1.29937 4.31249 2.43599 4.31249L5.81398 4.31249C6.95023 4.31249 7.87498 5.23798 7.87498 6.37498L7.87498 8.06248C7.87498 8.26985 7.70735 8.43748 7.49998 8.43748Z" transform="matrix(1 0 -0 1.00001 214.375 48.5625)"/><path d="M5.99998 8.43748 3.74999 8.43748C3.54299 8.43748 3.37499 8.26985 3.37499 8.06248L3.37499 6.56248C3.37499 6.35511 3.54299 6.18748 3.74999 6.18748L5.99998 6.18748C6.20736 6.18748 6.37498 6.35511 6.37498 6.56248L6.37498 8.06248C6.37498 8.26985 6.20736 8.43748 5.99998 8.43748ZM4.12499 7.68748 5.62498 7.68748 5.62498 6.93748 4.12499 6.93748 4.12499 7.68748Z" transform="matrix(1 0 -0 1.00001 214.375 48.5625)"/><path d="M4.87499 6.93748C4.66761 6.93748 4.49999 6.76986 4.49999 6.56248L4.49999 5.81248C4.49999 5.60511 4.66761 5.43748 4.87499 5.43748 5.08236 5.43748 5.24998 5.60511 5.24998 5.81248L5.24998 6.56248C5.24998 6.76986 5.08236 6.93748 4.87499 6.93748Z" transform="matrix(1 0 -0 1.00001 214.375 48.5625)"/></g></g></g><path d="M215.5 101.5C215.5 100.948 215.948 100.5 216.5 100.5L247.5 100.5C248.052 100.5 248.5 100.948 248.5 101.5L248.5 105.5C248.5 106.052 248.052 106.5 247.5 106.5L216.5 106.5C215.948 106.5 215.5 106.052 215.5 105.5Z" stroke="#B74D41" stroke-width="1.33585" stroke-miterlimit="8" fill="#FFFFFF" fill-rule="evenodd"/><text font-family="Calibri,Calibri_MSFontService,sans-serif" font-weight="700" font-size="5" transform="translate(227.144 104)">POSITION</text><g clip-path="url(#clip7)"><g clip-path="url(#clip8)"><g clip-path="url(#clip9)"><path d="M4.49999 2.62499C5.12023 2.62499 5.62498 2.12024 5.62498 1.5 5.62498 0.879747 5.12023 0.374999 4.49999 0.374999 3.87974 0.374999 3.37499 0.879747 3.37499 1.5 3.37499 2.12024 3.87974 2.62499 4.49999 2.62499ZM4.49999 1.125C4.70699 1.125 4.87499 1.29337 4.87499 1.5 4.87499 1.70662 4.70699 1.87499 4.49999 1.87499 4.29336 1.87499 4.12499 1.70662 4.12499 1.5 4.12499 1.29337 4.29336 1.125 4.49999 1.125Z" transform="matrix(1.11111 0 -0 1 216 99)"/><path d="M8.24998 6.37498 7.87498 6.37498 7.87498 5.23761C7.87498 5.13786 7.8356 5.04224 7.76473 4.97211 7.6946 4.90199 7.59973 4.86261 7.49998 4.86261 7.4996 4.86261 7.4996 4.86261 7.49923 4.86261L6.37498 4.86486 6.37498 4.12499C6.37498 3.50474 5.87023 2.99999 5.25073 2.99999L3.74924 2.99999C3.12937 2.99999 2.62499 3.50474 2.62499 4.12499L2.62499 4.87274 1.49925 4.87499C1.29225 4.87536 1.125 5.04298 1.125 5.24998L1.125 6.37498 0.749998 6.37498C0.542998 6.37498 0.374999 6.54261 0.374999 6.74998L0.374999 8.24998C0.374999 8.45735 0.542998 8.62497 0.749998 8.62497L2.24999 8.62497C2.45699 8.62497 2.62499 8.45735 2.62499 8.24998L2.62499 6.74998C2.62499 6.54261 2.45699 6.37498 2.24999 6.37498L1.87499 6.37498 1.87499 5.62423 4.12499 5.61936 4.12499 6.37498 3.74999 6.37498C3.54299 6.37498 3.37499 6.54261 3.37499 6.74998L3.37499 8.24998C3.37499 8.45735 3.54299 8.62497 3.74999 8.62497L5.24998 8.62497C5.45736 8.62497 5.62498 8.45735 5.62498 8.24998L5.62498 6.74998C5.62498 6.54261 5.45736 6.37498 5.24998 6.37498L4.87499 6.37498 4.87499 5.61786 7.12498 5.61298 7.12498 6.37498 6.74998 6.37498C6.54261 6.37498 6.37498 6.54261 6.37498 6.74998L6.37498 8.24998C6.37498 8.45735 6.54261 8.62497 6.74998 8.62497L8.24998 8.62497C8.45735 8.62497 8.62497 8.45735 8.62497 8.24998L8.62497 6.74998C8.62497 6.54261 8.45735 6.37498 8.24998 6.37498ZM1.87499 7.87498 1.125 7.87498 1.125 7.12498 1.43812 7.12498C1.45912 7.12873 1.47825 7.13735 1.5 7.13735 1.52175 7.13735 1.54087 7.12873 1.56187 7.12498L1.87499 7.12498 1.87499 7.87498ZM4.87499 7.87498 4.12499 7.87498 4.12499 7.12498 4.87499 7.12498 4.87499 7.87498ZM3.37499 4.12499C3.37499 3.91461 3.53924 3.74999 3.74924 3.74999L5.25073 3.74999C5.46073 3.74999 5.62498 3.91461 5.62498 4.12499L5.62498 4.86636 3.37499 4.87124 3.37499 4.12499ZM7.87498 7.87498 7.12498 7.87498 7.12498 7.12498 7.87498 7.12498 7.87498 7.87498Z" transform="matrix(1.11111 0 -0 1 216 99)"/></g></g></g><path d="M203.5 151.667C203.5 150.47 204.47 149.5 205.667 149.5L246.333 149.5C247.53 149.5 248.5 150.47 248.5 151.667L248.5 160.333C248.5 161.53 247.53 162.5 246.333 162.5L205.667 162.5C204.47 162.5 203.5 161.53 203.5 160.333Z" stroke="#CEB023" stroke-width="1.33585" stroke-miterlimit="8" fill="#FFFFFF" fill-rule="evenodd"/><text font-family="Calibri,Calibri_MSFontService,sans-serif" font-weight="700" font-size="5" transform="translate(214.935 154)">ORGANISATION<tspan x="0" y="6">UNIT</tspan></text><g clip-path="url(#clip10)"><g clip-path="url(#clip11)"><g clip-path="url(#clip12)"><path d="M2.99999 8.24998 0.749998 8.24998C0.542998 8.24998 0.374999 8.08235 0.374999 7.87498L0.374999 6.37498C0.374999 6.16761 0.542998 5.99998 0.749998 5.99998L2.99999 5.99998C3.20699 5.99998 3.37499 6.16761 3.37499 6.37498L3.37499 7.87498C3.37499 8.08235 3.20699 8.24998 2.99999 8.24998ZM1.125 7.49998 2.62499 7.49998 2.62499 6.74998 1.125 6.74998 1.125 7.49998Z" transform="matrix(1 0 -0 1.11112 204.375 151.417)"/><path d="M5.24998 2.62499 2.99999 2.62499C2.79299 2.62499 2.62499 2.45699 2.62499 2.24999L2.62499 0.749998C2.62499 0.542998 2.79299 0.374999 2.99999 0.374999L5.24998 0.374999C5.45736 0.374999 5.62498 0.542998 5.62498 0.749998L5.62498 2.24999C5.62498 2.45699 5.45736 2.62499 5.24998 2.62499ZM3.37499 1.87499 4.87499 1.87499 4.87499 1.125 3.37499 1.125 3.37499 1.87499Z" transform="matrix(1 0 -0 1.11112 204.375 151.417)"/><path d="M7.49998 5.99998 5.24998 5.99998C5.04261 5.99998 4.87499 6.16761 4.87499 6.37498L4.87499 7.87498C4.87499 8.08235 5.04261 8.24998 5.24998 8.24998L7.49998 8.24998C7.70735 8.24998 7.87498 8.08235 7.87498 7.87498L7.87498 6.37498C7.87498 6.16761 7.70735 5.99998 7.49998 5.99998Z" transform="matrix(1 0 -0 1.11112 204.375 151.417)"/><path d="M5.99998 5.24998C5.79261 5.24998 5.62498 5.08236 5.62498 4.87499L5.62498 4.31249C5.62498 4.20749 5.54286 4.12499 5.43861 4.12499L2.81137 4.12499C2.70862 4.12499 2.62499 4.20899 2.62499 4.31249L2.62499 4.87499C2.62499 5.08236 2.45699 5.24998 2.24999 5.24998 2.04299 5.24998 1.87499 5.08236 1.87499 4.87499L1.87499 4.31249C1.87499 3.79574 2.29499 3.37499 2.81137 3.37499L5.43861 3.37499C5.95498 3.37499 6.37498 3.79574 6.37498 4.31249L6.37498 4.87499C6.37498 5.08236 6.20736 5.24998 5.99998 5.24998Z" transform="matrix(1 0 -0 1.11112 204.375 151.417)"/></g></g></g><path d="M224.5 202.667C224.5 202.022 225.022 201.5 225.667 201.5L247.333 201.5C247.978 201.5 248.5 202.022 248.5 202.667L248.5 207.333C248.5 207.978 247.978 208.5 247.333 208.5L225.667 208.5C225.022 208.5 224.5 207.978 224.5 207.333Z" stroke="#CEB023" stroke-width="1.33585" stroke-miterlimit="8" fill="#FFFFFF" fill-rule="evenodd"/><text font-family="Calibri,Calibri_MSFontService,sans-serif" font-weight="700" font-size="5" transform="translate(235.598 206)">ROLE</text><g clip-path="url(#clip13)"><g clip-path="url(#clip14)"><g clip-path="url(#clip15)"><path d="M4.50004 3.75003C3.87978 3.75003 3.37503 4.25479 3.37503 4.87504 3.37503 5.4953 3.87978 6.00005 4.50004 6.00005 5.1203 6.00005 5.62505 5.4953 5.62505 4.87504 5.62505 4.25479 5.1203 3.75003 4.50004 3.75003ZM4.50004 5.25005C4.29304 5.25005 4.12504 5.08204 4.12504 4.87504 4.12504 4.66842 4.29304 4.50004 4.50004 4.50004 4.70704 4.50004 4.87504 4.66842 4.87504 4.87504 4.87504 5.08204 4.70704 5.25005 4.50004 5.25005Z" transform="matrix(1 0 -0 1.1111 225 200)"/><path d="M7.87507 1.87502 5.62505 1.87502 5.62505 1.12501C5.62505 0.918008 5.45742 0.750007 5.25005 0.750007L3.75003 0.750007C3.54303 0.750007 3.37503 0.918008 3.37503 1.12501L3.37503 1.87502 1.12501 1.87502C0.918008 1.87502 0.750007 2.04302 0.750007 2.25002L0.750007 8.25007C0.750007 8.45745 0.918008 8.62508 1.12501 8.62508L7.87507 8.62508C8.08245 8.62508 8.25007 8.45745 8.25007 8.25007L8.25007 2.25002C8.25007 2.04302 8.08245 1.87502 7.87507 1.87502ZM4.12504 1.50001 4.87504 1.50001 4.87504 2.62502 4.12504 2.62502 4.12504 1.50001ZM5.62505 7.87507 3.37503 7.87507 3.37503 7.50007C3.37503 7.28969 3.53928 7.12506 3.74928 7.12506L5.2508 7.12506C5.4608 7.12506 5.62505 7.28969 5.62505 7.50007L5.62505 7.87507ZM7.50007 7.87507 6.37506 7.87507 6.37506 7.50007C6.37506 6.87981 5.8703 6.37506 5.2508 6.37506L3.74928 6.37506C3.1294 6.37506 2.62502 6.87981 2.62502 7.50007L2.62502 7.87507 1.50001 7.87507 1.50001 2.62502 3.37503 2.62502 3.37503 3.00003C3.37503 3.20703 3.54303 3.37503 3.75003 3.37503L5.25005 3.37503C5.45742 3.37503 5.62505 3.20703 5.62505 3.00003L5.62505 2.62502 7.50007 2.62502 7.50007 7.87507Z" transform="matrix(1 0 -0 1.1111 225 200)"/></g></g></g><path d="M166.17 100 204.83 100C209.894 100 214 102.91 214 106.5 214 110.09 209.894 113 204.83 113L166.17 113C161.106 113 157 110.09 157 106.5 157 102.91 161.106 100 166.17 100Z" fill="#313131" fill-rule="evenodd"/><text fill="#FFFFFF" font-family="Calibri,Calibri_MSFontService,sans-serif" font-weight="700" font-size="5" transform="translate(170.745 109)">|Has report &gt;</text><path d="M165.848 49 203.152 49C208.038 49 212 52.134 212 56 212 59.866 208.038 63 203.152 63L165.848 63C160.962 63 157 59.866 157 56 157 52.134 160.962 49 165.848 49Z" fill="#313131" fill-rule="evenodd"/><text fill="#FFFFFF" font-family="Calibri,Calibri_MSFontService,sans-serif" font-weight="700" font-size="5" transform="translate(173.835 58)">|Held By&gt;</text><path d="M167.618 201 212.382 201C218.246 201 223 204.134 223 208 223 211.866 218.246 215 212.382 215L167.618 215C161.754 215 157 211.866 157 208 157 204.134 161.754 201 167.618 201Z" fill="#313131" fill-rule="evenodd"/><text fill="#FFFFFF" font-family="Calibri,Calibri_MSFontService,sans-serif" font-weight="700" font-size="5" transform="translate(177.675 210)">&lt;Occupies|</text><path d="M164.24 149 194.76 149C198.759 149 202 152.134 202 156 202 159.866 198.759 163 194.76 163L164.24 163C160.241 163 157 159.866 157 156 157 152.134 160.241 149 164.24 149Z" fill="#313131" fill-rule="evenodd"/><text fill="#FFFFFF" font-family="Calibri,Calibri_MSFontService,sans-serif" font-weight="700" font-size="5" transform="translate(165.652 158)">|Owned by&gt;</text></g></svg>