<svg width="189" height="189" xmlns="http://www.w3.org/2000/svg" xmlns:xlink="http://www.w3.org/1999/xlink" overflow="hidden"><defs><clipPath id="clip0"><path d="M0 0 189 0 189 189 0 189Z" fill-rule="evenodd" clip-rule="evenodd"/></clipPath><clipPath id="clip1"><path d="M3 3 47 3 47 48 3 48Z" fill-rule="evenodd" clip-rule="evenodd"/></clipPath><clipPath id="clip2"><path d="M3 3 47 3 47 48 3 48Z" fill-rule="evenodd" clip-rule="evenodd"/></clipPath><clipPath id="clip3"><path d="M3 3 47 3 47 48 3 48Z" fill-rule="evenodd" clip-rule="evenodd"/></clipPath></defs><g clip-path="url(#clip0)"><rect x="0" y="0" width="189" height="189" fill="#313131"/><text fill="#FFFFFF" font-family="Calibri,Calibri_MSFontService,sans-serif" font-weight="300" font-size="11" transform="translate(9.60032 -5)">OFFERING</text><rect x="3.50005" y="3.50005" width="1" height="1" stroke="#2F528F" stroke-width="1.33333" stroke-miterlimit="8" fill="#4472C4"/><rect x="0" y="0" width="189" height="189" stroke="#911EB4" stroke-width="8" stroke-miterlimit="8" fill="#FFFFFF"/><g clip-path="url(#clip1)"><g clip-path="url(#clip2)"><g clip-path="url(#clip3)"><path d="M38.5 18.3333 5.5 18.3333C4.488 18.3333 3.66667 19.1547 3.66667 20.1667L3.66667 27.5C3.66667 28.5138 4.488 29.3333 5.5 29.3333L7.33333 29.3333 7.33333 40.3333C7.33333 41.3472 8.15467 42.1667 9.16667 42.1667L34.8333 42.1667C35.8472 42.1667 36.6667 41.3472 36.6667 40.3333L36.6667 29.3333 38.5 29.3333C39.5138 29.3333 40.3333 28.5138 40.3333 27.5L40.3333 20.1667C40.3333 19.1565 39.5138 18.3333 38.5 18.3333ZM33 38.5 11 38.5 11 29.3333 33 29.3333 33 38.5ZM36.6667 25.6667 34.8333 25.6667 9.16667 25.6667 7.33333 25.6667 7.33333 22 36.6667 22 36.6667 25.6667Z" transform="matrix(1 0 -0 1.02273 3 3)"/><path d="M8.6295 10.4647 11 8.09417 11 12.8333C11 13.8453 11.8213 14.6667 12.8333 14.6667 13.8453 14.6667 14.6667 13.8453 14.6667 12.8333L14.6667 8.09417 17.0372 10.4647C17.3947 10.8203 17.864 11 18.3333 11 18.8027 11 19.272 10.8203 19.6295 10.4628 20.3463 9.746 20.3463 8.58733 19.6295 7.8705L14.1295 2.3705C13.4127 1.65367 12.254 1.65367 11.5372 2.3705L6.03717 7.8705C5.32033 8.58733 5.32033 9.746 6.03717 10.4628 6.754 11.1797 7.91267 11.1815 8.6295 10.4647Z" transform="matrix(1 0 -0 1.02273 3 3)"/><path d="M26.9628 10.4647 29.3333 8.09417 29.3333 12.8333C29.3333 13.8453 30.1528 14.6667 31.1667 14.6667 32.1805 14.6667 33 13.8453 33 12.8333L33 8.09417 35.3705 10.4647C35.728 10.8203 36.1973 11 36.6667 11 37.136 11 37.6053 10.8203 37.9628 10.4628 38.6797 9.746 38.6797 8.58733 37.9628 7.8705L32.4628 2.3705C31.746 1.65367 30.5873 1.65367 29.8705 2.3705L24.3705 7.8705C23.6537 8.58733 23.6537 9.746 24.3705 10.4628 25.0873 11.1797 26.246 11.1815 26.9628 10.4647Z" transform="matrix(1 0 -0 1.02273 3 3)"/></g></g></g><text font-family="Calibri,Calibri_MSFontService,sans-serif" font-weight="700" font-size="20" transform="translate(74.6281 23)">OFFERING<tspan font-weight="400" font-size="12" x="-68.0891" y="50">A packaged combination of </tspan><tspan font-size="12" x="-68.0891" y="65">Product(s)</tspan><tspan font-weight="400" font-size="12" x="-16.5891" y="65">, terms and marketing </tspan><tspan font-weight="400" font-size="12" x="-68.0891" y="79">elements, targeting a market </tspan><tspan font-size="12" x="-68.0891" y="93">segment</tspan><tspan font-weight="400" font-size="12" x="-25.0891" y="93">. An </tspan><tspan font-size="12" x="-3.42246" y="93">Offering</tspan><tspan font-weight="400" font-size="12" x="40.5775" y="93">is designed </tspan><tspan font-weight="400" font-size="12" x="-68.0891" y="108">to meet needs of a </tspan><tspan font-size="12" x="26.2442" y="108">Segment</tspan><tspan font-weight="400" font-size="12" x="70.0775" y="108">, and in </tspan><tspan font-weight="400" font-size="12" x="-68.0891" y="122">doing so, provides benefits to </tspan><tspan font-weight="400" font-size="12" x="-68.0891" y="137">customers and supports a </tspan><tspan font-size="12" x="60.2442" y="137">Value </tspan><tspan font-size="12" x="-68.0891" y="151">proposition</tspan><tspan font-weight="400" font-size="12" x="-7.08913" y="151">of the offering entity.</tspan></text></g></svg>