<svg width="265" height="265" xmlns="http://www.w3.org/2000/svg" xmlns:xlink="http://www.w3.org/1999/xlink" overflow="hidden"><defs><clipPath id="clip0"><path d="M0 0 265 0 265 265 0 265Z" fill-rule="evenodd" clip-rule="evenodd"/></clipPath><clipPath id="clip1"><path d="M35 51 55 51 55 71 35 71Z" fill-rule="evenodd" clip-rule="evenodd"/></clipPath><clipPath id="clip2"><path d="M35 51 55 51 55 71 35 71Z" fill-rule="evenodd" clip-rule="evenodd"/></clipPath><clipPath id="clip3"><path d="M35 51 55 51 55 71 35 71Z" fill-rule="evenodd" clip-rule="evenodd"/></clipPath><clipPath id="clip4"><path d="M224 29 235 29 235 38 224 38Z" fill-rule="evenodd" clip-rule="evenodd"/></clipPath><clipPath id="clip5"><path d="M224 29 235 29 235 38 224 38Z" fill-rule="evenodd" clip-rule="evenodd"/></clipPath><clipPath id="clip6"><path d="M224 29 235 29 235 38 224 38Z" fill-rule="evenodd" clip-rule="evenodd"/></clipPath><clipPath id="clip7"><path d="M224 61 235 61 235 71 224 71Z" fill-rule="evenodd" clip-rule="evenodd"/></clipPath><clipPath id="clip8"><path d="M224 61 235 61 235 71 224 71Z" fill-rule="evenodd" clip-rule="evenodd"/></clipPath><clipPath id="clip9"><path d="M224 61 235 61 235 71 224 71Z" fill-rule="evenodd" clip-rule="evenodd"/></clipPath><clipPath id="clip10"><path d="M204 92 213 92 213 103 204 103Z" fill-rule="evenodd" clip-rule="evenodd"/></clipPath><clipPath id="clip11"><path d="M204 92 213 92 213 103 204 103Z" fill-rule="evenodd" clip-rule="evenodd"/></clipPath><clipPath id="clip12"><path d="M204 92 213 92 213 103 204 103Z" fill-rule="evenodd" clip-rule="evenodd"/></clipPath><clipPath id="clip13"><path d="M217 126 227 126 227 136 217 136Z" fill-rule="evenodd" clip-rule="evenodd"/></clipPath><clipPath id="clip14"><path d="M217 126 227 126 227 136 217 136Z" fill-rule="evenodd" clip-rule="evenodd"/></clipPath><clipPath id="clip15"><path d="M217 126 227 126 227 136 217 136Z" fill-rule="evenodd" clip-rule="evenodd"/></clipPath><clipPath id="clip16"><path d="M213 155 224 155 224 166 213 166Z" fill-rule="evenodd" clip-rule="evenodd"/></clipPath><clipPath id="clip17"><path d="M213 155 224 155 224 166 213 166Z" fill-rule="evenodd" clip-rule="evenodd"/></clipPath><clipPath id="clip18"><path d="M213 155 224 155 224 166 213 166Z" fill-rule="evenodd" clip-rule="evenodd"/></clipPath><clipPath id="clip19"><path d="M220 186 231 186 231 198 220 198Z" fill-rule="evenodd" clip-rule="evenodd"/></clipPath><clipPath id="clip20"><path d="M220 186 231 186 231 198 220 198Z" fill-rule="evenodd" clip-rule="evenodd"/></clipPath><clipPath id="clip21"><path d="M220 186 231 186 231 198 220 198Z" fill-rule="evenodd" clip-rule="evenodd"/></clipPath><clipPath id="clip22"><path d="M214 218 224 218 224 229 214 229Z" fill-rule="evenodd" clip-rule="evenodd"/></clipPath><clipPath id="clip23"><path d="M214 218 224 218 224 229 214 229Z" fill-rule="evenodd" clip-rule="evenodd"/></clipPath><clipPath id="clip24"><path d="M214 218 224 218 224 229 214 229Z" fill-rule="evenodd" clip-rule="evenodd"/></clipPath></defs><g clip-path="url(#clip0)"><rect x="0" y="0" width="265" height="265" fill="#313131"/><rect x="89.5" y="131.5" width="1.99999" height="1" stroke="#2F528F" stroke-width="1.33585" stroke-miterlimit="8" fill="#4472C4"/><path d="M23.5 9.75271C23.5 8.50859 24.5085 7.50003 25.7527 7.50003L249.247 7.50003C250.491 7.50003 251.5 8.50859 251.5 9.75271L251.5 249.247C251.5 250.491 250.491 251.5 249.247 251.5L25.7527 251.5C24.5085 251.5 23.5 250.491 23.5 249.247Z" stroke="#FF0000" stroke-width="0.667927" stroke-miterlimit="8" stroke-opacity="0" fill="none" fill-rule="evenodd"/><path d="M30.0794 43.5 149.921 43.5C153.002 43.5 155.5 45.998 155.5 49.0794L155.5 214.252C155.5 216.598 153.598 218.5 151.252 218.5L28.7483 218.5C26.402 218.5 24.5 216.598 24.5 214.252L24.5 49.0794C24.5 45.998 26.998 43.5 30.0794 43.5Z" stroke="#D2F53C" stroke-width="4.67549" stroke-miterlimit="8" fill="#FFFFFF" fill-rule="evenodd"/><g clip-path="url(#clip1)"><g clip-path="url(#clip2)"><g clip-path="url(#clip3)"><path d="M44.5 54.7708C40.1348 54.7708 36.5833 58.3222 36.5833 62.6875 36.5833 63.1253 36.938 63.4791 37.375 63.4791 37.812 63.4791 38.1667 63.1253 38.1667 62.6875 38.1667 59.1954 41.008 56.3541 44.5 56.3541 47.9921 56.3541 50.8334 59.1954 50.8334 62.6875 50.8334 63.1253 51.1872 63.4791 51.625 63.4791 52.0628 63.4791 52.4167 63.1253 52.4167 62.6875 52.4167 58.3222 48.8653 54.7708 44.5 54.7708Z"/><path d="M47.8345 59.8834 44.9291 63.5227C44.789 63.4958 44.6473 63.4791 44.5 63.4791 43.1906 63.4791 42.125 64.5447 42.125 65.8542 42.125 67.1636 43.1906 68.2292 44.5 68.2292 45.8094 68.2292 46.875 67.1636 46.875 65.8542 46.875 65.2731 46.6573 64.7458 46.3082 64.3326L49.0703 60.8714C49.3442 60.5294 49.2872 60.0314 48.9468 59.7591 48.6056 59.4852 48.1077 59.543 47.8345 59.8834ZM44.5 66.6458C44.063 66.6458 43.7084 66.2912 43.7084 65.8542 43.7084 65.4172 44.063 65.0625 44.5 65.0625 44.937 65.0625 45.2917 65.4172 45.2917 65.8542 45.2917 66.2912 44.937 66.6458 44.5 66.6458Z"/></g></g></g><path d="M26.9702 6.36947C18.5628 6.36947 11.7473 10.3112 11.7473 15.1736L11.7473 248.948C11.7473 253.81 18.5628 257.752 26.9702 257.752L238.08 257.752C246.487 257.752 253.302 253.81 253.302 248.948L253.302 15.1736C253.302 10.3112 246.487 6.36947 238.08 6.36947ZM0 0 265 0 265 265 0 265Z" fill="#D2F53C" fill-rule="evenodd"/><text font-family="Calibri,Calibri_MSFontService,sans-serif" font-weight="700" font-size="11" transform="translate(81.6438 63)">METRIC<tspan font-size="9" x="-50.3535" y="62">Metrics</tspan><tspan font-weight="400" font-size="9" x="-18.9609" y="62">can be defined to </tspan><tspan font-weight="400" font-size="9" x="-50.3535" y="73">track the realisation of </tspan><tspan font-size="9" x="-50.3535" y="84">Objectives</tspan><tspan font-weight="400" font-size="9" x="-9.9439" y="84">, or the </tspan><tspan font-weight="400" font-size="9" x="-50.3535" y="95">performance of </tspan><tspan font-size="9" x="11.4298" y="95">Value </tspan><tspan font-size="9" x="-50.3535" y="107">stream</tspan><tspan font-weight="400" font-size="9" x="-23.1355" y="107">.</tspan></text><path d="M224.5 31.6667C224.5 31.0223 225.022 30.5 225.667 30.5L247.333 30.5C247.978 30.5 248.5 31.0223 248.5 31.6667L248.5 36.3332C248.5 36.9776 247.978 37.4999 247.333 37.4999L225.667 37.4999C225.022 37.4999 224.5 36.9776 224.5 36.3332Z" stroke="#CEB023" stroke-width="1.33585" stroke-miterlimit="8" fill="#FFFFFF" fill-rule="evenodd"/><text font-family="Calibri,Calibri_MSFontService,sans-serif" font-weight="700" font-size="5" transform="translate(235.598 35)">ROLE</text><g clip-path="url(#clip4)"><g clip-path="url(#clip5)"><g clip-path="url(#clip6)"><path d="M4.49999 3.74999C3.87974 3.74999 3.37499 4.25474 3.37499 4.87499 3.37499 5.49523 3.87974 5.99998 4.49999 5.99998 5.12023 5.99998 5.62498 5.49523 5.62498 4.87499 5.62498 4.25474 5.12023 3.74999 4.49999 3.74999ZM4.49999 5.24998C4.29299 5.24998 4.12499 5.08198 4.12499 4.87499 4.12499 4.66836 4.29299 4.49999 4.49999 4.49999 4.70699 4.49999 4.87499 4.66836 4.87499 4.87499 4.87499 5.08198 4.70699 5.24998 4.49999 5.24998Z" transform="matrix(1.00001 0 -0 1 225 29)"/><path d="M7.87498 1.87499 5.62498 1.87499 5.62498 1.125C5.62498 0.917997 5.45736 0.749998 5.24998 0.749998L3.74999 0.749998C3.54299 0.749998 3.37499 0.917997 3.37499 1.125L3.37499 1.87499 1.125 1.87499C0.917997 1.87499 0.749998 2.04299 0.749998 2.24999L0.749998 8.24998C0.749998 8.45735 0.917997 8.62497 1.125 8.62497L7.87498 8.62497C8.08235 8.62497 8.24998 8.45735 8.24998 8.24998L8.24998 2.24999C8.24998 2.04299 8.08235 1.87499 7.87498 1.87499ZM4.12499 1.5 4.87499 1.5 4.87499 2.62499 4.12499 2.62499 4.12499 1.5ZM5.62498 7.87498 3.37499 7.87498 3.37499 7.49998C3.37499 7.2896 3.53924 7.12498 3.74924 7.12498L5.25073 7.12498C5.46073 7.12498 5.62498 7.2896 5.62498 7.49998L5.62498 7.87498ZM7.49998 7.87498 6.37498 7.87498 6.37498 7.49998C6.37498 6.87973 5.87023 6.37498 5.25073 6.37498L3.74924 6.37498C3.12937 6.37498 2.62499 6.87973 2.62499 7.49998L2.62499 7.87498 1.5 7.87498 1.5 2.62499 3.37499 2.62499 3.37499 2.99999C3.37499 3.20699 3.54299 3.37499 3.74999 3.37499L5.24998 3.37499C5.45736 3.37499 5.62498 3.20699 5.62498 2.99999L5.62498 2.62499 7.49998 2.62499 7.49998 7.87498Z" transform="matrix(1.00001 0 -0 1 225 29)"/></g></g></g><path d="M224.5 63.5C224.5 62.9477 224.948 62.5 225.5 62.5L247.5 62.5C248.052 62.5 248.5 62.9477 248.5 63.5L248.5 67.4999C248.5 68.0522 248.052 68.5 247.5 68.5L225.5 68.5C224.948 68.5 224.5 68.0522 224.5 67.4999Z" stroke="#CEB023" stroke-width="1.33585" stroke-miterlimit="8" fill="#FFFFFF" fill-rule="evenodd"/><text font-family="Calibri,Calibri_MSFontService,sans-serif" font-weight="700" font-size="5" transform="translate(235.598 66)">USER</text><g clip-path="url(#clip7)"><g clip-path="url(#clip8)"><g clip-path="url(#clip9)"><path d="M2.99999 3.74999C1.94999 3.74999 1.125 2.92499 1.125 1.87499 1.125 0.824998 1.94999 0 2.99999 0 4.04999 0 4.87499 0.824998 4.87499 1.87499 4.87499 2.92499 4.04999 3.74999 2.99999 3.74999ZM2.99999 0.749998C2.36249 0.749998 1.87499 1.2375 1.87499 1.87499 1.87499 2.51249 2.36249 2.99999 2.99999 2.99999 3.63749 2.99999 4.12499 2.51249 4.12499 1.87499 4.12499 1.2375 3.63749 0.749998 2.99999 0.749998Z" transform="matrix(1.00001 0 -0 1 226.5 61.375)"/><path d="M6.74998 8.24998C6.52498 8.24998 6.37498 8.09998 6.37498 7.87498L6.37498 6.37498C6.37498 5.73748 5.88748 5.24998 5.24998 5.24998L2.99999 5.24998C2.36249 5.24998 1.87499 5.73748 1.87499 6.37498L1.87499 7.87498C1.87499 8.09998 1.72499 8.24998 1.5 8.24998 1.275 8.24998 1.125 8.09998 1.125 7.87498L1.125 6.37498C1.125 5.32498 1.94999 4.49999 2.99999 4.49999L5.24998 4.49999C6.29998 4.49999 7.12498 5.32498 7.12498 6.37498L7.12498 7.87498C7.12498 8.09998 6.97498 8.24998 6.74998 8.24998Z" transform="matrix(1.00001 0 -0 1 225.375 61.375)"/></g></g></g><path d="M203.5 95.5C203.5 94.9477 203.948 94.5 204.5 94.5L247.5 94.5C248.052 94.5 248.5 94.9477 248.5 95.5L248.5 99.5C248.5 100.052 248.052 100.5 247.5 100.5L204.5 100.5C203.948 100.5 203.5 100.052 203.5 99.5Z" stroke="#918396" stroke-width="1.33585" stroke-miterlimit="8" fill="#FFFFFF" fill-rule="evenodd"/><text font-family="Calibri,Calibri_MSFontService,sans-serif" font-weight="700" font-size="5" transform="translate(214.546 98)">MEASUREMENT</text><g clip-path="url(#clip10)"><g clip-path="url(#clip11)"><g clip-path="url(#clip12)"><path d="M6.03936 6.74998 2.94562 6.74998C2.5573 6.74998 2.24249 7.06478 2.24249 7.4531 2.24249 7.84142 2.5573 8.15623 2.94562 8.15623L6.03936 8.15623C6.42768 8.15623 6.74248 7.84142 6.74248 7.4531 6.74248 7.06478 6.42768 6.74998 6.03936 6.74998ZM3.13312 7.73435C2.97778 7.73435 2.85187 7.60844 2.85187 7.4531 2.85187 7.29777 2.97778 7.17185 3.13312 7.17185 3.28845 7.17185 3.41436 7.29777 3.41436 7.4531 3.41436 7.60844 3.28845 7.73435 3.13312 7.73435ZM4.49249 7.73435C4.33715 7.73435 4.21124 7.60844 4.21124 7.4531 4.21124 7.29777 4.33715 7.17185 4.49249 7.17185 4.64782 7.17185 4.77374 7.29777 4.77374 7.4531 4.77374 7.60844 4.64782 7.73435 4.49249 7.73435ZM5.85186 7.73435C5.69652 7.73435 5.57061 7.60844 5.57061 7.4531 5.57061 7.29777 5.69652 7.17185 5.85186 7.17185 6.00719 7.17185 6.13311 7.29777 6.13311 7.4531 6.13311 7.60844 6.00719 7.73435 5.85186 7.73435Z" transform="matrix(1 0 -0 1.11111 204 92)"/><path d="M5.1403 2.62499C5.1403 2.70266 5.07734 2.76562 4.99967 2.76562 4.92201 2.76562 4.85905 2.70266 4.85905 2.62499 4.85905 2.54733 4.92201 2.48437 4.99967 2.48437 5.07734 2.48437 5.1403 2.54733 5.1403 2.62499Z" transform="matrix(1 0 -0 1.11111 204 92)"/><path d="M5.30717 1.68749 4.68749 1.68749 4.68749 1.26093C4.86685 1.15738 4.9283 0.928035 4.82475 0.748676 4.72119 0.569317 4.49185 0.507864 4.31249 0.611417 4.13313 0.71497 4.07167 0.944313 4.17523 1.12367 4.20814 1.18068 4.25548 1.22802 4.31249 1.26093L4.31249 1.68749 3.6928 1.68749C3.46572 1.68801 3.28176 1.87198 3.28124 2.09906L3.28124 3.15093C3.28176 3.37801 3.46572 3.56197 3.6928 3.56249L5.30717 3.56249C5.53425 3.56197 5.71822 3.37801 5.71873 3.15093L5.71873 2.09906C5.71822 1.87198 5.53425 1.68801 5.30717 1.68749ZM4.03124 2.90624C3.8759 2.90624 3.74999 2.78033 3.74999 2.62499 3.74999 2.46966 3.8759 2.34374 4.03124 2.34374 4.18657 2.34374 4.31249 2.46966 4.31249 2.62499 4.31249 2.78033 4.18657 2.90624 4.03124 2.90624ZM4.96874 2.90624C4.8134 2.90624 4.68749 2.78033 4.68749 2.62499 4.68749 2.46966 4.8134 2.34374 4.96874 2.34374 5.12407 2.34374 5.24998 2.46966 5.24998 2.62499 5.24998 2.78033 5.12407 2.90624 4.96874 2.90624Z" transform="matrix(1 0 -0 1.11111 204 92)"/><path d="M4.2028 2.62499C4.2028 2.70266 4.13984 2.76562 4.06218 2.76562 3.98451 2.76562 3.92155 2.70266 3.92155 2.62499 3.92155 2.54733 3.98451 2.48437 4.06218 2.48437 4.13984 2.48437 4.2028 2.54733 4.2028 2.62499Z" transform="matrix(1 0 -0 1.11111 204 92)"/><path d="M6.93748 5.51436 6.93748 4.73342C6.93748 4.50094 6.74902 4.31249 6.51654 4.31249L5.99998 4.31249 5.99998 3.84374 2.99999 3.84374 2.99999 4.40624 2.29593 4.40624C2.27056 4.40624 2.24999 4.38567 2.24999 4.3603L2.24999 3.58311C2.57227 3.48794 2.75636 3.14953 2.66119 2.82727 2.63567 2.74087 2.59129 2.66122 2.53124 2.59405L2.24999 2.84343C2.28933 2.88621 2.31167 2.94188 2.31281 2.99999 2.3121 3.12943 2.2066 3.23379 2.07716 3.23309 1.94772 3.23238 1.84336 3.12688 1.84407 2.99744 1.84437 2.94153 1.86464 2.88758 1.90124 2.8453L1.62 2.59874C1.39904 2.8526 1.42571 3.23751 1.67956 3.45846 1.73699 3.50845 1.80328 3.54724 1.87499 3.5728L1.87499 4.3603C1.87499 4.59278 2.06345 4.78124 2.29593 4.78124L2.99999 4.78124 2.99999 6.46873 5.99998 6.46873 5.99998 4.68749 6.51654 4.68749C6.54191 4.68749 6.56248 4.70805 6.56248 4.73342L6.56248 5.51436C6.24227 5.61794 6.06667 5.9615 6.17025 6.28171 6.19618 6.36185 6.23844 6.43574 6.29436 6.49873L6.57561 6.24936C6.53681 6.20683 6.5154 6.15129 6.51561 6.09373 6.51572 5.96429 6.62074 5.85944 6.75018 5.85955 6.87962 5.85967 6.98447 5.96469 6.98435 6.09413 6.98431 6.1509 6.96365 6.20573 6.92623 6.24842L7.20748 6.49498C7.4293 6.24257 7.4045 5.85813 7.15209 5.63631 7.08964 5.58142 7.0166 5.53992 6.93748 5.51436ZM5.62498 5.15623 5.36436 5.15623C5.35529 5.15786 5.34667 5.16137 5.33905 5.16655L5.05217 5.45998 4.83374 4.94249 4.42592 5.78623 4.13999 4.68749 3.91968 5.15623 3.46874 5.15623 3.46874 4.96874 3.80061 4.96874 4.19061 4.13905 4.47936 5.24342 4.84592 4.49342 5.11592 5.1328 5.20967 5.03905C5.25084 4.99739 5.30591 4.97235 5.36436 4.96874L5.62498 4.96874Z" transform="matrix(1 0 -0 1.11111 204 92)"/></g></g></g><path d="M217.5 126.667C217.5 125.47 218.47 124.5 219.667 124.5L246.333 124.5C247.53 124.5 248.5 125.47 248.5 126.667L248.5 135.333C248.5 136.53 247.53 137.5 246.333 137.5L219.667 137.5C218.47 137.5 217.5 136.53 217.5 135.333Z" stroke="#F032E6" stroke-width="1.33585" stroke-miterlimit="8" fill="#FFFFFF" fill-rule="evenodd"/><text font-family="Calibri,Calibri_MSFontService,sans-serif" font-weight="700" font-size="5" transform="translate(228.966 129)">VALUE<tspan x="0" y="6">STREAM</tspan></text><g clip-path="url(#clip13)"><g clip-path="url(#clip14)"><g clip-path="url(#clip15)"><path d="M225.132 134.625 219.125 134.625C218.981 134.625 218.85 134.542 218.787 134.412 218.725 134.282 218.742 134.128 218.832 134.016L219.394 133.312 218.832 132.609C218.742 132.496 218.724 132.342 218.787 132.212 218.85 132.082 218.981 132 219.125 132L225.132 132C225.247 132 225.355 132.053 225.425 132.142L226.169 133.079C226.277 133.215 226.277 133.409 226.169 133.545L225.425 134.483C225.354 134.572 225.246 134.625 225.132 134.625ZM219.905 133.875 224.951 133.875 225.397 133.312 224.951 132.75 219.905 132.75 220.167 133.078C220.277 133.215 220.277 133.409 220.167 133.546L219.905 133.875Z"/><path d="M222.5 131.25 222.5 131.25C222.4 131.25 222.305 131.211 222.235 131.14L220.36 129.263C220.214 129.116 220.214 128.879 220.36 128.732L222.235 126.855C222.375 126.715 222.624 126.714 222.765 126.855L224.64 128.732C224.711 128.803 224.75 128.898 224.75 128.997 224.75 129.097 224.711 129.193 224.64 129.263L222.765 131.14C222.695 131.211 222.6 131.25 222.5 131.25ZM221.156 128.997 222.5 130.343 223.845 128.997 222.5 127.652 221.156 128.997Z"/></g></g></g><path d="M213.5 158.5C213.5 157.948 213.948 157.5 214.5 157.5L247.5 157.5C248.052 157.5 248.5 157.948 248.5 158.5L248.5 162.5C248.5 163.052 248.052 163.5 247.5 163.5L214.5 163.5C213.948 163.5 213.5 163.052 213.5 162.5Z" stroke="#000080" stroke-width="1.33585" stroke-miterlimit="8" fill="#FFFFFF" fill-rule="evenodd"/><text font-family="Calibri,Calibri_MSFontService,sans-serif" font-weight="700" font-size="5" transform="translate(224.931 161)">OBJECTIVE</text><g clip-path="url(#clip16)"><g clip-path="url(#clip17)"><g clip-path="url(#clip18)"><path d="M8.5152 0.484879C8.36857 0.338253 8.13157 0.338253 7.98494 0.484879L6.87156 1.59826C6.22505 1.06913 5.39855 0.750007 4.50004 0.750007 2.43227 0.750007 0.750007 2.43227 0.750007 4.50004 0.750007 5.78105 1.39651 6.91356 2.37977 7.59007L1.98489 7.98494C1.83827 8.13157 1.83827 8.36857 1.98489 8.5152 2.05802 8.58833 2.15402 8.62508 2.25002 8.62508 2.34602 8.62508 2.44202 8.58833 2.51515 8.5152L3.0664 7.96357C3.50816 8.1477 3.99228 8.25007 4.50004 8.25007 5.10754 8.25007 5.6798 8.10157 6.18868 7.84432L6.85993 8.5152C6.93306 8.58833 7.02906 8.62508 7.12506 8.62508 7.22106 8.62508 7.31706 8.58833 7.39019 8.5152 7.53682 8.36857 7.53682 8.13157 7.39019 7.98494L6.83518 7.42994C7.69544 6.74218 8.25007 5.68505 8.25007 4.50004 8.25007 3.60153 7.93132 2.77502 7.40181 2.12852L8.5152 1.01513C8.66183 0.868508 8.66183 0.631881 8.5152 0.484879ZM7.50007 4.50004C7.50007 6.15455 6.15418 7.50007 4.50004 7.50007 4.05116 7.50007 3.62628 7.39844 3.2434 7.22106 3.1939 7.17794 3.1369 7.15281 3.07615 7.14044 2.13864 6.63231 1.50001 5.63967 1.50001 4.50004 1.50001 2.8459 2.8459 1.50001 4.50004 1.50001 5.1923 1.50001 5.82868 1.73777 6.33606 2.13302L5.8013 2.66777C5.4338 2.4064 4.98529 2.25002 4.50004 2.25002 3.25915 2.25002 2.25002 3.25915 2.25002 4.50004 2.25002 5.74093 3.25915 6.75006 4.50004 6.75006 5.74093 6.75006 6.75006 5.74093 6.75006 4.50004 6.75006 4.01516 6.59406 3.56628 6.33193 3.1984L6.86743 2.66365C7.26194 3.17178 7.50007 3.80778 7.50007 4.50004ZM6.00005 4.50004C6.00005 5.32767 5.3273 6.00005 4.50004 6.00005 3.67278 6.00005 3.00003 5.32767 3.00003 4.50004 3.00003 3.67278 3.67278 3.00003 4.50004 3.00003 4.77717 3.00003 5.03404 3.08065 5.25755 3.21265L4.69204 3.77778C4.63054 3.76203 4.56679 3.75003 4.50004 3.75003 4.08604 3.75003 3.75003 4.08604 3.75003 4.50004 3.75003 4.91404 4.08604 5.25005 4.50004 5.25005 4.91404 5.25005 5.25005 4.91404 5.25005 4.50004 5.25005 4.43329 5.23917 4.36991 5.2223 4.30804L5.7878 3.74291C5.91905 3.96641 6.00005 4.22254 6.00005 4.50004Z" transform="matrix(1.1111 0 -0 1 214 156)"/></g></g></g><path d="M220.5 190.5C220.5 189.948 220.948 189.5 221.5 189.5L247.5 189.5C248.052 189.5 248.5 189.948 248.5 190.5L248.5 194.5C248.5 195.052 248.052 195.5 247.5 195.5L221.5 195.5C220.948 195.5 220.5 195.052 220.5 194.5Z" stroke="#E6194B" stroke-width="1.33585" stroke-miterlimit="8" fill="#FFFFFF" fill-rule="evenodd"/><text font-family="Calibri,Calibri_MSFontService,sans-serif" font-weight="700" font-size="5" transform="translate(231.816 193)">POLICY</text><g clip-path="url(#clip19)"><g clip-path="url(#clip20)"><g clip-path="url(#clip21)"><path d="M3.75003 8.25007 0.750007 8.25007C0.543005 8.25007 0.375003 8.08245 0.375003 7.87507L0.375003 0.375003C0.375003 0.168001 0.543005 0 0.750007 0L6.75006 0C6.95744 0 7.12506 0.168001 7.12506 0.375003L7.12506 3.37503C7.12506 3.58203 6.95744 3.75003 6.75006 3.75003 6.54268 3.75003 6.37506 3.58203 6.37506 3.37503L6.37506 0.750007 1.12501 0.750007 1.12501 7.50007 3.75003 7.50007C3.95741 7.50007 4.12504 7.66769 4.12504 7.87507 4.12504 8.08245 3.95741 8.25007 3.75003 8.25007Z" transform="matrix(1 0 -0 1.11111 221.375 187.417)"/><path d="M5.62505 8.25007C5.51367 8.25007 5.4083 8.20057 5.3363 8.11545L3.46128 5.86543C3.37803 5.7653 3.35253 5.6303 3.3934 5.50655L3.76841 4.38154C3.82053 4.22816 3.96341 4.12504 4.12504 4.12504L7.12506 4.12504C7.28706 4.12504 7.42956 4.22816 7.48057 4.38154L7.85557 5.50655C7.89682 5.6303 7.87132 5.7653 7.78769 5.86543L5.91268 8.11545C5.8418 8.20057 5.73642 8.25007 5.62505 8.25007ZM4.17191 5.54555 5.62505 7.28931 7.07819 5.5463 6.85468 4.87504 4.39504 4.87504 4.17191 5.54555Z" transform="matrix(1 0 -0 1.11111 221.375 187.417)"/><path d="M5.25005 2.62502 2.25002 2.62502C2.04302 2.62502 1.87502 2.45702 1.87502 2.25002 1.87502 2.04302 2.04302 1.87502 2.25002 1.87502L5.25005 1.87502C5.45742 1.87502 5.62505 2.04302 5.62505 2.25002 5.62505 2.45702 5.45742 2.62502 5.25005 2.62502Z" transform="matrix(1 0 -0 1.11111 221.375 187.417)"/><path d="M3.37503 4.12504 2.25002 4.12504C2.04302 4.12504 1.87502 3.95703 1.87502 3.75003 1.87502 3.54303 2.04302 3.37503 2.25002 3.37503L3.37503 3.37503C3.58241 3.37503 3.75003 3.54303 3.75003 3.75003 3.75003 3.95703 3.58241 4.12504 3.37503 4.12504Z" transform="matrix(1 0 -0 1.11111 221.375 187.417)"/><path d="M2.62502 5.62505 2.25002 5.62505C2.04302 5.62505 1.87502 5.45742 1.87502 5.25005 1.87502 5.04267 2.04302 4.87504 2.25002 4.87504L2.62202 4.87504C2.82902 4.87504 2.99853 5.04267 2.99853 5.25005 2.99853 5.45742 2.83202 5.62505 2.62502 5.62505Z" transform="matrix(1 0 -0 1.11111 221.375 187.417)"/></g></g></g><path d="M214.5 222.5C214.5 221.948 214.948 221.5 215.5 221.5L247.5 221.5C248.052 221.5 248.5 221.948 248.5 222.5L248.5 226.5C248.5 227.052 248.052 227.5 247.5 227.5L215.5 227.5C214.948 227.5 214.5 227.052 214.5 226.5Z" stroke="#46F0F0" stroke-width="1.33585" stroke-miterlimit="8" fill="#FFFFFF" fill-rule="evenodd"/><text font-family="Calibri,Calibri_MSFontService,sans-serif" font-weight="700" font-size="5" transform="translate(225.442 225)">INITIATIVE</text><g clip-path="url(#clip22)"><g clip-path="url(#clip23)"><g clip-path="url(#clip24)"><path d="M3.74999 4.77449C4.57686 4.77449 5.24998 4.11824 5.24998 3.31124 5.24998 2.50387 4.57686 1.84762 3.74999 1.84762 2.92274 1.84762 2.24999 2.50424 2.24999 3.31124 2.24999 4.11824 2.92274 4.77449 3.74999 4.77449ZM3.74999 2.57962C4.16399 2.57962 4.49999 2.90774 4.49999 3.31162 4.49999 3.71549 4.16399 4.04361 3.74999 4.04361 3.33637 4.04361 2.99999 3.71549 2.99999 3.31162 2.99999 2.90774 3.33637 2.57962 3.74999 2.57962Z" transform="matrix(1 0 -0 1.11111 215 219)"/><path d="M7.49998 0.749998C7.2926 0.749998 7.12498 0.913872 7.12498 1.116L7.12498 3.54186 7.12498 3.67724 7.12498 3.70986C7.12498 4.70661 6.29473 5.51736 5.27398 5.51736L3.72599 5.51736C2.29162 5.51773 1.125 6.57936 1.125 7.8836 1.125 8.08573 1.293 8.24998 1.5 8.24998 1.707 8.24998 1.87499 8.08573 1.87499 7.8836 1.87499 6.98285 2.70524 6.24936 3.72599 6.24936L5.27398 6.24936C6.70798 6.24936 7.87535 5.11049 7.87535 3.71024L7.87535 3.67724 7.87535 3.54186 7.87535 1.116C7.87498 0.913872 7.70735 0.749998 7.49998 0.749998Z" transform="matrix(1 0 -0 1.11111 215 219)"/><path d="M5.99998 6.60411C5.79261 6.60411 5.62498 6.76835 5.62498 6.97085L5.62498 7.70248C5.62498 7.9046 5.79261 8.06848 5.99998 8.06848 6.20736 8.06848 6.37498 7.9046 6.37498 7.70248L6.37498 6.97085C6.37498 6.76835 6.20736 6.60411 5.99998 6.60411Z" transform="matrix(1 0 -0 1.11111 215 219)"/></g></g></g><path d="M166.492 124 206.508 124C211.75 124 216 126.91 216 130.5 216 134.09 211.75 137 206.508 137L166.492 137C161.25 137 157 134.09 157 130.5 157 126.91 161.25 124 166.492 124Z" fill="#313131" fill-rule="evenodd"/><text fill="#FFFFFF" font-family="Calibri,Calibri_MSFontService,sans-serif" font-weight="700" font-size="5" transform="translate(170.996 132)">&lt;Assessed by|</text><path d="M165.848 221 203.152 221C208.038 221 212 223.91 212 227.5 212 231.09 208.038 234 203.152 234L165.848 234C160.962 234 157 231.09 157 227.5 157 223.91 160.962 221 165.848 221Z" fill="#313131" fill-rule="evenodd"/><text fill="#FFFFFF" font-family="Calibri,Calibri_MSFontService,sans-serif" font-weight="700" font-size="5" transform="translate(165.318 229)">&lt;Coordinated by|</text><path d="M166.974 189 209.025 189C214.534 189 219 191.91 219 195.5 219 199.09 214.534 202 209.025 202L166.974 202C161.466 202 157 199.09 157 195.5 157 191.91 161.466 189 166.974 189Z" fill="#313131" fill-rule="evenodd"/><text fill="#FFFFFF" font-family="Calibri,Calibri_MSFontService,sans-serif" font-weight="700" font-size="5" transform="translate(170.244 197)">&lt;Elaborated by|</text><path d="M164.24 94 194.76 94C198.759 94 202 96.9102 202 100.5 202 104.09 198.759 107 194.76 107L164.24 107C160.241 107 157 104.09 157 100.5 157 96.9102 160.241 94 164.24 94Z" fill="#313131" fill-rule="evenodd"/><text fill="#FFFFFF" font-family="Calibri,Calibri_MSFontService,sans-serif" font-weight="700" font-size="5" transform="translate(162.48 102)">&lt;Measured by|</text><path d="M167.618 62 212.382 62C218.246 62 223 64.9102 223 68.5 223 72.0898 218.246 75 212.382 75L167.618 75C161.754 75 157 72.0898 157 68.5 157 64.9102 161.754 62 167.618 62Z" fill="#313131" fill-rule="evenodd"/><text fill="#FFFFFF" font-family="Calibri,Calibri_MSFontService,sans-serif" font-weight="700" font-size="5" transform="translate(179.094 71)">|Contact&gt;</text><path d="M167.618 30 212.382 30C218.246 30 223 33.134 223 37 223 40.866 218.246 44 212.382 44L167.618 44C161.754 44 157 40.866 157 37 157 33.134 161.754 30 167.618 30Z" fill="#313131" fill-rule="evenodd"/><text fill="#FFFFFF" font-family="Calibri,Calibri_MSFontService,sans-serif" font-weight="700" font-size="5" transform="translate(180.096 39)">|Owner&gt;</text><path d="M165.848 157 203.152 157C208.038 157 212 159.91 212 163.5 212 167.09 208.038 170 203.152 170L165.848 170C160.962 170 157 167.09 157 163.5 157 159.91 160.962 157 165.848 157Z" fill="#313131" fill-rule="evenodd"/><text fill="#FFFFFF" font-family="Calibri,Calibri_MSFontService,sans-serif" font-weight="700" font-size="5" transform="translate(170.328 166)">&lt;Tracked by|</text></g></svg>