<svg width="189" height="189" xmlns="http://www.w3.org/2000/svg" xmlns:xlink="http://www.w3.org/1999/xlink" overflow="hidden"><defs><clipPath id="clip0"><path d="M0 0 189 0 189 189 0 189Z" fill-rule="evenodd" clip-rule="evenodd"/></clipPath><clipPath id="clip1"><path d="M3 3 47 3 47 48 3 48Z" fill-rule="evenodd" clip-rule="evenodd"/></clipPath><clipPath id="clip2"><path d="M3 3 47 3 47 48 3 48Z" fill-rule="evenodd" clip-rule="evenodd"/></clipPath><clipPath id="clip3"><path d="M3 3 47 3 47 48 3 48Z" fill-rule="evenodd" clip-rule="evenodd"/></clipPath></defs><g clip-path="url(#clip0)"><rect x="0" y="0" width="189" height="189" fill="#313131"/><text fill="#FFFFFF" font-family="Calibri,Calibri_MSFontService,sans-serif" font-weight="300" font-size="11" transform="translate(9.60032 -5)">PROJECT TASK</text><rect x="3.50005" y="3.50005" width="1" height="1" stroke="#2F528F" stroke-width="1.33333" stroke-miterlimit="8" fill="#4472C4"/><rect x="0" y="0" width="189" height="189" stroke="#46F0F0" stroke-width="8" stroke-miterlimit="8" fill="#FFFFFF"/><g clip-path="url(#clip1)"><g clip-path="url(#clip2)"><g clip-path="url(#clip3)"><path d="M22.1393 28.2297 22.143 28.2333 31.1667 18.8467 28.9117 16.5 22.1393 23.54 18.755 20.02 16.5 22.3667 22.1393 28.2333Z" transform="matrix(1 0 -0 1.02273 3 3)"/><path d="M36.6667 3.66667 9.16667 3.66667C8.15467 3.66667 7.33333 4.488 7.33333 5.5L7.33333 12.8333 5.5 12.8333C4.488 12.8333 3.66667 13.6547 3.66667 14.6667 3.66667 15.6787 4.488 16.5 5.5 16.5L7.33333 16.5 7.33333 20.1667 5.5 20.1667C4.488 20.1667 3.66667 20.988 3.66667 22 3.66667 23.0138 4.488 23.8333 5.5 23.8333L7.33333 23.8333 7.33333 27.5 5.5 27.5C4.488 27.5 3.66667 28.3195 3.66667 29.3333 3.66667 30.3472 4.488 31.1667 5.5 31.1667L7.33333 31.1667 7.33333 38.5C7.33333 39.5138 8.15467 40.3333 9.16667 40.3333L36.6667 40.3333C37.6805 40.3333 38.5 39.5138 38.5 38.5L38.5 5.5C38.5 4.488 37.6805 3.66667 36.6667 3.66667ZM34.8333 36.6667 11 36.6667 11 31.1667 12.8333 31.1667C13.8453 31.1667 14.6667 30.3472 14.6667 29.3333 14.6667 28.3195 13.8453 27.5 12.8333 27.5L11 27.5 11 23.8333 12.8333 23.8333C13.8453 23.8333 14.6667 23.0138 14.6667 22 14.6667 20.988 13.8453 20.1667 12.8333 20.1667L11 20.1667 11 16.5 12.8333 16.5C13.8453 16.5 14.6667 15.6787 14.6667 14.6667 14.6667 13.6547 13.8453 12.8333 12.8333 12.8333L11 12.8333 11 7.33333 34.8333 7.33333 34.8333 36.6667Z" transform="matrix(1 0 -0 1.02273 3 3)"/></g></g></g><text font-family="Calibri,Calibri_MSFontService,sans-serif" font-weight="700" font-size="20" transform="translate(58.0382 23)">PROJECT TASK<tspan font-weight="400" font-size="12" x="-51.4992" y="71">A </tspan><tspan font-size="12" x="-41.8325" y="71">Project Task</tspan><tspan font-weight="400" font-size="12" x="21.5008" y="71">(sometimes called </tspan><tspan font-weight="400" font-size="12" x="-51.4992" y="86">an </tspan><tspan font-size="12" x="-36.8325" y="86">Issue</tspan><tspan font-weight="400" font-size="12" x="-11.4992" y="86">) is a granular element of </tspan><tspan font-weight="400" font-size="12" x="-51.4992" y="100">work that delivers some progress </tspan><tspan font-weight="400" font-size="12" x="-51.4992" y="114">towards the enablement of a </tspan><tspan font-weight="400" font-size="12" x="-51.4992" y="129">business </tspan><tspan font-size="12" x="-6.99916" y="129">Requirement</tspan><tspan font-weight="400" font-size="12" x="58.6675" y="129">.</tspan></text></g></svg>