<svg width="189" height="189" xmlns="http://www.w3.org/2000/svg" xmlns:xlink="http://www.w3.org/1999/xlink" overflow="hidden"><defs><clipPath id="clip0"><path d="M0 0 189 0 189 189 0 189Z" fill-rule="evenodd" clip-rule="evenodd"/></clipPath><clipPath id="clip1"><path d="M3 3 47 3 47 48 3 48Z" fill-rule="evenodd" clip-rule="evenodd"/></clipPath><clipPath id="clip2"><path d="M3 3 47 3 47 48 3 48Z" fill-rule="evenodd" clip-rule="evenodd"/></clipPath><clipPath id="clip3"><path d="M3 3 47 3 47 48 3 48Z" fill-rule="evenodd" clip-rule="evenodd"/></clipPath></defs><g clip-path="url(#clip0)"><rect x="0" y="0" width="189" height="189" fill="#313131"/><text fill="#FFFFFF" font-family="Calibri,Calibri_MSFontService,sans-serif" font-weight="300" font-size="11" transform="translate(9.60032 -5)">PROJECT</text><rect x="3.50005" y="3.50005" width="1" height="1" stroke="#2F528F" stroke-width="1.33333" stroke-miterlimit="8" fill="#4472C4"/><rect x="0" y="0" width="189" height="189" stroke="#46F0F0" stroke-width="8" stroke-miterlimit="8" fill="#FFFFFF"/><g clip-path="url(#clip1)"><g clip-path="url(#clip2)"><g clip-path="url(#clip3)"><path d="M38.5 7.33333 13.75 7.33333 13.75 3.66667 10.0833 3.66667 10.0833 3.66667C6.47533 4.12317 3.66667 7.271 3.66667 11L3.66667 33C3.66667 37.0443 6.95567 40.3333 11 40.3333L38.5 40.3333C39.5138 40.3333 40.3333 39.5138 40.3333 38.5L40.3333 9.16667C40.3333 8.15467 39.5138 7.33333 38.5 7.33333ZM10.0833 7.4635 10.0833 25.7602C9.08967 25.8848 8.16383 26.2038 7.33333 26.6878L7.33333 11C7.33333 9.29683 8.50667 7.87233 10.0833 7.4635ZM36.6667 36.6667 11 36.6667C8.97783 36.6667 7.33333 35.024 7.33333 33 7.33333 30.976 8.97783 29.3333 11 29.3333L13.75 29.3333 13.75 11 36.6667 11 36.6667 36.6667Z" transform="matrix(1 0 -0 1.02273 3 3)"/><path d="M20.1667 22 22 22 22 25.6667 20.1667 25.6667C19.1547 25.6667 18.3333 26.4862 18.3333 27.5 18.3333 28.5138 19.1547 29.3333 20.1667 29.3333L22 29.3333 22 31.1667C22 32.1805 22.8195 33 23.8333 33 24.8472 33 25.6667 32.1805 25.6667 31.1667L25.6667 29.3333 31.1667 29.3333C32.1805 29.3333 33 28.5138 33 27.5 33 26.4862 32.1805 25.6667 31.1667 25.6667L25.6667 25.6667 25.6667 22 31.1667 22C32.1805 22 33 21.1787 33 20.1667 33 19.1547 32.1805 18.3333 31.1667 18.3333L25.6667 18.3333 25.6667 16.5C25.6667 15.488 24.8472 14.6667 23.8333 14.6667 22.8195 14.6667 22 15.488 22 16.5L22 18.3333 20.1667 18.3333C19.1547 18.3333 18.3333 19.1547 18.3333 20.1667 18.3333 21.1787 19.1547 22 20.1667 22Z" transform="matrix(1 0 -0 1.02273 3 3)"/></g></g></g><text font-family="Calibri,Calibri_MSFontService,sans-serif" font-weight="700" font-size="20" transform="translate(80.7514 23)">PROJECT<tspan font-weight="400" font-size="12" x="-74.2124" y="86">A </tspan><tspan font-size="12" x="-64.5458" y="86">Project</tspan><tspan font-weight="400" font-size="12" x="-26.5458" y="86">is an initiative to enable </tspan><tspan font-weight="400" font-size="12" x="-74.2124" y="101">some new business Capability by </tspan><tspan font-weight="400" font-size="12" x="-74.2124" y="115">way of a Solution.</tspan></text></g></svg>