<svg width="189" height="189" xmlns="http://www.w3.org/2000/svg" xmlns:xlink="http://www.w3.org/1999/xlink" overflow="hidden"><defs><clipPath id="clip0"><path d="M0 0 189 0 189 189 0 189Z" fill-rule="evenodd" clip-rule="evenodd"/></clipPath><clipPath id="clip1"><path d="M3 3 47 3 47 48 3 48Z" fill-rule="evenodd" clip-rule="evenodd"/></clipPath><clipPath id="clip2"><path d="M3 3 47 3 47 48 3 48Z" fill-rule="evenodd" clip-rule="evenodd"/></clipPath><clipPath id="clip3"><path d="M3 3 47 3 47 48 3 48Z" fill-rule="evenodd" clip-rule="evenodd"/></clipPath></defs><g clip-path="url(#clip0)"><rect x="0" y="0" width="189" height="189" fill="#313131"/><text fill="#FFFFFF" font-family="Calibri,Calibri_MSFontService,sans-serif" font-weight="300" font-size="11" transform="translate(9.60032 -5)">RESPONSIBILITY</text><rect x="3.50005" y="3.50005" width="1" height="1" stroke="#2F528F" stroke-width="1.33333" stroke-miterlimit="8" fill="#4472C4"/><rect x="0" y="0" width="189" height="189" stroke="#CEB023" stroke-width="8" stroke-miterlimit="8" fill="#FFFFFF"/><g clip-path="url(#clip1)"><g clip-path="url(#clip2)"><g clip-path="url(#clip3)"><path d="M41.2005 18.5497C40.6065 18.2325 39.8768 18.2655 39.3177 18.6413L29.4525 25.2157 19.5067 16.9253C18.909 16.4267 18.0583 16.3607 17.3892 16.7622L10.5655 20.856C10.23 20.4453 9.73867 20.1667 9.16667 20.1667L3.66667 20.1667C2.65467 20.1667 1.83333 20.988 1.83333 22L1.83333 36.6667C1.83333 37.6805 2.65467 38.5 3.66667 38.5L9.16667 38.5C10.1787 38.5 11 37.6805 11 36.6667L11 36.3953 17.8897 35.2862 24.6107 40.0015C24.926 40.2233 25.2945 40.337 25.663 40.337 26.0498 40.337 26.4385 40.2178 26.763 39.9703L41.4333 28.9703C41.8953 28.6257 42.1667 28.083 42.1667 27.5037L42.1667 20.1703C42.1667 19.4902 41.7945 18.8687 41.2005 18.5497ZM5.5 34.8333 5.5 23.8333 7.33333 23.8333 7.33333 34.8333 5.5 34.8333ZM38.5 26.5833 25.6282 36.2377 19.3893 31.8542C19.0795 31.636 18.711 31.5205 18.3352 31.5205 18.238 31.5205 18.1408 31.5278 18.0437 31.5443L11 32.681 11 24.871 18.1592 20.5755 26.6163 27.6247 25.4247 28.8145 19.5543 24.9755C18.7073 24.4218 17.5707 24.6602 17.017 25.5072 16.4633 26.3542 16.7017 27.4908 17.5487 28.0445L24.6675 32.6975C24.7353 32.7397 24.8105 32.7617 24.8802 32.7983 24.937 32.8277 24.9938 32.8552 25.0562 32.8772 25.256 32.9487 25.4613 32.9963 25.6685 32.9963 25.6685 32.9963 25.6685 32.9963 25.6703 32.9963L25.6703 32.9963C25.6722 32.9963 25.6722 32.9963 25.674 32.9963 25.8812 32.9945 26.0883 32.9487 26.2827 32.8772 26.323 32.8625 26.3688 32.8478 26.4092 32.8313 26.6017 32.7452 26.7813 32.6315 26.939 32.4812 26.9463 32.4738 26.9592 32.4702 26.9665 32.4628L30.5177 28.9135 38.5 23.5913 38.5 26.5833Z" transform="matrix(1 0 -0 1.02273 3 3)"/><path d="M29.3333 16.5C33.3777 16.5 36.6667 13.211 36.6667 9.16667 36.6667 5.12233 33.3777 1.83333 29.3333 1.83333 25.289 1.83333 22 5.12233 22 9.16667 22 13.211 25.289 16.5 29.3333 16.5ZM29.3333 5.5C31.3573 5.5 33 7.1445 33 9.16667 33 11.1888 31.3573 12.8333 29.3333 12.8333 27.3093 12.8333 25.6667 11.1888 25.6667 9.16667 25.6667 7.1445 27.3093 5.5 29.3333 5.5Z" transform="matrix(1 0 -0 1.02273 3 3)"/></g></g></g><text font-family="Calibri,Calibri_MSFontService,sans-serif" font-weight="700" font-size="20" transform="translate(50.1415 23)">RESPONSIBILITY<tspan font-weight="400" font-size="12" x="-43.6025" y="86">A </tspan><tspan font-size="12" x="-33.9358" y="86">Responsibility</tspan><tspan font-weight="400" font-size="12" x="39.0642" y="86">is the assignment </tspan><tspan font-weight="400" font-size="12" x="-43.6025" y="101">to a </tspan><tspan font-size="12" x="-22.2691" y="101">Role</tspan><tspan font-weight="400" font-size="12" x="2.73087" y="101">of the right to perform a </tspan><tspan font-size="12" x="-43.6025" y="115">Task</tspan><tspan font-weight="400" font-size="12" x="-20.9358" y="115">.</tspan></text></g></svg>