<svg width="265" height="265" xmlns="http://www.w3.org/2000/svg" xmlns:xlink="http://www.w3.org/1999/xlink" overflow="hidden"><defs><clipPath id="clip0"><path d="M0 0 265 0 265 265 0 265Z" fill-rule="evenodd" clip-rule="evenodd"/></clipPath><clipPath id="clip1"><path d="M35 51 55 51 55 71 35 71Z" fill-rule="evenodd" clip-rule="evenodd"/></clipPath><clipPath id="clip2"><path d="M35 51 55 51 55 71 35 71Z" fill-rule="evenodd" clip-rule="evenodd"/></clipPath><clipPath id="clip3"><path d="M35 51 55 51 55 71 35 71Z" fill-rule="evenodd" clip-rule="evenodd"/></clipPath><clipPath id="clip4"><path d="M215 82 226 82 226 94 215 94Z" fill-rule="evenodd" clip-rule="evenodd"/></clipPath><clipPath id="clip5"><path d="M215 82 226 82 226 94 215 94Z" fill-rule="evenodd" clip-rule="evenodd"/></clipPath><clipPath id="clip6"><path d="M215 82 226 82 226 94 215 94Z" fill-rule="evenodd" clip-rule="evenodd"/></clipPath><clipPath id="clip7"><path d="M224 166 235 166 235 177 224 177Z" fill-rule="evenodd" clip-rule="evenodd"/></clipPath><clipPath id="clip8"><path d="M224 166 235 166 235 177 224 177Z" fill-rule="evenodd" clip-rule="evenodd"/></clipPath><clipPath id="clip9"><path d="M224 166 235 166 235 177 224 177Z" fill-rule="evenodd" clip-rule="evenodd"/></clipPath><clipPath id="clip10"><path d="M71 224 82 224 82 236 71 236Z" fill-rule="evenodd" clip-rule="evenodd"/></clipPath><clipPath id="clip11"><path d="M71 224 82 224 82 236 71 236Z" fill-rule="evenodd" clip-rule="evenodd"/></clipPath><clipPath id="clip12"><path d="M71 224 82 224 82 236 71 236Z" fill-rule="evenodd" clip-rule="evenodd"/></clipPath><clipPath id="clip13"><path d="M71 28 82 28 82 38 71 38Z" fill-rule="evenodd" clip-rule="evenodd"/></clipPath><clipPath id="clip14"><path d="M71 28 82 28 82 38 71 38Z" fill-rule="evenodd" clip-rule="evenodd"/></clipPath><clipPath id="clip15"><path d="M71 28 82 28 82 38 71 38Z" fill-rule="evenodd" clip-rule="evenodd"/></clipPath></defs><g clip-path="url(#clip0)"><rect x="0" y="0" width="265" height="265" fill="#313131"/><rect x="89.5" y="131.5" width="1.99999" height="1" stroke="#2F528F" stroke-width="1.33585" stroke-miterlimit="8" fill="#4472C4"/><path d="M23.5 9.75271C23.5 8.50859 24.5085 7.50003 25.7527 7.50003L249.247 7.50003C250.491 7.50003 251.5 8.50859 251.5 9.75271L251.5 249.247C251.5 250.491 250.491 251.5 249.247 251.5L25.7527 251.5C24.5085 251.5 23.5 250.491 23.5 249.247Z" stroke="#FF0000" stroke-width="0.667927" stroke-miterlimit="8" stroke-opacity="0" fill="none" fill-rule="evenodd"/><path d="M30.0794 43.5 149.921 43.5C153.002 43.5 155.5 45.998 155.5 49.0794L155.5 214.252C155.5 216.598 153.598 218.5 151.252 218.5L28.7483 218.5C26.402 218.5 24.5 216.598 24.5 214.252L24.5 49.0794C24.5 45.998 26.998 43.5 30.0794 43.5Z" stroke="#46F0F0" stroke-width="4.67549" stroke-miterlimit="8" fill="#FFFFFF" fill-rule="evenodd"/><g clip-path="url(#clip1)"><g clip-path="url(#clip2)"><g clip-path="url(#clip3)"><path d="M51.625 55.1666 40.9375 55.1666 40.9375 53.5833 39.3542 53.5833 39.3542 53.5833C37.7962 53.7804 36.5833 55.1397 36.5833 56.75L36.5833 66.25C36.5833 67.9964 38.0036 69.4167 39.75 69.4167L51.625 69.4167C52.0628 69.4167 52.4167 69.0628 52.4167 68.625L52.4167 55.9583C52.4167 55.5213 52.0628 55.1666 51.625 55.1666ZM39.3542 55.2228 39.3542 63.1237C38.9251 63.1775 38.5253 63.3153 38.1667 63.5243L38.1667 56.75C38.1667 56.0145 38.6733 55.3994 39.3542 55.2228ZM50.8334 67.8333 39.75 67.8333C38.8768 67.8333 38.1667 67.124 38.1667 66.25 38.1667 65.376 38.8768 64.6666 39.75 64.6666L40.9375 64.6666 40.9375 56.75 50.8334 56.75 50.8334 67.8333Z"/><path d="M43.7084 61.5 44.5 61.5 44.5 63.0833 43.7084 63.0833C43.2714 63.0833 42.9167 63.4372 42.9167 63.875 42.9167 64.3128 43.2714 64.6666 43.7084 64.6666L44.5 64.6666 44.5 65.4583C44.5 65.8961 44.8539 66.25 45.2917 66.25 45.7295 66.25 46.0834 65.8961 46.0834 65.4583L46.0834 64.6666 48.4584 64.6666C48.8962 64.6666 49.25 64.3128 49.25 63.875 49.25 63.4372 48.8962 63.0833 48.4584 63.0833L46.0834 63.0833 46.0834 61.5 48.4584 61.5C48.8962 61.5 49.25 61.1453 49.25 60.7083 49.25 60.2713 48.8962 59.9166 48.4584 59.9166L46.0834 59.9166 46.0834 59.125C46.0834 58.688 45.7295 58.3333 45.2917 58.3333 44.8539 58.3333 44.5 58.688 44.5 59.125L44.5 59.9166 43.7084 59.9166C43.2714 59.9166 42.9167 60.2713 42.9167 60.7083 42.9167 61.1453 43.2714 61.5 43.7084 61.5Z"/></g></g></g><path d="M26.9702 6.36947C18.5628 6.36947 11.7473 10.3112 11.7473 15.1736L11.7473 248.948C11.7473 253.81 18.5628 257.752 26.9702 257.752L238.08 257.752C246.487 257.752 253.302 253.81 253.302 248.948L253.302 15.1736C253.302 10.3112 246.487 6.36947 238.08 6.36947ZM0 0 265 0 265 265 0 265Z" fill="#46F0F0" fill-rule="evenodd"/><text font-family="Calibri,Calibri_MSFontService,sans-serif" font-weight="700" font-size="11" transform="translate(79.5565 63)">PROJECT<tspan font-weight="400" font-size="9" x="-48.2662" y="68">A </tspan><tspan font-size="9" x="-40.752" y="68">Project</tspan><tspan font-weight="400" font-size="9" x="-11.1962" y="68">is an initiative to </tspan><tspan font-weight="400" font-size="9" x="-48.2662" y="79">enable some new business </tspan><tspan font-weight="400" font-size="9" x="-48.2662" y="90">Capability by way of a </tspan><tspan font-weight="400" font-size="9" x="-48.2662" y="101">Solution.</tspan></text><path d="M215.5 84.5C215.5 83.3955 216.395 82.5 217.5 82.5L246.5 82.5C247.605 82.5 248.5 83.3955 248.5 84.5L248.5 92.5C248.5 93.6045 247.605 94.5 246.5 94.5L217.5 94.5C216.395 94.5 215.5 93.6045 215.5 92.5Z" stroke="#B74D41" stroke-width="1.33585" stroke-miterlimit="8" fill="#FFFFFF" fill-rule="evenodd"/><text font-family="Calibri,Calibri_MSFontService,sans-serif" font-weight="700" font-size="5" transform="translate(227.215 86)">TEAM<tspan x="0" y="6">MEMBER</tspan></text><g clip-path="url(#clip4)"><g clip-path="url(#clip5)"><g clip-path="url(#clip6)"><path d="M4.58332 4.99999C3.66666 4.99999 2.91666 4.24999 2.91666 3.33332 2.91666 2.41666 3.66666 1.66666 4.58332 1.66666 5.49998 1.66666 6.24998 2.41666 6.24998 3.33332 6.24998 4.24999 5.49998 4.99999 4.58332 4.99999ZM4.58332 2.49999C4.12499 2.49999 3.74999 2.87499 3.74999 3.33332 3.74999 3.79166 4.12499 4.16665 4.58332 4.16665 5.04165 4.16665 5.41665 3.79166 5.41665 3.33332 5.41665 2.87499 5.04165 2.49999 4.58332 2.49999Z" transform="matrix(1 0 -0 1.00001 216.417 83.4166)"/><path d="M8.12498 2.91666C7.33331 2.91666 6.66665 2.24999 6.66665 1.45833 6.66665 0.666665 7.33331 0 8.12498 0 8.91664 0 9.58331 0.666665 9.58331 1.45833 9.58331 2.24999 8.91664 2.91666 8.12498 2.91666ZM8.12498 0.833331C7.79164 0.833331 7.49998 1.125 7.49998 1.45833 7.49998 1.79166 7.79164 2.08333 8.12498 2.08333 8.45831 2.08333 8.74997 1.79166 8.74997 1.45833 8.74997 1.125 8.45831 0.833331 8.12498 0.833331Z" transform="matrix(1 0 -0 1.00001 216.417 83.4166)"/><path d="M9.16664 4.58332 7.08331 4.58332C6.83331 4.58332 6.66665 4.41665 6.66665 4.16665 6.66665 3.91665 6.83331 3.74999 7.08331 3.74999L9.16664 3.74999C9.41664 3.74999 9.58331 3.91665 9.58331 4.16665 9.58331 4.41665 9.41664 4.58332 9.16664 4.58332Z" transform="matrix(1 0 -0 1.00001 216.417 83.4166)"/><path d="M1.04166 2.91666C0.249999 2.91666-0.416665 2.24999-0.416665 1.45833-0.416665 0.666665 0.249999 0 1.04166 0 1.83333 0 2.49999 0.666665 2.49999 1.45833 2.49999 2.24999 1.83333 2.91666 1.04166 2.91666ZM1.04166 0.833331C0.708331 0.833331 0.416665 1.125 0.416665 1.45833 0.416665 1.79166 0.708331 2.08333 1.04166 2.08333 1.375 2.08333 1.66666 1.79166 1.66666 1.45833 1.66666 1.125 1.375 0.833331 1.04166 0.833331Z" transform="matrix(1 0 -0 1.00001 216.417 83.4166)"/><path d="M2.08333 4.58332 0 4.58332C-0.249999 4.58332-0.416665 4.41665-0.416665 4.16665-0.416665 3.91665-0.249999 3.74999 0 3.74999L2.08333 3.74999C2.33333 3.74999 2.49999 3.91665 2.49999 4.16665 2.49999 4.41665 2.33333 4.58332 2.08333 4.58332Z" transform="matrix(1 0 -0 1.00001 216.417 83.4166)"/><path d="M7.12498 9.16664C6.91665 9.16664 6.70831 8.99997 6.70831 8.74997L6.70831 7.49998C6.70831 7.04165 6.33331 6.66665 5.83332 6.66665L3.37499 6.66665C2.87499 6.66665 2.49999 7.04165 2.49999 7.49998L2.49999 8.74997C2.49999 8.95831 2.33333 9.16664 2.08333 9.16664 1.83333 9.16664 1.66666 8.99997 1.66666 8.74997L1.66666 7.49998C1.66666 6.58331 2.41666 5.83332 3.37499 5.83332L5.83332 5.83332C6.79165 5.83332 7.54164 6.58331 7.54164 7.49998L7.54164 8.74997C7.54164 8.95831 7.33331 9.16664 7.12498 9.16664Z" transform="matrix(1 0 -0 1.00001 216.417 83.4166)"/></g></g></g><path d="M224.5 169.5C224.5 168.948 224.948 168.5 225.5 168.5L247.5 168.5C248.052 168.5 248.5 168.948 248.5 169.5L248.5 173.5C248.5 174.052 248.052 174.5 247.5 174.5L225.5 174.5C224.948 174.5 224.5 174.052 224.5 173.5Z" stroke="#CEB023" stroke-width="1.33585" stroke-miterlimit="8" fill="#FFFFFF" fill-rule="evenodd"/><text font-family="Calibri,Calibri_MSFontService,sans-serif" font-weight="700" font-size="5" transform="translate(235.598 172)">USER</text><g clip-path="url(#clip7)"><g clip-path="url(#clip8)"><g clip-path="url(#clip9)"><path d="M3.00003 3.75003C1.95002 3.75003 1.12501 2.92503 1.12501 1.87502 1.12501 0.825007 1.95002 0 3.00003 0 4.05004 0 4.87504 0.825007 4.87504 1.87502 4.87504 2.92503 4.05004 3.75003 3.00003 3.75003ZM3.00003 0.750007C2.36252 0.750007 1.87502 1.23751 1.87502 1.87502 1.87502 2.51252 2.36252 3.00003 3.00003 3.00003 3.63753 3.00003 4.12504 2.51252 4.12504 1.87502 4.12504 1.23751 3.63753 0.750007 3.00003 0.750007Z" transform="matrix(1 0 -0 1.1111 226.5 166.417)"/><path d="M6.75006 8.25007C6.52506 8.25007 6.37506 8.10007 6.37506 7.87507L6.37506 6.37506C6.37506 5.73755 5.88755 5.25005 5.25005 5.25005L3.00003 5.25005C2.36252 5.25005 1.87502 5.73755 1.87502 6.37506L1.87502 7.87507C1.87502 8.10007 1.72502 8.25007 1.50001 8.25007 1.27501 8.25007 1.12501 8.10007 1.12501 7.87507L1.12501 6.37506C1.12501 5.32505 1.95002 4.50004 3.00003 4.50004L5.25005 4.50004C6.30005 4.50004 7.12506 5.32505 7.12506 6.37506L7.12506 7.87507C7.12506 8.10007 6.97506 8.25007 6.75006 8.25007Z" transform="matrix(1 0 -0 1.1111 225.375 166.417)"/></g></g></g><path d="M166.17 82 204.83 82C209.894 82 214 84.9101 214 88.5 214 92.0899 209.894 95 204.83 95L166.17 95C161.106 95 157 92.0899 157 88.5 157 84.9101 161.106 82 166.17 82Z" fill="#313131" fill-rule="evenodd"/><text fill="#FFFFFF" font-family="Calibri,Calibri_MSFontService,sans-serif" font-weight="700" font-size="5" transform="translate(178.844 90)">|Has&gt;</text><path d="M167.618 168 212.382 168C218.246 168 223 170.91 223 174.5 223 178.09 218.246 181 212.382 181L167.618 181C161.754 181 157 178.09 157 174.5 157 170.91 161.754 168 167.618 168Z" fill="#313131" fill-rule="evenodd"/><text fill="#FFFFFF" font-family="Calibri,Calibri_MSFontService,sans-serif" font-weight="700" font-size="5" transform="translate(162.563 173)">|Participants&gt; Manager&gt; <tspan x="17.3661" y="6">Sponsor&gt;</tspan></text><path d="M84 222 89.5 218 95 222Z" fill="#FFFFFF" fill-rule="evenodd"/><path d="M71.5001 225.667C71.5001 224.47 72.4701 223.5 73.6668 223.5L101.333 223.5C102.53 223.5 103.5 224.47 103.5 225.667L103.5 234.333C103.5 235.53 102.53 236.5 101.333 236.5L73.6668 236.5C72.4701 236.5 71.5001 235.53 71.5001 234.333Z" stroke="#46F0F0" stroke-width="1.33585" stroke-miterlimit="8" fill="#FFFFFF" fill-rule="evenodd"/><text font-family="Calibri,Calibri_MSFontService,sans-serif" font-weight="700" font-size="5" transform="translate(83.3771 228)">PROJECT<tspan x="0" y="6">PHASE</tspan></text><g clip-path="url(#clip10)"><g clip-path="url(#clip11)"><g clip-path="url(#clip12)"><path d="M9.55122 7.24248C9.59414 7.14123 9.59414 7.0254 9.55122 6.92415 9.52997 6.8729 9.49956 6.82665 9.4608 6.78831L8.21123 5.53873C8.04831 5.37582 7.78498 5.37582 7.62206 5.53873 7.45914 5.70165 7.45914 5.96498 7.62206 6.1279L8.16081 6.66665 3.74999 6.66665C2.60124 6.66665 1.66666 5.73207 1.66666 4.58332 1.66666 3.43457 2.60124 2.49999 3.74999 2.49999 4.89874 2.49999 5.83332 3.43457 5.83332 4.58332L6.66665 4.58332C6.66665 2.97499 5.3579 1.66666 3.74999 1.66666 2.14166 1.66666 0.833331 2.97499 0.833331 4.58332 0.833331 6.19123 2.14166 7.49998 3.74999 7.49998L8.16081 7.49998 7.62206 8.03873C7.45914 8.20164 7.45914 8.46498 7.62206 8.62789 7.70331 8.70914 7.80998 8.74997 7.91664 8.74997 8.02331 8.74997 8.12998 8.70914 8.21123 8.62789L9.4608 7.37831C9.49956 7.33998 9.52997 7.29373 9.55122 7.24248Z" transform="matrix(1 0 -0 1.00001 72 225)"/></g></g></g><path d="M84 41 89.5 38 95 41Z" fill="#FFFFFF" fill-rule="evenodd"/><path d="M71.5001 31.5C71.5001 30.9477 71.9478 30.5 72.5001 30.5L105.5 30.5C106.052 30.5 106.5 30.9477 106.5 31.5L106.5 35.5C106.5 36.0523 106.052 36.5 105.5 36.5L72.5001 36.5C71.9478 36.5 71.5001 36.0523 71.5001 35.5Z" stroke="#46F0F0" stroke-width="1.33585" stroke-miterlimit="8" fill="#FFFFFF" fill-rule="evenodd"/><text font-family="Calibri,Calibri_MSFontService,sans-serif" font-weight="700" font-size="5" transform="translate(83.0711 34)">PROGRAM</text><g clip-path="url(#clip13)"><g clip-path="url(#clip14)"><g clip-path="url(#clip15)"><path d="M80.75 37.1667 73.25 37.1667C73.02 37.1667 72.8333 36.9804 72.8333 36.75L72.8333 29.25C72.8333 29.02 73.02 28.8334 73.25 28.8334L75.3333 28.8334C75.5633 28.8334 75.75 29.02 75.75 29.25 75.75 29.48 75.5633 29.6667 75.3333 29.6667L73.6667 29.6667 73.6667 36.3333 80.3333 36.3333 80.3333 34.6667C80.3333 34.4363 80.5196 34.25 80.75 34.25 80.9804 34.25 81.1666 34.4363 81.1666 34.6667L81.1666 36.75C81.1666 36.9804 80.9804 37.1667 80.75 37.1667Z"/><path d="M79.0833 33.8625C78.9716 33.8625 78.8662 33.8183 78.7875 33.7388L78.2158 33.1629 77.5312 33.1629C77.3008 33.1629 77.1146 32.9763 77.1146 32.7463L77.1146 32.0546 76.7042 31.6413C76.5429 31.4788 76.5429 31.2167 76.7042 31.0542L77.1146 30.6408 77.1146 29.78C77.1146 29.55 77.3012 29.3633 77.5312 29.3633L78.3833 29.3633 78.7875 28.9563C78.8662 28.8775 78.9716 28.8334 79.0833 28.8334L79.0833 28.8334C79.195 28.8334 79.3004 28.8775 79.3791 28.9567L79.7833 29.3633 80.4783 29.3633C80.7087 29.3633 80.895 29.55 80.895 29.78L80.895 30.4829 81.4621 31.0546C81.6241 31.2171 81.6241 31.4796 81.4621 31.6417L80.895 32.2133 80.895 32.7471C80.895 32.9771 80.7087 33.1638 80.4783 33.1638L79.9508 33.1638 79.3791 33.7396C79.3004 33.8183 79.195 33.8625 79.0833 33.8625ZM77.9479 32.33 78.3891 32.33C78.5008 32.33 78.6062 32.3742 78.685 32.4529L79.0833 32.8546 79.4816 32.4529C79.56 32.3742 79.6658 32.33 79.7775 32.33L80.0616 32.33 80.0616 32.0413C80.0616 31.9313 80.105 31.8254 80.1829 31.7475L80.5796 31.3479 80.1829 30.9483C80.1046 30.8704 80.0616 30.765 80.0616 30.6546L80.0616 30.1967 79.6091 30.1967C79.4979 30.1967 79.3921 30.1525 79.3133 30.0733L79.0833 29.8417 78.8529 30.0738C78.7746 30.1525 78.6683 30.1967 78.5566 30.1967L77.9479 30.1967 77.9479 30.8125C77.9479 30.9225 77.9046 31.0279 77.8266 31.1063L77.5871 31.3479 77.8266 31.59C77.9046 31.6683 77.9479 31.7738 77.9479 31.8838L77.9479 32.33Z"/><path d="M75.75 32.1667 74.9167 32.1667C74.6867 32.1667 74.5 31.98 74.5 31.75 74.5 31.52 74.6867 31.3333 74.9167 31.3333L75.75 31.3333C75.98 31.3333 76.1667 31.52 76.1667 31.75 76.1667 31.98 75.98 32.1667 75.75 32.1667Z"/><path d="M75.75 33.8333 74.9167 33.8333C74.6867 33.8333 74.5 33.6471 74.5 33.4167 74.5 33.1867 74.6867 33 74.9167 33L75.75 33C75.98 33 76.1667 33.1867 76.1667 33.4167 76.1667 33.6471 75.98 33.8333 75.75 33.8333Z"/><path d="M75.75 35.5 74.9167 35.5C74.6867 35.5 74.5 35.3138 74.5 35.0833 74.5 34.8529 74.6867 34.6667 74.9167 34.6667L75.75 34.6667C75.98 34.6667 76.1667 34.8529 76.1667 35.0833 76.1667 35.3138 75.98 35.5 75.75 35.5Z"/><path d="M78.25 35.5 77.4166 35.5C77.1862 35.5 77 35.3138 77 35.0833 77 34.8529 77.1862 34.6667 77.4166 34.6667L78.25 34.6667C78.4804 34.6667 78.6666 34.8529 78.6666 35.0833 78.6666 35.3138 78.4804 35.5 78.25 35.5Z"/><path d="M79.5004 31.3333C79.5004 31.5635 79.3138 31.75 79.0837 31.75 78.8536 31.75 78.6671 31.5635 78.6671 31.3333 78.6671 31.1032 78.8536 30.9167 79.0837 30.9167 79.3138 30.9167 79.5004 31.1032 79.5004 31.3333Z"/></g></g></g></g></svg>