<svg width="265" height="265" xmlns="http://www.w3.org/2000/svg" xmlns:xlink="http://www.w3.org/1999/xlink" overflow="hidden"><defs><clipPath id="clip0"><path d="M0 0 265 0 265 265 0 265Z" fill-rule="evenodd" clip-rule="evenodd"/></clipPath><clipPath id="clip1"><path d="M35 51 55 51 55 71 35 71Z" fill-rule="evenodd" clip-rule="evenodd"/></clipPath><clipPath id="clip2"><path d="M35 51 55 51 55 71 35 71Z" fill-rule="evenodd" clip-rule="evenodd"/></clipPath><clipPath id="clip3"><path d="M35 51 55 51 55 71 35 71Z" fill-rule="evenodd" clip-rule="evenodd"/></clipPath><clipPath id="clip4"><path d="M71 224 82 224 82 235 71 235Z" fill-rule="evenodd" clip-rule="evenodd"/></clipPath><clipPath id="clip5"><path d="M71 224 82 224 82 235 71 235Z" fill-rule="evenodd" clip-rule="evenodd"/></clipPath><clipPath id="clip6"><path d="M71 224 82 224 82 235 71 235Z" fill-rule="evenodd" clip-rule="evenodd"/></clipPath></defs><g clip-path="url(#clip0)"><rect x="0" y="0" width="265" height="265" fill="#313131"/><rect x="89.5" y="131.5" width="1.99999" height="1" stroke="#2F528F" stroke-width="1.33585" stroke-miterlimit="8" fill="#4472C4"/><path d="M23.5 9.75271C23.5 8.50859 24.5085 7.50003 25.7527 7.50003L249.247 7.50003C250.491 7.50003 251.5 8.50859 251.5 9.75271L251.5 249.247C251.5 250.491 250.491 251.5 249.247 251.5L25.7527 251.5C24.5085 251.5 23.5 250.491 23.5 249.247Z" stroke="#FF0000" stroke-width="0.667927" stroke-miterlimit="8" stroke-opacity="0" fill="none" fill-rule="evenodd"/><path d="M30.0794 43.5 149.921 43.5C153.002 43.5 155.5 45.998 155.5 49.0794L155.5 214.252C155.5 216.598 153.598 218.5 151.252 218.5L28.7483 218.5C26.402 218.5 24.5 216.598 24.5 214.252L24.5 49.0794C24.5 45.998 26.998 43.5 30.0794 43.5Z" stroke="#000080" stroke-width="4.67549" stroke-miterlimit="8" fill="#FFFFFF" fill-rule="evenodd"/><g clip-path="url(#clip1)"><g clip-path="url(#clip2)"><g clip-path="url(#clip3)"><path d="M52.9709 60.9244 45.0542 53.0228C44.7462 52.7148 44.2538 52.7148 43.9459 53.0228L36.0292 60.9244C35.8772 61.0756 35.7917 61.2846 35.7917 61.5 35.7917 61.7161 35.8772 61.9243 36.0292 62.0771L43.9459 69.9787C44.1002 70.1307 44.2997 70.2083 44.5 70.2083 44.7003 70.2083 44.9006 70.1307 45.0542 69.9787L52.9709 62.0771C53.1221 61.9243 53.2084 61.7161 53.2084 61.5 53.2084 61.2846 53.1237 61.0756 52.9709 60.9244ZM37.7146 61.5 44.4209 54.8064 44.4209 68.1943 37.7146 61.5Z"/></g></g></g><path d="M26.9702 6.36947C18.5628 6.36947 11.7473 10.3112 11.7473 15.1736L11.7473 248.948C11.7473 253.81 18.5628 257.752 26.9702 257.752L238.08 257.752C246.487 257.752 253.302 253.81 253.302 248.948L253.302 15.1736C253.302 10.3112 246.487 6.36947 238.08 6.36947ZM0 0 265 0 265 265 0 265Z" fill="#000080" fill-rule="evenodd"/><text font-family="Calibri,Calibri_MSFontService,sans-serif" font-weight="700" font-size="11" transform="translate(73.7956 63)">VALUEDIAL<tspan font-size="9" x="-42.5053" y="51">Value dials</tspan><tspan font-weight="400" font-size="9" x="2.07883" y="51">can be defined as </tspan><tspan font-weight="400" font-size="9" x="-42.5053" y="62">the nodes of a “value driver </tspan><tspan font-weight="400" font-size="9" x="-42.5053" y="73">tree” which plots all the </tspan><tspan font-weight="400" font-size="9" x="-42.5053" y="84">things that contribute to </tspan><tspan font-weight="400" font-size="9" x="-42.5053" y="96">business</tspan><tspan font-weight="400" font-size="9" x="-7.94007" y="96">value</tspan><tspan font-weight="400" font-size="9" x="14.6025" y="96">creation (a </tspan><tspan font-weight="400" font-size="9" x="-42.5053" y="107">“value driver tree” is a chain </tspan><tspan font-weight="400" font-size="9" x="-42.5053" y="118">of consequences).</tspan></text><path d="M84 222 89.5 218 95 222Z" fill="#FFFFFF" fill-rule="evenodd"/><path d="M71.5001 225.667C71.5001 224.47 72.4701 223.5 73.6667 223.5L103.333 223.5C104.53 223.5 105.5 224.47 105.5 225.667L105.5 234.333C105.5 235.53 104.53 236.5 103.333 236.5L73.6667 236.5C72.4701 236.5 71.5001 235.53 71.5001 234.333Z" stroke="#000080" stroke-width="1.33585" stroke-miterlimit="8" fill="#FFFFFF" fill-rule="evenodd"/><text font-family="Calibri,Calibri_MSFontService,sans-serif" font-weight="700" font-size="5" transform="translate(83.3771 228)">BUSINESS<tspan x="0" y="6">DRIVER</tspan></text><g clip-path="url(#clip4)"><g clip-path="url(#clip5)"><g clip-path="url(#clip6)"><path d="M6.65184 2.73915C6.65184 2.95527 6.47665 3.13046 6.26053 3.13046 6.04442 3.13046 5.86923 2.95527 5.86923 2.73915 5.86923 2.52304 6.04442 2.34785 6.26053 2.34785 6.47665 2.34785 6.65184 2.52304 6.65184 2.73915Z" transform="matrix(1.0648 0 -0 1 72 225)"/><path d="M8.60877 8.21746 5.47831 8.21746 5.47831 4.79117 5.99679 5.3527C6.07114 5.43292 6.17484 5.47831 6.2844 5.47831 6.28558 5.47831 6.28675 5.47831 6.28792 5.47831 6.39827 5.47713 6.50314 5.42979 6.57632 5.34722L7.20711 4.63934 7.82146 4.63934C8.03785 4.63934 8.21277 4.46404 8.21277 4.24804L8.21277 3.59768 8.88269 2.94107C8.95782 2.8675 9.00008 2.76655 9.00008 2.66128 9.00008 2.55602 8.95782 2.45546 8.88229 2.38189L8.21277 1.72684 8.21277 1.15671C8.21277 0.940704 8.03785 0.765398 7.82146 0.765398L7.19615 0.765398 6.56419 0.118175C6.49101 0.0438265 6.39201 0.00117392 6.28753 0.000391308 6.19127 0.00234785 6.08327 0.0403047 6.00931 0.113479L5.34879 0.765789 4.69256 0.765789C4.47656 0.765789 4.30125 0.941095 4.30125 1.1571L4.30125 1.72841 3.6736 2.34785 1.17392 2.34785C0.957921 2.34785 0.782615 2.52315 0.782615 2.73915L0.782615 8.21746 0.391308 8.21746C0.175306 8.21746 0 8.39238 0 8.60877 0 8.82516 0.175306 9.00008 0.391308 9.00008L1.17392 9.00008 5.087 9.00008 8.60877 9.00008C8.82516 9.00008 9.00008 8.82516 9.00008 8.60877 9.00008 8.39238 8.82516 8.21746 8.60877 8.21746ZM4.96726 2.16941C5.04161 2.09584 5.08387 1.99567 5.08387 1.89119L5.08387 1.54801 5.50922 1.54801C5.61214 1.54801 5.71114 1.50732 5.78392 1.43493L6.27932 0.946182 6.75162 1.42984C6.82519 1.50536 6.92615 1.54762 7.0318 1.54762L7.43054 1.54762 7.43054 1.8908C7.43054 1.99606 7.4728 2.09663 7.54833 2.17058L8.04998 2.66128 7.54754 3.15394C7.4728 3.22751 7.43015 3.32807 7.43015 3.43333L7.43015 3.85712 7.0318 3.85712C6.92028 3.85712 6.81384 3.90486 6.73988 3.98782L6.27892 4.50473 5.79683 3.98273C5.72288 3.90251 5.61879 3.85712 5.50961 3.85712L5.47831 3.85712 5.47831 2.73915C5.47831 2.72898 5.47322 2.72076 5.47244 2.71059L5.47244 2.64915C5.47244 2.54467 5.43096 2.4445 5.35622 2.37093 5.28187 2.29737 5.18091 2.26332 5.07683 2.25785L4.87569 2.2598 4.96726 2.16941ZM1.56523 8.21746 1.56523 3.13046 4.69569 3.13046 4.69569 8.21746 1.56523 8.21746Z" transform="matrix(1.0648 0 -0 1 72 225)"/><path d="M1.95654 3.91308 2.73915 3.91308 2.73915 5.087 1.95654 5.087Z" transform="matrix(1.0648 0 -0 1 72 225)"/><path d="M1.95654 5.86962 2.73915 5.86962 2.73915 7.04354 1.95654 7.04354Z" transform="matrix(1.0648 0 -0 1 72 225)"/><path d="M3.52177 3.91308 4.30439 3.91308 4.30439 5.087 3.52177 5.087Z" transform="matrix(1.0648 0 -0 1 72 225)"/><path d="M3.52177 5.86962 4.30439 5.86962 4.30439 7.04354 3.52177 7.04354Z" transform="matrix(1.0648 0 -0 1 72 225)"/></g></g></g></g></svg>