<svg width="265" height="265" xmlns="http://www.w3.org/2000/svg" xmlns:xlink="http://www.w3.org/1999/xlink" overflow="hidden"><defs><clipPath id="clip0"><path d="M0 0 265 0 265 265 0 265Z" fill-rule="evenodd" clip-rule="evenodd"/></clipPath></defs><g clip-path="url(#clip0)"><rect x="0" y="0" width="265" height="265" fill="#F58230"/><text fill="#FFFFFF" font-family="Calibri,Calibri_MSFontService,sans-serif" font-weight="700" font-size="24" transform="translate(105.465 44)">GOAL<tspan font-size="14" x="-73.1375" y="56">Goals</tspan><tspan font-size="14" x="-35.6134" y="56">amplifie</tspan><tspan font-size="14" x="17.1128" y="56">a</tspan><tspan font-size="14" x="28.9284" y="56">corporate</tspan><tspan font-size="14" x="91.0055" y="56">Vision</tspan><tspan font-size="14" x="-73.1375" y="73">—</tspan><tspan font-size="14" x="-55.3039" y="73">that</tspan><tspan font-size="14" x="-26.1088" y="73">is,</tspan><tspan font-size="14" x="-8.10148" y="73">it</tspan><tspan font-size="14" x="5.39732" y="73">indicates</tspan><tspan font-size="14" x="62.8123" y="73">what</tspan><tspan font-size="14" x="97.6848" y="73">must</tspan><tspan font-size="14" x="-73.1375" y="90">be</tspan><tspan font-size="14" x="-53.9012" y="90">satisfied</tspan><tspan font-size="14" x="-0.0997086" y="90">on</tspan><tspan font-size="14" x="19.6375" y="90">a</tspan><tspan font-size="14" x="31.1927" y="90">continuing</tspan><tspan font-size="14" x="97.8518" y="90">basis</tspan><tspan font-size="14" x="-73.1375" y="107">to</tspan><tspan font-size="14" x="-55.8382" y="107">effectively</tspan><tspan font-size="14" x="10.2198" y="107">attain</tspan><tspan font-size="14" x="49.5607" y="107">the</tspan><tspan font-size="14" x="73.8732" y="107">Vision</tspan><tspan font-size="14" x="109.941" y="107">.</tspan><tspan font-size="14" x="118.557" y="107">A</tspan><tspan font-size="14" x="-73.1375" y="123">Goal</tspan><tspan font-size="14" x="-36.6487" y="123">should</tspan><tspan font-size="14" x="12.1968" y="123">be</tspan><tspan font-size="14" x="36.3223" y="123">attainable</tspan><tspan font-size="14" x="105.199" y="123">and</tspan><tspan font-size="14" x="-73.1375" y="140">should</tspan><tspan font-size="14" x="-28.8473" y="140">be</tspan><tspan font-size="14" x="-9.27035" y="140">specifically</tspan><tspan font-size="14" x="59.7332" y="140">oriented</tspan><tspan font-size="14" x="114.717" y="140">to</tspan><tspan font-size="14" x="-73.1375" y="157">a</tspan><tspan font-size="14" x="-58.2427" y="157">single</tspan><tspan font-size="14" x="-16.2969" y="157">aspect</tspan><tspan font-size="14" x="29.4895" y="157">of</tspan><tspan font-size="14" x="49.5607" y="157">the</tspan><tspan font-size="14" x="76.979" y="157">business</tspan><tspan font-size="14" x="-73.1375" y="174">problem</tspan><tspan font-size="14" x="-23.7109" y="174">.</tspan></text></g></svg>