<svg width="189" height="189" xmlns="http://www.w3.org/2000/svg" xmlns:xlink="http://www.w3.org/1999/xlink" overflow="hidden"><defs><clipPath id="clip0"><path d="M0 0 189 0 189 189 0 189Z" fill-rule="evenodd" clip-rule="evenodd"/></clipPath><clipPath id="clip1"><path d="M3 3 47 3 47 48 3 48Z" fill-rule="evenodd" clip-rule="evenodd"/></clipPath><clipPath id="clip2"><path d="M3 3 47 3 47 48 3 48Z" fill-rule="evenodd" clip-rule="evenodd"/></clipPath><clipPath id="clip3"><path d="M3 3 47 3 47 48 3 48Z" fill-rule="evenodd" clip-rule="evenodd"/></clipPath></defs><g clip-path="url(#clip0)"><rect x="0" y="0" width="189" height="189" fill="#313131"/><text fill="#FFFFFF" font-family="Calibri,Calibri_MSFontService,sans-serif" font-weight="300" font-size="11" transform="translate(9.60032 -5)">ENHANCEMENT</text><rect x="3.50005" y="3.50005" width="1" height="1" stroke="#2F528F" stroke-width="1.33333" stroke-miterlimit="8" fill="#4472C4"/><rect x="0" y="0" width="189" height="189" stroke="#000080" stroke-width="8" stroke-miterlimit="8" fill="#FFFFFF"/><g clip-path="url(#clip1)"><g clip-path="url(#clip2)"><g clip-path="url(#clip3)"><path d="M29.5882 9.58283C28.8713 8.877 27.7255 8.877 27.0105 9.58283L2.37783 33.9075C2.0295 34.254 1.83333 34.7215 1.83333 35.2128 1.83333 35.7042 2.0295 36.1717 2.37783 36.5182L7.56433 41.6387C7.92183 41.9907 8.3875 42.1667 8.85317 42.1667 9.31883 42.1667 9.7845 41.9907 10.142 41.6387L34.7728 17.3122C35.1193 16.9675 35.3173 16.4982 35.3173 16.0087 35.3173 15.5192 35.123 15.0498 34.7728 14.7052L29.5882 9.58283ZM25.6997 21.1218 23.122 18.5772 28.2993 13.464 30.8752 16.0087 25.6997 21.1218Z" transform="matrix(1 0 -0 1.02273 3 3)"/><path d="M36.6667 7.2655 38.5 7.2655 38.5 5.45417 40.3333 5.45417 40.3333 3.64467 38.5 3.64467 38.5 1.83333 36.6667 1.83333 36.6667 3.64467 34.8333 3.64467 34.8333 5.45417 36.6667 5.45417Z" transform="matrix(1 0 -0 1.02273 3 3)"/><path d="M23.8333 7.2655 25.6667 7.2655 25.6667 5.45417 27.5 5.45417 27.5 3.64467 25.6667 3.64467 25.6667 1.83333 23.8333 1.83333 23.8333 3.64467 22 3.64467 22 5.45417 23.8333 5.45417Z" transform="matrix(1 0 -0 1.02273 3 3)"/><path d="M36.6667 10.8863 38.5 10.8863 38.5 12.6977 36.6667 12.6977Z" transform="matrix(1 0 -0 1.02273 3 3)"/><path d="M40.3333 7.2655 42.1667 7.2655 42.1667 9.075 40.3333 9.075Z" transform="matrix(1 0 -0 1.02273 3 3)"/><path d="M18.3333 9.075 20.1667 9.075 20.1667 10.8863 18.3333 10.8863Z" transform="matrix(1 0 -0 1.02273 3 3)"/><path d="M31.1667 5.45417 33 5.45417 33 7.2655 31.1667 7.2655Z" transform="matrix(1 0 -0 1.02273 3 3)"/><path d="M40.3333 16.3185 38.5 16.3185 38.5 18.128 36.6667 18.128 36.6667 19.9393 38.5 19.9393 38.5 21.7507 40.3333 21.7507 40.3333 19.9393 42.1667 19.9393 42.1667 18.128 40.3333 18.128Z" transform="matrix(1 0 -0 1.02273 3 3)"/></g></g></g><text font-family="Calibri,Calibri_MSFontService,sans-serif" font-weight="700" font-size="20" transform="translate(50.7948 23)">ENHANCEMENT<tspan font-weight="400" font-size="12" x="-44.2558" y="71">An</tspan><tspan font-size="12" x="-28.2558" y="71">Enhancement</tspan><tspan font-weight="400" font-size="12" x="43.2442" y="71">defines work</tspan><tspan font-weight="400" font-size="12" x="108.911" y="71">to </tspan><tspan font-weight="400" font-size="12" x="-44.2558" y="86">be done in order to deliver scoped </tspan><tspan font-size="12" x="-44.2558" y="100">enhancements</tspan><tspan font-weight="400" font-size="12" x="32.2442" y="100">to a </tspan><tspan font-size="12" x="53.5775" y="100">Product </tspan><tspan font-size="12" x="-44.2558" y="114">feature</tspan><tspan font-weight="400" font-size="12" x="-4.7558" y="114">(Enhancements and Epics </tspan><tspan font-weight="400" font-size="12" x="-44.2558" y="129">are equivalent).</tspan></text></g></svg>