<svg width="265" height="265" xmlns="http://www.w3.org/2000/svg" xmlns:xlink="http://www.w3.org/1999/xlink" overflow="hidden"><defs><clipPath id="clip0"><path d="M0 0 265 0 265 265 0 265Z" fill-rule="evenodd" clip-rule="evenodd"/></clipPath><clipPath id="clip1"><path d="M35 51 55 51 55 71 35 71Z" fill-rule="evenodd" clip-rule="evenodd"/></clipPath><clipPath id="clip2"><path d="M35 51 55 51 55 71 35 71Z" fill-rule="evenodd" clip-rule="evenodd"/></clipPath><clipPath id="clip3"><path d="M35 51 55 51 55 71 35 71Z" fill-rule="evenodd" clip-rule="evenodd"/></clipPath><clipPath id="clip4"><path d="M204 81 213 81 213 92 204 92Z" fill-rule="evenodd" clip-rule="evenodd"/></clipPath><clipPath id="clip5"><path d="M204 81 213 81 213 92 204 92Z" fill-rule="evenodd" clip-rule="evenodd"/></clipPath><clipPath id="clip6"><path d="M204 81 213 81 213 92 204 92Z" fill-rule="evenodd" clip-rule="evenodd"/></clipPath><clipPath id="clip7"><path d="M225 166 237 166 237 177 225 177Z" fill-rule="evenodd" clip-rule="evenodd"/></clipPath><clipPath id="clip8"><path d="M225 166 237 166 237 177 225 177Z" fill-rule="evenodd" clip-rule="evenodd"/></clipPath><clipPath id="clip9"><path d="M225 166 237 166 237 177 225 177Z" fill-rule="evenodd" clip-rule="evenodd"/></clipPath></defs><g clip-path="url(#clip0)"><rect x="0" y="0" width="265" height="265" fill="#313131"/><rect x="89.5" y="131.5" width="1.99999" height="1" stroke="#2F528F" stroke-width="1.33585" stroke-miterlimit="8" fill="#4472C4"/><path d="M23.5 9.75271C23.5 8.50859 24.5085 7.50003 25.7527 7.50003L249.247 7.50003C250.491 7.50003 251.5 8.50859 251.5 9.75271L251.5 249.247C251.5 250.491 250.491 251.5 249.247 251.5L25.7527 251.5C24.5085 251.5 23.5 250.491 23.5 249.247Z" stroke="#FF0000" stroke-width="0.667927" stroke-miterlimit="8" stroke-opacity="0" fill="none" fill-rule="evenodd"/><path d="M30.0794 43.5 149.921 43.5C153.002 43.5 155.5 45.998 155.5 49.0794L155.5 214.252C155.5 216.598 153.598 218.5 151.252 218.5L28.7483 218.5C26.402 218.5 24.5 216.598 24.5 214.252L24.5 49.0794C24.5 45.998 26.998 43.5 30.0794 43.5Z" stroke="#D2F53C" stroke-width="4.67549" stroke-miterlimit="8" fill="#FFFFFF" fill-rule="evenodd"/><g clip-path="url(#clip1)"><g clip-path="url(#clip2)"><g clip-path="url(#clip3)"><path d="M49.6261 61.7573C49.9823 63.2021 48.498 64.6271 47.0334 64.0333 45.8063 63.5979 45.3313 62.1729 46.1823 60.9458 48.1021 58.3927 46.6969 54.375 43.5104 52.9895 44.9552 55.7208 42.7386 58.2343 41.4719 59.2833 40.2052 60.3323 39.3542 61.4208 39.0969 62.0541 37.8104 65.1812 39.7302 68.1698 41.0365 68.8823 40.4427 67.5364 39.8886 64.9635 42.224 62.5489 42.224 62.5489 41.5511 65.1219 43.0156 66.9031 44.4802 68.6844 44.4604 70.0104 44.4604 70.0104 46.7365 70.0104 48.8938 68.6448 49.8042 66.4083 50.4969 65.0823 50.5563 62.9844 49.6261 61.7573"/></g></g></g><path d="M26.9702 6.36947C18.5628 6.36947 11.7473 10.3112 11.7473 15.1736L11.7473 248.948C11.7473 253.81 18.5628 257.752 26.9702 257.752L238.08 257.752C246.487 257.752 253.302 253.81 253.302 248.948L253.302 15.1736C253.302 10.3112 246.487 6.36947 238.08 6.36947ZM0 0 265 0 265 265 0 265Z" fill="#D2F53C" fill-rule="evenodd"/><text font-family="Calibri,Calibri_MSFontService,sans-serif" font-weight="700" font-size="11" transform="translate(88.991 63)">RISK<tspan font-weight="400" font-size="9" x="-57.7007" y="40">Business </tspan><tspan font-size="9" x="-22.9685" y="40">Risk</tspan><tspan font-weight="400" font-size="9" x="-4.93446" y="40">is the exposure </tspan><tspan font-weight="400" font-size="9" x="-57.7007" y="51">of a company or organization </tspan><tspan font-weight="400" font-size="9" x="-57.7007" y="62">to factor(s) that can affect its </tspan><tspan font-weight="400" font-size="9" x="-57.7007" y="73">viability. </tspan><tspan font-size="9" x="-23.6364" y="73">Risks</tspan><tspan font-weight="400" font-size="9" x="-1.92879" y="73">types can </tspan><tspan font-weight="400" font-size="9" x="-57.7007" y="85">range from strategic to </tspan><tspan font-weight="400" font-size="9" x="-57.7007" y="96">operational and thus can be </tspan><tspan font-weight="400" font-size="9" x="-57.7007" y="107">linked to various components </tspan><tspan font-weight="400" font-size="9" x="-57.7007" y="118">of a company’s business </tspan><tspan font-weight="400" font-size="9" x="-57.7007" y="129">model.</tspan></text><path d="M203.5 84.5C203.5 83.9477 203.948 83.5 204.5 83.5L247.5 83.5C248.052 83.5 248.5 83.9477 248.5 84.5L248.5 88.5C248.5 89.0523 248.052 89.5 247.5 89.5L204.5 89.5C203.948 89.5 203.5 89.0523 203.5 88.5Z" stroke="#000080" stroke-width="1.33585" stroke-miterlimit="8" fill="#FFFFFF" fill-rule="evenodd"/><text font-family="Calibri,Calibri_MSFontService,sans-serif" font-weight="700" font-size="5" transform="translate(214.887 87)">ENHANCEMENT</text><g clip-path="url(#clip4)"><g clip-path="url(#clip5)"><g clip-path="url(#clip6)"><path d="M6.05211 1.96012C5.90548 1.81574 5.67111 1.81574 5.52486 1.96012L0.486374 6.93561C0.415124 7.00648 0.374999 7.1021 0.374999 7.2026 0.374999 7.3031 0.415124 7.39873 0.486374 7.4696L1.54725 8.51697C1.62037 8.58897 1.71562 8.62497 1.81087 8.62497 1.90612 8.62497 2.00137 8.58897 2.07449 8.51697L7.1126 3.54111C7.18348 3.47061 7.22398 3.37461 7.22398 3.27449 7.22398 3.17437 7.18423 3.07837 7.1126 3.00787L6.05211 1.96012ZM5.25673 4.32036 4.72949 3.79986 5.78848 2.75399 6.31536 3.27449 5.25673 4.32036Z" transform="matrix(1 0 -0 1.00001 204 82)"/><path d="M7.49998 1.48612 7.87498 1.48612 7.87498 1.11562 8.24998 1.11562 8.24998 0.745498 7.87498 0.745498 7.87498 0.374999 7.49998 0.374999 7.49998 0.745498 7.12498 0.745498 7.12498 1.11562 7.49998 1.11562Z" transform="matrix(1 0 -0 1.00001 204 82)"/><path d="M4.87499 1.48612 5.24998 1.48612 5.24998 1.11562 5.62498 1.11562 5.62498 0.745498 5.24998 0.745498 5.24998 0.374999 4.87499 0.374999 4.87499 0.745498 4.49999 0.745498 4.49999 1.11562 4.87499 1.11562Z" transform="matrix(1 0 -0 1.00001 204 82)"/><path d="M7.49998 2.22674 7.87498 2.22674 7.87498 2.59724 7.49998 2.59724Z" transform="matrix(1 0 -0 1.00001 204 82)"/><path d="M8.24998 1.48612 8.62497 1.48612 8.62497 1.85624 8.24998 1.85624Z" transform="matrix(1 0 -0 1.00001 204 82)"/><path d="M3.74999 1.85624 4.12499 1.85624 4.12499 2.22674 3.74999 2.22674Z" transform="matrix(1 0 -0 1.00001 204 82)"/><path d="M6.37498 1.11562 6.74998 1.11562 6.74998 1.48612 6.37498 1.48612Z" transform="matrix(1 0 -0 1.00001 204 82)"/><path d="M8.24998 3.33787 7.87498 3.33787 7.87498 3.70799 7.49998 3.70799 7.49998 4.07849 7.87498 4.07849 7.87498 4.44899 8.24998 4.44899 8.24998 4.07849 8.62497 4.07849 8.62497 3.70799 8.24998 3.70799Z" transform="matrix(1 0 -0 1.00001 204 82)"/></g></g></g><path d="M226.5 169.5C226.5 168.948 226.948 168.5 227.5 168.5L247.5 168.5C248.052 168.5 248.5 168.948 248.5 169.5L248.5 173.5C248.5 174.052 248.052 174.5 247.5 174.5L227.5 174.5C226.948 174.5 226.5 174.052 226.5 173.5Z" stroke="#000080" stroke-width="1.33585" stroke-miterlimit="8" fill="#FFFFFF" fill-rule="evenodd"/><text font-family="Calibri,Calibri_MSFontService,sans-serif" font-weight="700" font-size="5" transform="translate(237.317 172)">EPIC</text><g clip-path="url(#clip7)"><g clip-path="url(#clip8)"><g clip-path="url(#clip9)"><path d="M8.43789 2.08333 6.66706 2.08333 6.66706 1.25 4.16707 1.25 4.16707 0.833331C4.16707 0.603332 3.98041 0.416665 3.75041 0.416665 3.52041 0.416665 3.33374 0.603332 3.33374 0.833331L3.33374 1.25 3.33374 4.58332 3.33374 7.08331 2.08374 7.08331C1.92583 7.08331 1.78166 7.17248 1.71083 7.31373L0.877497 8.98039C0.774581 9.18622 0.857914 9.43706 1.06375 9.53956 1.27041 9.64206 1.51958 9.55914 1.62291 9.35372L2.34124 7.91664 5.15957 7.91664 5.8779 9.35289C5.95082 9.49914 6.0979 9.58331 6.25081 9.58331 6.3129 9.58331 6.37748 9.56914 6.43665 9.53956 6.64248 9.43706 6.7254 9.18622 6.6229 8.98039L5.78957 7.31373C5.71915 7.17248 5.57498 7.08331 5.41707 7.08331L4.16707 7.08331 4.16707 4.58332 5.83373 4.58332 5.83373 5.41665 8.43789 5.41665C8.84622 5.41665 9.16706 5.05082 9.16706 4.58332L9.16706 2.91666C9.16706 2.44916 8.84622 2.08333 8.43789 2.08333ZM4.16707 3.74999 4.16707 2.08333 5.83373 2.08333 5.83373 3.74999 4.16707 3.74999ZM8.33372 4.58332 6.66706 4.58332 6.66706 2.91666 8.33372 2.91666 8.33372 4.58332Z" transform="matrix(1.00001 0 -0 1 226 166)"/></g></g></g><path d="M164.24 83 194.76 83C198.759 83 202 86.134 202 90 202 93.866 198.759 97 194.76 97L164.24 97C160.241 97 157 93.866 157 90 157 86.134 160.241 83 164.24 83Z" fill="#313131" fill-rule="evenodd"/><text fill="#FFFFFF" font-family="Calibri,Calibri_MSFontService,sans-serif" font-weight="700" font-size="5" transform="translate(169.91 92)">|Tracks&gt;</text><path d="M167.779 168 213.221 168C219.174 168 224 170.91 224 174.5 224 178.09 219.174 181 213.221 181L167.779 181C161.826 181 157 178.09 157 174.5 157 170.91 161.826 168 167.779 168Z" fill="#313131" fill-rule="evenodd"/><text fill="#FFFFFF" font-family="Calibri,Calibri_MSFontService,sans-serif" font-weight="700" font-size="5" transform="translate(181.265 176)">|Tracks&gt;</text></g></svg>