<svg width="189" height="189" xmlns="http://www.w3.org/2000/svg" xmlns:xlink="http://www.w3.org/1999/xlink" overflow="hidden"><defs><clipPath id="clip0"><path d="M0 0 189 0 189 189 0 189Z" fill-rule="evenodd" clip-rule="evenodd"/></clipPath><clipPath id="clip1"><path d="M3 3 47 3 47 48 3 48Z" fill-rule="evenodd" clip-rule="evenodd"/></clipPath><clipPath id="clip2"><path d="M3 3 47 3 47 48 3 48Z" fill-rule="evenodd" clip-rule="evenodd"/></clipPath><clipPath id="clip3"><path d="M3 3 47 3 47 48 3 48Z" fill-rule="evenodd" clip-rule="evenodd"/></clipPath></defs><g clip-path="url(#clip0)"><rect x="0" y="0" width="189" height="189" fill="#313131"/><text fill="#FFFFFF" font-family="Calibri,Calibri_MSFontService,sans-serif" font-weight="300" font-size="11" transform="translate(9.60032 -5)">TASK</text><rect x="3.50005" y="3.50005" width="1" height="1" stroke="#2F528F" stroke-width="1.33333" stroke-miterlimit="8" fill="#4472C4"/><rect x="0" y="0" width="189" height="189" stroke="#377692" stroke-width="8" stroke-miterlimit="8" fill="#FFFFFF"/><g clip-path="url(#clip1)"><g clip-path="url(#clip2)"><g clip-path="url(#clip3)"><path d="M19.8843 27.1333 15.653 22.7333 12.8333 25.6667 19.8843 33 19.8843 32.9982 19.888 33 31.1667 21.2667 28.347 18.3333Z" transform="matrix(1 0 -0 1.02273 3 3)"/><path d="M36.6667 5.5 31.1667 5.5 31.1667 3.66667C31.1667 2.65467 30.3472 1.83333 29.3333 1.83333L14.6667 1.83333C13.6547 1.83333 12.8333 2.65467 12.8333 3.66667L12.8333 5.5 7.33333 5.5C6.32133 5.5 5.5 6.32133 5.5 7.33333L5.5 40.3333C5.5 41.3472 6.32133 42.1667 7.33333 42.1667L36.6667 42.1667C37.6805 42.1667 38.5 41.3472 38.5 40.3333L38.5 7.33333C38.5 6.32133 37.6805 5.5 36.6667 5.5ZM16.5 5.5 27.5 5.5 27.5 9.16667 16.5 9.16667 16.5 5.5ZM34.8333 38.5 9.16667 38.5 9.16667 9.16667 12.8333 9.16667 12.8333 11C12.8333 12.012 13.6547 12.8333 14.6667 12.8333L29.3333 12.8333C30.3472 12.8333 31.1667 12.012 31.1667 11L31.1667 9.16667 34.8333 9.16667 34.8333 38.5Z" transform="matrix(1 0 -0 1.02273 3 3)"/></g></g></g><text font-family="Calibri,Calibri_MSFontService,sans-serif" font-weight="700" font-size="20" transform="translate(96.2481 23)">TASK<tspan font-weight="400" font-size="12" x="-89.7091" y="86">A granular unit of work in a </tspan><tspan font-weight="400" font-size="12" x="-89.7091" y="101">business </tspan><tspan font-size="12" x="-45.2091" y="101">Process</tspan><tspan font-weight="400" font-size="12" x="-4.70914" y="101">that achieves </tspan><tspan font-weight="400" font-size="12" x="-89.7091" y="115">some tangible business </tspan><tspan font-size="12" x="26.4575" y="115">Outcome</tspan><tspan font-weight="400" font-size="12" x="72.6242" y="115">.</tspan></text></g></svg>