<svg width="189" height="189" xmlns="http://www.w3.org/2000/svg" xmlns:xlink="http://www.w3.org/1999/xlink" overflow="hidden"><defs><clipPath id="clip0"><path d="M0 0 189 0 189 189 0 189Z" fill-rule="evenodd" clip-rule="evenodd"/></clipPath><clipPath id="clip1"><path d="M3 3 47 3 47 48 3 48Z" fill-rule="evenodd" clip-rule="evenodd"/></clipPath><clipPath id="clip2"><path d="M3 3 47 3 47 48 3 48Z" fill-rule="evenodd" clip-rule="evenodd"/></clipPath><clipPath id="clip3"><path d="M3 3 47 3 47 48 3 48Z" fill-rule="evenodd" clip-rule="evenodd"/></clipPath></defs><g clip-path="url(#clip0)"><rect x="0" y="0" width="189" height="189" fill="#313131"/><text fill="#FFFFFF" font-family="Calibri,Calibri_MSFontService,sans-serif" font-weight="300" font-size="11" transform="translate(9.60032 -5)">VALUATION</text><rect x="3.50005" y="3.50005" width="1" height="1" stroke="#2F528F" stroke-width="1.33333" stroke-miterlimit="8" fill="#4472C4"/><rect x="0" y="0" width="189" height="189" stroke="#918396" stroke-width="8" stroke-miterlimit="8" fill="#FFFFFF"/><g clip-path="url(#clip1)"><g clip-path="url(#clip2)"><g clip-path="url(#clip3)"><path d="M29.5258 33 14.4008 33C12.5024 33 10.9633 34.539 10.9633 36.4375 10.9633 38.336 12.5024 39.875 14.4008 39.875L29.5258 39.875C31.4243 39.875 32.9633 38.336 32.9633 36.4375 32.9633 34.539 31.4243 33 29.5258 33ZM15.3175 37.8125C14.5581 37.8125 13.9425 37.1969 13.9425 36.4375 13.9425 35.6781 14.5581 35.0625 15.3175 35.0625 16.0769 35.0625 16.6925 35.6781 16.6925 36.4375 16.6925 37.1969 16.0769 37.8125 15.3175 37.8125ZM21.9633 37.8125C21.2039 37.8125 20.5883 37.1969 20.5883 36.4375 20.5883 35.6781 21.2039 35.0625 21.9633 35.0625 22.7227 35.0625 23.3383 35.6781 23.3383 36.4375 23.3383 37.1969 22.7227 37.8125 21.9633 37.8125ZM28.6092 37.8125C27.8498 37.8125 27.2342 37.1969 27.2342 36.4375 27.2342 35.6781 27.8498 35.0625 28.6092 35.0625 29.3686 35.0625 29.9842 35.6781 29.9842 36.4375 29.9842 37.1969 29.3686 37.8125 28.6092 37.8125Z" transform="matrix(1 0 -0 1.02273 3 3)"/><path d="M25.1304 12.8333C25.1304 13.213 24.8226 13.5208 24.4429 13.5208 24.0632 13.5208 23.7554 13.213 23.7554 12.8333 23.7554 12.4536 24.0632 12.1458 24.4429 12.1458 24.8226 12.1458 25.1304 12.4536 25.1304 12.8333Z" transform="matrix(1 0 -0 1.02273 3 3)"/><path d="M25.9463 8.25 22.9167 8.25 22.9167 6.16458C23.7936 5.65831 24.094 4.53707 23.5877 3.6602 23.0814 2.78333 21.9602 2.4829 21.0833 2.98916 20.2064 3.49542 19.906 4.61665 20.4123 5.49354 20.5732 5.77225 20.8046 6.00366 21.0833 6.16458L21.0833 8.25 18.0538 8.25C16.9436 8.25252 16.0442 9.15191 16.0417 10.2621L16.0417 15.4046C16.0442 16.5148 16.9436 17.4141 18.0538 17.4167L25.9463 17.4167C27.0564 17.4141 27.9558 16.5148 27.9583 15.4046L27.9583 10.2621C27.9558 9.15191 27.0564 8.25252 25.9463 8.25ZM19.7083 14.2083C18.9489 14.2083 18.3333 13.5927 18.3333 12.8333 18.3333 12.0739 18.9489 11.4583 19.7083 11.4583 20.4677 11.4583 21.0833 12.0739 21.0833 12.8333 21.0833 13.5927 20.4677 14.2083 19.7083 14.2083ZM24.2917 14.2083C23.5323 14.2083 22.9167 13.5927 22.9167 12.8333 22.9167 12.0739 23.5323 11.4583 24.2917 11.4583 25.0511 11.4583 25.6667 12.0739 25.6667 12.8333 25.6667 13.5927 25.0511 14.2083 24.2917 14.2083Z" transform="matrix(1 0 -0 1.02273 3 3)"/><path d="M20.5471 12.8333C20.5471 13.213 20.2393 13.5208 19.8596 13.5208 19.4799 13.5208 19.1721 13.213 19.1721 12.8333 19.1721 12.4536 19.4799 12.1458 19.8596 12.1458 20.2393 12.1458 20.5471 12.4536 20.5471 12.8333Z" transform="matrix(1 0 -0 1.02273 3 3)"/><path d="M33.9167 26.9592 33.9167 23.1413C33.9167 22.0047 32.9953 21.0833 31.8588 21.0833L29.3333 21.0833 29.3333 18.7917 14.6667 18.7917 14.6667 21.5417 11.2246 21.5417C11.1006 21.5417 11 21.4411 11 21.3171L11 17.5175C12.5756 17.0522 13.4756 15.3978 13.0103 13.8222 12.8855 13.3998 12.6686 13.0104 12.375 12.6821L11 13.9012C11.1923 14.1104 11.3015 14.3826 11.3071 14.6667 11.3036 15.2995 10.7878 15.8097 10.155 15.8063 9.5222 15.8028 9.01202 15.287 9.01546 14.6542 9.01693 14.3808 9.11607 14.1171 9.295 13.9104L7.92 12.705C6.83975 13.9461 6.97015 15.8279 8.21122 16.9081 8.492 17.1525 8.81604 17.3421 9.16667 17.4671L9.16667 21.3171C9.16667 22.4537 10.088 23.375 11.2246 23.375L14.6667 23.375 14.6667 31.625 29.3333 31.625 29.3333 22.9167 31.8588 22.9167C31.9828 22.9167 32.0833 23.0172 32.0833 23.1413L32.0833 26.9592C30.5178 27.4656 29.6593 29.1452 30.1658 30.7107 30.2925 31.1025 30.4991 31.4637 30.7725 31.7717L32.1475 30.5525C31.9578 30.3446 31.8532 30.0731 31.8542 29.7917 31.8547 29.1588 32.3681 28.6462 33.001 28.6468 33.6338 28.6473 34.1464 29.1608 34.1458 29.7936 34.1456 30.0712 34.0446 30.3392 33.8617 30.5479L35.2367 31.7533C36.3211 30.5193 36.1999 28.6398 34.9659 27.5554 34.6606 27.287 34.3035 27.0841 33.9167 26.9592ZM27.5 25.2083 26.2258 25.2083C26.1815 25.2163 26.1393 25.2334 26.1021 25.2588L24.6996 26.6933 23.6317 24.1633 21.6379 28.2883 20.24 22.9167 19.1629 25.2083 16.9583 25.2083 16.9583 24.2917 18.5808 24.2917 20.4875 20.2354 21.8992 25.6346 23.6912 21.9679 25.0112 25.0938 25.4696 24.6354C25.6708 24.4317 25.9401 24.3094 26.2258 24.2917L27.5 24.2917Z" transform="matrix(1 0 -0 1.02273 3 3)"/></g></g></g><text font-family="Calibri,Calibri_MSFontService,sans-serif" font-weight="700" font-size="20" transform="translate(68.7881 23)">VALUATION<tspan font-weight="400" font-size="12" x="-62.2491" y="50">Used to estimate or set the value of </tspan><tspan font-weight="400" font-size="12" x="-62.2491" y="65">something, for instance </tspan><tspan font-size="12" x="55.5842" y="65">Valuations</tspan><tspan font-weight="400" font-size="12" x="-62.2491" y="79">are created in the recording of </tspan><tspan font-size="12" x="-62.2491" y="93">Budgets and costs</tspan><tspan font-weight="400" font-size="12" x="30.4175" y="93">of different </tspan><tspan font-weight="400" font-size="12" x="-62.2491" y="108">types (Project, Training) and as </tspan><tspan font-weight="400" font-size="12" x="-62.2491" y="122">estimates or actuals typically </tspan><tspan font-weight="400" font-size="12" x="-62.2491" y="137">against </tspan><tspan font-size="12" x="-24.7491" y="137">Applications</tspan><tspan font-weight="400" font-size="12" x="40.2509" y="137">or </tspan><tspan font-size="12" x="53.4175" y="137">Application </tspan><tspan font-size="12" x="-62.2491" y="151">function</tspan><tspan font-weight="400" font-size="12" x="-20.2491" y="151">.</tspan></text></g></svg>