<svg width="189" height="189" xmlns="http://www.w3.org/2000/svg" xmlns:xlink="http://www.w3.org/1999/xlink" overflow="hidden"><defs><clipPath id="clip0"><path d="M0 0 189 0 189 189 0 189Z" fill-rule="evenodd" clip-rule="evenodd"/></clipPath><clipPath id="clip1"><path d="M3 3 47 3 47 48 3 48Z" fill-rule="evenodd" clip-rule="evenodd"/></clipPath><clipPath id="clip2"><path d="M3 3 47 3 47 48 3 48Z" fill-rule="evenodd" clip-rule="evenodd"/></clipPath><clipPath id="clip3"><path d="M3 3 47 3 47 48 3 48Z" fill-rule="evenodd" clip-rule="evenodd"/></clipPath></defs><g clip-path="url(#clip0)"><rect x="0" y="0" width="189" height="189" fill="#313131"/><text fill="#FFFFFF" font-family="Calibri,Calibri_MSFontService,sans-serif" font-weight="300" font-size="11" transform="translate(9.60032 0)">FUNCTION</text><rect x="3.50005" y="3.50005" width="1" height="1" stroke="#2F528F" stroke-width="1.33333" stroke-miterlimit="8" fill="#4472C4"/><rect x="0" y="0" width="189" height="189" stroke="#B74D41" stroke-width="8" stroke-miterlimit="8" fill="#FFFFFF"/><g clip-path="url(#clip1)"><g clip-path="url(#clip2)"><g clip-path="url(#clip3)"><path d="M36.6667 3.66667 7.33333 3.66667C6.32133 3.66667 5.5 4.488 5.5 5.5L5.5 22 5.5 23.8333 5.5 25.6667 9.16667 25.6667 9.16667 23.8333 9.16667 22 9.16667 7.33333 34.8333 7.33333 34.8333 22 34.8333 23.8333 34.8333 25.6667 38.5 25.6667 38.5 23.8333 38.5 22 38.5 5.5C38.5 4.488 37.6805 3.66667 36.6667 3.66667Z" transform="matrix(1 0 -0 1.02273 3 3)"/><path d="M12.8333 36.6667 16.5 36.6667 16.5 40.3333 12.8333 40.3333Z" transform="matrix(1 0 -0 1.02273 3 3)"/><path d="M20.1667 36.6667 23.8333 36.6667 23.8333 40.3333 20.1667 40.3333Z" transform="matrix(1 0 -0 1.02273 3 3)"/><path d="M27.5 36.6667 31.1667 36.6667 31.1667 40.3333 27.5 40.3333Z" transform="matrix(1 0 -0 1.02273 3 3)"/><path d="M34.8333 36.6667 38.5 36.6667 38.5 40.3333 34.8333 40.3333Z" transform="matrix(1 0 -0 1.02273 3 3)"/><path d="M5.5 36.6667 9.16667 36.6667 9.16667 40.3333 5.5 40.3333Z" transform="matrix(1 0 -0 1.02273 3 3)"/><path d="M12.8333 29.3333 16.5 29.3333 16.5 33 12.8333 33Z" transform="matrix(1 0 -0 1.02273 3 3)"/><path d="M20.1667 29.3333 23.8333 29.3333 23.8333 33 20.1667 33Z" transform="matrix(1 0 -0 1.02273 3 3)"/><path d="M27.5 29.3333 31.1667 29.3333 31.1667 33 27.5 33Z" transform="matrix(1 0 -0 1.02273 3 3)"/><path d="M34.8333 29.3333 38.5 29.3333 38.5 33 34.8333 33Z" transform="matrix(1 0 -0 1.02273 3 3)"/><path d="M5.5 29.3333 9.16667 29.3333 9.16667 33 5.5 33Z" transform="matrix(1 0 -0 1.02273 3 3)"/><path d="M12.8333 22 16.5 22 16.5 25.6667 12.8333 25.6667Z" transform="matrix(1 0 -0 1.02273 3 3)"/><path d="M20.1667 22 23.8333 22 23.8333 25.6667 20.1667 25.6667Z" transform="matrix(1 0 -0 1.02273 3 3)"/><path d="M27.5 22 31.1667 22 31.1667 25.6667 27.5 25.6667Z" transform="matrix(1 0 -0 1.02273 3 3)"/><path d="M25.6667 14.6667C25.6667 16.6917 24.025 18.3333 22 18.3333 19.975 18.3333 18.3333 16.6917 18.3333 14.6667 18.3333 12.6416 19.975 11 22 11 24.025 11 25.6667 12.6416 25.6667 14.6667Z" transform="matrix(1 0 -0 1.02273 3 3)"/></g></g></g><text font-family="Calibri,Calibri_MSFontService,sans-serif" font-weight="700" font-size="20" transform="translate(61.4915 23)">APPLICATION <tspan x="11.2533" y="24">FUNCTION</tspan><tspan font-weight="400" font-size="12" x="-54.9525" y="50">Logical elements representing the </tspan><tspan font-weight="400" font-size="12" x="-54.9525" y="65">functions performed by elements </tspan><tspan font-weight="400" font-size="12" x="-54.9525" y="79">of the technology architecture. </tspan><tspan font-size="12" x="-54.9525" y="93">Application functions</tspan><tspan font-weight="400" font-size="12" x="54.7142" y="93">are </tspan><tspan font-weight="400" font-size="12" x="-54.9525" y="108">expressed in terms of  functional </tspan><tspan font-weight="400" font-size="12" x="-54.9525" y="122">purpose, agnostic of their usage </tspan><tspan font-weight="400" font-size="12" x="-54.9525" y="137">context. </tspan><tspan font-size="12" x="-12.4525" y="137">Application functions</tspan><tspan font-weight="400" font-size="12" x="97.2142" y="137">may </tspan><tspan font-weight="400" font-size="12" x="-54.9525" y="151">be grouped as </tspan><tspan font-size="12" x="16.8808" y="151">Applications</tspan><tspan font-weight="400" font-size="12" x="79.2142" y="151">.</tspan></text></g></svg>