<svg width="189" height="189" xmlns="http://www.w3.org/2000/svg" xmlns:xlink="http://www.w3.org/1999/xlink" overflow="hidden"><defs><clipPath id="clip0"><path d="M0 0 189 0 189 189 0 189Z" fill-rule="evenodd" clip-rule="evenodd"/></clipPath><clipPath id="clip1"><path d="M3 3 47 3 47 48 3 48Z" fill-rule="evenodd" clip-rule="evenodd"/></clipPath><clipPath id="clip2"><path d="M3 3 47 3 47 48 3 48Z" fill-rule="evenodd" clip-rule="evenodd"/></clipPath><clipPath id="clip3"><path d="M3 3 47 3 47 48 3 48Z" fill-rule="evenodd" clip-rule="evenodd"/></clipPath></defs><g clip-path="url(#clip0)"><rect x="0" y="0" width="189" height="189" fill="#313131"/><text fill="#FFFFFF" font-family="Calibri,Calibri_MSFontService,sans-serif" font-weight="300" font-size="11" transform="translate(9.60032 -5)">NEED</text><rect x="3.50005" y="3.50005" width="1" height="1" stroke="#2F528F" stroke-width="1.33333" stroke-miterlimit="8" fill="#4472C4"/><rect x="0" y="0" width="189" height="189" stroke="#FABEBE" stroke-width="8" stroke-miterlimit="8" fill="#FFFFFF"/><g clip-path="url(#clip1)"><g clip-path="url(#clip2)"><g clip-path="url(#clip3)"><path d="M34.8113 9.16667 32.9817 9.16667C32.9817 7.1445 31.3372 5.5 29.315 5.5L27.4853 5.5C27.4853 3.47783 25.8427 1.83333 23.8205 1.83333L21.989 1.83333C19.9668 1.83333 18.3242 3.47783 18.3242 5.5L16.4945 5.5C14.4742 5.5 12.8297 7.1445 12.8297 9.16667L12.8297 14.6667 10.9982 14.6667C8.97783 14.6667 7.33333 16.3112 7.33333 18.3333L7.33333 29.3333C7.33333 29.7 7.44333 30.041 7.63217 30.327L11.187 37.5375C11.495 38.1645 12.133 38.5605 12.8315 38.5605L32.9817 38.5605C33.6783 38.5605 34.3145 38.1645 34.6243 37.5412L38.3112 30.1088C38.4762 29.777 38.5293 29.4085 38.4817 29.0547L38.4817 12.8333C38.4743 10.8112 36.8335 9.16667 34.8113 9.16667ZM34.8077 28.9117 31.8432 34.8938 13.97 34.8938 11 28.8677 10.9982 18.3333 12.8297 18.3333 12.8297 25.6667C12.8297 26.6805 13.651 27.5 14.663 27.5 15.675 27.5 16.4963 26.6805 16.4963 25.6667L16.4963 9.16667 18.326 9.16667 18.326 20.1667C18.326 21.1787 19.1455 22 20.1593 22 21.1732 22 21.9927 21.1787 21.9927 20.1667L21.9927 5.5 23.8205 5.5 23.8205 9.16667 23.8205 20.1667C23.8205 21.1787 24.6382 22 25.6538 22 26.6677 22 27.4872 21.1787 27.4872 20.1667L27.4872 9.16667 29.3168 9.16667 29.3168 12.8333 29.3168 20.1667C29.3168 21.1787 30.1345 22 31.1502 22 32.164 22 32.9835 21.1787 32.9835 20.1667L32.9835 12.8333 34.8113 12.8333 34.8113 28.9117 34.8077 28.9117Z" transform="matrix(1 0 -0 1.02273 3 3)"/><path d="M34.8113 40.3333 10.9982 40.3333C9.98617 40.3333 9.16483 41.1528 9.16483 42.1667 9.16483 43.1805 9.98617 44 10.9982 44L34.8113 44C35.8252 44 36.6447 43.1805 36.6447 42.1667 36.6447 41.1528 35.8252 40.3333 34.8113 40.3333Z" transform="matrix(1 0 -0 1.02273 3 3)"/></g></g></g><text font-family="Calibri,Calibri_MSFontService,sans-serif" font-weight="700" font-size="20" transform="translate(93.9615 23)">NEED<tspan font-weight="400" font-size="12" x="-87.4225" y="86">A </tspan><tspan font-size="12" x="-77.7558" y="86">Need</tspan><tspan font-weight="400" font-size="12" x="-48.7558" y="86">is a request formulated by a </tspan><tspan font-weight="400" font-size="12" x="-87.4225" y="101">party so that it can enjoy new </tspan><tspan font-size="12" x="-87.4225" y="115">Benefits</tspan><tspan font-weight="400" font-size="12" x="-46.4225" y="115">.</tspan></text></g></svg>