<svg width="189" height="189" xmlns="http://www.w3.org/2000/svg" xmlns:xlink="http://www.w3.org/1999/xlink" overflow="hidden"><defs><clipPath id="clip0"><path d="M0 0 189 0 189 189 0 189Z" fill-rule="evenodd" clip-rule="evenodd"/></clipPath><clipPath id="clip1"><path d="M3 3 47 3 47 48 3 48Z" fill-rule="evenodd" clip-rule="evenodd"/></clipPath><clipPath id="clip2"><path d="M3 3 47 3 47 48 3 48Z" fill-rule="evenodd" clip-rule="evenodd"/></clipPath><clipPath id="clip3"><path d="M3 3 47 3 47 48 3 48Z" fill-rule="evenodd" clip-rule="evenodd"/></clipPath></defs><g clip-path="url(#clip0)"><rect x="0" y="0" width="189" height="189" fill="#313131"/><text fill="#FFFFFF" font-family="Calibri,Calibri_MSFontService,sans-serif" font-weight="300" font-size="11" transform="translate(9.60032 0)">UNIT</text><rect x="3.50005" y="3.50005" width="1" height="1" stroke="#2F528F" stroke-width="1.33333" stroke-miterlimit="8" fill="#4472C4"/><rect x="0" y="0" width="189" height="189" stroke="#CEB023" stroke-width="8" stroke-miterlimit="8" fill="#FFFFFF"/><g clip-path="url(#clip1)"><g clip-path="url(#clip2)"><g clip-path="url(#clip3)"><path d="M14.6667 40.3333 3.66667 40.3333C2.65467 40.3333 1.83333 39.5138 1.83333 38.5L1.83333 31.1667C1.83333 30.1528 2.65467 29.3333 3.66667 29.3333L14.6667 29.3333C15.6787 29.3333 16.5 30.1528 16.5 31.1667L16.5 38.5C16.5 39.5138 15.6787 40.3333 14.6667 40.3333ZM5.5 36.6667 12.8333 36.6667 12.8333 33 5.5 33 5.5 36.6667Z" transform="matrix(1 0 -0 1.02273 4.83333 4.875)"/><path d="M25.6667 12.8333 14.6667 12.8333C13.6547 12.8333 12.8333 12.012 12.8333 11L12.8333 3.66667C12.8333 2.65467 13.6547 1.83333 14.6667 1.83333L25.6667 1.83333C26.6805 1.83333 27.5 2.65467 27.5 3.66667L27.5 11C27.5 12.012 26.6805 12.8333 25.6667 12.8333ZM16.5 9.16667 23.8333 9.16667 23.8333 5.5 16.5 5.5 16.5 9.16667Z" transform="matrix(1 0 -0 1.02273 4.83333 4.875)"/><path d="M36.6667 29.3333 25.6667 29.3333C24.6528 29.3333 23.8333 30.1528 23.8333 31.1667L23.8333 38.5C23.8333 39.5138 24.6528 40.3333 25.6667 40.3333L36.6667 40.3333C37.6805 40.3333 38.5 39.5138 38.5 38.5L38.5 31.1667C38.5 30.1528 37.6805 29.3333 36.6667 29.3333Z" transform="matrix(1 0 -0 1.02273 4.83333 4.875)"/><path d="M29.3333 25.6667C28.3195 25.6667 27.5 24.8472 27.5 23.8333L27.5 21.0833C27.5 20.57 27.0985 20.1667 26.5888 20.1667L13.7445 20.1667C13.2422 20.1667 12.8333 20.5773 12.8333 21.0833L12.8333 23.8333C12.8333 24.8472 12.012 25.6667 11 25.6667 9.988 25.6667 9.16667 24.8472 9.16667 23.8333L9.16667 21.0833C9.16667 18.557 11.22 16.5 13.7445 16.5L26.5888 16.5C29.1133 16.5 31.1667 18.557 31.1667 21.0833L31.1667 23.8333C31.1667 24.8472 30.3472 25.6667 29.3333 25.6667Z" transform="matrix(1 0 -0 1.02273 4.83333 4.875)"/></g></g></g><text font-family="Calibri,Calibri_MSFontService,sans-serif" font-weight="700" font-size="20" transform="translate(51.8581 23)">ORGANISATION <tspan x="44.1867" y="24">UNIT</tspan><tspan font-weight="400" font-size="12" x="-45.3191" y="71">A segment of an organisation </tspan><tspan font-weight="400" font-size="12" x="-45.3191" y="86">having a designated accountable </tspan><tspan font-weight="400" font-size="12" x="-45.3191" y="100">manager. </tspan><tspan font-size="12" x="3.51423" y="100">Organisation units</tspan><tspan font-weight="400" font-size="12" x="98.5142" y="100">may </tspan><tspan font-weight="400" font-size="12" x="-45.3191" y="114">exist at any level within an </tspan><tspan font-weight="400" font-size="12" x="-45.3191" y="129">organisational structure.</tspan></text></g></svg>