<svg width="189" height="189" xmlns="http://www.w3.org/2000/svg" xmlns:xlink="http://www.w3.org/1999/xlink" overflow="hidden"><defs><clipPath id="clip0"><path d="M0 0 189 0 189 189 0 189Z" fill-rule="evenodd" clip-rule="evenodd"/></clipPath><clipPath id="clip1"><path d="M3 3 47 3 47 48 3 48Z" fill-rule="evenodd" clip-rule="evenodd"/></clipPath><clipPath id="clip2"><path d="M3 3 47 3 47 48 3 48Z" fill-rule="evenodd" clip-rule="evenodd"/></clipPath><clipPath id="clip3"><path d="M3 3 47 3 47 48 3 48Z" fill-rule="evenodd" clip-rule="evenodd"/></clipPath></defs><g clip-path="url(#clip0)"><rect x="0" y="0" width="189" height="189" fill="#313131"/><text fill="#FFFFFF" font-family="Calibri,Calibri_MSFontService,sans-serif" font-weight="300" font-size="11" transform="translate(9.60032 -5)">SYSTEM</text><rect x="3.50005" y="3.50005" width="1" height="1" stroke="#2F528F" stroke-width="1.33333" stroke-miterlimit="8" fill="#4472C4"/><rect x="0" y="0" width="189" height="189" stroke="#B74D41" stroke-width="8" stroke-miterlimit="8" fill="#FFFFFF"/><g clip-path="url(#clip1)"><g clip-path="url(#clip2)"><g clip-path="url(#clip3)"><path d="M40.3333 23.8333C41.3472 23.8333 42.1667 23.0138 42.1667 22 42.1667 20.988 41.3472 20.1667 40.3333 20.1667L33 20.1667 33 16.5 40.3333 16.5C41.3472 16.5 42.1667 15.6787 42.1667 14.6667 42.1667 13.6547 41.3472 12.8333 40.3333 12.8333L33 12.8333C33 11.8213 32.1805 11 31.1667 11L31.1667 5.5C31.1667 4.488 30.3472 3.66667 29.3333 3.66667 28.3195 3.66667 27.5 4.488 27.5 5.5L27.5 11 23.8333 11 23.8333 5.5C23.8333 4.488 23.0138 3.66667 22 3.66667 20.988 3.66667 20.1667 4.488 20.1667 5.5L20.1667 11 16.5 11 16.5 5.5C16.5 4.488 15.6787 3.66667 14.6667 3.66667 13.6547 3.66667 12.8333 4.488 12.8333 5.5L12.8333 11C11.8213 11 11 11.8213 11 12.8333L3.66667 12.8333C2.65467 12.8333 1.83333 13.6547 1.83333 14.6667 1.83333 15.6787 2.65467 16.5 3.66667 16.5L11 16.5 11 20.1667 3.66667 20.1667C2.65467 20.1667 1.83333 20.988 1.83333 22 1.83333 23.0138 2.65467 23.8333 3.66667 23.8333L11 23.8333 11 27.5 3.66667 27.5C2.65467 27.5 1.83333 28.3195 1.83333 29.3333 1.83333 30.3472 2.65467 31.1667 3.66667 31.1667L11 31.1667C11 32.1805 11.8213 33 12.8333 33L12.8333 38.5C12.8333 39.5138 13.6547 40.3333 14.6667 40.3333 15.6787 40.3333 16.5 39.5138 16.5 38.5L16.5 33 20.1667 33 20.1667 38.5C20.1667 39.5138 20.988 40.3333 22 40.3333 23.0138 40.3333 23.8333 39.5138 23.8333 38.5L23.8333 33 27.5 33 27.5 38.5C27.5 39.5138 28.3195 40.3333 29.3333 40.3333 30.3472 40.3333 31.1667 39.5138 31.1667 38.5L31.1667 33C32.1805 33 33 32.1805 33 31.1667L40.3333 31.1667C41.3472 31.1667 42.1667 30.3472 42.1667 29.3333 42.1667 28.3195 41.3472 27.5 40.3333 27.5L33 27.5 33 23.8333 40.3333 23.8333ZM14.6667 29.3333 14.6667 14.6667 29.3333 14.6667 29.3333 29.3333 14.6667 29.3333Z" transform="matrix(1 0 -0 1.02273 3 3)"/></g></g></g><text font-family="Calibri,Calibri_MSFontService,sans-serif" font-weight="700" font-size="20" transform="translate(83.8948 23)">SYSTEM<tspan font-weight="400" font-size="12" x="-77.3558" y="64">An installed software </tspan><tspan font-size="12" x="28.4775" y="64">System</tspan><tspan font-weight="400" font-size="12" x="67.3109" y="64">which </tspan><tspan font-weight="400" font-size="12" x="-77.3558" y="79">is implemented to enable (possibly </tspan><tspan font-weight="400" font-size="12" x="-77.3558" y="93">in conjunction with other </tspan><tspan font-size="12" x="48.6442" y="93">Systems</tspan><tspan font-weight="400" font-size="12" x="89.6442" y="93">) </tspan><tspan font-weight="400" font-size="12" x="-77.3558" y="107">one or more business </tspan><tspan font-size="12" x="30.4775" y="107">Application </tspan><tspan font-size="12" x="-77.3558" y="122">functions</tspan><tspan font-weight="400" font-size="12" x="-30.5225" y="122">. </tspan><tspan font-size="12" x="-24.8558" y="122">Systems</tspan><tspan font-weight="400" font-size="12" x="18.8109" y="122">decompose into </tspan><tspan font-size="12" x="-77.3558" y="136">System Components</tspan><tspan font-weight="400" font-size="12" x="25.1442" y="136">.</tspan></text></g></svg>