<svg width="265" height="265" xmlns="http://www.w3.org/2000/svg" xmlns:xlink="http://www.w3.org/1999/xlink" overflow="hidden"><defs><clipPath id="clip0"><path d="M0 0 265 0 265 265 0 265Z" fill-rule="evenodd" clip-rule="evenodd"/></clipPath></defs><g clip-path="url(#clip0)"><rect x="0" y="0" width="265" height="265" fill="#911EB4"/><text fill="#FFFFFF" font-family="Calibri,Calibri_MSFontService,sans-serif" font-weight="700" font-size="24" transform="translate(106.387 44)">ENDS<tspan font-size="14" x="-74.0593" y="65">Ends</tspan><tspan font-size="14" x="-42.099" y="65">define</tspan><tspan font-size="14" x="-0.620705" y="65">the</tspan><tspan font-size="14" x="23.1575" y="65">target</tspan><tspan font-size="14" x="62.799" y="65">states</tspan><tspan font-size="14" x="102.106" y="65">that</tspan><tspan font-size="14" x="-74.0593" y="82">the</tspan><tspan font-size="14" x="-50.6484" y="82">business</tspan><tspan font-size="14" x="3.48705" y="82">will</tspan><tspan font-size="14" x="28.5677" y="82">strive</tspan><tspan font-size="14" x="65.3371" y="82">to</tspan><tspan font-size="14" x="81.7347" y="82">achieve</tspan><tspan font-size="14" x="-74.0593" y="99">(expressed</tspan><tspan font-size="14" x="-0.861153" y="99">as</tspan><tspan font-size="14" x="21.5678" y="99">Desired</tspan><tspan font-size="14" x="76.0573" y="99">Results)</tspan><tspan font-size="14" x="122.478" y="99">.</tspan><tspan font-size="14" x="-74.0593" y="116">They</tspan><tspan font-size="14" x="-26.3559" y="116">establish</tspan><tspan font-size="14" x="45.2258" y="116">“what”</tspan><tspan font-size="14" x="106.782" y="116">the</tspan><tspan font-size="14" x="-74.0593" y="132">business</tspan><tspan font-size="14" x="-18.9219" y="132">will</tspan><tspan font-size="14" x="7.16064" y="132">do</tspan><tspan font-size="14" x="27.2318" y="132">to</tspan><tspan font-size="14" x="44.6313" y="132">achieve</tspan><tspan font-size="14" x="94.0913" y="132">these</tspan><tspan font-size="14" x="-74.0593" y="149">states</tspan><tspan font-size="14" x="-30.4102" y="149">and</tspan><tspan font-size="14" x="0.214211" y="149">are</tspan><tspan font-size="14" x="27.833" y="149">inspired</tspan><tspan font-size="14" x="83.8387" y="149">by</tspan><tspan font-size="14" x="106.782" y="149">the</tspan><tspan font-size="14" x="-74.0593" y="166">organisational</tspan><tspan font-size="14" x="12.4373" y="166">Vision</tspan><tspan font-size="14" x="48.5053" y="166">.</tspan></text></g></svg>