<svg width="189" height="189" xmlns="http://www.w3.org/2000/svg" xmlns:xlink="http://www.w3.org/1999/xlink" overflow="hidden"><defs><clipPath id="clip0"><path d="M0 0 189 0 189 189 0 189Z" fill-rule="evenodd" clip-rule="evenodd"/></clipPath><clipPath id="clip1"><path d="M3 3 47 3 47 48 3 48Z" fill-rule="evenodd" clip-rule="evenodd"/></clipPath><clipPath id="clip2"><path d="M3 3 47 3 47 48 3 48Z" fill-rule="evenodd" clip-rule="evenodd"/></clipPath><clipPath id="clip3"><path d="M3 3 47 3 47 48 3 48Z" fill-rule="evenodd" clip-rule="evenodd"/></clipPath></defs><g clip-path="url(#clip0)"><rect x="0" y="0" width="189" height="189" fill="#313131"/><text fill="#FFFFFF" font-family="Calibri,Calibri_MSFontService,sans-serif" font-weight="300" font-size="11" transform="translate(9.60032 -5)">LEGISLATION</text><rect x="3.50005" y="3.50005" width="1" height="1" stroke="#2F528F" stroke-width="1.33333" stroke-miterlimit="8" fill="#4472C4"/><rect x="0" y="0" width="189" height="189" stroke="#E6194B" stroke-width="8" stroke-miterlimit="8" fill="#FFFFFF"/><g clip-path="url(#clip1)"><g clip-path="url(#clip2)"><g clip-path="url(#clip3)"><path d="M38.5 31.1667 33 31.1667 33 3.66667C33 2.65467 32.1805 1.83333 31.1667 1.83333L5.5 1.83333C4.488 1.83333 3.66667 2.65467 3.66667 3.66667L3.66667 33C3.66667 38.0545 7.77883 42.1667 12.8333 42.1667L31.1667 42.1667C36.2212 42.1667 40.3333 38.0545 40.3333 33 40.3333 31.9862 39.5138 31.1667 38.5 31.1667ZM7.33333 33 7.33333 5.5 29.3333 5.5 29.3333 31.1667 20.1667 31.1667C19.1547 31.1667 18.3333 31.9862 18.3333 33 18.3333 36.0323 15.8657 38.5 12.8333 38.5 9.801 38.5 7.33333 36.0323 7.33333 33ZM31.1667 38.5 20.1208 38.5C20.9293 37.4293 21.538 36.1955 21.8148 34.8333L36.3293 34.8333C35.5667 36.9618 33.5537 38.5 31.1667 38.5Z" transform="matrix(1 0 -0 1.02273 3 3)"/><path d="M12.8333 14.6667 23.8333 14.6667C24.8472 14.6667 25.6667 13.8453 25.6667 12.8333 25.6667 11.8213 24.8472 11 23.8333 11L12.8333 11C11.8213 11 11 11.8213 11 12.8333 11 13.8453 11.8213 14.6667 12.8333 14.6667Z" transform="matrix(1 0 -0 1.02273 3 3)"/><path d="M12.8333 22 20.1667 22C21.1805 22 22 21.1787 22 20.1667 22 19.1547 21.1805 18.3333 20.1667 18.3333L12.8333 18.3333C11.8213 18.3333 11 19.1547 11 20.1667 11 21.1787 11.8213 22 12.8333 22Z" transform="matrix(1 0 -0 1.02273 3 3)"/><path d="M23.8333 29.3333C24.8472 29.3333 25.6667 28.5138 25.6667 27.5 25.6667 26.4862 24.8472 25.6667 23.8333 25.6667L12.8333 25.6667C11.8213 25.6667 11 26.4862 11 27.5 11 28.5138 11.8213 29.3333 12.8333 29.3333L23.8333 29.3333Z" transform="matrix(1 0 -0 1.02273 3 3)"/></g></g></g><text font-family="Calibri,Calibri_MSFontService,sans-serif" font-weight="700" font-size="20" transform="translate(63.4714 23)">LEGISLATION<tspan font-size="12" x="-56.9324" y="86">Legislation</tspan><tspan font-weight="400" font-size="12" x="-0.599106" y="86">is legally binding Policy </tspan><tspan font-weight="400" font-size="12" x="-56.9324" y="101">that has been mandated by some </tspan><tspan font-weight="400" font-size="12" x="-56.9324" y="115">governing body.</tspan></text></g></svg>