<svg width="189" height="189" xmlns="http://www.w3.org/2000/svg" xmlns:xlink="http://www.w3.org/1999/xlink" overflow="hidden"><defs><clipPath id="clip0"><path d="M0 0 189 0 189 189 0 189Z" fill-rule="evenodd" clip-rule="evenodd"/></clipPath><clipPath id="clip1"><path d="M3 3 47 3 47 48 3 48Z" fill-rule="evenodd" clip-rule="evenodd"/></clipPath><clipPath id="clip2"><path d="M3 3 47 3 47 48 3 48Z" fill-rule="evenodd" clip-rule="evenodd"/></clipPath><clipPath id="clip3"><path d="M3 3 47 3 47 48 3 48Z" fill-rule="evenodd" clip-rule="evenodd"/></clipPath></defs><g clip-path="url(#clip0)"><rect x="0" y="0" width="189" height="189" fill="#313131"/><text fill="#FFFFFF" font-family="Calibri,Calibri_MSFontService,sans-serif" font-weight="300" font-size="11" transform="translate(9.60032 -5)">PAINPOINT</text><rect x="3.50005" y="3.50005" width="1" height="1" stroke="#2F528F" stroke-width="1.33333" stroke-miterlimit="8" fill="#4472C4"/><rect x="0" y="0" width="189" height="189" stroke="#FABEBE" stroke-width="8" stroke-miterlimit="8" fill="#FFFFFF"/><g clip-path="url(#clip1)"><g clip-path="url(#clip2)"><g clip-path="url(#clip3)"><path d="M20.1667 42.1667C20.1667 42.1667 20.1648 42.1667 20.163 42.1667 19.5507 42.1648 18.9805 41.8605 18.6413 41.3508 18.1042 40.546 5.5 21.5527 5.5 12.5272 5.5 3.80417 11.2567-1.83333 20.1667-1.83333 29.2142-1.83333 34.8333 3.6685 34.8333 12.5272 34.8333 21.7012 22.2255 40.5588 21.6883 41.3545 21.3473 41.8623 20.7772 42.1667 20.1667 42.1667ZM20.1667 1.83333C16.8593 1.83333 9.16667 2.87467 9.16667 12.5272 9.16667 18.2875 16.1095 30.514 20.1722 36.9637 24.2348 30.5525 31.1667 18.3883 31.1667 12.5272 31.1667 2.87467 23.474 1.83333 20.1667 1.83333Z" transform="matrix(1 0 -0 1.02273 4.83333 4.875)"/><path d="M22 23.8333C22 24.8459 21.1792 25.6667 20.1667 25.6667 19.1541 25.6667 18.3333 24.8459 18.3333 23.8333 18.3333 22.8208 19.1541 22 20.1667 22 21.1792 22 22 22.8208 22 23.8333Z" transform="matrix(1 0 -0 1.02273 4.83333 4.875)"/><path d="M20.1758 20.1667C19.1638 20.1667 18.3443 19.3472 18.3425 18.3352L18.3333 7.33517C18.3333 6.32317 19.1528 5.5 20.1648 5.5 20.1667 5.5 20.1667 5.5 20.1667 5.5 21.1787 5.5 22 6.3195 22 7.3315L22.0092 18.3315C22.0092 19.3435 21.1897 20.1667 20.1758 20.1667 20.1777 20.1667 20.1777 20.1667 20.1758 20.1667Z" transform="matrix(1 0 -0 1.02273 4.83333 4.875)"/></g></g></g><text font-family="Calibri,Calibri_MSFontService,sans-serif" font-weight="700" font-size="20" transform="translate(70.4748 23)">PAINPOINT<tspan font-weight="400" font-size="12" x="-63.9358" y="50">A specific issue or frustration </tspan><tspan font-weight="400" font-size="12" x="-63.9358" y="65">experienced within the context of a </tspan><tspan font-weight="400" font-size="12" x="-63.9358" y="79">business’s operation, as perceived </tspan><tspan font-weight="400" font-size="12" x="-63.9358" y="93">by many perspectives, e.g. </tspan><tspan font-weight="400" font-size="12" x="-63.9358" y="108">customer, process, </tspan><tspan font-size="12" x="30.7309" y="108">capability</tspan><tspan font-weight="400" font-size="12" x="79.5642" y="108">, lack </tspan><tspan font-weight="400" font-size="12" x="-63.9358" y="122">of skills, which prevents a business </tspan><tspan font-weight="400" font-size="12" x="-63.9358" y="137">from achieving its goals or </tspan><tspan font-weight="400" font-size="12" x="-63.9358" y="151">operating effectively.</tspan></text></g></svg>