<svg width="265" height="265" xmlns="http://www.w3.org/2000/svg" xmlns:xlink="http://www.w3.org/1999/xlink" overflow="hidden"><defs><clipPath id="clip0"><path d="M0 0 265 0 265 265 0 265Z" fill-rule="evenodd" clip-rule="evenodd"/></clipPath><clipPath id="clip1"><path d="M35 51 55 51 55 71 35 71Z" fill-rule="evenodd" clip-rule="evenodd"/></clipPath><clipPath id="clip2"><path d="M35 51 55 51 55 71 35 71Z" fill-rule="evenodd" clip-rule="evenodd"/></clipPath><clipPath id="clip3"><path d="M35 51 55 51 55 71 35 71Z" fill-rule="evenodd" clip-rule="evenodd"/></clipPath><clipPath id="clip4"><path d="M224 38 235 38 235 49 224 49Z" fill-rule="evenodd" clip-rule="evenodd"/></clipPath><clipPath id="clip5"><path d="M224 38 235 38 235 49 224 49Z" fill-rule="evenodd" clip-rule="evenodd"/></clipPath><clipPath id="clip6"><path d="M224 38 235 38 235 49 224 49Z" fill-rule="evenodd" clip-rule="evenodd"/></clipPath><clipPath id="clip7"><path d="M219 81 229 81 229 92 219 92Z" fill-rule="evenodd" clip-rule="evenodd"/></clipPath><clipPath id="clip8"><path d="M219 81 229 81 229 92 219 92Z" fill-rule="evenodd" clip-rule="evenodd"/></clipPath><clipPath id="clip9"><path d="M219 81 229 81 229 92 219 92Z" fill-rule="evenodd" clip-rule="evenodd"/></clipPath><clipPath id="clip10"><path d="M212 124 222 124 222 134 212 134Z" fill-rule="evenodd" clip-rule="evenodd"/></clipPath><clipPath id="clip11"><path d="M212 124 222 124 222 134 212 134Z" fill-rule="evenodd" clip-rule="evenodd"/></clipPath><clipPath id="clip12"><path d="M212 124 222 124 222 134 212 134Z" fill-rule="evenodd" clip-rule="evenodd"/></clipPath><clipPath id="clip13"><path d="M223 166 234 166 234 177 223 177Z" fill-rule="evenodd" clip-rule="evenodd"/></clipPath><clipPath id="clip14"><path d="M223 166 234 166 234 177 223 177Z" fill-rule="evenodd" clip-rule="evenodd"/></clipPath><clipPath id="clip15"><path d="M223 166 234 166 234 177 223 177Z" fill-rule="evenodd" clip-rule="evenodd"/></clipPath><clipPath id="clip16"><path d="M214 209 224 209 224 218 214 218Z" fill-rule="evenodd" clip-rule="evenodd"/></clipPath><clipPath id="clip17"><path d="M214 209 224 209 224 218 214 218Z" fill-rule="evenodd" clip-rule="evenodd"/></clipPath><clipPath id="clip18"><path d="M214 209 224 209 224 218 214 218Z" fill-rule="evenodd" clip-rule="evenodd"/></clipPath></defs><g clip-path="url(#clip0)"><rect x="0" y="0" width="265" height="265" fill="#313131"/><rect x="89.5" y="131.5" width="1.99999" height="1" stroke="#2F528F" stroke-width="1.33585" stroke-miterlimit="8" fill="#4472C4"/><path d="M23.5 9.75271C23.5 8.50859 24.5085 7.50003 25.7527 7.50003L249.247 7.50003C250.491 7.50003 251.5 8.50859 251.5 9.75271L251.5 249.247C251.5 250.491 250.491 251.5 249.247 251.5L25.7527 251.5C24.5085 251.5 23.5 250.491 23.5 249.247Z" stroke="#FF0000" stroke-width="0.667927" stroke-miterlimit="8" stroke-opacity="0" fill="none" fill-rule="evenodd"/><path d="M30.0794 43.5 149.921 43.5C153.002 43.5 155.5 45.998 155.5 49.0794L155.5 214.252C155.5 216.598 153.598 218.5 151.252 218.5L28.7483 218.5C26.402 218.5 24.5 216.598 24.5 214.252L24.5 49.0794C24.5 45.998 26.998 43.5 30.0794 43.5Z" stroke="#000080" stroke-width="4.67549" stroke-miterlimit="8" fill="#FFFFFF" fill-rule="evenodd"/><g clip-path="url(#clip1)"><g clip-path="url(#clip2)"><g clip-path="url(#clip3)"><path d="M52.9764 53.0236C52.6669 52.714 52.1665 52.714 51.857 53.0236L49.5065 55.374C48.1417 54.257 46.3969 53.5833 44.5 53.5833 40.1348 53.5833 36.5833 57.1347 36.5833 61.5 36.5833 64.2043 37.9482 66.5952 40.0239 68.0233L39.1903 68.8569C38.8808 69.1665 38.8808 69.6668 39.1903 69.9764 39.3447 70.1307 39.5473 70.2083 39.75 70.2083 39.9527 70.2083 40.1553 70.1307 40.3097 69.9764L41.4735 68.8118C42.4061 69.2005 43.4281 69.4167 44.5 69.4167 45.7825 69.4167 46.9906 69.1032 48.0649 68.5601L49.482 69.9764C49.6364 70.1307 49.839 70.2083 50.0417 70.2083 50.2444 70.2083 50.447 70.1307 50.6014 69.9764 50.911 69.6668 50.911 69.1665 50.6014 68.8569L49.4297 67.6853C51.2458 66.2334 52.4167 64.0016 52.4167 61.5 52.4167 59.6031 51.7438 57.8583 50.626 56.4935L52.9764 54.143C53.286 53.8335 53.286 53.3339 52.9764 53.0236ZM50.8334 61.5C50.8334 64.9928 47.9921 67.8333 44.5 67.8333 43.5524 67.8333 42.6554 67.6188 41.8471 67.2443 41.7426 67.1533 41.6223 67.1002 41.4941 67.0741 39.5149 66.0014 38.1667 63.9059 38.1667 61.5 38.1667 58.0079 41.008 55.1666 44.5 55.1666 45.9614 55.1666 47.3049 55.6685 48.376 56.503L47.2471 57.6319C46.4713 57.0801 45.5244 56.75 44.5 56.75 41.8804 56.75 39.75 58.8803 39.75 61.5 39.75 64.1196 41.8804 66.25 44.5 66.25 47.1197 66.25 49.25 64.1196 49.25 61.5 49.25 60.4763 48.9207 59.5287 48.3673 58.7521L49.4978 57.6232C50.3307 58.6959 50.8334 60.0386 50.8334 61.5ZM47.6667 61.5C47.6667 63.2472 46.2464 64.6666 44.5 64.6666 42.7536 64.6666 41.3334 63.2472 41.3334 61.5 41.3334 59.7536 42.7536 58.3333 44.5 58.3333 45.0851 58.3333 45.6274 58.5035 46.0992 58.7822L44.9054 59.9752C44.7755 59.942 44.6409 59.9166 44.5 59.9166 43.626 59.9166 42.9167 60.626 42.9167 61.5 42.9167 62.374 43.626 63.0833 44.5 63.0833 45.374 63.0833 46.0834 62.374 46.0834 61.5 46.0834 61.3591 46.0604 61.2253 46.0248 61.0946L47.2186 59.9016C47.4957 60.3734 47.6667 60.9141 47.6667 61.5Z"/></g></g></g><path d="M26.9702 6.36947C18.5628 6.36947 11.7473 10.3112 11.7473 15.1736L11.7473 248.948C11.7473 253.81 18.5628 257.752 26.9702 257.752L238.08 257.752C246.487 257.752 253.302 253.81 253.302 248.948L253.302 15.1736C253.302 10.3112 246.487 6.36947 238.08 6.36947ZM0 0 265 0 265 265 0 265Z" fill="#000080" fill-rule="evenodd"/><text font-family="Calibri,Calibri_MSFontService,sans-serif" font-weight="700" font-size="11" transform="translate(75.215 63)">OBJECTIVE<tspan font-weight="400" font-size="9" x="-43.9247" y="62">An </tspan><tspan font-size="9" x="-31.568" y="62">Objective</tspan><tspan font-weight="400" font-size="9" x="7.33872" y="62">is a statement </tspan><tspan font-weight="400" font-size="9" x="-43.9247" y="73">of an attainable, time</tspan><tspan font-weight="400" font-size="9" x="38.2303" y="73">-</tspan><tspan font-weight="400" font-size="9" x="41.069" y="73">based, </tspan><tspan font-weight="400" font-size="9" x="-43.9247" y="84">and measurable result that </tspan><tspan font-weight="400" font-size="9" x="-43.9247" y="95">the enterprise seeks to meet </tspan><tspan font-weight="400" font-size="9" x="-43.9247" y="107">in order to achieve its </tspan><tspan font-size="9" x="41.403" y="107">Goals</tspan><tspan font-weight="400" font-size="9" x="63.1106" y="107">.</tspan></text><path d="M224.5 42.5C224.5 41.9478 224.948 41.5 225.5 41.5L247.5 41.5C248.052 41.5 248.5 41.9478 248.5 42.5L248.5 46.5C248.5 47.0523 248.052 47.5 247.5 47.5L225.5 47.5C224.948 47.5 224.5 47.0523 224.5 46.5Z" stroke="#CEB023" stroke-width="1.33585" stroke-miterlimit="8" fill="#FFFFFF" fill-rule="evenodd"/><text font-family="Calibri,Calibri_MSFontService,sans-serif" font-weight="700" font-size="5" transform="translate(235.598 45)">ROLE</text><g clip-path="url(#clip4)"><g clip-path="url(#clip5)"><g clip-path="url(#clip6)"><path d="M4.50004 3.75003C3.87978 3.75003 3.37503 4.25479 3.37503 4.87504 3.37503 5.4953 3.87978 6.00005 4.50004 6.00005 5.1203 6.00005 5.62505 5.4953 5.62505 4.87504 5.62505 4.25479 5.1203 3.75003 4.50004 3.75003ZM4.50004 5.25005C4.29304 5.25005 4.12504 5.08204 4.12504 4.87504 4.12504 4.66842 4.29304 4.50004 4.50004 4.50004 4.70704 4.50004 4.87504 4.66842 4.87504 4.87504 4.87504 5.08204 4.70704 5.25005 4.50004 5.25005Z" transform="matrix(1 0 -0 1.1111 225 39)"/><path d="M7.87507 1.87502 5.62505 1.87502 5.62505 1.12501C5.62505 0.918008 5.45742 0.750007 5.25005 0.750007L3.75003 0.750007C3.54303 0.750007 3.37503 0.918008 3.37503 1.12501L3.37503 1.87502 1.12501 1.87502C0.918008 1.87502 0.750007 2.04302 0.750007 2.25002L0.750007 8.25007C0.750007 8.45745 0.918008 8.62508 1.12501 8.62508L7.87507 8.62508C8.08245 8.62508 8.25007 8.45745 8.25007 8.25007L8.25007 2.25002C8.25007 2.04302 8.08245 1.87502 7.87507 1.87502ZM4.12504 1.50001 4.87504 1.50001 4.87504 2.62502 4.12504 2.62502 4.12504 1.50001ZM5.62505 7.87507 3.37503 7.87507 3.37503 7.50007C3.37503 7.28969 3.53928 7.12506 3.74928 7.12506L5.2508 7.12506C5.4608 7.12506 5.62505 7.28969 5.62505 7.50007L5.62505 7.87507ZM7.50007 7.87507 6.37506 7.87507 6.37506 7.50007C6.37506 6.87981 5.8703 6.37506 5.2508 6.37506L3.74928 6.37506C3.1294 6.37506 2.62502 6.87981 2.62502 7.50007L2.62502 7.87507 1.50001 7.87507 1.50001 2.62502 3.37503 2.62502 3.37503 3.00003C3.37503 3.20703 3.54303 3.37503 3.75003 3.37503L5.25005 3.37503C5.45742 3.37503 5.62505 3.20703 5.62505 3.00003L5.62505 2.62502 7.50007 2.62502 7.50007 7.87507Z" transform="matrix(1 0 -0 1.1111 225 39)"/></g></g></g><path d="M219.5 84.5C219.5 83.9477 219.948 83.5 220.5 83.5L247.5 83.5C248.052 83.5 248.5 83.9477 248.5 84.5L248.5 88.5C248.5 89.0523 248.052 89.5 247.5 89.5L220.5 89.5C219.948 89.5 219.5 89.0523 219.5 88.5Z" stroke="#D2F53C" stroke-width="1.33585" stroke-miterlimit="8" fill="#FFFFFF" fill-rule="evenodd"/><text font-family="Calibri,Calibri_MSFontService,sans-serif" font-weight="700" font-size="5" transform="translate(230.613 87)">METRIC</text><g clip-path="url(#clip7)"><g clip-path="url(#clip8)"><g clip-path="url(#clip9)"><path d="M4.49999 1.3125C2.43224 1.3125 0.749998 2.99474 0.749998 5.06249 0.749998 5.26986 0.917997 5.43748 1.125 5.43748 1.332 5.43748 1.5 5.26986 1.5 5.06249 1.5 3.40836 2.84587 2.06249 4.49999 2.06249 6.15411 2.06249 7.49998 3.40836 7.49998 5.06249 7.49998 5.26986 7.6676 5.43748 7.87498 5.43748 8.08235 5.43748 8.24998 5.26986 8.24998 5.06249 8.24998 2.99474 6.56773 1.3125 4.49999 1.3125Z" transform="matrix(1 0 -0 1.00001 220 82)"/><path d="M6.07948 3.73424 4.70324 5.45811C4.63686 5.44536 4.56974 5.43748 4.49999 5.43748 3.87974 5.43748 3.37499 5.94223 3.37499 6.56248 3.37499 7.18273 3.87974 7.68748 4.49999 7.68748 5.12023 7.68748 5.62498 7.18273 5.62498 6.56248 5.62498 6.28723 5.52186 6.03748 5.35648 5.84173L6.66486 4.20224C6.7946 4.04024 6.76761 3.80436 6.60636 3.67536 6.44473 3.54561 6.20886 3.57299 6.07948 3.73424ZM4.49999 6.93748C4.29299 6.93748 4.12499 6.76948 4.12499 6.56248 4.12499 6.35548 4.29299 6.18748 4.49999 6.18748 4.70699 6.18748 4.87499 6.35548 4.87499 6.56248 4.87499 6.76948 4.70699 6.93748 4.49999 6.93748Z" transform="matrix(1 0 -0 1.00001 220 82)"/></g></g></g><path d="M212.5 126.667C212.5 126.022 213.022 125.5 213.667 125.5L247.333 125.5C247.978 125.5 248.5 126.022 248.5 126.667L248.5 131.333C248.5 131.978 247.978 132.5 247.333 132.5L213.667 132.5C213.022 132.5 212.5 131.978 212.5 131.333Z" stroke="#911EB4" stroke-width="1.33585" stroke-miterlimit="8" fill="#FFFFFF" fill-rule="evenodd"/><text font-family="Calibri,Calibri_MSFontService,sans-serif" font-weight="700" font-size="5" transform="translate(223.229 130)">CAPABILITY</text><g clip-path="url(#clip10)"><g clip-path="url(#clip11)"><g clip-path="url(#clip12)"><path d="M7.87498 3.74999 1.125 3.74999C0.917997 3.74999 0.749998 3.91799 0.749998 4.12499L0.749998 5.62498C0.749998 5.83236 0.917997 5.99998 1.125 5.99998L1.5 5.99998 1.5 8.24998C1.5 8.45735 1.668 8.62497 1.87499 8.62497L7.12498 8.62497C7.33235 8.62497 7.49998 8.45735 7.49998 8.24998L7.49998 5.99998 7.87498 5.99998C8.08235 5.99998 8.24998 5.83236 8.24998 5.62498L8.24998 4.12499C8.24998 3.91799 8.08235 3.74999 7.87498 3.74999ZM6.74998 7.87498 2.24999 7.87498 2.24999 5.99998 6.74998 5.99998 6.74998 7.87498ZM7.49998 5.24998 7.12498 5.24998 1.87499 5.24998 1.5 5.24998 1.5 4.49999 7.49998 4.49999 7.49998 5.24998Z" transform="matrix(1.11111 0 -0 1 212 124)"/><path d="M1.87499 2.99999 3.74999 2.99999C3.95736 2.99999 4.12499 2.83199 4.12499 2.62499L4.12499 0.749998C4.12499 0.542998 3.95736 0.374999 3.74999 0.374999L1.87499 0.374999C1.668 0.374999 1.5 0.542998 1.5 0.749998L1.5 2.62499C1.5 2.83199 1.668 2.99999 1.87499 2.99999ZM2.24999 1.125 3.37499 1.125 3.37499 2.24999 2.24999 2.24999 2.24999 1.125Z" transform="matrix(1.11111 0 -0 1 212 124)"/><path d="M6.18748 2.99999C6.91273 2.99999 7.49998 2.41237 7.49998 1.68749 7.49998 0.962622 6.91273 0.374999 6.18748 0.374999 5.46223 0.374999 4.87499 0.962622 4.87499 1.68749 4.87499 2.41237 5.46223 2.99999 6.18748 2.99999ZM6.18748 1.125C6.49798 1.125 6.74998 1.37662 6.74998 1.68749 6.74998 1.99837 6.49798 2.24999 6.18748 2.24999 5.87698 2.24999 5.62498 1.99837 5.62498 1.68749 5.62498 1.37662 5.87698 1.125 6.18748 1.125Z" transform="matrix(1.11111 0 -0 1 212 124)"/></g></g></g><path d="M223.5 169.5C223.5 168.948 223.948 168.5 224.5 168.5L247.5 168.5C248.052 168.5 248.5 168.948 248.5 169.5L248.5 173.5C248.5 174.052 248.052 174.5 247.5 174.5L224.5 174.5C223.948 174.5 223.5 174.052 223.5 173.5Z" stroke="#F58230" stroke-width="1.33585" stroke-miterlimit="8" fill="#FFFFFF" fill-rule="evenodd"/><text font-family="Calibri,Calibri_MSFontService,sans-serif" font-weight="700" font-size="5" transform="translate(234.738 172)">GOAL</text><g clip-path="url(#clip13)"><g clip-path="url(#clip14)"><g clip-path="url(#clip15)"><path d="M7.21881 2.25002 5.62505 2.25002 5.62505 1.50001 2.62502 1.50001 2.62502 1.12501C2.62502 0.918008 2.45702 0.750007 2.25002 0.750007 2.04302 0.750007 1.87502 0.918008 1.87502 1.12501L1.87502 1.50001 1.87502 4.50004 1.87502 7.87507C1.87502 8.08245 2.04302 8.25007 2.25002 8.25007 2.45702 8.25007 2.62502 8.08245 2.62502 7.87507L2.62502 4.50004 4.87504 4.50004 4.87504 5.25005 7.21881 5.25005C7.58632 5.25005 7.87507 4.92042 7.87507 4.50004L7.87507 3.00003C7.87507 2.57927 7.58632 2.25002 7.21881 2.25002ZM2.62502 3.75003 2.62502 2.25002 4.87504 2.25002 4.87504 3.75003 2.62502 3.75003ZM7.12506 4.50004 5.62505 4.50004 5.62505 3.00003 7.12506 3.00003 7.12506 4.50004Z" transform="matrix(1 0 -0 1.1111 224 166)"/></g></g></g><path d="M214.5 211.5C214.5 210.948 214.948 210.5 215.5 210.5L247.5 210.5C248.052 210.5 248.5 210.948 248.5 211.5L248.5 215.5C248.5 216.052 248.052 216.5 247.5 216.5L215.5 216.5C214.948 216.5 214.5 216.052 214.5 215.5Z" stroke="#46F0F0" stroke-width="1.33585" stroke-miterlimit="8" fill="#FFFFFF" fill-rule="evenodd"/><text font-family="Calibri,Calibri_MSFontService,sans-serif" font-weight="700" font-size="5" transform="translate(225.442 214)">INITIATIVE</text><g clip-path="url(#clip16)"><g clip-path="url(#clip17)"><g clip-path="url(#clip18)"><path d="M218.75 213.775C219.577 213.775 220.25 213.118 220.25 212.311 220.25 211.504 219.577 210.848 218.75 210.848 217.923 210.848 217.25 211.504 217.25 212.311 217.25 213.118 217.923 213.775 218.75 213.775ZM218.75 211.58C219.164 211.58 219.5 211.908 219.5 212.312 219.5 212.715 219.164 213.044 218.75 213.044 218.336 213.044 218 212.715 218 212.312 218 211.908 218.336 211.58 218.75 211.58Z"/><path d="M222.5 209.75C222.293 209.75 222.125 209.914 222.125 210.116L222.125 212.542 222.125 212.677 222.125 212.71C222.125 213.707 221.295 214.517 220.274 214.517L218.726 214.517C217.292 214.518 216.125 215.579 216.125 216.884 216.125 217.086 216.293 217.25 216.5 217.25 216.707 217.25 216.875 217.086 216.875 216.884 216.875 215.983 217.705 215.249 218.726 215.249L220.274 215.249C221.708 215.249 222.875 214.111 222.875 212.71L222.875 212.677 222.875 212.542 222.875 210.116C222.875 209.914 222.707 209.75 222.5 209.75Z"/><path d="M221 215.604C220.793 215.604 220.625 215.768 220.625 215.971L220.625 216.702C220.625 216.905 220.793 217.068 221 217.068 221.207 217.068 221.375 216.905 221.375 216.702L221.375 215.971C221.375 215.768 221.207 215.604 221 215.604Z"/></g></g></g><path d="M167.618 41 212.382 41C218.246 41 223 43.9101 223 47.5 223 51.0899 218.246 54.0001 212.382 54.0001L167.618 54.0001C161.754 54.0001 157 51.0899 157 47.5 157 43.9101 161.754 41 167.618 41Z" fill="#313131" fill-rule="evenodd"/><text fill="#FFFFFF" font-family="Calibri,Calibri_MSFontService,sans-serif" font-weight="700" font-size="5" transform="translate(173.417 49)">|Delegated to&gt;</text><path d="M165.527 125 201.473 125C206.183 125 210 128.134 210 132 210 135.866 206.183 139 201.473 139L165.527 139C160.817 139 157 135.866 157 132 157 128.134 160.817 125 165.527 125Z" fill="#313131" fill-rule="evenodd"/><text fill="#FFFFFF" font-family="Calibri,Calibri_MSFontService,sans-serif" font-weight="700" font-size="5" transform="translate(166.654 134)">&lt;Evaluated by|</text><path d="M167.457 168 211.543 168C217.318 168 222 170.91 222 174.5 222 178.09 217.318 181 211.543 181L167.457 181C161.682 181 157 178.09 157 174.5 157 170.91 161.682 168 167.457 168Z" fill="#313131" fill-rule="evenodd"/><text fill="#FFFFFF" font-family="Calibri,Calibri_MSFontService,sans-serif" font-weight="700" font-size="5" transform="translate(168.241 176)">&lt;Substantiated by|</text><path d="M165.848 210 203.152 210C208.038 210 212 212.91 212 216.5 212 220.09 208.038 223 203.152 223L165.848 223C160.962 223 157 220.09 157 216.5 157 212.91 160.962 210 165.848 210Z" fill="#313131" fill-rule="evenodd"/><text fill="#FFFFFF" font-family="Calibri,Calibri_MSFontService,sans-serif" font-weight="700" font-size="5" transform="translate(167.489 218)">|Supported by&gt;</text><path d="M166.814 83 208.186 83C213.606 83 218 86.134 218 90 218 93.866 213.606 97 208.186 97L166.814 97C161.394 97 157 93.866 157 90 157 86.134 161.394 83 166.814 83Z" fill="#313131" fill-rule="evenodd"/><text fill="#FFFFFF" font-family="Calibri,Calibri_MSFontService,sans-serif" font-weight="700" font-size="5" transform="translate(173 92)">|Tracked by&gt;</text></g></svg>