<svg width="265" height="265" xmlns="http://www.w3.org/2000/svg" xmlns:xlink="http://www.w3.org/1999/xlink" overflow="hidden"><defs><clipPath id="clip0"><path d="M0 0 265 0 265 265 0 265Z" fill-rule="evenodd" clip-rule="evenodd"/></clipPath><clipPath id="clip1"><path d="M35 53 55 53 55 73 35 73Z" fill-rule="evenodd" clip-rule="evenodd"/></clipPath><clipPath id="clip2"><path d="M35 53 55 53 55 73 35 73Z" fill-rule="evenodd" clip-rule="evenodd"/></clipPath><clipPath id="clip3"><path d="M35 53 55 53 55 73 35 73Z" fill-rule="evenodd" clip-rule="evenodd"/></clipPath><clipPath id="clip4"><path d="M204 126 213 126 213 136 204 136Z" fill-rule="evenodd" clip-rule="evenodd"/></clipPath><clipPath id="clip5"><path d="M204 126 213 126 213 136 204 136Z" fill-rule="evenodd" clip-rule="evenodd"/></clipPath><clipPath id="clip6"><path d="M204 126 213 126 213 136 204 136Z" fill-rule="evenodd" clip-rule="evenodd"/></clipPath><clipPath id="clip7"><path d="M71 30 82 30 82 39 71 39Z" fill-rule="evenodd" clip-rule="evenodd"/></clipPath><clipPath id="clip8"><path d="M71 30 82 30 82 39 71 39Z" fill-rule="evenodd" clip-rule="evenodd"/></clipPath><clipPath id="clip9"><path d="M71 30 82 30 82 39 71 39Z" fill-rule="evenodd" clip-rule="evenodd"/></clipPath></defs><g clip-path="url(#clip0)"><rect x="0" y="0" width="265" height="265" fill="#313131"/><rect x="89.5" y="131.5" width="1.99999" height="1" stroke="#2F528F" stroke-width="1.33585" stroke-miterlimit="8" fill="#4472C4"/><path d="M23.5 9.75271C23.5 8.50859 24.5085 7.50003 25.7527 7.50003L249.247 7.50003C250.491 7.50003 251.5 8.50859 251.5 9.75271L251.5 249.247C251.5 250.491 250.491 251.5 249.247 251.5L25.7527 251.5C24.5085 251.5 23.5 250.491 23.5 249.247Z" stroke="#FF0000" stroke-width="0.667927" stroke-miterlimit="8" stroke-opacity="0" fill="none" fill-rule="evenodd"/><path d="M30.0794 43.5 149.921 43.5C153.002 43.5 155.5 45.998 155.5 49.0794L155.5 214.252C155.5 216.598 153.598 218.5 151.252 218.5L28.7483 218.5C26.402 218.5 24.5 216.598 24.5 214.252L24.5 49.0794C24.5 45.998 26.998 43.5 30.0794 43.5Z" stroke="#F032E6" stroke-width="4.67549" stroke-miterlimit="8" fill="#FFFFFF" fill-rule="evenodd"/><g clip-path="url(#clip1)"><g clip-path="url(#clip2)"><g clip-path="url(#clip3)"><path d="M9.50002 6.90911C11.4052 6.90911 12.9546 5.35974 12.9546 3.45455 12.9546 1.54937 11.4052 0 9.50002 0 7.59484 0 6.04547 1.54937 6.04547 3.45455 6.04547 5.35974 7.59484 6.90911 9.50002 6.90911ZM9.50002 1.72728C10.4526 1.72728 11.2273 2.50196 11.2273 3.45455 11.2273 4.40715 10.4526 5.18183 9.50002 5.18183 8.54743 5.18183 7.77275 4.40715 7.77275 3.45455 7.77275 2.50196 8.54743 1.72728 9.50002 1.72728Z" transform="matrix(1 0 -0 1.00686 35 53.0001)"/><path d="M5.18183 14.6819C5.65856 14.6819 6.04547 14.2958 6.04547 13.8182L6.04547 11.2273C6.04547 10.2747 6.82015 9.50002 7.77275 9.50002L11.2273 9.50002C12.1799 9.50002 12.9546 10.2747 12.9546 11.2273L12.9546 13.8182C12.9546 14.2958 13.3406 14.6819 13.8182 14.6819 14.2958 14.6819 14.6819 14.2958 14.6819 13.8182L14.6819 11.2273C14.6819 9.32211 13.1325 7.77275 11.2273 7.77275L7.77275 7.77275C5.86756 7.77275 4.31819 9.32211 4.31819 11.2273L4.31819 13.8182C4.31819 14.2958 4.7051 14.6819 5.18183 14.6819Z" transform="matrix(1 0 -0 1.00686 35 53.0001)"/><path d="M16.4091 14.6819C15.2847 14.6819 14.3355 15.4064 13.978 16.4091L11.932 16.4091C11.5745 15.4064 10.6245 14.6819 9.50089 14.6819 8.37729 14.6819 7.42729 15.4064 7.06888 16.4091L5.02292 16.4091C4.66451 15.4064 3.71537 14.6819 2.59092 14.6819 1.16246 14.6819 0 15.8443 0 17.2728 0 18.7012 1.16246 19.8637 2.59092 19.8637 3.71537 19.8637 4.66451 19.1391 5.02292 18.1364L7.06888 18.1364C7.42643 19.1391 8.37643 19.8637 9.50002 19.8637 10.6236 19.8637 11.5736 19.1391 11.9312 18.1364L13.9771 18.1364C14.3347 19.1391 15.2847 19.8637 16.4083 19.8637 17.8367 19.8637 18.9992 18.7012 18.9992 17.2728 18.9992 15.8443 17.8376 14.6819 16.4091 14.6819ZM2.59092 18.1364C2.11505 18.1364 1.72728 17.7495 1.72728 17.2728 1.72728 16.796 2.11505 16.4091 2.59092 16.4091 3.06678 16.4091 3.45455 16.796 3.45455 17.2728 3.45455 17.7495 3.06678 18.1364 2.59092 18.1364ZM16.4091 18.1364C15.9324 18.1364 15.5455 17.7495 15.5455 17.2728 15.5455 16.796 15.9324 16.4091 16.4091 16.4091 16.8859 16.4091 17.2728 16.796 17.2728 17.2728 17.2728 17.7495 16.8859 18.1364 16.4091 18.1364Z" transform="matrix(1 0 -0 1.00686 35 53.0001)"/></g></g></g><path d="M26.9702 6.36947C18.5628 6.36947 11.7473 10.3112 11.7473 15.1736L11.7473 248.948C11.7473 253.81 18.5628 257.752 26.9702 257.752L238.08 257.752C246.487 257.752 253.302 253.81 253.302 248.948L253.302 15.1736C253.302 10.3112 246.487 6.36947 238.08 6.36947ZM0 0 265 0 265 265 0 265Z" fill="#F032E6" fill-rule="evenodd"/><text font-family="Calibri,Calibri_MSFontService,sans-serif" font-weight="700" font-size="11" transform="translate(65.3631 63)">USER JOURNEY <tspan x="19.0359" y="13">STAGE</tspan><tspan font-weight="400" font-size="9" x="-34.0727" y="68">The </tspan><tspan font-size="9" x="-17.8755" y="68">User Journey stages</tspan><tspan font-weight="400" font-size="9" x="61.6078" y="68">are </tspan><tspan font-weight="400" font-size="9" x="-34.0727" y="79">the steps that customers go </tspan><tspan font-weight="400" font-size="9" x="-34.0727" y="90">through when interacting </tspan><tspan font-weight="400" font-size="9" x="-34.0727" y="101">with an organization.</tspan></text><path d="M203.5 126.667C203.5 125.47 204.47 124.5 205.667 124.5L246.333 124.5C247.53 124.5 248.5 125.47 248.5 126.667L248.5 135.333C248.5 136.53 247.53 137.5 246.333 137.5L205.667 137.5C204.47 137.5 203.5 136.53 203.5 135.333Z" stroke="#F032E6" stroke-width="1.33585" stroke-miterlimit="8" fill="#FFFFFF" fill-rule="evenodd"/><text font-family="Calibri,Calibri_MSFontService,sans-serif" font-weight="700" font-size="5" transform="translate(215.107 129)">VALUE STREAM<tspan x="0" y="6">STAGE</tspan></text><g clip-path="url(#clip4)"><g clip-path="url(#clip5)"><g clip-path="url(#clip6)"><path d="M212.544 132.704 211.799 131.767C211.727 131.677 211.619 131.625 211.505 131.625L209.25 131.625C209.106 131.625 208.975 131.708 208.913 131.837 208.85 131.967 208.867 132.122 208.957 132.234L209.52 132.938 208.957 133.641C208.867 133.754 208.85 133.908 208.913 134.038 208.975 134.167 209.106 134.25 209.25 134.25L211.505 134.25C211.62 134.25 211.728 134.198 211.799 134.108L212.544 133.171C212.652 133.034 212.652 132.841 212.544 132.704Z"/><path d="M207.674 131.767C207.603 131.677 207.495 131.625 207.38 131.625L205.125 131.625C204.981 131.625 204.849 131.708 204.787 131.837 204.725 131.967 204.742 132.122 204.833 132.234L205.395 132.938 204.833 133.641C204.743 133.754 204.725 133.908 204.787 134.038 204.849 134.167 204.981 134.25 205.125 134.25L207.38 134.25C207.495 134.25 207.603 134.198 207.674 134.108L208.419 133.171C208.527 133.034 208.527 132.841 208.419 132.704L207.674 131.767ZM207.199 133.5 205.905 133.5 206.168 133.172C206.277 133.035 206.277 132.84 206.168 132.703L205.905 132.375 207.199 132.375 207.646 132.938 207.199 133.5Z"/><path d="M210.75 128.623C210.75 128.522 210.711 128.426 210.639 128.355L208.767 126.481C208.626 126.339 208.374 126.339 208.233 126.481L206.361 128.355C206.213 128.503 206.213 128.742 206.361 128.89L208.232 130.764C208.304 130.835 208.399 130.875 208.5 130.875 208.601 130.875 208.696 130.835 208.767 130.764L210.639 128.89C210.711 128.819 210.75 128.723 210.75 128.623ZM208.5 129.961 207.163 128.623 208.5 127.284 209.837 128.623 208.5 129.961Z"/></g></g></g><path d="M164.24 124 194.76 124C198.759 124 202 126.91 202 130.5 202 134.09 198.759 137 194.76 137L164.24 137C160.241 137 157 134.09 157 130.5 157 126.91 160.241 124 164.24 124Z" fill="#313131" fill-rule="evenodd"/><text fill="#FFFFFF" font-family="Calibri,Calibri_MSFontService,sans-serif" font-weight="700" font-size="5" transform="translate(165.736 132)">|Guided by&gt;</text><path d="M84 41 89.5 38 95 41Z" fill="#FFFFFF" fill-rule="evenodd"/><path d="M71.5001 30.6667C71.5001 29.47 72.4701 28.5 73.6668 28.5L102.333 28.5C103.53 28.5 104.5 29.47 104.5 30.6667L104.5 39.3333C104.5 40.53 103.53 41.5 102.333 41.5L73.6668 41.5C72.4701 41.5 71.5001 40.53 71.5001 39.3333Z" stroke="#F032E6" stroke-width="1.33585" stroke-miterlimit="8" fill="#FFFFFF" fill-rule="evenodd"/><text font-family="Calibri,Calibri_MSFontService,sans-serif" font-weight="700" font-size="5" transform="translate(83.3771 33)">USER<tspan x="0" y="6">JOURNEY</tspan></text><g clip-path="url(#clip7)"><g clip-path="url(#clip8)"><g clip-path="url(#clip9)"><path d="M4.49999 3.18749C5.32723 3.18749 5.99998 2.51474 5.99998 1.68749 5.99998 0.860247 5.32723 0.187499 4.49999 0.187499 3.67274 0.187499 2.99999 0.860247 2.99999 1.68749 2.99999 2.51474 3.67274 3.18749 4.49999 3.18749ZM4.49999 0.937497C4.91361 0.937497 5.24998 1.27387 5.24998 1.68749 5.24998 2.10112 4.91361 2.43749 4.49999 2.43749 4.08636 2.43749 3.74999 2.10112 3.74999 1.68749 3.74999 1.27387 4.08636 0.937497 4.49999 0.937497Z" transform="matrix(1.11111 0 -0 1 72 30)"/><path d="M7.49998 6.56248C7.01173 6.56248 6.59961 6.87711 6.44436 7.31248L5.55598 7.31248C5.40073 6.87711 4.98824 6.56248 4.50036 6.56248 4.01249 6.56248 3.59999 6.87711 3.44437 7.31248L2.55599 7.31248C2.40037 6.87711 1.98824 6.56248 1.5 6.56248 0.879747 6.56248 0.374999 7.06723 0.374999 7.68748 0.374999 8.30772 0.879747 8.81247 1.5 8.81247 1.98824 8.81247 2.40037 8.49785 2.55599 8.06248L3.44437 8.06248C3.59961 8.49785 4.01211 8.81247 4.49999 8.81247 4.98786 8.81247 5.40036 8.49785 5.55561 8.06248L6.44398 8.06248C6.59923 8.49785 7.01173 8.81247 7.4996 8.81247 8.11985 8.81247 8.6246 8.30772 8.6246 7.68748 8.6246 7.06723 8.12023 6.56248 7.49998 6.56248ZM1.5 8.06248C1.29337 8.06248 1.125 7.89448 1.125 7.68748 1.125 7.48048 1.29337 7.31248 1.5 7.31248 1.70662 7.31248 1.87499 7.48048 1.87499 7.68748 1.87499 7.89448 1.70662 8.06248 1.5 8.06248ZM4.49999 8.06248C4.29336 8.06248 4.12499 7.89448 4.12499 7.68748 4.12499 7.48048 4.29336 7.31248 4.49999 7.31248 4.70699 7.31248 4.87499 7.48048 4.87499 7.68748 4.87499 7.89448 4.70699 8.06248 4.49999 8.06248ZM7.49998 8.06248C7.29298 8.06248 7.12498 7.89448 7.12498 7.68748 7.12498 7.48048 7.29298 7.31248 7.49998 7.31248 7.70698 7.31248 7.87498 7.48048 7.87498 7.68748 7.87498 7.89448 7.70698 8.06248 7.49998 8.06248Z" transform="matrix(1.11111 0 -0 1 72 30)"/><path d="M2.62499 6.56248C2.83199 6.56248 2.99999 6.39486 2.99999 6.18748L2.99999 5.06249C2.99999 4.64886 3.33637 4.31249 3.74999 4.31249L5.24998 4.31249C5.66361 4.31249 5.99998 4.64886 5.99998 5.06249L5.99998 6.18748C5.99998 6.39486 6.16761 6.56248 6.37498 6.56248 6.58236 6.56248 6.74998 6.39486 6.74998 6.18748L6.74998 5.06249C6.74998 4.23524 6.07723 3.56249 5.24998 3.56249L3.74999 3.56249C2.92274 3.56249 2.24999 4.23524 2.24999 5.06249L2.24999 6.18748C2.24999 6.39486 2.41799 6.56248 2.62499 6.56248Z" transform="matrix(1.11111 0 -0 1 72 30)"/></g></g></g></g></svg>