<svg width="265" height="265" xmlns="http://www.w3.org/2000/svg" xmlns:xlink="http://www.w3.org/1999/xlink" overflow="hidden"><defs><clipPath id="clip0"><path d="M0 0 265 0 265 265 0 265Z" fill-rule="evenodd" clip-rule="evenodd"/></clipPath><clipPath id="clip1"><path d="M35 51 55 51 55 71 35 71Z" fill-rule="evenodd" clip-rule="evenodd"/></clipPath><clipPath id="clip2"><path d="M35 51 55 51 55 71 35 71Z" fill-rule="evenodd" clip-rule="evenodd"/></clipPath><clipPath id="clip3"><path d="M35 51 55 51 55 71 35 71Z" fill-rule="evenodd" clip-rule="evenodd"/></clipPath><clipPath id="clip4"><path d="M212 38 222 38 222 49 212 49Z" fill-rule="evenodd" clip-rule="evenodd"/></clipPath><clipPath id="clip5"><path d="M212 38 222 38 222 49 212 49Z" fill-rule="evenodd" clip-rule="evenodd"/></clipPath><clipPath id="clip6"><path d="M212 38 222 38 222 49 212 49Z" fill-rule="evenodd" clip-rule="evenodd"/></clipPath><clipPath id="clip7"><path d="M215 81 225 81 225 92 215 92Z" fill-rule="evenodd" clip-rule="evenodd"/></clipPath><clipPath id="clip8"><path d="M215 81 225 81 225 92 215 92Z" fill-rule="evenodd" clip-rule="evenodd"/></clipPath><clipPath id="clip9"><path d="M215 81 225 81 225 92 215 92Z" fill-rule="evenodd" clip-rule="evenodd"/></clipPath><clipPath id="clip10"><path d="M212 124 223 124 223 134 212 134Z" fill-rule="evenodd" clip-rule="evenodd"/></clipPath><clipPath id="clip11"><path d="M212 124 223 124 223 134 212 134Z" fill-rule="evenodd" clip-rule="evenodd"/></clipPath><clipPath id="clip12"><path d="M212 124 223 124 223 134 212 134Z" fill-rule="evenodd" clip-rule="evenodd"/></clipPath><clipPath id="clip13"><path d="M215 168 225 168 225 177 215 177Z" fill-rule="evenodd" clip-rule="evenodd"/></clipPath><clipPath id="clip14"><path d="M215 168 225 168 225 177 215 177Z" fill-rule="evenodd" clip-rule="evenodd"/></clipPath><clipPath id="clip15"><path d="M215 168 225 168 225 177 215 177Z" fill-rule="evenodd" clip-rule="evenodd"/></clipPath><clipPath id="clip16"><path d="M214 209 224 209 224 218 214 218Z" fill-rule="evenodd" clip-rule="evenodd"/></clipPath><clipPath id="clip17"><path d="M214 209 224 209 224 218 214 218Z" fill-rule="evenodd" clip-rule="evenodd"/></clipPath><clipPath id="clip18"><path d="M214 209 224 209 224 218 214 218Z" fill-rule="evenodd" clip-rule="evenodd"/></clipPath></defs><g clip-path="url(#clip0)"><rect x="0" y="0" width="265" height="265" fill="#313131"/><rect x="89.5" y="131.5" width="1.99999" height="1" stroke="#2F528F" stroke-width="1.33585" stroke-miterlimit="8" fill="#4472C4"/><path d="M23.5 9.75271C23.5 8.50859 24.5085 7.50003 25.7527 7.50003L249.247 7.50003C250.491 7.50003 251.5 8.50859 251.5 9.75271L251.5 249.247C251.5 250.491 250.491 251.5 249.247 251.5L25.7527 251.5C24.5085 251.5 23.5 250.491 23.5 249.247Z" stroke="#FF0000" stroke-width="0.667927" stroke-miterlimit="8" stroke-opacity="0" fill="none" fill-rule="evenodd"/><path d="M30.0794 43.5 149.921 43.5C153.002 43.5 155.5 45.998 155.5 49.0794L155.5 214.252C155.5 216.598 153.598 218.5 151.252 218.5L28.7483 218.5C26.402 218.5 24.5 216.598 24.5 214.252L24.5 49.0794C24.5 45.998 26.998 43.5 30.0794 43.5Z" stroke="#000080" stroke-width="4.67549" stroke-miterlimit="8" fill="#FFFFFF" fill-rule="evenodd"/><g clip-path="url(#clip1)"><g clip-path="url(#clip2)"><g clip-path="url(#clip3)"><path d="M53.2084 53.5833 42.1021 53.5833C41.6651 53.5833 41.3104 53.938 41.3104 54.375L41.3104 55.1666 35.7917 55.1666C35.3547 55.1666 35 55.5213 35 55.9583L35 65.4583C35 65.8961 35.3547 66.25 35.7917 66.25L38.1366 66.25 38.1366 67.8333C38.1366 68.2711 38.4913 68.625 38.9283 68.625L41.3104 68.625 41.3104 69.4167C41.3104 69.8545 41.6651 70.2083 42.1021 70.2083L53.2084 70.2083C53.6462 70.2083 54 69.8545 54 69.4167L54 54.375C54 53.938 53.6462 53.5833 53.2084 53.5833ZM36.5833 64.6666 36.5833 56.75 41.3104 56.75 41.3104 57.5416 38.9283 57.5416C38.4913 57.5416 38.1366 57.8963 38.1366 58.3333L38.1366 64.6666 36.5833 64.6666ZM39.7199 67.0417 39.7199 59.125 41.3104 59.125 41.3104 67.0417 39.7199 67.0417ZM52.4167 68.625 42.8937 68.625 42.8937 67.8333 42.8937 58.3333 42.8937 55.1666 52.4167 55.1666 52.4167 68.625Z"/><path d="M44.4992 63.4791C44.7431 63.4791 44.9822 63.3659 45.1389 63.1554L46.841 60.8334 48.5684 62.4587C48.7624 62.6408 49.0339 62.712 49.2952 62.6526 49.5532 62.5909 49.7654 62.4033 49.8549 62.1531L51.5775 57.4165C51.7272 57.0057 51.5158 56.5513 51.1041 56.4016 50.6917 56.2528 50.2388 56.4642 50.09 56.875L48.779 60.4819 47.2756 59.0672C47.1102 58.912 46.8948 58.8352 46.6613 58.8558 46.4357 58.8764 46.2298 58.9928 46.0952 59.1756L43.8635 62.2196C43.6054 62.5727 43.6814 63.0675 44.0337 63.3256 44.1731 63.4301 44.3369 63.4791 44.4992 63.4791Z"/><path d="M44.5 66.6458 50.8334 66.6458C51.2712 66.6458 51.625 66.2919 51.625 65.8542 51.625 65.4164 51.2712 65.0625 50.8334 65.0625L44.5 65.0625C44.063 65.0625 43.7084 65.4164 43.7084 65.8542 43.7084 66.2919 44.063 66.6458 44.5 66.6458Z"/></g></g></g><path d="M26.9702 6.36947C18.5628 6.36947 11.7473 10.3112 11.7473 15.1736L11.7473 248.948C11.7473 253.81 18.5628 257.752 26.9702 257.752L238.08 257.752C246.487 257.752 253.302 253.81 253.302 248.948L253.302 15.1736C253.302 10.3112 246.487 6.36947 238.08 6.36947ZM0 0 265 0 265 265 0 265Z" fill="#000080" fill-rule="evenodd"/><text font-family="Calibri,Calibri_MSFontService,sans-serif" font-weight="700" font-size="11" transform="translate(77.3056 63)">BUSINESS <tspan x="-1.92363" y="13">OUTCOME</tspan><tspan font-size="9" x="-46.0153" y="51">Business Outcome</tspan><tspan font-weight="400" font-size="9" x="27.2897" y="51">represents </tspan><tspan font-weight="400" font-size="9" x="-46.0153" y="62">a state that is to be achieved. </tspan><tspan font-weight="400" font-size="9" x="-46.0153" y="73">Its elicitation in the shape of </tspan><tspan font-size="9" x="-46.0153" y="84">innovative ideas</tspan><tspan font-weight="400" font-size="9" x="19.6086" y="84">is motivated </tspan><tspan font-weight="400" font-size="9" x="-46.0153" y="96">by </tspan><tspan font-size="9" x="-34.8275" y="96">Business drivers</tspan><tspan font-weight="400" font-size="9" x="29.4605" y="96">that </tspan><tspan font-weight="400" font-size="9" x="-46.0153" y="107">contribute to the overall </tspan><tspan font-weight="400" font-size="9" x="-46.0153" y="118">enterprise value.</tspan></text><path d="M212.5 42.5C212.5 41.9478 212.948 41.5 213.5 41.5L247.5 41.5C248.052 41.5 248.5 41.9478 248.5 42.5L248.5 46.5C248.5 47.0523 248.052 47.5 247.5 47.5L213.5 47.5C212.948 47.5 212.5 47.0523 212.5 46.5Z" stroke="#911EB4" stroke-width="1.33585" stroke-miterlimit="8" fill="#FFFFFF" fill-rule="evenodd"/><text font-family="Calibri,Calibri_MSFontService,sans-serif" font-weight="700" font-size="5" transform="translate(223.229 45)">CAPABILITY</text><g clip-path="url(#clip4)"><g clip-path="url(#clip5)"><g clip-path="url(#clip6)"><path d="M220.75 43.1666 213.25 43.1666C213.02 43.1666 212.833 43.3533 212.833 43.5833L212.833 45.25C212.833 45.4804 213.02 45.6666 213.25 45.6666L213.667 45.6666 213.667 48.1666C213.667 48.397 213.853 48.5833 214.083 48.5833L219.917 48.5833C220.147 48.5833 220.333 48.397 220.333 48.1666L220.333 45.6666 220.75 45.6666C220.98 45.6666 221.167 45.4804 221.167 45.25L221.167 43.5833C221.167 43.3533 220.98 43.1666 220.75 43.1666ZM219.5 47.75 214.5 47.75 214.5 45.6666 219.5 45.6666 219.5 47.75ZM220.333 44.8333 219.917 44.8333 214.083 44.8333 213.667 44.8333 213.667 44 220.333 44 220.333 44.8333Z"/><path d="M214.083 42.3333 216.167 42.3333C216.397 42.3333 216.583 42.1466 216.583 41.9166L216.583 39.8333C216.583 39.6033 216.397 39.4167 216.167 39.4167L214.083 39.4167C213.853 39.4167 213.667 39.6033 213.667 39.8333L213.667 41.9166C213.667 42.1466 213.853 42.3333 214.083 42.3333ZM214.5 40.25 215.75 40.25 215.75 41.5 214.5 41.5 214.5 40.25Z"/><path d="M218.875 42.3333C219.681 42.3333 220.333 41.6804 220.333 40.875 220.333 40.0696 219.681 39.4167 218.875 39.4167 218.069 39.4167 217.417 40.0696 217.417 40.875 217.417 41.6804 218.069 42.3333 218.875 42.3333ZM218.875 40.25C219.22 40.25 219.5 40.5296 219.5 40.875 219.5 41.2204 219.22 41.5 218.875 41.5 218.53 41.5 218.25 41.2204 218.25 40.875 218.25 40.5296 218.53 40.25 218.875 40.25Z"/></g></g></g><path d="M215.5 84.5C215.5 83.9477 215.948 83.5 216.5 83.5L247.5 83.5C248.052 83.5 248.5 83.9477 248.5 84.5L248.5 88.5C248.5 89.0522 248.052 89.5 247.5 89.5L216.5 89.5C215.948 89.5 215.5 89.0522 215.5 88.5Z" stroke="#911EB4" stroke-width="1.33585" stroke-miterlimit="8" fill="#FFFFFF" fill-rule="evenodd"/><text font-family="Calibri,Calibri_MSFontService,sans-serif" font-weight="700" font-size="5" transform="translate(226.633 87)">SEGMENT</text><g clip-path="url(#clip7)"><g clip-path="url(#clip8)"><g clip-path="url(#clip9)"><path d="M2.62499 4.28924C1.79774 4.28924 1.125 3.61911 1.125 2.79599 1.125 1.97287 1.79774 1.30312 2.62499 1.30312 3.45224 1.30312 4.12499 1.97287 4.12499 2.79599 4.12499 3.61911 3.45224 4.28924 2.62499 4.28924ZM2.62499 2.05312C2.21137 2.05312 1.87499 2.38649 1.87499 2.79599 1.87499 3.20549 2.21137 3.53886 2.62499 3.53886 3.03862 3.53886 3.37499 3.20549 3.37499 2.79599 3.37499 2.38649 3.03862 2.05312 2.62499 2.05312Z" transform="matrix(1 0 -0 1.00001 216.375 82.5625)"/><path d="M5.99998 2.79862C5.17273 2.79862 4.49999 2.12887 4.49999 1.30575 4.49999 0.482624 5.17273-0.187499 5.99998-0.187499 6.82723-0.187499 7.49998 0.482249 7.49998 1.30537 7.49998 2.12849 6.82723 2.79862 5.99998 2.79862ZM5.99998 0.562498C5.58636 0.562498 5.24998 0.895872 5.24998 1.30537 5.24998 1.71487 5.58636 2.04824 5.99998 2.04824 6.41361 2.04824 6.74998 1.71487 6.74998 1.30537 6.74998 0.895872 6.41361 0.562498 5.99998 0.562498Z" transform="matrix(1 0 -0 1.00001 216.375 82.5625)"/><path d="M4.87499 8.06248C4.66761 8.06248 4.49999 7.89485 4.49999 7.68748L4.49999 6.54598C4.49999 6.12336 4.15349 5.77986 3.72786 5.77986L1.52212 5.77986C1.0965 5.77986 0.749998 6.12336 0.749998 6.54598L0.749998 7.68748C0.749998 7.89485 0.581998 8.06248 0.374999 8.06248 0.168 8.06248 0 7.89485 0 7.68748L0 6.54598C0 5.71011 0.682873 5.02986 1.52212 5.02986L3.72786 5.02986C4.56711 5.02986 5.24998 5.70973 5.24998 6.54598L5.24998 7.68748C5.24998 7.89485 5.08236 8.06248 4.87499 8.06248Z" transform="matrix(1 0 -0 1.00001 216.375 82.5625)"/><path d="M8.24998 6.57148C8.0426 6.57148 7.87498 6.40386 7.87498 6.19648L7.87498 5.05536C7.87498 4.63274 7.52623 4.28886 7.09798 4.28886L4.87499 4.28886C4.66761 4.28886 4.49999 4.12124 4.49999 3.91386 4.49999 3.70649 4.66761 3.53886 4.87499 3.53886L7.09798 3.53886C7.93985 3.53886 8.62497 4.21911 8.62497 5.05499L8.62497 6.19611C8.62497 6.40386 8.45735 6.57148 8.24998 6.57148Z" transform="matrix(1 0 -0 1.00001 216.375 82.5625)"/></g></g></g><path d="M212.5 126.667C212.5 126.022 213.022 125.5 213.667 125.5L247.333 125.5C247.978 125.5 248.5 126.022 248.5 126.667L248.5 131.333C248.5 131.978 247.978 132.5 247.333 132.5L213.667 132.5C213.022 132.5 212.5 131.978 212.5 131.333Z" stroke="#FABEBE" stroke-width="1.33585" stroke-miterlimit="8" fill="#FFFFFF" fill-rule="evenodd"/><text font-family="Calibri,Calibri_MSFontService,sans-serif" font-weight="700" font-size="5" transform="translate(224.08 130)">PAINPOINT</text><g clip-path="url(#clip10)"><g clip-path="url(#clip11)"><g clip-path="url(#clip12)"><path d="M4.12499 8.62497C4.12499 8.62497 4.12461 8.62497 4.12424 8.62497 3.99899 8.6246 3.88236 8.56235 3.81299 8.4581 3.70311 8.29348 1.125 4.40849 1.125 2.56237 1.125 0.778123 2.30249-0.374999 4.12499-0.374999 5.97561-0.374999 7.12498 0.750373 7.12498 2.56237 7.12498 4.43886 4.54611 8.2961 4.43624 8.45885 4.36649 8.56273 4.24986 8.62497 4.12499 8.62497ZM4.12499 0.374999C3.44849 0.374999 1.87499 0.587998 1.87499 2.56237 1.87499 3.74061 3.29512 6.24148 4.12611 7.56073 4.95711 6.24936 6.37498 3.76124 6.37498 2.56237 6.37498 0.587998 4.80149 0.374999 4.12499 0.374999Z" transform="matrix(1.11111 0 -0 1 213.417 124.375)"/><path d="M4.49999 4.87499C4.49999 5.08209 4.33209 5.24998 4.12499 5.24998 3.91788 5.24998 3.74999 5.08209 3.74999 4.87499 3.74999 4.66788 3.91788 4.49999 4.12499 4.49999 4.33209 4.49999 4.49999 4.66788 4.49999 4.87499Z" transform="matrix(1.11111 0 -0 1 213.417 124.375)"/><path d="M4.12686 4.12499C3.91986 4.12499 3.75224 3.95736 3.75186 3.75036L3.74999 1.50037C3.74999 1.29337 3.91761 1.125 4.12461 1.125 4.12499 1.125 4.12499 1.125 4.12499 1.125 4.33199 1.125 4.49999 1.29262 4.49999 1.49962L4.50186 3.74961C4.50186 3.95661 4.33424 4.12499 4.12686 4.12499 4.12724 4.12499 4.12724 4.12499 4.12686 4.12499Z" transform="matrix(1.11111 0 -0 1 213.417 124.375)"/></g></g></g><path d="M215.5 168.667C215.5 167.47 216.47 166.5 217.667 166.5L246.333 166.5C247.53 166.5 248.5 167.47 248.5 168.667L248.5 177.333C248.5 178.53 247.53 179.5 246.333 179.5L217.667 179.5C216.47 179.5 215.5 178.53 215.5 177.333Z" stroke="#000080" stroke-width="1.33585" stroke-miterlimit="8" fill="#FFFFFF" fill-rule="evenodd"/><text font-family="Calibri,Calibri_MSFontService,sans-serif" font-weight="700" font-size="5" transform="translate(226.826 171)">BUSINESS<tspan x="0" y="6">DRIVER</tspan></text><g clip-path="url(#clip13)"><g clip-path="url(#clip14)"><g clip-path="url(#clip15)"><path d="M6.37461 2.62499C6.37461 2.8321 6.20671 2.99999 5.99961 2.99999 5.7925 2.99999 5.62461 2.8321 5.62461 2.62499 5.62461 2.41789 5.7925 2.24999 5.99961 2.24999 6.20671 2.24999 6.37461 2.41789 6.37461 2.62499Z" transform="matrix(1 0 -0 1.04348 216 168)"/><path d="M8.24998 7.87498 5.24998 7.87498 5.24998 4.59149 5.74686 5.12961C5.81811 5.20648 5.91748 5.24998 6.02248 5.24998 6.02361 5.24998 6.02473 5.24998 6.02586 5.24998 6.13161 5.24886 6.23211 5.20349 6.30223 5.12436L6.90673 4.44599 7.49548 4.44599C7.70285 4.44599 7.87048 4.27799 7.87048 4.07099L7.87048 3.44774 8.51248 2.81849C8.58447 2.74799 8.62497 2.65124 8.62497 2.55037 8.62497 2.44949 8.58447 2.35312 8.5121 2.28262L7.87048 1.65487 7.87048 1.1085C7.87048 0.901497 7.70285 0.733498 7.49548 0.733498L6.89623 0.733498 6.29061 0.11325C6.22048 0.0419999 6.12561 0.001125 6.02548 0.000374999 5.93323 0.00224999 5.82973 0.0386249 5.75886 0.10875L5.12586 0.733873 4.49699 0.733873C4.28999 0.733873 4.12199 0.901872 4.12199 1.10887L4.12199 1.65637 3.52049 2.24999 1.125 2.24999C0.917997 2.24999 0.749998 2.41799 0.749998 2.62499L0.749998 7.87498 0.374999 7.87498C0.168 7.87498 0 8.0426 0 8.24998 0 8.45735 0.168 8.62497 0.374999 8.62497L1.125 8.62497 4.87499 8.62497 8.24998 8.62497C8.45735 8.62497 8.62497 8.45735 8.62497 8.24998 8.62497 8.0426 8.45735 7.87498 8.24998 7.87498ZM4.76024 2.07899C4.83149 2.00849 4.87199 1.91249 4.87199 1.81237L4.87199 1.4835 5.27961 1.4835C5.37823 1.4835 5.47311 1.4445 5.54286 1.37512L6.01761 0.906747 6.47023 1.37025C6.54073 1.44262 6.63748 1.48312 6.73873 1.48312L7.12085 1.48312 7.12085 1.81199C7.12085 1.91287 7.16135 2.00924 7.23373 2.08012L7.71448 2.55037 7.23298 3.02249C7.16135 3.09299 7.12048 3.18937 7.12048 3.29024L7.12048 3.69636 6.73873 3.69636C6.63186 3.69636 6.52986 3.74211 6.45898 3.82161L6.01723 4.31699 5.55523 3.81674C5.48436 3.73986 5.38461 3.69636 5.27998 3.69636L5.24998 3.69636 5.24998 2.62499C5.24998 2.61524 5.24511 2.60737 5.24436 2.59762L5.24436 2.53874C5.24436 2.43862 5.20461 2.34262 5.13298 2.27212 5.06174 2.20162 4.96499 2.16899 4.86524 2.16374L4.67249 2.16562 4.76024 2.07899ZM1.5 7.87498 1.5 2.99999 4.49999 2.99999 4.49999 7.87498 1.5 7.87498Z" transform="matrix(1 0 -0 1.04348 216 168)"/><path d="M1.87499 3.74999 2.62499 3.74999 2.62499 4.87499 1.87499 4.87499Z" transform="matrix(1 0 -0 1.04348 216 168)"/><path d="M1.87499 5.62498 2.62499 5.62498 2.62499 6.74998 1.87499 6.74998Z" transform="matrix(1 0 -0 1.04348 216 168)"/><path d="M3.37499 3.74999 4.12499 3.74999 4.12499 4.87499 3.37499 4.87499Z" transform="matrix(1 0 -0 1.04348 216 168)"/><path d="M3.37499 5.62498 4.12499 5.62498 4.12499 6.74998 3.37499 6.74998Z" transform="matrix(1 0 -0 1.04348 216 168)"/></g></g></g><path d="M214.5 211.5C214.5 210.948 214.948 210.5 215.5 210.5L247.5 210.5C248.052 210.5 248.5 210.948 248.5 211.5L248.5 215.5C248.5 216.052 248.052 216.5 247.5 216.5L215.5 216.5C214.948 216.5 214.5 216.052 214.5 215.5Z" stroke="#46F0F0" stroke-width="1.33585" stroke-miterlimit="8" fill="#FFFFFF" fill-rule="evenodd"/><text font-family="Calibri,Calibri_MSFontService,sans-serif" font-weight="700" font-size="5" transform="translate(225.442 214)">INITIATIVE</text><g clip-path="url(#clip16)"><g clip-path="url(#clip17)"><g clip-path="url(#clip18)"><path d="M218.75 213.775C219.577 213.775 220.25 213.118 220.25 212.311 220.25 211.504 219.577 210.848 218.75 210.848 217.923 210.848 217.25 211.504 217.25 212.311 217.25 213.118 217.923 213.775 218.75 213.775ZM218.75 211.58C219.164 211.58 219.5 211.908 219.5 212.312 219.5 212.715 219.164 213.044 218.75 213.044 218.336 213.044 218 212.715 218 212.312 218 211.908 218.336 211.58 218.75 211.58Z"/><path d="M222.5 209.75C222.293 209.75 222.125 209.914 222.125 210.116L222.125 212.542 222.125 212.677 222.125 212.71C222.125 213.707 221.295 214.517 220.274 214.517L218.726 214.517C217.292 214.518 216.125 215.579 216.125 216.884 216.125 217.086 216.293 217.25 216.5 217.25 216.707 217.25 216.875 217.086 216.875 216.884 216.875 215.983 217.705 215.249 218.726 215.249L220.274 215.249C221.708 215.249 222.875 214.111 222.875 212.71L222.875 212.677 222.875 212.542 222.875 210.116C222.875 209.914 222.707 209.75 222.5 209.75Z"/><path d="M221 215.604C220.793 215.604 220.625 215.768 220.625 215.971L220.625 216.702C220.625 216.905 220.793 217.068 221 217.068 221.207 217.068 221.375 216.905 221.375 216.702L221.375 215.971C221.375 215.768 221.207 215.604 221 215.604Z"/></g></g></g><path d="M166.17 83 204.83 83C209.894 83 214 86.134 214 90 214 93.866 209.894 97 204.83 97L166.17 97C161.106 97 157 93.866 157 90 157 86.134 161.106 83 166.17 83Z" fill="#313131" fill-rule="evenodd"/><text fill="#FFFFFF" font-family="Calibri,Calibri_MSFontService,sans-serif" font-weight="700" font-size="5" transform="translate(178.343 92)">|As a&gt;</text><path d="M166.17 166 204.83 166C209.894 166 214 169.134 214 173 214 176.866 209.894 180 204.83 180L166.17 180C161.106 180 157 176.866 157 173 157 169.134 161.106 166 166.17 166Z" fill="#313131" fill-rule="evenodd"/><text fill="#FFFFFF" font-family="Calibri,Calibri_MSFontService,sans-serif" font-weight="700" font-size="5" transform="translate(172.332 175)">|Driven By&gt;</text><path d="M165.687 125 202.313 125C207.11 125 211 128.134 211 132 211 135.866 207.11 139 202.313 139L165.687 139C160.889 139 157 135.866 157 132 157 128.134 160.889 125 165.687 125Z" fill="#313131" fill-rule="evenodd"/><text fill="#FFFFFF" font-family="Calibri,Calibri_MSFontService,sans-serif" font-weight="700" font-size="5" transform="translate(167.489 134)">&lt;Mitigated by|</text><path d="M165.527 41 201.473 41C206.183 41 210 43.9101 210 47.5 210 51.0899 206.183 54.0001 201.473 54.0001L165.527 54.0001C160.817 54.0001 157 51.0899 157 47.5 157 43.9101 160.817 41 165.527 41Z" fill="#313131" fill-rule="evenodd"/><text fill="#FFFFFF" font-family="Calibri,Calibri_MSFontService,sans-serif" font-weight="700" font-size="5" transform="translate(168.658 49)">&lt;Uplifted by|</text><path d="M165.848 210 203.152 210C208.038 210 212 212.91 212 216.5 212 220.09 208.038 223 203.152 223L165.848 223C160.962 223 157 220.09 157 216.5 157 212.91 160.962 210 165.848 210Z" fill="#313131" fill-rule="evenodd"/><text fill="#FFFFFF" font-family="Calibri,Calibri_MSFontService,sans-serif" font-weight="700" font-size="5" transform="translate(173.083 218)">&lt;Includes|</text></g></svg>