<svg width="189" height="189" xmlns="http://www.w3.org/2000/svg" xmlns:xlink="http://www.w3.org/1999/xlink" overflow="hidden"><defs><clipPath id="clip0"><path d="M0 0 189 0 189 189 0 189Z" fill-rule="evenodd" clip-rule="evenodd"/></clipPath><clipPath id="clip1"><path d="M3 3 47 3 47 48 3 48Z" fill-rule="evenodd" clip-rule="evenodd"/></clipPath><clipPath id="clip2"><path d="M3 3 47 3 47 48 3 48Z" fill-rule="evenodd" clip-rule="evenodd"/></clipPath><clipPath id="clip3"><path d="M3 3 47 3 47 48 3 48Z" fill-rule="evenodd" clip-rule="evenodd"/></clipPath></defs><g clip-path="url(#clip0)"><rect x="0" y="0" width="189" height="189" fill="#313131"/><text fill="#FFFFFF" font-family="Calibri,Calibri_MSFontService,sans-serif" font-weight="300" font-size="11" transform="translate(9.60032 -5)">SCENARIO</text><rect x="3.50005" y="3.50005" width="1" height="1" stroke="#2F528F" stroke-width="1.33333" stroke-miterlimit="8" fill="#4472C4"/><rect x="0" y="0" width="189" height="189" stroke="#FABEBE" stroke-width="8" stroke-miterlimit="8" fill="#FFFFFF"/><g clip-path="url(#clip1)"><g clip-path="url(#clip2)"><g clip-path="url(#clip3)"><path d="M42.1667 5.5 40.3333 5.5 40.3333 3.66667C40.3333 2.65467 39.5138 1.83333 38.5 1.83333L5.5 1.83333C4.488 1.83333 3.66667 2.65467 3.66667 3.66667L3.66667 5.5 1.83333 5.5C0.821333 5.5 0 6.32133 0 7.33333 0 8.34533 0.821333 9.16667 1.83333 9.16667L3.66667 9.16667 3.66667 11C3.66667 12.012 4.488 12.8333 5.5 12.8333L7.33333 12.8333 7.33333 40.3333C7.33333 41.3472 8.15467 42.1667 9.16667 42.1667L34.8333 42.1667C35.8472 42.1667 36.6667 41.3472 36.6667 40.3333L36.6667 12.8333 38.5 12.8333C39.5138 12.8333 40.3333 12.012 40.3333 11L40.3333 9.16667 42.1667 9.16667C43.1805 9.16667 44 8.34533 44 7.33333 44 6.32133 43.1805 5.5 42.1667 5.5ZM33 38.5 11 38.5 11 12.8333 33 12.8333 33 38.5ZM36.6667 9.16667 34.8333 9.16667 9.16667 9.16667 7.33333 9.16667 7.33333 5.5 36.6667 5.5 36.6667 9.16667Z" transform="matrix(1 0 -0 1.02273 3 3)"/><path d="M16.5 20.1667 27.5 20.1667C28.5138 20.1667 29.3333 19.3453 29.3333 18.3333 29.3333 17.3213 28.5138 16.5 27.5 16.5L16.5 16.5C15.488 16.5 14.6667 17.3213 14.6667 18.3333 14.6667 19.3453 15.488 20.1667 16.5 20.1667Z" transform="matrix(1 0 -0 1.02273 3 3)"/><path d="M16.5 27.5 23.8333 27.5C24.8472 27.5 25.6667 26.6805 25.6667 25.6667 25.6667 24.6528 24.8472 23.8333 23.8333 23.8333L16.5 23.8333C15.488 23.8333 14.6667 24.6528 14.6667 25.6667 14.6667 26.6805 15.488 27.5 16.5 27.5Z" transform="matrix(1 0 -0 1.02273 3 3)"/><path d="M16.5 34.8333 27.5 34.8333C28.5138 34.8333 29.3333 34.0138 29.3333 33 29.3333 31.9862 28.5138 31.1667 27.5 31.1667L16.5 31.1667C15.488 31.1667 14.6667 31.9862 14.6667 33 14.6667 34.0138 15.488 34.8333 16.5 34.8333Z" transform="matrix(1 0 -0 1.02273 3 3)"/></g></g></g><text font-family="Calibri,Calibri_MSFontService,sans-serif" font-weight="700" font-size="20" transform="translate(73.9615 23)">SCENARIO<tspan font-weight="400" font-size="12" x="-67.4225" y="86">A user </tspan><tspan font-size="12" x="-33.9225" y="86">Scenario</tspan><tspan font-weight="400" font-size="12" x="9.07753" y="86">, often described as </tspan><tspan font-weight="400" font-size="12" x="-67.4225" y="101">a Customer Job, Problem, or </tspan><tspan font-weight="400" font-size="12" x="-67.4225" y="115">Needs/Wants.</tspan></text></g></svg>