<svg width="189" height="189" xmlns="http://www.w3.org/2000/svg" xmlns:xlink="http://www.w3.org/1999/xlink" overflow="hidden"><defs><clipPath id="clip0"><path d="M0 0 189 0 189 189 0 189Z" fill-rule="evenodd" clip-rule="evenodd"/></clipPath><clipPath id="clip1"><path d="M3 3 47 3 47 48 3 48Z" fill-rule="evenodd" clip-rule="evenodd"/></clipPath><clipPath id="clip2"><path d="M3 3 47 3 47 48 3 48Z" fill-rule="evenodd" clip-rule="evenodd"/></clipPath><clipPath id="clip3"><path d="M3 3 47 3 47 48 3 48Z" fill-rule="evenodd" clip-rule="evenodd"/></clipPath></defs><g clip-path="url(#clip0)"><rect x="0" y="0" width="189" height="189" fill="#313131"/><text fill="#FFFFFF" font-family="Calibri,Calibri_MSFontService,sans-serif" font-weight="300" font-size="11" transform="translate(9.60032 -5)">VALUE STREAM</text><rect x="3.50005" y="3.50005" width="1" height="1" stroke="#2F528F" stroke-width="1.33333" stroke-miterlimit="8" fill="#4472C4"/><rect x="0" y="0" width="189" height="189" stroke="#F032E6" stroke-width="8" stroke-miterlimit="8" fill="#FFFFFF"/><g clip-path="url(#clip1)"><g clip-path="url(#clip2)"><g clip-path="url(#clip3)"><path d="M34.8682 42.1648 5.50183 42.1648C4.79783 42.1648 4.15617 41.7597 3.85 41.1272 3.54383 40.491 3.63 39.7375 4.07 39.1875L6.81633 35.7482 4.06817 32.3088C3.62817 31.7588 3.542 31.0053 3.84817 30.3692 4.15617 29.7348 4.79783 29.3315 5.50183 29.3315L34.8682 29.3315C35.4292 29.3315 35.9572 29.59 36.3018 30.0263L39.9373 34.6097C40.4672 35.2752 40.4672 36.2212 39.9373 36.8867L36.3018 41.47C35.9517 41.9063 35.4255 42.1648 34.8682 42.1648ZM9.31333 38.4982 33.9808 38.4982 36.1625 35.7482 33.9808 32.9982 9.31333 32.9982 10.5967 34.6042C11.132 35.2733 11.132 36.223 10.5967 36.8922L9.31333 38.4982Z" transform="matrix(1 0 -0 1.02273 3 3)"/><path d="M22 25.6648 22 25.6648C21.5123 25.6648 21.0467 25.4742 20.7038 25.1277L11.539 15.9518C10.8222 15.235 10.8222 14.0763 11.539 13.3577L20.7038 4.18183C21.3913 3.49433 22.6068 3.4925 23.2962 4.18183L32.4647 13.3577C32.8093 13.7023 33.0018 14.168 33.0018 14.6538 33.0018 15.1397 32.8093 15.609 32.4647 15.9518L23.2962 25.1277C22.9552 25.4742 22.4877 25.6648 22 25.6648ZM15.4275 14.6538 22 21.2337 28.5762 14.6538 22 8.074 15.4275 14.6538Z" transform="matrix(1 0 -0 1.02273 3 3)"/></g></g></g><text font-family="Calibri,Calibri_MSFontService,sans-serif" font-weight="700" font-size="20" transform="translate(52.7081 23)">VALUE STREAM<tspan font-weight="400" font-size="12" x="-46.1691" y="78">A </tspan><tspan font-size="12" x="-36.5025" y="78">ValueStream</tspan><tspan font-weight="400" font-size="12" x="30.8309" y="78">elaborates a </tspan><tspan font-weight="400" font-size="12" x="-46.1691" y="93">progression of tangible stages in </tspan><tspan font-weight="400" font-size="12" x="-46.1691" y="107">the execution of a value</tspan><tspan font-weight="400" font-size="12" x="70.8309" y="107">-</tspan><tspan font-weight="400" font-size="12" x="74.4975" y="107">producing </tspan><tspan font-weight="400" font-size="12" x="-46.1691" y="121">business endeavour.</tspan></text></g></svg>