<svg width="189" height="189" xmlns="http://www.w3.org/2000/svg" xmlns:xlink="http://www.w3.org/1999/xlink" overflow="hidden"><defs><clipPath id="clip0"><path d="M0 0 189 0 189 189 0 189Z" fill-rule="evenodd" clip-rule="evenodd"/></clipPath><clipPath id="clip1"><path d="M3 3 47 3 47 48 3 48Z" fill-rule="evenodd" clip-rule="evenodd"/></clipPath><clipPath id="clip2"><path d="M3 3 47 3 47 48 3 48Z" fill-rule="evenodd" clip-rule="evenodd"/></clipPath><clipPath id="clip3"><path d="M3 3 47 3 47 48 3 48Z" fill-rule="evenodd" clip-rule="evenodd"/></clipPath></defs><g clip-path="url(#clip0)"><rect x="0" y="0" width="189" height="189" fill="#313131"/><text fill="#FFFFFF" font-family="Calibri,Calibri_MSFontService,sans-serif" font-weight="300" font-size="11" transform="translate(9.60032 -5)">EPIC</text><rect x="3.50005" y="3.50005" width="1" height="1" stroke="#2F528F" stroke-width="1.33333" stroke-miterlimit="8" fill="#4472C4"/><rect x="0" y="0" width="189" height="189" stroke="#000080" stroke-width="8" stroke-miterlimit="8" fill="#FFFFFF"/><g clip-path="url(#clip1)"><g clip-path="url(#clip2)"><g clip-path="url(#clip3)"><path d="M37.1268 9.16667 29.3352 9.16667 29.3352 5.5 18.3352 5.5 18.3352 3.66667C18.3352 2.65467 17.5138 1.83333 16.5018 1.83333 15.4898 1.83333 14.6685 2.65467 14.6685 3.66667L14.6685 5.5 14.6685 20.1667 14.6685 31.1667 9.1685 31.1667C8.47367 31.1667 7.83933 31.559 7.52767 32.1805L3.861 39.5138C3.40817 40.4195 3.77483 41.5232 4.6805 41.9742 5.58983 42.4252 6.68617 42.0603 7.14083 41.1565L10.3015 34.8333 22.7022 34.8333 25.8628 41.1528C26.1837 41.7963 26.8308 42.1667 27.5037 42.1667 27.7768 42.1667 28.061 42.1043 28.3213 41.9742 29.227 41.5232 29.5918 40.4195 29.1408 39.5138L25.4742 32.1805C25.1643 31.559 24.53 31.1667 23.8352 31.1667L18.3352 31.1667 18.3352 20.1667 25.6685 20.1667 25.6685 23.8333 37.1268 23.8333C38.9235 23.8333 40.3352 22.2237 40.3352 20.1667L40.3352 12.8333C40.3352 10.7763 38.9235 9.16667 37.1268 9.16667ZM18.3352 16.5 18.3352 9.16667 25.6685 9.16667 25.6685 16.5 18.3352 16.5ZM36.6685 20.1667 29.3352 20.1667 29.3352 12.8333 36.6685 12.8333 36.6685 20.1667Z" transform="matrix(1 0 -0 1.02273 3 3)"/></g></g></g><text font-family="Calibri,Calibri_MSFontService,sans-serif" font-weight="700" font-size="20" transform="translate(98.4615 23)">EPIC<tspan font-weight="400" font-size="12" x="-91.9225" y="86">An</tspan><tspan font-size="12" x="-75.9225" y="86">Epic</tspan><tspan font-weight="400" font-size="12" x="-52.9225" y="86">defines work</tspan><tspan font-weight="400" font-size="12" x="12.7442" y="86">to be done in </tspan><tspan font-weight="400" font-size="12" x="-91.9225" y="101">order to deliver scoped </tspan><tspan font-size="12" x="24.4109" y="101">Capability</tspan><tspan font-weight="400" font-size="12" x="-91.9225" y="115">uplift.</tspan></text></g></svg>