<svg width="265" height="265" xmlns="http://www.w3.org/2000/svg" xmlns:xlink="http://www.w3.org/1999/xlink" overflow="hidden"><defs><clipPath id="clip0"><path d="M0 0 265 0 265 265 0 265Z" fill-rule="evenodd" clip-rule="evenodd"/></clipPath><clipPath id="clip1"><path d="M35 51 55 51 55 71 35 71Z" fill-rule="evenodd" clip-rule="evenodd"/></clipPath><clipPath id="clip2"><path d="M35 51 55 51 55 71 35 71Z" fill-rule="evenodd" clip-rule="evenodd"/></clipPath><clipPath id="clip3"><path d="M35 51 55 51 55 71 35 71Z" fill-rule="evenodd" clip-rule="evenodd"/></clipPath><clipPath id="clip4"><path d="M204 126 213 126 213 136 204 136Z" fill-rule="evenodd" clip-rule="evenodd"/></clipPath><clipPath id="clip5"><path d="M204 126 213 126 213 136 204 136Z" fill-rule="evenodd" clip-rule="evenodd"/></clipPath><clipPath id="clip6"><path d="M204 126 213 126 213 136 204 136Z" fill-rule="evenodd" clip-rule="evenodd"/></clipPath></defs><g clip-path="url(#clip0)"><rect x="0" y="0" width="265" height="265" fill="#313131"/><rect x="89.5" y="131.5" width="1.99999" height="1" stroke="#2F528F" stroke-width="1.33585" stroke-miterlimit="8" fill="#4472C4"/><path d="M23.5 9.75271C23.5 8.50859 24.5085 7.50003 25.7527 7.50003L249.247 7.50003C250.491 7.50003 251.5 8.50859 251.5 9.75271L251.5 249.247C251.5 250.491 250.491 251.5 249.247 251.5L25.7527 251.5C24.5085 251.5 23.5 250.491 23.5 249.247Z" stroke="#FF0000" stroke-width="0.667927" stroke-miterlimit="8" stroke-opacity="0" fill="none" fill-rule="evenodd"/><path d="M30.0794 43.5 149.921 43.5C153.002 43.5 155.5 45.998 155.5 49.0794L155.5 214.252C155.5 216.598 153.598 218.5 151.252 218.5L28.7483 218.5C26.402 218.5 24.5 216.598 24.5 214.252L24.5 49.0794C24.5 45.998 26.998 43.5 30.0794 43.5Z" stroke="#5AA203" stroke-width="4.67549" stroke-miterlimit="8" fill="#FFFFFF" fill-rule="evenodd"/><g clip-path="url(#clip1)"><g clip-path="url(#clip2)"><g clip-path="url(#clip3)"><path d="M51.625 59.125 49.7393 59.125C50.4043 58.5439 50.8334 57.7008 50.8334 56.75 50.8334 55.0035 49.4131 53.5833 47.6667 53.5833 45.9203 53.5833 44.5 55.0035 44.5 56.75 44.5 55.0035 43.0798 53.5833 41.3334 53.5833 39.5869 53.5833 38.1667 55.0035 38.1667 56.75 38.1667 57.7008 38.5958 58.5439 39.2608 59.125L37.375 59.125C36.938 59.125 36.5833 59.4796 36.5833 59.9166L36.5833 63.0833C36.5833 63.5211 36.938 63.875 37.375 63.875L38.1667 63.875 38.1667 68.625C38.1667 69.0628 38.5213 69.4167 38.9583 69.4167L50.0417 69.4167C50.4795 69.4167 50.8334 69.0628 50.8334 68.625L50.8334 63.875 51.625 63.875C52.0628 63.875 52.4167 63.5211 52.4167 63.0833L52.4167 59.9166C52.4167 59.4796 52.0628 59.125 51.625 59.125ZM46.0834 56.75C46.0834 55.8768 46.7927 55.1666 47.6667 55.1666 48.5407 55.1666 49.25 55.8768 49.25 56.75 49.25 57.6232 48.5407 58.3333 47.6667 58.3333L46.0834 58.3333 46.0834 56.75ZM41.3334 55.1666C42.2066 55.1666 42.9167 55.8768 42.9167 56.75L42.9167 58.3333 41.3334 58.3333C40.4601 58.3333 39.75 57.6232 39.75 56.75 39.75 55.8768 40.4601 55.1666 41.3334 55.1666ZM38.1667 60.7083 43.7084 60.7083 43.7084 62.2916 38.9583 62.2916 38.1667 62.2916 38.1667 60.7083ZM39.75 63.875 43.7084 63.875 43.7084 67.8333 39.75 67.8333 39.75 63.875ZM49.25 67.8333 45.2917 67.8333 45.2917 63.875 49.25 63.875 49.25 67.8333ZM50.8334 62.2916 50.0417 62.2916 45.2917 62.2916 45.2917 60.7083 50.8334 60.7083 50.8334 62.2916Z"/></g></g></g><path d="M26.9702 6.36947C18.5628 6.36947 11.7473 10.3112 11.7473 15.1736L11.7473 248.948C11.7473 253.81 18.5628 257.752 26.9702 257.752L238.08 257.752C246.487 257.752 253.302 253.81 253.302 248.948L253.302 15.1736C253.302 10.3112 246.487 6.36947 238.08 6.36947ZM0 0 265 0 265 265 0 265Z" fill="#5AA203" fill-rule="evenodd"/><text font-family="Calibri,Calibri_MSFontService,sans-serif" font-weight="700" font-size="11" transform="translate(71.5414 63)">VALUE ITEM<tspan font-weight="400" font-size="9" x="-40.2511" y="68">The purpose of the Process. </tspan><tspan font-size="9" x="-40.2511" y="79">Value items</tspan><tspan font-weight="400" font-size="9" x="7.83967" y="79">are used to </tspan><tspan font-weight="400" font-size="9" x="-40.2511" y="90">model the value achieved by </tspan><tspan font-size="9" x="-40.2511" y="101">Value stream stages</tspan><tspan font-weight="400" font-size="9" x="37.8964" y="101">.</tspan></text><path d="M203.5 126.667C203.5 125.47 204.47 124.5 205.667 124.5L246.333 124.5C247.53 124.5 248.5 125.47 248.5 126.667L248.5 135.333C248.5 136.53 247.53 137.5 246.333 137.5L205.667 137.5C204.47 137.5 203.5 136.53 203.5 135.333Z" stroke="#F032E6" stroke-width="1.33585" stroke-miterlimit="8" fill="#FFFFFF" fill-rule="evenodd"/><text font-family="Calibri,Calibri_MSFontService,sans-serif" font-weight="700" font-size="5" transform="translate(215.107 129)">VALUE STREAM<tspan x="0" y="6">STAGE</tspan></text><g clip-path="url(#clip4)"><g clip-path="url(#clip5)"><g clip-path="url(#clip6)"><path d="M212.544 132.704 211.799 131.767C211.727 131.677 211.619 131.625 211.505 131.625L209.25 131.625C209.106 131.625 208.975 131.708 208.913 131.837 208.85 131.967 208.867 132.122 208.957 132.234L209.52 132.938 208.957 133.641C208.867 133.754 208.85 133.908 208.913 134.038 208.975 134.167 209.106 134.25 209.25 134.25L211.505 134.25C211.62 134.25 211.728 134.198 211.799 134.108L212.544 133.171C212.652 133.034 212.652 132.841 212.544 132.704Z"/><path d="M207.674 131.767C207.603 131.677 207.495 131.625 207.38 131.625L205.125 131.625C204.981 131.625 204.849 131.708 204.787 131.837 204.725 131.967 204.742 132.122 204.833 132.234L205.395 132.938 204.833 133.641C204.743 133.754 204.725 133.908 204.787 134.038 204.849 134.167 204.981 134.25 205.125 134.25L207.38 134.25C207.495 134.25 207.603 134.198 207.674 134.108L208.419 133.171C208.527 133.034 208.527 132.841 208.419 132.704L207.674 131.767ZM207.199 133.5 205.905 133.5 206.168 133.172C206.277 133.035 206.277 132.84 206.168 132.703L205.905 132.375 207.199 132.375 207.646 132.938 207.199 133.5Z"/><path d="M210.75 128.623C210.75 128.522 210.711 128.426 210.639 128.355L208.767 126.481C208.626 126.339 208.374 126.339 208.233 126.481L206.361 128.355C206.213 128.503 206.213 128.742 206.361 128.89L208.232 130.764C208.304 130.835 208.399 130.875 208.5 130.875 208.601 130.875 208.696 130.835 208.767 130.764L210.639 128.89C210.711 128.819 210.75 128.723 210.75 128.623ZM208.5 129.961 207.163 128.623 208.5 127.284 209.837 128.623 208.5 129.961Z"/></g></g></g><path d="M164.24 124 194.76 124C198.759 124 202 126.91 202 130.5 202 134.09 198.759 137 194.76 137L164.24 137C160.241 137 157 134.09 157 130.5 157 126.91 160.241 124 164.24 124Z" fill="#313131" fill-rule="evenodd"/><text fill="#FFFFFF" font-family="Calibri,Calibri_MSFontService,sans-serif" font-weight="700" font-size="5" transform="translate(163.565 132)">|Achieved by&gt;</text></g></svg>