<svg width="265" height="265" xmlns="http://www.w3.org/2000/svg" xmlns:xlink="http://www.w3.org/1999/xlink" overflow="hidden"><defs><clipPath id="clip0"><path d="M0 0 265 0 265 265 0 265Z" fill-rule="evenodd" clip-rule="evenodd"/></clipPath><clipPath id="clip1"><path d="M35 51 55 51 55 71 35 71Z" fill-rule="evenodd" clip-rule="evenodd"/></clipPath><clipPath id="clip2"><path d="M35 51 55 51 55 71 35 71Z" fill-rule="evenodd" clip-rule="evenodd"/></clipPath><clipPath id="clip3"><path d="M35 51 55 51 55 71 35 71Z" fill-rule="evenodd" clip-rule="evenodd"/></clipPath><clipPath id="clip4"><path d="M208 16 217 16 217 28 208 28Z" fill-rule="evenodd" clip-rule="evenodd"/></clipPath><clipPath id="clip5"><path d="M208 16 217 16 217 28 208 28Z" fill-rule="evenodd" clip-rule="evenodd"/></clipPath><clipPath id="clip6"><path d="M208 16 217 16 217 28 208 28Z" fill-rule="evenodd" clip-rule="evenodd"/></clipPath><clipPath id="clip7"><path d="M215 35 226 35 226 45 215 45Z" fill-rule="evenodd" clip-rule="evenodd"/></clipPath><clipPath id="clip8"><path d="M215 35 226 35 226 45 215 45Z" fill-rule="evenodd" clip-rule="evenodd"/></clipPath><clipPath id="clip9"><path d="M215 35 226 35 226 45 215 45Z" fill-rule="evenodd" clip-rule="evenodd"/></clipPath><clipPath id="clip10"><path d="M224 51 235 51 235 62 224 62Z" fill-rule="evenodd" clip-rule="evenodd"/></clipPath><clipPath id="clip11"><path d="M224 51 235 51 235 62 224 62Z" fill-rule="evenodd" clip-rule="evenodd"/></clipPath><clipPath id="clip12"><path d="M224 51 235 51 235 62 224 62Z" fill-rule="evenodd" clip-rule="evenodd"/></clipPath><clipPath id="clip13"><path d="M219 70 229 70 229 79 219 79Z" fill-rule="evenodd" clip-rule="evenodd"/></clipPath><clipPath id="clip14"><path d="M219 70 229 70 229 79 219 79Z" fill-rule="evenodd" clip-rule="evenodd"/></clipPath><clipPath id="clip15"><path d="M219 70 229 70 229 79 219 79Z" fill-rule="evenodd" clip-rule="evenodd"/></clipPath><clipPath id="clip16"><path d="M212 87 222 87 222 98 212 98Z" fill-rule="evenodd" clip-rule="evenodd"/></clipPath><clipPath id="clip17"><path d="M212 87 222 87 222 98 212 98Z" fill-rule="evenodd" clip-rule="evenodd"/></clipPath><clipPath id="clip18"><path d="M212 87 222 87 222 98 212 98Z" fill-rule="evenodd" clip-rule="evenodd"/></clipPath><clipPath id="clip19"><path d="M215 107 225 107 225 117 215 117Z" fill-rule="evenodd" clip-rule="evenodd"/></clipPath><clipPath id="clip20"><path d="M215 107 225 107 225 117 215 117Z" fill-rule="evenodd" clip-rule="evenodd"/></clipPath><clipPath id="clip21"><path d="M215 107 225 107 225 117 215 117Z" fill-rule="evenodd" clip-rule="evenodd"/></clipPath><clipPath id="clip22"><path d="M213 126 223 126 223 136 213 136Z" fill-rule="evenodd" clip-rule="evenodd"/></clipPath><clipPath id="clip23"><path d="M213 126 223 126 223 136 213 136Z" fill-rule="evenodd" clip-rule="evenodd"/></clipPath><clipPath id="clip24"><path d="M213 126 223 126 223 136 213 136Z" fill-rule="evenodd" clip-rule="evenodd"/></clipPath><clipPath id="clip25"><path d="M198 141 208 141 208 152 198 152Z" fill-rule="evenodd" clip-rule="evenodd"/></clipPath><clipPath id="clip26"><path d="M198 141 208 141 208 152 198 152Z" fill-rule="evenodd" clip-rule="evenodd"/></clipPath><clipPath id="clip27"><path d="M198 141 208 141 208 152 198 152Z" fill-rule="evenodd" clip-rule="evenodd"/></clipPath><clipPath id="clip28"><path d="M213 160 224 160 224 171 213 171Z" fill-rule="evenodd" clip-rule="evenodd"/></clipPath><clipPath id="clip29"><path d="M213 160 224 160 224 171 213 171Z" fill-rule="evenodd" clip-rule="evenodd"/></clipPath><clipPath id="clip30"><path d="M213 160 224 160 224 171 213 171Z" fill-rule="evenodd" clip-rule="evenodd"/></clipPath><clipPath id="clip31"><path d="M214 177 224 177 224 188 214 188Z" fill-rule="evenodd" clip-rule="evenodd"/></clipPath><clipPath id="clip32"><path d="M214 177 224 177 224 188 214 188Z" fill-rule="evenodd" clip-rule="evenodd"/></clipPath><clipPath id="clip33"><path d="M214 177 224 177 224 188 214 188Z" fill-rule="evenodd" clip-rule="evenodd"/></clipPath><clipPath id="clip34"><path d="M214 196 224 196 224 207 214 207Z" fill-rule="evenodd" clip-rule="evenodd"/></clipPath><clipPath id="clip35"><path d="M214 196 224 196 224 207 214 207Z" fill-rule="evenodd" clip-rule="evenodd"/></clipPath><clipPath id="clip36"><path d="M214 196 224 196 224 207 214 207Z" fill-rule="evenodd" clip-rule="evenodd"/></clipPath><clipPath id="clip37"><path d="M212 214 222 214 222 224 212 224Z" fill-rule="evenodd" clip-rule="evenodd"/></clipPath><clipPath id="clip38"><path d="M212 214 222 214 222 224 212 224Z" fill-rule="evenodd" clip-rule="evenodd"/></clipPath><clipPath id="clip39"><path d="M212 214 222 214 222 224 212 224Z" fill-rule="evenodd" clip-rule="evenodd"/></clipPath><clipPath id="clip40"><path d="M213 233 224 233 224 243 213 243Z" fill-rule="evenodd" clip-rule="evenodd"/></clipPath><clipPath id="clip41"><path d="M213 233 224 233 224 243 213 243Z" fill-rule="evenodd" clip-rule="evenodd"/></clipPath><clipPath id="clip42"><path d="M213 233 224 233 224 243 213 243Z" fill-rule="evenodd" clip-rule="evenodd"/></clipPath></defs><g clip-path="url(#clip0)"><rect x="0" y="0" width="265" height="265" fill="#313131"/><rect x="89.5" y="131.5" width="1.99999" height="1" stroke="#2F528F" stroke-width="1.33585" stroke-miterlimit="8" fill="#4472C4"/><path d="M23.5 9.75271C23.5 8.50859 24.5085 7.50003 25.7527 7.50003L249.247 7.50003C250.491 7.50003 251.5 8.50859 251.5 9.75271L251.5 249.247C251.5 250.491 250.491 251.5 249.247 251.5L25.7527 251.5C24.5085 251.5 23.5 250.491 23.5 249.247Z" stroke="#FF0000" stroke-width="0.667927" stroke-miterlimit="8" stroke-opacity="0" fill="none" fill-rule="evenodd"/><path d="M30.0794 43.5 149.921 43.5C153.002 43.5 155.5 45.998 155.5 49.0794L155.5 214.252C155.5 216.598 153.598 218.5 151.252 218.5L28.7483 218.5C26.402 218.5 24.5 216.598 24.5 214.252L24.5 49.0794C24.5 45.998 26.998 43.5 30.0794 43.5Z" stroke="#46F0F0" stroke-width="4.67549" stroke-miterlimit="8" fill="#FFFFFF" fill-rule="evenodd"/><g clip-path="url(#clip1)"><g clip-path="url(#clip2)"><g clip-path="url(#clip3)"><path d="M42.9167 62.0795C44.6623 62.0795 46.0834 60.6941 46.0834 58.9904 46.0834 57.2859 44.6623 55.9005 42.9167 55.9005 41.1703 55.9005 39.75 57.2867 39.75 58.9904 39.75 60.6941 41.1703 62.0795 42.9167 62.0795ZM42.9167 57.4458C43.7907 57.4458 44.5 58.1385 44.5 58.9912 44.5 59.8438 43.7907 60.5365 42.9167 60.5365 42.0435 60.5365 41.3334 59.8438 41.3334 58.9912 41.3334 58.1385 42.0435 57.4458 42.9167 57.4458Z"/><path d="M50.8334 53.5833C50.3956 53.5833 50.0417 53.9292 50.0417 54.356L50.0417 59.4773 50.0417 59.7631 50.0417 59.8319C50.0417 61.9362 48.289 63.6478 46.134 63.6478L42.866 63.6478C39.8379 63.6486 37.375 65.8898 37.375 68.6432 37.375 69.0699 37.7297 69.4167 38.1667 69.4167 38.6037 69.4167 38.9583 69.0699 38.9583 68.6432 38.9583 66.7416 40.7111 65.1931 42.866 65.1931L46.134 65.1931C49.1614 65.1931 51.6258 62.7888 51.6258 59.8327L51.6258 59.7631 51.6258 59.4773 51.6258 54.356C51.625 53.9292 51.2712 53.5833 50.8334 53.5833Z"/><path d="M47.6667 65.942C47.2289 65.942 46.875 66.2888 46.875 66.7163L46.875 68.2608C46.875 68.6875 47.2289 69.0335 47.6667 69.0335 48.1045 69.0335 48.4584 68.6875 48.4584 68.2608L48.4584 66.7163C48.4584 66.2888 48.1045 65.942 47.6667 65.942Z"/></g></g></g><path d="M26.9702 6.36947C18.5628 6.36947 11.7473 10.3112 11.7473 15.1736L11.7473 248.948C11.7473 253.81 18.5628 257.752 26.9702 257.752L238.08 257.752C246.487 257.752 253.302 253.81 253.302 248.948L253.302 15.1736C253.302 10.3112 246.487 6.36947 238.08 6.36947ZM0 0 265 0 265 265 0 265Z" fill="#46F0F0" fill-rule="evenodd"/><text font-family="Calibri,Calibri_MSFontService,sans-serif" font-weight="700" font-size="11" transform="translate(75.2985 63)">INITIATIVE<tspan font-weight="400" font-size="9" x="-44.0082" y="68">A planned series of events or </tspan><tspan font-weight="400" font-size="9" x="-44.0082" y="79">programmes intended to </tspan><tspan font-weight="400" font-size="9" x="-44.0082" y="90">bring about some desired </tspan><tspan font-weight="400" font-size="9" x="-44.0082" y="101">outcome.</tspan></text><path d="M207.5 17.6667C207.5 16.4701 208.47 15.5 209.667 15.5L246.333 15.5C247.53 15.5 248.5 16.4701 248.5 17.6667L248.5 26.3332C248.5 27.5299 247.53 28.5 246.333 28.5L209.667 28.5C208.47 28.5 207.5 27.5299 207.5 26.3332Z" stroke="#B74D41" stroke-width="1.33585" stroke-miterlimit="8" fill="#FFFFFF" fill-rule="evenodd"/><text font-family="Calibri,Calibri_MSFontService,sans-serif" font-weight="700" font-size="5" transform="translate(219.192 20)">APPLICATION<tspan x="0" y="6">FUNCTION</tspan></text><g clip-path="url(#clip4)"><g clip-path="url(#clip5)"><g clip-path="url(#clip6)"><path d="M7.49998 0.749998 1.5 0.749998C1.293 0.749998 1.125 0.917997 1.125 1.125L1.125 4.49999 1.125 4.87499 1.125 5.24998 1.87499 5.24998 1.87499 4.87499 1.87499 4.49999 1.87499 1.5 7.12498 1.5 7.12498 4.49999 7.12498 4.87499 7.12498 5.24998 7.87498 5.24998 7.87498 4.87499 7.87498 4.49999 7.87498 1.125C7.87498 0.917997 7.70735 0.749998 7.49998 0.749998Z" transform="matrix(1 0 -0 1.11112 208 16.9999)"/><path d="M2.62499 7.49998 3.37499 7.49998 3.37499 8.24998 2.62499 8.24998Z" transform="matrix(1 0 -0 1.11112 208 16.9999)"/><path d="M4.12499 7.49998 4.87499 7.49998 4.87499 8.24998 4.12499 8.24998Z" transform="matrix(1 0 -0 1.11112 208 16.9999)"/><path d="M5.62498 7.49998 6.37498 7.49998 6.37498 8.24998 5.62498 8.24998Z" transform="matrix(1 0 -0 1.11112 208 16.9999)"/><path d="M7.12498 7.49998 7.87498 7.49998 7.87498 8.24998 7.12498 8.24998Z" transform="matrix(1 0 -0 1.11112 208 16.9999)"/><path d="M1.125 7.49998 1.87499 7.49998 1.87499 8.24998 1.125 8.24998Z" transform="matrix(1 0 -0 1.11112 208 16.9999)"/><path d="M2.62499 5.99998 3.37499 5.99998 3.37499 6.74998 2.62499 6.74998Z" transform="matrix(1 0 -0 1.11112 208 16.9999)"/><path d="M4.12499 5.99998 4.87499 5.99998 4.87499 6.74998 4.12499 6.74998Z" transform="matrix(1 0 -0 1.11112 208 16.9999)"/><path d="M5.62498 5.99998 6.37498 5.99998 6.37498 6.74998 5.62498 6.74998Z" transform="matrix(1 0 -0 1.11112 208 16.9999)"/><path d="M7.12498 5.99998 7.87498 5.99998 7.87498 6.74998 7.12498 6.74998Z" transform="matrix(1 0 -0 1.11112 208 16.9999)"/><path d="M1.125 5.99998 1.87499 5.99998 1.87499 6.74998 1.125 6.74998Z" transform="matrix(1 0 -0 1.11112 208 16.9999)"/><path d="M2.62499 4.49999 3.37499 4.49999 3.37499 5.24998 2.62499 5.24998Z" transform="matrix(1 0 -0 1.11112 208 16.9999)"/><path d="M4.12499 4.49999 4.87499 4.49999 4.87499 5.24998 4.12499 5.24998Z" transform="matrix(1 0 -0 1.11112 208 16.9999)"/><path d="M5.62498 4.49999 6.37498 4.49999 6.37498 5.24998 5.62498 5.24998Z" transform="matrix(1 0 -0 1.11112 208 16.9999)"/><path d="M5.24998 2.99999C5.24998 3.4142 4.9142 3.74999 4.49999 3.74999 4.08577 3.74999 3.74999 3.4142 3.74999 2.99999 3.74999 2.58578 4.08577 2.24999 4.49999 2.24999 4.9142 2.24999 5.24998 2.58578 5.24998 2.99999Z" transform="matrix(1 0 -0 1.11112 208 16.9999)"/></g></g></g><path d="M215.5 35.6667C215.5 34.47 216.47 33.5 217.667 33.5L246.333 33.5C247.53 33.5 248.5 34.47 248.5 35.6667L248.5 44.3334C248.5 45.53 247.53 46.5001 246.333 46.5001L217.667 46.5001C216.47 46.5001 215.5 45.53 215.5 44.3334Z" stroke="#B74D41" stroke-width="1.33585" stroke-miterlimit="8" fill="#FFFFFF" fill-rule="evenodd"/><text font-family="Calibri,Calibri_MSFontService,sans-serif" font-weight="700" font-size="5" transform="translate(227.215 38)">TEAM<tspan x="0" y="6">MEMBER</tspan></text><g clip-path="url(#clip7)"><g clip-path="url(#clip8)"><g clip-path="url(#clip9)"><path d="M221 40.4167C220.083 40.4167 219.333 39.6667 219.333 38.75 219.333 37.8333 220.083 37.0833 221 37.0833 221.917 37.0833 222.667 37.8333 222.667 38.75 222.667 39.6667 221.917 40.4167 221 40.4167ZM221 37.9167C220.542 37.9167 220.167 38.2917 220.167 38.75 220.167 39.2083 220.542 39.5833 221 39.5833 221.458 39.5833 221.833 39.2083 221.833 38.75 221.833 38.2917 221.458 37.9167 221 37.9167Z"/><path d="M224.542 38.3333C223.75 38.3333 223.083 37.6667 223.083 36.875 223.083 36.0833 223.75 35.4167 224.542 35.4167 225.333 35.4167 226 36.0833 226 36.875 226 37.6667 225.333 38.3333 224.542 38.3333ZM224.542 36.25C224.208 36.25 223.917 36.5417 223.917 36.875 223.917 37.2083 224.208 37.5 224.542 37.5 224.875 37.5 225.167 37.2083 225.167 36.875 225.167 36.5417 224.875 36.25 224.542 36.25Z"/><path d="M225.583 40 223.5 40C223.25 40 223.083 39.8333 223.083 39.5833 223.083 39.3333 223.25 39.1667 223.5 39.1667L225.583 39.1667C225.833 39.1667 226 39.3333 226 39.5833 226 39.8333 225.833 40 225.583 40Z"/><path d="M217.458 38.3333C216.667 38.3333 216 37.6667 216 36.875 216 36.0833 216.667 35.4167 217.458 35.4167 218.25 35.4167 218.917 36.0833 218.917 36.875 218.917 37.6667 218.25 38.3333 217.458 38.3333ZM217.458 36.25C217.125 36.25 216.833 36.5417 216.833 36.875 216.833 37.2083 217.125 37.5 217.458 37.5 217.792 37.5 218.083 37.2083 218.083 36.875 218.083 36.5417 217.792 36.25 217.458 36.25Z"/><path d="M218.5 40 216.417 40C216.167 40 216 39.8333 216 39.5833 216 39.3333 216.167 39.1667 216.417 39.1667L218.5 39.1667C218.75 39.1667 218.917 39.3333 218.917 39.5833 218.917 39.8333 218.75 40 218.5 40Z"/><path d="M223.542 44.5833C223.333 44.5833 223.125 44.4166 223.125 44.1666L223.125 42.9166C223.125 42.4583 222.75 42.0833 222.25 42.0833L219.792 42.0833C219.292 42.0833 218.917 42.4583 218.917 42.9166L218.917 44.1666C218.917 44.375 218.75 44.5833 218.5 44.5833 218.25 44.5833 218.083 44.4166 218.083 44.1666L218.083 42.9166C218.083 42 218.833 41.25 219.792 41.25L222.25 41.25C223.208 41.25 223.958 42 223.958 42.9166L223.958 44.1666C223.958 44.375 223.75 44.5833 223.542 44.5833Z"/></g></g></g><path d="M224.5 54.5C224.5 53.9477 224.948 53.5 225.5 53.5L247.5 53.5C248.052 53.5 248.5 53.9477 248.5 54.5L248.5 58.5C248.5 59.0523 248.052 59.5 247.5 59.5L225.5 59.5C224.948 59.5 224.5 59.0523 224.5 58.5Z" stroke="#CEB023" stroke-width="1.33585" stroke-miterlimit="8" fill="#FFFFFF" fill-rule="evenodd"/><text font-family="Calibri,Calibri_MSFontService,sans-serif" font-weight="700" font-size="5" transform="translate(235.598 57)">USER</text><g clip-path="url(#clip10)"><g clip-path="url(#clip11)"><g clip-path="url(#clip12)"><path d="M229.5 56.125C228.45 56.125 227.625 55.3 227.625 54.25 227.625 53.2 228.45 52.375 229.5 52.375 230.55 52.375 231.375 53.2 231.375 54.25 231.375 55.3 230.55 56.125 229.5 56.125ZM229.5 53.125C228.862 53.125 228.375 53.6125 228.375 54.25 228.375 54.8875 228.862 55.375 229.5 55.375 230.137 55.375 230.625 54.8875 230.625 54.25 230.625 53.6125 230.137 53.125 229.5 53.125Z"/><path d="M232.125 60.625C231.9 60.625 231.75 60.475 231.75 60.25L231.75 58.75C231.75 58.1125 231.263 57.625 230.625 57.625L228.375 57.625C227.737 57.625 227.25 58.1125 227.25 58.75L227.25 60.25C227.25 60.475 227.1 60.625 226.875 60.625 226.65 60.625 226.5 60.475 226.5 60.25L226.5 58.75C226.5 57.7 227.325 56.875 228.375 56.875L230.625 56.875C231.675 56.875 232.5 57.7 232.5 58.75L232.5 60.25C232.5 60.475 232.35 60.625 232.125 60.625Z"/></g></g></g><path d="M219.5 72.5001C219.5 71.9478 219.948 71.5001 220.5 71.5001L247.5 71.5001C248.052 71.5001 248.5 71.9478 248.5 72.5001L248.5 76.5C248.5 77.0523 248.052 77.5 247.5 77.5L220.5 77.5C219.948 77.5 219.5 77.0523 219.5 76.5Z" stroke="#D2F53C" stroke-width="1.33585" stroke-miterlimit="8" fill="#FFFFFF" fill-rule="evenodd"/><text font-family="Calibri,Calibri_MSFontService,sans-serif" font-weight="700" font-size="5" transform="translate(230.613 75)">METRIC</text><g clip-path="url(#clip13)"><g clip-path="url(#clip14)"><g clip-path="url(#clip15)"><path d="M224.5 71.3125C222.432 71.3125 220.75 72.9947 220.75 75.0625 220.75 75.2699 220.918 75.4375 221.125 75.4375 221.332 75.4375 221.5 75.2699 221.5 75.0625 221.5 73.4084 222.846 72.0625 224.5 72.0625 226.154 72.0625 227.5 73.4084 227.5 75.0625 227.5 75.2699 227.668 75.4375 227.875 75.4375 228.082 75.4375 228.25 75.2699 228.25 75.0625 228.25 72.9947 226.568 71.3125 224.5 71.3125Z"/><path d="M226.079 73.7342 224.703 75.4581C224.637 75.4454 224.57 75.4375 224.5 75.4375 223.88 75.4375 223.375 75.9422 223.375 76.5625 223.375 77.1827 223.88 77.6875 224.5 77.6875 225.12 77.6875 225.625 77.1827 225.625 76.5625 225.625 76.2872 225.522 76.0375 225.356 75.8417L226.665 74.2022C226.795 74.0402 226.768 73.8044 226.606 73.6754 226.445 73.5456 226.209 73.573 226.079 73.7342ZM224.5 76.9375C224.293 76.9375 224.125 76.7695 224.125 76.5625 224.125 76.3555 224.293 76.1875 224.5 76.1875 224.707 76.1875 224.875 76.3555 224.875 76.5625 224.875 76.7695 224.707 76.9375 224.5 76.9375Z"/></g></g></g><path d="M212.5 90.5C212.5 89.9477 212.948 89.5 213.5 89.5L247.5 89.5C248.052 89.5 248.5 89.9477 248.5 90.5L248.5 94.4999C248.5 95.0522 248.052 95.4999 247.5 95.4999L213.5 95.4999C212.948 95.4999 212.5 95.0522 212.5 94.4999Z" stroke="#911EB4" stroke-width="1.33585" stroke-miterlimit="8" fill="#FFFFFF" fill-rule="evenodd"/><text font-family="Calibri,Calibri_MSFontService,sans-serif" font-weight="700" font-size="5" transform="translate(223.229 94)">CAPABILITY</text><g clip-path="url(#clip16)"><g clip-path="url(#clip17)"><g clip-path="url(#clip18)"><path d="M7.87507 3.75003 1.12501 3.75003C0.918008 3.75003 0.750007 3.91803 0.750007 4.12504L0.750007 5.62505C0.750007 5.83243 0.918008 6.00005 1.12501 6.00005L1.50001 6.00005 1.50001 8.25007C1.50001 8.45745 1.66801 8.62508 1.87502 8.62508L7.12506 8.62508C7.33244 8.62508 7.50007 8.45745 7.50007 8.25007L7.50007 6.00005 7.87507 6.00005C8.08245 6.00005 8.25007 5.83243 8.25007 5.62505L8.25007 4.12504C8.25007 3.91803 8.08245 3.75003 7.87507 3.75003ZM6.75006 7.87507 2.25002 7.87507 2.25002 6.00005 6.75006 6.00005 6.75006 7.87507ZM7.50007 5.25005 7.12506 5.25005 1.87502 5.25005 1.50001 5.25005 1.50001 4.50004 7.50007 4.50004 7.50007 5.25005Z" transform="matrix(1.1111 0 -0 1 212 87.9999)"/><path d="M1.87502 3.00003 3.75003 3.00003C3.95741 3.00003 4.12504 2.83202 4.12504 2.62502L4.12504 0.750007C4.12504 0.543005 3.95741 0.375003 3.75003 0.375003L1.87502 0.375003C1.66801 0.375003 1.50001 0.543005 1.50001 0.750007L1.50001 2.62502C1.50001 2.83202 1.66801 3.00003 1.87502 3.00003ZM2.25002 1.12501 3.37503 1.12501 3.37503 2.25002 2.25002 2.25002 2.25002 1.12501Z" transform="matrix(1.1111 0 -0 1 212 87.9999)"/><path d="M6.18755 3.00003C6.91281 3.00003 7.50007 2.4124 7.50007 1.68751 7.50007 0.962633 6.91281 0.375003 6.18755 0.375003 5.4623 0.375003 4.87504 0.962633 4.87504 1.68751 4.87504 2.4124 5.4623 3.00003 6.18755 3.00003ZM6.18755 1.12501C6.49806 1.12501 6.75006 1.37664 6.75006 1.68751 6.75006 1.99839 6.49806 2.25002 6.18755 2.25002 5.87705 2.25002 5.62505 1.99839 5.62505 1.68751 5.62505 1.37664 5.87705 1.12501 6.18755 1.12501Z" transform="matrix(1.1111 0 -0 1 212 87.9999)"/></g></g></g><path d="M215.5 108.5C215.5 107.396 216.395 106.5 217.5 106.5L246.5 106.5C247.605 106.5 248.5 107.396 248.5 108.5L248.5 116.5C248.5 117.605 247.605 118.5 246.5 118.5L217.5 118.5C216.395 118.5 215.5 117.605 215.5 116.5Z" stroke="#000080" stroke-width="1.33585" stroke-miterlimit="8" fill="#FFFFFF" fill-rule="evenodd"/><text font-family="Calibri,Calibri_MSFontService,sans-serif" font-weight="700" font-size="5" transform="translate(226.826 111)">BUSINESS<tspan x="0" y="6">DRIVER</tspan></text><g clip-path="url(#clip19)"><g clip-path="url(#clip20)"><g clip-path="url(#clip21)"><path d="M6.37461 2.62499C6.37461 2.8321 6.20671 2.99999 5.99961 2.99999 5.7925 2.99999 5.62461 2.8321 5.62461 2.62499 5.62461 2.41789 5.7925 2.24999 5.99961 2.24999 6.20671 2.24999 6.37461 2.41789 6.37461 2.62499Z" transform="matrix(1 0 -0 1.04348 216 108)"/><path d="M8.24998 7.87498 5.24998 7.87498 5.24998 4.59149 5.74686 5.12961C5.81811 5.20648 5.91748 5.24998 6.02248 5.24998 6.02361 5.24998 6.02473 5.24998 6.02586 5.24998 6.13161 5.24886 6.23211 5.20349 6.30223 5.12436L6.90673 4.44599 7.49548 4.44599C7.70285 4.44599 7.87048 4.27799 7.87048 4.07099L7.87048 3.44774 8.51248 2.81849C8.58447 2.74799 8.62497 2.65124 8.62497 2.55037 8.62497 2.44949 8.58447 2.35312 8.5121 2.28262L7.87048 1.65487 7.87048 1.1085C7.87048 0.901497 7.70285 0.733498 7.49548 0.733498L6.89623 0.733498 6.29061 0.11325C6.22048 0.0419999 6.12561 0.001125 6.02548 0.000374999 5.93323 0.00224999 5.82973 0.0386249 5.75886 0.10875L5.12586 0.733873 4.49699 0.733873C4.28999 0.733873 4.12199 0.901872 4.12199 1.10887L4.12199 1.65637 3.52049 2.24999 1.125 2.24999C0.917997 2.24999 0.749998 2.41799 0.749998 2.62499L0.749998 7.87498 0.374999 7.87498C0.168 7.87498 0 8.0426 0 8.24998 0 8.45735 0.168 8.62497 0.374999 8.62497L1.125 8.62497 4.87499 8.62497 8.24998 8.62497C8.45735 8.62497 8.62497 8.45735 8.62497 8.24998 8.62497 8.0426 8.45735 7.87498 8.24998 7.87498ZM4.76024 2.07899C4.83149 2.00849 4.87199 1.91249 4.87199 1.81237L4.87199 1.4835 5.27961 1.4835C5.37823 1.4835 5.47311 1.4445 5.54286 1.37512L6.01761 0.906747 6.47023 1.37025C6.54073 1.44262 6.63748 1.48312 6.73873 1.48312L7.12085 1.48312 7.12085 1.81199C7.12085 1.91287 7.16135 2.00924 7.23373 2.08012L7.71448 2.55037 7.23298 3.02249C7.16135 3.09299 7.12048 3.18937 7.12048 3.29024L7.12048 3.69636 6.73873 3.69636C6.63186 3.69636 6.52986 3.74211 6.45898 3.82161L6.01723 4.31699 5.55523 3.81674C5.48436 3.73986 5.38461 3.69636 5.27998 3.69636L5.24998 3.69636 5.24998 2.62499C5.24998 2.61524 5.24511 2.60737 5.24436 2.59762L5.24436 2.53874C5.24436 2.43862 5.20461 2.34262 5.13298 2.27212 5.06174 2.20162 4.96499 2.16899 4.86524 2.16374L4.67249 2.16562 4.76024 2.07899ZM1.5 7.87498 1.5 2.99999 4.49999 2.99999 4.49999 7.87498 1.5 7.87498Z" transform="matrix(1 0 -0 1.04348 216 108)"/><path d="M1.87499 3.74999 2.62499 3.74999 2.62499 4.87499 1.87499 4.87499Z" transform="matrix(1 0 -0 1.04348 216 108)"/><path d="M1.87499 5.62498 2.62499 5.62498 2.62499 6.74998 1.87499 6.74998Z" transform="matrix(1 0 -0 1.04348 216 108)"/><path d="M3.37499 3.74999 4.12499 3.74999 4.12499 4.87499 3.37499 4.87499Z" transform="matrix(1 0 -0 1.04348 216 108)"/><path d="M3.37499 5.62498 4.12499 5.62498 4.12499 6.74998 3.37499 6.74998Z" transform="matrix(1 0 -0 1.04348 216 108)"/></g></g></g><path d="M213.5 126.667C213.5 125.47 214.47 124.5 215.667 124.5L246.333 124.5C247.53 124.5 248.5 125.47 248.5 126.667L248.5 135.333C248.5 136.53 247.53 137.5 246.333 137.5L215.667 137.5C214.47 137.5 213.5 136.53 213.5 135.333Z" stroke="#000080" stroke-width="1.33585" stroke-miterlimit="8" fill="#FFFFFF" fill-rule="evenodd"/><text font-family="Calibri,Calibri_MSFontService,sans-serif" font-weight="700" font-size="5" transform="translate(224.918 129)">BUSINESS<tspan x="0" y="6">OUTCOME</tspan></text><g clip-path="url(#clip22)"><g clip-path="url(#clip23)"><g clip-path="url(#clip24)"><path d="M222.625 126.75 217.364 126.75C217.157 126.75 216.989 126.918 216.989 127.125L216.989 127.5 214.375 127.5C214.168 127.5 214 127.668 214 127.875L214 132.375C214 132.582 214.168 132.75 214.375 132.75L215.486 132.75 215.486 133.5C215.486 133.707 215.654 133.875 215.861 133.875L216.989 133.875 216.989 134.25C216.989 134.457 217.157 134.625 217.364 134.625L222.625 134.625C222.832 134.625 223 134.457 223 134.25L223 127.125C223 126.918 222.832 126.75 222.625 126.75ZM214.75 132 214.75 128.25 216.989 128.25 216.989 128.625 215.861 128.625C215.654 128.625 215.486 128.793 215.486 129L215.486 132 214.75 132ZM216.236 133.125 216.236 129.375 216.989 129.375 216.989 133.125 216.236 133.125ZM222.25 133.875 217.739 133.875 217.739 133.5 217.739 129 217.739 127.5 222.25 127.5 222.25 133.875Z"/><path d="M218.5 131.438C218.615 131.438 218.728 131.384 218.803 131.284L219.609 130.184 220.427 130.954C220.519 131.04 220.648 131.074 220.771 131.046 220.894 131.017 220.994 130.928 221.036 130.809L221.852 128.566C221.923 128.371 221.823 128.156 221.628 128.085 221.433 128.015 221.218 128.115 221.148 128.309L220.527 130.018 219.815 129.348C219.736 129.274 219.634 129.238 219.524 129.248 219.417 129.257 219.319 129.312 219.256 129.399L218.198 130.841C218.076 131.008 218.112 131.243 218.279 131.365 218.345 131.414 218.423 131.438 218.5 131.438Z"/><path d="M218.5 132.938 221.5 132.938C221.707 132.938 221.875 132.77 221.875 132.563 221.875 132.355 221.707 132.188 221.5 132.188L218.5 132.188C218.293 132.188 218.125 132.355 218.125 132.563 218.125 132.77 218.293 132.938 218.5 132.938Z"/></g></g></g><path d="M197.5 145.5C197.5 144.948 197.948 144.5 198.5 144.5L247.5 144.5C248.052 144.5 248.5 144.948 248.5 145.5L248.5 149.5C248.5 150.052 248.052 150.5 247.5 150.5L198.5 150.5C197.948 150.5 197.5 150.052 197.5 149.5Z" stroke="#000080" stroke-width="1.33585" stroke-miterlimit="8" fill="#FFFFFF" fill-rule="evenodd"/><text font-family="Calibri,Calibri_MSFontService,sans-serif" font-weight="700" font-size="5" transform="translate(208.418 148)">SCOPE INCREMENT</text><g clip-path="url(#clip25)"><g clip-path="url(#clip26)"><g clip-path="url(#clip27)"><path d="M8.5961 6.14323C8.63472 6.05211 8.63472 5.94786 8.5961 5.85673 8.57697 5.81061 8.5496 5.76898 8.51472 5.73448L7.3901 4.60986C7.24348 4.46324 7.00648 4.46324 6.85985 4.60986 6.71323 4.75649 6.71323 4.99349 6.85985 5.14011L7.34473 5.62498 2.24999 5.62498C2.04299 5.62498 1.87499 5.79261 1.87499 5.99998 1.87499 6.20736 2.04299 6.37498 2.24999 6.37498L7.34473 6.37498 6.85985 6.85985C6.71323 7.00648 6.71323 7.24348 6.85985 7.3901 6.93298 7.46323 7.02898 7.49998 7.12498 7.49998 7.22098 7.49998 7.31698 7.46323 7.3901 7.3901L8.51472 6.26548C8.5496 6.23098 8.57697 6.18936 8.5961 6.14323Z" transform="matrix(1 0 -0 1.11111 198 142)"/><path d="M3.74999 7.49998 1.125 7.49998 1.125 1.5 4.87499 1.5 4.87499 3.82499C4.87499 4.03199 5.04261 4.19999 5.24998 4.19999 5.45736 4.19999 5.62498 4.03199 5.62498 3.82499L5.62498 1.125C5.62498 0.917997 5.45736 0.749998 5.24998 0.749998L0.749998 0.749998C0.542998 0.749998 0.374999 0.917997 0.374999 1.125L0.374999 7.87498C0.374999 8.08235 0.542998 8.24998 0.749998 8.24998L3.74999 8.24998C3.95736 8.24998 4.12499 8.08235 4.12499 7.87498 4.12499 7.6676 3.95736 7.49998 3.74999 7.49998Z" transform="matrix(1 0 -0 1.11111 198 142)"/></g></g></g><path d="M213.5 163.5C213.5 162.948 213.948 162.5 214.5 162.5L247.5 162.5C248.052 162.5 248.5 162.948 248.5 163.5L248.5 167.5C248.5 168.052 248.052 168.5 247.5 168.5L214.5 168.5C213.948 168.5 213.5 168.052 213.5 167.5Z" stroke="#000080" stroke-width="1.33585" stroke-miterlimit="8" fill="#FFFFFF" fill-rule="evenodd"/><text font-family="Calibri,Calibri_MSFontService,sans-serif" font-weight="700" font-size="5" transform="translate(224.931 166)">OBJECTIVE</text><g clip-path="url(#clip28)"><g clip-path="url(#clip29)"><g clip-path="url(#clip30)"><path d="M223.461 160.539C223.298 160.376 223.035 160.376 222.872 160.539L221.635 161.776C220.917 161.188 219.998 160.833 219 160.833 216.702 160.833 214.833 162.703 214.833 165 214.833 166.423 215.552 167.682 216.644 168.433L216.205 168.872C216.042 169.035 216.042 169.298 216.205 169.461 216.287 169.543 216.393 169.583 216.5 169.583 216.607 169.583 216.713 169.543 216.795 169.461L217.407 168.848C217.898 169.053 218.436 169.167 219 169.167 219.675 169.167 220.311 169.002 220.876 168.716L221.622 169.461C221.703 169.543 221.81 169.583 221.917 169.583 222.023 169.583 222.13 169.543 222.211 169.461 222.374 169.298 222.374 169.035 222.211 168.872L221.595 168.255C222.55 167.491 223.167 166.317 223.167 165 223.167 164.002 222.812 163.083 222.224 162.365L223.461 161.128C223.624 160.965 223.624 160.702 223.461 160.539ZM222.333 165C222.333 166.838 220.838 168.333 219 168.333 218.501 168.333 218.029 168.22 217.604 168.023 217.549 167.975 217.485 167.948 217.418 167.934 216.376 167.369 215.667 166.266 215.667 165 215.667 163.162 217.162 161.667 219 161.667 219.769 161.667 220.476 161.931 221.04 162.37L220.446 162.964C220.037 162.674 219.539 162.5 219 162.5 217.621 162.5 216.5 163.621 216.5 165 216.5 166.379 217.621 167.5 219 167.5 220.379 167.5 221.5 166.379 221.5 165 221.5 164.461 221.327 163.963 221.035 163.554L221.63 162.96C222.069 163.524 222.333 164.231 222.333 165ZM220.667 165C220.667 165.92 219.919 166.667 219 166.667 218.081 166.667 217.333 165.92 217.333 165 217.333 164.081 218.081 163.333 219 163.333 219.308 163.333 219.593 163.423 219.842 163.57L219.213 164.198C219.145 164.18 219.074 164.167 219 164.167 218.54 164.167 218.167 164.54 218.167 165 218.167 165.46 218.54 165.833 219 165.833 219.46 165.833 219.833 165.46 219.833 165 219.833 164.926 219.821 164.855 219.802 164.787L220.431 164.159C220.577 164.407 220.667 164.692 220.667 165Z"/></g></g></g><path d="M214.5 181.5C214.5 180.948 214.948 180.5 215.5 180.5L247.5 180.5C248.052 180.5 248.5 180.948 248.5 181.5L248.5 185.5C248.5 186.052 248.052 186.5 247.5 186.5L215.5 186.5C214.948 186.5 214.5 186.052 214.5 185.5Z" stroke="#E6BEFF" stroke-width="1.33585" stroke-miterlimit="8" fill="#FFFFFF" fill-rule="evenodd"/><text font-family="Calibri,Calibri_MSFontService,sans-serif" font-weight="700" font-size="5" transform="translate(225.612 184)">STRATEGY</text><g clip-path="url(#clip31)"><g clip-path="url(#clip32)"><g clip-path="url(#clip33)"><path d="M8.57585 8.06435 7.88885 5.99998 8.59872 3.86849C8.61035 3.83174 8.61635 3.79386 8.6171 3.75561 8.61672 3.75374 8.61747 3.75186 8.61747 3.74999 8.61747 3.74324 8.6141 3.73799 8.61372 3.73161 8.61222 3.70724 8.61222 3.68286 8.60585 3.65924L7.8566 0.659248C7.81498 0.491999 7.66535 0.374999 7.4936 0.374999L0.749623 0.374999C0.634123 0.374999 0.524998 0.428249 0.454499 0.519373 0.383624 0.610498 0.358124 0.728998 0.386249 0.841123L1.10925 3.73499 0.394499 5.88148C0.368999 5.95836 0.368999 6.04198 0.394499 6.11886L1.14375 8.36885C1.19475 8.52185 1.33725 8.62497 1.49925 8.62497L8.24323 8.62497C8.24623 8.62535 8.24923 8.62497 8.25073 8.62497 8.45773 8.62497 8.62497 8.45735 8.62497 8.24998 8.62497 8.18248 8.60735 8.11873 8.57585 8.06435ZM1.76924 7.87498 1.26975 6.37498 2.24812 6.37498C2.45474 6.37498 2.62274 6.20736 2.62274 5.99998 2.62274 5.79261 2.45474 5.62498 2.24812 5.62498L1.26975 5.62498 1.76924 4.12499 3.38737 4.12499C3.59399 4.12499 3.76236 3.95699 3.76236 3.74999 3.76236 3.54299 3.59436 3.37499 3.38737 3.37499L1.79174 3.37499 1.22962 1.125 7.20073 1.125 7.76285 3.37499 7.11898 3.37499C6.9116 3.37499 6.74436 3.54299 6.74436 3.74999 6.74436 3.95699 6.9116 4.12499 7.11898 4.12499L7.72235 4.12499 7.22323 5.62498 5.99473 5.62498C5.78773 5.62498 5.62011 5.79261 5.62011 5.99998 5.62011 6.20736 5.78773 6.37498 5.99473 6.37498L7.22323 6.37498 7.72235 7.87498 1.76924 7.87498Z" transform="matrix(1 0 -0 1.11111 215 178)"/><path d="M3.93449 5.62498C3.41811 5.62498 2.99774 6.04536 2.99774 6.56248 2.99774 7.0796 3.41811 7.49998 3.93449 7.49998 4.45086 7.49998 4.87124 7.0796 4.87124 6.56248 4.87124 6.04536 4.45086 5.62498 3.93449 5.62498ZM3.93449 6.74998C3.83099 6.74998 3.74699 6.66561 3.74699 6.56248 3.74699 6.45936 3.83099 6.37498 3.93449 6.37498 4.03761 6.37498 4.12199 6.45936 4.12199 6.56248 4.12199 6.66561 4.03761 6.74998 3.93449 6.74998Z" transform="matrix(1 0 -0 1.11111 215 178)"/><path d="M6.25986 2.73487 5.51061 1.98487C5.36398 1.83824 5.12699 1.83824 4.98074 1.98487 4.83411 2.13149 4.83411 2.36849 4.98074 2.51512L5.52411 3.05887 4.56224 4.67736C4.45649 4.85549 4.51461 5.08499 4.69349 5.19148 4.75311 5.22748 4.81911 5.24436 4.88436 5.24436 5.01224 5.24436 5.13673 5.17911 5.20611 5.06136L6.31723 3.19237C6.40461 3.04424 6.38061 2.85599 6.25986 2.73487Z" transform="matrix(1 0 -0 1.11111 215 178)"/><path d="M4.12161 2.62499 4.12161 1.87499C4.12161 1.668 3.95361 1.5 3.74699 1.5L2.99774 1.5C2.79074 1.5 2.62312 1.668 2.62312 1.87499L2.62312 2.62499C2.62312 2.83199 2.79112 2.99999 2.99774 2.99999L3.74736 2.99999C3.95361 2.99999 4.12161 2.83199 4.12161 2.62499Z" transform="matrix(1 0 -0 1.11111 215 178)"/></g></g></g><path d="M214.5 199.5C214.5 198.948 214.948 198.5 215.5 198.5L247.5 198.5C248.052 198.5 248.5 198.948 248.5 199.5L248.5 203.5C248.5 204.052 248.052 204.5 247.5 204.5L215.5 204.5C214.948 204.5 214.5 204.052 214.5 203.5Z" stroke="#46F0F0" stroke-width="1.33585" stroke-miterlimit="8" fill="#FFFFFF" fill-rule="evenodd"/><text font-family="Calibri,Calibri_MSFontService,sans-serif" font-weight="700" font-size="5" transform="translate(225.442 202)">INITIATIVE</text><g clip-path="url(#clip34)"><g clip-path="url(#clip35)"><g clip-path="url(#clip36)"><path d="M3.74999 4.77449C4.57686 4.77449 5.24998 4.11824 5.24998 3.31124 5.24998 2.50387 4.57686 1.84762 3.74999 1.84762 2.92274 1.84762 2.24999 2.50424 2.24999 3.31124 2.24999 4.11824 2.92274 4.77449 3.74999 4.77449ZM3.74999 2.57962C4.16399 2.57962 4.49999 2.90774 4.49999 3.31162 4.49999 3.71549 4.16399 4.04361 3.74999 4.04361 3.33637 4.04361 2.99999 3.71549 2.99999 3.31162 2.99999 2.90774 3.33637 2.57962 3.74999 2.57962Z" transform="matrix(1 0 -0 1.11111 215 196)"/><path d="M7.49998 0.749998C7.2926 0.749998 7.12498 0.913872 7.12498 1.116L7.12498 3.54186 7.12498 3.67724 7.12498 3.70986C7.12498 4.70661 6.29473 5.51736 5.27398 5.51736L3.72599 5.51736C2.29162 5.51773 1.125 6.57936 1.125 7.8836 1.125 8.08573 1.293 8.24998 1.5 8.24998 1.707 8.24998 1.87499 8.08573 1.87499 7.8836 1.87499 6.98285 2.70524 6.24936 3.72599 6.24936L5.27398 6.24936C6.70798 6.24936 7.87535 5.11049 7.87535 3.71024L7.87535 3.67724 7.87535 3.54186 7.87535 1.116C7.87498 0.913872 7.70735 0.749998 7.49998 0.749998Z" transform="matrix(1 0 -0 1.11111 215 196)"/><path d="M5.99998 6.60411C5.79261 6.60411 5.62498 6.76835 5.62498 6.97085L5.62498 7.70248C5.62498 7.9046 5.79261 8.06848 5.99998 8.06848 6.20736 8.06848 6.37498 7.9046 6.37498 7.70248L6.37498 6.97085C6.37498 6.76835 6.20736 6.60411 5.99998 6.60411Z" transform="matrix(1 0 -0 1.11111 215 196)"/></g></g></g><path d="M212.5 217.5C212.5 216.948 212.948 216.5 213.5 216.5L247.5 216.5C248.052 216.5 248.5 216.948 248.5 217.5L248.5 221.5C248.5 222.052 248.052 222.5 247.5 222.5L213.5 222.5C212.948 222.5 212.5 222.052 212.5 221.5Z" stroke="#46F0F0" stroke-width="1.33585" stroke-miterlimit="8" fill="#FFFFFF" fill-rule="evenodd"/><text font-family="Calibri,Calibri_MSFontService,sans-serif" font-weight="700" font-size="5" transform="translate(223.229 220)">MILESTONE</text><g clip-path="url(#clip37)"><g clip-path="url(#clip38)"><g clip-path="url(#clip39)"><path d="M8.24998 7.49998 7.49998 7.49998 7.49998 1.96687 4.49999 0.322499 1.5 1.96687 1.5 7.49998 0.749998 7.49998C0.542998 7.49998 0.374999 7.6676 0.374999 7.87498 0.374999 8.08235 0.542998 8.24998 0.749998 8.24998L1.5 8.24998 7.49998 8.24998 8.24998 8.24998C8.45735 8.24998 8.62497 8.08235 8.62497 7.87498 8.62497 7.6676 8.45735 7.49998 8.24998 7.49998ZM2.24999 2.41087 4.12499 1.383 4.12499 7.49998 2.24999 7.49998 2.24999 2.41087ZM4.87499 7.49998 4.87499 1.383 6.74998 2.41087 6.74998 7.49998 4.87499 7.49998Z" transform="matrix(1.11111 0 -0 1 212 215.375)"/></g></g></g><path d="M213.5 235.5C213.5 234.948 213.948 234.5 214.5 234.5L247.5 234.5C248.052 234.5 248.5 234.948 248.5 235.5L248.5 239.5C248.5 240.052 248.052 240.5 247.5 240.5L214.5 240.5C213.948 240.5 213.5 240.052 213.5 239.5Z" stroke="#46F0F0" stroke-width="1.33585" stroke-miterlimit="8" fill="#FFFFFF" fill-rule="evenodd"/><text font-family="Calibri,Calibri_MSFontService,sans-serif" font-weight="700" font-size="5" transform="translate(224.931 238)">PROGRAM</text><g clip-path="url(#clip40)"><g clip-path="url(#clip41)"><g clip-path="url(#clip42)"><path d="M7.49998 8.99997 0.749998 8.99997C0.542998 8.99997 0.374999 8.83235 0.374999 8.62497L0.374999 1.87499C0.374999 1.668 0.542998 1.5 0.749998 1.5L2.62499 1.5C2.83199 1.5 2.99999 1.668 2.99999 1.87499 2.99999 2.08199 2.83199 2.24999 2.62499 2.24999L1.125 2.24999 1.125 8.24998 7.12498 8.24998 7.12498 6.74998C7.12498 6.54261 7.2926 6.37498 7.49998 6.37498 7.70735 6.37498 7.87498 6.54261 7.87498 6.74998L7.87498 8.62497C7.87498 8.83235 7.70735 8.99997 7.49998 8.99997Z" transform="matrix(1.11111 0 -0 1 214.417 232.25)"/><path d="M5.99998 6.02623C5.89948 6.02623 5.80461 5.98648 5.73373 5.91486L5.21923 5.39661 4.60311 5.39661C4.39574 5.39661 4.22811 5.22861 4.22811 5.02161L4.22811 4.39911 3.85874 4.02711C3.71361 3.88086 3.71361 3.64499 3.85874 3.49874L4.22811 3.12674 4.22811 2.35199C4.22811 2.14499 4.39611 1.97699 4.60311 1.97699L5.36998 1.97699 5.73373 1.61062C5.80461 1.53975 5.89948 1.5 5.99998 1.5L5.99998 1.5C6.10048 1.5 6.19536 1.53975 6.26623 1.611L6.62998 1.97699 7.25548 1.97699C7.46285 1.97699 7.63048 2.14499 7.63048 2.35199L7.63048 2.98462 8.14085 3.49911C8.28673 3.64536 8.28673 3.88161 8.14085 4.02749L7.63048 4.54199 7.63048 5.02236C7.63048 5.22936 7.46285 5.39736 7.25548 5.39736L6.78073 5.39736 6.26623 5.91561C6.19536 5.98648 6.10048 6.02623 5.99998 6.02623ZM4.97811 4.64699 5.37523 4.64699C5.47573 4.64699 5.57061 4.68674 5.64148 4.75761L5.99998 5.11911 6.35848 4.75761C6.42898 4.68674 6.52423 4.64699 6.62473 4.64699L6.88048 4.64699 6.88048 4.38711C6.88048 4.28811 6.91948 4.19286 6.9896 4.12274L7.3466 3.76311 6.9896 3.40349C6.9191 3.33337 6.88048 3.23849 6.88048 3.13912L6.88048 2.72699 6.47323 2.72699C6.37311 2.72699 6.27786 2.68724 6.20698 2.61599L5.99998 2.40749 5.79261 2.61637C5.72211 2.68724 5.62648 2.72699 5.52598 2.72699L4.97811 2.72699 4.97811 3.28124C4.97811 3.38024 4.93911 3.47511 4.86899 3.54561L4.65336 3.76311 4.86899 3.98099C4.93911 4.05149 4.97811 4.14636 4.97811 4.24536L4.97811 4.64699Z" transform="matrix(1.11111 0 -0 1 214.417 232.25)"/><path d="M2.99999 4.49999 2.24999 4.49999C2.04299 4.49999 1.87499 4.33199 1.87499 4.12499 1.87499 3.91799 2.04299 3.74999 2.24999 3.74999L2.99999 3.74999C3.20699 3.74999 3.37499 3.91799 3.37499 4.12499 3.37499 4.33199 3.20699 4.49999 2.99999 4.49999Z" transform="matrix(1.11111 0 -0 1 214.417 232.25)"/><path d="M2.99999 5.99998 2.24999 5.99998C2.04299 5.99998 1.87499 5.83236 1.87499 5.62498 1.87499 5.41798 2.04299 5.24998 2.24999 5.24998L2.99999 5.24998C3.20699 5.24998 3.37499 5.41798 3.37499 5.62498 3.37499 5.83236 3.20699 5.99998 2.99999 5.99998Z" transform="matrix(1.11111 0 -0 1 214.417 232.25)"/><path d="M2.99999 7.49998 2.24999 7.49998C2.04299 7.49998 1.87499 7.33235 1.87499 7.12498 1.87499 6.9176 2.04299 6.74998 2.24999 6.74998L2.99999 6.74998C3.20699 6.74998 3.37499 6.9176 3.37499 7.12498 3.37499 7.33235 3.20699 7.49998 2.99999 7.49998Z" transform="matrix(1.11111 0 -0 1 214.417 232.25)"/><path d="M5.24998 7.49998 4.49999 7.49998C4.29261 7.49998 4.12499 7.33235 4.12499 7.12498 4.12499 6.9176 4.29261 6.74998 4.49999 6.74998L5.24998 6.74998C5.45736 6.74998 5.62498 6.9176 5.62498 7.12498 5.62498 7.33235 5.45736 7.49998 5.24998 7.49998Z" transform="matrix(1.11111 0 -0 1 214.417 232.25)"/><path d="M6.37536 3.74999C6.37536 3.9571 6.20746 4.12499 6.00036 4.12499 5.79325 4.12499 5.62536 3.9571 5.62536 3.74999 5.62536 3.54288 5.79325 3.37499 6.00036 3.37499 6.20746 3.37499 6.37536 3.54288 6.37536 3.74999Z" transform="matrix(1.11111 0 -0 1 214.417 232.25)"/></g></g></g><path d="M167.618 53.0001 212.382 53.0001C218.246 53.0001 223 55.9102 223 59.5 223 63.0899 218.246 66 212.382 66L167.618 66C161.754 66 157 63.0899 157 59.5 157 55.9102 161.754 53.0001 167.618 53.0001Z" fill="#313131" fill-rule="evenodd"/><text fill="#FFFFFF" font-family="Calibri,Calibri_MSFontService,sans-serif" font-weight="700" font-size="5" transform="translate(172.332 61)">|Subscribed by&gt;</text><path d="M166.17 33 204.83 33C209.894 33 214 36.134 214 40 214 43.866 209.894 47 204.83 47L166.17 47C161.106 47 157 43.866 157 40 157 36.134 161.106 33 166.17 33Z" fill="#313131" fill-rule="evenodd"/><text fill="#FFFFFF" font-family="Calibri,Calibri_MSFontService,sans-serif" font-weight="700" font-size="5" transform="translate(178.844 42)">|Has&gt;</text><path d="M165.848 234 203.152 234C208.038 234 212 236.91 212 240.5 212 244.09 208.038 247 203.152 247L165.848 247C160.962 247 157 244.09 157 240.5 157 236.91 160.962 234 165.848 234Z" fill="#313131" fill-rule="evenodd"/><text fill="#FFFFFF" font-family="Calibri,Calibri_MSFontService,sans-serif" font-weight="700" font-size="5" transform="translate(168.408 243)">|Delivered by&gt;</text><path d="M166.17 106 204.83 106C209.894 106 214 108.91 214 112.5 214 116.09 209.894 119 204.83 119L166.17 119C161.106 119 157 116.09 157 112.5 157 108.91 161.106 106 166.17 106Z" fill="#313131" fill-rule="evenodd"/><text fill="#FFFFFF" font-family="Calibri,Calibri_MSFontService,sans-serif" font-weight="700" font-size="5" transform="translate(170.411 114)">|Clarified by&gt;</text><path d="M166.814 71 208.186 71C213.606 71 218 73.9101 218 77.5 218 81.0898 213.606 84 208.186 84L166.814 84C161.394 84 157 81.0898 157 77.5 157 73.9101 161.394 71 166.814 71Z" fill="#313131" fill-rule="evenodd"/><text fill="#FFFFFF" font-family="Calibri,Calibri_MSFontService,sans-serif" font-weight="700" font-size="5" transform="translate(167.99 80)">|Coordinated by&gt;</text><path d="M165.848 180 203.152 180C208.038 180 212 182.91 212 186.5 212 190.09 208.038 193 203.152 193L165.848 193C160.962 193 157 190.09 157 186.5 157 182.91 160.962 180 165.848 180Z" fill="#313131" fill-rule="evenodd"/><text fill="#FFFFFF" font-family="Calibri,Calibri_MSFontService,sans-serif" font-weight="700" font-size="5" transform="translate(164.066 188)">&lt;Implemented by|</text><path d="M165.848 198 203.152 198C208.038 198 212 200.91 212 204.5 212 208.09 208.038 211 203.152 211L165.848 211C160.962 211 157 208.09 157 204.5 157 200.91 160.962 198 165.848 198Z" fill="#313131" fill-rule="evenodd"/><text fill="#FFFFFF" font-family="Calibri,Calibri_MSFontService,sans-serif" font-weight="700" font-size="5" transform="translate(168.909 206)">|Predecessor&gt;</text><path d="M165.527 89.0001 201.473 89.0001C206.183 89.0001 210 92.134 210 96 210 99.866 206.183 103 201.473 103L165.527 103C160.817 103 157 99.866 157 96 157 92.134 160.817 89.0001 165.527 89.0001Z" fill="#313131" fill-rule="evenodd"/><text fill="#FFFFFF" font-family="Calibri,Calibri_MSFontService,sans-serif" font-weight="700" font-size="5" transform="translate(168.658 98)">&lt;Uplifted by|</text><path d="M165.527 216 201.473 216C206.183 216 210 218.91 210 222.5 210 226.09 206.183 229 201.473 229L165.527 229C160.817 229 157 226.09 157 222.5 157 218.91 160.817 216 165.527 216Z" fill="#313131" fill-rule="evenodd"/><text fill="#FFFFFF" font-family="Calibri,Calibri_MSFontService,sans-serif" font-weight="700" font-size="5" transform="translate(168.992 224)">|Associated&gt;</text><path d="M163.113 144 188.887 144C192.263 144 195 146.91 195 150.5 195 154.09 192.263 157 188.887 157L163.113 157C159.737 157 157 154.09 157 150.5 157 146.91 159.737 144 163.113 144Z" fill="#313131" fill-rule="evenodd"/><text fill="#FFFFFF" font-family="Calibri,Calibri_MSFontService,sans-serif" font-weight="700" font-size="5" transform="translate(162.396 152)">|Scoped by&gt;</text><path d="M165.848 162 203.152 162C208.038 162 212 164.91 212 168.5 212 172.09 208.038 175 203.152 175L165.848 175C160.962 175 157 172.09 157 168.5 157 164.91 160.962 162 165.848 162Z" fill="#313131" fill-rule="evenodd"/><text fill="#FFFFFF" font-family="Calibri,Calibri_MSFontService,sans-serif" font-weight="700" font-size="5" transform="translate(167.489 170)">&lt;Supported by|</text><path d="M164.883 15 198.117 15C202.471 15 206 18.134 206 22 206 25.866 202.471 29 198.117 29L164.883 29C160.529 29 157 25.866 157 22 157 18.134 160.529 15 164.883 15Z" fill="#313131" fill-rule="evenodd"/><text fill="#FFFFFF" font-family="Calibri,Calibri_MSFontService,sans-serif" font-weight="700" font-size="5" transform="translate(162.563 24)">&lt;Tranformed by|</text><path d="M165.848 124 203.152 124C208.038 124 212 126.91 212 130.5 212 134.09 208.038 137 203.152 137L165.848 137C160.962 137 157 134.09 157 130.5 157 126.91 160.962 124 165.848 124Z" fill="#313131" fill-rule="evenodd"/><text fill="#FFFFFF" font-family="Calibri,Calibri_MSFontService,sans-serif" font-weight="700" font-size="5" transform="translate(173.083 132)">|Includes&gt;</text></g></svg>