<svg width="189" height="189" xmlns="http://www.w3.org/2000/svg" xmlns:xlink="http://www.w3.org/1999/xlink" overflow="hidden"><defs><clipPath id="clip0"><path d="M0 0 189 0 189 189 0 189Z" fill-rule="evenodd" clip-rule="evenodd"/></clipPath><clipPath id="clip1"><path d="M3 3 47 3 47 48 3 48Z" fill-rule="evenodd" clip-rule="evenodd"/></clipPath><clipPath id="clip2"><path d="M3 3 47 3 47 48 3 48Z" fill-rule="evenodd" clip-rule="evenodd"/></clipPath><clipPath id="clip3"><path d="M3 3 47 3 47 48 3 48Z" fill-rule="evenodd" clip-rule="evenodd"/></clipPath></defs><g clip-path="url(#clip0)"><rect x="0" y="0" width="189" height="189" fill="#313131"/><text fill="#FFFFFF" font-family="Calibri,Calibri_MSFontService,sans-serif" font-weight="300" font-size="11" transform="translate(9.60032 -5)">PRODUCT</text><rect x="3.50005" y="3.50005" width="1" height="1" stroke="#2F528F" stroke-width="1.33333" stroke-miterlimit="8" fill="#4472C4"/><rect x="0" y="0" width="189" height="189" stroke="#911EB4" stroke-width="8" stroke-miterlimit="8" fill="#FFFFFF"/><g clip-path="url(#clip1)"><g clip-path="url(#clip2)"><g clip-path="url(#clip3)"><path d="M40.3333 1.83333 3.66667 1.83333C2.65467 1.83333 1.83333 2.6565 1.83333 3.67033L1.83333 11.0202C1.83333 12.034 2.65467 12.8572 3.66667 12.8572L5.5 12.8572 5.5 36.7455C5.5 37.7612 6.32133 38.5825 7.33333 38.5825L14.1827 38.5825C15.1947 38.5825 16.016 37.7612 16.016 36.7455 16.016 35.7298 15.1947 34.9085 14.1827 34.9085L9.16667 34.9085 9.16667 12.859 34.8333 12.859 34.8333 14.6777C34.8333 15.6915 35.6528 16.5147 36.6667 16.5147 37.6805 16.5147 38.5 15.6915 38.5 14.6777L38.5 12.859 40.3333 12.859C41.3472 12.859 42.1667 12.0358 42.1667 11.022L42.1667 3.67033C42.1667 2.6565 41.3472 1.83333 40.3333 1.83333ZM38.5 9.18317 36.6667 9.18317 7.33333 9.18317 5.5 9.18317 5.5 5.50733 38.5 5.50733 38.5 9.18317Z" transform="matrix(1 0 -0 1.02273 3 3)"/><path d="M31.2712 19.7358C30.8 19.2775 30.129 19.1015 29.4965 19.2775L23.3878 20.9642 19.6093 17.292C18.8833 16.5825 17.7247 16.6027 17.017 17.3305 16.3112 18.0583 16.3295 19.2207 17.0573 19.9283L20.812 23.5785 19.14 29.6505C18.9622 30.2958 19.1473 30.9852 19.6222 31.449L29.9732 41.6387C30.3307 41.9907 30.7945 42.1667 31.2583 42.1667 31.7295 42.1667 32.1988 41.987 32.5545 41.6277L41.6277 32.5343C41.9723 32.1897 42.1667 31.7203 42.1648 31.2253 42.163 30.734 41.9668 30.2702 41.6167 29.9218L31.2712 19.7358ZM31.2473 37.741 22.9588 29.5882 23.8132 26.4953 26.2625 28.8768C26.6182 29.2233 27.0802 29.3975 27.5385 29.3975 28.017 29.3975 28.4937 29.2087 28.8548 28.8365 29.5607 28.1105 29.5423 26.9463 28.8163 26.2387L26.4422 23.9287 29.4525 23.0963 37.7318 31.2455 31.2473 37.741Z" transform="matrix(1 0 -0 1.02273 3 3)"/></g></g></g><text font-family="Calibri,Calibri_MSFontService,sans-serif" font-weight="700" font-size="20" transform="translate(75.9248 23)">PRODUCT<tspan font-weight="400" font-size="12" x="-69.3858" y="86">A </tspan><tspan font-size="12" x="-59.7191" y="86">Product</tspan><tspan font-weight="400" font-size="12" x="-17.7191" y="86">is the mean to deliver a </tspan><tspan font-size="12" x="-69.3858" y="101">Capability</tspan><tspan font-weight="400" font-size="12" x="-16.5524" y="101">to an external </tspan><tspan font-size="12" x="-69.3858" y="115">Stakeholder</tspan><tspan font-weight="400" font-size="12" x="-6.2191" y="115">like a customer.</tspan></text></g></svg>