<svg width="189" height="189" xmlns="http://www.w3.org/2000/svg" xmlns:xlink="http://www.w3.org/1999/xlink" overflow="hidden"><defs><clipPath id="clip0"><path d="M0 0 189 0 189 189 0 189Z" fill-rule="evenodd" clip-rule="evenodd"/></clipPath><clipPath id="clip1"><path d="M3 3 47 3 47 48 3 48Z" fill-rule="evenodd" clip-rule="evenodd"/></clipPath><clipPath id="clip2"><path d="M3 3 47 3 47 48 3 48Z" fill-rule="evenodd" clip-rule="evenodd"/></clipPath><clipPath id="clip3"><path d="M3 3 47 3 47 48 3 48Z" fill-rule="evenodd" clip-rule="evenodd"/></clipPath></defs><g clip-path="url(#clip0)"><rect x="0" y="0" width="189" height="189" fill="#313131"/><text fill="#FFFFFF" font-family="Calibri,Calibri_MSFontService,sans-serif" font-weight="300" font-size="11" transform="translate(9.60032 -5)">PLACE</text><rect x="3.50005" y="3.50005" width="1" height="1" stroke="#2F528F" stroke-width="1.33333" stroke-miterlimit="8" fill="#4472C4"/><rect x="0" y="0" width="189" height="189" stroke="#911EB4" stroke-width="8" stroke-miterlimit="8" fill="#FFFFFF"/><g clip-path="url(#clip1)"><g clip-path="url(#clip2)"><g clip-path="url(#clip3)"><path d="M25.6667 13.75C25.6667 15.775 24.025 17.4167 22 17.4167 19.975 17.4167 18.3333 15.775 18.3333 13.75 18.3333 11.725 19.975 10.0833 22 10.0833 24.025 10.0833 25.6667 11.725 25.6667 13.75Z" transform="matrix(1 0 -0 1.02273 3 3)"/><path d="M40.3333 37.5833 24.0332 37.5833C25.9343 33.6453 33 18.6468 33 13.75 33 7.6835 28.0665 2.75 22 2.75 15.9335 2.75 11 7.6835 11 13.75 11 18.6468 18.0657 33.6453 19.9632 37.5833L3.66667 37.5833C2.65467 37.5833 1.83333 38.4028 1.83333 39.4167 1.83333 40.4305 2.65467 41.25 3.66667 41.25L40.3333 41.25C41.3472 41.25 42.1667 40.4305 42.1667 39.4167 42.1667 38.4028 41.3472 37.5833 40.3333 37.5833ZM22 6.41667C26.0443 6.41667 29.3333 9.70567 29.3333 13.75 29.3333 16.6283 25.3293 26.1635 22 33.3208 18.6688 26.1635 14.6667 16.6302 14.6667 13.75 14.6667 9.70567 17.9557 6.41667 22 6.41667Z" transform="matrix(1 0 -0 1.02273 3 3)"/></g></g></g><text font-family="Calibri,Calibri_MSFontService,sans-serif" font-weight="700" font-size="20" transform="translate(90.9114 23)">PLACE<tspan font-size="12" x="-84.3724" y="64">Place</tspan><tspan font-weight="400" font-size="12" x="-55.3724" y="64">(or distribution). The </tspan><tspan font-weight="400" font-size="12" x="-84.3724" y="79">activities that make the product </tspan><tspan font-weight="400" font-size="12" x="-84.3724" y="93">available to consumers. Can include </tspan><tspan font-weight="400" font-size="12" x="-84.3724" y="107">channels, coverage, assortments, </tspan><tspan font-weight="400" font-size="12" x="-84.3724" y="122">locations, inventory, </tspan><tspan font-weight="400" font-size="12" x="-84.3724" y="136">transportation, logistics.</tspan></text></g></svg>