<svg width="265" height="265" xmlns="http://www.w3.org/2000/svg" xmlns:xlink="http://www.w3.org/1999/xlink" overflow="hidden"><defs><clipPath id="clip0"><path d="M0 0 265 0 265 265 0 265Z" fill-rule="evenodd" clip-rule="evenodd"/></clipPath><clipPath id="clip1"><path d="M35 51 55 51 55 71 35 71Z" fill-rule="evenodd" clip-rule="evenodd"/></clipPath><clipPath id="clip2"><path d="M35 51 55 51 55 71 35 71Z" fill-rule="evenodd" clip-rule="evenodd"/></clipPath><clipPath id="clip3"><path d="M35 51 55 51 55 71 35 71Z" fill-rule="evenodd" clip-rule="evenodd"/></clipPath><clipPath id="clip4"><path d="M214 38 225 38 225 49 214 49Z" fill-rule="evenodd" clip-rule="evenodd"/></clipPath><clipPath id="clip5"><path d="M214 38 225 38 225 49 214 49Z" fill-rule="evenodd" clip-rule="evenodd"/></clipPath><clipPath id="clip6"><path d="M214 38 225 38 225 49 214 49Z" fill-rule="evenodd" clip-rule="evenodd"/></clipPath><clipPath id="clip7"><path d="M207 82 216 82 216 94 207 94Z" fill-rule="evenodd" clip-rule="evenodd"/></clipPath><clipPath id="clip8"><path d="M207 82 216 82 216 94 207 94Z" fill-rule="evenodd" clip-rule="evenodd"/></clipPath><clipPath id="clip9"><path d="M207 82 216 82 216 94 207 94Z" fill-rule="evenodd" clip-rule="evenodd"/></clipPath><clipPath id="clip10"><path d="M218 124 228 124 228 134 218 134Z" fill-rule="evenodd" clip-rule="evenodd"/></clipPath><clipPath id="clip11"><path d="M218 124 228 124 228 134 218 134Z" fill-rule="evenodd" clip-rule="evenodd"/></clipPath><clipPath id="clip12"><path d="M218 124 228 124 228 134 218 134Z" fill-rule="evenodd" clip-rule="evenodd"/></clipPath><clipPath id="clip13"><path d="M204 166 213 166 213 177 204 177Z" fill-rule="evenodd" clip-rule="evenodd"/></clipPath><clipPath id="clip14"><path d="M204 166 213 166 213 177 204 177Z" fill-rule="evenodd" clip-rule="evenodd"/></clipPath><clipPath id="clip15"><path d="M204 166 213 166 213 177 204 177Z" fill-rule="evenodd" clip-rule="evenodd"/></clipPath><clipPath id="clip16"><path d="M225 209 237 209 237 218 225 218Z" fill-rule="evenodd" clip-rule="evenodd"/></clipPath><clipPath id="clip17"><path d="M225 209 237 209 237 218 225 218Z" fill-rule="evenodd" clip-rule="evenodd"/></clipPath><clipPath id="clip18"><path d="M225 209 237 209 237 218 225 218Z" fill-rule="evenodd" clip-rule="evenodd"/></clipPath><clipPath id="clip19"><path d="M71 28 82 28 82 38 71 38Z" fill-rule="evenodd" clip-rule="evenodd"/></clipPath><clipPath id="clip20"><path d="M71 28 82 28 82 38 71 38Z" fill-rule="evenodd" clip-rule="evenodd"/></clipPath><clipPath id="clip21"><path d="M71 28 82 28 82 38 71 38Z" fill-rule="evenodd" clip-rule="evenodd"/></clipPath></defs><g clip-path="url(#clip0)"><rect x="0" y="0" width="265" height="265" fill="#313131"/><rect x="89.5" y="131.5" width="1.99999" height="1" stroke="#2F528F" stroke-width="1.33585" stroke-miterlimit="8" fill="#4472C4"/><path d="M23.5 9.75271C23.5 8.50859 24.5085 7.50003 25.7527 7.50003L249.247 7.50003C250.491 7.50003 251.5 8.50859 251.5 9.75271L251.5 249.247C251.5 250.491 250.491 251.5 249.247 251.5L25.7527 251.5C24.5085 251.5 23.5 250.491 23.5 249.247Z" stroke="#FF0000" stroke-width="0.667927" stroke-miterlimit="8" stroke-opacity="0" fill="none" fill-rule="evenodd"/><path d="M30.0794 43.5 149.921 43.5C153.002 43.5 155.5 45.998 155.5 49.0794L155.5 214.252C155.5 216.598 153.598 218.5 151.252 218.5L28.7483 218.5C26.402 218.5 24.5 216.598 24.5 214.252L24.5 49.0794C24.5 45.998 26.998 43.5 30.0794 43.5Z" stroke="#911EB4" stroke-width="4.67549" stroke-miterlimit="8" fill="#FFFFFF" fill-rule="evenodd"/><g clip-path="url(#clip1)"><g clip-path="url(#clip2)"><g clip-path="url(#clip3)"><path d="M51.625 59.9166 37.375 59.9166C36.938 59.9166 36.5833 60.2713 36.5833 60.7083L36.5833 63.875C36.5833 64.3128 36.938 64.6666 37.375 64.6666L38.1667 64.6666 38.1667 69.4167C38.1667 69.8545 38.5213 70.2083 38.9583 70.2083L50.0417 70.2083C50.4795 70.2083 50.8334 69.8545 50.8334 69.4167L50.8334 64.6666 51.625 64.6666C52.0628 64.6666 52.4167 64.3128 52.4167 63.875L52.4167 60.7083C52.4167 60.2713 52.0628 59.9166 51.625 59.9166ZM49.25 68.625 39.75 68.625 39.75 64.6666 49.25 64.6666 49.25 68.625ZM50.8334 63.0833 50.0417 63.0833 38.9583 63.0833 38.1667 63.0833 38.1667 61.5 50.8334 61.5 50.8334 63.0833Z"/><path d="M43.9118 58.0713C44.0614 58.2383 44.276 58.3333 44.5 58.3333 44.7241 58.3333 44.9394 58.2383 45.0882 58.0713L47.4632 55.4326C47.658 55.2157 47.7174 54.9093 47.62 54.6354L47.1442 53.3157C47.0318 53.0014 46.7341 52.7916 46.4 52.7916L42.6 52.7916C42.2659 52.7916 41.9683 53.0014 41.8551 53.3149L41.3801 54.6346C41.2811 54.9085 41.3413 55.2157 41.5368 55.4318L43.9118 58.0713ZM43.1566 54.375 45.8443 54.375 45.9702 54.7249 44.5 56.3581 43.0307 54.7257 43.1566 54.375Z"/></g></g></g><path d="M26.9702 6.36947C18.5628 6.36947 11.7473 10.3112 11.7473 15.1736L11.7473 248.948C11.7473 253.81 18.5628 257.752 26.9702 257.752L238.08 257.752C246.487 257.752 253.302 253.81 253.302 248.948L253.302 15.1736C253.302 10.3112 246.487 6.36947 238.08 6.36947ZM0 0 265 0 265 265 0 265Z" fill="#911EB4" fill-rule="evenodd"/><text font-family="Calibri,Calibri_MSFontService,sans-serif" font-weight="700" font-size="11" transform="translate(77.0518 63)">PRODUCT <tspan x="1.75665" y="13">FEATURE</tspan><tspan font-weight="400" font-size="9" x="-45.7615" y="62">A </tspan><tspan font-size="9" x="-38.2473" y="62">Product feature</tspan><tspan font-weight="400" font-size="9" x="25.0388" y="62">is one of </tspan><tspan font-weight="400" font-size="9" x="-45.7615" y="73">the distinguishing </tspan><tspan font-weight="400" font-size="9" x="-45.7615" y="84">characteristics of a</tspan><tspan font-size="9" x="28.3784" y="84">Product</tspan><tspan font-weight="400" font-size="9" x="60.9399" y="84">or </tspan><tspan font-weight="400" font-size="9" x="-45.7615" y="95">service that helps boost its </tspan><tspan font-weight="400" font-size="9" x="-45.7615" y="107">appeal to potential buyers.</tspan></text><path d="M214.5 42.5001C214.5 41.9478 214.948 41.5 215.5 41.5L247.5 41.5C248.052 41.5 248.5 41.9478 248.5 42.5001L248.5 46.5001C248.5 47.0524 248.052 47.5001 247.5 47.5001L215.5 47.5001C214.948 47.5001 214.5 47.0524 214.5 46.5001Z" stroke="#911EB4" stroke-width="1.33585" stroke-miterlimit="8" fill="#FFFFFF" fill-rule="evenodd"/><text font-family="Calibri,Calibri_MSFontService,sans-serif" font-weight="700" font-size="5" transform="translate(226.123 45)">OFFERING</text><g clip-path="url(#clip4)"><g clip-path="url(#clip5)"><g clip-path="url(#clip6)"><path d="M223.75 43.1666 216.25 43.1666C216.02 43.1666 215.833 43.3533 215.833 43.5833L215.833 45.25C215.833 45.4804 216.02 45.6666 216.25 45.6666L216.667 45.6666 216.667 48.1666C216.667 48.397 216.853 48.5833 217.083 48.5833L222.917 48.5833C223.147 48.5833 223.333 48.397 223.333 48.1666L223.333 45.6666 223.75 45.6666C223.98 45.6666 224.167 45.4804 224.167 45.25L224.167 43.5833C224.167 43.3537 223.98 43.1666 223.75 43.1666ZM222.5 47.75 217.5 47.75 217.5 45.6666 222.5 45.6666 222.5 47.75ZM223.333 44.8333 222.917 44.8333 217.083 44.8333 216.667 44.8333 216.667 44 223.333 44 223.333 44.8333Z"/><path d="M216.961 41.3783 217.5 40.8396 217.5 41.9166C217.5 42.1466 217.687 42.3333 217.917 42.3333 218.147 42.3333 218.333 42.1466 218.333 41.9166L218.333 40.8396 218.872 41.3783C218.953 41.4591 219.06 41.5 219.167 41.5 219.273 41.5 219.38 41.4591 219.461 41.3779 219.624 41.215 219.624 40.9516 219.461 40.7887L218.211 39.5387C218.048 39.3758 217.785 39.3758 217.622 39.5387L216.372 40.7887C216.209 40.9516 216.209 41.215 216.372 41.3779 216.535 41.5408 216.798 41.5412 216.961 41.3783Z"/><path d="M221.128 41.3783 221.667 40.8396 221.667 41.9166C221.667 42.1466 221.853 42.3333 222.083 42.3333 222.314 42.3333 222.5 42.1466 222.5 41.9166L222.5 40.8396 223.039 41.3783C223.12 41.4591 223.227 41.5 223.333 41.5 223.44 41.5 223.547 41.4591 223.628 41.3779 223.791 41.215 223.791 40.9516 223.628 40.7887L222.378 39.5387C222.215 39.3758 221.952 39.3758 221.789 39.5387L220.539 40.7887C220.376 40.9516 220.376 41.215 220.539 41.3779 220.702 41.5408 220.965 41.5412 221.128 41.3783Z"/></g></g></g><path d="M206.5 84.5001C206.5 83.3955 207.395 82.5 208.5 82.5L246.5 82.5C247.605 82.5 248.5 83.3955 248.5 84.5001L248.5 92.5C248.5 93.6046 247.605 94.5 246.5 94.5L208.5 94.5C207.395 94.5 206.5 93.6046 206.5 92.5Z" stroke="#F032E6" stroke-width="1.33585" stroke-miterlimit="8" fill="#FFFFFF" fill-rule="evenodd"/><text font-family="Calibri,Calibri_MSFontService,sans-serif" font-weight="700" font-size="5" transform="translate(218.151 86)">VALUE<tspan x="0" y="6">PROPOSITION</tspan></text><g clip-path="url(#clip7)"><g clip-path="url(#clip8)"><g clip-path="url(#clip9)"><path d="M7.87498 3.74999 1.125 3.74999C0.917997 3.74999 0.749998 3.91799 0.749998 4.12499L0.749998 5.62498C0.749998 5.83236 0.917997 5.99998 1.125 5.99998L1.5 5.99998 1.5 8.24998C1.5 8.45735 1.668 8.62497 1.87499 8.62497L7.12498 8.62497C7.33235 8.62497 7.49998 8.45735 7.49998 8.24998L7.49998 5.99998 7.87498 5.99998C8.08235 5.99998 8.24998 5.83236 8.24998 5.62498L8.24998 4.12499C8.24998 3.91799 8.08235 3.74999 7.87498 3.74999ZM6.74998 7.87498 2.24999 7.87498 2.24999 5.99998 6.74998 5.99998 6.74998 7.87498ZM7.49998 5.24998 7.12498 5.24998 1.87499 5.24998 1.5 5.24998 1.5 4.49999 7.49998 4.49999 7.49998 5.24998Z" transform="matrix(1 0 -0 1.11112 207 83)"/><path d="M4.22286 3.25987C4.29899 3.33637 4.39949 3.37499 4.49999 3.37499 4.60011 3.37499 4.70024 3.33637 4.77674 3.25987L5.88486 2.15024C6.03786 1.99649 6.03786 1.74862 5.88486 1.59525L4.77674 0.485249C4.62974 0.337874 4.36986 0.337874 4.22286 0.485249L3.11474 1.59525C2.96137 1.74862 2.96137 1.99649 3.11474 2.15024L4.22286 3.25987ZM4.49999 1.31812 5.05423 1.87274 4.49999 2.42774 3.94574 1.87274 4.49999 1.31812Z" transform="matrix(1 0 -0 1.11112 207 83)"/></g></g></g><path d="M218.5 126.667C218.5 126.022 219.022 125.5 219.667 125.5L247.333 125.5C247.978 125.5 248.5 126.022 248.5 126.667L248.5 131.333C248.5 131.978 247.978 132.5 247.333 132.5L219.667 132.5C219.022 132.5 218.5 131.978 218.5 131.333Z" stroke="#FABEBE" stroke-width="1.33585" stroke-miterlimit="8" fill="#FFFFFF" fill-rule="evenodd"/><text font-family="Calibri,Calibri_MSFontService,sans-serif" font-weight="700" font-size="5" transform="translate(229.582 130)">BENEFIT</text><g clip-path="url(#clip10)"><g clip-path="url(#clip11)"><g clip-path="url(#clip12)"><path d="M221.062 130.938C221.158 130.938 221.254 130.901 221.328 130.828L225.937 126.218 225.937 126.904C225.937 127.111 226.105 127.279 226.312 127.279 226.52 127.279 226.687 127.111 226.687 126.904L226.687 125.313C226.687 125.264 226.678 125.215 226.659 125.169 226.62 125.077 226.548 125.005 226.456 124.966 226.41 124.947 226.361 124.938 226.312 124.938L224.721 124.938C224.514 124.938 224.346 125.106 224.346 125.313 224.346 125.52 224.514 125.688 224.721 125.688L225.407 125.688 220.797 130.297C220.651 130.444 220.651 130.681 220.797 130.828 220.87 130.901 220.966 130.938 221.062 130.938Z"/><path d="M227.25 131.5 220.125 131.5 220.125 124.75C220.125 124.543 219.957 124.375 219.75 124.375 219.543 124.375 219.375 124.543 219.375 124.75L219.375 131.875C219.375 132.082 219.543 132.25 219.75 132.25L227.25 132.25C227.457 132.25 227.625 132.082 227.625 131.875 227.625 131.668 227.457 131.5 227.25 131.5Z"/></g></g></g><path d="M203.5 169.5C203.5 168.948 203.948 168.5 204.5 168.5L247.5 168.5C248.052 168.5 248.5 168.948 248.5 169.5L248.5 173.5C248.5 174.052 248.052 174.5 247.5 174.5L204.5 174.5C203.948 174.5 203.5 174.052 203.5 173.5Z" stroke="#000080" stroke-width="1.33585" stroke-miterlimit="8" fill="#FFFFFF" fill-rule="evenodd"/><text font-family="Calibri,Calibri_MSFontService,sans-serif" font-weight="700" font-size="5" transform="translate(214.887 172)">ENHANCEMENT</text><g clip-path="url(#clip13)"><g clip-path="url(#clip14)"><g clip-path="url(#clip15)"><path d="M6.05211 1.96012C5.90548 1.81574 5.67111 1.81574 5.52486 1.96012L0.486374 6.93561C0.415124 7.00648 0.374999 7.1021 0.374999 7.2026 0.374999 7.3031 0.415124 7.39873 0.486374 7.4696L1.54725 8.51697C1.62037 8.58897 1.71562 8.62497 1.81087 8.62497 1.90612 8.62497 2.00137 8.58897 2.07449 8.51697L7.1126 3.54111C7.18348 3.47061 7.22398 3.37461 7.22398 3.27449 7.22398 3.17437 7.18423 3.07837 7.1126 3.00787L6.05211 1.96012ZM5.25673 4.32036 4.72949 3.79986 5.78848 2.75399 6.31536 3.27449 5.25673 4.32036Z" transform="matrix(1 0 -0 1.11111 204 166)"/><path d="M7.49998 1.48612 7.87498 1.48612 7.87498 1.11562 8.24998 1.11562 8.24998 0.745498 7.87498 0.745498 7.87498 0.374999 7.49998 0.374999 7.49998 0.745498 7.12498 0.745498 7.12498 1.11562 7.49998 1.11562Z" transform="matrix(1 0 -0 1.11111 204 166)"/><path d="M4.87499 1.48612 5.24998 1.48612 5.24998 1.11562 5.62498 1.11562 5.62498 0.745498 5.24998 0.745498 5.24998 0.374999 4.87499 0.374999 4.87499 0.745498 4.49999 0.745498 4.49999 1.11562 4.87499 1.11562Z" transform="matrix(1 0 -0 1.11111 204 166)"/><path d="M7.49998 2.22674 7.87498 2.22674 7.87498 2.59724 7.49998 2.59724Z" transform="matrix(1 0 -0 1.11111 204 166)"/><path d="M8.24998 1.48612 8.62497 1.48612 8.62497 1.85624 8.24998 1.85624Z" transform="matrix(1 0 -0 1.11111 204 166)"/><path d="M3.74999 1.85624 4.12499 1.85624 4.12499 2.22674 3.74999 2.22674Z" transform="matrix(1 0 -0 1.11111 204 166)"/><path d="M6.37498 1.11562 6.74998 1.11562 6.74998 1.48612 6.37498 1.48612Z" transform="matrix(1 0 -0 1.11111 204 166)"/><path d="M8.24998 3.33787 7.87498 3.33787 7.87498 3.70799 7.49998 3.70799 7.49998 4.07849 7.87498 4.07849 7.87498 4.44899 8.24998 4.44899 8.24998 4.07849 8.62497 4.07849 8.62497 3.70799 8.24998 3.70799Z" transform="matrix(1 0 -0 1.11111 204 166)"/></g></g></g><path d="M226.5 211.5C226.5 210.948 226.948 210.5 227.5 210.5L247.5 210.5C248.052 210.5 248.5 210.948 248.5 211.5L248.5 215.5C248.5 216.052 248.052 216.5 247.5 216.5L227.5 216.5C226.948 216.5 226.5 216.052 226.5 215.5Z" stroke="#000080" stroke-width="1.33585" stroke-miterlimit="8" fill="#FFFFFF" fill-rule="evenodd"/><text font-family="Calibri,Calibri_MSFontService,sans-serif" font-weight="700" font-size="5" transform="translate(237.317 214)">EPIC</text><g clip-path="url(#clip16)"><g clip-path="url(#clip17)"><g clip-path="url(#clip18)"><path d="M7.5941 1.87499 6.00036 1.87499 6.00036 1.125 3.75036 1.125 3.75036 0.749998C3.75036 0.542998 3.58236 0.374999 3.37537 0.374999 3.16837 0.374999 3.00037 0.542998 3.00037 0.749998L3.00037 1.125 3.00037 4.12499 3.00037 6.37498 1.87537 6.37498C1.73325 6.37498 1.6035 6.45523 1.53975 6.58236L0.789748 8.08235C0.697123 8.2676 0.772123 8.49335 0.957372 8.5856 1.14337 8.67785 1.36762 8.60322 1.46062 8.41835L2.10712 7.12498 4.64361 7.12498 5.29011 8.4176C5.35573 8.54922 5.48811 8.62497 5.62573 8.62497 5.68161 8.62497 5.73973 8.61222 5.79298 8.5856 5.97823 8.49335 6.05286 8.2676 5.96061 8.08235L5.21061 6.58236C5.14723 6.45523 5.01749 6.37498 4.87536 6.37498L3.75036 6.37498 3.75036 4.12499 5.25036 4.12499 5.25036 4.87499 7.5941 4.87499C7.9616 4.87499 8.25035 4.54574 8.25035 4.12499L8.25035 2.62499C8.25035 2.20424 7.9616 1.87499 7.5941 1.87499ZM3.75036 3.37499 3.75036 1.87499 5.25036 1.87499 5.25036 3.37499 3.75036 3.37499ZM7.50035 4.12499 6.00036 4.12499 6.00036 2.62499 7.50035 2.62499 7.50035 4.12499Z" transform="matrix(1.11112 0 -0 1 226 209)"/></g></g></g><path d="M166.492 125 206.508 125C211.75 125 216 128.134 216 132 216 135.866 211.75 139 206.508 139L166.492 139C161.25 139 157 135.866 157 132 157 128.134 161.25 125 166.492 125Z" fill="#313131" fill-rule="evenodd"/><text fill="#FFFFFF" font-family="Calibri,Calibri_MSFontService,sans-serif" font-weight="700" font-size="5" transform="translate(174.502 134)">&lt;Has item|</text><path d="M164.24 168 194.76 168C198.759 168 202 170.91 202 174.5 202 178.09 198.759 181 194.76 181L164.24 181C160.241 181 157 178.09 157 174.5 157 170.91 160.241 168 164.24 168Z" fill="#313131" fill-rule="evenodd"/><text fill="#FFFFFF" font-family="Calibri,Calibri_MSFontService,sans-serif" font-weight="700" font-size="5" transform="translate(166.487 176)">&lt;Enhances|</text><path d="M167.779 210 213.221 210C219.174 210 224 212.91 224 216.5 224 220.09 219.174 223 213.221 223L167.779 223C161.826 223 157 220.09 157 216.5 157 212.91 161.826 210 167.779 210Z" fill="#313131" fill-rule="evenodd"/><text fill="#FFFFFF" font-family="Calibri,Calibri_MSFontService,sans-serif" font-weight="700" font-size="5" transform="translate(177.842 218)">&lt;Enhances|</text><path d="M164.561 82 196.439 82C200.615 82 204 84.9101 204 88.5 204 92.0899 200.615 95 196.439 95L164.561 95C160.385 95 157 92.0899 157 88.5 157 84.9101 160.385 82 164.561 82Z" fill="#313131" fill-rule="evenodd"/><text fill="#FFFFFF" font-family="Calibri,Calibri_MSFontService,sans-serif" font-weight="700" font-size="5" transform="translate(166.905 90)">|Feature of&gt;</text><path d="M166.17 41 204.83 41C209.894 41 214 43.9101 214 47.5 214 51.0899 209.894 54.0001 204.83 54.0001L166.17 54.0001C161.106 54.0001 157 51.0899 157 47.5 157 43.9101 161.106 41 166.17 41Z" fill="#313131" fill-rule="evenodd"/><text fill="#FFFFFF" font-family="Calibri,Calibri_MSFontService,sans-serif" font-weight="700" font-size="5" transform="translate(171.163 49)">|Offered by&gt;</text><path d="M84 41 89.5 38 95 41Z" fill="#FFFFFF" fill-rule="evenodd"/><path d="M71.5001 31.5C71.5001 30.9477 71.9478 30.5 72.5001 30.5L103.5 30.5C104.052 30.5 104.5 30.9477 104.5 31.5L104.5 35.5C104.5 36.0523 104.052 36.5 103.5 36.5L72.5001 36.5C71.9478 36.5 71.5001 36.0523 71.5001 35.5Z" stroke="#911EB4" stroke-width="1.33585" stroke-miterlimit="8" fill="#FFFFFF" fill-rule="evenodd"/><text font-family="Calibri,Calibri_MSFontService,sans-serif" font-weight="700" font-size="5" transform="translate(83.0711 34)">PRODUCT</text><g clip-path="url(#clip19)"><g clip-path="url(#clip20)"><g clip-path="url(#clip21)"><path d="M81.1666 28.4167 72.8333 28.4167C72.6033 28.4167 72.4167 28.6038 72.4167 28.8342L72.4167 30.5046C72.4167 30.735 72.6033 30.9221 72.8333 30.9221L73.25 30.9221 73.25 36.3512C73.25 36.5821 73.4367 36.7687 73.6667 36.7687L75.2233 36.7687C75.4533 36.7687 75.64 36.5821 75.64 36.3512 75.64 36.1204 75.4533 35.9337 75.2233 35.9337L74.0833 35.9337 74.0833 30.9225 79.9166 30.9225 79.9166 31.3358C79.9166 31.5663 80.1029 31.7533 80.3333 31.7533 80.5637 31.7533 80.75 31.5663 80.75 31.3358L80.75 30.9225 81.1666 30.9225C81.397 30.9225 81.5833 30.7354 81.5833 30.505L81.5833 28.8342C81.5833 28.6038 81.397 28.4167 81.1666 28.4167ZM80.75 30.0871 80.3333 30.0871 73.6667 30.0871 73.25 30.0871 73.25 29.2517 80.75 29.2517 80.75 30.0871Z"/><path d="M79.1071 32.4854C79 32.3813 78.8475 32.3413 78.7037 32.3813L77.3154 32.7646 76.4566 31.93C76.2916 31.7688 76.0283 31.7733 75.8675 31.9388 75.7071 32.1042 75.7112 32.3683 75.8766 32.5292L76.73 33.3588 76.35 34.7388C76.3096 34.8854 76.3516 35.0421 76.4596 35.1475L78.8121 37.4633C78.8933 37.5433 78.9987 37.5833 79.1041 37.5833 79.2112 37.5833 79.3179 37.5425 79.3987 37.4608L81.4608 35.3942C81.5391 35.3158 81.5833 35.2092 81.5829 35.0967 81.5825 34.985 81.5379 34.8796 81.4583 34.8004L79.1071 32.4854ZM79.1016 36.5775 77.2179 34.7246 77.4121 34.0217 77.9687 34.5629C78.0496 34.6417 78.1546 34.6813 78.2587 34.6813 78.3675 34.6813 78.4758 34.6383 78.5579 34.5538 78.7183 34.3888 78.7141 34.1242 78.5491 33.9633L78.0096 33.4383 78.6937 33.2492 80.5754 35.1012 79.1016 36.5775Z"/></g></g></g></g></svg>