<svg width="265" height="265" xmlns="http://www.w3.org/2000/svg" xmlns:xlink="http://www.w3.org/1999/xlink" overflow="hidden"><defs><clipPath id="clip0"><path d="M0 0 265 0 265 265 0 265Z" fill-rule="evenodd" clip-rule="evenodd"/></clipPath><clipPath id="clip1"><path d="M35 51 55 51 55 71 35 71Z" fill-rule="evenodd" clip-rule="evenodd"/></clipPath><clipPath id="clip2"><path d="M35 51 55 51 55 71 35 71Z" fill-rule="evenodd" clip-rule="evenodd"/></clipPath><clipPath id="clip3"><path d="M35 51 55 51 55 71 35 71Z" fill-rule="evenodd" clip-rule="evenodd"/></clipPath><clipPath id="clip4"><path d="M186 25 197 25 197 36 186 36Z" fill-rule="evenodd" clip-rule="evenodd"/></clipPath><clipPath id="clip5"><path d="M186 25 197 25 197 36 186 36Z" fill-rule="evenodd" clip-rule="evenodd"/></clipPath><clipPath id="clip6"><path d="M186 25 197 25 197 36 186 36Z" fill-rule="evenodd" clip-rule="evenodd"/></clipPath><clipPath id="clip7"><path d="M217 54 228 54 228 64 217 64Z" fill-rule="evenodd" clip-rule="evenodd"/></clipPath><clipPath id="clip8"><path d="M217 54 228 54 228 64 217 64Z" fill-rule="evenodd" clip-rule="evenodd"/></clipPath><clipPath id="clip9"><path d="M217 54 228 54 228 64 217 64Z" fill-rule="evenodd" clip-rule="evenodd"/></clipPath><clipPath id="clip10"><path d="M218 81 229 81 229 92 218 92Z" fill-rule="evenodd" clip-rule="evenodd"/></clipPath><clipPath id="clip11"><path d="M218 81 229 81 229 92 218 92Z" fill-rule="evenodd" clip-rule="evenodd"/></clipPath><clipPath id="clip12"><path d="M218 81 229 81 229 92 218 92Z" fill-rule="evenodd" clip-rule="evenodd"/></clipPath><clipPath id="clip13"><path d="M212 109 221 109 221 119 212 119Z" fill-rule="evenodd" clip-rule="evenodd"/></clipPath><clipPath id="clip14"><path d="M212 109 221 109 221 119 212 119Z" fill-rule="evenodd" clip-rule="evenodd"/></clipPath><clipPath id="clip15"><path d="M212 109 221 109 221 119 212 119Z" fill-rule="evenodd" clip-rule="evenodd"/></clipPath><clipPath id="clip16"><path d="M206 138 215 138 215 148 206 148Z" fill-rule="evenodd" clip-rule="evenodd"/></clipPath><clipPath id="clip17"><path d="M206 138 215 138 215 148 206 148Z" fill-rule="evenodd" clip-rule="evenodd"/></clipPath><clipPath id="clip18"><path d="M206 138 215 138 215 148 206 148Z" fill-rule="evenodd" clip-rule="evenodd"/></clipPath><clipPath id="clip19"><path d="M212 166 222 166 222 177 212 177Z" fill-rule="evenodd" clip-rule="evenodd"/></clipPath><clipPath id="clip20"><path d="M212 166 222 166 222 177 212 177Z" fill-rule="evenodd" clip-rule="evenodd"/></clipPath><clipPath id="clip21"><path d="M212 166 222 166 222 177 212 177Z" fill-rule="evenodd" clip-rule="evenodd"/></clipPath><clipPath id="clip22"><path d="M214 193 224 193 224 205 214 205Z" fill-rule="evenodd" clip-rule="evenodd"/></clipPath><clipPath id="clip23"><path d="M214 193 224 193 224 205 214 205Z" fill-rule="evenodd" clip-rule="evenodd"/></clipPath><clipPath id="clip24"><path d="M214 193 224 193 224 205 214 205Z" fill-rule="evenodd" clip-rule="evenodd"/></clipPath><clipPath id="clip25"><path d="M201 222 212 222 212 233 201 233Z" fill-rule="evenodd" clip-rule="evenodd"/></clipPath><clipPath id="clip26"><path d="M201 222 212 222 212 233 201 233Z" fill-rule="evenodd" clip-rule="evenodd"/></clipPath><clipPath id="clip27"><path d="M201 222 212 222 212 233 201 233Z" fill-rule="evenodd" clip-rule="evenodd"/></clipPath><clipPath id="clip28"><path d="M71 28 82 28 82 38 71 38Z" fill-rule="evenodd" clip-rule="evenodd"/></clipPath><clipPath id="clip29"><path d="M71 28 82 28 82 38 71 38Z" fill-rule="evenodd" clip-rule="evenodd"/></clipPath><clipPath id="clip30"><path d="M71 28 82 28 82 38 71 38Z" fill-rule="evenodd" clip-rule="evenodd"/></clipPath></defs><g clip-path="url(#clip0)"><rect x="0" y="0" width="265" height="265" fill="#313131"/><rect x="89.5" y="131.5" width="1.99999" height="1" stroke="#2F528F" stroke-width="1.33585" stroke-miterlimit="8" fill="#4472C4"/><path d="M23.5 9.75271C23.5 8.50859 24.5085 7.50003 25.7527 7.50003L249.247 7.50003C250.491 7.50003 251.5 8.50859 251.5 9.75271L251.5 249.247C251.5 250.491 250.491 251.5 249.247 251.5L25.7527 251.5C24.5085 251.5 23.5 250.491 23.5 249.247Z" stroke="#FF0000" stroke-width="0.667927" stroke-miterlimit="8" stroke-opacity="0" fill="none" fill-rule="evenodd"/><path d="M30.0794 43.5 149.921 43.5C153.002 43.5 155.5 45.998 155.5 49.0794L155.5 214.252C155.5 216.598 153.598 218.5 151.252 218.5L28.7483 218.5C26.402 218.5 24.5 216.598 24.5 214.252L24.5 49.0794C24.5 45.998 26.998 43.5 30.0794 43.5Z" stroke="#B74D41" stroke-width="4.67549" stroke-miterlimit="8" fill="#FFFFFF" fill-rule="evenodd"/><g clip-path="url(#clip1)"><g clip-path="url(#clip2)"><g clip-path="url(#clip3)"><path d="M50.8334 53.5833 38.1667 53.5833C37.7297 53.5833 37.375 53.938 37.375 54.375L37.375 61.5 37.375 62.2916 37.375 63.0833 38.9583 63.0833 38.9583 62.2916 38.9583 61.5 38.9583 55.1666 50.0417 55.1666 50.0417 61.5 50.0417 62.2916 50.0417 63.0833 51.625 63.0833 51.625 62.2916 51.625 61.5 51.625 54.375C51.625 53.938 51.2712 53.5833 50.8334 53.5833Z"/><path d="M40.5417 67.8333 42.125 67.8333 42.125 69.4167 40.5417 69.4167Z"/><path d="M43.7084 67.8333 45.2917 67.8333 45.2917 69.4167 43.7084 69.4167Z"/><path d="M46.875 67.8333 48.4584 67.8333 48.4584 69.4167 46.875 69.4167Z"/><path d="M50.0417 67.8333 51.625 67.8333 51.625 69.4167 50.0417 69.4167Z"/><path d="M37.375 67.8333 38.9583 67.8333 38.9583 69.4167 37.375 69.4167Z"/><path d="M40.5417 64.6666 42.125 64.6666 42.125 66.25 40.5417 66.25Z"/><path d="M43.7084 64.6666 45.2917 64.6666 45.2917 66.25 43.7084 66.25Z"/><path d="M46.875 64.6666 48.4584 64.6666 48.4584 66.25 46.875 66.25Z"/><path d="M50.0417 64.6666 51.625 64.6666 51.625 66.25 50.0417 66.25Z"/><path d="M37.375 64.6666 38.9583 64.6666 38.9583 66.25 37.375 66.25Z"/><path d="M40.5417 61.5 42.125 61.5 42.125 63.0833 40.5417 63.0833Z"/><path d="M43.7084 61.5 45.2917 61.5 45.2917 63.0833 43.7084 63.0833Z"/><path d="M46.875 61.5 48.4584 61.5 48.4584 63.0833 46.875 63.0833Z"/><path d="M46.0834 58.3333C46.0834 59.2078 45.3745 59.9166 44.5 59.9166 43.6256 59.9166 42.9167 59.2078 42.9167 58.3333 42.9167 57.4588 43.6256 56.75 44.5 56.75 45.3745 56.75 46.0834 57.4588 46.0834 58.3333Z"/></g></g></g><path d="M26.9702 6.36947C18.5628 6.36947 11.7473 10.3112 11.7473 15.1736L11.7473 248.948C11.7473 253.81 18.5628 257.752 26.9702 257.752L238.08 257.752C246.487 257.752 253.302 253.81 253.302 248.948L253.302 15.1736C253.302 10.3112 246.487 6.36947 238.08 6.36947ZM0 0 265 0 265 265 0 265Z" fill="#B74D41" fill-rule="evenodd"/><text font-family="Calibri,Calibri_MSFontService,sans-serif" font-weight="700" font-size="11" transform="translate(68.9532 63)">APPLICATION <tspan x="6.42545" y="13">FUNCTION</tspan><tspan font-weight="400" font-size="9" x="-37.6629" y="34">Logical elements representing </tspan><tspan font-weight="400" font-size="9" x="-37.6629" y="45">the functions performed by </tspan><tspan font-weight="400" font-size="9" x="-37.6629" y="56">elements of the technology </tspan><tspan font-weight="400" font-size="9" x="-37.6629" y="67">architecture. </tspan><tspan font-size="9" x="13.6005" y="67">Application </tspan><tspan font-size="9" x="-37.6629" y="79">functions</tspan><tspan font-weight="400" font-size="9" x="0.575935" y="79">are expressed in </tspan><tspan font-weight="400" font-size="9" x="-37.6629" y="90">terms of  functional purpose, </tspan><tspan font-weight="400" font-size="9" x="-37.6629" y="101">agnostic of their usage </tspan><tspan font-weight="400" font-size="9" x="-37.6629" y="112">context. </tspan><tspan font-size="9" x="-4.26653" y="112">Application </tspan><tspan font-size="9" x="-37.6629" y="123">functions</tspan><tspan font-weight="400" font-size="9" x="0.575935" y="123">may be grouped as </tspan><tspan font-size="9" x="-37.6629" y="135">Applications</tspan><tspan font-weight="400" font-size="9" x="10.4279" y="135">.</tspan></text><path d="M186.5 28.5C186.5 27.9477 186.948 27.5 187.5 27.5L247.5 27.5C248.052 27.5 248.5 27.9477 248.5 28.5L248.5 32.4999C248.5 33.0522 248.052 33.5 247.5 33.5L187.5 33.5C186.948 33.5 186.5 33.0522 186.5 32.4999Z" stroke="#5AA203" stroke-width="1.33585" stroke-miterlimit="8" fill="#FFFFFF" fill-rule="evenodd"/><text font-family="Calibri,Calibri_MSFontService,sans-serif" font-weight="700" font-size="5" transform="translate(197.692 31)">APPLICATION LIFE CYCLE</text><g clip-path="url(#clip4)"><g clip-path="url(#clip5)"><g clip-path="url(#clip6)"><path d="M6.03943 6.75006 2.94565 6.75006C2.55733 6.75006 2.24252 7.06487 2.24252 7.45319 2.24252 7.84152 2.55733 8.15632 2.94565 8.15632L6.03943 8.15632C6.42775 8.15632 6.74256 7.84152 6.74256 7.45319 6.74256 7.06487 6.42775 6.75006 6.03943 6.75006ZM3.13315 7.73444C2.97782 7.73444 2.8519 7.60853 2.8519 7.45319 2.8519 7.29785 2.97782 7.17194 3.13315 7.17194 3.28849 7.17194 3.4144 7.29785 3.4144 7.45319 3.4144 7.60853 3.28849 7.73444 3.13315 7.73444ZM4.49254 7.73444C4.3372 7.73444 4.21129 7.60853 4.21129 7.45319 4.21129 7.29785 4.3372 7.17194 4.49254 7.17194 4.64787 7.17194 4.77379 7.29785 4.77379 7.45319 4.77379 7.60853 4.64787 7.73444 4.49254 7.73444ZM5.85193 7.73444C5.69659 7.73444 5.57067 7.60853 5.57067 7.45319 5.57067 7.29785 5.69659 7.17194 5.85193 7.17194 6.00726 7.17194 6.13318 7.29785 6.13318 7.45319 6.13318 7.60853 6.00726 7.73444 5.85193 7.73444Z" transform="matrix(1 0 -0 1.1111 187 25)"/><path d="M5.14036 2.62502C5.14036 2.70269 5.0774 2.76565 4.99973 2.76565 4.92207 2.76565 4.85911 2.70269 4.85911 2.62502 4.85911 2.54736 4.92207 2.4844 4.99973 2.4844 5.0774 2.4844 5.14036 2.54736 5.14036 2.62502Z" transform="matrix(1 0 -0 1.1111 187 25)"/><path d="M5.30723 1.68751 4.68754 1.68751 4.68754 1.26095C4.86691 1.15739 4.92836 0.928046 4.8248 0.748685 4.72124 0.569323 4.4919 0.50787 4.31254 0.611424 4.13317 0.714978 4.07172 0.944324 4.17528 1.12369 4.20819 1.1807 4.25553 1.22803 4.31254 1.26095L4.31254 1.68751 3.69284 1.68751C3.46576 1.68803 3.28179 1.872 3.28128 2.09908L3.28128 3.15097C3.28179 3.37805 3.46576 3.56202 3.69284 3.56253L5.30723 3.56253C5.53432 3.56202 5.71828 3.37805 5.7188 3.15097L5.7188 2.09908C5.71828 1.872 5.53432 1.68803 5.30723 1.68751ZM4.03129 2.90628C3.87595 2.90628 3.75003 2.78036 3.75003 2.62502 3.75003 2.46969 3.87595 2.34377 4.03129 2.34377 4.18662 2.34377 4.31254 2.46969 4.31254 2.62502 4.31254 2.78036 4.18662 2.90628 4.03129 2.90628ZM4.96879 2.90628C4.81346 2.90628 4.68754 2.78036 4.68754 2.62502 4.68754 2.46969 4.81346 2.34377 4.96879 2.34377 5.12413 2.34377 5.25005 2.46969 5.25005 2.62502 5.25005 2.78036 5.12413 2.90628 4.96879 2.90628Z" transform="matrix(1 0 -0 1.1111 187 25)"/><path d="M4.20285 2.62502C4.20285 2.70269 4.13989 2.76565 4.06222 2.76565 3.98456 2.76565 3.9216 2.70269 3.9216 2.62502 3.9216 2.54736 3.98456 2.4844 4.06222 2.4844 4.13989 2.4844 4.20285 2.54736 4.20285 2.62502Z" transform="matrix(1 0 -0 1.1111 187 25)"/><path d="M6.93756 5.51442 6.93756 4.73348C6.93756 4.501 6.7491 4.31254 6.51662 4.31254L6.00005 4.31254 6.00005 3.84378 3.00003 3.84378 3.00003 4.40629 2.29596 4.40629C2.27059 4.40629 2.25002 4.38572 2.25002 4.36035L2.25002 3.58316C2.5723 3.48798 2.7564 3.14957 2.66122 2.8273 2.6357 2.7409 2.59132 2.66125 2.53127 2.59409L2.25002 2.84346C2.28936 2.88624 2.3117 2.94192 2.31283 3.00003 2.31213 3.12947 2.20662 3.23383 2.07718 3.23313 1.94774 3.23242 1.84338 3.12692 1.84409 2.99748 1.84439 2.94156 1.86467 2.88761 1.90127 2.84534L1.62001 2.59877C1.39905 2.85263 1.42572 3.23754 1.67958 3.45851 1.73702 3.50849 1.8033 3.54728 1.87502 3.57284L1.87502 4.36035C1.87502 4.59283 2.06347 4.78129 2.29596 4.78129L3.00003 4.78129 3.00003 6.46881 6.00005 6.46881 6.00005 4.68754 6.51662 4.68754C6.54199 4.68754 6.56256 4.70811 6.56256 4.73348L6.56256 5.51442C6.24234 5.61801 6.06674 5.96157 6.17032 6.28178 6.19625 6.36192 6.23851 6.43582 6.29443 6.49881L6.57568 6.24943C6.53689 6.2069 6.51548 6.15137 6.51568 6.0938 6.51579 5.96436 6.62081 5.85951 6.75026 5.85962 6.8797 5.85974 6.98455 5.96476 6.98444 6.0942 6.98439 6.15097 6.96374 6.2058 6.92631 6.24849L7.20756 6.49506C7.42939 6.24264 7.40459 5.8582 7.15217 5.63637 7.08973 5.58148 7.01668 5.53998 6.93756 5.51442ZM5.62505 5.1563 5.36442 5.1563C5.35536 5.15792 5.34673 5.16143 5.33911 5.16661L5.05223 5.46005 4.83379 4.94254 4.42598 5.7863 4.14004 4.68754 3.91972 5.1563 3.46878 5.1563 3.46878 4.96879 3.80066 4.96879 4.19066 4.1391 4.47941 5.24348 4.84598 4.49348 5.11598 5.13286 5.20973 5.03911C5.2509 4.99744 5.30597 4.97241 5.36442 4.96879L5.62505 4.96879Z" transform="matrix(1 0 -0 1.1111 187 25)"/></g></g></g><path d="M218.5 56.5C218.5 55.9477 218.948 55.5 219.5 55.5L247.5 55.5C248.052 55.5 248.5 55.9477 248.5 56.5L248.5 60.5C248.5 61.0523 248.052 61.5 247.5 61.5L219.5 61.5C218.948 61.5 218.5 61.0523 218.5 60.5Z" stroke="#B74D41" stroke-width="1.33585" stroke-miterlimit="8" fill="#FFFFFF" fill-rule="evenodd"/><text font-family="Calibri,Calibri_MSFontService,sans-serif" font-weight="700" font-size="5" transform="translate(229.239 59)">RECORD</text><g clip-path="url(#clip7)"><g clip-path="url(#clip8)"><g clip-path="url(#clip9)"><path d="M3.37499 7.87498 1.125 7.87498C0.917997 7.87498 0.749998 7.70735 0.749998 7.49998L0.749998 0.749998C0.749998 0.542998 0.917997 0.374999 1.125 0.374999L3.37499 0.374999C3.58236 0.374999 3.74999 0.542998 3.74999 0.749998L3.74999 7.49998C3.74999 7.70735 3.58236 7.87498 3.37499 7.87498ZM1.5 7.12498 2.99999 7.12498 2.99999 1.125 1.5 1.125 1.5 7.12498Z" transform="matrix(1.11111 0 -0 1 218.417 54.375)"/><path d="M7.12498 7.87498 4.87499 7.87498C4.66761 7.87498 4.49999 7.70735 4.49999 7.49998L4.49999 0.749998C4.49999 0.542998 4.66761 0.374999 4.87499 0.374999L7.12498 0.374999C7.33235 0.374999 7.49998 0.542998 7.49998 0.749998L7.49998 7.49998C7.49998 7.70735 7.33235 7.87498 7.12498 7.87498ZM5.24998 7.12498 6.74998 7.12498 6.74998 1.125 5.24998 1.125 5.24998 7.12498Z" transform="matrix(1.11111 0 -0 1 218.417 54.375)"/><path d="M1.87499 4.12499 2.62499 4.12499 2.62499 4.87499 1.87499 4.87499Z" transform="matrix(1.11111 0 -0 1 218.417 54.375)"/><path d="M1.87499 5.62498 2.62499 5.62498 2.62499 6.37498 1.87499 6.37498Z" transform="matrix(1.11111 0 -0 1 218.417 54.375)"/><path d="M5.62498 4.12499 6.37498 4.12499 6.37498 4.87499 5.62498 4.87499Z" transform="matrix(1.11111 0 -0 1 218.417 54.375)"/><path d="M5.62498 5.62498 6.37498 5.62498 6.37498 6.37498 5.62498 6.37498Z" transform="matrix(1.11111 0 -0 1 218.417 54.375)"/><path d="M6.37498 2.24999C6.37498 2.4571 6.20709 2.62499 5.99998 2.62499 5.79288 2.62499 5.62498 2.4571 5.62498 2.24999 5.62498 2.04289 5.79288 1.87499 5.99998 1.87499 6.20709 1.87499 6.37498 2.04289 6.37498 2.24999Z" transform="matrix(1.11111 0 -0 1 218.417 54.375)"/><path d="M2.62499 2.24999C2.62499 2.4571 2.4571 2.62499 2.24999 2.62499 2.04289 2.62499 1.87499 2.4571 1.87499 2.24999 1.87499 2.04289 2.04289 1.87499 2.24999 1.87499 2.4571 1.87499 2.62499 2.04289 2.62499 2.24999Z" transform="matrix(1.11111 0 -0 1 218.417 54.375)"/></g></g></g><path d="M218.5 84.5C218.5 83.9477 218.948 83.5 219.5 83.5L247.5 83.5C248.052 83.5 248.5 83.9477 248.5 84.5L248.5 88.5C248.5 89.0523 248.052 89.5 247.5 89.5L219.5 89.5C218.948 89.5 218.5 89.0523 218.5 88.5Z" stroke="#B74D41" stroke-width="1.33585" stroke-miterlimit="8" fill="#FFFFFF" fill-rule="evenodd"/><text font-family="Calibri,Calibri_MSFontService,sans-serif" font-weight="700" font-size="5" transform="translate(230.098 87)">SYSTEM</text><g clip-path="url(#clip10)"><g clip-path="url(#clip11)"><g clip-path="url(#clip12)"><path d="M8.25007 4.87504C8.45745 4.87504 8.62508 4.70742 8.62508 4.50004 8.62508 4.29304 8.45745 4.12504 8.25007 4.12504L6.75006 4.12504 6.75006 3.37503 8.25007 3.37503C8.45745 3.37503 8.62508 3.20703 8.62508 3.00003 8.62508 2.79302 8.45745 2.62502 8.25007 2.62502L6.75006 2.62502C6.75006 2.41802 6.58243 2.25002 6.37506 2.25002L6.37506 1.12501C6.37506 0.918008 6.20743 0.750007 6.00005 0.750007 5.79268 0.750007 5.62505 0.918008 5.62505 1.12501L5.62505 2.25002 4.87504 2.25002 4.87504 1.12501C4.87504 0.918008 4.70742 0.750007 4.50004 0.750007 4.29304 0.750007 4.12504 0.918008 4.12504 1.12501L4.12504 2.25002 3.37503 2.25002 3.37503 1.12501C3.37503 0.918008 3.20703 0.750007 3.00003 0.750007 2.79302 0.750007 2.62502 0.918008 2.62502 1.12501L2.62502 2.25002C2.41802 2.25002 2.25002 2.41802 2.25002 2.62502L0.750007 2.62502C0.543005 2.62502 0.375003 2.79302 0.375003 3.00003 0.375003 3.20703 0.543005 3.37503 0.750007 3.37503L2.25002 3.37503 2.25002 4.12504 0.750007 4.12504C0.543005 4.12504 0.375003 4.29304 0.375003 4.50004 0.375003 4.70742 0.543005 4.87504 0.750007 4.87504L2.25002 4.87504 2.25002 5.62505 0.750007 5.62505C0.543005 5.62505 0.375003 5.79268 0.375003 6.00005 0.375003 6.20743 0.543005 6.37506 0.750007 6.37506L2.25002 6.37506C2.25002 6.58243 2.41802 6.75006 2.62502 6.75006L2.62502 7.87507C2.62502 8.08245 2.79302 8.25007 3.00003 8.25007 3.20703 8.25007 3.37503 8.08245 3.37503 7.87507L3.37503 6.75006 4.12504 6.75006 4.12504 7.87507C4.12504 8.08245 4.29304 8.25007 4.50004 8.25007 4.70742 8.25007 4.87504 8.08245 4.87504 7.87507L4.87504 6.75006 5.62505 6.75006 5.62505 7.87507C5.62505 8.08245 5.79268 8.25007 6.00005 8.25007 6.20743 8.25007 6.37506 8.08245 6.37506 7.87507L6.37506 6.75006C6.58243 6.75006 6.75006 6.58243 6.75006 6.37506L8.25007 6.37506C8.45745 6.37506 8.62508 6.20743 8.62508 6.00005 8.62508 5.79268 8.45745 5.62505 8.25007 5.62505L6.75006 5.62505 6.75006 4.87504 8.25007 4.87504ZM3.00003 6.00005 3.00003 3.00003 6.00005 3.00003 6.00005 6.00005 3.00003 6.00005Z" transform="matrix(1.1111 0 -0 1 219 82)"/></g></g></g><path d="M211.5 112.667C211.5 112.022 212.022 111.5 212.667 111.5L247.333 111.5C247.978 111.5 248.5 112.022 248.5 112.667L248.5 117.333C248.5 117.978 247.978 118.5 247.333 118.5L212.667 118.5C212.022 118.5 211.5 117.978 211.5 117.333Z" stroke="#918396" stroke-width="1.33585" stroke-miterlimit="8" fill="#FFFFFF" fill-rule="evenodd"/><text font-family="Calibri,Calibri_MSFontService,sans-serif" font-weight="700" font-size="5" transform="translate(222.548 116)">VALUATION</text><g clip-path="url(#clip13)"><g clip-path="url(#clip14)"><g clip-path="url(#clip15)"><path d="M218.039 116.75 214.946 116.75C214.557 116.75 214.242 117.065 214.242 117.453 214.242 117.841 214.557 118.156 214.946 118.156L218.039 118.156C218.428 118.156 218.742 117.841 218.742 117.453 218.742 117.065 218.428 116.75 218.039 116.75ZM215.133 117.734C214.978 117.734 214.852 117.608 214.852 117.453 214.852 117.298 214.978 117.172 215.133 117.172 215.288 117.172 215.414 117.298 215.414 117.453 215.414 117.608 215.288 117.734 215.133 117.734ZM216.492 117.734C216.337 117.734 216.211 117.608 216.211 117.453 216.211 117.298 216.337 117.172 216.492 117.172 216.648 117.172 216.774 117.298 216.774 117.453 216.774 117.608 216.648 117.734 216.492 117.734ZM217.852 117.734C217.697 117.734 217.571 117.608 217.571 117.453 217.571 117.298 217.697 117.172 217.852 117.172 218.007 117.172 218.133 117.298 218.133 117.453 218.133 117.608 218.007 117.734 217.852 117.734Z"/><path d="M217.14 112.625C217.14 112.703 217.077 112.766 217 112.766 216.922 112.766 216.859 112.703 216.859 112.625 216.859 112.547 216.922 112.484 217 112.484 217.077 112.484 217.14 112.547 217.14 112.625Z"/><path d="M217.307 111.687 216.687 111.687 216.687 111.261C216.867 111.157 216.928 110.928 216.825 110.749 216.721 110.569 216.492 110.508 216.312 110.611 216.133 110.715 216.072 110.944 216.175 111.124 216.208 111.181 216.255 111.228 216.312 111.261L216.312 111.687 215.693 111.687C215.466 111.688 215.282 111.872 215.281 112.099L215.281 113.151C215.282 113.378 215.466 113.562 215.693 113.562L217.307 113.562C217.534 113.562 217.718 113.378 217.719 113.151L217.719 112.099C217.718 111.872 217.534 111.688 217.307 111.687ZM216.031 112.906C215.876 112.906 215.75 112.78 215.75 112.625 215.75 112.47 215.876 112.344 216.031 112.344 216.187 112.344 216.312 112.47 216.312 112.625 216.312 112.78 216.187 112.906 216.031 112.906ZM216.969 112.906C216.813 112.906 216.687 112.78 216.687 112.625 216.687 112.47 216.813 112.344 216.969 112.344 217.124 112.344 217.25 112.47 217.25 112.625 217.25 112.78 217.124 112.906 216.969 112.906Z"/><path d="M216.203 112.625C216.203 112.703 216.14 112.766 216.062 112.766 215.985 112.766 215.922 112.703 215.922 112.625 215.922 112.547 215.985 112.484 216.062 112.484 216.14 112.484 216.203 112.547 216.203 112.625Z"/><path d="M218.937 115.514 218.937 114.733C218.937 114.501 218.749 114.312 218.517 114.312L218 114.312 218 113.844 215 113.844 215 114.406 214.296 114.406C214.271 114.406 214.25 114.386 214.25 114.36L214.25 113.583C214.572 113.488 214.756 113.15 214.661 112.827 214.636 112.741 214.591 112.661 214.531 112.594L214.25 112.843C214.289 112.886 214.312 112.942 214.313 113 214.312 113.129 214.207 113.234 214.077 113.233 213.948 113.232 213.843 113.127 213.844 112.997 213.844 112.942 213.865 112.888 213.901 112.845L213.62 112.599C213.399 112.853 213.426 113.237 213.68 113.458 213.737 113.508 213.803 113.547 213.875 113.573L213.875 114.36C213.875 114.593 214.063 114.781 214.296 114.781L215 114.781 215 116.469 218 116.469 218 114.687 218.517 114.687C218.542 114.687 218.562 114.708 218.562 114.733L218.562 115.514C218.242 115.618 218.067 115.961 218.17 116.282 218.196 116.362 218.238 116.436 218.294 116.499L218.576 116.249C218.537 116.207 218.515 116.151 218.516 116.094 218.516 115.964 218.621 115.859 218.75 115.86 218.88 115.86 218.984 115.965 218.984 116.094 218.984 116.151 218.964 116.206 218.926 116.248L219.207 116.495C219.429 116.243 219.405 115.858 219.152 115.636 219.09 115.581 219.017 115.54 218.937 115.514ZM217.625 115.156 217.364 115.156C217.355 115.158 217.347 115.161 217.339 115.167L217.052 115.46 216.834 114.942 216.426 115.786 216.14 114.687 215.92 115.156 215.469 115.156 215.469 114.969 215.801 114.969 216.191 114.139 216.479 115.243 216.846 114.493 217.116 115.133 217.21 115.039C217.251 114.997 217.306 114.972 217.364 114.969L217.625 114.969Z"/></g></g></g><path d="M205.5 141.5C205.5 140.948 205.948 140.5 206.5 140.5L247.5 140.5C248.052 140.5 248.5 140.948 248.5 141.5L248.5 145.5C248.5 146.052 248.052 146.5 247.5 146.5L206.5 146.5C205.948 146.5 205.5 146.052 205.5 145.5Z" stroke="#D2F53C" stroke-width="1.33585" stroke-miterlimit="8" fill="#FFFFFF" fill-rule="evenodd"/><text font-family="Calibri,Calibri_MSFontService,sans-serif" font-weight="700" font-size="5" transform="translate(216.589 144)">REQUIREMENT</text><g clip-path="url(#clip16)"><g clip-path="url(#clip17)"><g clip-path="url(#clip18)"><path d="M3.74999 5.32461 1.90424 7.12498 1.90387 7.1246 1.90387 7.12498 0.749998 5.99998 1.21125 5.54998 1.90387 6.22498 3.28874 4.87499Z" transform="matrix(1 0 -0 1.11111 206 138)"/><path d="M3.74999 1.575 1.90424 3.37499 1.90387 3.37499 1.90387 3.37499 0.749998 2.24999 1.21125 1.79999 1.90387 2.47499 3.28874 1.125Z" transform="matrix(1 0 -0 1.11111 206 138)"/><path d="M7.49998 3.37499 5.24998 3.37499C5.04261 3.37499 4.87499 3.20699 4.87499 2.99999L4.87499 1.5C4.87499 1.293 5.04261 1.125 5.24998 1.125L7.49998 1.125C7.70735 1.125 7.87498 1.293 7.87498 1.5L7.87498 2.99999C7.87498 3.20699 7.70735 3.37499 7.49998 3.37499ZM5.62498 2.62499 7.12498 2.62499 7.12498 1.87499 5.62498 1.87499 5.62498 2.62499Z" transform="matrix(1 0 -0 1.11111 206 138)"/><path d="M7.49998 7.12498 5.24998 7.12498C5.04261 7.12498 4.87499 6.95735 4.87499 6.74998L4.87499 5.24998C4.87499 5.04261 5.04261 4.87499 5.24998 4.87499L7.49998 4.87499C7.70735 4.87499 7.87498 5.04261 7.87498 5.24998L7.87498 6.74998C7.87498 6.95735 7.70735 7.12498 7.49998 7.12498ZM5.62498 6.37498 7.12498 6.37498 7.12498 5.62498 5.62498 5.62498 5.62498 6.37498Z" transform="matrix(1 0 -0 1.11111 206 138)"/></g></g></g><path d="M212.5 169.5C212.5 168.948 212.948 168.5 213.5 168.5L247.5 168.5C248.052 168.5 248.5 168.948 248.5 169.5L248.5 173.5C248.5 174.052 248.052 174.5 247.5 174.5L213.5 174.5C212.948 174.5 212.5 174.052 212.5 173.5Z" stroke="#911EB4" stroke-width="1.33585" stroke-miterlimit="8" fill="#FFFFFF" fill-rule="evenodd"/><text font-family="Calibri,Calibri_MSFontService,sans-serif" font-weight="700" font-size="5" transform="translate(223.229 172)">CAPABILITY</text><g clip-path="url(#clip19)"><g clip-path="url(#clip20)"><g clip-path="url(#clip21)"><path d="M220.75 170.167 213.25 170.167C213.02 170.167 212.833 170.353 212.833 170.583L212.833 172.25C212.833 172.48 213.02 172.667 213.25 172.667L213.667 172.667 213.667 175.167C213.667 175.397 213.853 175.583 214.083 175.583L219.917 175.583C220.147 175.583 220.333 175.397 220.333 175.167L220.333 172.667 220.75 172.667C220.98 172.667 221.167 172.48 221.167 172.25L221.167 170.583C221.167 170.353 220.98 170.167 220.75 170.167ZM219.5 174.75 214.5 174.75 214.5 172.667 219.5 172.667 219.5 174.75ZM220.333 171.833 219.917 171.833 214.083 171.833 213.667 171.833 213.667 171 220.333 171 220.333 171.833Z"/><path d="M214.083 169.333 216.167 169.333C216.397 169.333 216.583 169.147 216.583 168.917L216.583 166.833C216.583 166.603 216.397 166.417 216.167 166.417L214.083 166.417C213.853 166.417 213.667 166.603 213.667 166.833L213.667 168.917C213.667 169.147 213.853 169.333 214.083 169.333ZM214.5 167.25 215.75 167.25 215.75 168.5 214.5 168.5 214.5 167.25Z"/><path d="M218.875 169.333C219.681 169.333 220.333 168.68 220.333 167.875 220.333 167.07 219.681 166.417 218.875 166.417 218.069 166.417 217.417 167.07 217.417 167.875 217.417 168.68 218.069 169.333 218.875 169.333ZM218.875 167.25C219.22 167.25 219.5 167.53 219.5 167.875 219.5 168.22 219.22 168.5 218.875 168.5 218.53 168.5 218.25 168.22 218.25 167.875 218.25 167.53 218.53 167.25 218.875 167.25Z"/></g></g></g><path d="M214.5 197.5C214.5 196.948 214.948 196.5 215.5 196.5L247.5 196.5C248.052 196.5 248.5 196.948 248.5 197.5L248.5 201.5C248.5 202.052 248.052 202.5 247.5 202.5L215.5 202.5C214.948 202.5 214.5 202.052 214.5 201.5Z" stroke="#46F0F0" stroke-width="1.33585" stroke-miterlimit="8" fill="#FFFFFF" fill-rule="evenodd"/><text font-family="Calibri,Calibri_MSFontService,sans-serif" font-weight="700" font-size="5" transform="translate(225.442 200)">INITIATIVE</text><g clip-path="url(#clip22)"><g clip-path="url(#clip23)"><g clip-path="url(#clip24)"><path d="M3.74999 4.77449C4.57686 4.77449 5.24998 4.11824 5.24998 3.31124 5.24998 2.50387 4.57686 1.84762 3.74999 1.84762 2.92274 1.84762 2.24999 2.50424 2.24999 3.31124 2.24999 4.11824 2.92274 4.77449 3.74999 4.77449ZM3.74999 2.57962C4.16399 2.57962 4.49999 2.90774 4.49999 3.31162 4.49999 3.71549 4.16399 4.04361 3.74999 4.04361 3.33637 4.04361 2.99999 3.71549 2.99999 3.31162 2.99999 2.90774 3.33637 2.57962 3.74999 2.57962Z" transform="matrix(1 0 -0 1.11112 215 194)"/><path d="M7.49998 0.749998C7.2926 0.749998 7.12498 0.913872 7.12498 1.116L7.12498 3.54186 7.12498 3.67724 7.12498 3.70986C7.12498 4.70661 6.29473 5.51736 5.27398 5.51736L3.72599 5.51736C2.29162 5.51773 1.125 6.57936 1.125 7.8836 1.125 8.08573 1.293 8.24998 1.5 8.24998 1.707 8.24998 1.87499 8.08573 1.87499 7.8836 1.87499 6.98285 2.70524 6.24936 3.72599 6.24936L5.27398 6.24936C6.70798 6.24936 7.87535 5.11049 7.87535 3.71024L7.87535 3.67724 7.87535 3.54186 7.87535 1.116C7.87498 0.913872 7.70735 0.749998 7.49998 0.749998Z" transform="matrix(1 0 -0 1.11112 215 194)"/><path d="M5.99998 6.60411C5.79261 6.60411 5.62498 6.76835 5.62498 6.97085L5.62498 7.70248C5.62498 7.9046 5.79261 8.06848 5.99998 8.06848 6.20736 8.06848 6.37498 7.9046 6.37498 7.70248L6.37498 6.97085C6.37498 6.76835 6.20736 6.60411 5.99998 6.60411Z" transform="matrix(1 0 -0 1.11112 215 194)"/></g></g></g><path d="M201.5 225.843 203.843 223.5 246.157 223.5 248.5 225.843 248.5 229.157 246.157 231.5 203.843 231.5 201.5 229.157Z" stroke="#000000" stroke-width="1.33585" stroke-miterlimit="8" fill="#FFFFFF" fill-rule="evenodd"/><text font-family="Calibri,Calibri_MSFontService,sans-serif" font-weight="700" font-size="5" transform="translate(213.292 228)">Implementation</text><g clip-path="url(#clip25)"><g clip-path="url(#clip26)"><g clip-path="url(#clip27)"><path d="M8.25007 4.50004 7.12506 4.50004 7.12506 3.56253 8.32507 2.36252C8.47507 2.21252 8.47507 1.98752 8.32507 1.83752L7.01256 0.525005C6.93756 0.412504 6.86256 0.375003 6.75006 0.375003 6.63756 0.375003 6.56256 0.412504 6.48756 0.487504L5.17505 1.80002C5.10004 1.87502 5.06254 1.95002 5.06254 2.06252 5.06254 2.17502 5.10004 2.25002 5.17505 2.32502L6.37506 3.56253 6.37506 4.50004 3.00003 4.50004 3.00003 2.62502 3.75003 2.62502C3.97503 2.62502 4.12504 2.47502 4.12504 2.25002L4.12504 0.750007C4.12504 0.525005 3.97503 0.375003 3.75003 0.375003L1.50001 0.375003C1.27501 0.375003 1.12501 0.525005 1.12501 0.750007L1.12501 2.25002C1.12501 2.47502 1.27501 2.62502 1.50001 2.62502L2.25002 2.62502 2.25002 4.50004 0.750007 4.50004C0.525005 4.50004 0.375003 4.65004 0.375003 4.87504 0.375003 5.10004 0.525005 5.25005 0.750007 5.25005L8.25007 5.25005C8.47507 5.25005 8.62508 5.10004 8.62508 4.87504 8.62508 4.65004 8.47507 4.50004 8.25007 4.50004ZM6.75006 1.27501 7.53757 2.06252 6.75006 2.88753 5.96255 2.10002 6.75006 1.27501ZM1.87502 1.87502 1.87502 1.12501 3.37503 1.12501 3.37503 1.87502 1.87502 1.87502Z" transform="matrix(1.1111 0 -0 1 201 223)"/><path d="M4.35004 7.57507 3.52503 6.78756 3.00003 7.31256 4.35004 8.62508 6.48756 6.52506 5.96255 6.00005Z" transform="matrix(1.1111 0 -0 1 201 223)"/></g></g></g><path d="M166.492 55 206.508 55C211.75 55 216 57.9102 216 61.5 216 65.0899 211.75 68 206.508 68L166.492 68C161.25 68 157 65.0899 157 61.5 157 57.9102 161.25 55 166.492 55Z" fill="#313131" fill-rule="evenodd"/><text fill="#FFFFFF" font-family="Calibri,Calibri_MSFontService,sans-serif" font-weight="700" font-size="5" transform="translate(169.994 63)">&lt;Employed by|</text><path d="M161.344 27 179.656 27C182.055 27 184 29.9102 184 33.5 184 37.0898 182.055 40 179.656 40L161.344 40C158.945 40 157 37.0898 157 33.5 157 29.9102 158.945 27 161.344 27Z" fill="#313131" fill-rule="evenodd"/><text fill="#FFFFFF" font-family="Calibri,Calibri_MSFontService,sans-serif" font-weight="700" font-size="5" transform="translate(165.569 35)">&lt;Of|</text><path d="M166.814 83 208.186 83C213.606 83 218 86.134 218 90 218 93.866 213.606 97 208.186 97L166.814 97C161.394 97 157 93.866 157 90 157 86.134 161.394 83 166.814 83Z" fill="#313131" fill-rule="evenodd"/><text fill="#FFFFFF" font-family="Calibri,Calibri_MSFontService,sans-serif" font-weight="700" font-size="5" transform="translate(174.168 92)">|Served by&gt;</text><path d="M165.527 111 201.473 111C206.183 111 210 114.134 210 118 210 121.866 206.183 125 201.473 125L165.527 125C160.817 125 157 121.866 157 118 157 114.134 160.817 111 165.527 111Z" fill="#313131" fill-rule="evenodd"/><text fill="#FFFFFF" font-family="Calibri,Calibri_MSFontService,sans-serif" font-weight="700" font-size="5" transform="translate(167.656 120)">|Valuated by&gt;</text><path d="M165.527 168 201.473 168C206.183 168 210 170.91 210 174.5 210 178.09 206.183 181 201.473 181L165.527 181C160.817 181 157 178.09 157 174.5 157 170.91 160.817 168 165.527 168Z" fill="#313131" fill-rule="evenodd"/><text fill="#FFFFFF" font-family="Calibri,Calibri_MSFontService,sans-serif" font-weight="700" font-size="5" transform="translate(167.072 176)">&lt;Delivered by|</text><path d="M164.561 140 196.439 140C200.615 140 204 142.91 204 146.5 204 150.09 200.615 153 196.439 153L164.561 153C160.385 153 157 150.09 157 146.5 157 142.91 160.385 140 164.561 140Z" fill="#313131" fill-rule="evenodd"/><text fill="#FFFFFF" font-family="Calibri,Calibri_MSFontService,sans-serif" font-weight="700" font-size="5" transform="translate(164.233 148)">|Enhanced by&gt;</text><path d="M165.848 196 203.152 196C208.038 196 212 198.91 212 202.5 212 206.09 208.038 209 203.152 209L165.848 209C160.962 209 157 206.09 157 202.5 157 198.91 160.962 196 165.848 196Z" fill="#313131" fill-rule="evenodd"/><text fill="#FFFFFF" font-family="Calibri,Calibri_MSFontService,sans-serif" font-weight="700" font-size="5" transform="translate(165.903 204)">|Tranformed by&gt;</text><path d="M163.757 223 192.243 223C195.975 223 199 226.134 199 230 199 233.866 195.975 237 192.243 237L163.757 237C160.025 237 157 233.866 157 230 157 226.134 160.025 223 163.757 223Z" fill="#313131" fill-rule="evenodd"/><text fill="#FFFFFF" font-family="Calibri,Calibri_MSFontService,sans-serif" font-weight="700" font-size="5" transform="translate(165.235 228)">&lt;Statement <tspan x="4.42834" y="6">Object|</tspan></text><path d="M84 41 89.5 38 95 41Z" fill="#FFFFFF" fill-rule="evenodd"/><path d="M71.5001 31.5C71.5001 30.9477 71.9478 30.5 72.5001 30.5L110.5 30.5C111.052 30.5 111.5 30.9477 111.5 31.5L111.5 35.5C111.5 36.0523 111.052 36.5 110.5 36.5L72.5001 36.5C71.9478 36.5 71.5001 36.0523 71.5001 35.5Z" stroke="#B74D41" stroke-width="1.33585" stroke-miterlimit="8" fill="#FFFFFF" fill-rule="evenodd"/><text font-family="Calibri,Calibri_MSFontService,sans-serif" font-weight="700" font-size="5" transform="translate(83.0711 34)">APPLICATION</text><g clip-path="url(#clip28)"><g clip-path="url(#clip29)"><g clip-path="url(#clip30)"><path d="M77.0783 35.5837C76.9716 35.5837 76.865 35.5429 76.7837 35.4617L76.2112 34.8896 75.5266 34.8896C75.2966 34.8896 75.11 34.7033 75.11 34.4729L75.11 33.7883 74.7004 33.3783C74.5379 33.2154 74.5379 32.9521 74.7004 32.7892L75.11 32.3796 75.11 31.5267C75.11 31.2967 75.2966 31.11 75.5266 31.11L76.3796 31.11 76.7837 30.7058C76.9466 30.5429 77.21 30.5429 77.3729 30.7058L77.7775 31.11 78.4733 31.11C78.7037 31.11 78.89 31.2967 78.89 31.5267L78.89 32.2225 79.4562 32.7892C79.5346 32.8675 79.5783 32.9733 79.5783 33.0838 79.5783 33.1942 79.535 33.3004 79.4562 33.3788L78.89 33.9446 78.89 34.4729C78.89 34.7033 78.7037 34.8896 78.4733 34.8896L77.945 34.8896 77.3729 35.4617C77.2916 35.5433 77.185 35.5837 77.0783 35.5837ZM75.9433 34.0563 76.3837 34.0563C76.4941 34.0563 76.6004 34.1 76.6783 34.1783L77.0783 34.5779 77.4775 34.1783C77.5558 34.1 77.6612 34.0563 77.7721 34.0563L78.0562 34.0563 78.0562 33.7721C78.0562 33.6613 78.1 33.5554 78.1783 33.4775L78.5721 33.0838 78.1783 32.6896C78.1 32.6113 78.0562 32.5054 78.0562 32.395L78.0562 31.9433 77.6046 31.9433C77.4937 31.9433 77.3879 31.8996 77.31 31.8213L77.0783 31.5896 76.8466 31.8213C76.7683 31.8996 76.6629 31.9433 76.5521 31.9433L75.9433 31.9433 75.9433 32.5521C75.9433 32.6625 75.8996 32.7688 75.8212 32.8467L75.5842 33.0842 75.8216 33.3213C75.8996 33.3996 75.9433 33.5054 75.9433 33.6158L75.9433 34.0563Z"/><path d="M80.3333 35.5C80.1029 35.5 79.9166 35.3138 79.9166 35.0833L79.9166 29.6667 74.0833 29.6667 74.0833 35.0833C74.0833 35.3138 73.8967 35.5 73.6667 35.5 73.4367 35.5 73.25 35.3138 73.25 35.0833L73.25 29.25C73.25 29.02 73.4367 28.8334 73.6667 28.8334L80.3333 28.8334C80.5637 28.8334 80.75 29.02 80.75 29.25L80.75 35.0833C80.75 35.3138 80.5637 35.5 80.3333 35.5Z"/><path d="M74.9166 36.3333 75.75 36.3333 75.75 37.1667 74.9166 37.1667Z"/><path d="M76.5833 36.3333 77.4166 36.3333 77.4166 37.1667 76.5833 37.1667Z"/><path d="M78.25 36.3333 79.0833 36.3333 79.0833 37.1667 78.25 37.1667Z"/><path d="M79.9166 36.3333 80.75 36.3333 80.75 37.1667 79.9166 37.1667Z"/><path d="M73.25 36.3333 74.0833 36.3333 74.0833 37.1667 73.25 37.1667Z"/><path d="M77.3871 32.9704C77.3871 33.2005 77.2005 33.3871 76.9704 33.3871 76.7403 33.3871 76.5537 33.2005 76.5537 32.9704 76.5537 32.7403 76.7403 32.5538 76.9704 32.5538 77.2005 32.5538 77.3871 32.7403 77.3871 32.9704Z"/></g></g></g></g></svg>