<svg width="189" height="189" xmlns="http://www.w3.org/2000/svg" xmlns:xlink="http://www.w3.org/1999/xlink" overflow="hidden"><defs><clipPath id="clip0"><path d="M0 0 189 0 189 189 0 189Z" fill-rule="evenodd" clip-rule="evenodd"/></clipPath><clipPath id="clip1"><path d="M3 3 47 3 47 48 3 48Z" fill-rule="evenodd" clip-rule="evenodd"/></clipPath><clipPath id="clip2"><path d="M3 3 47 3 47 48 3 48Z" fill-rule="evenodd" clip-rule="evenodd"/></clipPath><clipPath id="clip3"><path d="M3 3 47 3 47 48 3 48Z" fill-rule="evenodd" clip-rule="evenodd"/></clipPath></defs><g clip-path="url(#clip0)"><rect x="0" y="0" width="189" height="189" fill="#313131"/><text fill="#FFFFFF" font-family="Calibri,Calibri_MSFontService,sans-serif" font-weight="300" font-size="11" transform="translate(9.60032 -5)">METRIC</text><rect x="3.50005" y="3.50005" width="1" height="1" stroke="#2F528F" stroke-width="1.33333" stroke-miterlimit="8" fill="#4472C4"/><rect x="0" y="0" width="189" height="189" stroke="#D2F53C" stroke-width="8" stroke-miterlimit="8" fill="#FFFFFF"/><g clip-path="url(#clip1)"><g clip-path="url(#clip2)"><g clip-path="url(#clip3)"><path d="M22 6.41667C11.891 6.41667 3.66667 14.641 3.66667 24.75 3.66667 25.7638 4.488 26.5833 5.5 26.5833 6.512 26.5833 7.33333 25.7638 7.33333 24.75 7.33333 16.6632 13.9132 10.0833 22 10.0833 30.0868 10.0833 36.6667 16.6632 36.6667 24.75 36.6667 25.7638 37.4862 26.5833 38.5 26.5833 39.5138 26.5833 40.3333 25.7638 40.3333 24.75 40.3333 14.641 32.109 6.41667 22 6.41667Z" transform="matrix(1 0 -0 1.02273 3 3)"/><path d="M29.722 18.2563 22.9937 26.6842C22.6692 26.6218 22.341 26.5833 22 26.5833 18.9677 26.5833 16.5 29.051 16.5 32.0833 16.5 35.1157 18.9677 37.5833 22 37.5833 25.0323 37.5833 27.5 35.1157 27.5 32.0833 27.5 30.7377 26.9958 29.5167 26.1873 28.5597L32.5838 20.5443C33.2182 19.7523 33.0862 18.5992 32.2978 17.9685 31.5077 17.3342 30.3545 17.468 29.722 18.2563ZM22 33.9167C20.988 33.9167 20.1667 33.0953 20.1667 32.0833 20.1667 31.0713 20.988 30.25 22 30.25 23.012 30.25 23.8333 31.0713 23.8333 32.0833 23.8333 33.0953 23.012 33.9167 22 33.9167Z" transform="matrix(1 0 -0 1.02273 3 3)"/></g></g></g><text font-family="Calibri,Calibri_MSFontService,sans-serif" font-weight="700" font-size="20" transform="translate(84.4615 23)">METRIC<tspan font-size="12" x="-77.9225" y="86">Metrics</tspan><tspan font-weight="400" font-size="12" x="-37.4225" y="86">can be defined to track the </tspan><tspan font-weight="400" font-size="12" x="-77.9225" y="101">realisation of </tspan><tspan font-size="12" x="-11.2558" y="101">Objectives</tspan><tspan font-weight="400" font-size="12" x="41.0775" y="101">, or the </tspan><tspan font-weight="400" font-size="12" x="-77.9225" y="115">performance of </tspan><tspan font-size="12" x="0.744202" y="115">Value stream</tspan><tspan font-weight="400" font-size="12" x="67.2442" y="115">.</tspan></text></g></svg>