<svg width="265" height="265" xmlns="http://www.w3.org/2000/svg" xmlns:xlink="http://www.w3.org/1999/xlink" overflow="hidden"><defs><clipPath id="clip0"><path d="M0 0 265 0 265 265 0 265Z" fill-rule="evenodd" clip-rule="evenodd"/></clipPath><clipPath id="clip1"><path d="M35 51 55 51 55 71 35 71Z" fill-rule="evenodd" clip-rule="evenodd"/></clipPath><clipPath id="clip2"><path d="M35 51 55 51 55 71 35 71Z" fill-rule="evenodd" clip-rule="evenodd"/></clipPath><clipPath id="clip3"><path d="M35 51 55 51 55 71 35 71Z" fill-rule="evenodd" clip-rule="evenodd"/></clipPath><clipPath id="clip4"><path d="M71 222 82 222 82 234 71 234Z" fill-rule="evenodd" clip-rule="evenodd"/></clipPath><clipPath id="clip5"><path d="M71 222 82 222 82 234 71 234Z" fill-rule="evenodd" clip-rule="evenodd"/></clipPath><clipPath id="clip6"><path d="M71 222 82 222 82 234 71 234Z" fill-rule="evenodd" clip-rule="evenodd"/></clipPath></defs><g clip-path="url(#clip0)"><rect x="0" y="0" width="265" height="265" fill="#313131"/><rect x="89.5" y="131.5" width="1.99999" height="1" stroke="#2F528F" stroke-width="1.33585" stroke-miterlimit="8" fill="#4472C4"/><path d="M23.5 9.75271C23.5 8.50859 24.5085 7.50003 25.7527 7.50003L249.247 7.50003C250.491 7.50003 251.5 8.50859 251.5 9.75271L251.5 249.247C251.5 250.491 250.491 251.5 249.247 251.5L25.7527 251.5C24.5085 251.5 23.5 250.491 23.5 249.247Z" stroke="#FF0000" stroke-width="0.667927" stroke-miterlimit="8" stroke-opacity="0" fill="none" fill-rule="evenodd"/><path d="M30.0794 43.5 149.921 43.5C153.002 43.5 155.5 45.998 155.5 49.0794L155.5 214.252C155.5 216.598 153.598 218.5 151.252 218.5L28.7483 218.5C26.402 218.5 24.5 216.598 24.5 214.252L24.5 49.0794C24.5 45.998 26.998 43.5 30.0794 43.5Z" stroke="#CEB023" stroke-width="4.67549" stroke-miterlimit="8" fill="#FFFFFF" fill-rule="evenodd"/><g clip-path="url(#clip1)"><g clip-path="url(#clip2)"><g clip-path="url(#clip3)"><path d="M44.5 58.3333 43.5215 60.4178 41.3334 60.7526 42.9167 62.3748 42.543 64.6666 44.5 63.5844 46.4578 64.6666 46.0834 62.3748 47.6667 60.7526 45.4785 60.4178Z"/><path d="M51.625 58.3333C52.0628 58.3333 52.4167 57.9786 52.4167 57.5416L52.4167 54.375C52.4167 53.938 52.0628 53.5833 51.625 53.5833L48.4584 53.5833C48.0206 53.5833 47.6667 53.938 47.6667 54.375L47.6667 55.1666 41.3334 55.1666 41.3334 54.375C41.3334 53.938 40.9787 53.5833 40.5417 53.5833L37.375 53.5833C36.938 53.5833 36.5833 53.938 36.5833 54.375L36.5833 57.5416C36.5833 57.9786 36.938 58.3333 37.375 58.3333L38.1667 58.3333 38.1667 64.6666 37.375 64.6666C36.938 64.6666 36.5833 65.0205 36.5833 65.4583L36.5833 68.625C36.5833 69.0628 36.938 69.4167 37.375 69.4167L40.5417 69.4167C40.9787 69.4167 41.3334 69.0628 41.3334 68.625L41.3334 67.8333 47.6667 67.8333 47.6667 68.625C47.6667 69.0628 48.0206 69.4167 48.4584 69.4167L51.625 69.4167C52.0628 69.4167 52.4167 69.0628 52.4167 68.625L52.4167 65.4583C52.4167 65.0205 52.0628 64.6666 51.625 64.6666L50.8334 64.6666 50.8334 58.3333 51.625 58.3333ZM49.25 55.1666 50.8334 55.1666 50.8334 56.75 49.25 56.75 49.25 55.1666ZM38.1667 55.1666 39.75 55.1666 39.75 56.75 38.1667 56.75 38.1667 55.1666ZM39.75 67.8333 38.1667 67.8333 38.1667 66.25 39.75 66.25 39.75 67.8333ZM50.8334 67.8333 49.25 67.8333 49.25 66.25 50.8334 66.25 50.8334 67.8333ZM49.25 64.6666 48.4584 64.6666C48.0206 64.6666 47.6667 65.0205 47.6667 65.4583L47.6667 66.25 41.3334 66.25 41.3334 65.4583C41.3334 65.0205 40.9787 64.6666 40.5417 64.6666L39.75 64.6666 39.75 58.3333 40.5417 58.3333C40.9787 58.3333 41.3334 57.9786 41.3334 57.5416L41.3334 56.75 47.6667 56.75 47.6667 57.5416C47.6667 57.9786 48.0206 58.3333 48.4584 58.3333L49.25 58.3333 49.25 64.6666Z"/></g></g></g><path d="M26.9702 6.36947C18.5628 6.36947 11.7473 10.3112 11.7473 15.1736L11.7473 248.948C11.7473 253.81 18.5628 257.752 26.9702 257.752L238.08 257.752C246.487 257.752 253.302 253.81 253.302 248.948L253.302 15.1736C253.302 10.3112 246.487 6.36947 238.08 6.36947ZM0 0 265 0 265 265 0 265Z" fill="#CEB023" fill-rule="evenodd"/><text font-family="Calibri,Calibri_MSFontService,sans-serif" font-weight="700" font-size="11" transform="translate(69.5376 63)">SKILL FAMILY<tspan font-weight="400" font-size="9" x="-38.2473" y="79">A logical grouping of related </tspan><tspan font-weight="400" font-size="9" x="-38.2473" y="90">skills.</tspan></text><path d="M84 222 89.5 218 95 222Z" fill="#FFFFFF" fill-rule="evenodd"/><path d="M71.5001 226.5C71.5001 225.948 71.9478 225.5 72.5001 225.5L94.5 225.5C95.0523 225.5 95.5 225.948 95.5 226.5L95.5 230.5C95.5 231.052 95.0523 231.5 94.5 231.5L72.5001 231.5C71.9478 231.5 71.5001 231.052 71.5001 230.5Z" stroke="#CEB023" stroke-width="1.33585" stroke-miterlimit="8" fill="#FFFFFF" fill-rule="evenodd"/><text font-family="Calibri,Calibri_MSFontService,sans-serif" font-weight="700" font-size="5" transform="translate(83.0711 229)">SKILL</text><g clip-path="url(#clip4)"><g clip-path="url(#clip5)"><g clip-path="url(#clip6)"><path d="M4.58332 4.16665C3.43457 4.16665 2.49999 3.23207 2.49999 2.08333 2.49999 0.934581 3.43457 0 4.58332 0 5.73207 0 6.66665 0.934581 6.66665 2.08333 6.66665 3.23207 5.73207 4.16665 4.58332 4.16665ZM4.58332 0.833331C3.89416 0.833331 3.33332 1.39416 3.33332 2.08333 3.33332 2.77249 3.89416 3.33332 4.58332 3.33332 5.27248 3.33332 5.83332 2.77249 5.83332 2.08333 5.83332 1.39416 5.27248 0.833331 4.58332 0.833331Z" transform="matrix(1 0 -0 1.00001 72.4167 223.417)"/><path d="M7.49998 9.58331C7.26956 9.58331 7.08331 9.39706 7.08331 9.16664L7.08331 7.29165C7.08331 6.48748 6.4279 5.83332 5.62207 5.83332L3.54457 5.83332C2.73874 5.83332 2.08333 6.48748 2.08333 7.29165L2.08333 9.16664C2.08333 9.39706 1.89666 9.58331 1.66666 9.58331 1.43666 9.58331 1.25 9.39706 1.25 9.16664L1.25 7.29165C1.25 6.02832 2.27916 4.99999 3.54457 4.99999L5.62207 4.99999C6.88706 4.99999 7.91664 6.02832 7.91664 7.29165L7.91664 9.16664C7.91664 9.39706 7.73039 9.58331 7.49998 9.58331Z" transform="matrix(1 0 -0 1.00001 72.4167 223.417)"/><path d="M4.58332 9.01372 3.55291 9.58331 3.74999 8.37706 2.91666 7.52373 4.06832 7.34706 4.58332 6.24998 5.09832 7.34706 6.24998 7.52373 5.41665 8.37706 5.61373 9.58331Z" transform="matrix(1 0 -0 1.00001 72.4167 223.417)"/></g></g></g></g></svg>