<svg width="189" height="189" xmlns="http://www.w3.org/2000/svg" xmlns:xlink="http://www.w3.org/1999/xlink" overflow="hidden"><defs><clipPath id="clip0"><path d="M0 0 189 0 189 189 0 189Z" fill-rule="evenodd" clip-rule="evenodd"/></clipPath><clipPath id="clip1"><path d="M3 3 47 3 47 48 3 48Z" fill-rule="evenodd" clip-rule="evenodd"/></clipPath><clipPath id="clip2"><path d="M3 3 47 3 47 48 3 48Z" fill-rule="evenodd" clip-rule="evenodd"/></clipPath><clipPath id="clip3"><path d="M3 3 47 3 47 48 3 48Z" fill-rule="evenodd" clip-rule="evenodd"/></clipPath></defs><g clip-path="url(#clip0)"><rect x="0" y="0" width="189" height="189" fill="#313131"/><text fill="#FFFFFF" font-family="Calibri,Calibri_MSFontService,sans-serif" font-weight="300" font-size="11" transform="translate(9.60032 0)">PROPOSITION</text><rect x="3.50005" y="3.50005" width="1" height="1" stroke="#2F528F" stroke-width="1.33333" stroke-miterlimit="8" fill="#4472C4"/><rect x="0" y="0" width="189" height="189" stroke="#F032E6" stroke-width="8" stroke-miterlimit="8" fill="#FFFFFF"/><g clip-path="url(#clip1)"><g clip-path="url(#clip2)"><g clip-path="url(#clip3)"><path d="M38.5 18.3333 5.5 18.3333C4.488 18.3333 3.66667 19.1547 3.66667 20.1667L3.66667 27.5C3.66667 28.5138 4.488 29.3333 5.5 29.3333L7.33333 29.3333 7.33333 40.3333C7.33333 41.3472 8.15467 42.1667 9.16667 42.1667L34.8333 42.1667C35.8472 42.1667 36.6667 41.3472 36.6667 40.3333L36.6667 29.3333 38.5 29.3333C39.5138 29.3333 40.3333 28.5138 40.3333 27.5L40.3333 20.1667C40.3333 19.1547 39.5138 18.3333 38.5 18.3333ZM33 38.5 11 38.5 11 29.3333 33 29.3333 33 38.5ZM36.6667 25.6667 34.8333 25.6667 9.16667 25.6667 7.33333 25.6667 7.33333 22 36.6667 22 36.6667 25.6667Z" transform="matrix(1 0 -0 1.02273 3 3)"/><path d="M20.6452 15.9372C21.0173 16.3112 21.5087 16.5 22 16.5 22.4895 16.5 22.979 16.3112 23.353 15.9372L28.7705 10.5123C29.5185 9.76067 29.5185 8.54883 28.7705 7.799L23.353 2.37233C22.6343 1.65183 21.3638 1.65183 20.6452 2.37233L15.2277 7.799C14.4778 8.54883 14.4778 9.76067 15.2277 10.5123L20.6452 15.9372ZM22 6.44417 24.7097 9.15567 22 11.869 19.2903 9.15567 22 6.44417Z" transform="matrix(1 0 -0 1.02273 3 3)"/></g></g></g><text font-family="Calibri,Calibri_MSFontService,sans-serif" font-weight="700" font-size="20" transform="translate(89.8215 23)">VALUE <tspan x="-31.18" y="24">PROPOSITION</tspan><tspan font-weight="400" font-size="12" x="-83.2825" y="71">A commitment, or promise, to </tspan><tspan font-weight="400" font-size="12" x="-83.2825" y="86">deliver stated benefits to </tspan><tspan font-weight="400" font-size="12" x="-83.2825" y="100">customers, where the benefits are </tspan><tspan font-weight="400" font-size="12" x="-83.2825" y="114">derived from provided goods </tspan><tspan font-weight="400" font-size="12" x="-83.2825" y="129">and/or services.</tspan></text></g></svg>