<svg width="189" height="189" xmlns="http://www.w3.org/2000/svg" xmlns:xlink="http://www.w3.org/1999/xlink" overflow="hidden"><defs><clipPath id="clip0"><path d="M0 0 189 0 189 189 0 189Z" fill-rule="evenodd" clip-rule="evenodd"/></clipPath><clipPath id="clip1"><path d="M3 3 47 3 47 48 3 48Z" fill-rule="evenodd" clip-rule="evenodd"/></clipPath><clipPath id="clip2"><path d="M3 3 47 3 47 48 3 48Z" fill-rule="evenodd" clip-rule="evenodd"/></clipPath><clipPath id="clip3"><path d="M3 3 47 3 47 48 3 48Z" fill-rule="evenodd" clip-rule="evenodd"/></clipPath></defs><g clip-path="url(#clip0)"><rect x="0" y="0" width="189" height="189" fill="#313131"/><text fill="#FFFFFF" font-family="Calibri,Calibri_MSFontService,sans-serif" font-weight="300" font-size="11" transform="translate(9.60032 -5)">PRICE</text><rect x="3.50005" y="3.50005" width="1" height="1" stroke="#2F528F" stroke-width="1.33333" stroke-miterlimit="8" fill="#4472C4"/><rect x="0" y="0" width="189" height="189" stroke="#911EB4" stroke-width="8" stroke-miterlimit="8" fill="#FFFFFF"/><g clip-path="url(#clip1)"><g clip-path="url(#clip2)"><g clip-path="url(#clip3)"><path d="M30.5727 23.4172C28.9557 22.2713 26.5742 21.3528 23.43 20.6562 21.241 20.1043 19.6973 19.5837 18.8063 19.0887 17.9098 18.5973 17.4625 17.9648 17.4625 17.1948 17.4625 16.3533 17.8805 15.6622 18.7147 15.1213 19.5488 14.5805 20.7313 14.311 22.2585 14.311 23.8498 14.311 25.0855 14.6355 25.9655 15.2845 26.8455 15.9335 27.2873 16.7842 27.2873 17.8347L32.8258 17.8347 32.8643 17.7412C32.9285 15.796 31.9788 14.1625 30.0062 12.837 28.3635 11.7315 26.2863 11.1137 23.8333 10.9322L23.8333 5.5C23.8333 4.488 23.0138 3.66667 22 3.66667 20.9862 3.66667 20.1667 4.488 20.1667 5.5L20.1667 10.9597C18.0418 11.1797 16.2305 11.7315 14.7308 12.6207 12.7398 13.7995 11.7462 15.3193 11.7462 17.1802 11.7462 19.041 12.6152 20.5058 14.3477 21.5765 16.0838 22.6472 18.6487 23.5712 22.0385 24.3522 23.9837 24.8197 25.344 25.3183 26.1213 25.8482 26.8987 26.378 27.2855 27.0802 27.2855 27.951 27.2855 28.8035 26.873 29.4837 26.0535 29.9897 25.2303 30.5012 24.0423 30.756 22.4913 30.756 20.6378 30.756 19.1932 30.4407 18.1573 29.81 17.1215 29.1812 16.6008 28.1912 16.6008 26.8418L11.0422 26.8418 11.0037 26.9353C10.9377 29.2307 12.0597 31.02 14.3697 32.2923 16.0838 33.2383 18.0162 33.8287 20.1667 34.0743L20.1667 38.5C20.1667 39.5138 20.9862 40.3333 22 40.3333 23.0138 40.3333 23.8333 39.5138 23.8333 38.5L23.8333 34.144C26.3652 34.001 28.4753 33.4785 30.1143 32.5233 32.0375 31.3995 33 29.8668 33 27.9217 33 26.0627 32.1915 24.5593 30.5727 23.4172Z" transform="matrix(1 0 -0 1.02273 3 3)"/></g></g></g><text font-family="Calibri,Calibri_MSFontService,sans-serif" font-weight="700" font-size="20" transform="translate(92.7948 23)">PRICE<tspan font-weight="400" font-size="12" x="-86.2558" y="71">The amount of money paid by </tspan><tspan font-weight="400" font-size="12" x="-86.2558" y="86">customers to purchase the product. </tspan><tspan font-weight="400" font-size="12" x="-86.2558" y="100">Can include list </tspan><tspan font-size="12" x="-9.92247" y="100">Price</tspan><tspan font-weight="400" font-size="12" x="14.7442" y="100">, discounts, </tspan><tspan font-weight="400" font-size="12" x="-86.2558" y="114">allowance, payment period, credit </tspan><tspan font-weight="400" font-size="12" x="-86.2558" y="129">terms.</tspan></text></g></svg>