<svg width="265" height="265" xmlns="http://www.w3.org/2000/svg" xmlns:xlink="http://www.w3.org/1999/xlink" overflow="hidden"><defs><clipPath id="clip0"><path d="M0 0 265 0 265 265 0 265Z" fill-rule="evenodd" clip-rule="evenodd"/></clipPath><clipPath id="clip1"><path d="M35 51 55 51 55 71 35 71Z" fill-rule="evenodd" clip-rule="evenodd"/></clipPath><clipPath id="clip2"><path d="M35 51 55 51 55 71 35 71Z" fill-rule="evenodd" clip-rule="evenodd"/></clipPath><clipPath id="clip3"><path d="M35 51 55 51 55 71 35 71Z" fill-rule="evenodd" clip-rule="evenodd"/></clipPath><clipPath id="clip4"><path d="M217 126 227 126 227 136 217 136Z" fill-rule="evenodd" clip-rule="evenodd"/></clipPath><clipPath id="clip5"><path d="M217 126 227 126 227 136 217 136Z" fill-rule="evenodd" clip-rule="evenodd"/></clipPath><clipPath id="clip6"><path d="M217 126 227 126 227 136 217 136Z" fill-rule="evenodd" clip-rule="evenodd"/></clipPath><clipPath id="clip7"><path d="M71 224 82 224 82 236 71 236Z" fill-rule="evenodd" clip-rule="evenodd"/></clipPath><clipPath id="clip8"><path d="M71 224 82 224 82 236 71 236Z" fill-rule="evenodd" clip-rule="evenodd"/></clipPath><clipPath id="clip9"><path d="M71 224 82 224 82 236 71 236Z" fill-rule="evenodd" clip-rule="evenodd"/></clipPath></defs><g clip-path="url(#clip0)"><rect x="0" y="0" width="265" height="265" fill="#313131"/><rect x="89.5" y="131.5" width="1.99999" height="1" stroke="#2F528F" stroke-width="1.33585" stroke-miterlimit="8" fill="#4472C4"/><path d="M23.5 9.75271C23.5 8.50859 24.5085 7.50003 25.7527 7.50003L249.247 7.50003C250.491 7.50003 251.5 8.50859 251.5 9.75271L251.5 249.247C251.5 250.491 250.491 251.5 249.247 251.5L25.7527 251.5C24.5085 251.5 23.5 250.491 23.5 249.247Z" stroke="#FF0000" stroke-width="0.667927" stroke-miterlimit="8" stroke-opacity="0" fill="none" fill-rule="evenodd"/><path d="M30.0794 43.5 149.921 43.5C153.002 43.5 155.5 45.998 155.5 49.0794L155.5 214.252C155.5 216.598 153.598 218.5 151.252 218.5L28.7483 218.5C26.402 218.5 24.5 216.598 24.5 214.252L24.5 49.0794C24.5 45.998 26.998 43.5 30.0794 43.5Z" stroke="#F032E6" stroke-width="4.67549" stroke-miterlimit="8" fill="#FFFFFF" fill-rule="evenodd"/><g clip-path="url(#clip1)"><g clip-path="url(#clip2)"><g clip-path="url(#clip3)"><path d="M44.5 58.7291C46.2464 58.7291 47.6667 57.3089 47.6667 55.5625 47.6667 53.816 46.2464 52.3958 44.5 52.3958 42.7536 52.3958 41.3334 53.816 41.3334 55.5625 41.3334 57.3089 42.7536 58.7291 44.5 58.7291ZM44.5 53.9791C45.3732 53.9791 46.0834 54.6892 46.0834 55.5625 46.0834 56.4357 45.3732 57.1458 44.5 57.1458 43.6268 57.1458 42.9167 56.4357 42.9167 55.5625 42.9167 54.6892 43.6268 53.9791 44.5 53.9791Z"/><path d="M50.8334 65.8542C49.8026 65.8542 48.9326 66.5184 48.6048 67.4375L46.7294 67.4375C46.4016 66.5184 45.5308 65.8542 44.5008 65.8542 43.4709 65.8542 42.6 66.5184 42.2715 67.4375L40.396 67.4375C40.0675 66.5184 39.1974 65.8542 38.1667 65.8542 36.8573 65.8542 35.7917 66.9197 35.7917 68.2292 35.7917 69.5386 36.8573 70.6042 38.1667 70.6042 39.1974 70.6042 40.0675 69.94 40.396 69.0208L42.2715 69.0208C42.5992 69.94 43.4701 70.6042 44.5 70.6042 45.53 70.6042 46.4008 69.94 46.7286 69.0208L48.604 69.0208C48.9318 69.94 49.8026 70.6042 50.8326 70.6042 52.142 70.6042 53.2076 69.5386 53.2076 68.2292 53.2076 66.9197 52.1428 65.8542 50.8334 65.8542ZM38.1667 69.0208C37.7305 69.0208 37.375 68.6662 37.375 68.2292 37.375 67.7922 37.7305 67.4375 38.1667 67.4375 38.6029 67.4375 38.9583 67.7922 38.9583 68.2292 38.9583 68.6662 38.6029 69.0208 38.1667 69.0208ZM44.5 69.0208C44.0638 69.0208 43.7084 68.6662 43.7084 68.2292 43.7084 67.7922 44.0638 67.4375 44.5 67.4375 44.937 67.4375 45.2917 67.7922 45.2917 68.2292 45.2917 68.6662 44.937 69.0208 44.5 69.0208ZM50.8334 69.0208C50.3964 69.0208 50.0417 68.6662 50.0417 68.2292 50.0417 67.7922 50.3964 67.4375 50.8334 67.4375 51.2704 67.4375 51.625 67.7922 51.625 68.2292 51.625 68.6662 51.2704 69.0208 50.8334 69.0208Z"/><path d="M40.5417 65.8542C40.9787 65.8542 41.3334 65.5003 41.3334 65.0625L41.3334 62.6875C41.3334 61.8143 42.0435 61.1041 42.9167 61.1041L46.0834 61.1041C46.9566 61.1041 47.6667 61.8143 47.6667 62.6875L47.6667 65.0625C47.6667 65.5003 48.0206 65.8542 48.4584 65.8542 48.8962 65.8542 49.25 65.5003 49.25 65.0625L49.25 62.6875C49.25 60.9411 47.8298 59.5208 46.0834 59.5208L42.9167 59.5208C41.1703 59.5208 39.75 60.9411 39.75 62.6875L39.75 65.0625C39.75 65.5003 40.1047 65.8542 40.5417 65.8542Z"/></g></g></g><path d="M26.9702 6.36947C18.5628 6.36947 11.7473 10.3112 11.7473 15.1736L11.7473 248.948C11.7473 253.81 18.5628 257.752 26.9702 257.752L238.08 257.752C246.487 257.752 253.302 253.81 253.302 248.948L253.302 15.1736C253.302 10.3112 246.487 6.36947 238.08 6.36947ZM0 0 265 0 265 265 0 265Z" fill="#F032E6" fill-rule="evenodd"/><text font-family="Calibri,Calibri_MSFontService,sans-serif" font-weight="700" font-size="11" transform="translate(65.3631 63)">USER JOURNEY<tspan font-weight="400" font-size="9" x="-34.0727" y="62">The </tspan><tspan font-size="9" x="-17.8755" y="62">User Journey</tspan><tspan font-weight="400" font-size="9" x="35.0577" y="62">is the </tspan><tspan font-weight="400" font-size="9" x="-34.0727" y="73">complete sum of experiences </tspan><tspan font-weight="400" font-size="9" x="-34.0727" y="84">that customers go through </tspan><tspan font-weight="400" font-size="9" x="-34.0727" y="95">when interacting with an </tspan><tspan font-weight="400" font-size="9" x="-34.0727" y="107">organization.</tspan></text><path d="M217.5 126.667C217.5 125.47 218.47 124.5 219.667 124.5L246.333 124.5C247.53 124.5 248.5 125.47 248.5 126.667L248.5 135.333C248.5 136.53 247.53 137.5 246.333 137.5L219.667 137.5C218.47 137.5 217.5 136.53 217.5 135.333Z" stroke="#F032E6" stroke-width="1.33585" stroke-miterlimit="8" fill="#FFFFFF" fill-rule="evenodd"/><text font-family="Calibri,Calibri_MSFontService,sans-serif" font-weight="700" font-size="5" transform="translate(228.966 129)">VALUE<tspan x="0" y="6">STREAM</tspan></text><g clip-path="url(#clip4)"><g clip-path="url(#clip5)"><g clip-path="url(#clip6)"><path d="M225.132 134.625 219.125 134.625C218.981 134.625 218.85 134.542 218.787 134.412 218.725 134.282 218.742 134.128 218.832 134.016L219.394 133.312 218.832 132.609C218.742 132.496 218.724 132.342 218.787 132.212 218.85 132.082 218.981 132 219.125 132L225.132 132C225.247 132 225.355 132.053 225.425 132.142L226.169 133.079C226.277 133.215 226.277 133.409 226.169 133.545L225.425 134.483C225.354 134.572 225.246 134.625 225.132 134.625ZM219.905 133.875 224.951 133.875 225.397 133.312 224.951 132.75 219.905 132.75 220.167 133.078C220.277 133.215 220.277 133.409 220.167 133.546L219.905 133.875Z"/><path d="M222.5 131.25 222.5 131.25C222.4 131.25 222.305 131.211 222.235 131.14L220.36 129.263C220.214 129.116 220.214 128.879 220.36 128.732L222.235 126.855C222.375 126.715 222.624 126.714 222.765 126.855L224.64 128.732C224.711 128.803 224.75 128.898 224.75 128.997 224.75 129.097 224.711 129.193 224.64 129.263L222.765 131.14C222.695 131.211 222.6 131.25 222.5 131.25ZM221.156 128.997 222.5 130.343 223.845 128.997 222.5 127.652 221.156 128.997Z"/></g></g></g><path d="M166.492 124 206.508 124C211.75 124 216 126.91 216 130.5 216 134.09 211.75 137 206.508 137L166.492 137C161.25 137 157 134.09 157 130.5 157 126.91 161.25 124 166.492 124Z" fill="#313131" fill-rule="evenodd"/><text fill="#FFFFFF" font-family="Calibri,Calibri_MSFontService,sans-serif" font-weight="700" font-size="5" transform="translate(167.489 132)">&lt;Experienced As|</text><path d="M84 222 89.5 218 95 222Z" fill="#FFFFFF" fill-rule="evenodd"/><path d="M71.5001 225.667C71.5001 224.47 72.4701 223.5 73.6668 223.5L113.333 223.5C114.53 223.5 115.5 224.47 115.5 225.667L115.5 234.333C115.5 235.53 114.53 236.5 113.333 236.5L73.6668 236.5C72.4701 236.5 71.5001 235.53 71.5001 234.333Z" stroke="#F032E6" stroke-width="1.33585" stroke-miterlimit="8" fill="#FFFFFF" fill-rule="evenodd"/><text font-family="Calibri,Calibri_MSFontService,sans-serif" font-weight="700" font-size="5" transform="translate(83.3771 228)">USER JOURNEY<tspan x="0" y="6">STAGE</tspan></text><g clip-path="url(#clip7)"><g clip-path="url(#clip8)"><g clip-path="url(#clip9)"><path d="M4.78264 3.47829C5.74178 3.47829 6.52179 2.69828 6.52179 1.73914 6.52179 0.780006 5.74178 0 4.78264 0 3.82351 0 3.0435 0.780006 3.0435 1.73914 3.0435 2.69828 3.82351 3.47829 4.78264 3.47829ZM4.78264 0.869572C5.26221 0.869572 5.65222 1.25957 5.65222 1.73914 5.65222 2.21871 5.26221 2.60872 4.78264 2.60872 4.30308 2.60872 3.91307 2.21871 3.91307 1.73914 3.91307 1.25957 4.30308 0.869572 4.78264 0.869572Z" transform="matrix(1.04544 0 -0 1 72 225)"/><path d="M2.60872 7.39136C2.84872 7.39136 3.0435 7.19701 3.0435 6.95657L3.0435 5.65222C3.0435 5.17265 3.4335 4.78264 3.91307 4.78264L5.65222 4.78264C6.13179 4.78264 6.52179 5.17265 6.52179 5.65222L6.52179 6.95657C6.52179 7.19701 6.71614 7.39136 6.95657 7.39136 7.19701 7.39136 7.39136 7.19701 7.39136 6.95657L7.39136 5.65222C7.39136 4.69308 6.61135 3.91307 5.65222 3.91307L3.91307 3.91307C2.95394 3.91307 2.17393 4.69308 2.17393 5.65222L2.17393 6.95657C2.17393 7.19701 2.36871 7.39136 2.60872 7.39136Z" transform="matrix(1.04544 0 -0 1 72 225)"/><path d="M8.26093 7.39136C7.69484 7.39136 7.21701 7.75615 7.03701 8.26093L6.007 8.26093C5.827 7.75615 5.34874 7.39136 4.78308 7.39136 4.21742 7.39136 3.73916 7.75615 3.55872 8.26093L2.52871 8.26093C2.34828 7.75615 1.87045 7.39136 1.30436 7.39136 0.585222 7.39136 0 7.97658 0 8.69572 0 9.41485 0.585222 10.0001 1.30436 10.0001 1.87045 10.0001 2.34828 9.63529 2.52871 9.1305L3.55872 9.1305C3.73872 9.63529 4.21699 10.0001 4.78264 10.0001 5.3483 10.0001 5.82657 9.63529 6.00657 9.1305L7.03657 9.1305C7.21658 9.63529 7.69484 10.0001 8.2605 10.0001 8.97963 10.0001 9.56486 9.41485 9.56486 8.69572 9.56486 7.97658 8.98007 7.39136 8.26093 7.39136ZM1.30436 9.1305C1.06479 9.1305 0.869572 8.93572 0.869572 8.69572 0.869572 8.45572 1.06479 8.26093 1.30436 8.26093 1.54392 8.26093 1.73914 8.45572 1.73914 8.69572 1.73914 8.93572 1.54392 9.1305 1.30436 9.1305ZM8.26093 9.1305C8.02093 9.1305 7.82615 8.93572 7.82615 8.69572 7.82615 8.45572 8.02093 8.26093 8.26093 8.26093 8.50093 8.26093 8.69572 8.45572 8.69572 8.69572 8.69572 8.93572 8.50093 9.1305 8.26093 9.1305Z" transform="matrix(1.04544 0 -0 1 72 225)"/></g></g></g></g></svg>