<svg width="189" height="189" xmlns="http://www.w3.org/2000/svg" xmlns:xlink="http://www.w3.org/1999/xlink" overflow="hidden"><defs><clipPath id="clip0"><path d="M0 0 189 0 189 189 0 189Z" fill-rule="evenodd" clip-rule="evenodd"/></clipPath><clipPath id="clip1"><path d="M3 3 47 3 47 48 3 48Z" fill-rule="evenodd" clip-rule="evenodd"/></clipPath><clipPath id="clip2"><path d="M3 3 47 3 47 48 3 48Z" fill-rule="evenodd" clip-rule="evenodd"/></clipPath><clipPath id="clip3"><path d="M3 3 47 3 47 48 3 48Z" fill-rule="evenodd" clip-rule="evenodd"/></clipPath></defs><g clip-path="url(#clip0)"><rect x="0" y="0" width="189" height="189" fill="#313131"/><text fill="#FFFFFF" font-family="Calibri,Calibri_MSFontService,sans-serif" font-weight="300" font-size="11" transform="translate(9.60032 -5)">PROCESS GROUP</text><rect x="3.50005" y="3.50005" width="1" height="1" stroke="#2F528F" stroke-width="1.33333" stroke-miterlimit="8" fill="#4472C4"/><rect x="0" y="0" width="189" height="189" stroke="#377692" stroke-width="8" stroke-miterlimit="8" fill="#FFFFFF"/><g clip-path="url(#clip1)"><g clip-path="url(#clip2)"><g clip-path="url(#clip3)"><path d="M9.16667 11C6.05 11 3.66667 8.61667 3.66667 5.5 3.66667 2.38333 6.05 0 9.16667 0 12.2833 0 14.6667 2.38333 14.6667 5.5 14.6667 8.61667 12.2833 11 9.16667 11ZM9.16667 3.66667C8.06667 3.66667 7.33333 4.4 7.33333 5.5 7.33333 6.6 8.06667 7.33333 9.16667 7.33333 10.2667 7.33333 11 6.6 11 5.5 11 4.4 10.2667 3.66667 9.16667 3.66667Z" transform="matrix(1 0 -0 1.02273 4.83333 4.875)"/><path d="M16.5 23.8333C15.4 23.8333 14.6667 23.1 14.6667 22L14.6667 18.3333C14.6667 17.2333 13.9333 16.5 12.8333 16.5L5.5 16.5C4.4 16.5 3.66667 17.2333 3.66667 18.3333L3.66667 22C3.66667 23.1 2.93333 23.8333 1.83333 23.8333 0.733333 23.8333 0 23.1 0 22L0 18.3333C0 15.2167 2.38333 12.8333 5.5 12.8333L12.8333 12.8333C15.95 12.8333 18.3333 15.2167 18.3333 18.3333L18.3333 22C18.3333 23.1 17.6 23.8333 16.5 23.8333Z" transform="matrix(1 0 -0 1.02273 4.83333 4.875)"/><path d="M31.1667 11C28.05 11 25.6667 8.61667 25.6667 5.5 25.6667 2.38333 28.05 0 31.1667 0 34.2833 0 36.6667 2.38333 36.6667 5.5 36.6667 8.61667 34.2833 11 31.1667 11ZM31.1667 3.66667C30.0667 3.66667 29.3333 4.4 29.3333 5.5 29.3333 6.6 30.0667 7.33333 31.1667 7.33333 32.2667 7.33333 33 6.6 33 5.5 33 4.4 32.2667 3.66667 31.1667 3.66667Z" transform="matrix(1 0 -0 1.02273 4.83333 4.875)"/><path d="M38.5 23.8333C37.4 23.8333 36.6667 23.1 36.6667 22L36.6667 18.3333C36.6667 17.2333 35.9333 16.5 34.8333 16.5L27.5 16.5C26.4 16.5 25.6667 17.2333 25.6667 18.3333L25.6667 22C25.6667 23.1 24.9333 23.8333 23.8333 23.8333 22.7333 23.8333 22 23.1 22 22L22 18.3333C22 15.2167 24.3833 12.8333 27.5 12.8333L34.8333 12.8333C37.95 12.8333 40.3333 15.2167 40.3333 18.3333L40.3333 22C40.3333 23.1 39.6 23.8333 38.5 23.8333Z" transform="matrix(1 0 -0 1.02273 4.83333 4.875)"/><path d="M7.33333 38.5 1.83333 38.5C0.733333 38.5 0 37.7667 0 36.6667L0 31.1667C0 30.0667 0.733333 29.3333 1.83333 29.3333 2.93333 29.3333 3.66667 30.0667 3.66667 31.1667L3.66667 34.8333 7.33333 34.8333C8.43333 34.8333 9.16667 35.5667 9.16667 36.6667 9.16667 37.7667 8.43333 38.5 7.33333 38.5Z" transform="matrix(1 0 -0 1.02273 4.83333 4.875)"/><path d="M38.5 38.5 33 38.5C31.9 38.5 31.1667 37.7667 31.1667 36.6667 31.1667 35.5667 31.9 34.8333 33 34.8333L36.6667 34.8333 36.6667 31.1667C36.6667 30.0667 37.4 29.3333 38.5 29.3333 39.6 29.3333 40.3333 30.0667 40.3333 31.1667L40.3333 36.6667C40.3333 37.7667 39.6 38.5 38.5 38.5Z" transform="matrix(1 0 -0 1.02273 4.83333 4.875)"/><path d="M25.6667 42.1667 14.6667 42.1667C13.5667 42.1667 12.8333 41.4333 12.8333 40.3333L12.8333 33C12.8333 31.9 13.5667 31.1667 14.6667 31.1667L25.6667 31.1667C26.7667 31.1667 27.5 31.9 27.5 33L27.5 40.3333C27.5 41.4333 26.7667 42.1667 25.6667 42.1667ZM16.5 38.5 23.8333 38.5 23.8333 34.8333 16.5 34.8333 16.5 38.5Z" transform="matrix(1 0 -0 1.02273 4.83333 4.875)"/></g></g></g><text font-family="Calibri,Calibri_MSFontService,sans-serif" font-weight="700" font-size="20" transform="translate(79.4048 23)">PROCESS <tspan x="6.82" y="24">GROUP</tspan><tspan font-weight="400" font-size="12" x="-72.8658" y="93">A taxonomical categorisation of </tspan><tspan font-weight="400" font-size="12" x="-72.8658" y="108">similar </tspan><tspan font-size="12" x="-37.5324" y="108">Process</tspan><tspan font-weight="400" font-size="12" x="2.96756" y="108">types.</tspan></text></g></svg>