<svg width="189" height="189" xmlns="http://www.w3.org/2000/svg" xmlns:xlink="http://www.w3.org/1999/xlink" overflow="hidden"><defs><clipPath id="clip0"><path d="M0 0 189 0 189 189 0 189Z" fill-rule="evenodd" clip-rule="evenodd"/></clipPath><clipPath id="clip1"><path d="M3 3 47 3 47 48 3 48Z" fill-rule="evenodd" clip-rule="evenodd"/></clipPath><clipPath id="clip2"><path d="M3 3 47 3 47 48 3 48Z" fill-rule="evenodd" clip-rule="evenodd"/></clipPath><clipPath id="clip3"><path d="M3 3 47 3 47 48 3 48Z" fill-rule="evenodd" clip-rule="evenodd"/></clipPath></defs><g clip-path="url(#clip0)"><rect x="0" y="0" width="189" height="189" fill="#313131"/><text fill="#FFFFFF" font-family="Calibri,Calibri_MSFontService,sans-serif" font-weight="300" font-size="11" transform="translate(9.60032 -5)">RELEASE</text><rect x="3.50005" y="3.50005" width="1" height="1" stroke="#2F528F" stroke-width="1.33333" stroke-miterlimit="8" fill="#4472C4"/><rect x="0" y="0" width="189" height="189" stroke="#46F0F0" stroke-width="8" stroke-miterlimit="8" fill="#FFFFFF"/><g clip-path="url(#clip1)"><g clip-path="url(#clip2)"><g clip-path="url(#clip3)"><path d="M10.4702 26.1782C9.75333 25.4613 8.59283 25.4613 7.876 26.1782 7.15917 26.8932 7.15917 28.0518 7.876 28.7705L15.2203 36.1203C15.5778 36.476 16.049 36.6575 16.5183 36.6575 16.9877 36.6575 17.457 36.476 17.8145 36.1203 18.5313 35.4053 18.5313 34.2467 17.8145 33.528L10.4702 26.1782Z" transform="matrix(1 0 -0 1.02273 3 3)"/><path d="M6.798 33.528C6.08117 32.8093 4.92067 32.8093 4.20383 33.528 3.487 34.243 3.487 35.4017 4.20383 36.1203L7.876 39.7962C8.2335 40.1537 8.70467 40.3333 9.17217 40.3333 9.63967 40.3333 10.1108 40.1537 10.4683 39.7962 11.1852 39.0793 11.1852 37.9207 10.4683 37.2038L6.798 33.528Z" transform="matrix(1 0 -0 1.02273 3 3)"/><path d="M39.7962 4.20383C39.402 3.80967 38.8428 3.61533 38.3002 3.67767L26.6127 4.97567C26.1965 5.0215 25.8097 5.20667 25.5163 5.50183L20.713 10.3088 8.27567 12.7967C7.612 12.9323 7.07667 13.4163 6.8805 14.0635 6.68433 14.7107 6.86033 15.4128 7.33883 15.8913L12.3603 20.9165C12.4117 20.9843 12.4373 21.0632 12.4978 21.1237L22.8873 31.5168C22.9497 31.5773 23.0322 31.6085 23.1 31.6598L28.116 36.6777C28.4625 37.026 28.9318 37.2148 29.4122 37.2148 29.5918 37.2148 29.766 37.1892 29.9438 37.136 30.591 36.9417 31.0768 36.4045 31.2088 35.7408L33.693 23.2925 38.4945 18.4873C38.7897 18.1922 38.9748 17.8072 39.0207 17.3928L40.3187 5.698C40.3828 5.15167 40.1903 4.598 39.7962 4.20383ZM16.0417 14.982 13.8288 17.1985 12.3512 15.7227 16.0417 14.982ZM28.2883 31.6635 26.8088 30.184 29.0235 27.9693 28.2883 31.6635ZM35.4512 16.3533 30.7138 21.0943C30.712 21.0943 30.712 21.0943 30.712 21.0943L24.1817 27.6283 16.3882 19.8275 22.9167 13.2935C22.9203 13.2917 22.9203 13.288 22.924 13.2843L27.654 8.54883 36.4247 7.5735 35.4512 16.3533Z" transform="matrix(1 0 -0 1.02273 3 3)"/><path d="M33.9625 13.6877C33.9625 15.7147 32.3192 17.358 30.2922 17.358 28.2651 17.358 26.6218 15.7147 26.6218 13.6877 26.6218 11.6606 28.2651 10.0173 30.2922 10.0173 32.3192 10.0173 33.9625 11.6606 33.9625 13.6877Z" transform="matrix(1 0 -0 1.02273 3 3)"/></g></g></g><text font-family="Calibri,Calibri_MSFontService,sans-serif" font-weight="700" font-size="20" transform="translate(81.3348 23)">RELEASE<tspan font-weight="400" font-size="12" x="-74.7958" y="78">A </tspan><tspan font-size="12" x="-65.1291" y="78">Release</tspan><tspan font-weight="400" font-size="12" x="-23.7958" y="78">is the delivery of a </tspan><tspan font-weight="400" font-size="12" x="-74.7958" y="93">defined scope of a technology </tspan><tspan font-weight="400" font-size="12" x="-74.7958" y="107">solution that enables </tspan><tspan font-weight="400" font-size="12" x="-74.7958" y="121">corresponding business capabilities.</tspan></text></g></svg>