<svg width="189" height="189" xmlns="http://www.w3.org/2000/svg" xmlns:xlink="http://www.w3.org/1999/xlink" overflow="hidden"><defs><clipPath id="clip0"><path d="M0 0 189 0 189 189 0 189Z" fill-rule="evenodd" clip-rule="evenodd"/></clipPath><clipPath id="clip1"><path d="M3 3 47 3 47 48 3 48Z" fill-rule="evenodd" clip-rule="evenodd"/></clipPath><clipPath id="clip2"><path d="M3 3 47 3 47 48 3 48Z" fill-rule="evenodd" clip-rule="evenodd"/></clipPath><clipPath id="clip3"><path d="M3 3 47 3 47 48 3 48Z" fill-rule="evenodd" clip-rule="evenodd"/></clipPath></defs><g clip-path="url(#clip0)"><rect x="0" y="0" width="189" height="189" fill="#313131"/><text fill="#FFFFFF" font-family="Calibri,Calibri_MSFontService,sans-serif" font-weight="300" font-size="11" transform="translate(9.60032 -5)">PROGRAM</text><rect x="3.50005" y="3.50005" width="1" height="1" stroke="#2F528F" stroke-width="1.33333" stroke-miterlimit="8" fill="#4472C4"/><rect x="0" y="0" width="189" height="189" stroke="#46F0F0" stroke-width="8" stroke-miterlimit="8" fill="#FFFFFF"/><g clip-path="url(#clip1)"><g clip-path="url(#clip2)"><g clip-path="url(#clip3)"><path d="M36.6667 44 3.66667 44C2.65467 44 1.83333 43.1805 1.83333 42.1667L1.83333 9.16667C1.83333 8.15467 2.65467 7.33333 3.66667 7.33333L12.8333 7.33333C13.8453 7.33333 14.6667 8.15467 14.6667 9.16667 14.6667 10.1787 13.8453 11 12.8333 11L5.5 11 5.5 40.3333 34.8333 40.3333 34.8333 33C34.8333 31.9862 35.6528 31.1667 36.6667 31.1667 37.6805 31.1667 38.5 31.9862 38.5 33L38.5 42.1667C38.5 43.1805 37.6805 44 36.6667 44Z" transform="matrix(1 0 -0 1.02273 4.83333 -0.75)"/><path d="M29.3333 29.4617C28.842 29.4617 28.3782 29.2673 28.0317 28.9172L25.5163 26.3835 22.5042 26.3835C21.4903 26.3835 20.6708 25.5622 20.6708 24.5502L20.6708 21.5068 18.865 19.6882C18.1555 18.9732 18.1555 17.82 18.865 17.105L20.6708 15.2863 20.6708 11.4987C20.6708 10.4867 21.4922 9.66533 22.5042 9.66533L26.2533 9.66533 28.0317 7.87417C28.3782 7.52767 28.842 7.33333 29.3333 7.33333L29.3333 7.33333C29.8247 7.33333 30.2885 7.52767 30.635 7.876L32.4133 9.66533 35.4713 9.66533C36.4852 9.66533 37.3047 10.4867 37.3047 11.4987L37.3047 14.5915 39.7998 17.1068C40.513 17.8218 40.513 18.9768 39.7998 19.69L37.3047 22.2053 37.3047 24.5538C37.3047 25.5658 36.4852 26.3872 35.4713 26.3872L33.1503 26.3872 30.635 28.9208C30.2885 29.2673 29.8247 29.4617 29.3333 29.4617ZM24.3375 22.7187 26.279 22.7187C26.7703 22.7187 27.2342 22.913 27.5807 23.2595L29.3333 25.0268 31.086 23.2595C31.4307 22.913 31.8963 22.7187 32.3877 22.7187L33.638 22.7187 33.638 21.4482C33.638 20.9642 33.8287 20.4985 34.1715 20.1557L35.9168 18.3975 34.1715 16.6393C33.8268 16.2965 33.638 15.8327 33.638 15.3468L33.638 13.332 31.647 13.332C31.1575 13.332 30.6918 13.1377 30.3453 12.7893L29.3333 11.77 28.3195 12.7912C27.9748 13.1377 27.5073 13.332 27.016 13.332L24.3375 13.332 24.3375 16.0417C24.3375 16.5257 24.1468 16.9895 23.804 17.3342L22.7498 18.3975 23.804 19.4627C24.1468 19.8073 24.3375 20.2712 24.3375 20.7552L24.3375 22.7187Z" transform="matrix(1 0 -0 1.02273 4.83333 -0.75)"/><path d="M14.6667 22 11 22C9.988 22 9.16667 21.1787 9.16667 20.1667 9.16667 19.1547 9.988 18.3333 11 18.3333L14.6667 18.3333C15.6787 18.3333 16.5 19.1547 16.5 20.1667 16.5 21.1787 15.6787 22 14.6667 22Z" transform="matrix(1 0 -0 1.02273 4.83333 -0.75)"/><path d="M14.6667 29.3333 11 29.3333C9.988 29.3333 9.16667 28.5138 9.16667 27.5 9.16667 26.488 9.988 25.6667 11 25.6667L14.6667 25.6667C15.6787 25.6667 16.5 26.488 16.5 27.5 16.5 28.5138 15.6787 29.3333 14.6667 29.3333Z" transform="matrix(1 0 -0 1.02273 4.83333 -0.75)"/><path d="M14.6667 36.6667 11 36.6667C9.988 36.6667 9.16667 35.8472 9.16667 34.8333 9.16667 33.8195 9.988 33 11 33L14.6667 33C15.6787 33 16.5 33.8195 16.5 34.8333 16.5 35.8472 15.6787 36.6667 14.6667 36.6667Z" transform="matrix(1 0 -0 1.02273 4.83333 -0.75)"/><path d="M25.6667 36.6667 22 36.6667C20.9862 36.6667 20.1667 35.8472 20.1667 34.8333 20.1667 33.8195 20.9862 33 22 33L25.6667 33C26.6805 33 27.5 33.8195 27.5 34.8333 27.5 35.8472 26.6805 36.6667 25.6667 36.6667Z" transform="matrix(1 0 -0 1.02273 4.83333 -0.75)"/><path d="M31.1685 18.3333C31.1685 19.3459 30.3477 20.1667 29.3352 20.1667 28.3226 20.1667 27.5018 19.3459 27.5018 18.3333 27.5018 17.3208 28.3226 16.5 29.3352 16.5 30.3477 16.5 31.1685 17.3208 31.1685 18.3333Z" transform="matrix(1 0 -0 1.02273 4.83333 -0.75)"/></g></g></g><text font-family="Calibri,Calibri_MSFontService,sans-serif" font-weight="700" font-size="20" transform="translate(72.2248 23)">PROGRAM<tspan font-weight="400" font-size="12" x="-65.6858" y="78">A </tspan><tspan font-size="12" x="-56.0192" y="78">Program</tspan><tspan font-weight="400" font-size="12" x="-10.3525" y="78">is a defined set of </tspan><tspan font-weight="400" font-size="12" x="-65.6858" y="93">individual </tspan><tspan font-size="12" x="-15.1858" y="93">Projects</tspan><tspan font-weight="400" font-size="12" x="27.6475" y="93">that a project </tspan><tspan font-weight="400" font-size="12" x="-65.6858" y="107">office or programme manager is </tspan><tspan font-weight="400" font-size="12" x="-65.6858" y="121">charged with coordinating.</tspan></text></g></svg>