<svg width="189" height="189" xmlns="http://www.w3.org/2000/svg" xmlns:xlink="http://www.w3.org/1999/xlink" overflow="hidden"><defs><clipPath id="clip0"><path d="M0 0 189 0 189 189 0 189Z" fill-rule="evenodd" clip-rule="evenodd"/></clipPath><clipPath id="clip1"><path d="M3 3 47 3 47 48 3 48Z" fill-rule="evenodd" clip-rule="evenodd"/></clipPath><clipPath id="clip2"><path d="M3 3 47 3 47 48 3 48Z" fill-rule="evenodd" clip-rule="evenodd"/></clipPath><clipPath id="clip3"><path d="M3 3 47 3 47 48 3 48Z" fill-rule="evenodd" clip-rule="evenodd"/></clipPath></defs><g clip-path="url(#clip0)"><rect x="0" y="0" width="189" height="189" fill="#313131"/><text fill="#FFFFFF" font-family="Calibri,Calibri_MSFontService,sans-serif" font-weight="300" font-size="11" transform="translate(9.60032 -5)">VALUEDIAL</text><rect x="3.50005" y="3.50005" width="1" height="1" stroke="#2F528F" stroke-width="1.33333" stroke-miterlimit="8" fill="#4472C4"/><rect x="0" y="0" width="189" height="189" stroke="#000080" stroke-width="8" stroke-miterlimit="8" fill="#FFFFFF"/><g clip-path="url(#clip1)"><g clip-path="url(#clip2)"><g clip-path="url(#clip3)"><path d="M41.6167 20.6672 23.2833 2.36867C22.5702 1.6555 21.4298 1.6555 20.7167 2.36867L2.38333 20.6672C2.03133 21.0173 1.83333 21.5013 1.83333 22 1.83333 22.5005 2.03133 22.9827 2.38333 23.3365L20.7167 41.635C21.0742 41.987 21.5362 42.1667 22 42.1667 22.4638 42.1667 22.9277 41.987 23.2833 41.635L41.6167 23.3365C41.9668 22.9827 42.1667 22.5005 42.1667 22 42.1667 21.5013 41.9705 21.0173 41.6167 20.6672ZM6.2865 22 21.8167 6.49917 21.8167 37.5027 6.2865 22Z" transform="matrix(1 0 -0 1.02273 3 3)"/></g></g></g><text font-family="Calibri,Calibri_MSFontService,sans-serif" font-weight="700" font-size="20" transform="translate(70.4881 23)">VALUEDIAL<tspan font-size="12" x="-63.9491" y="64">Value dials</tspan><tspan font-weight="400" font-size="12" x="-6.6158" y="64">can be defined as the </tspan><tspan font-weight="400" font-size="12" x="-63.9491" y="79">nodes of a “value driver tree” which </tspan><tspan font-weight="400" font-size="12" x="-63.9491" y="93">plots all the things that contribute </tspan><tspan font-weight="400" font-size="12" x="-63.9491" y="107">to business</tspan><tspan font-weight="400" font-size="12" x="-6.44913" y="107">value</tspan><tspan font-weight="400" font-size="12" x="22.5509" y="107">creation (a “value </tspan><tspan font-weight="400" font-size="12" x="-63.9491" y="122">driver tree” is a chain of </tspan><tspan font-weight="400" font-size="12" x="-63.9491" y="136">consequences).</tspan></text></g></svg>