<svg width="265" height="265" xmlns="http://www.w3.org/2000/svg" xmlns:xlink="http://www.w3.org/1999/xlink" overflow="hidden"><defs><clipPath id="clip0"><path d="M0 0 265 0 265 265 0 265Z" fill-rule="evenodd" clip-rule="evenodd"/></clipPath><clipPath id="clip1"><path d="M35 51 55 51 55 71 35 71Z" fill-rule="evenodd" clip-rule="evenodd"/></clipPath><clipPath id="clip2"><path d="M35 51 55 51 55 71 35 71Z" fill-rule="evenodd" clip-rule="evenodd"/></clipPath><clipPath id="clip3"><path d="M35 51 55 51 55 71 35 71Z" fill-rule="evenodd" clip-rule="evenodd"/></clipPath><clipPath id="clip4"><path d="M209 47 218 47 218 58 209 58Z" fill-rule="evenodd" clip-rule="evenodd"/></clipPath><clipPath id="clip5"><path d="M209 47 218 47 218 58 209 58Z" fill-rule="evenodd" clip-rule="evenodd"/></clipPath><clipPath id="clip6"><path d="M209 47 218 47 218 58 209 58Z" fill-rule="evenodd" clip-rule="evenodd"/></clipPath><clipPath id="clip7"><path d="M215 99 226 99 226 108 215 108Z" fill-rule="evenodd" clip-rule="evenodd"/></clipPath><clipPath id="clip8"><path d="M215 99 226 99 226 108 215 108Z" fill-rule="evenodd" clip-rule="evenodd"/></clipPath><clipPath id="clip9"><path d="M215 99 226 99 226 108 215 108Z" fill-rule="evenodd" clip-rule="evenodd"/></clipPath><clipPath id="clip10"><path d="M224 148 235 148 235 160 224 160Z" fill-rule="evenodd" clip-rule="evenodd"/></clipPath><clipPath id="clip11"><path d="M224 148 235 148 235 160 224 160Z" fill-rule="evenodd" clip-rule="evenodd"/></clipPath><clipPath id="clip12"><path d="M224 148 235 148 235 160 224 160Z" fill-rule="evenodd" clip-rule="evenodd"/></clipPath><clipPath id="clip13"><path d="M212 200 222 200 222 211 212 211Z" fill-rule="evenodd" clip-rule="evenodd"/></clipPath><clipPath id="clip14"><path d="M212 200 222 200 222 211 212 211Z" fill-rule="evenodd" clip-rule="evenodd"/></clipPath><clipPath id="clip15"><path d="M212 200 222 200 222 211 212 211Z" fill-rule="evenodd" clip-rule="evenodd"/></clipPath></defs><g clip-path="url(#clip0)"><rect x="0" y="0" width="265" height="265" fill="#313131"/><rect x="89.5" y="131.5" width="1.99999" height="1" stroke="#2F528F" stroke-width="1.33585" stroke-miterlimit="8" fill="#4472C4"/><path d="M23.5 9.75271C23.5 8.50859 24.5085 7.50003 25.7527 7.50003L249.247 7.50003C250.491 7.50003 251.5 8.50859 251.5 9.75271L251.5 249.247C251.5 250.491 250.491 251.5 249.247 251.5L25.7527 251.5C24.5085 251.5 23.5 250.491 23.5 249.247Z" stroke="#FF0000" stroke-width="0.667927" stroke-miterlimit="8" stroke-opacity="0" fill="none" fill-rule="evenodd"/><path d="M30.0794 43.5 149.921 43.5C153.002 43.5 155.5 45.998 155.5 49.0794L155.5 214.252C155.5 216.598 153.598 218.5 151.252 218.5L28.7483 218.5C26.402 218.5 24.5 216.598 24.5 214.252L24.5 49.0794C24.5 45.998 26.998 43.5 30.0794 43.5Z" stroke="#CEB023" stroke-width="4.67549" stroke-miterlimit="8" fill="#FFFFFF" fill-rule="evenodd"/><g clip-path="url(#clip1)"><g clip-path="url(#clip2)"><g clip-path="url(#clip3)"><path d="M42.125 70.2083 37.375 70.2083C36.938 70.2083 36.5833 69.8545 36.5833 69.4167L36.5833 66.25C36.5833 65.8122 36.938 65.4583 37.375 65.4583L42.125 65.4583C42.562 65.4583 42.9167 65.8122 42.9167 66.25L42.9167 69.4167C42.9167 69.8545 42.562 70.2083 42.125 70.2083ZM38.1667 68.625 41.3333 68.625 41.3333 67.0417 38.1667 67.0417 38.1667 68.625Z"/><path d="M46.875 58.3333 42.125 58.3333C41.688 58.3333 41.3333 57.9786 41.3333 57.5416L41.3333 54.375C41.3333 53.938 41.688 53.5833 42.125 53.5833L46.875 53.5833C47.3128 53.5833 47.6667 53.938 47.6667 54.375L47.6667 57.5416C47.6667 57.9786 47.3128 58.3333 46.875 58.3333ZM42.9167 56.75 46.0834 56.75 46.0834 55.1666 42.9167 55.1666 42.9167 56.75Z"/><path d="M51.625 65.4583 46.875 65.4583C46.4372 65.4583 46.0834 65.8122 46.0834 66.25L46.0834 69.4167C46.0834 69.8545 46.4372 70.2083 46.875 70.2083L51.625 70.2083C52.0628 70.2083 52.4167 69.8545 52.4167 69.4167L52.4167 66.25C52.4167 65.8122 52.0628 65.4583 51.625 65.4583Z"/><path d="M48.4584 63.875C48.0206 63.875 47.6667 63.5211 47.6667 63.0833L47.6667 61.8958C47.6667 61.6741 47.4933 61.5 47.2732 61.5L41.7268 61.5C41.5099 61.5 41.3333 61.6773 41.3333 61.8958L41.3333 63.0833C41.3333 63.5211 40.9787 63.875 40.5417 63.875 40.1047 63.875 39.75 63.5211 39.75 63.0833L39.75 61.8958C39.75 60.8049 40.6367 59.9166 41.7268 59.9166L47.2732 59.9166C48.3634 59.9166 49.25 60.8049 49.25 61.8958L49.25 63.0833C49.25 63.5211 48.8962 63.875 48.4584 63.875Z"/></g></g></g><path d="M26.9702 6.36947C18.5628 6.36947 11.7473 10.3112 11.7473 15.1736L11.7473 248.948C11.7473 253.81 18.5628 257.752 26.9702 257.752L238.08 257.752C246.487 257.752 253.302 253.81 253.302 248.948L253.302 15.1736C253.302 10.3112 246.487 6.36947 238.08 6.36947ZM0 0 265 0 265 265 0 265Z" fill="#CEB023" fill-rule="evenodd"/><text font-family="Calibri,Calibri_MSFontService,sans-serif" font-weight="700" font-size="11" transform="translate(63.6932 63)">ORGANISATION <tspan x="24.0454" y="13">UNIT</tspan><tspan font-weight="400" font-size="9" x="-32.4029" y="57">A segment of an organisation </tspan><tspan font-weight="400" font-size="9" x="-32.4029" y="68">having a designated </tspan><tspan font-weight="400" font-size="9" x="-32.4029" y="79">accountable manager. </tspan><tspan font-size="9" x="-32.4029" y="90">Organisation units</tspan><tspan font-weight="400" font-size="9" x="41.236" y="90">may exist </tspan><tspan font-weight="400" font-size="9" x="-32.4029" y="102">at any level within an </tspan><tspan font-weight="400" font-size="9" x="-32.4029" y="113">organisational structure.</tspan></text><path d="M208.5 50.6667C208.5 50.0223 209.022 49.5 209.667 49.5L247.333 49.5C247.978 49.5 248.5 50.0223 248.5 50.6667L248.5 55.3333C248.5 55.9777 247.978 56.5 247.333 56.5L209.667 56.5C209.022 56.5 208.5 55.9777 208.5 55.3333Z" stroke="#B74D41" stroke-width="1.33585" stroke-miterlimit="8" fill="#FFFFFF" fill-rule="evenodd"/><text font-family="Calibri,Calibri_MSFontService,sans-serif" font-weight="700" font-size="5" transform="translate(219.654 54)">APPLICATION</text><g clip-path="url(#clip4)"><g clip-path="url(#clip5)"><g clip-path="url(#clip6)"><path d="M4.57049 6.45036C4.47449 6.45036 4.37849 6.41361 4.30536 6.34048L3.79011 5.82561 3.17399 5.82561C2.96699 5.82561 2.79899 5.65798 2.79899 5.45061L2.79899 4.83449 2.43037 4.46549C2.28412 4.31886 2.28412 4.08186 2.43037 3.93524L2.79899 3.56661 2.79899 2.79899C2.79899 2.59199 2.96699 2.42399 3.17399 2.42399L3.94161 2.42399 4.30536 2.06024C4.45199 1.91362 4.68899 1.91362 4.83561 2.06024L5.19973 2.42399 5.82598 2.42399C6.03336 2.42399 6.20098 2.59199 6.20098 2.79899L6.20098 3.42524 6.71061 3.93524C6.78111 4.00574 6.82048 4.10099 6.82048 4.20036 6.82048 4.29974 6.78148 4.39536 6.71061 4.46586L6.20098 4.97511 6.20098 5.45061C6.20098 5.65798 6.03336 5.82561 5.82598 5.82561L5.35048 5.82561 4.83561 6.34048C4.76249 6.41398 4.66649 6.45036 4.57049 6.45036ZM3.54899 5.07561 3.94536 5.07561C4.04474 5.07561 4.14036 5.11498 4.21049 5.18548L4.57049 5.54511 4.92974 5.18548C5.00024 5.11498 5.09511 5.07561 5.19486 5.07561L5.45061 5.07561 5.45061 4.81986C5.45061 4.72011 5.48998 4.62486 5.56048 4.55474L5.91486 4.20036 5.56048 3.84561C5.48998 3.77511 5.45061 3.67986 5.45061 3.58049L5.45061 3.17399 5.04411 3.17399C4.94436 3.17399 4.84911 3.13462 4.77899 3.06412L4.57049 2.85562 4.36199 3.06412C4.29149 3.13462 4.19661 3.17399 4.09686 3.17399L3.54899 3.17399 3.54899 3.72186C3.54899 3.82124 3.50961 3.91686 3.43911 3.98699L3.22574 4.20074 3.43949 4.41411C3.50961 4.48461 3.54899 4.57986 3.54899 4.67924L3.54899 5.07561Z" transform="matrix(1 0 -0 1.00001 209 48.375)"/><path d="M7.49998 6.37498C7.2926 6.37498 7.12498 6.20736 7.12498 5.99998L7.12498 1.125 1.87499 1.125 1.87499 5.99998C1.87499 6.20736 1.707 6.37498 1.5 6.37498 1.293 6.37498 1.125 6.20736 1.125 5.99998L1.125 0.749998C1.125 0.542998 1.293 0.374999 1.5 0.374999L7.49998 0.374999C7.70735 0.374999 7.87498 0.542998 7.87498 0.749998L7.87498 5.99998C7.87498 6.20736 7.70735 6.37498 7.49998 6.37498Z" transform="matrix(1 0 -0 1.00001 209 48.375)"/><path d="M2.62499 7.12498 3.37499 7.12498 3.37499 7.87498 2.62499 7.87498Z" transform="matrix(1 0 -0 1.00001 209 48.375)"/><path d="M4.12499 7.12498 4.87499 7.12498 4.87499 7.87498 4.12499 7.87498Z" transform="matrix(1 0 -0 1.00001 209 48.375)"/><path d="M5.62498 7.12498 6.37498 7.12498 6.37498 7.87498 5.62498 7.87498Z" transform="matrix(1 0 -0 1.00001 209 48.375)"/><path d="M7.12498 7.12498 7.87498 7.12498 7.87498 7.87498 7.12498 7.87498Z" transform="matrix(1 0 -0 1.00001 209 48.375)"/><path d="M1.125 7.12498 1.87499 7.12498 1.87499 7.87498 1.125 7.87498Z" transform="matrix(1 0 -0 1.00001 209 48.375)"/><path d="M4.84836 4.09836C4.84836 4.30547 4.68047 4.47336 4.47336 4.47336 4.26626 4.47336 4.09836 4.30547 4.09836 4.09836 4.09836 3.89126 4.26626 3.72336 4.47336 3.72336 4.68047 3.72336 4.84836 3.89126 4.84836 4.09836Z" transform="matrix(1 0 -0 1.00001 209 48.375)"/></g></g></g><path d="M215.5 101.5C215.5 100.948 215.948 100.5 216.5 100.5L247.5 100.5C248.052 100.5 248.5 100.948 248.5 101.5L248.5 105.5C248.5 106.052 248.052 106.5 247.5 106.5L216.5 106.5C215.948 106.5 215.5 106.052 215.5 105.5Z" stroke="#B74D41" stroke-width="1.33585" stroke-miterlimit="8" fill="#FFFFFF" fill-rule="evenodd"/><text font-family="Calibri,Calibri_MSFontService,sans-serif" font-weight="700" font-size="5" transform="translate(227.144 104)">POSITION</text><g clip-path="url(#clip7)"><g clip-path="url(#clip8)"><g clip-path="url(#clip9)"><path d="M4.49999 2.62499C5.12023 2.62499 5.62498 2.12024 5.62498 1.5 5.62498 0.879747 5.12023 0.374999 4.49999 0.374999 3.87974 0.374999 3.37499 0.879747 3.37499 1.5 3.37499 2.12024 3.87974 2.62499 4.49999 2.62499ZM4.49999 1.125C4.70699 1.125 4.87499 1.29337 4.87499 1.5 4.87499 1.70662 4.70699 1.87499 4.49999 1.87499 4.29336 1.87499 4.12499 1.70662 4.12499 1.5 4.12499 1.29337 4.29336 1.125 4.49999 1.125Z" transform="matrix(1.11111 0 -0 1 216 99)"/><path d="M8.24998 6.37498 7.87498 6.37498 7.87498 5.23761C7.87498 5.13786 7.8356 5.04224 7.76473 4.97211 7.6946 4.90199 7.59973 4.86261 7.49998 4.86261 7.4996 4.86261 7.4996 4.86261 7.49923 4.86261L6.37498 4.86486 6.37498 4.12499C6.37498 3.50474 5.87023 2.99999 5.25073 2.99999L3.74924 2.99999C3.12937 2.99999 2.62499 3.50474 2.62499 4.12499L2.62499 4.87274 1.49925 4.87499C1.29225 4.87536 1.125 5.04298 1.125 5.24998L1.125 6.37498 0.749998 6.37498C0.542998 6.37498 0.374999 6.54261 0.374999 6.74998L0.374999 8.24998C0.374999 8.45735 0.542998 8.62497 0.749998 8.62497L2.24999 8.62497C2.45699 8.62497 2.62499 8.45735 2.62499 8.24998L2.62499 6.74998C2.62499 6.54261 2.45699 6.37498 2.24999 6.37498L1.87499 6.37498 1.87499 5.62423 4.12499 5.61936 4.12499 6.37498 3.74999 6.37498C3.54299 6.37498 3.37499 6.54261 3.37499 6.74998L3.37499 8.24998C3.37499 8.45735 3.54299 8.62497 3.74999 8.62497L5.24998 8.62497C5.45736 8.62497 5.62498 8.45735 5.62498 8.24998L5.62498 6.74998C5.62498 6.54261 5.45736 6.37498 5.24998 6.37498L4.87499 6.37498 4.87499 5.61786 7.12498 5.61298 7.12498 6.37498 6.74998 6.37498C6.54261 6.37498 6.37498 6.54261 6.37498 6.74998L6.37498 8.24998C6.37498 8.45735 6.54261 8.62497 6.74998 8.62497L8.24998 8.62497C8.45735 8.62497 8.62497 8.45735 8.62497 8.24998L8.62497 6.74998C8.62497 6.54261 8.45735 6.37498 8.24998 6.37498ZM1.87499 7.87498 1.125 7.87498 1.125 7.12498 1.43812 7.12498C1.45912 7.12873 1.47825 7.13735 1.5 7.13735 1.52175 7.13735 1.54087 7.12873 1.56187 7.12498L1.87499 7.12498 1.87499 7.87498ZM4.87499 7.87498 4.12499 7.87498 4.12499 7.12498 4.87499 7.12498 4.87499 7.87498ZM3.37499 4.12499C3.37499 3.91461 3.53924 3.74999 3.74924 3.74999L5.25073 3.74999C5.46073 3.74999 5.62498 3.91461 5.62498 4.12499L5.62498 4.86636 3.37499 4.87124 3.37499 4.12499ZM7.87498 7.87498 7.12498 7.87498 7.12498 7.12498 7.87498 7.12498 7.87498 7.87498Z" transform="matrix(1.11111 0 -0 1 216 99)"/></g></g></g><path d="M224.5 152.5C224.5 151.948 224.948 151.5 225.5 151.5L247.5 151.5C248.052 151.5 248.5 151.948 248.5 152.5L248.5 156.5C248.5 157.052 248.052 157.5 247.5 157.5L225.5 157.5C224.948 157.5 224.5 157.052 224.5 156.5Z" stroke="#CEB023" stroke-width="1.33585" stroke-miterlimit="8" fill="#FFFFFF" fill-rule="evenodd"/><text font-family="Calibri,Calibri_MSFontService,sans-serif" font-weight="700" font-size="5" transform="translate(235.598 155)">USER</text><g clip-path="url(#clip10)"><g clip-path="url(#clip11)"><g clip-path="url(#clip12)"><path d="M3.00003 3.75003C1.95002 3.75003 1.12501 2.92503 1.12501 1.87502 1.12501 0.825007 1.95002 0 3.00003 0 4.05004 0 4.87504 0.825007 4.87504 1.87502 4.87504 2.92503 4.05004 3.75003 3.00003 3.75003ZM3.00003 0.750007C2.36252 0.750007 1.87502 1.23751 1.87502 1.87502 1.87502 2.51252 2.36252 3.00003 3.00003 3.00003 3.63753 3.00003 4.12504 2.51252 4.12504 1.87502 4.12504 1.23751 3.63753 0.750007 3.00003 0.750007Z" transform="matrix(1 0 -0 1.11111 226.5 149.417)"/><path d="M6.75006 8.25007C6.52506 8.25007 6.37506 8.10007 6.37506 7.87507L6.37506 6.37506C6.37506 5.73755 5.88755 5.25005 5.25005 5.25005L3.00003 5.25005C2.36252 5.25005 1.87502 5.73755 1.87502 6.37506L1.87502 7.87507C1.87502 8.10007 1.72502 8.25007 1.50001 8.25007 1.27501 8.25007 1.12501 8.10007 1.12501 7.87507L1.12501 6.37506C1.12501 5.32505 1.95002 4.50004 3.00003 4.50004L5.25005 4.50004C6.30005 4.50004 7.12506 5.32505 7.12506 6.37506L7.12506 7.87507C7.12506 8.10007 6.97506 8.25007 6.75006 8.25007Z" transform="matrix(1 0 -0 1.11111 225.375 149.417)"/></g></g></g><path d="M212.5 202.667C212.5 202.022 213.022 201.5 213.667 201.5L247.333 201.5C247.978 201.5 248.5 202.022 248.5 202.667L248.5 207.333C248.5 207.978 247.978 208.5 247.333 208.5L213.667 208.5C213.022 208.5 212.5 207.978 212.5 207.333Z" stroke="#911EB4" stroke-width="1.33585" stroke-miterlimit="8" fill="#FFFFFF" fill-rule="evenodd"/><text font-family="Calibri,Calibri_MSFontService,sans-serif" font-weight="700" font-size="5" transform="translate(223.229 206)">CAPABILITY</text><g clip-path="url(#clip13)"><g clip-path="url(#clip14)"><g clip-path="url(#clip15)"><path d="M220.75 204.167 213.25 204.167C213.02 204.167 212.833 204.353 212.833 204.583L212.833 206.25C212.833 206.48 213.02 206.667 213.25 206.667L213.667 206.667 213.667 209.167C213.667 209.397 213.853 209.583 214.083 209.583L219.917 209.583C220.147 209.583 220.333 209.397 220.333 209.167L220.333 206.667 220.75 206.667C220.98 206.667 221.167 206.48 221.167 206.25L221.167 204.583C221.167 204.353 220.98 204.167 220.75 204.167ZM219.5 208.75 214.5 208.75 214.5 206.667 219.5 206.667 219.5 208.75ZM220.333 205.833 219.917 205.833 214.083 205.833 213.667 205.833 213.667 205 220.333 205 220.333 205.833Z"/><path d="M214.083 203.333 216.167 203.333C216.397 203.333 216.583 203.147 216.583 202.917L216.583 200.833C216.583 200.603 216.397 200.417 216.167 200.417L214.083 200.417C213.853 200.417 213.667 200.603 213.667 200.833L213.667 202.917C213.667 203.147 213.853 203.333 214.083 203.333ZM214.5 201.25 215.75 201.25 215.75 202.5 214.5 202.5 214.5 201.25Z"/><path d="M218.875 203.333C219.681 203.333 220.333 202.68 220.333 201.875 220.333 201.07 219.681 200.417 218.875 200.417 218.069 200.417 217.417 201.07 217.417 201.875 217.417 202.68 218.069 203.333 218.875 203.333ZM218.875 201.25C219.22 201.25 219.5 201.53 219.5 201.875 219.5 202.22 219.22 202.5 218.875 202.5 218.53 202.5 218.25 202.22 218.25 201.875 218.25 201.53 218.53 201.25 218.875 201.25Z"/></g></g></g><path d="M165.044 49 198.956 49C203.399 49 207 52.134 207 56 207 59.866 203.399 63 198.956 63L165.044 63C160.601 63 157 59.866 157 56 157 52.134 160.601 49 165.044 49Z" fill="#313131" fill-rule="evenodd"/><text fill="#FFFFFF" font-family="Calibri,Calibri_MSFontService,sans-serif" font-weight="700" font-size="5" transform="translate(167.823 58)">&lt;Has owner|</text><path d="M167.618 151 212.382 151C218.246 151 223 153.91 223 157.5 223 161.09 218.246 164 212.382 164L167.618 164C161.754 164 157 161.09 157 157.5 157 153.91 161.754 151 167.618 151Z" fill="#313131" fill-rule="evenodd"/><text fill="#FFFFFF" font-family="Calibri,Calibri_MSFontService,sans-serif" font-weight="700" font-size="5" transform="translate(172.332 159)">|Subscribed by&gt;</text><path d="M166.17 100 204.83 100C209.894 100 214 102.91 214 106.5 214 110.09 209.894 113 204.83 113L166.17 113C161.106 113 157 110.09 157 106.5 157 102.91 161.106 100 166.17 100Z" fill="#313131" fill-rule="evenodd"/><text fill="#FFFFFF" font-family="Calibri,Calibri_MSFontService,sans-serif" font-weight="700" font-size="5" transform="translate(171.664 109)">&lt;Owned by|</text><path d="M165.527 201 201.473 201C206.183 201 210 204.134 210 208 210 211.866 206.183 215 201.473 215L165.527 215C160.817 215 157 211.866 157 208 157 204.134 160.817 201 165.527 201Z" fill="#313131" fill-rule="evenodd"/><text fill="#FFFFFF" font-family="Calibri,Calibri_MSFontService,sans-serif" font-weight="700" font-size="5" transform="translate(167.573 210)">&lt;Responsible|</text></g></svg>