<svg width="265" height="265" xmlns="http://www.w3.org/2000/svg" xmlns:xlink="http://www.w3.org/1999/xlink" overflow="hidden"><defs><clipPath id="clip0"><path d="M0 0 265 0 265 265 0 265Z" fill-rule="evenodd" clip-rule="evenodd"/></clipPath><clipPath id="clip1"><path d="M35 51 55 51 55 71 35 71Z" fill-rule="evenodd" clip-rule="evenodd"/></clipPath><clipPath id="clip2"><path d="M35 51 55 51 55 71 35 71Z" fill-rule="evenodd" clip-rule="evenodd"/></clipPath><clipPath id="clip3"><path d="M35 51 55 51 55 71 35 71Z" fill-rule="evenodd" clip-rule="evenodd"/></clipPath><clipPath id="clip4"><path d="M208 61 218 61 218 71 208 71Z" fill-rule="evenodd" clip-rule="evenodd"/></clipPath><clipPath id="clip5"><path d="M208 61 218 61 218 71 208 71Z" fill-rule="evenodd" clip-rule="evenodd"/></clipPath><clipPath id="clip6"><path d="M208 61 218 61 218 71 208 71Z" fill-rule="evenodd" clip-rule="evenodd"/></clipPath><clipPath id="clip7"><path d="M213 124 224 124 224 134 213 134Z" fill-rule="evenodd" clip-rule="evenodd"/></clipPath><clipPath id="clip8"><path d="M213 124 224 124 224 134 213 134Z" fill-rule="evenodd" clip-rule="evenodd"/></clipPath><clipPath id="clip9"><path d="M213 124 224 124 224 134 213 134Z" fill-rule="evenodd" clip-rule="evenodd"/></clipPath><clipPath id="clip10"><path d="M224 186 235 186 235 198 224 198Z" fill-rule="evenodd" clip-rule="evenodd"/></clipPath><clipPath id="clip11"><path d="M224 186 235 186 235 198 224 198Z" fill-rule="evenodd" clip-rule="evenodd"/></clipPath><clipPath id="clip12"><path d="M224 186 235 186 235 198 224 198Z" fill-rule="evenodd" clip-rule="evenodd"/></clipPath></defs><g clip-path="url(#clip0)"><rect x="0" y="0" width="265" height="265" fill="#313131"/><rect x="89.5" y="131.5" width="1.99999" height="1" stroke="#2F528F" stroke-width="1.33585" stroke-miterlimit="8" fill="#4472C4"/><path d="M23.5 9.75271C23.5 8.50859 24.5085 7.50003 25.7527 7.50003L249.247 7.50003C250.491 7.50003 251.5 8.50859 251.5 9.75271L251.5 249.247C251.5 250.491 250.491 251.5 249.247 251.5L25.7527 251.5C24.5085 251.5 23.5 250.491 23.5 249.247Z" stroke="#FF0000" stroke-width="0.667927" stroke-miterlimit="8" stroke-opacity="0" fill="none" fill-rule="evenodd"/><path d="M30.0794 43.5 149.921 43.5C153.002 43.5 155.5 45.998 155.5 49.0794L155.5 214.252C155.5 216.598 153.598 218.5 151.252 218.5L28.7483 218.5C26.402 218.5 24.5 216.598 24.5 214.252L24.5 49.0794C24.5 45.998 26.998 43.5 30.0794 43.5Z" stroke="#CEB023" stroke-width="4.67549" stroke-miterlimit="8" fill="#FFFFFF" fill-rule="evenodd"/><g clip-path="url(#clip1)"><g clip-path="url(#clip2)"><g clip-path="url(#clip3)"><path d="M52.7912 60.0101C52.5347 59.8731 52.2196 59.8873 51.9781 60.0496L47.7182 62.8886 43.4234 59.3086C43.1653 59.0933 42.7979 59.0648 42.509 59.2382L39.5624 61.006C39.4175 60.8286 39.2053 60.7083 38.9583 60.7083L36.5833 60.7083C36.1463 60.7083 35.7917 61.063 35.7917 61.5L35.7917 67.8333C35.7917 68.2711 36.1463 68.625 36.5833 68.625L38.9583 68.625C39.3953 68.625 39.75 68.2711 39.75 67.8333L39.75 67.7162 42.7251 67.2372 45.6274 69.2734C45.7635 69.3692 45.9227 69.4182 46.0818 69.4182 46.2488 69.4182 46.4167 69.3668 46.5568 69.2599L52.8917 64.5099C53.0912 64.3611 53.2084 64.1267 53.2084 63.8766L53.2084 60.7099C53.2084 60.4162 53.0477 60.1478 52.7912 60.0101ZM37.375 67.0417 37.375 62.2916 38.1667 62.2916 38.1667 67.0417 37.375 67.0417ZM51.625 63.4791 46.0667 67.6481 43.3727 65.7552C43.2389 65.661 43.0798 65.6111 42.9175 65.6111 42.8755 65.6111 42.8336 65.6143 42.7916 65.6214L39.75 66.1122 39.75 62.7397 42.8415 60.8848 46.4934 63.9288 45.9789 64.4426 43.4439 62.7849C43.0782 62.5458 42.5874 62.6487 42.3483 63.0144 42.1092 63.3802 42.2121 63.871 42.5779 64.1101L45.6519 66.1194C45.6812 66.1376 45.7137 66.1471 45.7437 66.1629 45.7683 66.1756 45.7928 66.1874 45.8197 66.1969 45.906 66.2278 45.9947 66.2484 46.0842 66.2484 46.0842 66.2484 46.0842 66.2484 46.0849 66.2484L46.0849 66.2484C46.0857 66.2484 46.0857 66.2484 46.0865 66.2484 46.176 66.2476 46.2654 66.2278 46.3494 66.1969 46.3668 66.1906 46.3866 66.1843 46.404 66.1772 46.4871 66.1399 46.5647 66.0909 46.6328 66.0259 46.6359 66.0228 46.6415 66.0212 46.6447 66.018L48.1781 64.4854 51.625 62.1871 51.625 63.4791Z"/><path d="M47.6667 59.125C49.4131 59.125 50.8334 57.7047 50.8334 55.9583 50.8334 54.2119 49.4131 52.7916 47.6667 52.7916 45.9203 52.7916 44.5 54.2119 44.5 55.9583 44.5 57.7047 45.9203 59.125 47.6667 59.125ZM47.6667 54.375C48.5407 54.375 49.25 55.0851 49.25 55.9583 49.25 56.8315 48.5407 57.5416 47.6667 57.5416 46.7927 57.5416 46.0834 56.8315 46.0834 55.9583 46.0834 55.0851 46.7927 54.375 47.6667 54.375Z"/></g></g></g><path d="M26.9702 6.36947C18.5628 6.36947 11.7473 10.3112 11.7473 15.1736L11.7473 248.948C11.7473 253.81 18.5628 257.752 26.9702 257.752L238.08 257.752C246.487 257.752 253.302 253.81 253.302 248.948L253.302 15.1736C253.302 10.3112 246.487 6.36947 238.08 6.36947ZM0 0 265 0 265 265 0 265Z" fill="#CEB023" fill-rule="evenodd"/><text font-family="Calibri,Calibri_MSFontService,sans-serif" font-weight="700" font-size="11" transform="translate(63.3593 63)">RESPONSIBILITY<tspan font-weight="400" font-size="9" x="-32.069" y="74">A </tspan><tspan font-size="9" x="-24.5548" y="74">Responsibility</tspan><tspan font-weight="400" font-size="9" x="32.052" y="74">is the </tspan><tspan font-weight="400" font-size="9" x="-32.069" y="85">assignment to a </tspan><tspan font-size="9" x="30.5492" y="85">Role</tspan><tspan font-weight="400" font-size="9" x="50.0861" y="85">of the </tspan><tspan font-weight="400" font-size="9" x="-32.069" y="96">right to perform a </tspan><tspan font-size="9" x="38.7313" y="96">Task</tspan><tspan font-weight="400" font-size="9" x="56.2644" y="96">.</tspan></text><path d="M207.5 63.5C207.5 62.9477 207.948 62.5 208.5 62.5L247.5 62.5C248.052 62.5 248.5 62.9477 248.5 63.5L248.5 67.4999C248.5 68.0522 248.052 68.5 247.5 68.5L208.5 68.5C207.948 68.5 207.5 68.0522 207.5 67.4999Z" stroke="#C76F36" stroke-width="1.33585" stroke-miterlimit="8" fill="#FFFFFF" fill-rule="evenodd"/><text font-family="Calibri,Calibri_MSFontService,sans-serif" font-weight="700" font-size="5" transform="translate(219.143 66)">INTERACTION</text><g clip-path="url(#clip4)"><g clip-path="url(#clip5)"><g clip-path="url(#clip6)"><path d="M1.125 4.12499C1.332 4.12499 1.5 3.95699 1.5 3.74999L1.5 2.24999 6.96973 2.24999 6.48486 2.73487C6.33823 2.88149 6.33823 3.11849 6.48486 3.26512 6.55798 3.33824 6.65398 3.37499 6.74998 3.37499 6.84598 3.37499 6.94198 3.33824 7.0151 3.26512L8.1401 2.14012C8.28673 1.99349 8.28673 1.75649 8.1401 1.60987L7.0151 0.484874C6.86848 0.338249 6.63148 0.338249 6.48486 0.484874 6.33823 0.631498 6.33823 0.868497 6.48486 1.01512L6.96973 1.5 1.125 1.5C0.917997 1.5 0.749998 1.66837 0.749998 1.87499L0.749998 3.74999C0.749998 3.95699 0.917997 4.12499 1.125 4.12499Z" transform="matrix(1.11111 0 -0 1 208 61)"/><path d="M7.87498 4.49999C7.6676 4.49999 7.49998 4.66761 7.49998 4.87499L7.49998 6.37498 2.03024 6.37498 2.51512 5.89011C2.66174 5.74348 2.66174 5.50648 2.51512 5.35986 2.36849 5.21323 2.13149 5.21323 1.98487 5.35986L0.859872 6.48486C0.713248 6.63148 0.713248 6.86848 0.859872 7.0151L1.98487 8.1401C2.05799 8.21323 2.15399 8.24998 2.24999 8.24998 2.34599 8.24998 2.44199 8.21323 2.51512 8.1401 2.66174 7.99348 2.66174 7.75648 2.51512 7.60985L2.03024 7.12498 7.87498 7.12498C8.08235 7.12498 8.24998 6.95735 8.24998 6.74998L8.24998 4.87499C8.24998 4.66761 8.08235 4.49999 7.87498 4.49999Z" transform="matrix(1.11111 0 -0 1 208 61)"/></g></g></g><path d="M214.5 126.667C214.5 126.022 215.022 125.5 215.667 125.5L247.333 125.5C247.978 125.5 248.5 126.022 248.5 126.667L248.5 131.333C248.5 131.978 247.978 132.5 247.333 132.5L215.667 132.5C215.022 132.5 214.5 131.978 214.5 131.333Z" stroke="#5AA203" stroke-width="1.33585" stroke-miterlimit="8" fill="#FFFFFF" fill-rule="evenodd"/><text font-family="Calibri,Calibri_MSFontService,sans-serif" font-weight="700" font-size="5" transform="translate(225.272 130)">OUTCOME</text><g clip-path="url(#clip7)"><g clip-path="url(#clip8)"><g clip-path="url(#clip9)"><path d="M7.3901 5.73486C7.24348 5.58823 7.00648 5.58823 6.85985 5.73486 6.71323 5.88148 6.71323 6.11848 6.85985 6.26511L7.34473 6.74998 4.45049 6.74998 5.56198 5.08349C5.64636 4.95711 5.64636 4.79399 5.56198 4.66761L4.20074 2.62499 7.34473 2.62499 6.85985 3.10987C6.71323 3.25649 6.71323 3.49349 6.85985 3.64011 6.93298 3.71324 7.02898 3.74999 7.12498 3.74999 7.22098 3.74999 7.31698 3.71324 7.3901 3.64011L8.5151 2.51512C8.66172 2.36849 8.66172 2.13149 8.5151 1.98487L7.3901 0.859872C7.24348 0.713248 7.00648 0.713248 6.85985 0.859872 6.71323 1.0065 6.71323 1.2435 6.85985 1.39012L7.34473 1.87499 3.74999 1.87499C3.73461 1.87499 3.72149 1.88249 3.70649 1.88362L3.31199 1.29187C3.17287 1.083 2.82712 1.083 2.68799 1.29187L0.437999 4.66686C0.353999 4.79286 0.353999 4.95674 0.437999 5.08274L2.68799 8.45773C2.75774 8.56273 2.87474 8.62497 2.99999 8.62497 3.12524 8.62497 3.24224 8.56273 3.31199 8.4581L3.95061 7.49998 7.34473 7.49998 6.85985 7.98485C6.71323 8.13148 6.71323 8.36847 6.85985 8.5151 6.93298 8.58823 7.02898 8.62497 7.12498 8.62497 7.22098 8.62497 7.31698 8.58823 7.3901 8.5151L8.5151 7.3901C8.66172 7.24348 8.66172 7.00648 8.5151 6.85985L7.3901 5.73486ZM2.99999 7.57385 1.20075 4.87499 2.99999 2.17649 4.79924 4.87499 2.99999 7.57385Z" transform="matrix(1.11111 0 -0 1 214 124)"/></g></g></g><path d="M224.5 190.5C224.5 189.948 224.948 189.5 225.5 189.5L247.5 189.5C248.052 189.5 248.5 189.948 248.5 190.5L248.5 194.5C248.5 195.052 248.052 195.5 247.5 195.5L225.5 195.5C224.948 195.5 224.5 195.052 224.5 194.5Z" stroke="#CEB023" stroke-width="1.33585" stroke-miterlimit="8" fill="#FFFFFF" fill-rule="evenodd"/><text font-family="Calibri,Calibri_MSFontService,sans-serif" font-weight="700" font-size="5" transform="translate(235.598 193)">ROLE</text><g clip-path="url(#clip10)"><g clip-path="url(#clip11)"><g clip-path="url(#clip12)"><path d="M4.50004 3.75003C3.87978 3.75003 3.37503 4.25479 3.37503 4.87504 3.37503 5.4953 3.87978 6.00005 4.50004 6.00005 5.1203 6.00005 5.62505 5.4953 5.62505 4.87504 5.62505 4.25479 5.1203 3.75003 4.50004 3.75003ZM4.50004 5.25005C4.29304 5.25005 4.12504 5.08204 4.12504 4.87504 4.12504 4.66842 4.29304 4.50004 4.50004 4.50004 4.70704 4.50004 4.87504 4.66842 4.87504 4.87504 4.87504 5.08204 4.70704 5.25005 4.50004 5.25005Z" transform="matrix(1 0 -0 1.11111 225 187)"/><path d="M7.87507 1.87502 5.62505 1.87502 5.62505 1.12501C5.62505 0.918008 5.45742 0.750007 5.25005 0.750007L3.75003 0.750007C3.54303 0.750007 3.37503 0.918008 3.37503 1.12501L3.37503 1.87502 1.12501 1.87502C0.918008 1.87502 0.750007 2.04302 0.750007 2.25002L0.750007 8.25007C0.750007 8.45745 0.918008 8.62508 1.12501 8.62508L7.87507 8.62508C8.08245 8.62508 8.25007 8.45745 8.25007 8.25007L8.25007 2.25002C8.25007 2.04302 8.08245 1.87502 7.87507 1.87502ZM4.12504 1.50001 4.87504 1.50001 4.87504 2.62502 4.12504 2.62502 4.12504 1.50001ZM5.62505 7.87507 3.37503 7.87507 3.37503 7.50007C3.37503 7.28969 3.53928 7.12506 3.74928 7.12506L5.2508 7.12506C5.4608 7.12506 5.62505 7.28969 5.62505 7.50007L5.62505 7.87507ZM7.50007 7.87507 6.37506 7.87507 6.37506 7.50007C6.37506 6.87981 5.8703 6.37506 5.2508 6.37506L3.74928 6.37506C3.1294 6.37506 2.62502 6.87981 2.62502 7.50007L2.62502 7.87507 1.50001 7.87507 1.50001 2.62502 3.37503 2.62502 3.37503 3.00003C3.37503 3.20703 3.54303 3.37503 3.75003 3.37503L5.25005 3.37503C5.45742 3.37503 5.62505 3.20703 5.62505 3.00003L5.62505 2.62502 7.50007 2.62502 7.50007 7.87507Z" transform="matrix(1 0 -0 1.11111 225 187)"/></g></g></g><path d="M165.848 125 203.152 125C208.038 125 212 128.134 212 132 212 135.866 208.038 139 203.152 139L165.848 139C160.962 139 157 135.866 157 132 157 128.134 160.962 125 165.848 125Z" fill="#313131" fill-rule="evenodd"/><text fill="#FFFFFF" font-family="Calibri,Calibri_MSFontService,sans-serif" font-weight="700" font-size="5" transform="translate(172.415 134)">|Commits&gt;</text><path d="M167.618 189 212.382 189C218.246 189 223 191.91 223 195.5 223 199.09 218.246 202 212.382 202L167.618 202C161.754 202 157 199.09 157 195.5 157 191.91 161.754 189 167.618 189Z" fill="#313131" fill-rule="evenodd"/><text fill="#FFFFFF" font-family="Calibri,Calibri_MSFontService,sans-serif" font-weight="700" font-size="5" transform="translate(172.582 197)">|Performed by&gt;</text><path d="M164.883 62 198.117 62C202.471 62 206 64.9102 206 68.5 206 72.0898 202.471 75 198.117 75L164.883 75C160.529 75 157 72.0898 157 68.5 157 64.9102 160.529 62 164.883 62Z" fill="#313131" fill-rule="evenodd"/><text fill="#FFFFFF" font-family="Calibri,Calibri_MSFontService,sans-serif" font-weight="700" font-size="5" transform="translate(165.235 71)">&lt;Proposed by|</text></g></svg>