<svg width="265" height="265" xmlns="http://www.w3.org/2000/svg" xmlns:xlink="http://www.w3.org/1999/xlink" overflow="hidden"><defs><clipPath id="clip0"><path d="M0 0 265 0 265 265 0 265Z" fill-rule="evenodd" clip-rule="evenodd"/></clipPath><clipPath id="clip1"><path d="M35 51 55 51 55 71 35 71Z" fill-rule="evenodd" clip-rule="evenodd"/></clipPath><clipPath id="clip2"><path d="M35 51 55 51 55 71 35 71Z" fill-rule="evenodd" clip-rule="evenodd"/></clipPath><clipPath id="clip3"><path d="M35 51 55 51 55 71 35 71Z" fill-rule="evenodd" clip-rule="evenodd"/></clipPath><clipPath id="clip4"><path d="M223 81 234 81 234 92 223 92Z" fill-rule="evenodd" clip-rule="evenodd"/></clipPath><clipPath id="clip5"><path d="M223 81 234 81 234 92 223 92Z" fill-rule="evenodd" clip-rule="evenodd"/></clipPath><clipPath id="clip6"><path d="M223 81 234 81 234 92 223 92Z" fill-rule="evenodd" clip-rule="evenodd"/></clipPath><clipPath id="clip7"><path d="M214 166 224 166 224 177 214 177Z" fill-rule="evenodd" clip-rule="evenodd"/></clipPath><clipPath id="clip8"><path d="M214 166 224 166 224 177 214 177Z" fill-rule="evenodd" clip-rule="evenodd"/></clipPath><clipPath id="clip9"><path d="M214 166 224 166 224 177 214 177Z" fill-rule="evenodd" clip-rule="evenodd"/></clipPath></defs><g clip-path="url(#clip0)"><rect x="0" y="0" width="265" height="265" fill="#313131"/><rect x="89.5" y="131.5" width="1.99999" height="1" stroke="#2F528F" stroke-width="1.33585" stroke-miterlimit="8" fill="#4472C4"/><path d="M23.5 9.75271C23.5 8.50859 24.5085 7.50003 25.7527 7.50003L249.247 7.50003C250.491 7.50003 251.5 8.50859 251.5 9.75271L251.5 249.247C251.5 250.491 250.491 251.5 249.247 251.5L25.7527 251.5C24.5085 251.5 23.5 250.491 23.5 249.247Z" stroke="#FF0000" stroke-width="0.667927" stroke-miterlimit="8" stroke-opacity="0" fill="none" fill-rule="evenodd"/><path d="M30.0794 43.5 149.921 43.5C153.002 43.5 155.5 45.998 155.5 49.0794L155.5 214.252C155.5 216.598 153.598 218.5 151.252 218.5L28.7483 218.5C26.402 218.5 24.5 216.598 24.5 214.252L24.5 49.0794C24.5 45.998 26.998 43.5 30.0794 43.5Z" stroke="#E6194B" stroke-width="4.67549" stroke-miterlimit="8" fill="#FFFFFF" fill-rule="evenodd"/><g clip-path="url(#clip1)"><g clip-path="url(#clip2)"><g clip-path="url(#clip3)"><path d="M51.625 65.4583 49.25 65.4583 49.25 53.5833C49.25 53.1463 48.8962 52.7916 48.4584 52.7916L37.375 52.7916C36.938 52.7916 36.5833 53.1463 36.5833 53.5833L36.5833 66.25C36.5833 68.4326 38.3591 70.2083 40.5417 70.2083L48.4584 70.2083C50.641 70.2083 52.4167 68.4326 52.4167 66.25 52.4167 65.8122 52.0628 65.4583 51.625 65.4583ZM38.1667 66.25 38.1667 54.375 47.6667 54.375 47.6667 65.4583 43.7084 65.4583C43.2714 65.4583 42.9167 65.8122 42.9167 66.25 42.9167 67.5594 41.8511 68.625 40.5417 68.625 39.2323 68.625 38.1667 67.5594 38.1667 66.25ZM48.4584 68.625 43.6886 68.625C44.0377 68.1627 44.3005 67.6299 44.4201 67.0417L50.6877 67.0417C50.3584 67.9608 49.4891 68.625 48.4584 68.625Z"/><path d="M40.5417 58.3333 45.2917 58.3333C45.7295 58.3333 46.0834 57.9786 46.0834 57.5416 46.0834 57.1046 45.7295 56.75 45.2917 56.75L40.5417 56.75C40.1047 56.75 39.75 57.1046 39.75 57.5416 39.75 57.9786 40.1047 58.3333 40.5417 58.3333Z"/><path d="M40.5417 61.5 43.7084 61.5C44.1461 61.5 44.5 61.1453 44.5 60.7083 44.5 60.2713 44.1461 59.9166 43.7084 59.9166L40.5417 59.9166C40.1047 59.9166 39.75 60.2713 39.75 60.7083 39.75 61.1453 40.1047 61.5 40.5417 61.5Z"/><path d="M45.2917 64.6666C45.7295 64.6666 46.0834 64.3128 46.0834 63.875 46.0834 63.4372 45.7295 63.0833 45.2917 63.0833L40.5417 63.0833C40.1047 63.0833 39.75 63.4372 39.75 63.875 39.75 64.3128 40.1047 64.6666 40.5417 64.6666L45.2917 64.6666Z"/></g></g></g><path d="M26.9702 6.36947C18.5628 6.36947 11.7473 10.3112 11.7473 15.1736L11.7473 248.948C11.7473 253.81 18.5628 257.752 26.9702 257.752L238.08 257.752C246.487 257.752 253.302 253.81 253.302 248.948L253.302 15.1736C253.302 10.3112 246.487 6.36947 238.08 6.36947ZM0 0 265 0 265 265 0 265Z" fill="#E6194B" fill-rule="evenodd"/><text font-family="Calibri,Calibri_MSFontService,sans-serif" font-weight="700" font-size="11" transform="translate(69.9551 63)">LEGISLATION<tspan font-size="9" x="-38.6648" y="68">Legislation</tspan><tspan font-weight="400" font-size="9" x="5.25143" y="68">is legally binding </tspan><tspan font-weight="400" font-size="9" x="-38.6648" y="79">Policy that has been </tspan><tspan font-weight="400" font-size="9" x="-38.6648" y="90">mandated by some governing </tspan><tspan font-weight="400" font-size="9" x="-38.6648" y="101">body.</tspan></text><path d="M223.5 84.5C223.5 83.9477 223.948 83.5 224.5 83.5L247.5 83.5C248.052 83.5 248.5 83.9477 248.5 84.5L248.5 88.5C248.5 89.0523 248.052 89.5 247.5 89.5L224.5 89.5C223.948 89.5 223.5 89.0523 223.5 88.5Z" stroke="#F58230" stroke-width="1.33585" stroke-miterlimit="8" fill="#FFFFFF" fill-rule="evenodd"/><text font-family="Calibri,Calibri_MSFontService,sans-serif" font-weight="700" font-size="5" transform="translate(234.738 87)">GOAL</text><g clip-path="url(#clip4)"><g clip-path="url(#clip5)"><g clip-path="url(#clip6)"><path d="M231.219 84.25 229.625 84.25 229.625 83.5 226.625 83.5 226.625 83.125C226.625 82.918 226.457 82.75 226.25 82.75 226.043 82.75 225.875 82.918 225.875 83.125L225.875 83.5 225.875 86.5 225.875 89.875C225.875 90.0824 226.043 90.25 226.25 90.25 226.457 90.25 226.625 90.0824 226.625 89.875L226.625 86.5 228.875 86.5 228.875 87.25 231.219 87.25C231.586 87.25 231.875 86.9204 231.875 86.5L231.875 85C231.875 84.5792 231.586 84.25 231.219 84.25ZM226.625 85.75 226.625 84.25 228.875 84.25 228.875 85.75 226.625 85.75ZM231.125 86.5 229.625 86.5 229.625 85 231.125 85 231.125 86.5Z"/></g></g></g><path d="M214.5 169.5C214.5 168.948 214.948 168.5 215.5 168.5L247.5 168.5C248.052 168.5 248.5 168.948 248.5 169.5L248.5 173.5C248.5 174.052 248.052 174.5 247.5 174.5L215.5 174.5C214.948 174.5 214.5 174.052 214.5 173.5Z" stroke="#E6BEFF" stroke-width="1.33585" stroke-miterlimit="8" fill="#FFFFFF" fill-rule="evenodd"/><text font-family="Calibri,Calibri_MSFontService,sans-serif" font-weight="700" font-size="5" transform="translate(225.612 172)">STRATEGY</text><g clip-path="url(#clip7)"><g clip-path="url(#clip8)"><g clip-path="url(#clip9)"><path d="M8.57585 8.06435 7.88885 5.99998 8.59872 3.86849C8.61035 3.83174 8.61635 3.79386 8.6171 3.75561 8.61672 3.75374 8.61747 3.75186 8.61747 3.74999 8.61747 3.74324 8.6141 3.73799 8.61372 3.73161 8.61222 3.70724 8.61222 3.68286 8.60585 3.65924L7.8566 0.659248C7.81498 0.491999 7.66535 0.374999 7.4936 0.374999L0.749623 0.374999C0.634123 0.374999 0.524998 0.428249 0.454499 0.519373 0.383624 0.610498 0.358124 0.728998 0.386249 0.841123L1.10925 3.73499 0.394499 5.88148C0.368999 5.95836 0.368999 6.04198 0.394499 6.11886L1.14375 8.36885C1.19475 8.52185 1.33725 8.62497 1.49925 8.62497L8.24323 8.62497C8.24623 8.62535 8.24923 8.62497 8.25073 8.62497 8.45773 8.62497 8.62497 8.45735 8.62497 8.24998 8.62497 8.18248 8.60735 8.11873 8.57585 8.06435ZM1.76924 7.87498 1.26975 6.37498 2.24812 6.37498C2.45474 6.37498 2.62274 6.20736 2.62274 5.99998 2.62274 5.79261 2.45474 5.62498 2.24812 5.62498L1.26975 5.62498 1.76924 4.12499 3.38737 4.12499C3.59399 4.12499 3.76236 3.95699 3.76236 3.74999 3.76236 3.54299 3.59436 3.37499 3.38737 3.37499L1.79174 3.37499 1.22962 1.125 7.20073 1.125 7.76285 3.37499 7.11898 3.37499C6.9116 3.37499 6.74436 3.54299 6.74436 3.74999 6.74436 3.95699 6.9116 4.12499 7.11898 4.12499L7.72235 4.12499 7.22323 5.62498 5.99473 5.62498C5.78773 5.62498 5.62011 5.79261 5.62011 5.99998 5.62011 6.20736 5.78773 6.37498 5.99473 6.37498L7.22323 6.37498 7.72235 7.87498 1.76924 7.87498Z" transform="matrix(1 0 -0 1.11111 215 166)"/><path d="M3.93449 5.62498C3.41811 5.62498 2.99774 6.04536 2.99774 6.56248 2.99774 7.0796 3.41811 7.49998 3.93449 7.49998 4.45086 7.49998 4.87124 7.0796 4.87124 6.56248 4.87124 6.04536 4.45086 5.62498 3.93449 5.62498ZM3.93449 6.74998C3.83099 6.74998 3.74699 6.66561 3.74699 6.56248 3.74699 6.45936 3.83099 6.37498 3.93449 6.37498 4.03761 6.37498 4.12199 6.45936 4.12199 6.56248 4.12199 6.66561 4.03761 6.74998 3.93449 6.74998Z" transform="matrix(1 0 -0 1.11111 215 166)"/><path d="M6.25986 2.73487 5.51061 1.98487C5.36398 1.83824 5.12699 1.83824 4.98074 1.98487 4.83411 2.13149 4.83411 2.36849 4.98074 2.51512L5.52411 3.05887 4.56224 4.67736C4.45649 4.85549 4.51461 5.08499 4.69349 5.19148 4.75311 5.22748 4.81911 5.24436 4.88436 5.24436 5.01224 5.24436 5.13673 5.17911 5.20611 5.06136L6.31723 3.19237C6.40461 3.04424 6.38061 2.85599 6.25986 2.73487Z" transform="matrix(1 0 -0 1.11111 215 166)"/><path d="M4.12161 2.62499 4.12161 1.87499C4.12161 1.668 3.95361 1.5 3.74699 1.5L2.99774 1.5C2.79074 1.5 2.62312 1.668 2.62312 1.87499L2.62312 2.62499C2.62312 2.83199 2.79112 2.99999 2.99774 2.99999L3.74736 2.99999C3.95361 2.99999 4.12161 2.83199 4.12161 2.62499Z" transform="matrix(1 0 -0 1.11111 215 166)"/></g></g></g><path d="M167.457 83 211.543 83C217.318 83 222 86.134 222 90 222 93.866 217.318 97 211.543 97L167.457 97C161.682 97 157 93.866 157 90 157 86.134 161.682 83 167.457 83Z" fill="#313131" fill-rule="evenodd"/><text fill="#FFFFFF" font-family="Calibri,Calibri_MSFontService,sans-serif" font-weight="700" font-size="5" transform="translate(174.335 92)">&lt;Directed by|</text><path d="M165.848 168 203.152 168C208.038 168 212 170.91 212 174.5 212 178.09 208.038 181 203.152 181L165.848 181C160.962 181 157 178.09 157 174.5 157 170.91 160.962 168 165.848 168Z" fill="#313131" fill-rule="evenodd"/><text fill="#FFFFFF" font-family="Calibri,Calibri_MSFontService,sans-serif" font-weight="700" font-size="5" transform="translate(173.167 176)">|Governs&gt;</text></g></svg>