<svg width="189" height="189" xmlns="http://www.w3.org/2000/svg" xmlns:xlink="http://www.w3.org/1999/xlink" overflow="hidden"><defs><clipPath id="clip0"><path d="M0 0 189 0 189 189 0 189Z" fill-rule="evenodd" clip-rule="evenodd"/></clipPath><clipPath id="clip1"><path d="M3 3 47 3 47 48 3 48Z" fill-rule="evenodd" clip-rule="evenodd"/></clipPath><clipPath id="clip2"><path d="M3 3 47 3 47 48 3 48Z" fill-rule="evenodd" clip-rule="evenodd"/></clipPath><clipPath id="clip3"><path d="M3 3 47 3 47 48 3 48Z" fill-rule="evenodd" clip-rule="evenodd"/></clipPath></defs><g clip-path="url(#clip0)"><rect x="0" y="0" width="189" height="189" fill="#313131"/><text fill="#FFFFFF" font-family="Calibri,Calibri_MSFontService,sans-serif" font-weight="300" font-size="11" transform="translate(9.60032 -5)">INITIATIVE</text><rect x="3.50005" y="3.50005" width="1" height="1" stroke="#2F528F" stroke-width="1.33333" stroke-miterlimit="8" fill="#4472C4"/><rect x="0" y="0" width="189" height="189" stroke="#46F0F0" stroke-width="8" stroke-miterlimit="8" fill="#FFFFFF"/><g clip-path="url(#clip1)"><g clip-path="url(#clip2)"><g clip-path="url(#clip3)"><path d="M18.3333 23.342C22.3758 23.342 25.6667 20.1337 25.6667 16.1883 25.6667 12.2412 22.3758 9.03283 18.3333 9.03283 14.289 9.03283 11 12.243 11 16.1883 11 20.1337 14.289 23.342 18.3333 23.342ZM18.3333 12.6115C20.3573 12.6115 22 14.2157 22 16.1902 22 18.1647 20.3573 19.7688 18.3333 19.7688 16.3112 19.7688 14.6667 18.1647 14.6667 16.1902 14.6667 14.2157 16.3112 12.6115 18.3333 12.6115Z" transform="matrix(1 0 -0 1.02273 3 3)"/><path d="M36.6667 3.66667C35.6528 3.66667 34.8333 4.46783 34.8333 5.456L34.8333 17.3158 34.8333 17.9777 34.8333 18.1372C34.8333 23.0102 30.7743 26.9738 25.784 26.9738L18.216 26.9738C11.2035 26.9757 5.5 32.1658 5.5 38.5422 5.5 39.5303 6.32133 40.3333 7.33333 40.3333 8.34533 40.3333 9.16667 39.5303 9.16667 38.5422 9.16667 34.1385 13.2257 30.5525 18.216 30.5525L25.784 30.5525C32.7947 30.5525 38.5018 24.9847 38.5018 18.139L38.5018 17.9777 38.5018 17.3158 38.5018 5.456C38.5 4.46783 37.6805 3.66667 36.6667 3.66667Z" transform="matrix(1 0 -0 1.02273 3 3)"/><path d="M29.3333 32.2868C28.3195 32.2868 27.5 33.0898 27.5 34.0798L27.5 37.6567C27.5 38.6448 28.3195 39.446 29.3333 39.446 30.3472 39.446 31.1667 38.6448 31.1667 37.6567L31.1667 34.0798C31.1667 33.0898 30.3472 32.2868 29.3333 32.2868Z" transform="matrix(1 0 -0 1.02273 3 3)"/></g></g></g><text font-family="Calibri,Calibri_MSFontService,sans-serif" font-weight="700" font-size="20" transform="translate(73.4915 23)">INITIATIVE<tspan font-weight="400" font-size="12" x="-66.9525" y="86">A planned series of events or </tspan><tspan font-weight="400" font-size="12" x="-66.9525" y="101">programmes intended to bring </tspan><tspan font-weight="400" font-size="12" x="-66.9525" y="115">about some desired outcome.</tspan></text></g></svg>