<svg width="265" height="265" xmlns="http://www.w3.org/2000/svg" xmlns:xlink="http://www.w3.org/1999/xlink" overflow="hidden"><defs><clipPath id="clip0"><path d="M0 0 265 0 265 265 0 265Z" fill-rule="evenodd" clip-rule="evenodd"/></clipPath><clipPath id="clip1"><path d="M35 51 55 51 55 71 35 71Z" fill-rule="evenodd" clip-rule="evenodd"/></clipPath><clipPath id="clip2"><path d="M35 51 55 51 55 71 35 71Z" fill-rule="evenodd" clip-rule="evenodd"/></clipPath><clipPath id="clip3"><path d="M35 51 55 51 55 71 35 71Z" fill-rule="evenodd" clip-rule="evenodd"/></clipPath><clipPath id="clip4"><path d="M223 81 234 81 234 92 223 92Z" fill-rule="evenodd" clip-rule="evenodd"/></clipPath><clipPath id="clip5"><path d="M223 81 234 81 234 92 223 92Z" fill-rule="evenodd" clip-rule="evenodd"/></clipPath><clipPath id="clip6"><path d="M223 81 234 81 234 92 223 92Z" fill-rule="evenodd" clip-rule="evenodd"/></clipPath><clipPath id="clip7"><path d="M214 166 224 166 224 177 214 177Z" fill-rule="evenodd" clip-rule="evenodd"/></clipPath><clipPath id="clip8"><path d="M214 166 224 166 224 177 214 177Z" fill-rule="evenodd" clip-rule="evenodd"/></clipPath><clipPath id="clip9"><path d="M214 166 224 166 224 177 214 177Z" fill-rule="evenodd" clip-rule="evenodd"/></clipPath></defs><g clip-path="url(#clip0)"><rect x="0" y="0" width="265" height="265" fill="#313131"/><rect x="89.5" y="131.5" width="1.99999" height="1" stroke="#2F528F" stroke-width="1.33585" stroke-miterlimit="8" fill="#4472C4"/><path d="M23.5 9.75271C23.5 8.50859 24.5085 7.50003 25.7527 7.50003L249.247 7.50003C250.491 7.50003 251.5 8.50859 251.5 9.75271L251.5 249.247C251.5 250.491 250.491 251.5 249.247 251.5L25.7527 251.5C24.5085 251.5 23.5 250.491 23.5 249.247Z" stroke="#FF0000" stroke-width="0.667927" stroke-miterlimit="8" stroke-opacity="0" fill="none" fill-rule="evenodd"/><path d="M30.0794 43.5 149.921 43.5C153.002 43.5 155.5 45.998 155.5 49.0794L155.5 214.252C155.5 216.598 153.598 218.5 151.252 218.5L28.7483 218.5C26.402 218.5 24.5 216.598 24.5 214.252L24.5 49.0794C24.5 45.998 26.998 43.5 30.0794 43.5Z" stroke="#46F0F0" stroke-width="4.67549" stroke-miterlimit="8" fill="#FFFFFF" fill-rule="evenodd"/><g clip-path="url(#clip1)"><g clip-path="url(#clip2)"><g clip-path="url(#clip3)"><path d="M52.4167 68.625 50.8334 68.625 50.8334 56.9439 44.5 53.4725 38.1667 56.9439 38.1667 68.625 36.5833 68.625C36.1463 68.625 35.7917 68.9789 35.7917 69.4167 35.7917 69.8545 36.1463 70.2083 36.5833 70.2083L38.1667 70.2083 50.8334 70.2083 52.4167 70.2083C52.8545 70.2083 53.2084 69.8545 53.2084 69.4167 53.2084 68.9789 52.8545 68.625 52.4167 68.625ZM39.75 57.8813 43.7084 55.7113 43.7084 68.625 39.75 68.625 39.75 57.8813ZM45.2917 68.625 45.2917 55.7113 49.25 57.8813 49.25 68.625 45.2917 68.625Z"/></g></g></g><path d="M26.9702 6.36947C18.5628 6.36947 11.7473 10.3112 11.7473 15.1736L11.7473 248.948C11.7473 253.81 18.5628 257.752 26.9702 257.752L238.08 257.752C246.487 257.752 253.302 253.81 253.302 248.948L253.302 15.1736C253.302 10.3112 246.487 6.36947 238.08 6.36947ZM0 0 265 0 265 265 0 265Z" fill="#46F0F0" fill-rule="evenodd"/><text font-family="Calibri,Calibri_MSFontService,sans-serif" font-weight="700" font-size="11" transform="translate(73.0442 63)">MILESTONE<tspan font-weight="400" font-size="9" x="-41.7539" y="68">A project </tspan><tspan font-size="9" x="-4.85094" y="68">Milestone</tspan><tspan font-weight="400" font-size="9" x="36.3936" y="68">is a task </tspan><tspan font-weight="400" font-size="9" x="-41.7539" y="79">of zero duration that shows </tspan><tspan font-weight="400" font-size="9" x="-41.7539" y="90">an important achievement in </tspan><tspan font-weight="400" font-size="9" x="-41.7539" y="101">an </tspan><tspan font-size="9" x="-30.2322" y="101">Initiative</tspan><tspan font-weight="400" font-size="9" x="6.50382" y="101">or a </tspan><tspan font-size="9" x="23.7029" y="101">Project</tspan><tspan font-weight="400" font-size="9" x="51.0879" y="101">. </tspan></text><path d="M223.5 84.5C223.5 83.9477 223.948 83.5 224.5 83.5L247.5 83.5C248.052 83.5 248.5 83.9477 248.5 84.5L248.5 88.5C248.5 89.0523 248.052 89.5 247.5 89.5L224.5 89.5C223.948 89.5 223.5 89.0523 223.5 88.5Z" stroke="#F58230" stroke-width="1.33585" stroke-miterlimit="8" fill="#FFFFFF" fill-rule="evenodd"/><text font-family="Calibri,Calibri_MSFontService,sans-serif" font-weight="700" font-size="5" transform="translate(234.738 87)">GOAL</text><g clip-path="url(#clip4)"><g clip-path="url(#clip5)"><g clip-path="url(#clip6)"><path d="M231.219 84.25 229.625 84.25 229.625 83.5 226.625 83.5 226.625 83.125C226.625 82.918 226.457 82.75 226.25 82.75 226.043 82.75 225.875 82.918 225.875 83.125L225.875 83.5 225.875 86.5 225.875 89.875C225.875 90.0824 226.043 90.25 226.25 90.25 226.457 90.25 226.625 90.0824 226.625 89.875L226.625 86.5 228.875 86.5 228.875 87.25 231.219 87.25C231.586 87.25 231.875 86.9204 231.875 86.5L231.875 85C231.875 84.5792 231.586 84.25 231.219 84.25ZM226.625 85.75 226.625 84.25 228.875 84.25 228.875 85.75 226.625 85.75ZM231.125 86.5 229.625 86.5 229.625 85 231.125 85 231.125 86.5Z"/></g></g></g><path d="M214.5 169.5C214.5 168.948 214.948 168.5 215.5 168.5L247.5 168.5C248.052 168.5 248.5 168.948 248.5 169.5L248.5 173.5C248.5 174.052 248.052 174.5 247.5 174.5L215.5 174.5C214.948 174.5 214.5 174.052 214.5 173.5Z" stroke="#46F0F0" stroke-width="1.33585" stroke-miterlimit="8" fill="#FFFFFF" fill-rule="evenodd"/><text font-family="Calibri,Calibri_MSFontService,sans-serif" font-weight="700" font-size="5" transform="translate(225.442 172)">INITIATIVE</text><g clip-path="url(#clip7)"><g clip-path="url(#clip8)"><g clip-path="url(#clip9)"><path d="M3.74999 4.77449C4.57686 4.77449 5.24998 4.11824 5.24998 3.31124 5.24998 2.50387 4.57686 1.84762 3.74999 1.84762 2.92274 1.84762 2.24999 2.50424 2.24999 3.31124 2.24999 4.11824 2.92274 4.77449 3.74999 4.77449ZM3.74999 2.57962C4.16399 2.57962 4.49999 2.90774 4.49999 3.31162 4.49999 3.71549 4.16399 4.04361 3.74999 4.04361 3.33637 4.04361 2.99999 3.71549 2.99999 3.31162 2.99999 2.90774 3.33637 2.57962 3.74999 2.57962Z" transform="matrix(1 0 -0 1.11111 215 166)"/><path d="M7.49998 0.749998C7.2926 0.749998 7.12498 0.913872 7.12498 1.116L7.12498 3.54186 7.12498 3.67724 7.12498 3.70986C7.12498 4.70661 6.29473 5.51736 5.27398 5.51736L3.72599 5.51736C2.29162 5.51773 1.125 6.57936 1.125 7.8836 1.125 8.08573 1.293 8.24998 1.5 8.24998 1.707 8.24998 1.87499 8.08573 1.87499 7.8836 1.87499 6.98285 2.70524 6.24936 3.72599 6.24936L5.27398 6.24936C6.70798 6.24936 7.87535 5.11049 7.87535 3.71024L7.87535 3.67724 7.87535 3.54186 7.87535 1.116C7.87498 0.913872 7.70735 0.749998 7.49998 0.749998Z" transform="matrix(1 0 -0 1.11111 215 166)"/><path d="M5.99998 6.60411C5.79261 6.60411 5.62498 6.76835 5.62498 6.97085L5.62498 7.70248C5.62498 7.9046 5.79261 8.06848 5.99998 8.06848 6.20736 8.06848 6.37498 7.9046 6.37498 7.70248L6.37498 6.97085C6.37498 6.76835 6.20736 6.60411 5.99998 6.60411Z" transform="matrix(1 0 -0 1.11111 215 166)"/></g></g></g><path d="M167.457 83 211.543 83C217.318 83 222 86.134 222 90 222 93.866 217.318 97 211.543 97L167.457 97C161.682 97 157 93.866 157 90 157 86.134 161.682 83 167.457 83Z" fill="#313131" fill-rule="evenodd"/><text fill="#FFFFFF" font-family="Calibri,Calibri_MSFontService,sans-serif" font-weight="700" font-size="5" transform="translate(175.588 92)">&lt;Feature of|</text><path d="M165.848 168 203.152 168C208.038 168 212 170.91 212 174.5 212 178.09 208.038 181 203.152 181L165.848 181C160.962 181 157 178.09 157 174.5 157 170.91 160.962 168 165.848 168Z" fill="#313131" fill-rule="evenodd"/><text fill="#FFFFFF" font-family="Calibri,Calibri_MSFontService,sans-serif" font-weight="700" font-size="5" transform="translate(170.328 176)">&lt;Associated|</text></g></svg>