<svg width="189" height="189" xmlns="http://www.w3.org/2000/svg" xmlns:xlink="http://www.w3.org/1999/xlink" overflow="hidden"><defs><clipPath id="clip0"><path d="M0 0 189 0 189 189 0 189Z" fill-rule="evenodd" clip-rule="evenodd"/></clipPath><clipPath id="clip1"><path d="M51 10 132 10 132 91 51 91Z" fill-rule="evenodd" clip-rule="evenodd"/></clipPath><clipPath id="clip2"><path d="M51 10 132 10 132 91 51 91Z" fill-rule="evenodd" clip-rule="evenodd"/></clipPath><clipPath id="clip3"><path d="M51 10 132 10 132 91 51 91Z" fill-rule="evenodd" clip-rule="evenodd"/></clipPath></defs><g clip-path="url(#clip0)"><rect x="0" y="0" width="189" height="189" fill="#313131"/><text fill="#FFFFFF" font-family="Calibri,Calibri_MSFontService,sans-serif" font-weight="300" font-size="11" transform="translate(9.60032 -5)">RISK</text><rect x="51.5001" y="10.5001" width="1" height="1" stroke="#2F528F" stroke-width="1.33333" stroke-miterlimit="8" fill="#4472C4"/><path d="M8.5495 0.500053 181.451 0.500053C185.896 0.500053 189.5 4.10391 189.5 8.5495L189.5 183.371C189.5 186.756 186.756 189.5 183.371 189.5L6.62932 189.5C3.24422 189.5 0.500053 186.756 0.500053 183.371L0.500053 8.5495C0.500053 4.10391 4.10391 0.500053 8.5495 0.500053Z" stroke="#D2F53C" stroke-width="4.66667" stroke-miterlimit="8" fill="#FFFFFF" fill-rule="evenodd"/><g clip-path="url(#clip1)"><g clip-path="url(#clip2)"><g clip-path="url(#clip3)"><path d="M113.353 51.5969C114.872 57.7562 108.544 63.8312 102.3 61.3 97.0687 59.4437 95.0437 53.3688 98.6719 48.1375 106.856 37.2531 100.866 20.125 87.2813 14.2188 93.4406 25.8625 83.9906 36.5781 78.5906 41.05 73.1906 45.5219 69.5625 50.1625 68.4656 52.8625 62.9813 66.1937 71.1656 78.9344 76.7344 81.9719 74.2031 76.2344 71.8406 65.2656 81.7969 54.9719 81.7969 54.9719 78.9281 65.9406 85.1719 73.5344 91.4156 81.1281 91.3313 86.7813 91.3313 86.7813 101.034 86.7813 110.231 80.9594 114.113 71.425 117.066 65.7719 117.319 56.8281 113.353 51.5969"/></g></g></g><text font-family="Calibri,Calibri_MSFontService,sans-serif" font-weight="700" font-size="24" transform="translate(73.1422 126)">RISK</text></g></svg>