<svg width="96" height="96" xmlns="http://www.w3.org/2000/svg" xmlns:xlink="http://www.w3.org/1999/xlink" overflow="hidden"><defs><clipPath id="clip0"><path d="M0 0 96 0 96 96 0 96Z" fill-rule="evenodd" clip-rule="evenodd"/></clipPath><clipPath id="clip1"><path d="M26 5 67 5 67 46 26 46Z" fill-rule="evenodd" clip-rule="evenodd"/></clipPath><clipPath id="clip2"><path d="M26 5 67 5 67 46 26 46Z" fill-rule="evenodd" clip-rule="evenodd"/></clipPath><clipPath id="clip3"><path d="M26 5 67 5 67 46 26 46Z" fill-rule="evenodd" clip-rule="evenodd"/></clipPath></defs><g clip-path="url(#clip0)"><path d="M0 0 96 0 96 96 0 96Z" fill="#313131" fill-rule="evenodd"/><text fill="#FFFFFF" font-family="Calibri,Calibri_MSFontService,sans-serif" font-weight="300" font-size="5" transform="translate(9.60011 -3)">STRATEGY</text><rect x="26.5001" y="5.50005" width="1" height="1" stroke="#2F528F" stroke-width="1.33333" stroke-miterlimit="8" fill="#4472C4"/><path d="M4.58866 0.500053 92.4114 0.500053C94.6695 0.500053 96.5001 2.33059 96.5001 4.58866L96.5001 93.3868C96.5001 95.1062 95.1062 96.5001 93.3868 96.5001L3.61333 96.5001C1.89392 96.5001 0.500053 95.1062 0.500053 93.3868L0.500053 4.58866C0.500053 2.33059 2.33059 0.500053 4.58866 0.500053Z" stroke="#E6BEFF" stroke-width="4.66667" stroke-miterlimit="8" fill="#FFFFFF" fill-rule="evenodd"/><g clip-path="url(#clip1)"><g clip-path="url(#clip2)"><g clip-path="url(#clip3)"><path d="M65.0679 41.7377 61.9382 32.3333 65.1721 22.6232C65.225 22.4558 65.2524 22.2832 65.2558 22.109 65.2541 22.1004 65.2575 22.0919 65.2575 22.0833 65.2575 22.0526 65.2421 22.0287 65.2404 21.9996 65.2336 21.8886 65.2336 21.7775 65.2045 21.6699L61.7913 8.00325C61.6017 7.24133 60.92 6.70833 60.1376 6.70833L29.415 6.70833C28.8888 6.70833 28.3917 6.95092 28.0705 7.36604 27.7476 7.78117 27.6315 8.321 27.7596 8.83179L31.0532 22.015 27.7972 31.7935C27.681 32.1437 27.681 32.5247 27.7972 32.8749L31.2104 43.1249C31.4428 43.8219 32.0919 44.2917 32.8299 44.2917L63.5526 44.2917C63.5662 44.2934 63.5799 44.2917 63.5868 44.2917 64.5298 44.2917 65.2917 43.528 65.2917 42.5833 65.2917 42.2758 65.2114 41.9854 65.0679 41.7377ZM34.0599 40.875 31.7844 34.0417 36.2415 34.0417C37.1828 34.0417 37.9481 33.278 37.9481 32.3333 37.9481 31.3886 37.1828 30.625 36.2415 30.625L31.7844 30.625 34.0599 23.7917 41.4314 23.7917C42.3727 23.7917 43.1397 23.0263 43.1397 22.0833 43.1397 21.1403 42.3744 20.375 41.4314 20.375L34.1624 20.375 31.6016 10.125 58.8034 10.125 61.3642 20.375 58.431 20.375C57.4863 20.375 56.7244 21.1403 56.7244 22.0833 56.7244 23.0263 57.4863 23.7917 58.431 23.7917L61.1797 23.7917 58.9059 30.625 53.3094 30.625C52.3664 30.625 51.6028 31.3886 51.6028 32.3333 51.6028 33.278 52.3664 34.0417 53.3094 34.0417L58.9059 34.0417 61.1797 40.875 34.0599 40.875Z"/><path d="M43.9238 30.625C41.5715 30.625 39.6564 32.54 39.6564 34.8958 39.6564 37.2516 41.5715 39.1667 43.9238 39.1667 46.2762 39.1667 48.1912 37.2516 48.1912 34.8958 48.1912 32.54 46.2762 30.625 43.9238 30.625ZM43.9238 35.75C43.4523 35.75 43.0697 35.3656 43.0697 34.8958 43.0697 34.426 43.4523 34.0417 43.9238 34.0417 44.3936 34.0417 44.778 34.426 44.778 34.8958 44.778 35.3656 44.3936 35.75 43.9238 35.75Z"/><path d="M54.5172 17.4589 51.104 14.0422C50.436 13.3743 49.3563 13.3743 48.6901 14.0422 48.0221 14.7102 48.0221 15.7898 48.6901 16.4578L51.1655 18.9349 46.7836 26.308C46.3018 27.1195 46.5666 28.165 47.3815 28.6502 47.6531 28.8142 47.9538 28.891 48.251 28.891 48.8336 28.891 49.4007 28.5938 49.7168 28.0574L54.7786 19.543C55.1766 18.8683 55.0673 18.0107 54.5172 17.4589Z"/><path d="M44.7763 16.9583 44.7763 13.5417C44.7763 12.5987 44.011 11.8333 43.0697 11.8333L39.6564 11.8333C38.7134 11.8333 37.9498 12.5987 37.9498 13.5417L37.9498 16.9583C37.9498 17.9013 38.7151 18.6667 39.6564 18.6667L43.0714 18.6667C44.011 18.6667 44.7763 17.9013 44.7763 16.9583Z"/></g></g></g><text font-family="Calibri,Calibri_MSFontService,sans-serif" font-weight="700" transform="translate(22.5339 66)">STRATEGY</text></g></svg>