<svg width="189" height="189" xmlns="http://www.w3.org/2000/svg" xmlns:xlink="http://www.w3.org/1999/xlink" overflow="hidden"><defs><clipPath id="clip0"><path d="M0 0 189 0 189 189 0 189Z" fill-rule="evenodd" clip-rule="evenodd"/></clipPath><clipPath id="clip1"><path d="M51 10 132 10 132 91 51 91Z" fill-rule="evenodd" clip-rule="evenodd"/></clipPath><clipPath id="clip2"><path d="M51 10 132 10 132 91 51 91Z" fill-rule="evenodd" clip-rule="evenodd"/></clipPath><clipPath id="clip3"><path d="M51 10 132 10 132 91 51 91Z" fill-rule="evenodd" clip-rule="evenodd"/></clipPath></defs><g clip-path="url(#clip0)"><rect x="0" y="0" width="189" height="189" fill="#313131"/><text fill="#FFFFFF" font-family="Calibri,Calibri_MSFontService,sans-serif" font-weight="300" font-size="11" transform="translate(9.60032 -5)">PROJECT TASK</text><rect x="51.5001" y="10.5001" width="1" height="1" stroke="#2F528F" stroke-width="1.33333" stroke-miterlimit="8" fill="#4472C4"/><path d="M8.5495 0.500053 181.451 0.500053C185.896 0.500053 189.5 4.10391 189.5 8.5495L189.5 183.371C189.5 186.756 186.756 189.5 183.371 189.5L6.62932 189.5C3.24422 189.5 0.500053 186.756 0.500053 183.371L0.500053 8.5495C0.500053 4.10391 4.10391 0.500053 8.5495 0.500053Z" stroke="#46F0F0" stroke-width="4.66667" stroke-miterlimit="8" fill="#FFFFFF" fill-rule="evenodd"/><g clip-path="url(#clip1)"><g clip-path="url(#clip2)"><g clip-path="url(#clip3)"><path d="M91.7565 61.9683 91.7632 61.975 108.375 44.695 104.224 40.375 91.7565 53.335 85.5262 46.855 81.375 51.175 91.7565 61.975Z"/><path d="M118.5 16.75 67.875 16.75C66.012 16.75 64.5 18.262 64.5 20.125L64.5 33.625 61.125 33.625C59.262 33.625 57.75 35.137 57.75 37 57.75 38.863 59.262 40.375 61.125 40.375L64.5 40.375 64.5 47.125 61.125 47.125C59.262 47.125 57.75 48.637 57.75 50.5 57.75 52.3664 59.262 53.875 61.125 53.875L64.5 53.875 64.5 60.625 61.125 60.625C59.262 60.625 57.75 62.1336 57.75 64 57.75 65.8664 59.262 67.375 61.125 67.375L64.5 67.375 64.5 80.875C64.5 82.7414 66.012 84.25 67.875 84.25L118.5 84.25C120.366 84.25 121.875 82.7414 121.875 80.875L121.875 20.125C121.875 18.262 120.366 16.75 118.5 16.75ZM115.125 77.5 71.25 77.5 71.25 67.375 74.625 67.375C76.488 67.375 78 65.8664 78 64 78 62.1336 76.488 60.625 74.625 60.625L71.25 60.625 71.25 53.875 74.625 53.875C76.488 53.875 78 52.3664 78 50.5 78 48.637 76.488 47.125 74.625 47.125L71.25 47.125 71.25 40.375 74.625 40.375C76.488 40.375 78 38.863 78 37 78 35.137 76.488 33.625 74.625 33.625L71.25 33.625 71.25 23.5 115.125 23.5 115.125 77.5Z"/></g></g></g><text font-family="Calibri,Calibri_MSFontService,sans-serif" font-weight="700" font-size="24" transform="translate(25.9222 126)">PROJECT TASK</text></g></svg>