<svg width="96" height="96" xmlns="http://www.w3.org/2000/svg" xmlns:xlink="http://www.w3.org/1999/xlink" overflow="hidden"><defs><clipPath id="clip0"><path d="M0 0 96 0 96 96 0 96Z" fill-rule="evenodd" clip-rule="evenodd"/></clipPath><clipPath id="clip1"><path d="M26 5 67 5 67 46 26 46Z" fill-rule="evenodd" clip-rule="evenodd"/></clipPath><clipPath id="clip2"><path d="M26 5 67 5 67 46 26 46Z" fill-rule="evenodd" clip-rule="evenodd"/></clipPath><clipPath id="clip3"><path d="M26 5 67 5 67 46 26 46Z" fill-rule="evenodd" clip-rule="evenodd"/></clipPath></defs><g clip-path="url(#clip0)"><path d="M0 0 96 0 96 96 0 96Z" fill="#313131" fill-rule="evenodd"/><text fill="#FFFFFF" font-family="Calibri,Calibri_MSFontService,sans-serif" font-weight="300" font-size="5" transform="translate(9.60011 -3)">RECORD</text><rect x="26.5001" y="5.50005" width="1" height="1" stroke="#2F528F" stroke-width="1.33333" stroke-miterlimit="8" fill="#4472C4"/><path d="M4.58866 0.500053 92.4114 0.500053C94.6695 0.500053 96.5001 2.33059 96.5001 4.58866L96.5001 93.3868C96.5001 95.1062 95.1062 96.5001 93.3868 96.5001L3.61333 96.5001C1.89392 96.5001 0.500053 95.1062 0.500053 93.3868L0.500053 4.58866C0.500053 2.33059 2.33059 0.500053 4.58866 0.500053Z" stroke="#B74D41" stroke-width="4.66667" stroke-miterlimit="8" fill="#FFFFFF" fill-rule="evenodd"/><g clip-path="url(#clip1)"><g clip-path="url(#clip2)"><g clip-path="url(#clip3)"><path d="M43.0833 42.5833 32.8333 42.5833C31.8903 42.5833 31.125 41.8197 31.125 40.875L31.125 10.125C31.125 9.182 31.8903 8.41667 32.8333 8.41667L43.0833 8.41667C44.028 8.41667 44.7917 9.182 44.7917 10.125L44.7917 40.875C44.7917 41.8197 44.028 42.5833 43.0833 42.5833ZM34.5417 39.1667 41.375 39.1667 41.375 11.8333 34.5417 11.8333 34.5417 39.1667Z"/><path d="M60.1667 42.5833 49.9167 42.5833C48.972 42.5833 48.2083 41.8197 48.2083 40.875L48.2083 10.125C48.2083 9.182 48.972 8.41667 49.9167 8.41667L60.1667 8.41667C61.1114 8.41667 61.875 9.182 61.875 10.125L61.875 40.875C61.875 41.8197 61.1114 42.5833 60.1667 42.5833ZM51.625 39.1667 58.4583 39.1667 58.4583 11.8333 51.625 11.8333 51.625 39.1667Z"/><path d="M36.25 25.5 39.6667 25.5 39.6667 28.9167 36.25 28.9167Z"/><path d="M36.25 32.3333 39.6667 32.3333 39.6667 35.75 36.25 35.75Z"/><path d="M53.3333 25.5 56.75 25.5 56.75 28.9167 53.3333 28.9167Z"/><path d="M53.3333 32.3333 56.75 32.3333 56.75 35.75 53.3333 35.75Z"/><path d="M56.75 16.9583C56.75 17.9018 55.9852 18.6667 55.0417 18.6667 54.0982 18.6667 53.3333 17.9018 53.3333 16.9583 53.3333 16.0148 54.0982 15.25 55.0417 15.25 55.9852 15.25 56.75 16.0148 56.75 16.9583Z"/><path d="M39.6667 16.9583C39.6667 17.9018 38.9018 18.6667 37.9583 18.6667 37.0148 18.6667 36.25 17.9018 36.25 16.9583 36.25 16.0148 37.0148 15.25 37.9583 15.25 38.9018 15.25 39.6667 16.0148 39.6667 16.9583Z"/></g></g></g><text font-family="Calibri,Calibri_MSFontService,sans-serif" font-weight="700" transform="translate(27.5339 66)">RECORD</text></g></svg>