<svg width="96" height="96" xmlns="http://www.w3.org/2000/svg" xmlns:xlink="http://www.w3.org/1999/xlink" overflow="hidden"><defs><clipPath id="clip0"><path d="M0 0 96 0 96 96 0 96Z" fill-rule="evenodd" clip-rule="evenodd"/></clipPath><clipPath id="clip1"><path d="M26 5 67 5 67 46 26 46Z" fill-rule="evenodd" clip-rule="evenodd"/></clipPath><clipPath id="clip2"><path d="M26 5 67 5 67 46 26 46Z" fill-rule="evenodd" clip-rule="evenodd"/></clipPath><clipPath id="clip3"><path d="M26 5 67 5 67 46 26 46Z" fill-rule="evenodd" clip-rule="evenodd"/></clipPath></defs><g clip-path="url(#clip0)"><path d="M0 0 96 0 96 96 0 96Z" fill="#313131" fill-rule="evenodd"/><text fill="#FFFFFF" font-family="Calibri,Calibri_MSFontService,sans-serif" font-weight="300" font-size="5" transform="translate(9.60011 0)">PROPOSITION</text><rect x="26.5001" y="5.50005" width="1" height="1" stroke="#2F528F" stroke-width="1.33333" stroke-miterlimit="8" fill="#4472C4"/><path d="M4.58866 0.500053 92.4114 0.500053C94.6695 0.500053 96.5001 2.33059 96.5001 4.58866L96.5001 93.3868C96.5001 95.1062 95.1062 96.5001 93.3868 96.5001L3.61333 96.5001C1.89392 96.5001 0.500053 95.1062 0.500053 93.3868L0.500053 4.58866C0.500053 2.33059 2.33059 0.500053 4.58866 0.500053Z" stroke="#F032E6" stroke-width="4.66667" stroke-miterlimit="8" fill="#FFFFFF" fill-rule="evenodd"/><g clip-path="url(#clip1)"><g clip-path="url(#clip2)"><g clip-path="url(#clip3)"><path d="M61.875 22.0833 31.125 22.0833C30.182 22.0833 29.4167 22.8487 29.4167 23.7917L29.4167 30.625C29.4167 31.5697 30.182 32.3333 31.125 32.3333L32.8333 32.3333 32.8333 42.5833C32.8333 43.528 33.5987 44.2917 34.5417 44.2917L58.4583 44.2917C59.403 44.2917 60.1667 43.528 60.1667 42.5833L60.1667 32.3333 61.875 32.3333C62.8197 32.3333 63.5833 31.5697 63.5833 30.625L63.5833 23.7917C63.5833 22.8487 62.8197 22.0833 61.875 22.0833ZM56.75 40.875 36.25 40.875 36.25 32.3333 56.75 32.3333 56.75 40.875ZM60.1667 28.9167 58.4583 28.9167 34.5417 28.9167 32.8333 28.9167 32.8333 25.5 60.1667 25.5 60.1667 28.9167Z"/><path d="M45.2375 19.8505C45.5843 20.199 46.0422 20.375 46.5 20.375 46.9561 20.375 47.4123 20.199 47.7607 19.8505L52.8089 14.7956C53.5059 14.0952 53.5059 12.966 52.8089 12.2673L47.7607 7.21058C47.0911 6.53921 45.9072 6.53921 45.2375 7.21058L40.1894 12.2673C39.4907 12.966 39.4907 14.0952 40.1894 14.7956L45.2375 19.8505ZM46.5 11.0048 49.0249 13.5314 46.5 16.0597 43.9751 13.5314 46.5 11.0048Z"/></g></g></g><text font-family="Calibri,Calibri_MSFontService,sans-serif" font-weight="700" transform="translate(31.7005 66)">VALUE <tspan x="-18.3333" y="15">PROPOSITION</tspan></text></g></svg>