<svg width="189" height="189" xmlns="http://www.w3.org/2000/svg" xmlns:xlink="http://www.w3.org/1999/xlink" overflow="hidden"><defs><clipPath id="clip0"><path d="M0 0 189 0 189 189 0 189Z" fill-rule="evenodd" clip-rule="evenodd"/></clipPath><clipPath id="clip1"><path d="M51 10 132 10 132 91 51 91Z" fill-rule="evenodd" clip-rule="evenodd"/></clipPath><clipPath id="clip2"><path d="M51 10 132 10 132 91 51 91Z" fill-rule="evenodd" clip-rule="evenodd"/></clipPath><clipPath id="clip3"><path d="M51 10 132 10 132 91 51 91Z" fill-rule="evenodd" clip-rule="evenodd"/></clipPath></defs><g clip-path="url(#clip0)"><rect x="0" y="0" width="189" height="189" fill="#313131"/><text fill="#FFFFFF" font-family="Calibri,Calibri_MSFontService,sans-serif" font-weight="300" font-size="11" transform="translate(9.60032 -5)">APPLICATION</text><rect x="51.5001" y="10.5001" width="1" height="1" stroke="#2F528F" stroke-width="1.33333" stroke-miterlimit="8" fill="#4472C4"/><path d="M8.5495 0.500053 181.451 0.500053C185.896 0.500053 189.5 4.10391 189.5 8.5495L189.5 183.371C189.5 186.756 186.756 189.5 183.371 189.5L6.62932 189.5C3.24422 189.5 0.500053 186.756 0.500053 183.371L0.500053 8.5495C0.500053 4.10391 4.10391 0.500053 8.5495 0.500053Z" stroke="#B74D41" stroke-width="4.66667" stroke-miterlimit="8" fill="#FFFFFF" fill-rule="evenodd"/><g clip-path="url(#clip1)"><g clip-path="url(#clip2)"><g clip-path="url(#clip3)"><path d="M92.1345 71.4284C91.2705 71.4284 90.4065 71.0976 89.7484 70.4395L85.1111 65.8056 79.566 65.8056C77.703 65.8056 76.191 64.297 76.191 62.4306L76.191 56.8855 72.8734 53.5645C71.5571 52.2449 71.5571 50.1119 72.8734 48.7923L76.191 45.4746 76.191 38.566C76.191 36.703 77.703 35.191 79.566 35.191L86.4746 35.191 89.7484 31.9172C91.068 30.5976 93.201 30.5976 94.5206 31.9172L97.7978 35.191 103.434 35.191C105.3 35.191 106.809 36.703 106.809 38.566L106.809 44.2022 111.396 48.7923C112.03 49.4268 112.384 50.284 112.384 51.1784 112.384 52.0728 112.034 52.9334 111.396 53.5679L106.809 58.1511 106.809 62.4306C106.809 64.297 105.3 65.8056 103.434 65.8056L99.1545 65.8056 94.5206 70.4395C93.8625 71.101 92.9985 71.4284 92.1345 71.4284ZM82.941 59.0556 86.5084 59.0556C87.4028 59.0556 88.2634 59.41 88.8945 60.0445L92.1345 63.2811 95.3678 60.0445C96.0023 59.41 96.8561 59.0556 97.7539 59.0556L100.056 59.0556 100.056 56.7539C100.056 55.8561 100.41 54.9989 101.044 54.3677L104.234 51.1784 101.044 47.9856C100.41 47.3511 100.056 46.4939 100.056 45.5995L100.056 41.941 96.3971 41.941C95.4994 41.941 94.6421 41.5866 94.011 40.9521L92.1345 39.0756 90.258 40.9521C89.6235 41.5866 88.7696 41.941 87.8719 41.941L82.941 41.941 82.941 46.8719C82.941 47.7662 82.5866 48.6269 81.9521 49.258L80.0318 51.1817 81.9555 53.1021C82.5866 53.7366 82.941 54.5939 82.941 55.4883L82.941 59.0556Z"/><path d="M118.5 70.75C116.634 70.75 115.125 69.2414 115.125 67.375L115.125 23.5 67.875 23.5 67.875 67.375C67.875 69.2414 66.363 70.75 64.5 70.75 62.637 70.75 61.125 69.2414 61.125 67.375L61.125 20.125C61.125 18.262 62.637 16.75 64.5 16.75L118.5 16.75C120.366 16.75 121.875 18.262 121.875 20.125L121.875 67.375C121.875 69.2414 120.366 70.75 118.5 70.75Z"/><path d="M74.625 77.5 81.375 77.5 81.375 84.25 74.625 84.25Z"/><path d="M88.125 77.5 94.875 77.5 94.875 84.25 88.125 84.25Z"/><path d="M101.625 77.5 108.375 77.5 108.375 84.25 101.625 84.25Z"/><path d="M115.125 77.5 121.875 77.5 121.875 84.25 115.125 84.25Z"/><path d="M61.125 77.5 67.875 77.5 67.875 84.25 61.125 84.25Z"/><path d="M94.6354 50.2604C94.6354 52.1243 93.1243 53.6354 91.2604 53.6354 89.3964 53.6354 87.8854 52.1243 87.8854 50.2604 87.8854 48.3964 89.3964 46.8854 91.2604 46.8854 93.1243 46.8854 94.6354 48.3964 94.6354 50.2604Z"/></g></g></g><text font-family="Calibri,Calibri_MSFontService,sans-serif" font-weight="700" font-size="24" transform="translate(29.9822 126)">APPLICATION</text></g></svg>