<svg width="189" height="189" xmlns="http://www.w3.org/2000/svg" xmlns:xlink="http://www.w3.org/1999/xlink" overflow="hidden"><defs><clipPath id="clip0"><path d="M0 0 189 0 189 189 0 189Z" fill-rule="evenodd" clip-rule="evenodd"/></clipPath><clipPath id="clip1"><path d="M51 10 132 10 132 91 51 91Z" fill-rule="evenodd" clip-rule="evenodd"/></clipPath><clipPath id="clip2"><path d="M51 10 132 10 132 91 51 91Z" fill-rule="evenodd" clip-rule="evenodd"/></clipPath><clipPath id="clip3"><path d="M51 10 132 10 132 91 51 91Z" fill-rule="evenodd" clip-rule="evenodd"/></clipPath></defs><g clip-path="url(#clip0)"><rect x="0" y="0" width="189" height="189" fill="#313131"/><text fill="#FFFFFF" font-family="Calibri,Calibri_MSFontService,sans-serif" font-weight="300" font-size="11" transform="translate(9.60032 -5)">RELEASE</text><rect x="51.5001" y="10.5001" width="1" height="1" stroke="#2F528F" stroke-width="1.33333" stroke-miterlimit="8" fill="#4472C4"/><path d="M8.5495 0.500053 181.451 0.500053C185.896 0.500053 189.5 4.10391 189.5 8.5495L189.5 183.371C189.5 186.756 186.756 189.5 183.371 189.5L6.62932 189.5C3.24422 189.5 0.500053 186.756 0.500053 183.371L0.500053 8.5495C0.500053 4.10391 4.10391 0.500053 8.5495 0.500053Z" stroke="#46F0F0" stroke-width="4.66667" stroke-miterlimit="8" fill="#FFFFFF" fill-rule="evenodd"/><g clip-path="url(#clip1)"><g clip-path="url(#clip2)"><g clip-path="url(#clip3)"><path d="M70.2746 58.1916C68.955 56.872 66.8186 56.872 65.499 58.1916 64.1794 59.5079 64.1794 61.6409 65.499 62.9639L79.0192 76.4942C79.6774 77.149 80.5447 77.4831 81.4088 77.4831 82.2728 77.4831 83.1367 77.149 83.7949 76.4942 85.1145 75.178 85.1145 73.045 83.7949 71.722L70.2746 58.1916Z"/><path d="M63.5145 71.722C62.1949 70.399 60.0585 70.399 58.7389 71.722 57.4193 73.0383 57.4193 75.1712 58.7389 76.4942L65.499 83.2611C66.1571 83.9193 67.0245 84.25 67.8851 84.25 68.7458 84.25 69.6131 83.9193 70.2712 83.2611 71.5909 81.9415 71.5909 79.8085 70.2712 78.4889L63.5145 71.722Z"/><path d="M124.261 17.7389C123.535 17.0133 122.506 16.6555 121.507 16.7703L99.9915 19.1597C99.2254 19.2441 98.5132 19.585 97.9733 20.1284L89.1308 28.9776 66.2347 33.5575C65.013 33.8073 64.0275 34.6982 63.6664 35.8896 63.3053 37.081 63.6292 38.3736 64.5101 39.2545L73.7542 48.5054C73.8487 48.6302 73.896 48.7754 74.0074 48.8867L93.1335 68.0196C93.2482 68.131 93.4001 68.1884 93.525 68.2829L102.759 77.5202C103.397 78.1615 104.261 78.5091 105.145 78.5091 105.476 78.5091 105.797 78.4619 106.124 78.364 107.315 78.0062 108.21 77.0174 108.453 75.7956L113.026 52.8794 121.865 44.0335C122.408 43.4901 122.749 42.7814 122.834 42.0186L125.223 20.4895C125.341 19.4837 124.987 18.4645 124.261 17.7389ZM80.5313 37.5805 76.4576 41.6609 73.7374 38.944 80.5313 37.5805ZM103.076 68.2896 100.353 65.566 104.43 61.489 103.076 68.2896ZM116.262 40.105 107.541 48.8327C107.538 48.8327 107.538 48.8327 107.538 48.8327L95.5163 60.8612 81.1691 46.5006 93.1875 34.4721C93.1942 34.4688 93.1942 34.462 93.201 34.4552L101.909 25.7376 118.054 23.9421 116.262 40.105Z"/><path d="M113.522 35.1978C113.522 38.9294 110.497 41.9545 106.765 41.9545 103.033 41.9545 100.008 38.9294 100.008 35.1978 100.008 31.4661 103.033 28.441 106.765 28.441 110.497 28.441 113.522 31.4661 113.522 35.1978Z"/></g></g></g><text font-family="Calibri,Calibri_MSFontService,sans-serif" font-weight="700" font-size="24" transform="translate(53.5355 126)">RELEASE</text></g></svg>