<svg width="189" height="189" xmlns="http://www.w3.org/2000/svg" xmlns:xlink="http://www.w3.org/1999/xlink" overflow="hidden"><defs><clipPath id="clip0"><path d="M0 0 189 0 189 189 0 189Z" fill-rule="evenodd" clip-rule="evenodd"/></clipPath><clipPath id="clip1"><path d="M51 10 132 10 132 91 51 91Z" fill-rule="evenodd" clip-rule="evenodd"/></clipPath><clipPath id="clip2"><path d="M51 10 132 10 132 91 51 91Z" fill-rule="evenodd" clip-rule="evenodd"/></clipPath><clipPath id="clip3"><path d="M51 10 132 10 132 91 51 91Z" fill-rule="evenodd" clip-rule="evenodd"/></clipPath></defs><g clip-path="url(#clip0)"><rect x="0" y="0" width="189" height="189" fill="#313131"/><text fill="#FFFFFF" font-family="Calibri,Calibri_MSFontService,sans-serif" font-weight="300" font-size="11" transform="translate(9.60032 -5)">SCENARIO</text><rect x="51.5001" y="10.5001" width="1" height="1" stroke="#2F528F" stroke-width="1.33333" stroke-miterlimit="8" fill="#4472C4"/><path d="M8.5495 0.500053 181.451 0.500053C185.896 0.500053 189.5 4.10391 189.5 8.5495L189.5 183.371C189.5 186.756 186.756 189.5 183.371 189.5L6.62932 189.5C3.24422 189.5 0.500053 186.756 0.500053 183.371L0.500053 8.5495C0.500053 4.10391 4.10391 0.500053 8.5495 0.500053Z" stroke="#FABEBE" stroke-width="4.66667" stroke-miterlimit="8" fill="#FFFFFF" fill-rule="evenodd"/><g clip-path="url(#clip1)"><g clip-path="url(#clip2)"><g clip-path="url(#clip3)"><path d="M128.625 20.125 125.25 20.125 125.25 16.75C125.25 14.887 123.741 13.375 121.875 13.375L61.125 13.375C59.262 13.375 57.75 14.887 57.75 16.75L57.75 20.125 54.375 20.125C52.512 20.125 51 21.637 51 23.5 51 25.363 52.512 26.875 54.375 26.875L57.75 26.875 57.75 30.25C57.75 32.113 59.262 33.625 61.125 33.625L64.5 33.625 64.5 84.25C64.5 86.1164 66.012 87.625 67.875 87.625L115.125 87.625C116.991 87.625 118.5 86.1164 118.5 84.25L118.5 33.625 121.875 33.625C123.741 33.625 125.25 32.113 125.25 30.25L125.25 26.875 128.625 26.875C130.491 26.875 132 25.363 132 23.5 132 21.637 130.491 20.125 128.625 20.125ZM111.75 80.875 71.25 80.875 71.25 33.625 111.75 33.625 111.75 80.875ZM118.5 26.875 115.125 26.875 67.875 26.875 64.5 26.875 64.5 20.125 118.5 20.125 118.5 26.875Z"/><path d="M81.375 47.125 101.625 47.125C103.491 47.125 105 45.613 105 43.75 105 41.887 103.491 40.375 101.625 40.375L81.375 40.375C79.512 40.375 78 41.887 78 43.75 78 45.613 79.512 47.125 81.375 47.125Z"/><path d="M81.375 60.625 94.875 60.625C96.7414 60.625 98.25 59.1164 98.25 57.25 98.25 55.3836 96.7414 53.875 94.875 53.875L81.375 53.875C79.512 53.875 78 55.3836 78 57.25 78 59.1164 79.512 60.625 81.375 60.625Z"/><path d="M81.375 74.125 101.625 74.125C103.491 74.125 105 72.6164 105 70.75 105 68.8836 103.491 67.375 101.625 67.375L81.375 67.375C79.512 67.375 78 68.8836 78 70.75 78 72.6164 79.512 74.125 81.375 74.125Z"/></g></g></g><text font-family="Calibri,Calibri_MSFontService,sans-serif" font-weight="700" font-size="24" transform="translate(44.7255 126)">SCENARIO</text></g></svg>