<svg width="189" height="189" xmlns="http://www.w3.org/2000/svg" xmlns:xlink="http://www.w3.org/1999/xlink" overflow="hidden"><defs><clipPath id="clip0"><path d="M0 0 189 0 189 189 0 189Z" fill-rule="evenodd" clip-rule="evenodd"/></clipPath><clipPath id="clip1"><path d="M51 10 132 10 132 91 51 91Z" fill-rule="evenodd" clip-rule="evenodd"/></clipPath><clipPath id="clip2"><path d="M51 10 132 10 132 91 51 91Z" fill-rule="evenodd" clip-rule="evenodd"/></clipPath><clipPath id="clip3"><path d="M51 10 132 10 132 91 51 91Z" fill-rule="evenodd" clip-rule="evenodd"/></clipPath></defs><g clip-path="url(#clip0)"><rect x="0" y="0" width="189" height="189" fill="#313131"/><text fill="#FFFFFF" font-family="Calibri,Calibri_MSFontService,sans-serif" font-weight="300" font-size="11" transform="translate(9.60032 0)">OUTCOME</text><rect x="51.5001" y="10.5001" width="1" height="1" stroke="#2F528F" stroke-width="1.33333" stroke-miterlimit="8" fill="#4472C4"/><path d="M8.5495 0.500053 181.451 0.500053C185.896 0.500053 189.5 4.10391 189.5 8.5495L189.5 183.371C189.5 186.756 186.756 189.5 183.371 189.5L6.62932 189.5C3.24422 189.5 0.500053 186.756 0.500053 183.371L0.500053 8.5495C0.500053 4.10391 4.10391 0.500053 8.5495 0.500053Z" stroke="#000080" stroke-width="4.66667" stroke-miterlimit="8" fill="#FFFFFF" fill-rule="evenodd"/><g clip-path="url(#clip1)"><g clip-path="url(#clip2)"><g clip-path="url(#clip3)"><path d="M128.625 16.75 81.2771 16.75C79.4141 16.75 77.9021 18.262 77.9021 20.125L77.9021 23.5 54.375 23.5C52.512 23.5 51 25.012 51 26.875L51 67.375C51 69.2414 52.512 70.75 54.375 70.75L64.3717 70.75 64.3717 77.5C64.3717 79.3664 65.8838 80.875 67.7467 80.875L77.9021 80.875 77.9021 84.25C77.9021 86.1164 79.4141 87.625 81.2771 87.625L128.625 87.625C130.491 87.625 132 86.1164 132 84.25L132 20.125C132 18.262 130.491 16.75 128.625 16.75ZM57.75 64 57.75 30.25 77.9021 30.25 77.9021 33.625 67.7467 33.625C65.8838 33.625 64.3717 35.137 64.3717 37L64.3717 64 57.75 64ZM71.1217 74.125 71.1217 40.375 77.9021 40.375 77.9021 74.125 71.1217 74.125ZM125.25 80.875 84.6521 80.875 84.6521 77.5 84.6521 37 84.6521 23.5 125.25 23.5 125.25 80.875Z"/><path d="M91.4966 58.9375C92.5361 58.9375 93.5554 58.4549 94.2236 57.5571L101.48 47.6582 108.844 54.5871C109.671 55.3634 110.829 55.6671 111.942 55.414 113.043 55.1507 113.947 54.3509 114.328 53.2844L121.673 33.0918C122.31 31.3401 121.409 29.4029 119.654 28.765 117.896 28.1305 115.965 29.0316 115.331 30.7833L109.742 46.1597 103.333 40.1286C102.627 39.4671 101.709 39.1397 100.714 39.2275 99.7519 39.3153 98.8744 39.8114 98.3006 40.591L88.7865 53.5679C87.6862 55.0731 88.0103 57.1825 89.5121 58.2827 90.1061 58.7282 90.8047 58.9375 91.4966 58.9375Z"/><path d="M91.5 72.4375 118.5 72.4375C120.366 72.4375 121.875 70.9289 121.875 69.0625 121.875 67.1961 120.366 65.6875 118.5 65.6875L91.5 65.6875C89.637 65.6875 88.125 67.1961 88.125 69.0625 88.125 70.9289 89.637 72.4375 91.5 72.4375Z"/></g></g></g><text font-family="Calibri,Calibri_MSFontService,sans-serif" font-weight="700" font-size="24" transform="translate(47.4222 126)">BUSINESS <tspan x="-3.93333" y="28">OUTCOME</tspan></text></g></svg>