<svg width="189" height="189" xmlns="http://www.w3.org/2000/svg" xmlns:xlink="http://www.w3.org/1999/xlink" overflow="hidden"><defs><clipPath id="clip0"><path d="M0 0 189 0 189 189 0 189Z" fill-rule="evenodd" clip-rule="evenodd"/></clipPath><clipPath id="clip1"><path d="M51 10 132 10 132 91 51 91Z" fill-rule="evenodd" clip-rule="evenodd"/></clipPath><clipPath id="clip2"><path d="M51 10 132 10 132 91 51 91Z" fill-rule="evenodd" clip-rule="evenodd"/></clipPath><clipPath id="clip3"><path d="M51 10 132 10 132 91 51 91Z" fill-rule="evenodd" clip-rule="evenodd"/></clipPath></defs><g clip-path="url(#clip0)"><rect x="0" y="0" width="189" height="189" fill="#313131"/><text fill="#FFFFFF" font-family="Calibri,Calibri_MSFontService,sans-serif" font-weight="300" font-size="11" transform="translate(9.60032 -5)">RESULT</text><rect x="51.5001" y="10.5001" width="1" height="1" stroke="#2F528F" stroke-width="1.33333" stroke-miterlimit="8" fill="#4472C4"/><path d="M8.5495 0.500053 181.451 0.500053C185.896 0.500053 189.5 4.10391 189.5 8.5495L189.5 183.371C189.5 186.756 186.756 189.5 183.371 189.5L6.62932 189.5C3.24422 189.5 0.500053 186.756 0.500053 183.371L0.500053 8.5495C0.500053 4.10391 4.10391 0.500053 8.5495 0.500053Z" stroke="#5AA203" stroke-width="4.66667" stroke-miterlimit="8" fill="#FFFFFF" fill-rule="evenodd"/><g clip-path="url(#clip1)"><g clip-path="url(#clip2)"><g clip-path="url(#clip3)"><path d="M111.75 31.1748 95.1382 48.4311 95.1315 48.4311 95.1315 48.4311 84.75 37.648 88.9012 33.3314 95.1315 39.8046 107.599 26.8615Z"/><path d="M111.75 54.766 95.1382 72.0257 95.1315 72.0224 95.1315 72.0257 84.75 61.246 88.9012 56.9193 95.1315 63.3925 107.599 50.4528Z"/><path d="M121.875 87.5339 74.625 87.5339C72.762 87.5339 71.25 86.0252 71.25 84.1589L71.25 16.75C71.25 14.887 72.762 13.375 74.625 13.375L121.875 13.375C123.741 13.375 125.25 14.887 125.25 16.75L125.25 84.1589C125.25 86.0219 123.741 87.5339 121.875 87.5339ZM78 80.7839 118.5 80.7839 118.5 20.125 78 20.125 78 80.7839Z"/><path d="M64.5 87.625C62.637 87.625 61.125 86.1164 61.125 84.25L61.125 16.75C61.125 14.887 62.637 13.375 64.5 13.375 66.363 13.375 67.875 14.887 67.875 16.75L67.875 84.25C67.875 86.1164 66.363 87.625 64.5 87.625Z"/></g></g></g><text font-family="Calibri,Calibri_MSFontService,sans-serif" font-weight="700" font-size="24" transform="translate(59.4588 126)">RESULT</text></g></svg>