<svg width="189" height="189" xmlns="http://www.w3.org/2000/svg" xmlns:xlink="http://www.w3.org/1999/xlink" overflow="hidden"><defs><clipPath id="clip0"><path d="M0 0 189 0 189 189 0 189Z" fill-rule="evenodd" clip-rule="evenodd"/></clipPath><clipPath id="clip1"><path d="M51 10 132 10 132 91 51 91Z" fill-rule="evenodd" clip-rule="evenodd"/></clipPath><clipPath id="clip2"><path d="M51 10 132 10 132 91 51 91Z" fill-rule="evenodd" clip-rule="evenodd"/></clipPath><clipPath id="clip3"><path d="M51 10 132 10 132 91 51 91Z" fill-rule="evenodd" clip-rule="evenodd"/></clipPath></defs><g clip-path="url(#clip0)"><rect x="0" y="0" width="189" height="189" fill="#313131"/><text fill="#FFFFFF" font-family="Calibri,Calibri_MSFontService,sans-serif" font-weight="300" font-size="11" transform="translate(9.60032 -5)">VALUE STREAM</text><rect x="51.5001" y="10.5001" width="1" height="1" stroke="#2F528F" stroke-width="1.33333" stroke-miterlimit="8" fill="#4472C4"/><path d="M8.5495 0.500053 181.451 0.500053C185.896 0.500053 189.5 4.10391 189.5 8.5495L189.5 183.371C189.5 186.756 186.756 189.5 183.371 189.5L6.62932 189.5C3.24422 189.5 0.500053 186.756 0.500053 183.371L0.500053 8.5495C0.500053 4.10391 4.10391 0.500053 8.5495 0.500053Z" stroke="#F032E6" stroke-width="4.66667" stroke-miterlimit="8" fill="#FFFFFF" fill-rule="evenodd"/><g clip-path="url(#clip1)"><g clip-path="url(#clip2)"><g clip-path="url(#clip3)"><path d="M115.189 87.6216 61.1284 87.6216C59.8324 87.6216 58.6511 86.8757 58.0875 85.7114 57.5239 84.5403 57.6825 83.1531 58.4925 82.1406L63.5482 75.8091 58.4891 69.4776C57.6791 68.4651 57.5205 67.078 58.0841 65.9069 58.6511 64.7391 59.8324 63.9966 61.1284 63.9966L115.189 63.9966C116.222 63.9966 117.194 64.4725 117.828 65.2757L124.521 73.7132C125.496 74.9384 125.496 76.6799 124.521 77.905L117.828 86.3425C117.184 87.1458 116.215 87.6216 115.189 87.6216ZM68.145 80.8716 113.556 80.8716 117.572 75.8091 113.556 70.7466 68.145 70.7466 70.5075 73.7031C71.493 74.935 71.493 76.6833 70.5075 77.9151L68.145 80.8716Z"/><path d="M91.5 57.2466 91.5 57.2466C90.6022 57.2466 89.745 56.8956 89.1139 56.2578L72.2422 39.3659C70.9226 38.0462 70.9226 35.9132 72.2422 34.5902L89.1139 17.6984C90.3795 16.4328 92.6171 16.4294 93.8861 17.6984L110.764 34.5902C111.399 35.2248 111.753 36.082 111.753 36.9764 111.753 37.8708 111.399 38.7347 110.764 39.3659L93.8861 56.2578C93.2584 56.8956 92.3978 57.2466 91.5 57.2466ZM79.4006 36.9764 91.5 49.0892 103.606 36.9764 91.5 24.8635 79.4006 36.9764Z"/></g></g></g><text font-family="Calibri,Calibri_MSFontService,sans-serif" font-weight="700" font-size="24" transform="translate(19.5722 126)">VALUE STREAM</text></g></svg>