<svg width="189" height="189" xmlns="http://www.w3.org/2000/svg" xmlns:xlink="http://www.w3.org/1999/xlink" overflow="hidden"><defs><clipPath id="clip0"><path d="M0 0 189 0 189 189 0 189Z" fill-rule="evenodd" clip-rule="evenodd"/></clipPath><clipPath id="clip1"><path d="M51 10 132 10 132 91 51 91Z" fill-rule="evenodd" clip-rule="evenodd"/></clipPath><clipPath id="clip2"><path d="M51 10 132 10 132 91 51 91Z" fill-rule="evenodd" clip-rule="evenodd"/></clipPath><clipPath id="clip3"><path d="M51 10 132 10 132 91 51 91Z" fill-rule="evenodd" clip-rule="evenodd"/></clipPath></defs><g clip-path="url(#clip0)"><rect x="0" y="0" width="189" height="189" fill="#313131"/><text fill="#FFFFFF" font-family="Calibri,Calibri_MSFontService,sans-serif" font-weight="300" font-size="11" transform="translate(9.60032 -5)">OUTCOME</text><rect x="51.5001" y="10.5001" width="1" height="1" stroke="#2F528F" stroke-width="1.33333" stroke-miterlimit="8" fill="#4472C4"/><path d="M8.5495 0.500053 181.451 0.500053C185.896 0.500053 189.5 4.10391 189.5 8.5495L189.5 183.371C189.5 186.756 186.756 189.5 183.371 189.5L6.62932 189.5C3.24422 189.5 0.500053 186.756 0.500053 183.371L0.500053 8.5495C0.500053 4.10391 4.10391 0.500053 8.5495 0.500053Z" stroke="#5AA203" stroke-width="4.66667" stroke-miterlimit="8" fill="#FFFFFF" fill-rule="evenodd"/><g clip-path="url(#clip1)"><g clip-path="url(#clip2)"><g clip-path="url(#clip3)"><path d="M117.511 61.6139C116.191 60.2943 114.059 60.2943 112.739 61.6139 111.419 62.9335 111.419 65.0665 112.739 66.3861L117.103 70.75 91.0545 70.75 101.058 55.7515C101.817 54.6141 101.817 53.146 101.058 52.0086L88.8067 33.625 117.103 33.625 112.739 37.9889C111.419 39.3085 111.419 41.4415 112.739 42.7611 113.397 43.4193 114.261 43.75 115.125 43.75 115.989 43.75 116.853 43.4193 117.511 42.7611L127.636 32.6361C128.956 31.3165 128.956 29.1835 127.636 27.8639L117.511 17.7389C116.191 16.4193 114.059 16.4193 112.739 17.7389 111.419 19.0585 111.419 21.1915 112.739 22.5111L117.103 26.875 84.75 26.875C84.6116 26.875 84.4935 26.9425 84.3585 26.9526L80.808 21.6269C79.5559 19.747 76.4441 19.747 75.192 21.6269L54.942 52.0019C54.186 53.1359 54.186 54.6108 54.942 55.7448L75.192 86.1198C75.8197 87.0648 76.8727 87.625 78 87.625 79.1273 87.625 80.1803 87.0648 80.808 86.1231L86.5556 77.5 117.103 77.5 112.739 81.8639C111.419 83.1835 111.419 85.3165 112.739 86.6361 113.397 87.2943 114.261 87.625 115.125 87.625 115.989 87.625 116.853 87.2943 117.511 86.6361L127.636 76.5111C128.956 75.1915 128.956 73.0585 127.636 71.7389L117.511 61.6139ZM78 78.1649 61.8067 53.875 78 29.5885 94.1933 53.875 78 78.1649Z"/></g></g></g><text font-family="Calibri,Calibri_MSFontService,sans-serif" font-weight="700" font-size="24" transform="translate(43.4889 126)">OUTCOME</text></g></svg>