<svg width="96" height="96" xmlns="http://www.w3.org/2000/svg" xmlns:xlink="http://www.w3.org/1999/xlink" overflow="hidden"><defs><clipPath id="clip0"><path d="M0 0 96 0 96 96 0 96Z" fill-rule="evenodd" clip-rule="evenodd"/></clipPath><clipPath id="clip1"><path d="M26 5 67 5 67 46 26 46Z" fill-rule="evenodd" clip-rule="evenodd"/></clipPath><clipPath id="clip2"><path d="M26 5 67 5 67 46 26 46Z" fill-rule="evenodd" clip-rule="evenodd"/></clipPath><clipPath id="clip3"><path d="M26 5 67 5 67 46 26 46Z" fill-rule="evenodd" clip-rule="evenodd"/></clipPath></defs><g clip-path="url(#clip0)"><path d="M0 0 96 0 96 96 0 96Z" fill="#313131" fill-rule="evenodd"/><text fill="#FFFFFF" font-family="Calibri,Calibri_MSFontService,sans-serif" font-weight="300" font-size="5" transform="translate(9.60011 -3)">METRIC</text><rect x="26.5001" y="5.50005" width="1" height="1" stroke="#2F528F" stroke-width="1.33333" stroke-miterlimit="8" fill="#4472C4"/><path d="M4.58866 0.500053 92.4114 0.500053C94.6695 0.500053 96.5001 2.33059 96.5001 4.58866L96.5001 93.3868C96.5001 95.1062 95.1062 96.5001 93.3868 96.5001L3.61333 96.5001C1.89392 96.5001 0.500053 95.1062 0.500053 93.3868L0.500053 4.58866C0.500053 2.33059 2.33059 0.500053 4.58866 0.500053Z" stroke="#D2F53C" stroke-width="4.66667" stroke-miterlimit="8" fill="#FFFFFF" fill-rule="evenodd"/><g clip-path="url(#clip1)"><g clip-path="url(#clip2)"><g clip-path="url(#clip3)"><path d="M46.5 10.9792C37.0802 10.9792 29.4167 18.6427 29.4167 28.0625 29.4167 29.0072 30.182 29.7708 31.125 29.7708 32.068 29.7708 32.8333 29.0072 32.8333 28.0625 32.8333 20.527 38.9645 14.3958 46.5 14.3958 54.0355 14.3958 60.1667 20.527 60.1667 28.0625 60.1667 29.0072 60.9303 29.7708 61.875 29.7708 62.8197 29.7708 63.5833 29.0072 63.5833 28.0625 63.5833 18.6427 55.9198 10.9792 46.5 10.9792Z"/><path d="M53.6955 22.0116 47.4259 29.8648C47.1235 29.8067 46.8177 29.7708 46.5 29.7708 43.6744 29.7708 41.375 32.0703 41.375 34.8958 41.375 37.7214 43.6744 40.0208 46.5 40.0208 49.3256 40.0208 51.625 37.7214 51.625 34.8958 51.625 33.6419 51.1552 32.5042 50.4018 31.6124L56.3622 24.1436C56.9533 23.4056 56.8303 22.331 56.0957 21.7434 55.3594 21.1523 54.2849 21.277 53.6955 22.0116ZM46.5 36.6042C45.557 36.6042 44.7917 35.8388 44.7917 34.8958 44.7917 33.9528 45.557 33.1875 46.5 33.1875 47.443 33.1875 48.2083 33.9528 48.2083 34.8958 48.2083 35.8388 47.443 36.6042 46.5 36.6042Z"/></g></g></g><text font-family="Calibri,Calibri_MSFontService,sans-serif" font-weight="700" transform="translate(28.9505 66)">METRIC</text></g></svg>