<svg width="189" height="189" xmlns="http://www.w3.org/2000/svg" xmlns:xlink="http://www.w3.org/1999/xlink" overflow="hidden"><defs><clipPath id="clip0"><path d="M0 0 189 0 189 189 0 189Z" fill-rule="evenodd" clip-rule="evenodd"/></clipPath><clipPath id="clip1"><path d="M51 10 132 10 132 91 51 91Z" fill-rule="evenodd" clip-rule="evenodd"/></clipPath><clipPath id="clip2"><path d="M51 10 132 10 132 91 51 91Z" fill-rule="evenodd" clip-rule="evenodd"/></clipPath><clipPath id="clip3"><path d="M51 10 132 10 132 91 51 91Z" fill-rule="evenodd" clip-rule="evenodd"/></clipPath></defs><g clip-path="url(#clip0)"><rect x="0" y="0" width="189" height="189" fill="#313131"/><text fill="#FFFFFF" font-family="Calibri,Calibri_MSFontService,sans-serif" font-weight="300" font-size="11" transform="translate(9.60032 -5)">PROCESS</text><rect x="51.5001" y="10.5001" width="1" height="1" stroke="#2F528F" stroke-width="1.33333" stroke-miterlimit="8" fill="#4472C4"/><path d="M8.5495 0.500053 181.451 0.500053C185.896 0.500053 189.5 4.10391 189.5 8.5495L189.5 183.371C189.5 186.756 186.756 189.5 183.371 189.5L6.62932 189.5C3.24422 189.5 0.500053 186.756 0.500053 183.371L0.500053 8.5495C0.500053 4.10391 4.10391 0.500053 8.5495 0.500053Z" stroke="#377692" stroke-width="4.66667" stroke-miterlimit="8" fill="#FFFFFF" fill-rule="evenodd"/><g clip-path="url(#clip1)"><g clip-path="url(#clip2)"><g clip-path="url(#clip3)"><path d="M121.875 40.375 115.854 40.375 115.854 23.5945C115.854 21.7315 114.349 20.2195 112.479 20.2195L84.9424 20.2195C84.8749 20.2195 84.8175 20.2533 84.75 20.2566L84.75 16.75C84.75 14.887 83.238 13.375 81.375 13.375L61.125 13.375C59.262 13.375 57.75 14.887 57.75 16.75L57.75 30.25C57.75 32.113 59.262 33.625 61.125 33.625L81.375 33.625C83.238 33.625 84.75 32.113 84.75 30.25L84.75 26.9324C84.8175 26.9358 84.8749 26.9695 84.9424 26.9695L109.104 26.9695 109.104 40.375 101.625 40.375C99.7586 40.375 98.25 41.887 98.25 43.75L98.25 47.125 74.625 47.125C72.762 47.125 71.25 48.637 71.25 50.5L71.25 67.375 64.5 67.375C62.637 67.375 61.125 68.8836 61.125 70.75L61.125 84.25C61.125 86.1164 62.637 87.625 64.5 87.625L84.75 87.625C86.6164 87.625 88.125 86.1164 88.125 84.25L88.125 80.875 111.75 80.875C113.616 80.875 115.125 79.3664 115.125 77.5L115.125 60.625 121.875 60.625C123.741 60.625 125.25 59.1164 125.25 57.25L125.25 43.75C125.25 41.887 123.741 40.375 121.875 40.375ZM78 26.875 64.5 26.875 64.5 20.125 78 20.125 78 26.875ZM81.375 80.875 67.875 80.875 67.875 74.125 81.375 74.125 81.375 80.875ZM108.375 74.125 88.125 74.125 88.125 70.75C88.125 68.8836 86.6164 67.375 84.75 67.375L78 67.375 78 53.875 98.25 53.875 98.25 57.25C98.25 59.1164 99.7586 60.625 101.625 60.625L108.375 60.625 108.375 74.125ZM118.5 53.875 105 53.875 105 47.125 118.5 47.125 118.5 53.875Z"/></g></g></g><text font-family="Calibri,Calibri_MSFontService,sans-serif" font-weight="700" font-size="24" transform="translate(51.2089 126)">PROCESS</text></g></svg>