<svg width="189" height="189" xmlns="http://www.w3.org/2000/svg" xmlns:xlink="http://www.w3.org/1999/xlink" overflow="hidden"><defs><clipPath id="clip0"><path d="M0 0 189 0 189 189 0 189Z" fill-rule="evenodd" clip-rule="evenodd"/></clipPath><clipPath id="clip1"><path d="M51 10 132 10 132 91 51 91Z" fill-rule="evenodd" clip-rule="evenodd"/></clipPath><clipPath id="clip2"><path d="M51 10 132 10 132 91 51 91Z" fill-rule="evenodd" clip-rule="evenodd"/></clipPath><clipPath id="clip3"><path d="M51 10 132 10 132 91 51 91Z" fill-rule="evenodd" clip-rule="evenodd"/></clipPath></defs><g clip-path="url(#clip0)"><rect x="0" y="0" width="189" height="189" fill="#313131"/><text fill="#FFFFFF" font-family="Calibri,Calibri_MSFontService,sans-serif" font-weight="300" font-size="11" transform="translate(9.60032 -5)">PERSONA</text><rect x="51.5001" y="10.5001" width="1" height="1" stroke="#2F528F" stroke-width="1.33333" stroke-miterlimit="8" fill="#4472C4"/><path d="M8.5495 0.500053 181.451 0.500053C185.896 0.500053 189.5 4.10391 189.5 8.5495L189.5 183.371C189.5 186.756 186.756 189.5 183.371 189.5L6.62932 189.5C3.24422 189.5 0.500053 186.756 0.500053 183.371L0.500053 8.5495C0.500053 4.10391 4.10391 0.500053 8.5495 0.500053Z" stroke="#B74D41" stroke-width="4.66667" stroke-miterlimit="8" fill="#FFFFFF" fill-rule="evenodd"/><g clip-path="url(#clip1)"><g clip-path="url(#clip2)"><g clip-path="url(#clip3)"><path d="M78 53.875C85.425 53.875 91.5 47.8 91.5 40.375 91.5 32.95 85.425 26.875 78 26.875 70.575 26.875 64.5 32.95 64.5 40.375 64.5 47.8 70.575 53.875 78 53.875ZM78 33.625C81.7125 33.625 84.75 36.6625 84.75 40.375 84.75 44.0875 81.7125 47.125 78 47.125 74.2875 47.125 71.25 44.0875 71.25 40.375 71.25 36.6625 74.2875 33.625 78 33.625Z"/><path d="M125.25 17.0875 111.75 16.75C111.75 16.75 111.75 16.75 111.75 16.75 110.063 16.75 108.713 18.1 108.713 19.7875 108.713 21.475 110.063 23.1625 111.75 23.1625L117.488 23.1625 98.925 41.725C97.575 43.075 97.575 45.1 98.925 46.45 99.6 47.125 100.613 47.4625 101.287 47.4625 101.963 47.4625 102.975 47.125 103.65 46.45L121.875 28.225 121.875 33.625C121.875 35.3125 123.225 36.6625 124.912 36.6625 126.6 36.6625 128.625 35.3125 128.625 33.625L128.625 20.125C128.625 18.4375 127.275 17.0875 125.25 17.0875Z"/><path d="M88.125 58.9375 68.2125 58.9375C60.45 58.9375 54.375 65.0125 54.375 72.4375L54.375 82.5625C54.375 84.25 55.725 85.9375 57.75 85.9375 59.775 85.9375 61.125 84.5875 61.125 82.5625L61.125 72.4375C61.125 68.725 64.1625 65.6875 68.2125 65.6875L73.6125 65.6875 78 74.125 82.3875 65.6875 88.125 65.6875C92.175 65.6875 95.2125 68.725 95.2125 72.4375L95.2125 82.5625C95.2125 84.25 96.5625 85.9375 98.5875 85.9375 100.613 85.9375 101.963 84.5875 101.963 82.5625L101.963 72.4375C101.963 65.0125 95.8875 58.9375 88.125 58.9375Z"/></g></g></g><text font-family="Calibri,Calibri_MSFontService,sans-serif" font-weight="700" font-size="24" transform="translate(48.0089 126)">PERSONA</text></g></svg>