<svg width="96" height="96" xmlns="http://www.w3.org/2000/svg" xmlns:xlink="http://www.w3.org/1999/xlink" overflow="hidden"><defs><clipPath id="clip0"><path d="M0 0 96 0 96 96 0 96Z" fill-rule="evenodd" clip-rule="evenodd"/></clipPath><clipPath id="clip1"><path d="M26 5 67 5 67 46 26 46Z" fill-rule="evenodd" clip-rule="evenodd"/></clipPath><clipPath id="clip2"><path d="M26 5 67 5 67 46 26 46Z" fill-rule="evenodd" clip-rule="evenodd"/></clipPath><clipPath id="clip3"><path d="M26 5 67 5 67 46 26 46Z" fill-rule="evenodd" clip-rule="evenodd"/></clipPath></defs><g clip-path="url(#clip0)"><path d="M0 0 96 0 96 96 0 96Z" fill="#313131" fill-rule="evenodd"/><text fill="#FFFFFF" font-family="Calibri,Calibri_MSFontService,sans-serif" font-weight="300" font-size="5" transform="translate(9.60011 -3)">INITIATIVE</text><rect x="26.5001" y="5.50005" width="1" height="1" stroke="#2F528F" stroke-width="1.33333" stroke-miterlimit="8" fill="#4472C4"/><path d="M4.58866 0.500053 92.4114 0.500053C94.6695 0.500053 96.5001 2.33059 96.5001 4.58866L96.5001 93.3868C96.5001 95.1062 95.1062 96.5001 93.3868 96.5001L3.61333 96.5001C1.89392 96.5001 0.500053 95.1062 0.500053 93.3868L0.500053 4.58866C0.500053 2.33059 2.33059 0.500053 4.58866 0.500053Z" stroke="#46F0F0" stroke-width="4.66667" stroke-miterlimit="8" fill="#FFFFFF" fill-rule="evenodd"/><g clip-path="url(#clip1)"><g clip-path="url(#clip2)"><g clip-path="url(#clip3)"><path d="M43.0833 26.7505C46.8502 26.7505 49.9167 23.7609 49.9167 20.0846 49.9167 16.4065 46.8502 13.417 43.0833 13.417 39.3148 13.417 36.25 16.4082 36.25 20.0846 36.25 23.7609 39.3148 26.7505 43.0833 26.7505ZM43.0833 16.7516C44.9693 16.7516 46.5 18.2464 46.5 20.0863 46.5 21.9262 44.9693 23.421 43.0833 23.421 41.199 23.421 39.6667 21.9262 39.6667 20.0863 39.6667 18.2464 41.199 16.7516 43.0833 16.7516Z"/><path d="M60.1667 8.41667C59.222 8.41667 58.4583 9.16321 58.4583 10.084L58.4583 21.1352 58.4583 21.7519 58.4583 21.9005C58.4583 26.4413 54.6761 30.1347 50.026 30.1347L42.974 30.1347C36.4396 30.1364 31.125 34.9727 31.125 40.9143 31.125 41.8351 31.8903 42.5833 32.8333 42.5833 33.7763 42.5833 34.5417 41.8351 34.5417 40.9143 34.5417 36.8109 38.3239 33.4694 42.974 33.4694L50.026 33.4694C56.5587 33.4694 61.8767 28.2812 61.8767 21.9023L61.8767 21.7519 61.8767 21.1352 61.8767 10.084C61.875 9.16321 61.1114 8.41667 60.1667 8.41667Z"/><path d="M53.3333 35.0855C52.3886 35.0855 51.625 35.8337 51.625 36.7562L51.625 40.0892C51.625 41.01 52.3886 41.7565 53.3333 41.7565 54.278 41.7565 55.0417 41.01 55.0417 40.0892L55.0417 36.7562C55.0417 35.8337 54.278 35.0855 53.3333 35.0855Z"/></g></g></g><text font-family="Calibri,Calibri_MSFontService,sans-serif" font-weight="700" transform="translate(21.8672 66)">INITIATIVE</text></g></svg>