<svg width="189" height="189" xmlns="http://www.w3.org/2000/svg" xmlns:xlink="http://www.w3.org/1999/xlink" overflow="hidden"><defs><clipPath id="clip0"><path d="M0 0 189 0 189 189 0 189Z" fill-rule="evenodd" clip-rule="evenodd"/></clipPath><clipPath id="clip1"><path d="M51 10 132 10 132 91 51 91Z" fill-rule="evenodd" clip-rule="evenodd"/></clipPath><clipPath id="clip2"><path d="M51 10 132 10 132 91 51 91Z" fill-rule="evenodd" clip-rule="evenodd"/></clipPath><clipPath id="clip3"><path d="M51 10 132 10 132 91 51 91Z" fill-rule="evenodd" clip-rule="evenodd"/></clipPath></defs><g clip-path="url(#clip0)"><rect x="0" y="0" width="189" height="189" fill="#313131"/><text fill="#FFFFFF" font-family="Calibri,Calibri_MSFontService,sans-serif" font-weight="300" font-size="11" transform="translate(9.60032 -5)">LEGISLATION</text><rect x="51.5001" y="10.5001" width="1" height="1" stroke="#2F528F" stroke-width="1.33333" stroke-miterlimit="8" fill="#4472C4"/><path d="M8.5495 0.500053 181.451 0.500053C185.896 0.500053 189.5 4.10391 189.5 8.5495L189.5 183.371C189.5 186.756 186.756 189.5 183.371 189.5L6.62932 189.5C3.24422 189.5 0.500053 186.756 0.500053 183.371L0.500053 8.5495C0.500053 4.10391 4.10391 0.500053 8.5495 0.500053Z" stroke="#E6194B" stroke-width="4.66667" stroke-miterlimit="8" fill="#FFFFFF" fill-rule="evenodd"/><g clip-path="url(#clip1)"><g clip-path="url(#clip2)"><g clip-path="url(#clip3)"><path d="M121.875 67.375 111.75 67.375 111.75 16.75C111.75 14.887 110.241 13.375 108.375 13.375L61.125 13.375C59.262 13.375 57.75 14.887 57.75 16.75L57.75 70.75C57.75 80.0549 65.3201 87.625 74.625 87.625L108.375 87.625C117.68 87.625 125.25 80.0549 125.25 70.75 125.25 68.8836 123.741 67.375 121.875 67.375ZM64.5 70.75 64.5 20.125 105 20.125 105 67.375 88.125 67.375C86.262 67.375 84.75 68.8836 84.75 70.75 84.75 76.3322 80.2073 80.875 74.625 80.875 69.0428 80.875 64.5 76.3322 64.5 70.75ZM108.375 80.875 88.0406 80.875C89.529 78.904 90.6495 76.6326 91.1591 74.125L117.879 74.125C116.475 78.0434 112.769 80.875 108.375 80.875Z"/><path d="M74.625 37 94.875 37C96.7414 37 98.25 35.488 98.25 33.625 98.25 31.762 96.7414 30.25 94.875 30.25L74.625 30.25C72.762 30.25 71.25 31.762 71.25 33.625 71.25 35.488 72.762 37 74.625 37Z"/><path d="M74.625 50.5 88.125 50.5C89.9914 50.5 91.5 48.988 91.5 47.125 91.5 45.262 89.9914 43.75 88.125 43.75L74.625 43.75C72.762 43.75 71.25 45.262 71.25 47.125 71.25 48.988 72.762 50.5 74.625 50.5Z"/><path d="M94.875 64C96.7414 64 98.25 62.4914 98.25 60.625 98.25 58.7586 96.7414 57.25 94.875 57.25L74.625 57.25C72.762 57.25 71.25 58.7586 71.25 60.625 71.25 62.4914 72.762 64 74.625 64L94.875 64Z"/></g></g></g><text font-family="Calibri,Calibri_MSFontService,sans-serif" font-weight="700" font-size="24" transform="translate(32.2389 126)">LEGISLATION</text></g></svg>