<svg width="96" height="96" xmlns="http://www.w3.org/2000/svg" xmlns:xlink="http://www.w3.org/1999/xlink" overflow="hidden"><defs><clipPath id="clip0"><path d="M0 0 96 0 96 96 0 96Z" fill-rule="evenodd" clip-rule="evenodd"/></clipPath><clipPath id="clip1"><path d="M26 5 67 5 67 46 26 46Z" fill-rule="evenodd" clip-rule="evenodd"/></clipPath><clipPath id="clip2"><path d="M26 5 67 5 67 46 26 46Z" fill-rule="evenodd" clip-rule="evenodd"/></clipPath><clipPath id="clip3"><path d="M26 5 67 5 67 46 26 46Z" fill-rule="evenodd" clip-rule="evenodd"/></clipPath></defs><g clip-path="url(#clip0)"><path d="M0 0 96 0 96 96 0 96Z" fill="#313131" fill-rule="evenodd"/><text fill="#FFFFFF" font-family="Calibri,Calibri_MSFontService,sans-serif" font-weight="300" font-size="5" transform="translate(9.60011 -3)">PRODUCT</text><rect x="26.5001" y="5.50005" width="1" height="1" stroke="#2F528F" stroke-width="1.33333" stroke-miterlimit="8" fill="#4472C4"/><path d="M4.58866 0.500053 92.4114 0.500053C94.6695 0.500053 96.5001 2.33059 96.5001 4.58866L96.5001 93.3868C96.5001 95.1062 95.1062 96.5001 93.3868 96.5001L3.61333 96.5001C1.89392 96.5001 0.500053 95.1062 0.500053 93.3868L0.500053 4.58866C0.500053 2.33059 2.33059 0.500053 4.58866 0.500053Z" stroke="#911EB4" stroke-width="4.66667" stroke-miterlimit="8" fill="#FFFFFF" fill-rule="evenodd"/><g clip-path="url(#clip1)"><g clip-path="url(#clip2)"><g clip-path="url(#clip3)"><path d="M63.5833 6.70833 29.4167 6.70833C28.4737 6.70833 27.7083 7.47538 27.7083 8.42008L27.7083 15.2688C27.7083 16.2135 28.4737 16.9805 29.4167 16.9805L31.125 16.9805 31.125 39.2401C31.125 40.1865 31.8903 40.9519 32.8333 40.9519L39.2157 40.9519C40.1587 40.9519 40.924 40.1865 40.924 39.2401 40.924 38.2937 40.1587 37.5284 39.2157 37.5284L34.5417 37.5284 34.5417 16.9823 58.4583 16.9823 58.4583 18.6769C58.4583 19.6216 59.222 20.3887 60.1667 20.3887 61.1114 20.3887 61.875 19.6216 61.875 18.6769L61.875 16.9823 63.5833 16.9823C64.528 16.9823 65.2917 16.2152 65.2917 15.2705L65.2917 8.42008C65.2917 7.47538 64.528 6.70833 63.5833 6.70833ZM61.875 13.557 60.1667 13.557 32.8333 13.557 31.125 13.557 31.125 10.1318 61.875 10.1318 61.875 13.557Z"/><path d="M55.139 23.3902C54.7 22.9631 54.0748 22.7991 53.4854 22.9631L47.7932 24.5348 44.2723 21.113C43.5958 20.4519 42.5162 20.4707 41.8568 21.1489 41.199 21.8271 41.2161 22.9102 41.8943 23.5696L45.393 26.9709 43.835 32.6289C43.6693 33.2302 43.8418 33.8725 44.2843 34.3047L53.9295 43.7997C54.2627 44.1277 54.6949 44.2917 55.1271 44.2917 55.5661 44.2917 56.0035 44.1243 56.3349 43.7894L64.7894 35.3161C65.1106 34.9949 65.2917 34.5576 65.29 34.0963 65.2883 33.6385 65.1055 33.2063 64.7792 32.8817L55.139 23.3902ZM55.1168 40.1678 47.3935 32.5708 48.1895 29.6888 50.4719 31.908C50.8033 32.2308 51.2338 32.3931 51.6609 32.3931 52.1068 32.3931 52.5509 32.2172 52.8875 31.8704 53.5452 31.1939 53.5281 30.1091 52.8516 29.4497L50.6393 27.2972 53.4444 26.5216 61.1592 34.1151 55.1168 40.1678Z"/></g></g></g><text font-family="Calibri,Calibri_MSFontService,sans-serif" font-weight="700" transform="translate(23.7839 66)">PRODUCT</text></g></svg>