<svg width="189" height="189" xmlns="http://www.w3.org/2000/svg" xmlns:xlink="http://www.w3.org/1999/xlink" overflow="hidden"><defs><clipPath id="clip0"><path d="M0 0 189 0 189 189 0 189Z" fill-rule="evenodd" clip-rule="evenodd"/></clipPath><clipPath id="clip1"><path d="M51 10 132 10 132 91 51 91Z" fill-rule="evenodd" clip-rule="evenodd"/></clipPath><clipPath id="clip2"><path d="M51 10 132 10 132 91 51 91Z" fill-rule="evenodd" clip-rule="evenodd"/></clipPath><clipPath id="clip3"><path d="M51 10 132 10 132 91 51 91Z" fill-rule="evenodd" clip-rule="evenodd"/></clipPath></defs><g clip-path="url(#clip0)"><rect x="0" y="0" width="189" height="189" fill="#313131"/><text fill="#FFFFFF" font-family="Calibri,Calibri_MSFontService,sans-serif" font-weight="300" font-size="11" transform="translate(9.60032 0)">LEVEL</text><rect x="51.5001" y="10.5001" width="1" height="1" stroke="#2F528F" stroke-width="1.33333" stroke-miterlimit="8" fill="#4472C4"/><path d="M8.5495 0.500053 181.451 0.500053C185.896 0.500053 189.5 4.10391 189.5 8.5495L189.5 183.371C189.5 186.756 186.756 189.5 183.371 189.5L6.62932 189.5C3.24422 189.5 0.500053 186.756 0.500053 183.371L0.500053 8.5495C0.500053 4.10391 4.10391 0.500053 8.5495 0.500053Z" stroke="#CEB023" stroke-width="4.66667" stroke-miterlimit="8" fill="#FFFFFF" fill-rule="evenodd"/><g clip-path="url(#clip1)"><g clip-path="url(#clip2)"><g clip-path="url(#clip3)"><path d="M67.5713 50.5 78 44.7355 88.4287 50.5 86.4375 38.2892 94.875 29.6425 83.2144 27.8605 78 16.75 72.7856 27.8605 61.125 29.6425 69.5625 38.2892Z"/><path d="M121.875 60.625 81.375 60.625 81.375 57.25C81.375 55.3836 79.863 53.875 78 53.875 76.137 53.875 74.625 55.3836 74.625 57.25L74.625 60.625 61.125 60.625C59.262 60.625 57.75 62.1336 57.75 64L57.75 77.5C57.75 79.3664 59.262 80.875 61.125 80.875L74.625 80.875C74.625 82.7414 76.137 84.25 78 84.25 79.863 84.25 81.375 82.7414 81.375 80.875L121.875 80.875C123.741 80.875 125.25 79.3664 125.25 77.5L125.25 64C125.25 62.1336 123.741 60.625 121.875 60.625ZM64.5 74.125 64.5 67.375 74.625 67.375 74.625 74.125 64.5 74.125ZM118.5 74.125 81.375 74.125 81.375 67.375 118.5 67.375 118.5 74.125Z"/></g></g></g><text font-family="Calibri,Calibri_MSFontService,sans-serif" font-weight="700" font-size="24" transform="translate(19.3922 126)">POSITION SKILL <tspan x="47.1667" y="28">LEVEL</tspan></text></g></svg>