<svg width="189" height="189" xmlns="http://www.w3.org/2000/svg" xmlns:xlink="http://www.w3.org/1999/xlink" overflow="hidden"><defs><clipPath id="clip0"><path d="M0 0 189 0 189 189 0 189Z" fill-rule="evenodd" clip-rule="evenodd"/></clipPath><clipPath id="clip1"><path d="M51 10 132 10 132 91 51 91Z" fill-rule="evenodd" clip-rule="evenodd"/></clipPath><clipPath id="clip2"><path d="M51 10 132 10 132 91 51 91Z" fill-rule="evenodd" clip-rule="evenodd"/></clipPath><clipPath id="clip3"><path d="M51 10 132 10 132 91 51 91Z" fill-rule="evenodd" clip-rule="evenodd"/></clipPath></defs><g clip-path="url(#clip0)"><rect x="0" y="0" width="189" height="189" fill="#313131"/><text fill="#FFFFFF" font-family="Calibri,Calibri_MSFontService,sans-serif" font-weight="300" font-size="11" transform="translate(9.60032 -5)">REQUIREMENT</text><rect x="51.5001" y="10.5001" width="1" height="1" stroke="#2F528F" stroke-width="1.33333" stroke-miterlimit="8" fill="#4472C4"/><path d="M8.5495 0.500053 181.451 0.500053C185.896 0.500053 189.5 4.10391 189.5 8.5495L189.5 183.371C189.5 186.756 186.756 189.5 183.371 189.5L6.62932 189.5C3.24422 189.5 0.500053 186.756 0.500053 183.371L0.500053 8.5495C0.500053 4.10391 4.10391 0.500053 8.5495 0.500053Z" stroke="#D2F53C" stroke-width="4.66667" stroke-miterlimit="8" fill="#FFFFFF" fill-rule="evenodd"/><g clip-path="url(#clip1)"><g clip-path="url(#clip2)"><g clip-path="url(#clip3)"><path d="M84.75 57.9216 68.1383 74.125 68.1349 74.1216 68.1349 74.125 57.75 64 61.9012 59.95 68.1349 66.025 80.5988 53.875Z"/><path d="M84.75 24.175 68.1383 40.375 68.1349 40.375 68.1349 40.375 57.75 30.25 61.9012 26.2 68.1349 32.275 80.5988 20.125Z"/><path d="M118.5 40.375 98.25 40.375C96.3836 40.375 94.875 38.863 94.875 37L94.875 23.5C94.875 21.637 96.3836 20.125 98.25 20.125L118.5 20.125C120.366 20.125 121.875 21.637 121.875 23.5L121.875 37C121.875 38.863 120.366 40.375 118.5 40.375ZM101.625 33.625 115.125 33.625 115.125 26.875 101.625 26.875 101.625 33.625Z"/><path d="M118.5 74.125 98.25 74.125C96.3836 74.125 94.875 72.6164 94.875 70.75L94.875 57.25C94.875 55.3836 96.3836 53.875 98.25 53.875L118.5 53.875C120.366 53.875 121.875 55.3836 121.875 57.25L121.875 70.75C121.875 72.6164 120.366 74.125 118.5 74.125ZM101.625 67.375 115.125 67.375 115.125 60.625 101.625 60.625 101.625 67.375Z"/></g></g></g><text font-family="Calibri,Calibri_MSFontService,sans-serif" font-weight="700" font-size="24" transform="translate(21.7622 126)">REQUIREMENT</text></g></svg>