<svg width="189" height="189" xmlns="http://www.w3.org/2000/svg" xmlns:xlink="http://www.w3.org/1999/xlink" overflow="hidden"><defs><clipPath id="clip0"><path d="M0 0 189 0 189 189 0 189Z" fill-rule="evenodd" clip-rule="evenodd"/></clipPath><clipPath id="clip1"><path d="M51 10 132 10 132 91 51 91Z" fill-rule="evenodd" clip-rule="evenodd"/></clipPath><clipPath id="clip2"><path d="M51 10 132 10 132 91 51 91Z" fill-rule="evenodd" clip-rule="evenodd"/></clipPath><clipPath id="clip3"><path d="M51 10 132 10 132 91 51 91Z" fill-rule="evenodd" clip-rule="evenodd"/></clipPath></defs><g clip-path="url(#clip0)"><rect x="0" y="0" width="189" height="189" fill="#313131"/><text fill="#FFFFFF" font-family="Calibri,Calibri_MSFontService,sans-serif" font-weight="300" font-size="11" transform="translate(9.60032 -5)">NEED</text><rect x="51.5001" y="10.5001" width="1" height="1" stroke="#2F528F" stroke-width="1.33333" stroke-miterlimit="8" fill="#4472C4"/><path d="M8.5495 0.500053 181.451 0.500053C185.896 0.500053 189.5 4.10391 189.5 8.5495L189.5 183.371C189.5 186.756 186.756 189.5 183.371 189.5L6.62932 189.5C3.24422 189.5 0.500053 186.756 0.500053 183.371L0.500053 8.5495C0.500053 4.10391 4.10391 0.500053 8.5495 0.500053Z" stroke="#FABEBE" stroke-width="4.66667" stroke-miterlimit="8" fill="#FFFFFF" fill-rule="evenodd"/><g clip-path="url(#clip1)"><g clip-path="url(#clip2)"><g clip-path="url(#clip3)"><path d="M115.085 26.875 111.716 26.875C111.716 23.1524 108.689 20.125 104.966 20.125L101.598 20.125C101.598 16.4024 98.574 13.375 94.8514 13.375L91.4798 13.375C87.7571 13.375 84.7331 16.4024 84.7331 20.125L81.3649 20.125C77.6456 20.125 74.6182 23.1524 74.6182 26.875L74.6182 37 71.2466 37C67.5274 37 64.5 40.0274 64.5 43.75L64.5 64C64.5 64.675 64.7025 65.3027 65.0501 65.8293L71.5943 79.1031C72.1612 80.2574 73.3358 80.9864 74.6216 80.9864L111.716 80.9864C112.999 80.9864 114.17 80.2574 114.74 79.1099L121.527 65.4276C121.831 64.8168 121.929 64.1384 121.841 63.487L121.841 33.625C121.828 29.9024 118.807 26.875 115.085 26.875ZM115.078 63.2238 109.62 74.2364 76.7175 74.2364 71.25 63.1427 71.2466 43.75 74.6182 43.75 74.6182 57.25C74.6182 59.1164 76.1302 60.625 77.9932 60.625 79.8562 60.625 81.3682 59.1164 81.3682 57.25L81.3682 26.875 84.7365 26.875 84.7365 47.125C84.7365 48.988 86.2451 50.5 88.1115 50.5 89.9779 50.5 91.4865 48.988 91.4865 47.125L91.4865 20.125 94.8514 20.125 94.8514 26.875 94.8514 47.125C94.8514 48.988 96.3566 50.5 98.2264 50.5 100.093 50.5 101.601 48.988 101.601 47.125L101.601 26.875 104.97 26.875 104.97 33.625 104.97 47.125C104.97 48.988 106.475 50.5 108.345 50.5 110.211 50.5 111.72 48.988 111.72 47.125L111.72 33.625 115.085 33.625 115.085 63.2238 115.078 63.2238Z"/><path d="M115.085 84.25 71.2466 84.25C69.3836 84.25 67.8716 85.7586 67.8716 87.625 67.8716 89.4914 69.3836 91 71.2466 91L115.085 91C116.951 91 118.46 89.4914 118.46 87.625 118.46 85.7586 116.951 84.25 115.085 84.25Z"/></g></g></g><text font-family="Calibri,Calibri_MSFontService,sans-serif" font-weight="700" font-size="24" transform="translate(68.3922 126)">NEED</text></g></svg>