<svg width="189" height="189" xmlns="http://www.w3.org/2000/svg" xmlns:xlink="http://www.w3.org/1999/xlink" overflow="hidden"><defs><clipPath id="clip0"><path d="M0 0 189 0 189 189 0 189Z" fill-rule="evenodd" clip-rule="evenodd"/></clipPath><clipPath id="clip1"><path d="M51 10 132 10 132 91 51 91Z" fill-rule="evenodd" clip-rule="evenodd"/></clipPath><clipPath id="clip2"><path d="M51 10 132 10 132 91 51 91Z" fill-rule="evenodd" clip-rule="evenodd"/></clipPath><clipPath id="clip3"><path d="M51 10 132 10 132 91 51 91Z" fill-rule="evenodd" clip-rule="evenodd"/></clipPath></defs><g clip-path="url(#clip0)"><rect x="0" y="0" width="189" height="189" fill="#313131"/><text fill="#FFFFFF" font-family="Calibri,Calibri_MSFontService,sans-serif" font-weight="300" font-size="11" transform="translate(9.60032 -5)">PROJECT PHASE</text><rect x="51.5001" y="10.5001" width="1" height="1" stroke="#2F528F" stroke-width="1.33333" stroke-miterlimit="8" fill="#4472C4"/><path d="M8.5495 0.500053 181.451 0.500053C185.896 0.500053 189.5 4.10391 189.5 8.5495L189.5 183.371C189.5 186.756 186.756 189.5 183.371 189.5L6.62932 189.5C3.24422 189.5 0.500053 186.756 0.500053 183.371L0.500053 8.5495C0.500053 4.10391 4.10391 0.500053 8.5495 0.500053Z" stroke="#46F0F0" stroke-width="4.66667" stroke-miterlimit="8" fill="#FFFFFF" fill-rule="evenodd"/><g clip-path="url(#clip1)"><g clip-path="url(#clip2)"><g clip-path="url(#clip3)"><path d="M128.365 68.6642C128.713 67.8441 128.713 66.9059 128.365 66.0858 128.193 65.6706 127.947 65.296 127.633 64.9855L117.511 54.8639C116.191 53.5443 114.059 53.5443 112.739 54.8639 111.419 56.1835 111.419 58.3165 112.739 59.6361L117.103 64 81.375 64C72.0701 64 64.5 56.4299 64.5 47.125 64.5 37.8201 72.0701 30.25 81.375 30.25 90.6799 30.25 98.25 37.8201 98.25 47.125L105 47.125C105 34.0975 94.3991 23.5 81.375 23.5 68.3475 23.5 57.75 34.0975 57.75 47.125 57.75 60.1491 68.3475 70.75 81.375 70.75L117.103 70.75 112.739 75.1139C111.419 76.4335 111.419 78.5665 112.739 79.8861 113.397 80.5443 114.261 80.875 115.125 80.875 115.989 80.875 116.853 80.5443 117.511 79.8861L127.633 69.7645C127.947 69.454 128.193 69.0794 128.365 68.6642Z"/></g></g></g><text font-family="Calibri,Calibri_MSFontService,sans-serif" font-weight="700" font-size="24" transform="translate(17.9089 126)">PROJECT PHASE</text></g></svg>