<svg width="96" height="96" xmlns="http://www.w3.org/2000/svg" xmlns:xlink="http://www.w3.org/1999/xlink" overflow="hidden"><defs><clipPath id="clip0"><path d="M0 0 96 0 96 96 0 96Z" fill-rule="evenodd" clip-rule="evenodd"/></clipPath><clipPath id="clip1"><path d="M26 5 67 5 67 46 26 46Z" fill-rule="evenodd" clip-rule="evenodd"/></clipPath><clipPath id="clip2"><path d="M26 5 67 5 67 46 26 46Z" fill-rule="evenodd" clip-rule="evenodd"/></clipPath><clipPath id="clip3"><path d="M26 5 67 5 67 46 26 46Z" fill-rule="evenodd" clip-rule="evenodd"/></clipPath></defs><g clip-path="url(#clip0)"><path d="M0 0 96 0 96 96 0 96Z" fill="#313131" fill-rule="evenodd"/><text fill="#FFFFFF" font-family="Calibri,Calibri_MSFontService,sans-serif" font-weight="300" font-size="5" transform="translate(9.60011 -3)">BENEFIT</text><rect x="26.5001" y="5.50005" width="1" height="1" stroke="#2F528F" stroke-width="1.33333" stroke-miterlimit="8" fill="#4472C4"/><path d="M4.58866 0.500053 92.4114 0.500053C94.6695 0.500053 96.5001 2.33059 96.5001 4.58866L96.5001 93.3868C96.5001 95.1062 95.1062 96.5001 93.3868 96.5001L3.61333 96.5001C1.89392 96.5001 0.500053 95.1062 0.500053 93.3868L0.500053 4.58866C0.500053 2.33059 2.33059 0.500053 4.58866 0.500053Z" stroke="#FABEBE" stroke-width="4.66667" stroke-miterlimit="8" fill="#FFFFFF" fill-rule="evenodd"/><g clip-path="url(#clip1)"><g clip-path="url(#clip2)"><g clip-path="url(#clip3)"><path d="M35.3958 36.6042C35.8332 36.6042 36.2705 36.4368 36.6036 36.1036L57.6042 15.1031 57.6042 18.2276C57.6042 19.1706 58.3678 19.936 59.3125 19.936 60.2572 19.936 61.0208 19.1706 61.0208 18.2276L61.0208 10.9792C61.0208 10.7571 60.9781 10.535 60.8893 10.3266 60.7133 9.90804 60.3836 9.57662 59.9651 9.40237 59.7567 9.31525 59.5346 9.27083 59.3125 9.27083L52.064 9.27083C51.1193 9.27083 50.3557 10.0362 50.3557 10.9792 50.3557 11.9222 51.1193 12.6875 52.064 12.6875L55.1886 12.6875 34.188 33.688C33.5201 34.356 33.5201 35.4357 34.188 36.1036 34.5212 36.4368 34.9585 36.6042 35.3958 36.6042Z"/><path d="M63.5833 39.1667 31.125 39.1667 31.125 8.41667C31.125 7.47367 30.3597 6.70833 29.4167 6.70833 28.4737 6.70833 27.7083 7.47367 27.7083 8.41667L27.7083 40.875C27.7083 41.8197 28.4737 42.5833 29.4167 42.5833L63.5833 42.5833C64.528 42.5833 65.2917 41.8197 65.2917 40.875 65.2917 39.9303 64.528 39.1667 63.5833 39.1667Z"/></g></g></g><text font-family="Calibri,Calibri_MSFontService,sans-serif" font-weight="700" transform="translate(27.8672 66)">BENEFIT</text></g></svg>