<svg width="189" height="189" xmlns="http://www.w3.org/2000/svg" xmlns:xlink="http://www.w3.org/1999/xlink" overflow="hidden"><defs><clipPath id="clip0"><path d="M0 0 189 0 189 189 0 189Z" fill-rule="evenodd" clip-rule="evenodd"/></clipPath><clipPath id="clip1"><path d="M51 10 132 10 132 87 51 87Z" fill-rule="evenodd" clip-rule="evenodd"/></clipPath><clipPath id="clip2"><path d="M51 10 132 10 132 87 51 87Z" fill-rule="evenodd" clip-rule="evenodd"/></clipPath><clipPath id="clip3"><path d="M51 10 132 10 132 87 51 87Z" fill-rule="evenodd" clip-rule="evenodd"/></clipPath></defs><g clip-path="url(#clip0)"><rect x="0" y="0" width="189" height="189" fill="#313131"/><text fill="#FFFFFF" font-family="Calibri,Calibri_MSFontService,sans-serif" font-weight="300" font-size="11" transform="translate(9.60032 -5)">BUSINESS DRIVER</text><rect x="51.5001" y="10.5001" width="1" height="1" stroke="#2F528F" stroke-width="1.33333" stroke-miterlimit="8" fill="#4472C4"/><path d="M8.5495 0.500053 181.451 0.500053C185.896 0.500053 189.5 4.10391 189.5 8.5495L189.5 183.371C189.5 186.756 186.756 189.5 183.371 189.5L6.62932 189.5C3.24422 189.5 0.500053 186.756 0.500053 183.371L0.500053 8.5495C0.500053 4.10391 4.10391 0.500053 8.5495 0.500053Z" stroke="#000080" stroke-width="4.66667" stroke-miterlimit="8" fill="#FFFFFF" fill-rule="evenodd"/><g clip-path="url(#clip1)"><g clip-path="url(#clip2)"><g clip-path="url(#clip3)"><path d="M56.9097 23.4348C56.9097 25.2837 55.4108 26.7826 53.5619 26.7826 51.7129 26.7826 50.214 25.2837 50.214 23.4348 50.214 21.5858 51.7129 20.087 53.5619 20.087 55.4108 20.087 56.9097 21.5858 56.9097 23.4348Z" transform="matrix(1.00812 0 -0 1 51 10)"/><path d="M73.6522 70.3043 46.8696 70.3043 46.8696 40.9908 51.3054 45.7949C51.9415 46.4812 52.8287 46.8696 53.7661 46.8696 53.7761 46.8696 53.7862 46.8696 53.7962 46.8696 54.7403 46.8595 55.6375 46.4544 56.2636 45.748L61.6603 39.6918 66.9164 39.6918C68.7677 39.6918 70.2642 38.192 70.2642 36.344L70.2642 30.7799 75.9957 25.1623C76.6384 24.5329 77 23.6691 77 22.7686 77 21.868 76.6384 21.0076 75.9923 20.3782L70.2642 14.774 70.2642 9.89617C70.2642 8.04817 68.7677 6.54835 66.9164 6.54835L61.5665 6.54835 56.1598 1.01104C55.5337 0.374957 54.6867 0.0100435 53.7929 0.00334783 52.9693 0.020087 52.0453 0.344826 51.4126 0.97087L45.7614 6.5517 40.1471 6.5517C38.2991 6.5517 36.7993 8.05152 36.7993 9.89952L36.7993 14.7873 31.4294 20.087 10.0435 20.087C8.19548 20.087 6.69565 21.5868 6.69565 23.4348L6.69565 70.3043 3.34783 70.3043C1.49983 70.3043 0 71.8008 0 73.6522 0 75.5035 1.49983 77 3.34783 77L10.0435 77 43.5217 77 73.6522 77C75.5035 77 77 75.5035 77 73.6522 77 71.8008 75.5035 70.3043 73.6522 70.3043ZM42.4973 18.5603C43.1334 17.931 43.495 17.0739 43.495 16.18L43.495 13.244 47.134 13.244C48.0145 13.244 48.8615 12.8958 49.4842 12.2765L53.7226 8.09504 57.7634 12.233C58.3928 12.8791 59.2565 13.2407 60.1604 13.2407L63.5719 13.2407 63.5719 16.1767C63.5719 17.0773 63.9334 17.9377 64.5796 18.5704L68.8715 22.7686 64.5729 26.9835C63.9334 27.6129 63.5685 28.4733 63.5685 29.3738L63.5685 32.9995 60.1604 32.9995C59.2063 32.9995 58.2957 33.408 57.663 34.1177L53.7192 38.5402 49.5947 34.0742C48.962 33.3879 48.0714 32.9995 47.1374 32.9995L46.8696 32.9995 46.8696 23.4348C46.8696 23.3477 46.826 23.2774 46.8193 23.1904L46.8193 22.6648C46.8193 21.7709 46.4645 20.9139 45.825 20.2845 45.189 19.6551 44.3252 19.3638 43.4347 19.317L41.7139 19.3337 42.4973 18.5603ZM13.3913 70.3043 13.3913 26.7826 40.1739 26.7826 40.1739 70.3043 13.3913 70.3043Z" transform="matrix(1.00812 0 -0 1 51 10)"/><path d="M16.7391 33.4783 23.4348 33.4783 23.4348 43.5217 16.7391 43.5217Z" transform="matrix(1.00812 0 -0 1 51 10)"/><path d="M16.7391 50.2174 23.4348 50.2174 23.4348 60.2609 16.7391 60.2609Z" transform="matrix(1.00812 0 -0 1 51 10)"/><path d="M30.1304 33.4783 36.8261 33.4783 36.8261 43.5217 30.1304 43.5217Z" transform="matrix(1.00812 0 -0 1 51 10)"/><path d="M30.1304 50.2174 36.8261 50.2174 36.8261 60.2609 30.1304 60.2609Z" transform="matrix(1.00812 0 -0 1 51 10)"/></g></g></g><text font-family="Calibri,Calibri_MSFontService,sans-serif" font-weight="700" font-size="24" transform="translate(8.09223 126)">BUSINESS DRIVER</text></g></svg>