<svg width="96" height="96" xmlns="http://www.w3.org/2000/svg" xmlns:xlink="http://www.w3.org/1999/xlink" overflow="hidden"><defs><clipPath id="clip0"><path d="M0 0 96 0 96 96 0 96Z" fill-rule="evenodd" clip-rule="evenodd"/></clipPath><clipPath id="clip1"><path d="M26 5 67 5 67 46 26 46Z" fill-rule="evenodd" clip-rule="evenodd"/></clipPath><clipPath id="clip2"><path d="M26 5 67 5 67 46 26 46Z" fill-rule="evenodd" clip-rule="evenodd"/></clipPath><clipPath id="clip3"><path d="M26 5 67 5 67 46 26 46Z" fill-rule="evenodd" clip-rule="evenodd"/></clipPath></defs><g clip-path="url(#clip0)"><path d="M0 0 96 0 96 96 0 96Z" fill="#313131" fill-rule="evenodd"/><text fill="#FFFFFF" font-family="Calibri,Calibri_MSFontService,sans-serif" font-weight="300" font-size="5" transform="translate(9.60011 -3)">REQUIREMENT</text><rect x="26.5001" y="5.50005" width="1" height="1" stroke="#2F528F" stroke-width="1.33333" stroke-miterlimit="8" fill="#4472C4"/><path d="M4.58866 0.500053 92.4114 0.500053C94.6695 0.500053 96.5001 2.33059 96.5001 4.58866L96.5001 93.3868C96.5001 95.1062 95.1062 96.5001 93.3868 96.5001L3.61333 96.5001C1.89392 96.5001 0.500053 95.1062 0.500053 93.3868L0.500053 4.58866C0.500053 2.33059 2.33059 0.500053 4.58866 0.500053Z" stroke="#D2F53C" stroke-width="4.66667" stroke-miterlimit="8" fill="#FFFFFF" fill-rule="evenodd"/><g clip-path="url(#clip1)"><g clip-path="url(#clip2)"><g clip-path="url(#clip3)"><path d="M43.0833 29.2566 34.6749 37.4583 34.6732 37.4566 34.6732 37.4583 29.4167 32.3333 31.5179 30.2833 34.6732 33.3583 40.9821 27.2083Z"/><path d="M43.0833 12.175 34.6749 20.375 34.6732 20.375 34.6732 20.375 29.4167 15.25 31.5179 13.2 34.6732 16.275 40.9821 10.125Z"/><path d="M60.1667 20.375 49.9167 20.375C48.972 20.375 48.2083 19.6097 48.2083 18.6667L48.2083 11.8333C48.2083 10.8903 48.972 10.125 49.9167 10.125L60.1667 10.125C61.1114 10.125 61.875 10.8903 61.875 11.8333L61.875 18.6667C61.875 19.6097 61.1114 20.375 60.1667 20.375ZM51.625 16.9583 58.4583 16.9583 58.4583 13.5417 51.625 13.5417 51.625 16.9583Z"/><path d="M60.1667 37.4583 49.9167 37.4583C48.972 37.4583 48.2083 36.6947 48.2083 35.75L48.2083 28.9167C48.2083 27.972 48.972 27.2083 49.9167 27.2083L60.1667 27.2083C61.1114 27.2083 61.875 27.972 61.875 28.9167L61.875 35.75C61.875 36.6947 61.1114 37.4583 60.1667 37.4583ZM51.625 34.0417 58.4583 34.0417 58.4583 30.625 51.625 30.625 51.625 34.0417Z"/></g></g></g><text font-family="Calibri,Calibri_MSFontService,sans-serif" font-weight="700" transform="translate(10.9505 66)">REQUIREMENT</text></g></svg>