<svg width="189" height="189" xmlns="http://www.w3.org/2000/svg" xmlns:xlink="http://www.w3.org/1999/xlink" overflow="hidden"><defs><clipPath id="clip0"><path d="M0 0 189 0 189 189 0 189Z" fill-rule="evenodd" clip-rule="evenodd"/></clipPath><clipPath id="clip1"><path d="M51 10 132 10 132 91 51 91Z" fill-rule="evenodd" clip-rule="evenodd"/></clipPath><clipPath id="clip2"><path d="M51 10 132 10 132 91 51 91Z" fill-rule="evenodd" clip-rule="evenodd"/></clipPath><clipPath id="clip3"><path d="M51 10 132 10 132 91 51 91Z" fill-rule="evenodd" clip-rule="evenodd"/></clipPath></defs><g clip-path="url(#clip0)"><rect x="0" y="0" width="189" height="189" fill="#313131"/><text fill="#FFFFFF" font-family="Calibri,Calibri_MSFontService,sans-serif" font-weight="300" font-size="11" transform="translate(9.60032 -5)">PROGRAM</text><rect x="51.5001" y="10.5001" width="1" height="1" stroke="#2F528F" stroke-width="1.33333" stroke-miterlimit="8" fill="#4472C4"/><path d="M8.5495 0.500053 181.451 0.500053C185.896 0.500053 189.5 4.10391 189.5 8.5495L189.5 183.371C189.5 186.756 186.756 189.5 183.371 189.5L6.62932 189.5C3.24422 189.5 0.500053 186.756 0.500053 183.371L0.500053 8.5495C0.500053 4.10391 4.10391 0.500053 8.5495 0.500053Z" stroke="#46F0F0" stroke-width="4.66667" stroke-miterlimit="8" fill="#FFFFFF" fill-rule="evenodd"/><g clip-path="url(#clip1)"><g clip-path="url(#clip2)"><g clip-path="url(#clip3)"><path d="M121.875 84.25 61.125 84.25C59.262 84.25 57.75 82.7414 57.75 80.875L57.75 20.125C57.75 18.262 59.262 16.75 61.125 16.75L78 16.75C79.863 16.75 81.375 18.262 81.375 20.125 81.375 21.988 79.863 23.5 78 23.5L64.5 23.5 64.5 77.5 118.5 77.5 118.5 64C118.5 62.1336 120.009 60.625 121.875 60.625 123.741 60.625 125.25 62.1336 125.25 64L125.25 80.875C125.25 82.7414 123.741 84.25 121.875 84.25Z"/><path d="M108.375 57.4862C107.471 57.4862 106.617 57.1285 105.979 56.4839L101.348 51.8196 95.8031 51.8196C93.9368 51.8196 92.4281 50.3076 92.4281 48.4446L92.4281 42.8421 89.1037 39.4941C87.7976 38.1779 87.7976 36.055 89.1037 34.7388L92.4281 31.3908 92.4281 24.418C92.4281 22.555 93.9401 21.043 95.8031 21.043L102.705 21.043 105.979 17.7456C106.617 17.1077 107.471 16.75 108.375 16.75L108.375 16.75C109.279 16.75 110.133 17.1077 110.771 17.749L114.045 21.043 119.674 21.043C121.541 21.043 123.049 22.555 123.049 24.418L123.049 30.1116 127.643 34.7421C128.956 36.0584 128.956 38.1846 127.643 39.4975L123.049 44.128 123.049 48.4514C123.049 50.3144 121.541 51.8264 119.674 51.8264L115.402 51.8264 110.771 56.4906C110.133 57.1285 109.279 57.4862 108.375 57.4862ZM99.1781 45.073 102.752 45.073C103.657 45.073 104.511 45.4308 105.148 46.0686L108.375 49.3221 111.602 46.0686C112.236 45.4308 113.093 45.073 113.998 45.073L116.299 45.073 116.299 42.7341C116.299 41.8431 116.65 40.9859 117.282 40.3548L120.495 37.1181 117.282 33.8815C116.647 33.2504 116.299 32.3965 116.299 31.5021L116.299 27.793 112.634 27.793C111.733 27.793 110.876 27.4352 110.238 26.794L108.375 24.9175 106.509 26.7974C105.874 27.4352 105.014 27.793 104.109 27.793L99.1781 27.793 99.1781 32.7813C99.1781 33.6722 98.8271 34.5261 98.196 35.1606L96.2554 37.1181 98.196 39.079C98.8271 39.7135 99.1781 40.5674 99.1781 41.4584L99.1781 45.073Z"/><path d="M81.375 43.75 74.625 43.75C72.762 43.75 71.25 42.238 71.25 40.375 71.25 38.512 72.762 37 74.625 37L81.375 37C83.238 37 84.75 38.512 84.75 40.375 84.75 42.238 83.238 43.75 81.375 43.75Z"/><path d="M81.375 57.25 74.625 57.25C72.762 57.25 71.25 55.7414 71.25 53.875 71.25 52.012 72.762 50.5 74.625 50.5L81.375 50.5C83.238 50.5 84.75 52.012 84.75 53.875 84.75 55.7414 83.238 57.25 81.375 57.25Z"/><path d="M81.375 70.75 74.625 70.75C72.762 70.75 71.25 69.2414 71.25 67.375 71.25 65.5086 72.762 64 74.625 64L81.375 64C83.238 64 84.75 65.5086 84.75 67.375 84.75 69.2414 83.238 70.75 81.375 70.75Z"/><path d="M101.625 70.75 94.875 70.75C93.0086 70.75 91.5 69.2414 91.5 67.375 91.5 65.5086 93.0086 64 94.875 64L101.625 64C103.491 64 105 65.5086 105 67.375 105 69.2414 103.491 70.75 101.625 70.75Z"/><path d="M111.753 37C111.753 38.864 110.242 40.375 108.378 40.375 106.514 40.375 105.003 38.864 105.003 37 105.003 35.136 106.514 33.625 108.378 33.625 110.242 33.625 111.753 35.136 111.753 37Z"/></g></g></g><text font-family="Calibri,Calibri_MSFontService,sans-serif" font-weight="700" font-size="24" transform="translate(42.5922 126)">PROGRAM</text></g></svg>