<svg width="189" height="189" xmlns="http://www.w3.org/2000/svg" xmlns:xlink="http://www.w3.org/1999/xlink" overflow="hidden"><defs><clipPath id="clip0"><path d="M0 0 189 0 189 189 0 189Z" fill-rule="evenodd" clip-rule="evenodd"/></clipPath><clipPath id="clip1"><path d="M51 10 132 10 132 91 51 91Z" fill-rule="evenodd" clip-rule="evenodd"/></clipPath><clipPath id="clip2"><path d="M51 10 132 10 132 91 51 91Z" fill-rule="evenodd" clip-rule="evenodd"/></clipPath><clipPath id="clip3"><path d="M51 10 132 10 132 91 51 91Z" fill-rule="evenodd" clip-rule="evenodd"/></clipPath></defs><g clip-path="url(#clip0)"><rect x="0" y="0" width="189" height="189" fill="#313131"/><text fill="#FFFFFF" font-family="Calibri,Calibri_MSFontService,sans-serif" font-weight="300" font-size="11" transform="translate(9.60032 -5)">RESPONSIBILITY</text><rect x="51.5001" y="10.5001" width="1" height="1" stroke="#2F528F" stroke-width="1.33333" stroke-miterlimit="8" fill="#4472C4"/><path d="M8.5495 0.500053 181.451 0.500053C185.896 0.500053 189.5 4.10391 189.5 8.5495L189.5 183.371C189.5 186.756 186.756 189.5 183.371 189.5L6.62932 189.5C3.24422 189.5 0.500053 186.756 0.500053 183.371L0.500053 8.5495C0.500053 4.10391 4.10391 0.500053 8.5495 0.500053Z" stroke="#CEB023" stroke-width="4.66667" stroke-miterlimit="8" fill="#FFFFFF" fill-rule="evenodd"/><g clip-path="url(#clip1)"><g clip-path="url(#clip2)"><g clip-path="url(#clip3)"><path d="M126.846 44.1483C125.753 43.5644 124.41 43.6251 123.38 44.317L105.219 56.4198 86.91 41.158C85.8098 40.24 84.2438 40.1185 83.0119 40.8576L70.4501 48.394C69.8325 47.638 68.928 47.125 67.875 47.125L57.75 47.125C55.887 47.125 54.375 48.637 54.375 50.5L54.375 77.5C54.375 79.3664 55.887 80.875 57.75 80.875L67.875 80.875C69.738 80.875 71.25 79.3664 71.25 77.5L71.25 77.0005 83.9333 74.9586 96.306 83.6391C96.8865 84.0475 97.5649 84.2568 98.2433 84.2568 98.9554 84.2568 99.6709 84.0374 100.268 83.5817L127.275 63.3317C128.125 62.6973 128.625 61.6982 128.625 60.6317L128.625 47.1317C128.625 45.8796 127.94 44.7355 126.846 44.1483ZM61.125 74.125 61.125 53.875 64.5 53.875 64.5 74.125 61.125 74.125ZM121.875 58.9375 98.1791 76.7103 86.694 68.6406C86.1236 68.239 85.4453 68.0264 84.7534 68.0264 84.5745 68.0264 84.3956 68.0399 84.2168 68.0703L71.25 70.1628 71.25 55.7853 84.4294 47.8776 99.9982 60.8545 97.8045 63.0449 86.9977 55.9776C85.4385 54.9584 83.346 55.3971 82.3268 56.9564 81.3075 58.5156 81.7462 60.6081 83.3055 61.6274L96.4106 70.1931C96.5355 70.2708 96.6739 70.3112 96.8021 70.3787 96.9068 70.4328 97.0114 70.4834 97.1261 70.5239 97.494 70.6555 97.872 70.7432 98.2534 70.7432 98.2534 70.7432 98.2534 70.7432 98.2567 70.7432L98.2567 70.7432C98.2601 70.7432 98.2601 70.7432 98.2635 70.7432 98.6449 70.7399 99.0262 70.6555 99.384 70.5239 99.4583 70.4969 99.5426 70.4699 99.6169 70.4395 99.9713 70.2809 100.302 70.0716 100.592 69.7949 100.606 69.7814 100.629 69.7746 100.643 69.7611L107.18 63.2271 121.875 53.4295 121.875 58.9375Z"/><path d="M105 40.375C112.445 40.375 118.5 34.3203 118.5 26.875 118.5 19.4297 112.445 13.375 105 13.375 97.5547 13.375 91.5 19.4297 91.5 26.875 91.5 34.3203 97.5547 40.375 105 40.375ZM105 20.125C108.726 20.125 111.75 23.1524 111.75 26.875 111.75 30.5976 108.726 33.625 105 33.625 101.274 33.625 98.25 30.5976 98.25 26.875 98.25 23.1524 101.274 20.125 105 20.125Z"/></g></g></g><text font-family="Calibri,Calibri_MSFontService,sans-serif" font-weight="700" font-size="24" transform="translate(16.5089 126)">RESPONSIBILITY</text></g></svg>