<svg width="96" height="96" xmlns="http://www.w3.org/2000/svg" xmlns:xlink="http://www.w3.org/1999/xlink" overflow="hidden"><defs><clipPath id="clip0"><path d="M0 0 96 0 96 96 0 96Z" fill-rule="evenodd" clip-rule="evenodd"/></clipPath><clipPath id="clip1"><path d="M26 5 67 5 67 46 26 46Z" fill-rule="evenodd" clip-rule="evenodd"/></clipPath><clipPath id="clip2"><path d="M26 5 67 5 67 46 26 46Z" fill-rule="evenodd" clip-rule="evenodd"/></clipPath><clipPath id="clip3"><path d="M26 5 67 5 67 46 26 46Z" fill-rule="evenodd" clip-rule="evenodd"/></clipPath></defs><g clip-path="url(#clip0)"><path d="M0 0 96 0 96 96 0 96Z" fill="#313131" fill-rule="evenodd"/><text fill="#FFFFFF" font-family="Calibri,Calibri_MSFontService,sans-serif" font-weight="300" font-size="5" transform="translate(9.60011 -3)">POLICY</text><rect x="26.5001" y="5.50005" width="1" height="1" stroke="#2F528F" stroke-width="1.33333" stroke-miterlimit="8" fill="#4472C4"/><path d="M4.58866 0.500053 92.4114 0.500053C94.6695 0.500053 96.5001 2.33059 96.5001 4.58866L96.5001 93.3868C96.5001 95.1062 95.1062 96.5001 93.3868 96.5001L3.61333 96.5001C1.89392 96.5001 0.500053 95.1062 0.500053 93.3868L0.500053 4.58866C0.500053 2.33059 2.33059 0.500053 4.58866 0.500053Z" stroke="#E6194B" stroke-width="4.66667" stroke-miterlimit="8" fill="#FFFFFF" fill-rule="evenodd"/><g clip-path="url(#clip1)"><g clip-path="url(#clip2)"><g clip-path="url(#clip3)"><path d="M44.7917 44.2917 31.125 44.2917C30.182 44.2917 29.4167 43.528 29.4167 42.5833L29.4167 8.41667C29.4167 7.47367 30.182 6.70833 31.125 6.70833L58.4583 6.70833C59.403 6.70833 60.1667 7.47367 60.1667 8.41667L60.1667 22.0833C60.1667 23.0263 59.403 23.7917 58.4583 23.7917 57.5136 23.7917 56.75 23.0263 56.75 22.0833L56.75 10.125 32.8333 10.125 32.8333 40.875 44.7917 40.875C45.7364 40.875 46.5 41.6386 46.5 42.5833 46.5 43.528 45.7364 44.2917 44.7917 44.2917Z"/><path d="M53.3333 44.2917C52.826 44.2917 52.3459 44.0662 52.0179 43.6784L43.4762 33.4284C43.097 32.9722 42.9808 32.3573 43.167 31.7935L44.8754 26.6685C45.1128 25.9698 45.7637 25.5 46.5 25.5L60.1667 25.5C60.9047 25.5 61.5538 25.9698 61.7862 26.6685L63.4945 31.7935C63.6824 32.3573 63.5663 32.9722 63.1853 33.4284L54.6436 43.6784C54.3208 44.0662 53.8407 44.2917 53.3333 44.2917ZM46.7135 31.9712 53.3333 39.9149 59.9531 31.9746 58.935 28.9167 47.73 28.9167 46.7135 31.9712Z"/><path d="M51.625 18.6667 37.9583 18.6667C37.0153 18.6667 36.25 17.9013 36.25 16.9583 36.25 16.0153 37.0153 15.25 37.9583 15.25L51.625 15.25C52.5697 15.25 53.3333 16.0153 53.3333 16.9583 53.3333 17.9013 52.5697 18.6667 51.625 18.6667Z"/><path d="M43.0833 25.5 37.9583 25.5C37.0153 25.5 36.25 24.7347 36.25 23.7917 36.25 22.8487 37.0153 22.0833 37.9583 22.0833L43.0833 22.0833C44.028 22.0833 44.7917 22.8487 44.7917 23.7917 44.7917 24.7347 44.028 25.5 43.0833 25.5Z"/><path d="M39.6667 32.3333 37.9583 32.3333C37.0153 32.3333 36.25 31.5697 36.25 30.625 36.25 29.6803 37.0153 28.9167 37.9583 28.9167L39.653 28.9167C40.596 28.9167 41.3682 29.6803 41.3682 30.625 41.3682 31.5697 40.6097 32.3333 39.6667 32.3333Z"/></g></g></g><text font-family="Calibri,Calibri_MSFontService,sans-serif" font-weight="700" transform="translate(30.7005 66)">POLICY</text></g></svg>