<svg width="189" height="189" xmlns="http://www.w3.org/2000/svg" xmlns:xlink="http://www.w3.org/1999/xlink" overflow="hidden"><defs><clipPath id="clip0"><path d="M0 0 189 0 189 189 0 189Z" fill-rule="evenodd" clip-rule="evenodd"/></clipPath><clipPath id="clip1"><path d="M51 10 132 10 132 91 51 91Z" fill-rule="evenodd" clip-rule="evenodd"/></clipPath><clipPath id="clip2"><path d="M51 10 132 10 132 91 51 91Z" fill-rule="evenodd" clip-rule="evenodd"/></clipPath><clipPath id="clip3"><path d="M51 10 132 10 132 91 51 91Z" fill-rule="evenodd" clip-rule="evenodd"/></clipPath></defs><g clip-path="url(#clip0)"><rect x="0" y="0" width="189" height="189" fill="#313131"/><text fill="#FFFFFF" font-family="Calibri,Calibri_MSFontService,sans-serif" font-weight="300" font-size="11" transform="translate(9.60032 -5)">METRIC</text><rect x="51.5001" y="10.5001" width="1" height="1" stroke="#2F528F" stroke-width="1.33333" stroke-miterlimit="8" fill="#4472C4"/><path d="M8.5495 0.500053 181.451 0.500053C185.896 0.500053 189.5 4.10391 189.5 8.5495L189.5 183.371C189.5 186.756 186.756 189.5 183.371 189.5L6.62932 189.5C3.24422 189.5 0.500053 186.756 0.500053 183.371L0.500053 8.5495C0.500053 4.10391 4.10391 0.500053 8.5495 0.500053Z" stroke="#D2F53C" stroke-width="4.66667" stroke-miterlimit="8" fill="#FFFFFF" fill-rule="evenodd"/><g clip-path="url(#clip1)"><g clip-path="url(#clip2)"><g clip-path="url(#clip3)"><path d="M91.5 21.8125C72.8903 21.8125 57.75 36.9528 57.75 55.5625 57.75 57.4289 59.262 58.9375 61.125 58.9375 62.988 58.9375 64.5 57.4289 64.5 55.5625 64.5 40.6754 76.6129 28.5625 91.5 28.5625 106.387 28.5625 118.5 40.6754 118.5 55.5625 118.5 57.4289 120.009 58.9375 121.875 58.9375 123.741 58.9375 125.25 57.4289 125.25 55.5625 125.25 36.9528 110.11 21.8125 91.5 21.8125Z"/><path d="M105.715 43.6082 93.3293 59.1231C92.7319 59.0084 92.1277 58.9375 91.5 58.9375 85.9177 58.9375 81.375 63.4802 81.375 69.0625 81.375 74.6447 85.9177 79.1875 91.5 79.1875 97.0823 79.1875 101.625 74.6447 101.625 69.0625 101.625 66.5853 100.697 64.3375 99.2085 62.5757L110.984 47.8203C112.152 46.3623 111.909 44.2394 110.457 43.0784 109.003 41.9106 106.88 42.157 105.715 43.6082ZM91.5 72.4375C89.637 72.4375 88.125 70.9255 88.125 69.0625 88.125 67.1995 89.637 65.6875 91.5 65.6875 93.363 65.6875 94.875 67.1995 94.875 69.0625 94.875 70.9255 93.363 72.4375 91.5 72.4375Z"/></g></g></g><text font-family="Calibri,Calibri_MSFontService,sans-serif" font-weight="700" font-size="24" transform="translate(57.0588 126)">METRIC</text></g></svg>