<svg width="96" height="96" xmlns="http://www.w3.org/2000/svg" xmlns:xlink="http://www.w3.org/1999/xlink" overflow="hidden"><defs><clipPath id="clip0"><path d="M0 0 96 0 96 96 0 96Z" fill-rule="evenodd" clip-rule="evenodd"/></clipPath><clipPath id="clip1"><path d="M26 5 67 5 67 46 26 46Z" fill-rule="evenodd" clip-rule="evenodd"/></clipPath><clipPath id="clip2"><path d="M26 5 67 5 67 46 26 46Z" fill-rule="evenodd" clip-rule="evenodd"/></clipPath><clipPath id="clip3"><path d="M26 5 67 5 67 46 26 46Z" fill-rule="evenodd" clip-rule="evenodd"/></clipPath></defs><g clip-path="url(#clip0)"><path d="M0 0 96 0 96 96 0 96Z" fill="#313131" fill-rule="evenodd"/><text fill="#FFFFFF" font-family="Calibri,Calibri_MSFontService,sans-serif" font-weight="300" font-size="5" transform="translate(9.60011 -3)">OUTCOME</text><rect x="26.5001" y="5.50005" width="1" height="1" stroke="#2F528F" stroke-width="1.33333" stroke-miterlimit="8" fill="#4472C4"/><path d="M4.58866 0.500053 92.4114 0.500053C94.6695 0.500053 96.5001 2.33059 96.5001 4.58866L96.5001 93.3868C96.5001 95.1062 95.1062 96.5001 93.3868 96.5001L3.61333 96.5001C1.89392 96.5001 0.500053 95.1062 0.500053 93.3868L0.500053 4.58866C0.500053 2.33059 2.33059 0.500053 4.58866 0.500053Z" stroke="#5AA203" stroke-width="4.66667" stroke-miterlimit="8" fill="#FFFFFF" fill-rule="evenodd"/><g clip-path="url(#clip1)"><g clip-path="url(#clip2)"><g clip-path="url(#clip3)"><path d="M59.6661 31.1255C58.9982 30.4576 57.9185 30.4576 57.2505 31.1255 56.5826 31.7935 56.5826 32.8732 57.2505 33.5411L59.4594 35.75 46.2745 35.75 51.338 28.1582C51.7224 27.5825 51.7224 26.8393 51.338 26.2636L45.1367 16.9583 59.4594 16.9583 57.2505 19.1672C56.5826 19.8352 56.5826 20.9148 57.2505 21.5828 57.5837 21.9159 58.021 22.0833 58.4583 22.0833 58.8957 22.0833 59.333 21.9159 59.6661 21.5828L64.7911 16.4578C65.4591 15.7898 65.4591 14.7102 64.7911 14.0422L59.6661 8.91721C58.9982 8.24925 57.9185 8.24925 57.2505 8.91721 56.5826 9.58517 56.5826 10.6648 57.2505 11.3328L59.4594 13.5417 43.0833 13.5417C43.0133 13.5417 42.9535 13.5758 42.8852 13.581L41.088 10.8852C40.4542 9.93367 38.8791 9.93367 38.2453 10.8852L27.9953 26.2602C27.6127 26.8342 27.6127 27.5808 27.9953 28.1548L38.2453 43.5298C38.5631 44.0081 39.0961 44.2917 39.6667 44.2917 40.2373 44.2917 40.7702 44.0081 41.088 43.5315L43.9973 39.1667 59.4594 39.1667 57.2505 41.3755C56.5826 42.0435 56.5826 43.1232 57.2505 43.7911 57.5837 44.1243 58.021 44.2917 58.4583 44.2917 58.8957 44.2917 59.333 44.1243 59.6661 43.7911L64.7911 38.6661C65.4591 37.9982 65.4591 36.9185 64.7911 36.2505L59.6661 31.1255ZM39.6667 39.5032 31.4701 27.2083 39.6667 14.9152 47.8633 27.2083 39.6667 39.5032Z"/></g></g></g><text font-family="Calibri,Calibri_MSFontService,sans-serif" font-weight="700" transform="translate(21.8672 66)">OUTCOME</text></g></svg>