<svg width="96" height="96" xmlns="http://www.w3.org/2000/svg" xmlns:xlink="http://www.w3.org/1999/xlink" overflow="hidden"><defs><clipPath id="clip0"><path d="M0 0 96 0 96 96 0 96Z" fill-rule="evenodd" clip-rule="evenodd"/></clipPath><clipPath id="clip1"><path d="M26 5 67 5 67 46 26 46Z" fill-rule="evenodd" clip-rule="evenodd"/></clipPath><clipPath id="clip2"><path d="M26 5 67 5 67 46 26 46Z" fill-rule="evenodd" clip-rule="evenodd"/></clipPath><clipPath id="clip3"><path d="M26 5 67 5 67 46 26 46Z" fill-rule="evenodd" clip-rule="evenodd"/></clipPath></defs><g clip-path="url(#clip0)"><path d="M0 0 96 0 96 96 0 96Z" fill="#313131" fill-rule="evenodd"/><text fill="#FFFFFF" font-family="Calibri,Calibri_MSFontService,sans-serif" font-weight="300" font-size="5" transform="translate(9.60011 0)">LEVEL</text><rect x="26.5001" y="5.50005" width="1" height="1" stroke="#2F528F" stroke-width="1.33333" stroke-miterlimit="8" fill="#4472C4"/><path d="M4.58866 0.500053 92.4114 0.500053C94.6695 0.500053 96.5001 2.33059 96.5001 4.58866L96.5001 93.3868C96.5001 95.1062 95.1062 96.5001 93.3868 96.5001L3.61333 96.5001C1.89392 96.5001 0.500053 95.1062 0.500053 93.3868L0.500053 4.58866C0.500053 2.33059 2.33059 0.500053 4.58866 0.500053Z" stroke="#CEB023" stroke-width="4.66667" stroke-miterlimit="8" fill="#FFFFFF" fill-rule="evenodd"/><g clip-path="url(#clip1)"><g clip-path="url(#clip2)"><g clip-path="url(#clip3)"><path d="M34.3879 25.5 39.6667 22.5822 44.9454 25.5 43.9375 19.3193 48.2083 14.9425 42.306 14.0405 39.6667 8.41667 37.0273 14.0405 31.125 14.9425 35.3958 19.3193Z"/><path d="M61.875 30.625 41.375 30.625 41.375 28.9167C41.375 27.972 40.6097 27.2083 39.6667 27.2083 38.7237 27.2083 37.9583 27.972 37.9583 28.9167L37.9583 30.625 31.125 30.625C30.182 30.625 29.4167 31.3886 29.4167 32.3333L29.4167 39.1667C29.4167 40.1114 30.182 40.875 31.125 40.875L37.9583 40.875C37.9583 41.8197 38.7237 42.5833 39.6667 42.5833 40.6097 42.5833 41.375 41.8197 41.375 40.875L61.875 40.875C62.8197 40.875 63.5833 40.1114 63.5833 39.1667L63.5833 32.3333C63.5833 31.3886 62.8197 30.625 61.875 30.625ZM32.8333 37.4583 32.8333 34.0417 37.9583 34.0417 37.9583 37.4583 32.8333 37.4583ZM60.1667 37.4583 41.375 37.4583 41.375 34.0417 60.1667 34.0417 60.1667 37.4583Z"/></g></g></g><text font-family="Calibri,Calibri_MSFontService,sans-serif" font-weight="700" transform="translate(10.0339 66)">POSITION SKILL <tspan x="23.8333" y="15">LEVEL</tspan></text></g></svg>