<svg width="96" height="96" xmlns="http://www.w3.org/2000/svg" xmlns:xlink="http://www.w3.org/1999/xlink" overflow="hidden"><defs><clipPath id="clip0"><path d="M0 0 96 0 96 96 0 96Z" fill-rule="evenodd" clip-rule="evenodd"/></clipPath><clipPath id="clip1"><path d="M26 5 67 5 67 46 26 46Z" fill-rule="evenodd" clip-rule="evenodd"/></clipPath><clipPath id="clip2"><path d="M26 5 67 5 67 46 26 46Z" fill-rule="evenodd" clip-rule="evenodd"/></clipPath><clipPath id="clip3"><path d="M26 5 67 5 67 46 26 46Z" fill-rule="evenodd" clip-rule="evenodd"/></clipPath></defs><g clip-path="url(#clip0)"><path d="M0 0 96 0 96 96 0 96Z" fill="#313131" fill-rule="evenodd"/><text fill="#FFFFFF" font-family="Calibri,Calibri_MSFontService,sans-serif" font-weight="300" font-size="5" transform="translate(9.60011 -3)">PLACE</text><rect x="26.5001" y="5.50005" width="1" height="1" stroke="#2F528F" stroke-width="1.33333" stroke-miterlimit="8" fill="#4472C4"/><path d="M4.58866 0.500053 92.4114 0.500053C94.6695 0.500053 96.5001 2.33059 96.5001 4.58866L96.5001 93.3868C96.5001 95.1062 95.1062 96.5001 93.3868 96.5001L3.61333 96.5001C1.89392 96.5001 0.500053 95.1062 0.500053 93.3868L0.500053 4.58866C0.500053 2.33059 2.33059 0.500053 4.58866 0.500053Z" stroke="#911EB4" stroke-width="4.66667" stroke-miterlimit="8" fill="#FFFFFF" fill-rule="evenodd"/><g clip-path="url(#clip1)"><g clip-path="url(#clip2)"><g clip-path="url(#clip3)"><path d="M49.9167 17.8125C49.9167 19.6995 48.387 21.2292 46.5 21.2292 44.613 21.2292 43.0833 19.6995 43.0833 17.8125 43.0833 15.9255 44.613 14.3958 46.5 14.3958 48.387 14.3958 49.9167 15.9255 49.9167 17.8125Z"/><path d="M63.5833 40.0208 48.3945 40.0208C50.1661 36.3513 56.75 22.3755 56.75 17.8125 56.75 12.1596 52.1529 7.5625 46.5 7.5625 40.8471 7.5625 36.25 12.1596 36.25 17.8125 36.25 22.3755 42.8339 36.3513 44.602 40.0208L29.4167 40.0208C28.4737 40.0208 27.7083 40.7845 27.7083 41.7292 27.7083 42.6739 28.4737 43.4375 29.4167 43.4375L63.5833 43.4375C64.528 43.4375 65.2917 42.6739 65.2917 41.7292 65.2917 40.7845 64.528 40.0208 63.5833 40.0208ZM46.5 10.9792C50.2686 10.9792 53.3333 14.0439 53.3333 17.8125 53.3333 20.4946 49.6023 29.3796 46.5 36.049 43.396 29.3796 39.6667 20.4963 39.6667 17.8125 39.6667 14.0439 42.7314 10.9792 46.5 10.9792Z"/></g></g></g><text font-family="Calibri,Calibri_MSFontService,sans-serif" font-weight="700" transform="translate(32.8672 66)">PLACE</text></g></svg>