<svg width="96" height="96" xmlns="http://www.w3.org/2000/svg" xmlns:xlink="http://www.w3.org/1999/xlink" overflow="hidden"><defs><clipPath id="clip0"><path d="M0 0 96 0 96 96 0 96Z" fill-rule="evenodd" clip-rule="evenodd"/></clipPath><clipPath id="clip1"><path d="M26 5 67 5 67 46 26 46Z" fill-rule="evenodd" clip-rule="evenodd"/></clipPath><clipPath id="clip2"><path d="M26 5 67 5 67 46 26 46Z" fill-rule="evenodd" clip-rule="evenodd"/></clipPath><clipPath id="clip3"><path d="M26 5 67 5 67 46 26 46Z" fill-rule="evenodd" clip-rule="evenodd"/></clipPath></defs><g clip-path="url(#clip0)"><path d="M0 0 96 0 96 96 0 96Z" fill="#313131" fill-rule="evenodd"/><text fill="#FFFFFF" font-family="Calibri,Calibri_MSFontService,sans-serif" font-weight="300" font-size="5" transform="translate(9.60011 -3)">NEED</text><rect x="26.5001" y="5.50005" width="1" height="1" stroke="#2F528F" stroke-width="1.33333" stroke-miterlimit="8" fill="#4472C4"/><path d="M4.58866 0.500053 92.4114 0.500053C94.6695 0.500053 96.5001 2.33059 96.5001 4.58866L96.5001 93.3868C96.5001 95.1062 95.1062 96.5001 93.3868 96.5001L3.61333 96.5001C1.89392 96.5001 0.500053 95.1062 0.500053 93.3868L0.500053 4.58866C0.500053 2.33059 2.33059 0.500053 4.58866 0.500053Z" stroke="#FABEBE" stroke-width="4.66667" stroke-miterlimit="8" fill="#FFFFFF" fill-rule="evenodd"/><g clip-path="url(#clip1)"><g clip-path="url(#clip2)"><g clip-path="url(#clip3)"><path d="M58.4378 13.5417 56.7329 13.5417C56.7329 11.6574 55.2005 10.125 53.3162 10.125L51.6113 10.125C51.6113 8.24071 50.0807 6.70833 48.1964 6.70833L46.4898 6.70833C44.6055 6.70833 43.0748 8.24071 43.0748 10.125L41.3699 10.125C39.4873 10.125 37.9549 11.6574 37.9549 13.5417L37.9549 18.6667 36.2483 18.6667C34.3657 18.6667 32.8333 20.199 32.8333 22.0833L32.8333 32.3333C32.8333 32.675 32.9358 32.9928 33.1118 33.2593L36.4243 39.9781C36.7113 40.5624 37.3057 40.9314 37.9566 40.9314L56.7329 40.9314C57.3821 40.9314 57.9749 40.5624 58.2636 39.9815L61.699 33.056C61.8528 32.7467 61.9023 32.4034 61.8579 32.0737L61.8579 16.9583C61.8511 15.074 60.3221 13.5417 58.4378 13.5417ZM58.4344 31.9404 55.672 37.5147 39.0175 37.5147 36.25 31.8994 36.2483 22.0833 37.9549 22.0833 37.9549 28.9167C37.9549 29.8614 38.7202 30.625 39.6632 30.625 40.6063 30.625 41.3716 29.8614 41.3716 28.9167L41.3716 13.5417 43.0765 13.5417 43.0765 23.7917C43.0765 24.7347 43.8401 25.5 44.7848 25.5 45.7295 25.5 46.4932 24.7347 46.4932 23.7917L46.4932 10.125 48.1964 10.125 48.1964 13.5417 48.1964 23.7917C48.1964 24.7347 48.9583 25.5 49.9047 25.5 50.8494 25.5 51.613 24.7347 51.613 23.7917L51.613 13.5417 53.318 13.5417 53.318 16.9583 53.318 23.7917C53.318 24.7347 54.0799 25.5 55.0263 25.5 55.971 25.5 56.7346 24.7347 56.7346 23.7917L56.7346 16.9583 58.4378 16.9583 58.4378 31.9404 58.4344 31.9404Z"/><path d="M58.4378 42.5833 36.2483 42.5833C35.3053 42.5833 34.54 43.347 34.54 44.2917 34.54 45.2364 35.3053 46 36.2483 46L58.4378 46C59.3825 46 60.1462 45.2364 60.1462 44.2917 60.1462 43.347 59.3825 42.5833 58.4378 42.5833Z"/></g></g></g><text font-family="Calibri,Calibri_MSFontService,sans-serif" font-weight="700" transform="translate(34.7839 66)">NEED</text></g></svg>