<svg width="96" height="96" xmlns="http://www.w3.org/2000/svg" xmlns:xlink="http://www.w3.org/1999/xlink" overflow="hidden"><defs><clipPath id="clip0"><path d="M0 0 96 0 96 96 0 96Z" fill-rule="evenodd" clip-rule="evenodd"/></clipPath><clipPath id="clip1"><path d="M26 5 67 5 67 46 26 46Z" fill-rule="evenodd" clip-rule="evenodd"/></clipPath><clipPath id="clip2"><path d="M26 5 67 5 67 46 26 46Z" fill-rule="evenodd" clip-rule="evenodd"/></clipPath><clipPath id="clip3"><path d="M26 5 67 5 67 46 26 46Z" fill-rule="evenodd" clip-rule="evenodd"/></clipPath></defs><g clip-path="url(#clip0)"><path d="M0 0 96 0 96 96 0 96Z" fill="#313131" fill-rule="evenodd"/><text fill="#FFFFFF" font-family="Calibri,Calibri_MSFontService,sans-serif" font-weight="300" font-size="5" transform="translate(9.60011 -3)">PROGRAM</text><rect x="26.5001" y="5.50005" width="1" height="1" stroke="#2F528F" stroke-width="1.33333" stroke-miterlimit="8" fill="#4472C4"/><path d="M4.58866 0.500053 92.4114 0.500053C94.6695 0.500053 96.5001 2.33059 96.5001 4.58866L96.5001 93.3868C96.5001 95.1062 95.1062 96.5001 93.3868 96.5001L3.61333 96.5001C1.89392 96.5001 0.500053 95.1062 0.500053 93.3868L0.500053 4.58866C0.500053 2.33059 2.33059 0.500053 4.58866 0.500053Z" stroke="#46F0F0" stroke-width="4.66667" stroke-miterlimit="8" fill="#FFFFFF" fill-rule="evenodd"/><g clip-path="url(#clip1)"><g clip-path="url(#clip2)"><g clip-path="url(#clip3)"><path d="M61.875 42.5833 31.125 42.5833C30.182 42.5833 29.4167 41.8197 29.4167 40.875L29.4167 10.125C29.4167 9.182 30.182 8.41667 31.125 8.41667L39.6667 8.41667C40.6097 8.41667 41.375 9.182 41.375 10.125 41.375 11.068 40.6097 11.8333 39.6667 11.8333L32.8333 11.8333 32.8333 39.1667 60.1667 39.1667 60.1667 32.3333C60.1667 31.3886 60.9303 30.625 61.875 30.625 62.8197 30.625 63.5833 31.3886 63.5833 32.3333L63.5833 40.875C63.5833 41.8197 62.8197 42.5833 61.875 42.5833Z"/><path d="M55.0417 29.0363C54.5838 29.0363 54.1516 28.8552 53.8288 28.5289L51.4849 26.168 48.6781 26.168C47.7334 26.168 46.9698 25.4026 46.9698 24.4596L46.9698 21.6238 45.2871 19.9291C44.626 19.2629 44.626 18.1883 45.2871 17.5221L46.9698 15.8274 46.9698 12.298C46.9698 11.355 47.7351 10.5897 48.6781 10.5897L52.1717 10.5897 53.8288 8.92063C54.1516 8.59775 54.5838 8.41667 55.0417 8.41667L55.0417 8.41667C55.4995 8.41667 55.9317 8.59775 56.2546 8.92233L57.9117 10.5897 60.7612 10.5897C61.7059 10.5897 62.4695 11.355 62.4695 12.298L62.4695 15.18 64.7945 17.5238C65.4591 18.19 65.4591 19.2663 64.7945 19.9308L62.4695 22.2747 62.4695 24.463C62.4695 25.406 61.7059 26.1714 60.7612 26.1714L58.5984 26.1714 56.2546 28.5323C55.9317 28.8552 55.4995 29.0363 55.0417 29.0363ZM50.3865 22.753 52.1956 22.753C52.6534 22.753 53.0856 22.9341 53.4085 23.257L55.0417 24.9038 56.6748 23.257C56.996 22.9341 57.4299 22.753 57.8878 22.753L59.0528 22.753 59.0528 21.5691C59.0528 21.1181 59.2305 20.6842 59.55 20.3648L61.1763 18.7265 59.55 17.0882C59.2288 16.7687 59.0528 16.3365 59.0528 15.8838L59.0528 14.0063 57.1976 14.0063C56.7415 14.0063 56.3075 13.8252 55.9847 13.5007L55.0417 12.5508 54.097 13.5024C53.7758 13.8252 53.3402 14.0063 52.8823 14.0063L50.3865 14.0063 50.3865 16.5313C50.3865 16.9823 50.2088 17.4145 49.8893 17.7356L48.907 18.7265 49.8893 19.719C50.2088 20.0402 50.3865 20.4724 50.3865 20.9234L50.3865 22.753Z"/><path d="M41.375 22.0833 37.9583 22.0833C37.0153 22.0833 36.25 21.318 36.25 20.375 36.25 19.432 37.0153 18.6667 37.9583 18.6667L41.375 18.6667C42.318 18.6667 43.0833 19.432 43.0833 20.375 43.0833 21.318 42.318 22.0833 41.375 22.0833Z"/><path d="M41.375 28.9167 37.9583 28.9167C37.0153 28.9167 36.25 28.153 36.25 27.2083 36.25 26.2653 37.0153 25.5 37.9583 25.5L41.375 25.5C42.318 25.5 43.0833 26.2653 43.0833 27.2083 43.0833 28.153 42.318 28.9167 41.375 28.9167Z"/><path d="M41.375 35.75 37.9583 35.75C37.0153 35.75 36.25 34.9864 36.25 34.0417 36.25 33.097 37.0153 32.3333 37.9583 32.3333L41.375 32.3333C42.318 32.3333 43.0833 33.097 43.0833 34.0417 43.0833 34.9864 42.318 35.75 41.375 35.75Z"/><path d="M51.625 35.75 48.2083 35.75C47.2636 35.75 46.5 34.9864 46.5 34.0417 46.5 33.097 47.2636 32.3333 48.2083 32.3333L51.625 32.3333C52.5697 32.3333 53.3333 33.097 53.3333 34.0417 53.3333 34.9864 52.5697 35.75 51.625 35.75Z"/><path d="M56.7517 18.6667C56.7517 19.6102 55.9869 20.375 55.0434 20.375 54.0999 20.375 53.335 19.6102 53.335 18.6667 53.335 17.7232 54.0999 16.9583 55.0434 16.9583 55.9869 16.9583 56.7517 17.7232 56.7517 18.6667Z"/></g></g></g><text font-family="Calibri,Calibri_MSFontService,sans-serif" font-weight="700" transform="translate(21.4506 66)">PROGRAM</text></g></svg>