<svg width="96" height="96" xmlns="http://www.w3.org/2000/svg" xmlns:xlink="http://www.w3.org/1999/xlink" overflow="hidden"><defs><clipPath id="clip0"><path d="M0 0 96 0 96 96 0 96Z" fill-rule="evenodd" clip-rule="evenodd"/></clipPath><clipPath id="clip1"><path d="M26 5 67 5 67 46 26 46Z" fill-rule="evenodd" clip-rule="evenodd"/></clipPath><clipPath id="clip2"><path d="M26 5 67 5 67 46 26 46Z" fill-rule="evenodd" clip-rule="evenodd"/></clipPath><clipPath id="clip3"><path d="M26 5 67 5 67 46 26 46Z" fill-rule="evenodd" clip-rule="evenodd"/></clipPath></defs><g clip-path="url(#clip0)"><path d="M0 0 96 0 96 96 0 96Z" fill="#313131" fill-rule="evenodd"/><text fill="#FFFFFF" font-family="Calibri,Calibri_MSFontService,sans-serif" font-weight="300" font-size="5" transform="translate(9.60011 -3)">LOGICGATE</text><rect x="26.5001" y="5.50005" width="1" height="1" stroke="#2F528F" stroke-width="1.33333" stroke-miterlimit="8" fill="#4472C4"/><path d="M4.58866 0.500053 92.4114 0.500053C94.6695 0.500053 96.5001 2.33059 96.5001 4.58866L96.5001 93.3868C96.5001 95.1062 95.1062 96.5001 93.3868 96.5001L3.61333 96.5001C1.89392 96.5001 0.500053 95.1062 0.500053 93.3868L0.500053 4.58866C0.500053 2.33059 2.33059 0.500053 4.58866 0.500053Z" stroke="#5AA203" stroke-width="4.66667" stroke-miterlimit="8" fill="#FFFFFF" fill-rule="evenodd"/><g clip-path="url(#clip1)"><g clip-path="url(#clip2)"><g clip-path="url(#clip3)"><path d="M46.5 42.5833C45.9294 42.5833 45.3964 42.2963 45.0787 41.8231L34.8287 26.4259C34.446 25.8502 34.446 25.102 34.8287 24.5263L45.0787 9.13075C45.7125 8.17921 47.2875 8.17921 47.9213 9.13075L58.1713 24.5263C58.5557 25.1003 58.5557 25.8485 58.1713 26.4259L47.9213 41.8231C47.6036 42.2963 47.0706 42.5833 46.5 42.5833ZM38.3034 25.4761 46.5 37.788 54.6966 25.4744 46.5 13.1641 38.3034 25.4761Z"/></g></g></g><text font-family="Calibri,Calibri_MSFontService,sans-serif" font-weight="700" transform="translate(19.7005 66)">LOGICGATE</text></g></svg>