<svg width="96" height="96" xmlns="http://www.w3.org/2000/svg" xmlns:xlink="http://www.w3.org/1999/xlink" overflow="hidden"><defs><clipPath id="clip0"><path d="M0 0 96 0 96 96 0 96Z" fill-rule="evenodd" clip-rule="evenodd"/></clipPath><clipPath id="clip1"><path d="M26 5 67 5 67 46 26 46Z" fill-rule="evenodd" clip-rule="evenodd"/></clipPath><clipPath id="clip2"><path d="M26 5 67 5 67 46 26 46Z" fill-rule="evenodd" clip-rule="evenodd"/></clipPath><clipPath id="clip3"><path d="M26 5 67 5 67 46 26 46Z" fill-rule="evenodd" clip-rule="evenodd"/></clipPath></defs><g clip-path="url(#clip0)"><path d="M0 0 96 0 96 96 0 96Z" fill="#313131" fill-rule="evenodd"/><text fill="#FFFFFF" font-family="Calibri,Calibri_MSFontService,sans-serif" font-weight="300" font-size="5" transform="translate(9.60011 0)">COMPONENT</text><rect x="26.5001" y="5.50005" width="1" height="1" stroke="#2F528F" stroke-width="1.33333" stroke-miterlimit="8" fill="#4472C4"/><path d="M4.58866 0.500053 92.4114 0.500053C94.6695 0.500053 96.5001 2.33059 96.5001 4.58866L96.5001 93.3868C96.5001 95.1062 95.1062 96.5001 93.3868 96.5001L3.61333 96.5001C1.89392 96.5001 0.500053 95.1062 0.500053 93.3868L0.500053 4.58866C0.500053 2.33059 2.33059 0.500053 4.58866 0.500053Z" stroke="#B74D41" stroke-width="4.66667" stroke-miterlimit="8" fill="#FFFFFF" fill-rule="evenodd"/><g clip-path="url(#clip1)"><g clip-path="url(#clip2)"><g clip-path="url(#clip3)"><path d="M65.2917 5 27.7083 5C26.7653 5 26 5.76533 26 6.70833L26 19.8625C26 20.8055 26.7653 21.5708 27.7083 21.5708L39.354 21.5708C40.1262 24.7996 43.0372 27.2083 46.5 27.2083 49.9611 27.2083 52.8704 24.7996 53.6442 21.5708L65.2917 21.5708C66.2364 21.5708 67 20.8055 67 19.8625L67 6.70833C67 5.76533 66.2364 5 65.2917 5ZM63.5833 18.1542 52.1358 18.1542C51.1911 18.1542 50.4275 18.9195 50.4275 19.8625 50.4275 22.0304 48.6662 23.7917 46.5 23.7917 44.3321 23.7917 42.5708 22.0287 42.5708 19.8625 42.5708 18.9195 41.8055 18.1542 40.8625 18.1542L29.4167 18.1542 29.4167 8.41667 63.5833 8.41667 63.5833 18.1542Z"/><path d="M65.2917 29.4275 52.1614 29.4275C52.1563 29.4275 52.1529 29.4309 52.1478 29.4309 52.1426 29.4309 52.1392 29.4275 52.1341 29.4275 51.1894 29.4275 50.4258 30.1911 50.4258 31.1358 50.4258 33.3054 48.6645 35.0684 46.4983 35.0684 44.3304 35.0684 42.5691 33.3054 42.5691 31.1358 42.5691 30.1911 41.8038 29.4275 40.8608 29.4275 40.8266 29.4275 40.7993 29.4445 40.7668 29.4463 40.7327 29.4445 40.7053 29.4275 40.6729 29.4275L27.7083 29.4275C26.7653 29.4275 26 30.1911 26 31.1358L26 44.2917C26 45.2364 26.7653 46 27.7083 46L65.2917 46C66.2364 46 67 45.2364 67 44.2917L67 31.1358C67 30.1911 66.2364 29.4275 65.2917 29.4275ZM63.5833 42.5833 29.4167 42.5833 29.4167 32.8441 39.3745 32.8441C40.1484 36.0712 43.0406 38.485 46.5 38.485 49.9577 38.485 52.8482 36.0712 53.6237 32.8441L63.5833 32.8441 63.5833 42.5833Z"/></g></g></g><text font-family="Calibri,Calibri_MSFontService,sans-serif" font-weight="700" transform="translate(28.3639 66)">SYSTEM <tspan x="-13.58" y="15">COMPONENT</tspan></text></g></svg>