<svg width="189" height="189" xmlns="http://www.w3.org/2000/svg" xmlns:xlink="http://www.w3.org/1999/xlink" overflow="hidden"><defs><clipPath id="clip0"><path d="M0 0 189 0 189 189 0 189Z" fill-rule="evenodd" clip-rule="evenodd"/></clipPath><clipPath id="clip1"><path d="M51 10 132 10 132 91 51 91Z" fill-rule="evenodd" clip-rule="evenodd"/></clipPath><clipPath id="clip2"><path d="M51 10 132 10 132 91 51 91Z" fill-rule="evenodd" clip-rule="evenodd"/></clipPath><clipPath id="clip3"><path d="M51 10 132 10 132 91 51 91Z" fill-rule="evenodd" clip-rule="evenodd"/></clipPath></defs><g clip-path="url(#clip0)"><rect x="0" y="0" width="189" height="189" fill="#313131"/><text fill="#FFFFFF" font-family="Calibri,Calibri_MSFontService,sans-serif" font-weight="300" font-size="11" transform="translate(9.60032 -5)">TASK</text><rect x="51.5001" y="10.5001" width="1" height="1" stroke="#2F528F" stroke-width="1.33333" stroke-miterlimit="8" fill="#4472C4"/><path d="M8.5495 0.500053 181.451 0.500053C185.896 0.500053 189.5 4.10391 189.5 8.5495L189.5 183.371C189.5 186.756 186.756 189.5 183.371 189.5L6.62932 189.5C3.24422 189.5 0.500053 186.756 0.500053 183.371L0.500053 8.5495C0.500053 4.10391 4.10391 0.500053 8.5495 0.500053Z" stroke="#377692" stroke-width="4.66667" stroke-miterlimit="8" fill="#FFFFFF" fill-rule="evenodd"/><g clip-path="url(#clip1)"><g clip-path="url(#clip2)"><g clip-path="url(#clip3)"><path d="M87.6052 59.95 79.8158 51.85 74.625 57.25 87.6052 70.75 87.6052 70.7466 87.612 70.75 108.375 49.15 103.184 43.75Z"/><path d="M118.5 20.125 108.375 20.125 108.375 16.75C108.375 14.887 106.866 13.375 105 13.375L78 13.375C76.137 13.375 74.625 14.887 74.625 16.75L74.625 20.125 64.5 20.125C62.637 20.125 61.125 21.637 61.125 23.5L61.125 84.25C61.125 86.1164 62.637 87.625 64.5 87.625L118.5 87.625C120.366 87.625 121.875 86.1164 121.875 84.25L121.875 23.5C121.875 21.637 120.366 20.125 118.5 20.125ZM81.375 20.125 101.625 20.125 101.625 26.875 81.375 26.875 81.375 20.125ZM115.125 80.875 67.875 80.875 67.875 26.875 74.625 26.875 74.625 30.25C74.625 32.113 76.137 33.625 78 33.625L105 33.625C106.866 33.625 108.375 32.113 108.375 30.25L108.375 26.875 115.125 26.875 115.125 80.875Z"/></g></g></g><text font-family="Calibri,Calibri_MSFontService,sans-serif" font-weight="700" font-size="24" transform="translate(70.9056 126)">TASK</text></g></svg>