<svg width="189" height="189" xmlns="http://www.w3.org/2000/svg" xmlns:xlink="http://www.w3.org/1999/xlink" overflow="hidden"><defs><clipPath id="clip0"><path d="M0 0 189 0 189 189 0 189Z" fill-rule="evenodd" clip-rule="evenodd"/></clipPath><clipPath id="clip1"><path d="M51 10 132 10 132 91 51 91Z" fill-rule="evenodd" clip-rule="evenodd"/></clipPath><clipPath id="clip2"><path d="M51 10 132 10 132 91 51 91Z" fill-rule="evenodd" clip-rule="evenodd"/></clipPath><clipPath id="clip3"><path d="M51 10 132 10 132 91 51 91Z" fill-rule="evenodd" clip-rule="evenodd"/></clipPath></defs><g clip-path="url(#clip0)"><rect x="0" y="0" width="189" height="189" fill="#313131"/><text fill="#FFFFFF" font-family="Calibri,Calibri_MSFontService,sans-serif" font-weight="300" font-size="11" transform="translate(9.60032 -5)">PROJECT</text><rect x="51.5001" y="10.5001" width="1" height="1" stroke="#2F528F" stroke-width="1.33333" stroke-miterlimit="8" fill="#4472C4"/><path d="M8.5495 0.500053 181.451 0.500053C185.896 0.500053 189.5 4.10391 189.5 8.5495L189.5 183.371C189.5 186.756 186.756 189.5 183.371 189.5L6.62932 189.5C3.24422 189.5 0.500053 186.756 0.500053 183.371L0.500053 8.5495C0.500053 4.10391 4.10391 0.500053 8.5495 0.500053Z" stroke="#46F0F0" stroke-width="4.66667" stroke-miterlimit="8" fill="#FFFFFF" fill-rule="evenodd"/><g clip-path="url(#clip1)"><g clip-path="url(#clip2)"><g clip-path="url(#clip3)"><path d="M121.875 23.5 76.3125 23.5 76.3125 16.75 69.5625 16.75 69.5625 16.75C62.9205 17.5904 57.75 23.3853 57.75 30.25L57.75 70.75C57.75 78.1953 63.8047 84.25 71.25 84.25L121.875 84.25C123.741 84.25 125.25 82.7414 125.25 80.875L125.25 26.875C125.25 25.012 123.741 23.5 121.875 23.5ZM69.5625 23.7396 69.5625 57.4221C67.7332 57.6516 66.0289 58.2389 64.5 59.1299L64.5 30.25C64.5 27.1146 66.66 24.4923 69.5625 23.7396ZM118.5 77.5 71.25 77.5C67.5274 77.5 64.5 74.476 64.5 70.75 64.5 67.024 67.5274 64 71.25 64L76.3125 64 76.3125 30.25 118.5 30.25 118.5 77.5Z"/><path d="M88.125 50.5 91.5 50.5 91.5 57.25 88.125 57.25C86.262 57.25 84.75 58.7586 84.75 60.625 84.75 62.4914 86.262 64 88.125 64L91.5 64 91.5 67.375C91.5 69.2414 93.0086 70.75 94.875 70.75 96.7414 70.75 98.25 69.2414 98.25 67.375L98.25 64 108.375 64C110.241 64 111.75 62.4914 111.75 60.625 111.75 58.7586 110.241 57.25 108.375 57.25L98.25 57.25 98.25 50.5 108.375 50.5C110.241 50.5 111.75 48.988 111.75 47.125 111.75 45.262 110.241 43.75 108.375 43.75L98.25 43.75 98.25 40.375C98.25 38.512 96.7414 37 94.875 37 93.0086 37 91.5 38.512 91.5 40.375L91.5 43.75 88.125 43.75C86.262 43.75 84.75 45.262 84.75 47.125 84.75 48.988 86.262 50.5 88.125 50.5Z"/></g></g></g><text font-family="Calibri,Calibri_MSFontService,sans-serif" font-weight="700" font-size="24" transform="translate(52.7422 126)">PROJECT</text></g></svg>