<svg width="189" height="189" xmlns="http://www.w3.org/2000/svg" xmlns:xlink="http://www.w3.org/1999/xlink" overflow="hidden"><defs><clipPath id="clip0"><path d="M0 0 189 0 189 189 0 189Z" fill-rule="evenodd" clip-rule="evenodd"/></clipPath><clipPath id="clip1"><path d="M51 10 132 10 132 91 51 91Z" fill-rule="evenodd" clip-rule="evenodd"/></clipPath><clipPath id="clip2"><path d="M51 10 132 10 132 91 51 91Z" fill-rule="evenodd" clip-rule="evenodd"/></clipPath><clipPath id="clip3"><path d="M51 10 132 10 132 91 51 91Z" fill-rule="evenodd" clip-rule="evenodd"/></clipPath></defs><g clip-path="url(#clip0)"><rect x="0" y="0" width="189" height="189" fill="#313131"/><text fill="#FFFFFF" font-family="Calibri,Calibri_MSFontService,sans-serif" font-weight="300" font-size="11" transform="translate(9.60032 -5)">TEAM MEMBER</text><rect x="51.5001" y="10.5001" width="1" height="1" stroke="#2F528F" stroke-width="1.33333" stroke-miterlimit="8" fill="#4472C4"/><path d="M8.5495 0.500053 181.451 0.500053C185.896 0.500053 189.5 4.10391 189.5 8.5495L189.5 183.371C189.5 186.756 186.756 189.5 183.371 189.5L6.62932 189.5C3.24422 189.5 0.500053 186.756 0.500053 183.371L0.500053 8.5495C0.500053 4.10391 4.10391 0.500053 8.5495 0.500053Z" stroke="#B74D41" stroke-width="4.66667" stroke-miterlimit="8" fill="#FFFFFF" fill-rule="evenodd"/><g clip-path="url(#clip1)"><g clip-path="url(#clip2)"><g clip-path="url(#clip3)"><path d="M91.5 53.875C84.075 53.875 78 47.8 78 40.375 78 32.95 84.075 26.875 91.5 26.875 98.925 26.875 105 32.95 105 40.375 105 47.8 98.925 53.875 91.5 53.875ZM91.5 33.625C87.7875 33.625 84.75 36.6625 84.75 40.375 84.75 44.0875 87.7875 47.125 91.5 47.125 95.2125 47.125 98.25 44.0875 98.25 40.375 98.25 36.6625 95.2125 33.625 91.5 33.625Z"/><path d="M120.188 37C113.775 37 108.375 31.6 108.375 25.1875 108.375 18.775 113.775 13.375 120.188 13.375 126.6 13.375 132 18.775 132 25.1875 132 31.6 126.6 37 120.188 37ZM120.188 20.125C117.488 20.125 115.125 22.4875 115.125 25.1875 115.125 27.8875 117.488 30.25 120.188 30.25 122.887 30.25 125.25 27.8875 125.25 25.1875 125.25 22.4875 122.887 20.125 120.188 20.125Z"/><path d="M128.625 50.5 111.75 50.5C109.725 50.5 108.375 49.15 108.375 47.125 108.375 45.1 109.725 43.75 111.75 43.75L128.625 43.75C130.65 43.75 132 45.1 132 47.125 132 49.15 130.65 50.5 128.625 50.5Z"/><path d="M62.8125 37C56.4 37 51 31.6 51 25.1875 51 18.775 56.4 13.375 62.8125 13.375 69.225 13.375 74.625 18.775 74.625 25.1875 74.625 31.6 69.225 37 62.8125 37ZM62.8125 20.125C60.1125 20.125 57.75 22.4875 57.75 25.1875 57.75 27.8875 60.1125 30.25 62.8125 30.25 65.5125 30.25 67.875 27.8875 67.875 25.1875 67.875 22.4875 65.5125 20.125 62.8125 20.125Z"/><path d="M71.25 50.5 54.375 50.5C52.35 50.5 51 49.15 51 47.125 51 45.1 52.35 43.75 54.375 43.75L71.25 43.75C73.275 43.75 74.625 45.1 74.625 47.125 74.625 49.15 73.275 50.5 71.25 50.5Z"/><path d="M112.088 87.625C110.4 87.625 108.713 86.275 108.713 84.25L108.713 74.125C108.713 70.4125 105.675 67.375 101.625 67.375L81.7125 67.375C77.6625 67.375 74.625 70.4125 74.625 74.125L74.625 84.25C74.625 85.9375 73.275 87.625 71.25 87.625 69.225 87.625 67.875 86.275 67.875 84.25L67.875 74.125C67.875 66.7 73.95 60.625 81.7125 60.625L101.625 60.625C109.387 60.625 115.463 66.7 115.463 74.125L115.463 84.25C115.463 85.9375 113.775 87.625 112.088 87.625Z"/></g></g></g><text font-family="Calibri,Calibri_MSFontService,sans-serif" font-weight="700" font-size="24" transform="translate(18.0355 126)">TEAM MEMBER</text></g></svg>