<svg width="96" height="96" xmlns="http://www.w3.org/2000/svg" xmlns:xlink="http://www.w3.org/1999/xlink" overflow="hidden"><defs><clipPath id="clip0"><path d="M0 0 96 0 96 96 0 96Z" fill-rule="evenodd" clip-rule="evenodd"/></clipPath><clipPath id="clip1"><path d="M26 5 67 5 67 46 26 46Z" fill-rule="evenodd" clip-rule="evenodd"/></clipPath><clipPath id="clip2"><path d="M26 5 67 5 67 46 26 46Z" fill-rule="evenodd" clip-rule="evenodd"/></clipPath><clipPath id="clip3"><path d="M26 5 67 5 67 46 26 46Z" fill-rule="evenodd" clip-rule="evenodd"/></clipPath></defs><g clip-path="url(#clip0)"><path d="M0 0 96 0 96 96 0 96Z" fill="#313131" fill-rule="evenodd"/><text fill="#FFFFFF" font-family="Calibri,Calibri_MSFontService,sans-serif" font-weight="300" font-size="5" transform="translate(9.60011 -3)">RESULT</text><rect x="26.5001" y="5.50005" width="1" height="1" stroke="#2F528F" stroke-width="1.33333" stroke-miterlimit="8" fill="#4472C4"/><path d="M4.58866 0.500053 92.4114 0.500053C94.6695 0.500053 96.5001 2.33059 96.5001 4.58866L96.5001 93.3868C96.5001 95.1062 95.1062 96.5001 93.3868 96.5001L3.61333 96.5001C1.89392 96.5001 0.500053 95.1062 0.500053 93.3868L0.500053 4.58866C0.500053 2.33059 2.33059 0.500053 4.58866 0.500053Z" stroke="#5AA203" stroke-width="4.66667" stroke-miterlimit="8" fill="#FFFFFF" fill-rule="evenodd"/><g clip-path="url(#clip1)"><g clip-path="url(#clip2)"><g clip-path="url(#clip3)"><path d="M56.75 15.7181 48.3416 24.4528 48.3382 24.4528 48.3382 24.4528 43.0833 18.9947 45.1846 16.8097 48.3382 20.0863 54.6488 13.5348Z"/><path d="M56.75 27.6593 48.3416 36.3958 48.3382 36.394 48.3382 36.3958 43.0833 30.9393 45.1846 28.7493 48.3382 32.0258 54.6488 25.4761Z"/><path d="M61.875 44.2455 37.9583 44.2455C37.0153 44.2455 36.25 43.4819 36.25 42.5372L36.25 8.41667C36.25 7.47367 37.0153 6.70833 37.9583 6.70833L61.875 6.70833C62.8197 6.70833 63.5833 7.47367 63.5833 8.41667L63.5833 42.5372C63.5833 43.4802 62.8197 44.2455 61.875 44.2455ZM39.6667 40.8289 60.1667 40.8289 60.1667 10.125 39.6667 10.125 39.6667 40.8289Z"/><path d="M32.8333 44.2917C31.8903 44.2917 31.125 43.528 31.125 42.5833L31.125 8.41667C31.125 7.47367 31.8903 6.70833 32.8333 6.70833 33.7763 6.70833 34.5417 7.47367 34.5417 8.41667L34.5417 42.5833C34.5417 43.528 33.7763 44.2917 32.8333 44.2917Z"/></g></g></g><text font-family="Calibri,Calibri_MSFontService,sans-serif" font-weight="700" transform="translate(29.7005 66)">RESULT</text></g></svg>