<svg width="189" height="189" xmlns="http://www.w3.org/2000/svg" xmlns:xlink="http://www.w3.org/1999/xlink" overflow="hidden"><defs><clipPath id="clip0"><path d="M0 0 189 0 189 189 0 189Z" fill-rule="evenodd" clip-rule="evenodd"/></clipPath><clipPath id="clip1"><path d="M51 10 132 10 132 91 51 91Z" fill-rule="evenodd" clip-rule="evenodd"/></clipPath><clipPath id="clip2"><path d="M51 10 132 10 132 91 51 91Z" fill-rule="evenodd" clip-rule="evenodd"/></clipPath><clipPath id="clip3"><path d="M51 10 132 10 132 91 51 91Z" fill-rule="evenodd" clip-rule="evenodd"/></clipPath></defs><g clip-path="url(#clip0)"><rect x="0" y="0" width="189" height="189" fill="#313131"/><text fill="#FFFFFF" font-family="Calibri,Calibri_MSFontService,sans-serif" font-weight="300" font-size="11" transform="translate(9.60032 -5)">PLACE</text><rect x="51.5001" y="10.5001" width="1" height="1" stroke="#2F528F" stroke-width="1.33333" stroke-miterlimit="8" fill="#4472C4"/><path d="M8.5495 0.500053 181.451 0.500053C185.896 0.500053 189.5 4.10391 189.5 8.5495L189.5 183.371C189.5 186.756 186.756 189.5 183.371 189.5L6.62932 189.5C3.24422 189.5 0.500053 186.756 0.500053 183.371L0.500053 8.5495C0.500053 4.10391 4.10391 0.500053 8.5495 0.500053Z" stroke="#911EB4" stroke-width="4.66667" stroke-miterlimit="8" fill="#FFFFFF" fill-rule="evenodd"/><g clip-path="url(#clip1)"><g clip-path="url(#clip2)"><g clip-path="url(#clip3)"><path d="M98.25 35.3125C98.25 39.0404 95.2279 42.0625 91.5 42.0625 87.7721 42.0625 84.75 39.0404 84.75 35.3125 84.75 31.5846 87.7721 28.5625 91.5 28.5625 95.2279 28.5625 98.25 31.5846 98.25 35.3125Z"/><path d="M125.25 79.1875 95.2429 79.1875C98.7428 71.938 111.75 44.3271 111.75 35.3125 111.75 24.1446 102.668 15.0625 91.5 15.0625 80.3321 15.0625 71.25 24.1446 71.25 35.3125 71.25 44.3271 84.2572 71.938 87.7504 79.1875L57.75 79.1875C55.887 79.1875 54.375 80.6961 54.375 82.5625 54.375 84.4289 55.887 85.9375 57.75 85.9375L125.25 85.9375C127.116 85.9375 128.625 84.4289 128.625 82.5625 128.625 80.6961 127.116 79.1875 125.25 79.1875ZM91.5 21.8125C98.9453 21.8125 105 27.8673 105 35.3125 105 40.6112 97.629 58.1646 91.5 71.3406 85.3676 58.1646 78 40.6146 78 35.3125 78 27.8673 84.0547 21.8125 91.5 21.8125Z"/></g></g></g><text font-family="Calibri,Calibri_MSFontService,sans-serif" font-weight="700" font-size="24" transform="translate(64.7822 126)">PLACE</text></g></svg>