<svg width="96" height="96" xmlns="http://www.w3.org/2000/svg" xmlns:xlink="http://www.w3.org/1999/xlink" overflow="hidden"><defs><clipPath id="clip0"><path d="M0 0 96 0 96 96 0 96Z" fill-rule="evenodd" clip-rule="evenodd"/></clipPath><clipPath id="clip1"><path d="M26 5 67 5 67 46 26 46Z" fill-rule="evenodd" clip-rule="evenodd"/></clipPath><clipPath id="clip2"><path d="M26 5 67 5 67 46 26 46Z" fill-rule="evenodd" clip-rule="evenodd"/></clipPath><clipPath id="clip3"><path d="M26 5 67 5 67 46 26 46Z" fill-rule="evenodd" clip-rule="evenodd"/></clipPath></defs><g clip-path="url(#clip0)"><path d="M0 0 96 0 96 96 0 96Z" fill="#313131" fill-rule="evenodd"/><text fill="#FFFFFF" font-family="Calibri,Calibri_MSFontService,sans-serif" font-weight="300" font-size="5" transform="translate(9.60011 -3)">PRICE</text><rect x="26.5001" y="5.50005" width="1" height="1" stroke="#2F528F" stroke-width="1.33333" stroke-miterlimit="8" fill="#4472C4"/><path d="M4.58866 0.500053 92.4114 0.500053C94.6695 0.500053 96.5001 2.33059 96.5001 4.58866L96.5001 93.3868C96.5001 95.1062 95.1062 96.5001 93.3868 96.5001L3.61333 96.5001C1.89392 96.5001 0.500053 95.1062 0.500053 93.3868L0.500053 4.58866C0.500053 2.33059 2.33059 0.500053 4.58866 0.500053Z" stroke="#911EB4" stroke-width="4.66667" stroke-miterlimit="8" fill="#FFFFFF" fill-rule="evenodd"/><g clip-path="url(#clip1)"><g clip-path="url(#clip2)"><g clip-path="url(#clip3)"><path d="M54.4882 26.8205C52.9814 25.7528 50.7623 24.897 47.8325 24.2478 45.7928 23.7336 44.3543 23.2484 43.5241 22.7872 42.6887 22.3293 42.2719 21.74 42.2719 21.0225 42.2719 20.2383 42.6614 19.5943 43.4387 19.0903 44.216 18.5864 45.3178 18.3353 46.7409 18.3353 48.2237 18.3353 49.3751 18.6376 50.1951 19.2424 51.0151 19.8471 51.4268 20.6398 51.4268 21.6187L56.5877 21.6187 56.6236 21.5315C56.6834 19.719 55.7985 18.1969 53.9603 16.9618 52.4296 15.9316 50.4941 15.3559 48.2083 15.1868L48.2083 10.125C48.2083 9.182 47.4447 8.41667 46.5 8.41667 45.5553 8.41667 44.7917 9.182 44.7917 10.125L44.7917 15.2124C42.8117 15.4174 41.1239 15.9316 39.7265 16.7602 37.8712 17.8586 36.9453 19.2748 36.9453 21.0088 36.9453 22.7428 37.755 24.1077 39.3694 25.1054 40.9872 26.103 43.3772 26.964 46.5359 27.6918 48.3484 28.1274 49.616 28.5921 50.3403 29.0858 51.0647 29.5795 51.4251 30.2338 51.4251 31.0453 51.4251 31.8396 51.0407 32.4734 50.2771 32.9449 49.5101 33.4215 48.4031 33.659 46.9578 33.659 45.2307 33.659 43.8845 33.3652 42.9193 32.7775 41.9541 32.1915 41.469 31.269 41.469 30.0117L36.2893 30.0117 36.2534 30.0988C36.1919 32.2377 37.2374 33.905 39.3899 35.0906 40.9872 35.9721 42.7878 36.5222 44.7917 36.7511L44.7917 40.875C44.7917 41.8197 45.5553 42.5833 46.5 42.5833 47.4447 42.5833 48.2083 41.8197 48.2083 40.875L48.2083 36.816C50.5675 36.6828 52.5338 36.1959 54.0611 35.3058 55.8531 34.2586 56.75 32.8305 56.75 31.0179 56.75 29.2857 55.9966 27.8848 54.4882 26.8205Z"/></g></g></g><text font-family="Calibri,Calibri_MSFontService,sans-serif" font-weight="700" transform="translate(34.0339 66)">PRICE</text></g></svg>