<svg width="96" height="96" xmlns="http://www.w3.org/2000/svg" xmlns:xlink="http://www.w3.org/1999/xlink" overflow="hidden"><defs><clipPath id="clip0"><path d="M0 0 96 0 96 96 0 96Z" fill-rule="evenodd" clip-rule="evenodd"/></clipPath><clipPath id="clip1"><path d="M26 5 67 5 67 46 26 46Z" fill-rule="evenodd" clip-rule="evenodd"/></clipPath><clipPath id="clip2"><path d="M26 5 67 5 67 46 26 46Z" fill-rule="evenodd" clip-rule="evenodd"/></clipPath><clipPath id="clip3"><path d="M26 5 67 5 67 46 26 46Z" fill-rule="evenodd" clip-rule="evenodd"/></clipPath></defs><g clip-path="url(#clip0)"><path d="M0 0 96 0 96 96 0 96Z" fill="#313131" fill-rule="evenodd"/><text fill="#FFFFFF" font-family="Calibri,Calibri_MSFontService,sans-serif" font-weight="300" font-size="5" transform="translate(9.60011 -3)">CONTEXT</text><rect x="26.5001" y="5.50005" width="1" height="1" stroke="#2F528F" stroke-width="1.33333" stroke-miterlimit="8" fill="#4472C4"/><path d="M4.58866 0.500053 92.4114 0.500053C94.6695 0.500053 96.5001 2.33059 96.5001 4.58866L96.5001 93.3868C96.5001 95.1062 95.1062 96.5001 93.3868 96.5001L3.61333 96.5001C1.89392 96.5001 0.500053 95.1062 0.500053 93.3868L0.500053 4.58866C0.500053 2.33059 2.33059 0.500053 4.58866 0.500053Z" stroke="#A65462" stroke-width="4.66667" stroke-miterlimit="8" fill="#FFFFFF" fill-rule="evenodd"/><g clip-path="url(#clip1)"><g clip-path="url(#clip2)"><g clip-path="url(#clip3)"><path d="M53.5127 35.75 39.419 35.75C37.6499 35.75 36.2158 37.1841 36.2158 38.9531 36.2158 40.7221 37.6499 42.1563 39.419 42.1563L53.5127 42.1563C55.2817 42.1563 56.7158 40.7221 56.7158 38.9531 56.7158 37.1841 55.2817 35.75 53.5127 35.75ZM40.2731 40.2344C39.5655 40.2344 38.9919 39.6608 38.9919 38.9531 38.9919 38.2455 39.5655 37.6719 40.2731 37.6719 40.9808 37.6719 41.5544 38.2455 41.5544 38.9531 41.5544 39.6608 40.9808 40.2344 40.2731 40.2344ZM46.4658 40.2344C45.7582 40.2344 45.1846 39.6608 45.1846 38.9531 45.1846 38.2455 45.7582 37.6719 46.4658 37.6719 47.1735 37.6719 47.7471 38.2455 47.7471 38.9531 47.7471 39.6608 47.1735 40.2344 46.4658 40.2344ZM52.6585 40.2344C51.9509 40.2344 51.3773 39.6608 51.3773 38.9531 51.3773 38.2455 51.9509 37.6719 52.6585 37.6719 53.3662 37.6719 53.9398 38.2455 53.9398 38.9531 53.9398 39.6608 53.3662 40.2344 52.6585 40.2344Z"/><path d="M49.417 16.9583C49.417 17.3121 49.1302 17.599 48.7764 17.599 48.4225 17.599 48.1357 17.3121 48.1357 16.9583 48.1357 16.6045 48.4225 16.3177 48.7764 16.3177 49.1302 16.3177 49.417 16.6045 49.417 16.9583Z"/><path d="M50.1772 12.6875 47.3542 12.6875 47.3542 10.7443C48.1713 10.2725 48.4512 9.22773 47.9795 8.41064 47.5077 7.59356 46.4629 7.31361 45.6458 7.78535 44.8287 8.2571 44.5488 9.30188 45.0205 10.119 45.1705 10.3787 45.3861 10.5943 45.6458 10.7443L45.6458 12.6875 42.8228 12.6875C41.7883 12.6898 40.9503 13.5279 40.9479 14.5624L40.9479 19.3543C40.9503 20.3888 41.7883 21.2268 42.8228 21.2292L50.1772 21.2292C51.2117 21.2268 52.0497 20.3888 52.0521 19.3543L52.0521 14.5624C52.0497 13.5279 51.2117 12.6898 50.1772 12.6875ZM44.3646 18.2396C43.657 18.2396 43.0833 17.666 43.0833 16.9583 43.0833 16.2507 43.657 15.6771 44.3646 15.6771 45.0722 15.6771 45.6458 16.2507 45.6458 16.9583 45.6458 17.666 45.0722 18.2396 44.3646 18.2396ZM48.6354 18.2396C47.9278 18.2396 47.3542 17.666 47.3542 16.9583 47.3542 16.2507 47.9278 15.6771 48.6354 15.6771 49.343 15.6771 49.9167 16.2507 49.9167 16.9583 49.9167 17.666 49.343 18.2396 48.6354 18.2396Z"/><path d="M45.1461 16.9583C45.1461 17.3121 44.8593 17.599 44.5055 17.599 44.1517 17.599 43.8649 17.3121 43.8649 16.9583 43.8649 16.6045 44.1517 16.3177 44.5055 16.3177 44.8593 16.3177 45.1461 16.6045 45.1461 16.9583Z"/><path d="M57.6042 30.121 57.6042 26.5634C57.6042 25.5044 56.7456 24.6458 55.6866 24.6458L53.3333 24.6458 53.3333 22.5104 39.6667 22.5104 39.6667 25.0729 36.4593 25.0729C36.3437 25.0729 36.25 24.9792 36.25 24.8636L36.25 21.3231C37.7181 20.8895 38.5568 19.3479 38.1232 17.8798 38.007 17.4862 37.8048 17.1234 37.5313 16.8174L36.25 17.9534C36.4292 18.1483 36.531 18.402 36.5361 18.6667 36.5329 19.2563 36.0523 19.7318 35.4626 19.7286 34.873 19.7253 34.3976 19.2447 34.4008 18.6551 34.4021 18.4003 34.4945 18.1546 34.6613 17.962L33.38 16.8387C32.3734 17.9952 32.4949 19.7487 33.6514 20.7553 33.913 20.983 34.215 21.1597 34.5417 21.2761L34.5417 24.8636C34.5417 25.9227 35.4002 26.7813 36.4593 26.7813L39.6667 26.7813 39.6667 34.4688 53.3333 34.4688 53.3333 26.3542 55.6866 26.3542C55.8021 26.3542 55.8958 26.4479 55.8958 26.5634L55.8958 30.121C54.4371 30.5929 53.6371 32.158 54.109 33.6168 54.2271 33.9818 54.4196 34.3185 54.6744 34.6054L55.9556 33.4694C55.7789 33.2757 55.6814 33.0226 55.6823 32.7604 55.6828 32.1707 56.1612 31.6931 56.7509 31.6936 57.3406 31.6941 57.8182 32.1725 57.8177 32.7622 57.8175 33.0209 57.7234 33.2706 57.5529 33.4651L58.8342 34.5883C59.8447 33.4385 59.7317 31.6871 58.5818 30.6766 58.2974 30.4265 57.9646 30.2375 57.6042 30.121ZM51.625 28.4896 50.4377 28.4896C50.3964 28.497 50.3571 28.513 50.3224 28.5366L49.0155 29.8733 48.0204 27.5158 46.1626 31.3596 44.86 26.3542 43.8564 28.4896 41.8021 28.4896 41.8021 27.6354 43.314 27.6354 45.0906 23.8557 46.406 28.8868 48.0759 25.4701 49.3059 28.3828 49.733 27.9557C49.9206 27.7659 50.1714 27.6519 50.4377 27.6354L51.625 27.6354Z"/></g></g></g><text font-family="Calibri,Calibri_MSFontService,sans-serif" font-weight="700" transform="translate(24.8672 66)">CONTEXT</text></g></svg>