<svg width="189" height="189" xmlns="http://www.w3.org/2000/svg" xmlns:xlink="http://www.w3.org/1999/xlink" overflow="hidden"><defs><clipPath id="clip0"><path d="M0 0 189 0 189 189 0 189Z" fill-rule="evenodd" clip-rule="evenodd"/></clipPath><clipPath id="clip1"><path d="M51 10 132 10 132 91 51 91Z" fill-rule="evenodd" clip-rule="evenodd"/></clipPath><clipPath id="clip2"><path d="M51 10 132 10 132 91 51 91Z" fill-rule="evenodd" clip-rule="evenodd"/></clipPath><clipPath id="clip3"><path d="M51 10 132 10 132 91 51 91Z" fill-rule="evenodd" clip-rule="evenodd"/></clipPath></defs><g clip-path="url(#clip0)"><rect x="0" y="0" width="189" height="189" fill="#313131"/><text fill="#FFFFFF" font-family="Calibri,Calibri_MSFontService,sans-serif" font-weight="300" font-size="11" transform="translate(9.60032 -5)">PAINPOINT</text><rect x="51.5001" y="10.5001" width="1" height="1" stroke="#2F528F" stroke-width="1.33333" stroke-miterlimit="8" fill="#4472C4"/><path d="M8.5495 0.500053 181.451 0.500053C185.896 0.500053 189.5 4.10391 189.5 8.5495L189.5 183.371C189.5 186.756 186.756 189.5 183.371 189.5L6.62932 189.5C3.24422 189.5 0.500053 186.756 0.500053 183.371L0.500053 8.5495C0.500053 4.10391 4.10391 0.500053 8.5495 0.500053Z" stroke="#FABEBE" stroke-width="4.66667" stroke-miterlimit="8" fill="#FFFFFF" fill-rule="evenodd"/><g clip-path="url(#clip1)"><g clip-path="url(#clip2)"><g clip-path="url(#clip3)"><path d="M91.5 91C91.5 91 91.4966 91 91.4933 91 90.366 90.9966 89.3164 90.4364 88.692 89.4981 87.7031 88.0165 64.5 53.0515 64.5 36.4364 64.5 20.3781 75.0975 10 91.5 10 108.156 10 118.5 20.1284 118.5 36.4364 118.5 53.3249 95.2901 88.0401 94.3013 89.5049 93.6735 90.4398 92.6239 91 91.5 91ZM91.5 16.75C85.4115 16.75 71.25 18.667 71.25 36.4364 71.25 47.0406 84.0311 69.5485 91.5101 81.4218 98.9891 69.6194 111.75 47.2262 111.75 36.4364 111.75 18.667 97.5885 16.75 91.5 16.75Z"/><path d="M94.875 57.25C94.875 59.114 93.364 60.625 91.5 60.625 89.636 60.625 88.125 59.114 88.125 57.25 88.125 55.386 89.636 53.875 91.5 53.875 93.364 53.875 94.875 55.386 94.875 57.25Z"/><path d="M91.5169 50.5C89.6539 50.5 88.1452 48.9914 88.1419 47.1284L88.125 26.8784C88.125 25.0154 89.6336 23.5 91.4966 23.5 91.5 23.5 91.5 23.5 91.5 23.5 93.363 23.5 94.875 25.0086 94.875 26.8716L94.8919 47.1216C94.8919 48.9846 93.3832 50.5 91.5169 50.5 91.5202 50.5 91.5202 50.5 91.5169 50.5Z"/></g></g></g><text font-family="Calibri,Calibri_MSFontService,sans-serif" font-weight="700" font-size="24" transform="translate(40.5289 126)">PAINPOINT</text></g></svg>