<svg width="189" height="189" xmlns="http://www.w3.org/2000/svg" xmlns:xlink="http://www.w3.org/1999/xlink" overflow="hidden"><defs><clipPath id="clip0"><path d="M0 0 189 0 189 189 0 189Z" fill-rule="evenodd" clip-rule="evenodd"/></clipPath><clipPath id="clip1"><path d="M51 10 132 10 132 91 51 91Z" fill-rule="evenodd" clip-rule="evenodd"/></clipPath><clipPath id="clip2"><path d="M51 10 132 10 132 91 51 91Z" fill-rule="evenodd" clip-rule="evenodd"/></clipPath><clipPath id="clip3"><path d="M51 10 132 10 132 91 51 91Z" fill-rule="evenodd" clip-rule="evenodd"/></clipPath></defs><g clip-path="url(#clip0)"><rect x="0" y="0" width="189" height="189" fill="#313131"/><text fill="#FFFFFF" font-family="Calibri,Calibri_MSFontService,sans-serif" font-weight="300" font-size="11" transform="translate(9.60032 -5)">ROLE</text><rect x="51.5001" y="10.5001" width="1" height="1" stroke="#2F528F" stroke-width="1.33333" stroke-miterlimit="8" fill="#4472C4"/><path d="M8.5495 0.500053 181.451 0.500053C185.896 0.500053 189.5 4.10391 189.5 8.5495L189.5 183.371C189.5 186.756 186.756 189.5 183.371 189.5L6.62932 189.5C3.24422 189.5 0.500053 186.756 0.500053 183.371L0.500053 8.5495C0.500053 4.10391 4.10391 0.500053 8.5495 0.500053Z" stroke="#CEB023" stroke-width="4.66667" stroke-miterlimit="8" fill="#FFFFFF" fill-rule="evenodd"/><g clip-path="url(#clip1)"><g clip-path="url(#clip2)"><g clip-path="url(#clip3)"><path d="M91.5 43.75C85.9177 43.75 81.375 48.2927 81.375 53.875 81.375 59.4573 85.9177 64 91.5 64 97.0823 64 101.625 59.4573 101.625 53.875 101.625 48.2927 97.0823 43.75 91.5 43.75ZM91.5 57.25C89.637 57.25 88.125 55.738 88.125 53.875 88.125 52.0154 89.637 50.5 91.5 50.5 93.363 50.5 94.875 52.0154 94.875 53.875 94.875 55.738 93.363 57.25 91.5 57.25Z"/><path d="M121.875 26.875 101.625 26.875 101.625 20.125C101.625 18.262 100.116 16.75 98.25 16.75L84.75 16.75C82.887 16.75 81.375 18.262 81.375 20.125L81.375 26.875 61.125 26.875C59.262 26.875 57.75 28.387 57.75 30.25L57.75 84.25C57.75 86.1164 59.262 87.625 61.125 87.625L121.875 87.625C123.741 87.625 125.25 86.1164 125.25 84.25L125.25 30.25C125.25 28.387 123.741 26.875 121.875 26.875ZM88.125 23.5 94.875 23.5 94.875 33.625 88.125 33.625 88.125 23.5ZM101.625 80.875 81.375 80.875 81.375 77.5C81.375 75.6066 82.8532 74.125 84.7433 74.125L98.2567 74.125C100.147 74.125 101.625 75.6066 101.625 77.5L101.625 80.875ZM118.5 80.875 108.375 80.875 108.375 77.5C108.375 71.9178 103.832 67.375 98.2567 67.375L84.7433 67.375C79.1644 67.375 74.625 71.9178 74.625 77.5L74.625 80.875 64.5 80.875 64.5 33.625 81.375 33.625 81.375 37C81.375 38.863 82.887 40.375 84.75 40.375L98.25 40.375C100.116 40.375 101.625 38.863 101.625 37L101.625 33.625 118.5 33.625 118.5 80.875Z"/></g></g></g><text font-family="Calibri,Calibri_MSFontService,sans-serif" font-weight="700" font-size="24" transform="translate(69.7589 126)">ROLE</text></g></svg>