<svg width="189" height="189" xmlns="http://www.w3.org/2000/svg" xmlns:xlink="http://www.w3.org/1999/xlink" overflow="hidden"><defs><clipPath id="clip0"><path d="M0 0 189 0 189 189 0 189Z" fill-rule="evenodd" clip-rule="evenodd"/></clipPath><clipPath id="clip1"><path d="M51 10 132 10 132 91 51 91Z" fill-rule="evenodd" clip-rule="evenodd"/></clipPath><clipPath id="clip2"><path d="M51 10 132 10 132 91 51 91Z" fill-rule="evenodd" clip-rule="evenodd"/></clipPath><clipPath id="clip3"><path d="M51 10 132 10 132 91 51 91Z" fill-rule="evenodd" clip-rule="evenodd"/></clipPath></defs><g clip-path="url(#clip0)"><rect x="0" y="0" width="189" height="189" fill="#313131"/><text fill="#FFFFFF" font-family="Calibri,Calibri_MSFontService,sans-serif" font-weight="300" font-size="11" transform="translate(9.60032 -5)">INTERACTION</text><rect x="51.5001" y="10.5001" width="1" height="1" stroke="#2F528F" stroke-width="1.33333" stroke-miterlimit="8" fill="#4472C4"/><path d="M8.5495 0.500053 181.451 0.500053C185.896 0.500053 189.5 4.10391 189.5 8.5495L189.5 183.371C189.5 186.756 186.756 189.5 183.371 189.5L6.62932 189.5C3.24422 189.5 0.500053 186.756 0.500053 183.371L0.500053 8.5495C0.500053 4.10391 4.10391 0.500053 8.5495 0.500053Z" stroke="#C76F36" stroke-width="4.66667" stroke-miterlimit="8" fill="#FFFFFF" fill-rule="evenodd"/><g clip-path="url(#clip1)"><g clip-path="url(#clip2)"><g clip-path="url(#clip3)"><path d="M61.125 47.125C62.988 47.125 64.5 45.613 64.5 43.75L64.5 30.25 113.728 30.25 109.364 34.6139C108.044 35.9335 108.044 38.0665 109.364 39.3861 110.022 40.0443 110.886 40.375 111.75 40.375 112.614 40.375 113.478 40.0443 114.136 39.3861L124.261 29.2611C125.581 27.9415 125.581 25.8085 124.261 24.4889L114.136 14.3639C112.816 13.0443 110.684 13.0443 109.364 14.3639 108.044 15.6835 108.044 17.8165 109.364 19.1361L113.728 23.5 61.125 23.5C59.262 23.5 57.75 25.0154 57.75 26.875L57.75 43.75C57.75 45.613 59.262 47.125 61.125 47.125Z"/><path d="M121.875 50.5C120.009 50.5 118.5 52.0086 118.5 53.875L118.5 67.375 69.2722 67.375 73.6361 63.0111C74.9557 61.6915 74.9557 59.5585 73.6361 58.2389 72.3165 56.9193 70.1835 56.9193 68.8639 58.2389L58.7389 68.3639C57.4193 69.6835 57.4193 71.8165 58.7389 73.1361L68.8639 83.2611C69.522 83.9193 70.386 84.25 71.25 84.25 72.114 84.25 72.978 83.9193 73.6361 83.2611 74.9557 81.9415 74.9557 79.8085 73.6361 78.4889L69.2722 74.125 121.875 74.125C123.741 74.125 125.25 72.6164 125.25 70.75L125.25 53.875C125.25 52.0086 123.741 50.5 121.875 50.5Z"/></g></g></g><text font-family="Calibri,Calibri_MSFontService,sans-serif" font-weight="700" font-size="24" transform="translate(27.8089 126)">INTERACTION</text></g></svg>