<svg width="96" height="96" xmlns="http://www.w3.org/2000/svg" xmlns:xlink="http://www.w3.org/1999/xlink" overflow="hidden"><defs><clipPath id="clip0"><path d="M0 0 96 0 96 96 0 96Z" fill-rule="evenodd" clip-rule="evenodd"/></clipPath><clipPath id="clip1"><path d="M26 5 67 5 67 46 26 46Z" fill-rule="evenodd" clip-rule="evenodd"/></clipPath><clipPath id="clip2"><path d="M26 5 67 5 67 46 26 46Z" fill-rule="evenodd" clip-rule="evenodd"/></clipPath><clipPath id="clip3"><path d="M26 5 67 5 67 46 26 46Z" fill-rule="evenodd" clip-rule="evenodd"/></clipPath></defs><g clip-path="url(#clip0)"><path d="M0 0 96 0 96 96 0 96Z" fill="#313131" fill-rule="evenodd"/><text fill="#FFFFFF" font-family="Calibri,Calibri_MSFontService,sans-serif" font-weight="300" font-size="5" transform="translate(9.60011 0)">FEATURE</text><rect x="26.5001" y="5.50005" width="1" height="1" stroke="#2F528F" stroke-width="1.33333" stroke-miterlimit="8" fill="#4472C4"/><path d="M4.58866 0.500053 92.4114 0.500053C94.6695 0.500053 96.5001 2.33059 96.5001 4.58866L96.5001 93.3868C96.5001 95.1062 95.1062 96.5001 93.3868 96.5001L3.61333 96.5001C1.89392 96.5001 0.500053 95.1062 0.500053 93.3868L0.500053 4.58866C0.500053 2.33059 2.33059 0.500053 4.58866 0.500053Z" stroke="#911EB4" stroke-width="4.66667" stroke-miterlimit="8" fill="#FFFFFF" fill-rule="evenodd"/><g clip-path="url(#clip1)"><g clip-path="url(#clip2)"><g clip-path="url(#clip3)"><path d="M61.875 22.0833 31.125 22.0833C30.182 22.0833 29.4167 22.8487 29.4167 23.7917L29.4167 30.625C29.4167 31.5697 30.182 32.3333 31.125 32.3333L32.8333 32.3333 32.8333 42.5833C32.8333 43.528 33.5987 44.2917 34.5417 44.2917L58.4583 44.2917C59.403 44.2917 60.1667 43.528 60.1667 42.5833L60.1667 32.3333 61.875 32.3333C62.8197 32.3333 63.5833 31.5697 63.5833 30.625L63.5833 23.7917C63.5833 22.8487 62.8197 22.0833 61.875 22.0833ZM56.75 40.875 36.25 40.875 36.25 32.3333 56.75 32.3333 56.75 40.875ZM60.1667 28.9167 58.4583 28.9167 34.5417 28.9167 32.8333 28.9167 32.8333 25.5 60.1667 25.5 60.1667 28.9167Z"/><path d="M45.2307 18.1012C45.5536 18.4617 46.0165 18.6667 46.5 18.6667 46.9835 18.6667 47.4481 18.4617 47.7693 18.1012L52.8943 12.4073C53.3145 11.9392 53.4427 11.2781 53.2325 10.687L52.2058 7.83925C51.9632 7.16104 51.3209 6.70833 50.6 6.70833L42.4 6.70833C41.6791 6.70833 41.0368 7.16104 40.7925 7.83754L39.7675 10.6853C39.5539 11.2764 39.6838 11.9392 40.1057 12.4056L45.2307 18.1012ZM43.601 10.125 49.4007 10.125 49.6724 10.8801 46.5 14.4044 43.3293 10.8818 43.601 10.125Z"/></g></g></g><text font-family="Calibri,Calibri_MSFontService,sans-serif" font-weight="700" transform="translate(23.7839 66)">PRODUCT <tspan x="1.91333" y="15">FEATURE</tspan></text></g></svg>