<svg width="96" height="96" xmlns="http://www.w3.org/2000/svg" xmlns:xlink="http://www.w3.org/1999/xlink" overflow="hidden"><defs><clipPath id="clip0"><path d="M0 0 96 0 96 96 0 96Z" fill-rule="evenodd" clip-rule="evenodd"/></clipPath><clipPath id="clip1"><path d="M26 5 67 5 67 46 26 46Z" fill-rule="evenodd" clip-rule="evenodd"/></clipPath><clipPath id="clip2"><path d="M26 5 67 5 67 46 26 46Z" fill-rule="evenodd" clip-rule="evenodd"/></clipPath><clipPath id="clip3"><path d="M26 5 67 5 67 46 26 46Z" fill-rule="evenodd" clip-rule="evenodd"/></clipPath></defs><g clip-path="url(#clip0)"><path d="M0 0 96 0 96 96 0 96Z" fill="#313131" fill-rule="evenodd"/><text fill="#FFFFFF" font-family="Calibri,Calibri_MSFontService,sans-serif" font-weight="300" font-size="5" transform="translate(9.60011 -3)">USER JOURNEY</text><rect x="26.5001" y="5.50005" width="1" height="1" stroke="#2F528F" stroke-width="1.33333" stroke-miterlimit="8" fill="#4472C4"/><path d="M4.58866 0.500053 92.4114 0.500053C94.6695 0.500053 96.5001 2.33059 96.5001 4.58866L96.5001 93.3868C96.5001 95.1062 95.1062 96.5001 93.3868 96.5001L3.61333 96.5001C1.89392 96.5001 0.500053 95.1062 0.500053 93.3868L0.500053 4.58866C0.500053 2.33059 2.33059 0.500053 4.58866 0.500053Z" stroke="#F032E6" stroke-width="4.66667" stroke-miterlimit="8" fill="#FFFFFF" fill-rule="evenodd"/><g clip-path="url(#clip1)"><g clip-path="url(#clip2)"><g clip-path="url(#clip3)"><path d="M46.5 19.5208C50.2686 19.5208 53.3333 16.4561 53.3333 12.6875 53.3333 8.91892 50.2686 5.85417 46.5 5.85417 42.7314 5.85417 39.6667 8.91892 39.6667 12.6875 39.6667 16.4561 42.7314 19.5208 46.5 19.5208ZM46.5 9.27083C48.3843 9.27083 49.9167 10.8032 49.9167 12.6875 49.9167 14.5718 48.3843 16.1042 46.5 16.1042 44.6157 16.1042 43.0833 14.5718 43.0833 12.6875 43.0833 10.8032 44.6157 9.27083 46.5 9.27083Z"/><path d="M60.1667 34.8958C57.9424 34.8958 56.065 36.3291 55.3577 38.3125L51.3107 38.3125C50.6034 36.3291 48.7243 34.8958 46.5017 34.8958 44.2792 34.8958 42.4 36.3291 41.691 38.3125L37.644 38.3125C36.935 36.3291 35.0576 34.8958 32.8333 34.8958 30.0077 34.8958 27.7083 37.1953 27.7083 40.0208 27.7083 42.8464 30.0077 45.1458 32.8333 45.1458 35.0576 45.1458 36.935 43.7125 37.644 41.7292L41.691 41.7292C42.3983 43.7125 44.2775 45.1458 46.5 45.1458 48.7225 45.1458 50.6017 43.7125 51.309 41.7292L55.356 41.7292C56.0632 43.7125 57.9424 45.1458 60.165 45.1458 62.9905 45.1458 65.29 42.8464 65.29 40.0208 65.29 37.1953 62.9922 34.8958 60.1667 34.8958ZM32.8333 41.7292C31.892 41.7292 31.125 40.9638 31.125 40.0208 31.125 39.0778 31.892 38.3125 32.8333 38.3125 33.7746 38.3125 34.5417 39.0778 34.5417 40.0208 34.5417 40.9638 33.7746 41.7292 32.8333 41.7292ZM46.5 41.7292C45.5587 41.7292 44.7917 40.9638 44.7917 40.0208 44.7917 39.0778 45.5587 38.3125 46.5 38.3125 47.443 38.3125 48.2083 39.0778 48.2083 40.0208 48.2083 40.9638 47.443 41.7292 46.5 41.7292ZM60.1667 41.7292C59.2237 41.7292 58.4583 40.9638 58.4583 40.0208 58.4583 39.0778 59.2237 38.3125 60.1667 38.3125 61.1097 38.3125 61.875 39.0778 61.875 40.0208 61.875 40.9638 61.1097 41.7292 60.1667 41.7292Z"/><path d="M37.9583 34.8958C38.9013 34.8958 39.6667 34.1322 39.6667 33.1875L39.6667 28.0625C39.6667 26.1782 41.199 24.6458 43.0833 24.6458L49.9167 24.6458C51.801 24.6458 53.3333 26.1782 53.3333 28.0625L53.3333 33.1875C53.3333 34.1322 54.097 34.8958 55.0417 34.8958 55.9864 34.8958 56.75 34.1322 56.75 33.1875L56.75 28.0625C56.75 24.2939 53.6852 21.2292 49.9167 21.2292L43.0833 21.2292C39.3148 21.2292 36.25 24.2939 36.25 28.0625L36.25 33.1875C36.25 34.1322 37.0153 34.8958 37.9583 34.8958Z"/></g></g></g><text font-family="Calibri,Calibri_MSFontService,sans-serif" font-weight="700" transform="translate(10.5339 66)">USER JOURNEY</text></g></svg>