<svg width="189" height="189" xmlns="http://www.w3.org/2000/svg" xmlns:xlink="http://www.w3.org/1999/xlink" overflow="hidden"><defs><clipPath id="clip0"><path d="M0 0 189 0 189 189 0 189Z" fill-rule="evenodd" clip-rule="evenodd"/></clipPath><clipPath id="clip1"><path d="M51 10 132 10 132 91 51 91Z" fill-rule="evenodd" clip-rule="evenodd"/></clipPath><clipPath id="clip2"><path d="M51 10 132 10 132 91 51 91Z" fill-rule="evenodd" clip-rule="evenodd"/></clipPath><clipPath id="clip3"><path d="M51 10 132 10 132 91 51 91Z" fill-rule="evenodd" clip-rule="evenodd"/></clipPath></defs><g clip-path="url(#clip0)"><rect x="0" y="0" width="189" height="189" fill="#313131"/><text fill="#FFFFFF" font-family="Calibri,Calibri_MSFontService,sans-serif" font-weight="300" font-size="11" transform="translate(9.60032 -5)">SKILL FAMILY</text><rect x="51.5001" y="10.5001" width="1" height="1" stroke="#2F528F" stroke-width="1.33333" stroke-miterlimit="8" fill="#4472C4"/><path d="M8.5495 0.500053 181.451 0.500053C185.896 0.500053 189.5 4.10391 189.5 8.5495L189.5 183.371C189.5 186.756 186.756 189.5 183.371 189.5L6.62932 189.5C3.24422 189.5 0.500053 186.756 0.500053 183.371L0.500053 8.5495C0.500053 4.10391 4.10391 0.500053 8.5495 0.500053Z" stroke="#CEB023" stroke-width="4.66667" stroke-miterlimit="8" fill="#FFFFFF" fill-rule="evenodd"/><g clip-path="url(#clip1)"><g clip-path="url(#clip2)"><g clip-path="url(#clip3)"><path d="M91.5 37 87.3285 45.8864 78 47.314 84.75 54.2294 83.157 64 91.5 59.3864 99.8464 64 98.25 54.2294 105 47.314 95.6715 45.8864Z"/><path d="M121.875 37C123.741 37 125.25 35.488 125.25 33.625L125.25 20.125C125.25 18.262 123.741 16.75 121.875 16.75L108.375 16.75C106.509 16.75 105 18.262 105 20.125L105 23.5 78 23.5 78 20.125C78 18.262 76.488 16.75 74.625 16.75L61.125 16.75C59.262 16.75 57.75 18.262 57.75 20.125L57.75 33.625C57.75 35.488 59.262 37 61.125 37L64.5 37 64.5 64 61.125 64C59.262 64 57.75 65.5086 57.75 67.375L57.75 80.875C57.75 82.7414 59.262 84.25 61.125 84.25L74.625 84.25C76.488 84.25 78 82.7414 78 80.875L78 77.5 105 77.5 105 80.875C105 82.7414 106.509 84.25 108.375 84.25L121.875 84.25C123.741 84.25 125.25 82.7414 125.25 80.875L125.25 67.375C125.25 65.5086 123.741 64 121.875 64L118.5 64 118.5 37 121.875 37ZM111.75 23.5 118.5 23.5 118.5 30.25 111.75 30.25 111.75 23.5ZM64.5 23.5 71.25 23.5 71.25 30.25 64.5 30.25 64.5 23.5ZM71.25 77.5 64.5 77.5 64.5 70.75 71.25 70.75 71.25 77.5ZM118.5 77.5 111.75 77.5 111.75 70.75 118.5 70.75 118.5 77.5ZM111.75 64 108.375 64C106.509 64 105 65.5086 105 67.375L105 70.75 78 70.75 78 67.375C78 65.5086 76.488 64 74.625 64L71.25 64 71.25 37 74.625 37C76.488 37 78 35.488 78 33.625L78 30.25 105 30.25 105 33.625C105 35.488 106.509 37 108.375 37L111.75 37 111.75 64Z"/></g></g></g><text font-family="Calibri,Calibri_MSFontService,sans-serif" font-weight="700" font-size="24" transform="translate(31.5989 126)">SKILL FAMILY</text></g></svg>