<svg width="189" height="189" xmlns="http://www.w3.org/2000/svg" xmlns:xlink="http://www.w3.org/1999/xlink" overflow="hidden"><defs><clipPath id="clip0"><path d="M0 0 189 0 189 189 0 189Z" fill-rule="evenodd" clip-rule="evenodd"/></clipPath><clipPath id="clip1"><path d="M51 10 132 10 132 91 51 91Z" fill-rule="evenodd" clip-rule="evenodd"/></clipPath><clipPath id="clip2"><path d="M51 10 132 10 132 91 51 91Z" fill-rule="evenodd" clip-rule="evenodd"/></clipPath><clipPath id="clip3"><path d="M51 10 132 10 132 91 51 91Z" fill-rule="evenodd" clip-rule="evenodd"/></clipPath></defs><g clip-path="url(#clip0)"><rect x="0" y="0" width="189" height="189" fill="#313131"/><text fill="#FFFFFF" font-family="Calibri,Calibri_MSFontService,sans-serif" font-weight="300" font-size="11" transform="translate(9.60032 -5)">SKILL</text><rect x="51.5001" y="10.5001" width="1" height="1" stroke="#2F528F" stroke-width="1.33333" stroke-miterlimit="8" fill="#4472C4"/><path d="M8.5495 0.500053 181.451 0.500053C185.896 0.500053 189.5 4.10391 189.5 8.5495L189.5 183.371C189.5 186.756 186.756 189.5 183.371 189.5L6.62932 189.5C3.24422 189.5 0.500053 186.756 0.500053 183.371L0.500053 8.5495C0.500053 4.10391 4.10391 0.500053 8.5495 0.500053Z" stroke="#CEB023" stroke-width="4.66667" stroke-miterlimit="8" fill="#FFFFFF" fill-rule="evenodd"/><g clip-path="url(#clip1)"><g clip-path="url(#clip2)"><g clip-path="url(#clip3)"><path d="M91.5 47.125C82.1951 47.125 74.625 39.5549 74.625 30.25 74.625 20.9451 82.1951 13.375 91.5 13.375 100.805 13.375 108.375 20.9451 108.375 30.25 108.375 39.5549 100.805 47.125 91.5 47.125ZM91.5 20.125C85.9177 20.125 81.375 24.6677 81.375 30.25 81.375 35.8322 85.9177 40.375 91.5 40.375 97.0823 40.375 101.625 35.8322 101.625 30.25 101.625 24.6677 97.0823 20.125 91.5 20.125Z"/><path d="M115.125 91C113.259 91 111.75 89.4914 111.75 87.625L111.75 72.4375C111.75 65.9238 106.441 60.625 99.9139 60.625L83.0861 60.625C76.5589 60.625 71.25 65.9238 71.25 72.4375L71.25 87.625C71.25 89.4914 69.738 91 67.875 91 66.012 91 64.5 89.4914 64.5 87.625L64.5 72.4375C64.5 62.2045 72.8363 53.875 83.0861 53.875L99.9139 53.875C110.16 53.875 118.5 62.2045 118.5 72.4375L118.5 87.625C118.5 89.4914 116.991 91 115.125 91Z"/><path d="M91.5 86.3864 83.1536 91 84.75 81.2294 78 74.3174 87.3285 72.8864 91.5 64 95.6715 72.8864 105 74.3174 98.25 81.2294 99.8464 91Z"/></g></g></g><text font-family="Calibri,Calibri_MSFontService,sans-serif" font-weight="700" font-size="24" transform="translate(69.8089 126)">SKILL</text></g></svg>