<svg width="189" height="189" xmlns="http://www.w3.org/2000/svg" xmlns:xlink="http://www.w3.org/1999/xlink" overflow="hidden"><defs><clipPath id="clip0"><path d="M0 0 189 0 189 189 0 189Z" fill-rule="evenodd" clip-rule="evenodd"/></clipPath><clipPath id="clip1"><path d="M51 10 132 10 132 91 51 91Z" fill-rule="evenodd" clip-rule="evenodd"/></clipPath><clipPath id="clip2"><path d="M51 10 132 10 132 91 51 91Z" fill-rule="evenodd" clip-rule="evenodd"/></clipPath><clipPath id="clip3"><path d="M51 10 132 10 132 91 51 91Z" fill-rule="evenodd" clip-rule="evenodd"/></clipPath></defs><g clip-path="url(#clip0)"><rect x="0" y="0" width="189" height="189" fill="#313131"/><text fill="#FFFFFF" font-family="Calibri,Calibri_MSFontService,sans-serif" font-weight="300" font-size="11" transform="translate(9.60032 0)">COMPONENT</text><rect x="51.5001" y="10.5001" width="1" height="1" stroke="#2F528F" stroke-width="1.33333" stroke-miterlimit="8" fill="#4472C4"/><path d="M8.5495 0.500053 181.451 0.500053C185.896 0.500053 189.5 4.10391 189.5 8.5495L189.5 183.371C189.5 186.756 186.756 189.5 183.371 189.5L6.62932 189.5C3.24422 189.5 0.500053 186.756 0.500053 183.371L0.500053 8.5495C0.500053 4.10391 4.10391 0.500053 8.5495 0.500053Z" stroke="#B74D41" stroke-width="4.66667" stroke-miterlimit="8" fill="#FFFFFF" fill-rule="evenodd"/><g clip-path="url(#clip1)"><g clip-path="url(#clip2)"><g clip-path="url(#clip3)"><path d="M128.625 10 54.375 10C52.512 10 51 11.512 51 13.375L51 39.3625C51 41.2255 52.512 42.7375 54.375 42.7375L77.3824 42.7375C78.9079 49.1162 84.6589 53.875 91.5 53.875 98.3378 53.875 104.085 49.1162 105.614 42.7375L128.625 42.7375C130.491 42.7375 132 41.2255 132 39.3625L132 13.375C132 11.512 130.491 10 128.625 10ZM125.25 35.9875 102.634 35.9875C100.768 35.9875 99.2591 37.4995 99.2591 39.3625 99.2591 43.6454 95.7795 47.125 91.5 47.125 87.2171 47.125 83.7375 43.642 83.7375 39.3625 83.7375 37.4995 82.2255 35.9875 80.3625 35.9875L57.75 35.9875 57.75 16.75 125.25 16.75 125.25 35.9875Z"/><path d="M128.625 58.2591 102.685 58.2591C102.675 58.2591 102.668 58.2659 102.658 58.2659 102.648 58.2659 102.641 58.2591 102.631 58.2591 100.764 58.2591 99.2558 59.7677 99.2558 61.6341 99.2558 65.9204 95.7761 69.4034 91.4966 69.4034 87.2137 69.4034 83.7341 65.9204 83.7341 61.6341 83.7341 59.7677 82.2221 58.2591 80.3591 58.2591 80.2916 58.2591 80.2376 58.2929 80.1735 58.2963 80.106 58.2929 80.052 58.2591 79.9879 58.2591L54.375 58.2591C52.512 58.2591 51 59.7677 51 61.6341L51 87.625C51 89.4914 52.512 91 54.375 91L128.625 91C130.491 91 132 89.4914 132 87.625L132 61.6341C132 59.7677 130.491 58.2591 128.625 58.2591ZM125.25 84.25 57.75 84.25 57.75 65.0091 77.4229 65.0091C78.9518 71.3845 84.6656 76.1534 91.5 76.1534 98.331 76.1534 104.042 71.3845 105.574 65.0091L125.25 65.0091 125.25 84.25Z"/></g></g></g><text font-family="Calibri,Calibri_MSFontService,sans-serif" font-weight="700" font-size="24" transform="translate(56.3222 126)">SYSTEM <tspan x="-27.0933" y="28">COMPONENT</tspan></text></g></svg>