<svg width="96" height="96" xmlns="http://www.w3.org/2000/svg" xmlns:xlink="http://www.w3.org/1999/xlink" overflow="hidden"><defs><clipPath id="clip0"><path d="M0 0 96 0 96 96 0 96Z" fill-rule="evenodd" clip-rule="evenodd"/></clipPath><clipPath id="clip1"><path d="M26 5 67 5 67 46 26 46Z" fill-rule="evenodd" clip-rule="evenodd"/></clipPath><clipPath id="clip2"><path d="M26 5 67 5 67 46 26 46Z" fill-rule="evenodd" clip-rule="evenodd"/></clipPath><clipPath id="clip3"><path d="M26 5 67 5 67 46 26 46Z" fill-rule="evenodd" clip-rule="evenodd"/></clipPath></defs><g clip-path="url(#clip0)"><path d="M0 0 96 0 96 96 0 96Z" fill="#313131" fill-rule="evenodd"/><text fill="#FFFFFF" font-family="Calibri,Calibri_MSFontService,sans-serif" font-weight="300" font-size="5" transform="translate(9.60011 -3)">SKILL FAMILY</text><rect x="26.5001" y="5.50005" width="1" height="1" stroke="#2F528F" stroke-width="1.33333" stroke-miterlimit="8" fill="#4472C4"/><path d="M4.58866 0.500053 92.4114 0.500053C94.6695 0.500053 96.5001 2.33059 96.5001 4.58866L96.5001 93.3868C96.5001 95.1062 95.1062 96.5001 93.3868 96.5001L3.61333 96.5001C1.89392 96.5001 0.500053 95.1062 0.500053 93.3868L0.500053 4.58866C0.500053 2.33059 2.33059 0.500053 4.58866 0.500053Z" stroke="#CEB023" stroke-width="4.66667" stroke-miterlimit="8" fill="#FFFFFF" fill-rule="evenodd"/><g clip-path="url(#clip1)"><g clip-path="url(#clip2)"><g clip-path="url(#clip3)"><path d="M46.5 18.6667 44.3885 23.1647 39.6667 23.8873 43.0833 27.3877 42.277 32.3333 46.5 29.998 50.7247 32.3333 49.9167 27.3877 53.3333 23.8873 48.6115 23.1647Z"/><path d="M61.875 18.6667C62.8197 18.6667 63.5833 17.9013 63.5833 16.9583L63.5833 10.125C63.5833 9.182 62.8197 8.41667 61.875 8.41667L55.0417 8.41667C54.097 8.41667 53.3333 9.182 53.3333 10.125L53.3333 11.8333 39.6667 11.8333 39.6667 10.125C39.6667 9.182 38.9013 8.41667 37.9583 8.41667L31.125 8.41667C30.182 8.41667 29.4167 9.182 29.4167 10.125L29.4167 16.9583C29.4167 17.9013 30.182 18.6667 31.125 18.6667L32.8333 18.6667 32.8333 32.3333 31.125 32.3333C30.182 32.3333 29.4167 33.097 29.4167 34.0417L29.4167 40.875C29.4167 41.8197 30.182 42.5833 31.125 42.5833L37.9583 42.5833C38.9013 42.5833 39.6667 41.8197 39.6667 40.875L39.6667 39.1667 53.3333 39.1667 53.3333 40.875C53.3333 41.8197 54.097 42.5833 55.0417 42.5833L61.875 42.5833C62.8197 42.5833 63.5833 41.8197 63.5833 40.875L63.5833 34.0417C63.5833 33.097 62.8197 32.3333 61.875 32.3333L60.1667 32.3333 60.1667 18.6667 61.875 18.6667ZM56.75 11.8333 60.1667 11.8333 60.1667 15.25 56.75 15.25 56.75 11.8333ZM32.8333 11.8333 36.25 11.8333 36.25 15.25 32.8333 15.25 32.8333 11.8333ZM36.25 39.1667 32.8333 39.1667 32.8333 35.75 36.25 35.75 36.25 39.1667ZM60.1667 39.1667 56.75 39.1667 56.75 35.75 60.1667 35.75 60.1667 39.1667ZM56.75 32.3333 55.0417 32.3333C54.097 32.3333 53.3333 33.097 53.3333 34.0417L53.3333 35.75 39.6667 35.75 39.6667 34.0417C39.6667 33.097 38.9013 32.3333 37.9583 32.3333L36.25 32.3333 36.25 18.6667 37.9583 18.6667C38.9013 18.6667 39.6667 17.9013 39.6667 16.9583L39.6667 15.25 53.3333 15.25 53.3333 16.9583C53.3333 17.9013 54.097 18.6667 55.0417 18.6667L56.75 18.6667 56.75 32.3333Z"/></g></g></g><text font-family="Calibri,Calibri_MSFontService,sans-serif" font-weight="700" transform="translate(15.4506 66)">SKILL FAMILY</text></g></svg>