<svg width="189" height="189" xmlns="http://www.w3.org/2000/svg" xmlns:xlink="http://www.w3.org/1999/xlink" overflow="hidden"><defs><clipPath id="clip0"><path d="M0 0 189 0 189 189 0 189Z" fill-rule="evenodd" clip-rule="evenodd"/></clipPath><clipPath id="clip1"><path d="M51 10 132 10 132 91 51 91Z" fill-rule="evenodd" clip-rule="evenodd"/></clipPath><clipPath id="clip2"><path d="M51 10 132 10 132 91 51 91Z" fill-rule="evenodd" clip-rule="evenodd"/></clipPath><clipPath id="clip3"><path d="M51 10 132 10 132 91 51 91Z" fill-rule="evenodd" clip-rule="evenodd"/></clipPath></defs><g clip-path="url(#clip0)"><rect x="0" y="0" width="189" height="189" fill="#313131"/><text fill="#FFFFFF" font-family="Calibri,Calibri_MSFontService,sans-serif" font-weight="300" font-size="11" transform="translate(9.60032 -5)">PRECONDITION</text><rect x="51.5001" y="10.5001" width="1" height="1" stroke="#2F528F" stroke-width="1.33333" stroke-miterlimit="8" fill="#4472C4"/><path d="M8.5495 0.500053 181.451 0.500053C185.896 0.500053 189.5 4.10391 189.5 8.5495L189.5 183.371C189.5 186.756 186.756 189.5 183.371 189.5L6.62932 189.5C3.24422 189.5 0.500053 186.756 0.500053 183.371L0.500053 8.5495C0.500053 4.10391 4.10391 0.500053 8.5495 0.500053Z" stroke="#64A592" stroke-width="4.66667" stroke-miterlimit="8" fill="#FFFFFF" fill-rule="evenodd"/><g clip-path="url(#clip1)"><g clip-path="url(#clip2)"><g clip-path="url(#clip3)"><path d="M88.0271 42.4 67.1933 64 54.1657 50.5 59.3734 45.1 67.1899 53.2 82.8195 37Z"/><path d="M88.0271 90.9966 54.3851 90.9966C52.5154 90.9966 51 89.4914 51 87.6216 51 85.7552 52.5154 84.25 54.3851 84.25L85.6882 84.25 97.9193 52.1335 85.614 16.75 54.6787 16.75C52.809 16.75 51.2936 15.238 51.2936 13.375 51.2936 11.512 52.809 10 54.6787 10L88.0271 10C89.4716 10 90.7541 10.9113 91.2266 12.268L104.727 51.0771C104.983 51.8298 104.97 52.6397 104.693 53.3856L91.1929 88.8164C90.6934 90.1292 89.4345 90.9966 88.0271 90.9966Z"/><path d="M128.615 90.9966C127.245 90.9966 125.962 90.1697 125.449 88.8164L111.949 53.3856C111.666 52.6397 111.659 51.8298 111.915 51.0771L125.412 12.268C126.023 10.5096 127.947 9.568 129.719 10.1856 131.487 10.7965 132.422 12.7169 131.811 14.4786L118.713 52.1335 131.774 86.4269C132.439 88.165 131.565 90.1158 129.81 90.7739 129.418 90.9291 129.01 90.9966 128.615 90.9966Z"/></g></g></g><text font-family="Calibri,Calibri_MSFontService,sans-serif" font-weight="700" font-size="24" transform="translate(19.3189 126)">PRECONDITION</text></g></svg>