<svg width="189" height="189" xmlns="http://www.w3.org/2000/svg" xmlns:xlink="http://www.w3.org/1999/xlink" overflow="hidden"><defs><clipPath id="clip0"><path d="M0 0 189 0 189 189 0 189Z" fill-rule="evenodd" clip-rule="evenodd"/></clipPath><clipPath id="clip1"><path d="M51 10 132 10 132 91 51 91Z" fill-rule="evenodd" clip-rule="evenodd"/></clipPath><clipPath id="clip2"><path d="M51 10 132 10 132 91 51 91Z" fill-rule="evenodd" clip-rule="evenodd"/></clipPath><clipPath id="clip3"><path d="M51 10 132 10 132 91 51 91Z" fill-rule="evenodd" clip-rule="evenodd"/></clipPath></defs><g clip-path="url(#clip0)"><rect x="0" y="0" width="189" height="189" fill="#313131"/><text fill="#FFFFFF" font-family="Calibri,Calibri_MSFontService,sans-serif" font-weight="300" font-size="11" transform="translate(9.60032 -5)">EPIC</text><rect x="51.5001" y="10.5001" width="1" height="1" stroke="#2F528F" stroke-width="1.33333" stroke-miterlimit="8" fill="#4472C4"/><path d="M8.5495 0.500053 181.451 0.500053C185.896 0.500053 189.5 4.10391 189.5 8.5495L189.5 183.371C189.5 186.756 186.756 189.5 183.371 189.5L6.62932 189.5C3.24422 189.5 0.500053 186.756 0.500053 183.371L0.500053 8.5495C0.500053 4.10391 4.10391 0.500053 8.5495 0.500053Z" stroke="#000080" stroke-width="4.66667" stroke-miterlimit="8" fill="#FFFFFF" fill-rule="evenodd"/><g clip-path="url(#clip1)"><g clip-path="url(#clip2)"><g clip-path="url(#clip3)"><path d="M119.347 26.875 105.003 26.875 105.003 20.125 84.7534 20.125 84.7534 16.75C84.7534 14.887 83.2414 13.375 81.3784 13.375 79.5154 13.375 78.0034 14.887 78.0034 16.75L78.0034 20.125 78.0034 47.125 78.0034 67.375 67.8784 67.375C66.5993 67.375 65.4315 68.0973 64.8577 69.2414L58.1077 82.7414C57.2741 84.4086 57.9491 86.4404 59.6164 87.2706 61.2904 88.1009 63.3086 87.4292 64.1456 85.7654L69.9641 74.125 92.7926 74.125 98.6111 85.7586C99.2018 86.9433 100.393 87.625 101.632 87.625 102.135 87.625 102.658 87.5102 103.137 87.2706 104.804 86.4404 105.476 84.4086 104.646 82.7414L97.8956 69.2414C97.3252 68.0973 96.1575 67.375 94.8784 67.375L84.7534 67.375 84.7534 47.125 98.2534 47.125 98.2534 53.875 119.347 53.875C122.655 53.875 125.253 50.9118 125.253 47.125L125.253 33.625C125.253 29.8382 122.655 26.875 119.347 26.875ZM84.7534 40.375 84.7534 26.875 98.2534 26.875 98.2534 40.375 84.7534 40.375ZM118.503 47.125 105.003 47.125 105.003 33.625 118.503 33.625 118.503 47.125Z"/></g></g></g><text font-family="Calibri,Calibri_MSFontService,sans-serif" font-weight="700" font-size="24" transform="translate(73.6422 126)">EPIC</text></g></svg>