<svg width="189" height="189" xmlns="http://www.w3.org/2000/svg" xmlns:xlink="http://www.w3.org/1999/xlink" overflow="hidden"><defs><clipPath id="clip0"><path d="M0 0 189 0 189 189 0 189Z" fill-rule="evenodd" clip-rule="evenodd"/></clipPath><clipPath id="clip1"><path d="M51 10 132 10 132 91 51 91Z" fill-rule="evenodd" clip-rule="evenodd"/></clipPath><clipPath id="clip2"><path d="M51 10 132 10 132 91 51 91Z" fill-rule="evenodd" clip-rule="evenodd"/></clipPath><clipPath id="clip3"><path d="M51 10 132 10 132 91 51 91Z" fill-rule="evenodd" clip-rule="evenodd"/></clipPath></defs><g clip-path="url(#clip0)"><rect x="0" y="0" width="189" height="189" fill="#313131"/><text fill="#FFFFFF" font-family="Calibri,Calibri_MSFontService,sans-serif" font-weight="300" font-size="11" transform="translate(9.60032 -5)">POSITION</text><rect x="51.5001" y="10.5001" width="1" height="1" stroke="#2F528F" stroke-width="1.33333" stroke-miterlimit="8" fill="#4472C4"/><path d="M8.5495 0.500053 181.451 0.500053C185.896 0.500053 189.5 4.10391 189.5 8.5495L189.5 183.371C189.5 186.756 186.756 189.5 183.371 189.5L6.62932 189.5C3.24422 189.5 0.500053 186.756 0.500053 183.371L0.500053 8.5495C0.500053 4.10391 4.10391 0.500053 8.5495 0.500053Z" stroke="#B74D41" stroke-width="4.66667" stroke-miterlimit="8" fill="#FFFFFF" fill-rule="evenodd"/><g clip-path="url(#clip1)"><g clip-path="url(#clip2)"><g clip-path="url(#clip3)"><path d="M91.5 33.625C97.0823 33.625 101.625 29.0822 101.625 23.5 101.625 17.9177 97.0823 13.375 91.5 13.375 85.9177 13.375 81.375 17.9177 81.375 23.5 81.375 29.0822 85.9177 33.625 91.5 33.625ZM91.5 20.125C93.363 20.125 94.875 21.6404 94.875 23.5 94.875 25.3596 93.363 26.875 91.5 26.875 89.6404 26.875 88.125 25.3596 88.125 23.5 88.125 21.6404 89.6404 20.125 91.5 20.125Z"/><path d="M125.25 67.375 121.875 67.375 121.875 57.1386C121.875 56.2409 121.521 55.3802 120.883 54.7491 120.252 54.118 119.398 53.7636 118.5 53.7636 118.497 53.7636 118.497 53.7636 118.493 53.7636L108.375 53.7839 108.375 47.125C108.375 41.5427 103.832 37 98.2567 37L84.7433 37C79.1644 37 74.625 41.5427 74.625 47.125L74.625 53.8548 64.4932 53.875C62.6302 53.8784 61.125 55.387 61.125 57.25L61.125 67.375 57.75 67.375C55.887 67.375 54.375 68.8836 54.375 70.75L54.375 84.25C54.375 86.1164 55.887 87.625 57.75 87.625L71.25 87.625C73.113 87.625 74.625 86.1164 74.625 84.25L74.625 70.75C74.625 68.8836 73.113 67.375 71.25 67.375L67.875 67.375 67.875 60.6183 88.125 60.5744 88.125 67.375 84.75 67.375C82.887 67.375 81.375 68.8836 81.375 70.75L81.375 84.25C81.375 86.1164 82.887 87.625 84.75 87.625L98.25 87.625C100.116 87.625 101.625 86.1164 101.625 84.25L101.625 70.75C101.625 68.8836 100.116 67.375 98.25 67.375L94.875 67.375 94.875 60.5609 115.125 60.517 115.125 67.375 111.75 67.375C109.884 67.375 108.375 68.8836 108.375 70.75L108.375 84.25C108.375 86.1164 109.884 87.625 111.75 87.625L125.25 87.625C127.116 87.625 128.625 86.1164 128.625 84.25L128.625 70.75C128.625 68.8836 127.116 67.375 125.25 67.375ZM67.875 80.875 61.125 80.875 61.125 74.125 63.9431 74.125C64.1321 74.1588 64.3043 74.2364 64.5 74.2364 64.6957 74.2364 64.8679 74.1588 65.0569 74.125L67.875 74.125 67.875 80.875ZM94.875 80.875 88.125 80.875 88.125 74.125 94.875 74.125 94.875 80.875ZM81.375 47.125C81.375 45.2316 82.8532 43.75 84.7433 43.75L98.2567 43.75C100.147 43.75 101.625 45.2316 101.625 47.125L101.625 53.7974 81.375 53.8412 81.375 47.125ZM121.875 80.875 115.125 80.875 115.125 74.125 121.875 74.125 121.875 80.875Z"/></g></g></g><text font-family="Calibri,Calibri_MSFontService,sans-serif" font-weight="700" font-size="24" transform="translate(47.3089 126)">POSITION</text></g></svg>