<svg width="96" height="96" xmlns="http://www.w3.org/2000/svg" xmlns:xlink="http://www.w3.org/1999/xlink" overflow="hidden"><defs><clipPath id="clip0"><path d="M0 0 96 0 96 96 0 96Z" fill-rule="evenodd" clip-rule="evenodd"/></clipPath><clipPath id="clip1"><path d="M26 5 67 5 67 46 26 46Z" fill-rule="evenodd" clip-rule="evenodd"/></clipPath><clipPath id="clip2"><path d="M26 5 67 5 67 46 26 46Z" fill-rule="evenodd" clip-rule="evenodd"/></clipPath><clipPath id="clip3"><path d="M26 5 67 5 67 46 26 46Z" fill-rule="evenodd" clip-rule="evenodd"/></clipPath></defs><g clip-path="url(#clip0)"><path d="M0 0 96 0 96 96 0 96Z" fill="#313131" fill-rule="evenodd"/><text fill="#FFFFFF" font-family="Calibri,Calibri_MSFontService,sans-serif" font-weight="300" font-size="5" transform="translate(9.60011 -3)">OFFERING</text><rect x="26.5001" y="5.50005" width="1" height="1" stroke="#2F528F" stroke-width="1.33333" stroke-miterlimit="8" fill="#4472C4"/><path d="M4.58866 0.500053 92.4114 0.500053C94.6695 0.500053 96.5001 2.33059 96.5001 4.58866L96.5001 93.3868C96.5001 95.1062 95.1062 96.5001 93.3868 96.5001L3.61333 96.5001C1.89392 96.5001 0.500053 95.1062 0.500053 93.3868L0.500053 4.58866C0.500053 2.33059 2.33059 0.500053 4.58866 0.500053Z" stroke="#911EB4" stroke-width="4.66667" stroke-miterlimit="8" fill="#FFFFFF" fill-rule="evenodd"/><g clip-path="url(#clip1)"><g clip-path="url(#clip2)"><g clip-path="url(#clip3)"><path d="M61.875 22.0833 31.125 22.0833C30.182 22.0833 29.4167 22.8487 29.4167 23.7917L29.4167 30.625C29.4167 31.5697 30.182 32.3333 31.125 32.3333L32.8333 32.3333 32.8333 42.5833C32.8333 43.528 33.5987 44.2917 34.5417 44.2917L58.4583 44.2917C59.403 44.2917 60.1667 43.528 60.1667 42.5833L60.1667 32.3333 61.875 32.3333C62.8197 32.3333 63.5833 31.5697 63.5833 30.625L63.5833 23.7917C63.5833 22.8504 62.8197 22.0833 61.875 22.0833ZM56.75 40.875 36.25 40.875 36.25 32.3333 56.75 32.3333 56.75 40.875ZM60.1667 28.9167 58.4583 28.9167 34.5417 28.9167 32.8333 28.9167 32.8333 25.5 60.1667 25.5 60.1667 28.9167Z"/><path d="M34.0411 14.7512 36.25 12.5423 36.25 16.9583C36.25 17.9013 37.0153 18.6667 37.9583 18.6667 38.9013 18.6667 39.6667 17.9013 39.6667 16.9583L39.6667 12.5423 41.8755 14.7512C42.2087 15.0826 42.646 15.25 43.0833 15.25 43.5207 15.25 43.958 15.0826 44.2911 14.7495 44.9591 14.0815 44.9591 13.0018 44.2911 12.3339L39.1661 7.20887C38.4982 6.54092 37.4185 6.54092 36.7505 7.20887L31.6255 12.3339C30.9576 13.0018 30.9576 14.0815 31.6255 14.7495 32.2935 15.4174 33.3732 15.4191 34.0411 14.7512Z"/><path d="M51.1245 14.7512 53.3333 12.5423 53.3333 16.9583C53.3333 17.9013 54.097 18.6667 55.0417 18.6667 55.9864 18.6667 56.75 17.9013 56.75 16.9583L56.75 12.5423 58.9589 14.7512C59.292 15.0826 59.7293 15.25 60.1667 15.25 60.604 15.25 61.0413 15.0826 61.3745 14.7495 62.0424 14.0815 62.0424 13.0018 61.3745 12.3339L56.2495 7.20887C55.5815 6.54092 54.5018 6.54092 53.8339 7.20887L48.7089 12.3339C48.0409 13.0018 48.0409 14.0815 48.7089 14.7495 49.3768 15.4174 50.4565 15.4191 51.1245 14.7512Z"/></g></g></g><text font-family="Calibri,Calibri_MSFontService,sans-serif" font-weight="700" transform="translate(23.0339 66)">OFFERING</text></g></svg>