<svg width="96" height="96" xmlns="http://www.w3.org/2000/svg" xmlns:xlink="http://www.w3.org/1999/xlink" overflow="hidden"><defs><clipPath id="clip0"><path d="M0 0 96 0 96 96 0 96Z" fill-rule="evenodd" clip-rule="evenodd"/></clipPath><clipPath id="clip1"><path d="M26 5 67 5 67 46 26 46Z" fill-rule="evenodd" clip-rule="evenodd"/></clipPath><clipPath id="clip2"><path d="M26 5 67 5 67 46 26 46Z" fill-rule="evenodd" clip-rule="evenodd"/></clipPath><clipPath id="clip3"><path d="M26 5 67 5 67 46 26 46Z" fill-rule="evenodd" clip-rule="evenodd"/></clipPath></defs><g clip-path="url(#clip0)"><path d="M0 0 96 0 96 96 0 96Z" fill="#313131" fill-rule="evenodd"/><text fill="#FFFFFF" font-family="Calibri,Calibri_MSFontService,sans-serif" font-weight="300" font-size="5" transform="translate(9.60011 0)">GROUP</text><rect x="26.5001" y="5.50005" width="1" height="1" stroke="#2F528F" stroke-width="1.33333" stroke-miterlimit="8" fill="#4472C4"/><path d="M4.58866 0.500053 92.4114 0.500053C94.6695 0.500053 96.5001 2.33059 96.5001 4.58866L96.5001 93.3868C96.5001 95.1062 95.1062 96.5001 93.3868 96.5001L3.61333 96.5001C1.89392 96.5001 0.500053 95.1062 0.500053 93.3868L0.500053 4.58866C0.500053 2.33059 2.33059 0.500053 4.58866 0.500053Z" stroke="#377692" stroke-width="4.66667" stroke-miterlimit="8" fill="#FFFFFF" fill-rule="evenodd"/><g clip-path="url(#clip1)"><g clip-path="url(#clip2)"><g clip-path="url(#clip3)"><path d="M36.25 16.9583C33.3458 16.9583 31.125 14.7375 31.125 11.8333 31.125 8.92917 33.3458 6.70833 36.25 6.70833 39.1542 6.70833 41.375 8.92917 41.375 11.8333 41.375 14.7375 39.1542 16.9583 36.25 16.9583ZM36.25 10.125C35.225 10.125 34.5417 10.8083 34.5417 11.8333 34.5417 12.8583 35.225 13.5417 36.25 13.5417 37.275 13.5417 37.9583 12.8583 37.9583 11.8333 37.9583 10.8083 37.275 10.125 36.25 10.125Z"/><path d="M43.0833 28.9167C42.0583 28.9167 41.375 28.2333 41.375 27.2083L41.375 23.7917C41.375 22.7667 40.6917 22.0833 39.6667 22.0833L32.8333 22.0833C31.8083 22.0833 31.125 22.7667 31.125 23.7917L31.125 27.2083C31.125 28.2333 30.4417 28.9167 29.4167 28.9167 28.3917 28.9167 27.7083 28.2333 27.7083 27.2083L27.7083 23.7917C27.7083 20.8875 29.9292 18.6667 32.8333 18.6667L39.6667 18.6667C42.5708 18.6667 44.7917 20.8875 44.7917 23.7917L44.7917 27.2083C44.7917 28.2333 44.1083 28.9167 43.0833 28.9167Z"/><path d="M56.75 16.9583C53.8458 16.9583 51.625 14.7375 51.625 11.8333 51.625 8.92917 53.8458 6.70833 56.75 6.70833 59.6542 6.70833 61.875 8.92917 61.875 11.8333 61.875 14.7375 59.6542 16.9583 56.75 16.9583ZM56.75 10.125C55.725 10.125 55.0417 10.8083 55.0417 11.8333 55.0417 12.8583 55.725 13.5417 56.75 13.5417 57.775 13.5417 58.4583 12.8583 58.4583 11.8333 58.4583 10.8083 57.775 10.125 56.75 10.125Z"/><path d="M63.5833 28.9167C62.5583 28.9167 61.875 28.2333 61.875 27.2083L61.875 23.7917C61.875 22.7667 61.1917 22.0833 60.1667 22.0833L53.3333 22.0833C52.3083 22.0833 51.625 22.7667 51.625 23.7917L51.625 27.2083C51.625 28.2333 50.9417 28.9167 49.9167 28.9167 48.8917 28.9167 48.2083 28.2333 48.2083 27.2083L48.2083 23.7917C48.2083 20.8875 50.4292 18.6667 53.3333 18.6667L60.1667 18.6667C63.0708 18.6667 65.2917 20.8875 65.2917 23.7917L65.2917 27.2083C65.2917 28.2333 64.6083 28.9167 63.5833 28.9167Z"/><path d="M34.5417 42.5833 29.4167 42.5833C28.3917 42.5833 27.7083 41.9 27.7083 40.875L27.7083 35.75C27.7083 34.725 28.3917 34.0417 29.4167 34.0417 30.4417 34.0417 31.125 34.725 31.125 35.75L31.125 39.1667 34.5417 39.1667C35.5667 39.1667 36.25 39.85 36.25 40.875 36.25 41.9 35.5667 42.5833 34.5417 42.5833Z"/><path d="M63.5833 42.5833 58.4583 42.5833C57.4333 42.5833 56.75 41.9 56.75 40.875 56.75 39.85 57.4333 39.1667 58.4583 39.1667L61.875 39.1667 61.875 35.75C61.875 34.725 62.5583 34.0417 63.5833 34.0417 64.6083 34.0417 65.2917 34.725 65.2917 35.75L65.2917 40.875C65.2917 41.9 64.6083 42.5833 63.5833 42.5833Z"/><path d="M51.625 46 41.375 46C40.35 46 39.6667 45.3167 39.6667 44.2917L39.6667 37.4583C39.6667 36.4333 40.35 35.75 41.375 35.75L51.625 35.75C52.65 35.75 53.3333 36.4333 53.3333 37.4583L53.3333 44.2917C53.3333 45.3167 52.65 46 51.625 46ZM43.0833 42.5833 49.9167 42.5833 49.9167 39.1667 43.0833 39.1667 43.0833 42.5833Z"/></g></g></g><text font-family="Calibri,Calibri_MSFontService,sans-serif" font-weight="700" transform="translate(6.11722 66)">PROCESS GROUP</text></g></svg>