<svg width="96" height="96" xmlns="http://www.w3.org/2000/svg" xmlns:xlink="http://www.w3.org/1999/xlink" overflow="hidden"><defs><clipPath id="clip0"><path d="M0 0 96 0 96 96 0 96Z" fill-rule="evenodd" clip-rule="evenodd"/></clipPath><clipPath id="clip1"><path d="M26 5 67 5 67 46 26 46Z" fill-rule="evenodd" clip-rule="evenodd"/></clipPath><clipPath id="clip2"><path d="M26 5 67 5 67 46 26 46Z" fill-rule="evenodd" clip-rule="evenodd"/></clipPath><clipPath id="clip3"><path d="M26 5 67 5 67 46 26 46Z" fill-rule="evenodd" clip-rule="evenodd"/></clipPath></defs><g clip-path="url(#clip0)"><path d="M0 0 96 0 96 96 0 96Z" fill="#313131" fill-rule="evenodd"/><text fill="#FFFFFF" font-family="Calibri,Calibri_MSFontService,sans-serif" font-weight="300" font-size="5" transform="translate(9.60011 -3)">VALUE ITEM</text><rect x="26.5001" y="5.50005" width="1" height="1" stroke="#2F528F" stroke-width="1.33333" stroke-miterlimit="8" fill="#4472C4"/><path d="M4.58866 0.500053 92.4114 0.500053C94.6695 0.500053 96.5001 2.33059 96.5001 4.58866L96.5001 93.3868C96.5001 95.1062 95.1062 96.5001 93.3868 96.5001L3.61333 96.5001C1.89392 96.5001 0.500053 95.1062 0.500053 93.3868L0.500053 4.58866C0.500053 2.33059 2.33059 0.500053 4.58866 0.500053Z" stroke="#5AA203" stroke-width="4.66667" stroke-miterlimit="8" fill="#FFFFFF" fill-rule="evenodd"/><g clip-path="url(#clip1)"><g clip-path="url(#clip2)"><g clip-path="url(#clip3)"><path d="M61.875 20.375 57.8057 20.375C59.2407 19.1211 60.1667 17.3017 60.1667 15.25 60.1667 11.4814 57.1019 8.41667 53.3333 8.41667 49.5648 8.41667 46.5 11.4814 46.5 15.25 46.5 11.4814 43.4352 8.41667 39.6667 8.41667 35.8981 8.41667 32.8333 11.4814 32.8333 15.25 32.8333 17.3017 33.7593 19.1211 35.1943 20.375L31.125 20.375C30.182 20.375 29.4167 21.1403 29.4167 22.0833L29.4167 28.9167C29.4167 29.8614 30.182 30.625 31.125 30.625L32.8333 30.625 32.8333 40.875C32.8333 41.8197 33.5987 42.5833 34.5417 42.5833L58.4583 42.5833C59.403 42.5833 60.1667 41.8197 60.1667 40.875L60.1667 30.625 61.875 30.625C62.8197 30.625 63.5833 29.8614 63.5833 28.9167L63.5833 22.0833C63.5833 21.1403 62.8197 20.375 61.875 20.375ZM49.9167 15.25C49.9167 13.3657 51.4473 11.8333 53.3333 11.8333 55.2193 11.8333 56.75 13.3657 56.75 15.25 56.75 17.1343 55.2193 18.6667 53.3333 18.6667L49.9167 18.6667 49.9167 15.25ZM39.6667 11.8333C41.551 11.8333 43.0833 13.3657 43.0833 15.25L43.0833 18.6667 39.6667 18.6667C37.7824 18.6667 36.25 17.1343 36.25 15.25 36.25 13.3657 37.7824 11.8333 39.6667 11.8333ZM32.8333 23.7917 44.7917 23.7917 44.7917 27.2083 34.5417 27.2083 32.8333 27.2083 32.8333 23.7917ZM36.25 30.625 44.7917 30.625 44.7917 39.1667 36.25 39.1667 36.25 30.625ZM56.75 39.1667 48.2083 39.1667 48.2083 30.625 56.75 30.625 56.75 39.1667ZM60.1667 27.2083 58.4583 27.2083 48.2083 27.2083 48.2083 23.7917 60.1667 23.7917 60.1667 27.2083Z"/></g></g></g><text font-family="Calibri,Calibri_MSFontService,sans-serif" font-weight="700" transform="translate(17.6172 66)">VALUE ITEM</text></g></svg>