<svg width="96" height="96" xmlns="http://www.w3.org/2000/svg" xmlns:xlink="http://www.w3.org/1999/xlink" overflow="hidden"><defs><clipPath id="clip0"><path d="M0 0 96 0 96 96 0 96Z" fill-rule="evenodd" clip-rule="evenodd"/></clipPath><clipPath id="clip1"><path d="M26 5 67 5 67 46 26 46Z" fill-rule="evenodd" clip-rule="evenodd"/></clipPath><clipPath id="clip2"><path d="M26 5 67 5 67 46 26 46Z" fill-rule="evenodd" clip-rule="evenodd"/></clipPath><clipPath id="clip3"><path d="M26 5 67 5 67 46 26 46Z" fill-rule="evenodd" clip-rule="evenodd"/></clipPath></defs><g clip-path="url(#clip0)"><path d="M0 0 96 0 96 96 0 96Z" fill="#313131" fill-rule="evenodd"/><text fill="#FFFFFF" font-family="Calibri,Calibri_MSFontService,sans-serif" font-weight="300" font-size="5" transform="translate(9.60011 -3)">SEGMENT</text><rect x="26.5001" y="5.50005" width="1" height="1" stroke="#2F528F" stroke-width="1.33333" stroke-miterlimit="8" fill="#4472C4"/><path d="M4.58866 0.500053 92.4114 0.500053C94.6695 0.500053 96.5001 2.33059 96.5001 4.58866L96.5001 93.3868C96.5001 95.1062 95.1062 96.5001 93.3868 96.5001L3.61333 96.5001C1.89392 96.5001 0.500053 95.1062 0.500053 93.3868L0.500053 4.58866C0.500053 2.33059 2.33059 0.500053 4.58866 0.500053Z" stroke="#911EB4" stroke-width="4.66667" stroke-miterlimit="8" fill="#FFFFFF" fill-rule="evenodd"/><g clip-path="url(#clip1)"><g clip-path="url(#clip2)"><g clip-path="url(#clip3)"><path d="M39.6667 27.1024C35.8981 27.1024 32.8333 24.0496 32.8333 20.2998 32.8333 16.55 35.8981 13.499 39.6667 13.499 43.4352 13.499 46.5 16.55 46.5 20.2998 46.5 24.0496 43.4352 27.1024 39.6667 27.1024ZM39.6667 16.9156C37.7824 16.9156 36.25 18.4343 36.25 20.2998 36.25 22.1653 37.7824 23.684 39.6667 23.684 41.551 23.684 43.0833 22.1653 43.0833 20.2998 43.0833 18.4343 41.551 16.9156 39.6667 16.9156Z"/><path d="M55.0417 20.3118C51.2731 20.3118 48.2083 17.2607 48.2083 13.5109 48.2083 9.76112 51.2731 6.70833 55.0417 6.70833 58.8102 6.70833 61.875 9.75942 61.875 13.5092 61.875 17.259 58.8102 20.3118 55.0417 20.3118ZM55.0417 10.125C53.1574 10.125 51.625 11.6437 51.625 13.5092 51.625 15.3747 53.1574 16.8934 55.0417 16.8934 56.926 16.8934 58.4583 15.3747 58.4583 13.5092 58.4583 11.6437 56.926 10.125 55.0417 10.125Z"/><path d="M49.9167 44.2917C48.972 44.2917 48.2083 43.528 48.2083 42.5833L48.2083 37.3832C48.2083 35.4579 46.6298 33.893 44.6909 33.893L34.6425 33.893C32.7035 33.893 31.125 35.4579 31.125 37.3832L31.125 42.5833C31.125 43.528 30.3597 44.2917 29.4167 44.2917 28.4737 44.2917 27.7083 43.528 27.7083 42.5833L27.7083 37.3832C27.7083 33.5753 30.8192 30.4764 34.6425 30.4764L44.6909 30.4764C48.5141 30.4764 51.625 33.5736 51.625 37.3832L51.625 42.5833C51.625 43.528 50.8614 44.2917 49.9167 44.2917Z"/><path d="M65.2917 37.4993C64.347 37.4993 63.5833 36.7357 63.5833 35.791L63.5833 30.5925C63.5833 28.6673 61.9946 27.1007 60.0437 27.1007L49.9167 27.1007C48.972 27.1007 48.2083 26.3371 48.2083 25.3924 48.2083 24.4477 48.972 23.684 49.9167 23.684L60.0437 23.684C63.8789 23.684 67 26.783 67 30.5908L67 35.7893C67 36.7357 66.2364 37.4993 65.2917 37.4993Z"/></g></g></g><text font-family="Calibri,Calibri_MSFontService,sans-serif" font-weight="700" transform="translate(23.6172 66)">SEGMENT</text></g></svg>