<svg width="96" height="96" xmlns="http://www.w3.org/2000/svg" xmlns:xlink="http://www.w3.org/1999/xlink" overflow="hidden"><defs><clipPath id="clip0"><path d="M0 0 96 0 96 96 0 96Z" fill-rule="evenodd" clip-rule="evenodd"/></clipPath><clipPath id="clip1"><path d="M26 5 67 5 67 46 26 46Z" fill-rule="evenodd" clip-rule="evenodd"/></clipPath><clipPath id="clip2"><path d="M26 5 67 5 67 46 26 46Z" fill-rule="evenodd" clip-rule="evenodd"/></clipPath><clipPath id="clip3"><path d="M26 5 67 5 67 46 26 46Z" fill-rule="evenodd" clip-rule="evenodd"/></clipPath></defs><g clip-path="url(#clip0)"><path d="M0 0 96 0 96 96 0 96Z" fill="#313131" fill-rule="evenodd"/><text fill="#FFFFFF" font-family="Calibri,Calibri_MSFontService,sans-serif" font-weight="300" font-size="5" transform="translate(9.60011 -3)">PAINPOINT</text><rect x="26.5001" y="5.50005" width="1" height="1" stroke="#2F528F" stroke-width="1.33333" stroke-miterlimit="8" fill="#4472C4"/><path d="M4.58866 0.500053 92.4114 0.500053C94.6695 0.500053 96.5001 2.33059 96.5001 4.58866L96.5001 93.3868C96.5001 95.1062 95.1062 96.5001 93.3868 96.5001L3.61333 96.5001C1.89392 96.5001 0.500053 95.1062 0.500053 93.3868L0.500053 4.58866C0.500053 2.33059 2.33059 0.500053 4.58866 0.500053Z" stroke="#FABEBE" stroke-width="4.66667" stroke-miterlimit="8" fill="#FFFFFF" fill-rule="evenodd"/><g clip-path="url(#clip1)"><g clip-path="url(#clip2)"><g clip-path="url(#clip3)"><path d="M46.5 46C46.5 46 46.4983 46 46.4966 46 45.926 45.9983 45.3947 45.7147 45.0787 45.2398 44.5781 44.4898 32.8333 26.7915 32.8333 18.3814 32.8333 10.2531 38.1975 5 46.5 5 54.9306 5 60.1667 10.1267 60.1667 18.3814 60.1667 26.9299 48.4185 44.5018 47.9179 45.2432 47.6002 45.7164 47.0689 46 46.5 46ZM46.5 8.41667C43.4182 8.41667 36.25 9.387 36.25 18.3814 36.25 23.749 42.7195 35.1418 46.5051 41.1518 50.2908 35.1777 56.75 23.8429 56.75 18.3814 56.75 9.387 49.5818 8.41667 46.5 8.41667Z"/><path d="M48.2083 28.9167C48.2083 29.8602 47.4435 30.625 46.5 30.625 45.5565 30.625 44.7917 29.8602 44.7917 28.9167 44.7917 27.9732 45.5565 27.2083 46.5 27.2083 47.4435 27.2083 48.2083 27.9732 48.2083 28.9167Z"/><path d="M46.5085 25.5C45.5655 25.5 44.8019 24.7364 44.8002 23.7934L44.7917 13.5434C44.7917 12.6004 45.5553 11.8333 46.4983 11.8333 46.5 11.8333 46.5 11.8333 46.5 11.8333 47.443 11.8333 48.2083 12.597 48.2083 13.54L48.2169 23.79C48.2169 24.733 47.4533 25.5 46.5085 25.5 46.5103 25.5 46.5103 25.5 46.5085 25.5Z"/></g></g></g><text font-family="Calibri,Calibri_MSFontService,sans-serif" font-weight="700" transform="translate(20.2005 66)">PAINPOINT</text></g></svg>