<svg width="96" height="96" xmlns="http://www.w3.org/2000/svg" xmlns:xlink="http://www.w3.org/1999/xlink" overflow="hidden"><defs><clipPath id="clip0"><path d="M0 0 96 0 96 96 0 96Z" fill-rule="evenodd" clip-rule="evenodd"/></clipPath><clipPath id="clip1"><path d="M26 5 67 5 67 46 26 46Z" fill-rule="evenodd" clip-rule="evenodd"/></clipPath><clipPath id="clip2"><path d="M26 5 67 5 67 46 26 46Z" fill-rule="evenodd" clip-rule="evenodd"/></clipPath><clipPath id="clip3"><path d="M26 5 67 5 67 46 26 46Z" fill-rule="evenodd" clip-rule="evenodd"/></clipPath></defs><g clip-path="url(#clip0)"><path d="M0 0 96 0 96 96 0 96Z" fill="#313131" fill-rule="evenodd"/><text fill="#FFFFFF" font-family="Calibri,Calibri_MSFontService,sans-serif" font-weight="300" font-size="5" transform="translate(9.60011 -3)">SYSTEM</text><rect x="26.5001" y="5.50005" width="1" height="1" stroke="#2F528F" stroke-width="1.33333" stroke-miterlimit="8" fill="#4472C4"/><path d="M4.58866 0.500053 92.4114 0.500053C94.6695 0.500053 96.5001 2.33059 96.5001 4.58866L96.5001 93.3868C96.5001 95.1062 95.1062 96.5001 93.3868 96.5001L3.61333 96.5001C1.89392 96.5001 0.500053 95.1062 0.500053 93.3868L0.500053 4.58866C0.500053 2.33059 2.33059 0.500053 4.58866 0.500053Z" stroke="#B74D41" stroke-width="4.66667" stroke-miterlimit="8" fill="#FFFFFF" fill-rule="evenodd"/><g clip-path="url(#clip1)"><g clip-path="url(#clip2)"><g clip-path="url(#clip3)"><path d="M63.5833 27.2083C64.528 27.2083 65.2917 26.4447 65.2917 25.5 65.2917 24.557 64.528 23.7917 63.5833 23.7917L56.75 23.7917 56.75 20.375 63.5833 20.375C64.528 20.375 65.2917 19.6097 65.2917 18.6667 65.2917 17.7237 64.528 16.9583 63.5833 16.9583L56.75 16.9583C56.75 16.0153 55.9864 15.25 55.0417 15.25L55.0417 10.125C55.0417 9.182 54.278 8.41667 53.3333 8.41667 52.3886 8.41667 51.625 9.182 51.625 10.125L51.625 15.25 48.2083 15.25 48.2083 10.125C48.2083 9.182 47.4447 8.41667 46.5 8.41667 45.557 8.41667 44.7917 9.182 44.7917 10.125L44.7917 15.25 41.375 15.25 41.375 10.125C41.375 9.182 40.6097 8.41667 39.6667 8.41667 38.7237 8.41667 37.9583 9.182 37.9583 10.125L37.9583 15.25C37.0153 15.25 36.25 16.0153 36.25 16.9583L29.4167 16.9583C28.4737 16.9583 27.7083 17.7237 27.7083 18.6667 27.7083 19.6097 28.4737 20.375 29.4167 20.375L36.25 20.375 36.25 23.7917 29.4167 23.7917C28.4737 23.7917 27.7083 24.557 27.7083 25.5 27.7083 26.4447 28.4737 27.2083 29.4167 27.2083L36.25 27.2083 36.25 30.625 29.4167 30.625C28.4737 30.625 27.7083 31.3886 27.7083 32.3333 27.7083 33.278 28.4737 34.0417 29.4167 34.0417L36.25 34.0417C36.25 34.9864 37.0153 35.75 37.9583 35.75L37.9583 40.875C37.9583 41.8197 38.7237 42.5833 39.6667 42.5833 40.6097 42.5833 41.375 41.8197 41.375 40.875L41.375 35.75 44.7917 35.75 44.7917 40.875C44.7917 41.8197 45.557 42.5833 46.5 42.5833 47.4447 42.5833 48.2083 41.8197 48.2083 40.875L48.2083 35.75 51.625 35.75 51.625 40.875C51.625 41.8197 52.3886 42.5833 53.3333 42.5833 54.278 42.5833 55.0417 41.8197 55.0417 40.875L55.0417 35.75C55.9864 35.75 56.75 34.9864 56.75 34.0417L63.5833 34.0417C64.528 34.0417 65.2917 33.278 65.2917 32.3333 65.2917 31.3886 64.528 30.625 63.5833 30.625L56.75 30.625 56.75 27.2083 63.5833 27.2083ZM39.6667 32.3333 39.6667 18.6667 53.3333 18.6667 53.3333 32.3333 39.6667 32.3333Z"/></g></g></g><text font-family="Calibri,Calibri_MSFontService,sans-serif" font-weight="700" transform="translate(28.3672 66)">SYSTEM</text></g></svg>