<svg width="96" height="96" xmlns="http://www.w3.org/2000/svg" xmlns:xlink="http://www.w3.org/1999/xlink" overflow="hidden"><defs><clipPath id="clip0"><path d="M0 0 96 0 96 96 0 96Z" fill-rule="evenodd" clip-rule="evenodd"/></clipPath><clipPath id="clip1"><path d="M26 5 67 5 67 46 26 46Z" fill-rule="evenodd" clip-rule="evenodd"/></clipPath><clipPath id="clip2"><path d="M26 5 67 5 67 46 26 46Z" fill-rule="evenodd" clip-rule="evenodd"/></clipPath><clipPath id="clip3"><path d="M26 5 67 5 67 46 26 46Z" fill-rule="evenodd" clip-rule="evenodd"/></clipPath></defs><g clip-path="url(#clip0)"><path d="M0 0 96 0 96 96 0 96Z" fill="#313131" fill-rule="evenodd"/><text fill="#FFFFFF" font-family="Calibri,Calibri_MSFontService,sans-serif" font-weight="300" font-size="5" transform="translate(9.60011 -3)">PROJECT</text><rect x="26.5001" y="5.50005" width="1" height="1" stroke="#2F528F" stroke-width="1.33333" stroke-miterlimit="8" fill="#4472C4"/><path d="M4.58866 0.500053 92.4114 0.500053C94.6695 0.500053 96.5001 2.33059 96.5001 4.58866L96.5001 93.3868C96.5001 95.1062 95.1062 96.5001 93.3868 96.5001L3.61333 96.5001C1.89392 96.5001 0.500053 95.1062 0.500053 93.3868L0.500053 4.58866C0.500053 2.33059 2.33059 0.500053 4.58866 0.500053Z" stroke="#46F0F0" stroke-width="4.66667" stroke-miterlimit="8" fill="#FFFFFF" fill-rule="evenodd"/><g clip-path="url(#clip1)"><g clip-path="url(#clip2)"><g clip-path="url(#clip3)"><path d="M61.875 11.8333 38.8125 11.8333 38.8125 8.41667 35.3958 8.41667 35.3958 8.41667C32.0338 8.84204 29.4167 11.7753 29.4167 15.25L29.4167 35.75C29.4167 39.5186 32.4814 42.5833 36.25 42.5833L61.875 42.5833C62.8197 42.5833 63.5833 41.8197 63.5833 40.875L63.5833 13.5417C63.5833 12.5987 62.8197 11.8333 61.875 11.8333ZM35.3958 11.9546 35.3958 29.0038C34.4699 29.12 33.6072 29.4172 32.8333 29.8682L32.8333 15.25C32.8333 13.663 33.9267 12.3356 35.3958 11.9546ZM60.1667 39.1667 36.25 39.1667C34.3657 39.1667 32.8333 37.636 32.8333 35.75 32.8333 33.864 34.3657 32.3333 36.25 32.3333L38.8125 32.3333 38.8125 15.25 60.1667 15.25 60.1667 39.1667Z"/><path d="M44.7917 25.5 46.5 25.5 46.5 28.9167 44.7917 28.9167C43.8487 28.9167 43.0833 29.6803 43.0833 30.625 43.0833 31.5697 43.8487 32.3333 44.7917 32.3333L46.5 32.3333 46.5 34.0417C46.5 34.9864 47.2636 35.75 48.2083 35.75 49.153 35.75 49.9167 34.9864 49.9167 34.0417L49.9167 32.3333 55.0417 32.3333C55.9864 32.3333 56.75 31.5697 56.75 30.625 56.75 29.6803 55.9864 28.9167 55.0417 28.9167L49.9167 28.9167 49.9167 25.5 55.0417 25.5C55.9864 25.5 56.75 24.7347 56.75 23.7917 56.75 22.8487 55.9864 22.0833 55.0417 22.0833L49.9167 22.0833 49.9167 20.375C49.9167 19.432 49.153 18.6667 48.2083 18.6667 47.2636 18.6667 46.5 19.432 46.5 20.375L46.5 22.0833 44.7917 22.0833C43.8487 22.0833 43.0833 22.8487 43.0833 23.7917 43.0833 24.7347 43.8487 25.5 44.7917 25.5Z"/></g></g></g><text font-family="Calibri,Calibri_MSFontService,sans-serif" font-weight="700" transform="translate(26.5339 66)">PROJECT</text></g></svg>