<svg width="189" height="189" xmlns="http://www.w3.org/2000/svg" xmlns:xlink="http://www.w3.org/1999/xlink" overflow="hidden"><defs><clipPath id="clip0"><path d="M0 0 189 0 189 189 0 189Z" fill-rule="evenodd" clip-rule="evenodd"/></clipPath><clipPath id="clip1"><path d="M51 10 132 10 132 91 51 91Z" fill-rule="evenodd" clip-rule="evenodd"/></clipPath><clipPath id="clip2"><path d="M51 10 132 10 132 91 51 91Z" fill-rule="evenodd" clip-rule="evenodd"/></clipPath><clipPath id="clip3"><path d="M51 10 132 10 132 91 51 91Z" fill-rule="evenodd" clip-rule="evenodd"/></clipPath></defs><g clip-path="url(#clip0)"><rect x="0" y="0" width="189" height="189" fill="#313131"/><text fill="#FFFFFF" font-family="Calibri,Calibri_MSFontService,sans-serif" font-weight="300" font-size="11" transform="translate(9.60032 -5)">OBJECTIVE</text><rect x="51.5001" y="10.5001" width="1" height="1" stroke="#2F528F" stroke-width="1.33333" stroke-miterlimit="8" fill="#4472C4"/><path d="M8.5495 0.500053 181.451 0.500053C185.896 0.500053 189.5 4.10391 189.5 8.5495L189.5 183.371C189.5 186.756 186.756 189.5 183.371 189.5L6.62932 189.5C3.24422 189.5 0.500053 186.756 0.500053 183.371L0.500053 8.5495C0.500053 4.10391 4.10391 0.500053 8.5495 0.500053Z" stroke="#000080" stroke-width="4.66667" stroke-miterlimit="8" fill="#FFFFFF" fill-rule="evenodd"/><g clip-path="url(#clip1)"><g clip-path="url(#clip2)"><g clip-path="url(#clip3)"><path d="M127.636 14.3639C126.316 13.0443 124.184 13.0443 122.864 14.3639L112.843 24.3843C107.025 19.6221 99.5865 16.75 91.5 16.75 72.8903 16.75 57.75 31.8903 57.75 50.5 57.75 62.029 63.5685 72.2215 72.4178 78.31L68.8639 81.8639C67.5443 83.1835 67.5443 85.3165 68.8639 86.6361 69.522 87.2943 70.386 87.625 71.25 87.625 72.114 87.625 72.978 87.2943 73.6361 86.6361L78.5974 81.6715C82.5731 83.3286 86.9303 84.25 91.5 84.25 96.9675 84.25 102.118 82.9135 106.698 80.5983L112.739 86.6361C113.397 87.2943 114.261 87.625 115.125 87.625 115.989 87.625 116.853 87.2943 117.511 86.6361 118.831 85.3165 118.831 83.1835 117.511 81.8639L112.516 76.8689C120.258 70.6791 125.25 61.165 125.25 50.5 125.25 42.4135 122.381 34.975 117.616 29.1565L127.636 19.1361C128.956 17.8165 128.956 15.6869 127.636 14.3639ZM118.5 50.5C118.5 65.3905 106.387 77.5 91.5 77.5 87.4601 77.5 83.6362 76.5854 80.1904 74.989 79.7449 74.6009 79.2319 74.3747 78.6851 74.2634 70.2476 69.6903 64.5 60.7566 64.5 50.5 64.5 35.6129 76.6129 23.5 91.5 23.5 97.7302 23.5 103.458 25.6397 108.024 29.197L103.211 34.0098C99.9037 31.6574 95.8672 30.25 91.5 30.25 80.3321 30.25 71.25 39.3321 71.25 50.5 71.25 61.6679 80.3321 70.75 91.5 70.75 102.668 70.75 111.75 61.6679 111.75 50.5 111.75 46.1361 110.346 42.0963 107.987 38.7854L112.806 33.9726C116.357 38.5457 118.5 44.2698 118.5 50.5ZM105 50.5C105 57.9486 98.9453 64 91.5 64 84.0547 64 78 57.9486 78 50.5 78 43.0547 84.0547 37 91.5 37 93.9941 37 96.306 37.7256 98.3175 38.9136L93.228 43.9998C92.6745 43.858 92.1008 43.75 91.5 43.75 87.774 43.75 84.75 46.774 84.75 50.5 84.75 54.226 87.774 57.25 91.5 57.25 95.226 57.25 98.25 54.226 98.25 50.5 98.25 49.8993 98.1521 49.3289 98.0002 48.772L103.09 43.6859C104.271 45.6974 105 48.0025 105 50.5Z"/></g></g></g><text font-family="Calibri,Calibri_MSFontService,sans-serif" font-weight="700" font-size="24" transform="translate(42.9255 126)">OBJECTIVE</text></g></svg>