<svg width="96" height="96" xmlns="http://www.w3.org/2000/svg" xmlns:xlink="http://www.w3.org/1999/xlink" overflow="hidden"><defs><clipPath id="clip0"><path d="M0 0 96 0 96 96 0 96Z" fill-rule="evenodd" clip-rule="evenodd"/></clipPath><clipPath id="clip1"><path d="M26 5 67 5 67 46 26 46Z" fill-rule="evenodd" clip-rule="evenodd"/></clipPath><clipPath id="clip2"><path d="M26 5 67 5 67 46 26 46Z" fill-rule="evenodd" clip-rule="evenodd"/></clipPath><clipPath id="clip3"><path d="M26 5 67 5 67 46 26 46Z" fill-rule="evenodd" clip-rule="evenodd"/></clipPath></defs><g clip-path="url(#clip0)"><path d="M0 0 96 0 96 96 0 96Z" fill="#313131" fill-rule="evenodd"/><text fill="#FFFFFF" font-family="Calibri,Calibri_MSFontService,sans-serif" font-weight="300" font-size="5" transform="translate(9.60011 -3)">OBJECTIVE</text><rect x="26.5001" y="5.50005" width="1" height="1" stroke="#2F528F" stroke-width="1.33333" stroke-miterlimit="8" fill="#4472C4"/><path d="M4.58866 0.500053 92.4114 0.500053C94.6695 0.500053 96.5001 2.33059 96.5001 4.58866L96.5001 93.3868C96.5001 95.1062 95.1062 96.5001 93.3868 96.5001L3.61333 96.5001C1.89392 96.5001 0.500053 95.1062 0.500053 93.3868L0.500053 4.58866C0.500053 2.33059 2.33059 0.500053 4.58866 0.500053Z" stroke="#000080" stroke-width="4.66667" stroke-miterlimit="8" fill="#FFFFFF" fill-rule="evenodd"/><g clip-path="url(#clip1)"><g clip-path="url(#clip2)"><g clip-path="url(#clip3)"><path d="M64.7911 7.20887C64.1232 6.54092 63.0435 6.54092 62.3755 7.20887L57.3035 12.2809C54.3583 9.87046 50.5932 8.41667 46.5 8.41667 37.0802 8.41667 29.4167 16.0802 29.4167 25.5 29.4167 31.3357 32.3618 36.4948 36.8411 39.5767L35.0422 41.3755C34.3743 42.0435 34.3743 43.1232 35.0422 43.7911 35.3753 44.1243 35.8127 44.2917 36.25 44.2917 36.6873 44.2917 37.1247 44.1243 37.4578 43.7911L39.969 41.2782C41.9815 42.117 44.1869 42.5833 46.5 42.5833 49.2675 42.5833 51.8744 41.9068 54.1926 40.7349L57.2505 43.7911C57.5837 44.1243 58.021 44.2917 58.4583 44.2917 58.8957 44.2917 59.333 44.1243 59.6661 43.7911 60.3341 43.1232 60.3341 42.0435 59.6661 41.3755L57.1378 38.8472C61.0567 35.7141 63.5833 30.8983 63.5833 25.5 63.5833 21.4068 62.1312 17.6417 59.7191 14.6965L64.7911 9.62446C65.4591 8.9565 65.4591 7.87854 64.7911 7.20887ZM60.1667 25.5C60.1667 33.0372 54.0355 39.1667 46.5 39.1667 44.4551 39.1667 42.5196 38.7037 40.7754 37.8957 40.5499 37.6992 40.2902 37.5848 40.0135 37.5284 35.7426 35.2136 32.8333 30.6916 32.8333 25.5 32.8333 17.9645 38.9645 11.8333 46.5 11.8333 49.6536 11.8333 52.5526 12.9164 54.864 14.717L52.4279 17.1531C50.7537 15.9624 48.7106 15.25 46.5 15.25 40.8471 15.25 36.25 19.8471 36.25 25.5 36.25 31.1529 40.8471 35.75 46.5 35.75 52.1529 35.75 56.75 31.1529 56.75 25.5 56.75 23.2911 56.0393 21.2463 54.8452 19.5704L57.2847 17.1343C59.0819 19.4491 60.1667 22.3464 60.1667 25.5ZM53.3333 25.5C53.3333 29.2703 50.2686 32.3333 46.5 32.3333 42.7314 32.3333 39.6667 29.2703 39.6667 25.5 39.6667 21.7314 42.7314 18.6667 46.5 18.6667 47.7625 18.6667 48.9327 19.034 49.9508 19.6353L47.3747 22.2098C47.0945 22.138 46.8041 22.0833 46.5 22.0833 44.614 22.0833 43.0833 23.614 43.0833 25.5 43.0833 27.386 44.614 28.9167 46.5 28.9167 48.386 28.9167 49.9167 27.386 49.9167 25.5 49.9167 25.1959 49.8671 24.9072 49.7903 24.6253L52.3664 22.0509C52.9643 23.069 53.3333 24.2358 53.3333 25.5Z"/></g></g></g><text font-family="Calibri,Calibri_MSFontService,sans-serif" font-weight="700" transform="translate(21.7005 66)">OBJECTIVE</text></g></svg>