<svg width="96" height="96" xmlns="http://www.w3.org/2000/svg" xmlns:xlink="http://www.w3.org/1999/xlink" overflow="hidden"><defs><clipPath id="clip0"><path d="M0 0 96 0 96 96 0 96Z" fill-rule="evenodd" clip-rule="evenodd"/></clipPath><clipPath id="clip1"><path d="M26 5 67 5 67 46 26 46Z" fill-rule="evenodd" clip-rule="evenodd"/></clipPath><clipPath id="clip2"><path d="M26 5 67 5 67 46 26 46Z" fill-rule="evenodd" clip-rule="evenodd"/></clipPath><clipPath id="clip3"><path d="M26 5 67 5 67 46 26 46Z" fill-rule="evenodd" clip-rule="evenodd"/></clipPath></defs><g clip-path="url(#clip0)"><path d="M0 0 96 0 96 96 0 96Z" fill="#313131" fill-rule="evenodd"/><text fill="#FFFFFF" font-family="Calibri,Calibri_MSFontService,sans-serif" font-weight="300" font-size="5" transform="translate(9.60011 -3)">POSITION</text><rect x="26.5001" y="5.50005" width="1" height="1" stroke="#2F528F" stroke-width="1.33333" stroke-miterlimit="8" fill="#4472C4"/><path d="M4.58866 0.500053 92.4114 0.500053C94.6695 0.500053 96.5001 2.33059 96.5001 4.58866L96.5001 93.3868C96.5001 95.1062 95.1062 96.5001 93.3868 96.5001L3.61333 96.5001C1.89392 96.5001 0.500053 95.1062 0.500053 93.3868L0.500053 4.58866C0.500053 2.33059 2.33059 0.500053 4.58866 0.500053Z" stroke="#B74D41" stroke-width="4.66667" stroke-miterlimit="8" fill="#FFFFFF" fill-rule="evenodd"/><g clip-path="url(#clip1)"><g clip-path="url(#clip2)"><g clip-path="url(#clip3)"><path d="M46.5 16.9583C49.3256 16.9583 51.625 14.6589 51.625 11.8333 51.625 9.00775 49.3256 6.70833 46.5 6.70833 43.6744 6.70833 41.375 9.00775 41.375 11.8333 41.375 14.6589 43.6744 16.9583 46.5 16.9583ZM46.5 10.125C47.443 10.125 48.2083 10.892 48.2083 11.8333 48.2083 12.7746 47.443 13.5417 46.5 13.5417 45.5587 13.5417 44.7917 12.7746 44.7917 11.8333 44.7917 10.892 45.5587 10.125 46.5 10.125Z"/><path d="M63.5833 34.0417 61.875 34.0417 61.875 28.8603C61.875 28.4059 61.6956 27.9703 61.3727 27.6508 61.0533 27.3313 60.6211 27.152 60.1667 27.152 60.165 27.152 60.165 27.152 60.1632 27.152L55.0417 27.1622 55.0417 23.7917C55.0417 20.9661 52.7422 18.6667 49.9201 18.6667L43.0799 18.6667C40.256 18.6667 37.9583 20.9661 37.9583 23.7917L37.9583 27.1981 32.8299 27.2083C31.8869 27.21 31.125 27.9737 31.125 28.9167L31.125 34.0417 29.4167 34.0417C28.4737 34.0417 27.7083 34.8053 27.7083 35.75L27.7083 42.5833C27.7083 43.528 28.4737 44.2917 29.4167 44.2917L36.25 44.2917C37.193 44.2917 37.9583 43.528 37.9583 42.5833L37.9583 35.75C37.9583 34.8053 37.193 34.0417 36.25 34.0417L34.5417 34.0417 34.5417 30.6216 44.7917 30.5994 44.7917 34.0417 43.0833 34.0417C42.1403 34.0417 41.375 34.8053 41.375 35.75L41.375 42.5833C41.375 43.528 42.1403 44.2917 43.0833 44.2917L49.9167 44.2917C50.8614 44.2917 51.625 43.528 51.625 42.5833L51.625 35.75C51.625 34.8053 50.8614 34.0417 49.9167 34.0417L48.2083 34.0417 48.2083 30.5925 58.4583 30.5703 58.4583 34.0417 56.75 34.0417C55.8053 34.0417 55.0417 34.8053 55.0417 35.75L55.0417 42.5833C55.0417 43.528 55.8053 44.2917 56.75 44.2917L63.5833 44.2917C64.528 44.2917 65.2917 43.528 65.2917 42.5833L65.2917 35.75C65.2917 34.8053 64.528 34.0417 63.5833 34.0417ZM34.5417 40.875 31.125 40.875 31.125 37.4583 32.5515 37.4583C32.6471 37.4754 32.7342 37.5147 32.8333 37.5147 32.9324 37.5147 33.0195 37.4754 33.1152 37.4583L34.5417 37.4583 34.5417 40.875ZM48.2083 40.875 44.7917 40.875 44.7917 37.4583 48.2083 37.4583 48.2083 40.875ZM41.375 23.7917C41.375 22.8333 42.1232 22.0833 43.0799 22.0833L49.9201 22.0833C50.8768 22.0833 51.625 22.8333 51.625 23.7917L51.625 27.169 41.375 27.1912 41.375 23.7917ZM61.875 40.875 58.4583 40.875 58.4583 37.4583 61.875 37.4583 61.875 40.875Z"/></g></g></g><text font-family="Calibri,Calibri_MSFontService,sans-serif" font-weight="700" transform="translate(24.0339 66)">POSITION</text></g></svg>