<svg width="96" height="96" xmlns="http://www.w3.org/2000/svg" xmlns:xlink="http://www.w3.org/1999/xlink" overflow="hidden"><defs><clipPath id="clip0"><path d="M0 0 96 0 96 96 0 96Z" fill-rule="evenodd" clip-rule="evenodd"/></clipPath><clipPath id="clip1"><path d="M26 5 67 5 67 46 26 46Z" fill-rule="evenodd" clip-rule="evenodd"/></clipPath><clipPath id="clip2"><path d="M26 5 67 5 67 46 26 46Z" fill-rule="evenodd" clip-rule="evenodd"/></clipPath><clipPath id="clip3"><path d="M26 5 67 5 67 46 26 46Z" fill-rule="evenodd" clip-rule="evenodd"/></clipPath></defs><g clip-path="url(#clip0)"><path d="M0 0 96 0 96 96 0 96Z" fill="#313131" fill-rule="evenodd"/><text fill="#FFFFFF" font-family="Calibri,Calibri_MSFontService,sans-serif" font-weight="300" font-size="5" transform="translate(9.60011 -3)">TASK</text><rect x="26.5001" y="5.50005" width="1" height="1" stroke="#2F528F" stroke-width="1.33333" stroke-miterlimit="8" fill="#4472C4"/><path d="M4.58866 0.500053 92.4114 0.500053C94.6695 0.500053 96.5001 2.33059 96.5001 4.58866L96.5001 93.3868C96.5001 95.1062 95.1062 96.5001 93.3868 96.5001L3.61333 96.5001C1.89392 96.5001 0.500053 95.1062 0.500053 93.3868L0.500053 4.58866C0.500053 2.33059 2.33059 0.500053 4.58866 0.500053Z" stroke="#377692" stroke-width="4.66667" stroke-miterlimit="8" fill="#FFFFFF" fill-rule="evenodd"/><g clip-path="url(#clip1)"><g clip-path="url(#clip2)"><g clip-path="url(#clip3)"><path d="M44.5286 30.2833 40.5858 26.1833 37.9583 28.9167 44.5286 35.75 44.5286 35.7483 44.532 35.75 55.0417 24.8167 52.4143 22.0833Z"/><path d="M60.1667 10.125 55.0417 10.125 55.0417 8.41667C55.0417 7.47367 54.278 6.70833 53.3333 6.70833L39.6667 6.70833C38.7237 6.70833 37.9583 7.47367 37.9583 8.41667L37.9583 10.125 32.8333 10.125C31.8903 10.125 31.125 10.8903 31.125 11.8333L31.125 42.5833C31.125 43.528 31.8903 44.2917 32.8333 44.2917L60.1667 44.2917C61.1114 44.2917 61.875 43.528 61.875 42.5833L61.875 11.8333C61.875 10.8903 61.1114 10.125 60.1667 10.125ZM41.375 10.125 51.625 10.125 51.625 13.5417 41.375 13.5417 41.375 10.125ZM58.4583 40.875 34.5417 40.875 34.5417 13.5417 37.9583 13.5417 37.9583 15.25C37.9583 16.193 38.7237 16.9583 39.6667 16.9583L53.3333 16.9583C54.278 16.9583 55.0417 16.193 55.0417 15.25L55.0417 13.5417 58.4583 13.5417 58.4583 40.875Z"/></g></g></g><text font-family="Calibri,Calibri_MSFontService,sans-serif" font-weight="700" transform="translate(35.5339 66)">TASK</text></g></svg>