<svg width="189" height="189" xmlns="http://www.w3.org/2000/svg" xmlns:xlink="http://www.w3.org/1999/xlink" overflow="hidden"><defs><clipPath id="clip0"><path d="M0 0 189 0 189 189 0 189Z" fill-rule="evenodd" clip-rule="evenodd"/></clipPath><clipPath id="clip1"><path d="M51 10 132 10 132 91 51 91Z" fill-rule="evenodd" clip-rule="evenodd"/></clipPath><clipPath id="clip2"><path d="M51 10 132 10 132 91 51 91Z" fill-rule="evenodd" clip-rule="evenodd"/></clipPath><clipPath id="clip3"><path d="M51 10 132 10 132 91 51 91Z" fill-rule="evenodd" clip-rule="evenodd"/></clipPath></defs><g clip-path="url(#clip0)"><rect x="0" y="0" width="189" height="189" fill="#313131"/><text fill="#FFFFFF" font-family="Calibri,Calibri_MSFontService,sans-serif" font-weight="300" font-size="11" transform="translate(9.60032 -5)">USER JOURNEY</text><rect x="51.5001" y="10.5001" width="1" height="1" stroke="#2F528F" stroke-width="1.33333" stroke-miterlimit="8" fill="#4472C4"/><path d="M8.5495 0.500053 181.451 0.500053C185.896 0.500053 189.5 4.10391 189.5 8.5495L189.5 183.371C189.5 186.756 186.756 189.5 183.371 189.5L6.62932 189.5C3.24422 189.5 0.500053 186.756 0.500053 183.371L0.500053 8.5495C0.500053 4.10391 4.10391 0.500053 8.5495 0.500053Z" stroke="#F032E6" stroke-width="4.66667" stroke-miterlimit="8" fill="#FFFFFF" fill-rule="evenodd"/><g clip-path="url(#clip1)"><g clip-path="url(#clip2)"><g clip-path="url(#clip3)"><path d="M91.5 38.6875C98.9453 38.6875 105 32.6328 105 25.1875 105 17.7422 98.9453 11.6875 91.5 11.6875 84.0547 11.6875 78 17.7422 78 25.1875 78 32.6328 84.0547 38.6875 91.5 38.6875ZM91.5 18.4375C95.2226 18.4375 98.25 21.4649 98.25 25.1875 98.25 28.9101 95.2226 31.9375 91.5 31.9375 87.7774 31.9375 84.75 28.9101 84.75 25.1875 84.75 21.4649 87.7774 18.4375 91.5 18.4375Z"/><path d="M118.5 69.0625C114.106 69.0625 110.397 71.8941 108.999 75.8125L101.004 75.8125C99.6068 71.8941 95.8942 69.0625 91.5034 69.0625 87.1125 69.0625 83.4 71.8941 81.9994 75.8125L74.004 75.8125C72.6034 71.8941 68.8942 69.0625 64.5 69.0625 58.9178 69.0625 54.375 73.6053 54.375 79.1875 54.375 84.7697 58.9178 89.3125 64.5 89.3125 68.8942 89.3125 72.6034 86.4809 74.004 82.5625L81.9994 82.5625C83.3966 86.4809 87.1091 89.3125 91.5 89.3125 95.8909 89.3125 99.6034 86.4809 101.001 82.5625L108.996 82.5625C110.393 86.4809 114.106 89.3125 118.497 89.3125 124.079 89.3125 128.622 84.7697 128.622 79.1875 128.622 73.6053 124.082 69.0625 118.5 69.0625ZM64.5 82.5625C62.6404 82.5625 61.125 81.0505 61.125 79.1875 61.125 77.3245 62.6404 75.8125 64.5 75.8125 66.3596 75.8125 67.875 77.3245 67.875 79.1875 67.875 81.0505 66.3596 82.5625 64.5 82.5625ZM91.5 82.5625C89.6404 82.5625 88.125 81.0505 88.125 79.1875 88.125 77.3245 89.6404 75.8125 91.5 75.8125 93.363 75.8125 94.875 77.3245 94.875 79.1875 94.875 81.0505 93.363 82.5625 91.5 82.5625ZM118.5 82.5625C116.637 82.5625 115.125 81.0505 115.125 79.1875 115.125 77.3245 116.637 75.8125 118.5 75.8125 120.363 75.8125 121.875 77.3245 121.875 79.1875 121.875 81.0505 120.363 82.5625 118.5 82.5625Z"/><path d="M74.625 69.0625C76.488 69.0625 78 67.5539 78 65.6875L78 55.5625C78 51.8399 81.0274 48.8125 84.75 48.8125L98.25 48.8125C101.973 48.8125 105 51.8399 105 55.5625L105 65.6875C105 67.5539 106.509 69.0625 108.375 69.0625 110.241 69.0625 111.75 67.5539 111.75 65.6875L111.75 55.5625C111.75 48.1172 105.695 42.0625 98.25 42.0625L84.75 42.0625C77.3047 42.0625 71.25 48.1172 71.25 55.5625L71.25 65.6875C71.25 67.5539 72.762 69.0625 74.625 69.0625Z"/></g></g></g><text font-family="Calibri,Calibri_MSFontService,sans-serif" font-weight="700" font-size="24" transform="translate(20.6422 126)">USER JOURNEY</text></g></svg>