<svg width="189" height="189" xmlns="http://www.w3.org/2000/svg" xmlns:xlink="http://www.w3.org/1999/xlink" overflow="hidden"><defs><clipPath id="clip0"><path d="M0 0 189 0 189 189 0 189Z" fill-rule="evenodd" clip-rule="evenodd"/></clipPath><clipPath id="clip1"><path d="M51 10 132 10 132 91 51 91Z" fill-rule="evenodd" clip-rule="evenodd"/></clipPath><clipPath id="clip2"><path d="M51 10 132 10 132 91 51 91Z" fill-rule="evenodd" clip-rule="evenodd"/></clipPath><clipPath id="clip3"><path d="M51 10 132 10 132 91 51 91Z" fill-rule="evenodd" clip-rule="evenodd"/></clipPath></defs><g clip-path="url(#clip0)"><rect x="0" y="0" width="189" height="189" fill="#313131"/><text fill="#FFFFFF" font-family="Calibri,Calibri_MSFontService,sans-serif" font-weight="300" font-size="11" transform="translate(9.60032 -5)">OFFERING</text><rect x="51.5001" y="10.5001" width="1" height="1" stroke="#2F528F" stroke-width="1.33333" stroke-miterlimit="8" fill="#4472C4"/><path d="M8.5495 0.500053 181.451 0.500053C185.896 0.500053 189.5 4.10391 189.5 8.5495L189.5 183.371C189.5 186.756 186.756 189.5 183.371 189.5L6.62932 189.5C3.24422 189.5 0.500053 186.756 0.500053 183.371L0.500053 8.5495C0.500053 4.10391 4.10391 0.500053 8.5495 0.500053Z" stroke="#911EB4" stroke-width="4.66667" stroke-miterlimit="8" fill="#FFFFFF" fill-rule="evenodd"/><g clip-path="url(#clip1)"><g clip-path="url(#clip2)"><g clip-path="url(#clip3)"><path d="M121.875 43.75 61.125 43.75C59.262 43.75 57.75 45.262 57.75 47.125L57.75 60.625C57.75 62.4914 59.262 64 61.125 64L64.5 64 64.5 84.25C64.5 86.1164 66.012 87.625 67.875 87.625L115.125 87.625C116.991 87.625 118.5 86.1164 118.5 84.25L118.5 64 121.875 64C123.741 64 125.25 62.4914 125.25 60.625L125.25 47.125C125.25 45.2654 123.741 43.75 121.875 43.75ZM111.75 80.875 71.25 80.875 71.25 64 111.75 64 111.75 80.875ZM118.5 57.25 115.125 57.25 67.875 57.25 64.5 57.25 64.5 50.5 118.5 50.5 118.5 57.25Z"/><path d="M66.8861 29.2645 71.25 24.9006 71.25 33.625C71.25 35.488 72.762 37 74.625 37 76.488 37 78 35.488 78 33.625L78 24.9006 82.3639 29.2645C83.022 29.9193 83.886 30.25 84.75 30.25 85.614 30.25 86.478 29.9193 87.1361 29.2611 88.4557 27.9415 88.4557 25.8085 87.1361 24.4889L77.0111 14.3639C75.6915 13.0443 73.5585 13.0443 72.2389 14.3639L62.1139 24.4889C60.7943 25.8085 60.7943 27.9415 62.1139 29.2611 63.4335 30.5807 65.5665 30.5841 66.8861 29.2645Z"/><path d="M100.636 29.2645 105 24.9006 105 33.625C105 35.488 106.509 37 108.375 37 110.241 37 111.75 35.488 111.75 33.625L111.75 24.9006 116.114 29.2645C116.772 29.9193 117.636 30.25 118.5 30.25 119.364 30.25 120.228 29.9193 120.886 29.2611 122.206 27.9415 122.206 25.8085 120.886 24.4889L110.761 14.3639C109.441 13.0443 107.309 13.0443 105.989 14.3639L95.8639 24.4889C94.5443 25.8085 94.5443 27.9415 95.8639 29.2611 97.1835 30.5807 99.3165 30.5841 100.636 29.2645Z"/></g></g></g><text font-family="Calibri,Calibri_MSFontService,sans-serif" font-weight="700" font-size="24" transform="translate(45.3922 126)">OFFERING</text></g></svg>