<svg width="189" height="189" xmlns="http://www.w3.org/2000/svg" xmlns:xlink="http://www.w3.org/1999/xlink" overflow="hidden"><defs><clipPath id="clip0"><path d="M0 0 189 0 189 189 0 189Z" fill-rule="evenodd" clip-rule="evenodd"/></clipPath><clipPath id="clip1"><path d="M51 10 132 10 132 91 51 91Z" fill-rule="evenodd" clip-rule="evenodd"/></clipPath><clipPath id="clip2"><path d="M51 10 132 10 132 91 51 91Z" fill-rule="evenodd" clip-rule="evenodd"/></clipPath><clipPath id="clip3"><path d="M51 10 132 10 132 91 51 91Z" fill-rule="evenodd" clip-rule="evenodd"/></clipPath></defs><g clip-path="url(#clip0)"><rect x="0" y="0" width="189" height="189" fill="#313131"/><text fill="#FFFFFF" font-family="Calibri,Calibri_MSFontService,sans-serif" font-weight="300" font-size="11" transform="translate(9.60032 0)">STAGE</text><rect x="51.5001" y="10.5001" width="1" height="1" stroke="#2F528F" stroke-width="1.33333" stroke-miterlimit="8" fill="#4472C4"/><path d="M8.5495 0.500053 181.451 0.500053C185.896 0.500053 189.5 4.10391 189.5 8.5495L189.5 183.371C189.5 186.756 186.756 189.5 183.371 189.5L6.62932 189.5C3.24422 189.5 0.500053 186.756 0.500053 183.371L0.500053 8.5495C0.500053 4.10391 4.10391 0.500053 8.5495 0.500053Z" stroke="#F032E6" stroke-width="4.66667" stroke-miterlimit="8" fill="#FFFFFF" fill-rule="evenodd"/><g clip-path="url(#clip1)"><g clip-path="url(#clip2)"><g clip-path="url(#clip3)"><path d="M127.893 70.3382 121.19 61.9007C120.542 61.0941 119.573 60.625 118.547 60.625L98.25 60.625C96.9506 60.625 95.7728 61.3709 95.2125 62.5353 94.6523 63.7064 94.8041 65.0935 95.6141 66.1094L100.683 72.4375 95.6141 78.7656C94.8041 79.7815 94.6523 81.1686 95.2125 82.3398 95.7728 83.5041 96.9506 84.25 98.25 84.25L118.547 84.25C119.577 84.25 120.552 83.7809 121.19 82.9743L127.893 74.5368C128.868 73.3082 128.868 71.5668 127.893 70.3382Z"/><path d="M84.0615 61.9007C83.4236 61.0941 82.4516 60.625 81.4222 60.625L61.125 60.625C59.829 60.625 58.6444 61.3709 58.0841 62.5353 57.5205 63.7064 57.6791 65.0935 58.4925 66.1094L63.555 72.4375 58.4925 78.7656C57.6825 79.7815 57.5239 81.1686 58.0841 82.3398 58.6444 83.5041 59.829 84.25 61.125 84.25L81.4222 84.25C82.4516 84.25 83.4236 83.7809 84.0649 82.9743L90.771 74.5368C91.7464 73.3082 91.7464 71.5668 90.771 70.3382L84.0615 61.9007ZM79.7921 77.5 68.1484 77.5 70.5109 74.5469C71.4964 73.315 71.4964 71.56 70.5109 70.3281L68.1484 67.375 79.7921 67.375 83.8151 72.4375 79.7921 77.5Z"/><path d="M111.75 33.6048C111.75 32.7002 111.396 31.8329 110.751 31.195L93.9064 14.3301C92.6306 13.0544 90.3694 13.0544 89.0936 14.3301L72.2456 31.195C70.9125 32.5281 70.9125 34.6814 72.2456 36.0111L89.0903 52.876C89.7315 53.5173 90.5921 53.875 91.5 53.875 92.4045 53.875 93.2651 53.5173 93.9064 52.876L110.751 36.0111C111.396 35.3733 111.75 34.5059 111.75 33.6048ZM91.5 45.6468 79.4681 33.6048 91.5 21.5594 103.532 33.6048 91.5 45.6468Z"/></g></g></g><text font-family="Calibri,Calibri_MSFontService,sans-serif" font-weight="700" font-size="24" transform="translate(19.5722 126)">VALUE STREAM <tspan x="44.8467" y="28">STAGE</tspan></text></g></svg>