<svg width="189" height="189" xmlns="http://www.w3.org/2000/svg" xmlns:xlink="http://www.w3.org/1999/xlink" overflow="hidden"><defs><clipPath id="clip0"><path d="M0 0 189 0 189 189 0 189Z" fill-rule="evenodd" clip-rule="evenodd"/></clipPath><clipPath id="clip1"><path d="M51 10 132 10 132 91 51 91Z" fill-rule="evenodd" clip-rule="evenodd"/></clipPath><clipPath id="clip2"><path d="M51 10 132 10 132 91 51 91Z" fill-rule="evenodd" clip-rule="evenodd"/></clipPath><clipPath id="clip3"><path d="M51 10 132 10 132 91 51 91Z" fill-rule="evenodd" clip-rule="evenodd"/></clipPath></defs><g clip-path="url(#clip0)"><rect x="0" y="0" width="189" height="189" fill="#313131"/><text fill="#FFFFFF" font-family="Calibri,Calibri_MSFontService,sans-serif" font-weight="300" font-size="11" transform="translate(9.60032 0)">PROPOSITION</text><rect x="51.5001" y="10.5001" width="1" height="1" stroke="#2F528F" stroke-width="1.33333" stroke-miterlimit="8" fill="#4472C4"/><path d="M8.5495 0.500053 181.451 0.500053C185.896 0.500053 189.5 4.10391 189.5 8.5495L189.5 183.371C189.5 186.756 186.756 189.5 183.371 189.5L6.62932 189.5C3.24422 189.5 0.500053 186.756 0.500053 183.371L0.500053 8.5495C0.500053 4.10391 4.10391 0.500053 8.5495 0.500053Z" stroke="#F032E6" stroke-width="4.66667" stroke-miterlimit="8" fill="#FFFFFF" fill-rule="evenodd"/><g clip-path="url(#clip1)"><g clip-path="url(#clip2)"><g clip-path="url(#clip3)"><path d="M121.875 43.75 61.125 43.75C59.262 43.75 57.75 45.262 57.75 47.125L57.75 60.625C57.75 62.4914 59.262 64 61.125 64L64.5 64 64.5 84.25C64.5 86.1164 66.012 87.625 67.875 87.625L115.125 87.625C116.991 87.625 118.5 86.1164 118.5 84.25L118.5 64 121.875 64C123.741 64 125.25 62.4914 125.25 60.625L125.25 47.125C125.25 45.262 123.741 43.75 121.875 43.75ZM111.75 80.875 71.25 80.875 71.25 64 111.75 64 111.75 80.875ZM118.5 57.25 115.125 57.25 67.875 57.25 64.5 57.25 64.5 50.5 118.5 50.5 118.5 57.25Z"/><path d="M89.0059 39.3389C89.691 40.0274 90.5955 40.375 91.5 40.375 92.4011 40.375 93.3022 40.0274 93.9908 39.3389L103.964 29.3523C105.341 27.9685 105.341 25.7376 103.964 24.3573L93.9908 14.3673C92.6677 13.0409 90.3289 13.0409 89.0059 14.3673L79.0327 24.3573C77.6524 25.7376 77.6524 27.9685 79.0327 29.3523L89.0059 39.3389ZM91.5 21.8631 96.4883 26.8547 91.5 31.8498 86.5117 26.8547 91.5 21.8631Z"/></g></g></g><text font-family="Calibri,Calibri_MSFontService,sans-serif" font-weight="700" font-size="24" transform="translate(63.3089 126)">VALUE <tspan x="-36.8" y="28">PROPOSITION</tspan></text></g></svg>