<svg width="189" height="189" xmlns="http://www.w3.org/2000/svg" xmlns:xlink="http://www.w3.org/1999/xlink" overflow="hidden"><defs><clipPath id="clip0"><path d="M0 0 189 0 189 189 0 189Z" fill-rule="evenodd" clip-rule="evenodd"/></clipPath><clipPath id="clip1"><path d="M51 10 132 10 132 91 51 91Z" fill-rule="evenodd" clip-rule="evenodd"/></clipPath><clipPath id="clip2"><path d="M51 10 132 10 132 91 51 91Z" fill-rule="evenodd" clip-rule="evenodd"/></clipPath><clipPath id="clip3"><path d="M51 10 132 10 132 91 51 91Z" fill-rule="evenodd" clip-rule="evenodd"/></clipPath></defs><g clip-path="url(#clip0)"><rect x="0" y="0" width="189" height="189" fill="#313131"/><text fill="#FFFFFF" font-family="Calibri,Calibri_MSFontService,sans-serif" font-weight="300" font-size="11" transform="translate(9.60032 -5)">PRODUCT</text><rect x="51.5001" y="10.5001" width="1" height="1" stroke="#2F528F" stroke-width="1.33333" stroke-miterlimit="8" fill="#4472C4"/><path d="M8.5495 0.500053 181.451 0.500053C185.896 0.500053 189.5 4.10391 189.5 8.5495L189.5 183.371C189.5 186.756 186.756 189.5 183.371 189.5L6.62932 189.5C3.24422 189.5 0.500053 186.756 0.500053 183.371L0.500053 8.5495C0.500053 4.10391 4.10391 0.500053 8.5495 0.500053Z" stroke="#911EB4" stroke-width="4.66667" stroke-miterlimit="8" fill="#FFFFFF" fill-rule="evenodd"/><g clip-path="url(#clip1)"><g clip-path="url(#clip2)"><g clip-path="url(#clip3)"><path d="M125.25 13.375 57.75 13.375C55.887 13.375 54.375 14.8904 54.375 16.7568L54.375 30.2871C54.375 32.1535 55.887 33.6689 57.75 33.6689L61.125 33.6689 61.125 77.6451C61.125 79.5149 62.637 81.0269 64.5 81.0269L77.109 81.0269C78.972 81.0269 80.484 79.5149 80.484 77.6451 80.484 75.7754 78.972 74.2634 77.109 74.2634L67.875 74.2634 67.875 33.6722 115.125 33.6722 115.125 37.0202C115.125 38.8866 116.634 40.402 118.5 40.402 120.366 40.402 121.875 38.8866 121.875 37.0202L121.875 33.6722 125.25 33.6722C127.116 33.6722 128.625 32.1569 128.625 30.2905L128.625 16.7568C128.625 14.8904 127.116 13.375 125.25 13.375ZM121.875 26.9054 118.5 26.9054 64.5 26.9054 61.125 26.9054 61.125 20.1385 121.875 20.1385 121.875 26.9054Z"/><path d="M108.567 46.3319C107.7 45.4881 106.465 45.1641 105.3 45.4881L94.0549 48.5931 87.099 41.833C85.7625 40.5269 83.6295 40.564 82.3268 41.9039 81.0274 43.2438 81.0611 45.3835 82.401 46.6862L89.313 53.4059 86.235 64.5839C85.9076 65.7719 86.2485 67.0409 87.1226 67.8947L106.178 86.653C106.836 87.301 107.69 87.625 108.544 87.625 109.411 87.625 110.275 87.2943 110.93 86.6328L127.633 69.8927C128.267 69.2583 128.625 68.3942 128.622 67.483 128.618 66.5785 128.257 65.7246 127.613 65.0834L108.567 46.3319ZM108.523 79.4778 93.2651 64.4691 94.8379 58.7755 99.3469 63.1596C100.002 63.7975 100.852 64.1181 101.696 64.1181 102.577 64.1181 103.454 63.7705 104.119 63.0854 105.419 61.7489 105.385 59.6058 104.048 58.303L99.6776 54.0505 105.219 52.5182 120.461 67.5201 108.523 79.4778Z"/></g></g></g><text font-family="Calibri,Calibri_MSFontService,sans-serif" font-weight="700" font-size="24" transform="translate(46.9522 126)">PRODUCT</text></g></svg>