<svg width="96" height="96" xmlns="http://www.w3.org/2000/svg" xmlns:xlink="http://www.w3.org/1999/xlink" overflow="hidden"><defs><clipPath id="clip0"><path d="M0 0 96 0 96 96 0 96Z" fill-rule="evenodd" clip-rule="evenodd"/></clipPath><clipPath id="clip1"><path d="M26 5 67 5 67 46 26 46Z" fill-rule="evenodd" clip-rule="evenodd"/></clipPath><clipPath id="clip2"><path d="M26 5 67 5 67 46 26 46Z" fill-rule="evenodd" clip-rule="evenodd"/></clipPath><clipPath id="clip3"><path d="M26 5 67 5 67 46 26 46Z" fill-rule="evenodd" clip-rule="evenodd"/></clipPath></defs><g clip-path="url(#clip0)"><path d="M0 0 96 0 96 96 0 96Z" fill="#313131" fill-rule="evenodd"/><text fill="#FFFFFF" font-family="Calibri,Calibri_MSFontService,sans-serif" font-weight="300" font-size="5" transform="translate(9.60011 -3)">RELEASE</text><rect x="26.5001" y="5.50005" width="1" height="1" stroke="#2F528F" stroke-width="1.33333" stroke-miterlimit="8" fill="#4472C4"/><path d="M4.58866 0.500053 92.4114 0.500053C94.6695 0.500053 96.5001 2.33059 96.5001 4.58866L96.5001 93.3868C96.5001 95.1062 95.1062 96.5001 93.3868 96.5001L3.61333 96.5001C1.89392 96.5001 0.500053 95.1062 0.500053 93.3868L0.500053 4.58866C0.500053 2.33059 2.33059 0.500053 4.58866 0.500053Z" stroke="#46F0F0" stroke-width="4.66667" stroke-miterlimit="8" fill="#FFFFFF" fill-rule="evenodd"/><g clip-path="url(#clip1)"><g clip-path="url(#clip2)"><g clip-path="url(#clip3)"><path d="M35.7563 29.3933C35.0883 28.7253 34.007 28.7253 33.339 29.3933 32.671 30.0595 32.671 31.1392 33.339 31.8089L40.1826 38.6576C40.5157 38.989 40.9548 39.1581 41.3921 39.1581 41.8294 39.1581 42.2668 38.989 42.5999 38.6576 43.2678 37.9913 43.2678 36.9117 42.5999 36.242L35.7563 29.3933Z"/><path d="M32.3345 36.242C31.6665 35.5723 30.5852 35.5723 29.9172 36.242 29.2493 36.9082 29.2493 37.9879 29.9172 38.6576L33.339 42.0828C33.6721 42.4159 34.1112 42.5833 34.5468 42.5833 34.9824 42.5833 35.4215 42.4159 35.7546 42.0828 36.4225 41.4148 36.4225 40.3352 35.7546 39.6672L32.3345 36.242Z"/><path d="M63.0828 8.91721C62.7155 8.54992 62.1945 8.36883 61.6888 8.42692L50.7982 9.63642C50.4104 9.67912 50.0499 9.85167 49.7766 10.1267L45.3008 14.606 33.7114 16.9242C33.093 17.0506 32.5942 17.5016 32.4114 18.1046 32.2286 18.7077 32.3926 19.362 32.8385 19.8078L37.5176 24.4904C37.5654 24.5536 37.5893 24.627 37.6457 24.6834L47.3268 34.368C47.3849 34.4243 47.4618 34.4534 47.525 34.5012L52.199 39.1769C52.5219 39.5015 52.9592 39.6775 53.4068 39.6775 53.5742 39.6775 53.7365 39.6535 53.9022 39.604 54.5053 39.4229 54.958 38.9224 55.081 38.304L57.3958 26.7044 61.8699 22.2268C62.1449 21.9518 62.3175 21.593 62.3602 21.207L63.5697 10.3095C63.6295 9.80042 63.4501 9.2845 63.0828 8.91721ZM40.9479 18.9605 38.886 21.0259 37.509 19.6507 40.9479 18.9605ZM52.3596 34.5046 50.981 33.126 53.0446 31.0623 52.3596 34.5046ZM59.034 20.2383 54.6197 24.6561C54.618 24.6561 54.618 24.6561 54.618 24.6561L48.5329 30.7446 41.2708 23.4756 47.3542 17.3871C47.3576 17.3854 47.3576 17.382 47.361 17.3786L51.7685 12.966 59.9412 12.0571 59.034 20.2383Z"/><path d="M57.6469 17.7544C57.6469 19.6433 56.1157 21.1745 54.2268 21.1745 52.3379 21.1745 50.8067 19.6433 50.8067 17.7544 50.8067 15.8656 52.3379 14.3343 54.2268 14.3343 56.1157 14.3343 57.6469 15.8656 57.6469 17.7544Z"/></g></g></g><text font-family="Calibri,Calibri_MSFontService,sans-serif" font-weight="700" transform="translate(27.1172 66)">RELEASE</text></g></svg>