<svg width="96" height="96" xmlns="http://www.w3.org/2000/svg" xmlns:xlink="http://www.w3.org/1999/xlink" overflow="hidden"><defs><clipPath id="clip0"><path d="M0 0 96 0 96 96 0 96Z" fill-rule="evenodd" clip-rule="evenodd"/></clipPath><clipPath id="clip1"><path d="M26 5 67 5 67 46 26 46Z" fill-rule="evenodd" clip-rule="evenodd"/></clipPath><clipPath id="clip2"><path d="M26 5 67 5 67 46 26 46Z" fill-rule="evenodd" clip-rule="evenodd"/></clipPath><clipPath id="clip3"><path d="M26 5 67 5 67 46 26 46Z" fill-rule="evenodd" clip-rule="evenodd"/></clipPath></defs><g clip-path="url(#clip0)"><path d="M0 0 96 0 96 96 0 96Z" fill="#313131" fill-rule="evenodd"/><text fill="#FFFFFF" font-family="Calibri,Calibri_MSFontService,sans-serif" font-weight="300" font-size="5" transform="translate(9.60011 -3)">SKILL</text><rect x="26.5001" y="5.50005" width="1" height="1" stroke="#2F528F" stroke-width="1.33333" stroke-miterlimit="8" fill="#4472C4"/><path d="M4.58866 0.500053 92.4114 0.500053C94.6695 0.500053 96.5001 2.33059 96.5001 4.58866L96.5001 93.3868C96.5001 95.1062 95.1062 96.5001 93.3868 96.5001L3.61333 96.5001C1.89392 96.5001 0.500053 95.1062 0.500053 93.3868L0.500053 4.58866C0.500053 2.33059 2.33059 0.500053 4.58866 0.500053Z" stroke="#CEB023" stroke-width="4.66667" stroke-miterlimit="8" fill="#FFFFFF" fill-rule="evenodd"/><g clip-path="url(#clip1)"><g clip-path="url(#clip2)"><g clip-path="url(#clip3)"><path d="M46.5 23.7917C41.7901 23.7917 37.9583 19.9599 37.9583 15.25 37.9583 10.5401 41.7901 6.70833 46.5 6.70833 51.2099 6.70833 55.0417 10.5401 55.0417 15.25 55.0417 19.9599 51.2099 23.7917 46.5 23.7917ZM46.5 10.125C43.6744 10.125 41.375 12.4244 41.375 15.25 41.375 18.0756 43.6744 20.375 46.5 20.375 49.3256 20.375 51.625 18.0756 51.625 15.25 51.625 12.4244 49.3256 10.125 46.5 10.125Z"/><path d="M58.4583 46C57.5136 46 56.75 45.2364 56.75 44.2917L56.75 36.6042C56.75 33.3071 54.0628 30.625 50.7589 30.625L42.2411 30.625C38.9372 30.625 36.25 33.3071 36.25 36.6042L36.25 44.2917C36.25 45.2364 35.4847 46 34.5417 46 33.5987 46 32.8333 45.2364 32.8333 44.2917L32.8333 36.6042C32.8333 31.4245 37.0529 27.2083 42.2411 27.2083L50.7589 27.2083C55.9454 27.2083 60.1667 31.4245 60.1667 36.6042L60.1667 44.2917C60.1667 45.2364 59.403 46 58.4583 46Z"/><path d="M46.5 43.6647 42.2753 46 43.0833 41.0544 39.6667 37.5557 44.3885 36.8314 46.5 32.3333 48.6115 36.8314 53.3333 37.5557 49.9167 41.0544 50.7247 46Z"/></g></g></g><text font-family="Calibri,Calibri_MSFontService,sans-serif" font-weight="700" transform="translate(35.6172 66)">SKILL</text></g></svg>