<svg width="189" height="189" xmlns="http://www.w3.org/2000/svg" xmlns:xlink="http://www.w3.org/1999/xlink" overflow="hidden"><defs><clipPath id="clip0"><path d="M0 0 189 0 189 189 0 189Z" fill-rule="evenodd" clip-rule="evenodd"/></clipPath><clipPath id="clip1"><path d="M51 10 132 10 132 91 51 91Z" fill-rule="evenodd" clip-rule="evenodd"/></clipPath><clipPath id="clip2"><path d="M51 10 132 10 132 91 51 91Z" fill-rule="evenodd" clip-rule="evenodd"/></clipPath><clipPath id="clip3"><path d="M51 10 132 10 132 91 51 91Z" fill-rule="evenodd" clip-rule="evenodd"/></clipPath></defs><g clip-path="url(#clip0)"><rect x="0" y="0" width="189" height="189" fill="#313131"/><text fill="#FFFFFF" font-family="Calibri,Calibri_MSFontService,sans-serif" font-weight="300" font-size="11" transform="translate(9.60032 -5)">PROCESS GROUP</text><rect x="51.5001" y="10.5001" width="1" height="1" stroke="#2F528F" stroke-width="1.33333" stroke-miterlimit="8" fill="#4472C4"/><path d="M8.5495 0.500053 181.451 0.500053C185.896 0.500053 189.5 4.10391 189.5 8.5495L189.5 183.371C189.5 186.756 186.756 189.5 183.371 189.5L6.62932 189.5C3.24422 189.5 0.500053 186.756 0.500053 183.371L0.500053 8.5495C0.500053 4.10391 4.10391 0.500053 8.5495 0.500053Z" stroke="#377692" stroke-width="4.66667" stroke-miterlimit="8" fill="#FFFFFF" fill-rule="evenodd"/><g clip-path="url(#clip1)"><g clip-path="url(#clip2)"><g clip-path="url(#clip3)"><path d="M71.25 33.625C65.5125 33.625 61.125 29.2375 61.125 23.5 61.125 17.7625 65.5125 13.375 71.25 13.375 76.9875 13.375 81.375 17.7625 81.375 23.5 81.375 29.2375 76.9875 33.625 71.25 33.625ZM71.25 20.125C69.225 20.125 67.875 21.475 67.875 23.5 67.875 25.525 69.225 26.875 71.25 26.875 73.275 26.875 74.625 25.525 74.625 23.5 74.625 21.475 73.275 20.125 71.25 20.125Z"/><path d="M84.75 57.25C82.725 57.25 81.375 55.9 81.375 53.875L81.375 47.125C81.375 45.1 80.025 43.75 78 43.75L64.5 43.75C62.475 43.75 61.125 45.1 61.125 47.125L61.125 53.875C61.125 55.9 59.775 57.25 57.75 57.25 55.725 57.25 54.375 55.9 54.375 53.875L54.375 47.125C54.375 41.3875 58.7625 37 64.5 37L78 37C83.7375 37 88.125 41.3875 88.125 47.125L88.125 53.875C88.125 55.9 86.775 57.25 84.75 57.25Z"/><path d="M111.75 33.625C106.012 33.625 101.625 29.2375 101.625 23.5 101.625 17.7625 106.012 13.375 111.75 13.375 117.488 13.375 121.875 17.7625 121.875 23.5 121.875 29.2375 117.488 33.625 111.75 33.625ZM111.75 20.125C109.725 20.125 108.375 21.475 108.375 23.5 108.375 25.525 109.725 26.875 111.75 26.875 113.775 26.875 115.125 25.525 115.125 23.5 115.125 21.475 113.775 20.125 111.75 20.125Z"/><path d="M125.25 57.25C123.225 57.25 121.875 55.9 121.875 53.875L121.875 47.125C121.875 45.1 120.525 43.75 118.5 43.75L105 43.75C102.975 43.75 101.625 45.1 101.625 47.125L101.625 53.875C101.625 55.9 100.275 57.25 98.25 57.25 96.225 57.25 94.875 55.9 94.875 53.875L94.875 47.125C94.875 41.3875 99.2625 37 105 37L118.5 37C124.238 37 128.625 41.3875 128.625 47.125L128.625 53.875C128.625 55.9 127.275 57.25 125.25 57.25Z"/><path d="M67.875 84.25 57.75 84.25C55.725 84.25 54.375 82.9 54.375 80.875L54.375 70.75C54.375 68.725 55.725 67.375 57.75 67.375 59.775 67.375 61.125 68.725 61.125 70.75L61.125 77.5 67.875 77.5C69.9 77.5 71.25 78.85 71.25 80.875 71.25 82.9 69.9 84.25 67.875 84.25Z"/><path d="M125.25 84.25 115.125 84.25C113.1 84.25 111.75 82.9 111.75 80.875 111.75 78.85 113.1 77.5 115.125 77.5L121.875 77.5 121.875 70.75C121.875 68.725 123.225 67.375 125.25 67.375 127.275 67.375 128.625 68.725 128.625 70.75L128.625 80.875C128.625 82.9 127.275 84.25 125.25 84.25Z"/><path d="M101.625 91 81.375 91C79.35 91 78 89.65 78 87.625L78 74.125C78 72.1 79.35 70.75 81.375 70.75L101.625 70.75C103.65 70.75 105 72.1 105 74.125L105 87.625C105 89.65 103.65 91 101.625 91ZM84.75 84.25 98.25 84.25 98.25 77.5 84.75 77.5 84.75 84.25Z"/></g></g></g><text font-family="Calibri,Calibri_MSFontService,sans-serif" font-weight="700" font-size="24" transform="translate(12.4922 126)">PROCESS GROUP</text></g></svg>