<svg width="189" height="189" xmlns="http://www.w3.org/2000/svg" xmlns:xlink="http://www.w3.org/1999/xlink" overflow="hidden"><defs><clipPath id="clip0"><path d="M0 0 189 0 189 189 0 189Z" fill-rule="evenodd" clip-rule="evenodd"/></clipPath><clipPath id="clip1"><path d="M51 10 132 10 132 91 51 91Z" fill-rule="evenodd" clip-rule="evenodd"/></clipPath><clipPath id="clip2"><path d="M51 10 132 10 132 91 51 91Z" fill-rule="evenodd" clip-rule="evenodd"/></clipPath><clipPath id="clip3"><path d="M51 10 132 10 132 91 51 91Z" fill-rule="evenodd" clip-rule="evenodd"/></clipPath></defs><g clip-path="url(#clip0)"><rect x="0" y="0" width="189" height="189" fill="#313131"/><text fill="#FFFFFF" font-family="Calibri,Calibri_MSFontService,sans-serif" font-weight="300" font-size="11" transform="translate(9.60032 -5)">GOAL</text><rect x="51.5001" y="10.5001" width="1" height="1" stroke="#2F528F" stroke-width="1.33333" stroke-miterlimit="8" fill="#4472C4"/><path d="M8.5495 0.500053 181.451 0.500053C185.896 0.500053 189.5 4.10391 189.5 8.5495L189.5 183.371C189.5 186.756 186.756 189.5 183.371 189.5L6.62932 189.5C3.24422 189.5 0.500053 186.756 0.500053 183.371L0.500053 8.5495C0.500053 4.10391 4.10391 0.500053 8.5495 0.500053Z" stroke="#F58230" stroke-width="4.66667" stroke-miterlimit="8" fill="#FFFFFF" fill-rule="evenodd"/><g clip-path="url(#clip1)"><g clip-path="url(#clip2)"><g clip-path="url(#clip3)"><path d="M115.969 30.25 101.625 30.25 101.625 23.5 74.625 23.5 74.625 20.125C74.625 18.262 73.113 16.75 71.25 16.75 69.387 16.75 67.875 18.262 67.875 20.125L67.875 23.5 67.875 50.5 67.875 80.875C67.875 82.7414 69.387 84.25 71.25 84.25 73.113 84.25 74.625 82.7414 74.625 80.875L74.625 50.5 94.875 50.5 94.875 57.25 115.969 57.25C119.276 57.25 121.875 54.2834 121.875 50.5L121.875 37C121.875 33.2132 119.276 30.25 115.969 30.25ZM74.625 43.75 74.625 30.25 94.875 30.25 94.875 43.75 74.625 43.75ZM115.125 50.5 101.625 50.5 101.625 37 115.125 37 115.125 50.5Z"/></g></g></g><text font-family="Calibri,Calibri_MSFontService,sans-serif" font-weight="700" font-size="24" transform="translate(67.5522 126)">GOAL</text></g></svg>