<svg width="96" height="96" xmlns="http://www.w3.org/2000/svg" xmlns:xlink="http://www.w3.org/1999/xlink" overflow="hidden"><defs><clipPath id="clip0"><path d="M0 0 96 0 96 96 0 96Z" fill-rule="evenodd" clip-rule="evenodd"/></clipPath><clipPath id="clip1"><path d="M26 5 67 5 67 49 26 49Z" fill-rule="evenodd" clip-rule="evenodd"/></clipPath><clipPath id="clip2"><path d="M26 5 67 5 67 50 26 50Z" fill-rule="evenodd" clip-rule="evenodd"/></clipPath><clipPath id="clip3"><path d="M26 5 67 5 67 50 26 50Z" fill-rule="evenodd" clip-rule="evenodd"/></clipPath></defs><g clip-path="url(#clip0)"><path d="M0 0 96 0 96 96 0 96Z" fill="#313131" fill-rule="evenodd"/><text fill="#FFFFFF" font-family="Calibri,Calibri_MSFontService,sans-serif" font-weight="300" font-size="5" transform="translate(9.60011 0)">STAGE</text><rect x="26.5001" y="5.50005" width="1" height="1" stroke="#2F528F" stroke-width="1.33333" stroke-miterlimit="8" fill="#4472C4"/><path d="M4.58866 0.500053 92.4114 0.500053C94.6695 0.500053 96.5001 2.33059 96.5001 4.58866L96.5001 93.3868C96.5001 95.1062 95.1062 96.5001 93.3868 96.5001L3.61333 96.5001C1.89392 96.5001 0.500053 95.1062 0.500053 93.3868L0.500053 4.58866C0.500053 2.33059 2.33059 0.500053 4.58866 0.500053Z" stroke="#F032E6" stroke-width="4.66667" stroke-miterlimit="8" fill="#FFFFFF" fill-rule="evenodd"/><g clip-path="url(#clip1)"><g clip-path="url(#clip2)"><g clip-path="url(#clip3)"><path d="M20.5 14.9091C24.6112 14.9091 27.9545 11.5657 27.9545 7.45455 27.9545 3.34336 24.6112 0 20.5 0 16.3888 0 13.0455 3.34336 13.0455 7.45455 13.0455 11.5657 16.3888 14.9091 20.5 14.9091ZM20.5 3.72727C22.5556 3.72727 24.2273 5.39895 24.2273 7.45455 24.2273 9.51014 22.5556 11.1818 20.5 11.1818 18.4444 11.1818 16.7727 9.51014 16.7727 7.45455 16.7727 5.39895 18.4444 3.72727 20.5 3.72727Z" transform="matrix(1 0 -0 1.02651 26 5)"/><path d="M11.1818 31.6818C12.2105 31.6818 13.0455 30.8488 13.0455 29.8182L13.0455 24.2273C13.0455 22.1717 14.7171 20.5 16.7727 20.5L24.2273 20.5C26.2829 20.5 27.9545 22.1717 27.9545 24.2273L27.9545 29.8182C27.9545 30.8488 28.7876 31.6818 29.8182 31.6818 30.8488 31.6818 31.6818 30.8488 31.6818 29.8182L31.6818 24.2273C31.6818 20.1161 28.3385 16.7727 24.2273 16.7727L16.7727 16.7727C12.6615 16.7727 9.31818 20.1161 9.31818 24.2273L9.31818 29.8182C9.31818 30.8488 10.1531 31.6818 11.1818 31.6818Z" transform="matrix(1 0 -0 1.02651 26 5)"/><path d="M35.4091 31.6818C32.9826 31.6818 30.9345 33.2454 30.163 35.4091L25.748 35.4091C24.9765 33.2454 22.9265 31.6818 20.5019 31.6818 18.0773 31.6818 16.0273 33.2454 15.2539 35.4091L10.8389 35.4091C10.0655 33.2454 8.01736 31.6818 5.59091 31.6818 2.50845 31.6818 0 34.1903 0 37.2727 0 40.3552 2.50845 42.8636 5.59091 42.8636 8.01736 42.8636 10.0655 41.3 10.8389 39.1364L15.2539 39.1364C16.0254 41.3 18.0754 42.8636 20.5 42.8636 22.9246 42.8636 24.9746 41.3 25.7461 39.1364L30.1611 39.1364C30.9326 41.3 32.9826 42.8636 35.4072 42.8636 38.4897 42.8636 40.9981 40.3552 40.9981 37.2727 40.9981 34.1903 38.4915 31.6818 35.4091 31.6818ZM5.59091 39.1364C4.56405 39.1364 3.72727 38.3015 3.72727 37.2727 3.72727 36.244 4.56405 35.4091 5.59091 35.4091 6.61777 35.4091 7.45455 36.244 7.45455 37.2727 7.45455 38.3015 6.61777 39.1364 5.59091 39.1364ZM35.4091 39.1364C34.3804 39.1364 33.5455 38.3015 33.5455 37.2727 33.5455 36.244 34.3804 35.4091 35.4091 35.4091 36.4378 35.4091 37.2727 36.244 37.2727 37.2727 37.2727 38.3015 36.4378 39.1364 35.4091 39.1364Z" transform="matrix(1 0 -0 1.02651 26 5)"/></g></g></g><text font-family="Calibri,Calibri_MSFontService,sans-serif" font-weight="700" transform="translate(10.5339 66)">USER JOURNEY <tspan x="21.5" y="15">STAGE</tspan></text></g></svg>