<svg width="96" height="96" xmlns="http://www.w3.org/2000/svg" xmlns:xlink="http://www.w3.org/1999/xlink" overflow="hidden"><defs><clipPath id="clip0"><path d="M0 0 96 0 96 96 0 96Z" fill-rule="evenodd" clip-rule="evenodd"/></clipPath><clipPath id="clip1"><path d="M26 5 67 5 67 46 26 46Z" fill-rule="evenodd" clip-rule="evenodd"/></clipPath><clipPath id="clip2"><path d="M26 5 67 5 67 46 26 46Z" fill-rule="evenodd" clip-rule="evenodd"/></clipPath><clipPath id="clip3"><path d="M26 5 67 5 67 46 26 46Z" fill-rule="evenodd" clip-rule="evenodd"/></clipPath></defs><g clip-path="url(#clip0)"><path d="M0 0 96 0 96 96 0 96Z" fill="#313131" fill-rule="evenodd"/><text fill="#FFFFFF" font-family="Calibri,Calibri_MSFontService,sans-serif" font-weight="300" font-size="5" transform="translate(9.60011 -3)">EPIC</text><rect x="26.5001" y="5.50005" width="1" height="1" stroke="#2F528F" stroke-width="1.33333" stroke-miterlimit="8" fill="#4472C4"/><path d="M4.58866 0.500053 92.4114 0.500053C94.6695 0.500053 96.5001 2.33059 96.5001 4.58866L96.5001 93.3868C96.5001 95.1062 95.1062 96.5001 93.3868 96.5001L3.61333 96.5001C1.89392 96.5001 0.500053 95.1062 0.500053 93.3868L0.500053 4.58866C0.500053 2.33059 2.33059 0.500053 4.58866 0.500053Z" stroke="#000080" stroke-width="4.66667" stroke-miterlimit="8" fill="#FFFFFF" fill-rule="evenodd"/><g clip-path="url(#clip1)"><g clip-path="url(#clip2)"><g clip-path="url(#clip3)"><path d="M60.5955 13.5417 53.335 13.5417 53.335 10.125 43.085 10.125 43.085 8.41667C43.085 7.47367 42.3197 6.70833 41.3767 6.70833 40.4337 6.70833 39.6684 7.47367 39.6684 8.41667L39.6684 10.125 39.6684 23.7917 39.6684 34.0417 34.5434 34.0417C33.8959 34.0417 33.3048 34.4072 33.0144 34.9864L29.5977 41.8197C29.1758 42.6636 29.5175 43.692 30.3614 44.1123 31.2087 44.5325 32.2303 44.1926 32.654 43.3504L35.5991 37.4583 47.1543 37.4583 50.0995 43.347C50.3984 43.9466 51.0015 44.2917 51.6284 44.2917 51.883 44.2917 52.1478 44.2336 52.3903 44.1123 53.2343 43.692 53.5742 42.6636 53.154 41.8197L49.7373 34.9864C49.4486 34.4072 48.8575 34.0417 48.21 34.0417L43.085 34.0417 43.085 23.7917 49.9184 23.7917 49.9184 27.2083 60.5955 27.2083C62.2696 27.2083 63.585 25.7084 63.585 23.7917L63.585 16.9583C63.585 15.0416 62.2696 13.5417 60.5955 13.5417ZM43.085 20.375 43.085 13.5417 49.9184 13.5417 49.9184 20.375 43.085 20.375ZM60.1684 23.7917 53.335 23.7917 53.335 16.9583 60.1684 16.9583 60.1684 23.7917Z"/></g></g></g><text font-family="Calibri,Calibri_MSFontService,sans-serif" font-weight="700" transform="translate(37.4506 66)">EPIC</text></g></svg>