<svg width="189" height="189" xmlns="http://www.w3.org/2000/svg" xmlns:xlink="http://www.w3.org/1999/xlink" overflow="hidden"><defs><clipPath id="clip0"><path d="M0 0 189 0 189 189 0 189Z" fill-rule="evenodd" clip-rule="evenodd"/></clipPath><clipPath id="clip1"><path d="M51 10 132 10 132 91 51 91Z" fill-rule="evenodd" clip-rule="evenodd"/></clipPath><clipPath id="clip2"><path d="M51 10 132 10 132 91 51 91Z" fill-rule="evenodd" clip-rule="evenodd"/></clipPath><clipPath id="clip3"><path d="M51 10 132 10 132 91 51 91Z" fill-rule="evenodd" clip-rule="evenodd"/></clipPath></defs><g clip-path="url(#clip0)"><rect x="0" y="0" width="189" height="189" fill="#313131"/><text fill="#FFFFFF" font-family="Calibri,Calibri_MSFontService,sans-serif" font-weight="300" font-size="11" transform="translate(9.60032 -5)">RECORD</text><rect x="51.5001" y="10.5001" width="1" height="1" stroke="#2F528F" stroke-width="1.33333" stroke-miterlimit="8" fill="#4472C4"/><path d="M8.5495 0.500053 181.451 0.500053C185.896 0.500053 189.5 4.10391 189.5 8.5495L189.5 183.371C189.5 186.756 186.756 189.5 183.371 189.5L6.62932 189.5C3.24422 189.5 0.500053 186.756 0.500053 183.371L0.500053 8.5495C0.500053 4.10391 4.10391 0.500053 8.5495 0.500053Z" stroke="#B74D41" stroke-width="4.66667" stroke-miterlimit="8" fill="#FFFFFF" fill-rule="evenodd"/><g clip-path="url(#clip1)"><g clip-path="url(#clip2)"><g clip-path="url(#clip3)"><path d="M84.75 84.25 64.5 84.25C62.637 84.25 61.125 82.7414 61.125 80.875L61.125 20.125C61.125 18.262 62.637 16.75 64.5 16.75L84.75 16.75C86.6164 16.75 88.125 18.262 88.125 20.125L88.125 80.875C88.125 82.7414 86.6164 84.25 84.75 84.25ZM67.875 77.5 81.375 77.5 81.375 23.5 67.875 23.5 67.875 77.5Z"/><path d="M118.5 84.25 98.25 84.25C96.3836 84.25 94.875 82.7414 94.875 80.875L94.875 20.125C94.875 18.262 96.3836 16.75 98.25 16.75L118.5 16.75C120.366 16.75 121.875 18.262 121.875 20.125L121.875 80.875C121.875 82.7414 120.366 84.25 118.5 84.25ZM101.625 77.5 115.125 77.5 115.125 23.5 101.625 23.5 101.625 77.5Z"/><path d="M71.25 50.5 78 50.5 78 57.25 71.25 57.25Z"/><path d="M71.25 64 78 64 78 70.75 71.25 70.75Z"/><path d="M105 50.5 111.75 50.5 111.75 57.25 105 57.25Z"/><path d="M105 64 111.75 64 111.75 70.75 105 70.75Z"/><path d="M111.75 33.625C111.75 35.489 110.239 37 108.375 37 106.511 37 105 35.489 105 33.625 105 31.761 106.511 30.25 108.375 30.25 110.239 30.25 111.75 31.761 111.75 33.625Z"/><path d="M78 33.625C78 35.489 76.489 37 74.625 37 72.761 37 71.25 35.489 71.25 33.625 71.25 31.761 72.761 30.25 74.625 30.25 76.489 30.25 78 31.761 78 33.625Z"/></g></g></g><text font-family="Calibri,Calibri_MSFontService,sans-serif" font-weight="700" font-size="24" transform="translate(54.5689 126)">RECORD</text></g></svg>