<svg width="96" height="96" xmlns="http://www.w3.org/2000/svg" xmlns:xlink="http://www.w3.org/1999/xlink" overflow="hidden"><defs><clipPath id="clip0"><path d="M0 0 96 0 96 96 0 96Z" fill-rule="evenodd" clip-rule="evenodd"/></clipPath><clipPath id="clip1"><path d="M26 5 67 5 67 46 26 46Z" fill-rule="evenodd" clip-rule="evenodd"/></clipPath><clipPath id="clip2"><path d="M26 5 67 5 67 46 26 46Z" fill-rule="evenodd" clip-rule="evenodd"/></clipPath><clipPath id="clip3"><path d="M26 5 67 5 67 46 26 46Z" fill-rule="evenodd" clip-rule="evenodd"/></clipPath></defs><g clip-path="url(#clip0)"><path d="M0 0 96 0 96 96 0 96Z" fill="#313131" fill-rule="evenodd"/><text fill="#FFFFFF" font-family="Calibri,Calibri_MSFontService,sans-serif" font-weight="300" font-size="5" transform="translate(9.60011 -3)">GOAL</text><rect x="26.5001" y="5.50005" width="1" height="1" stroke="#2F528F" stroke-width="1.33333" stroke-miterlimit="8" fill="#4472C4"/><path d="M4.58866 0.500053 92.4114 0.500053C94.6695 0.500053 96.5001 2.33059 96.5001 4.58866L96.5001 93.3868C96.5001 95.1062 95.1062 96.5001 93.3868 96.5001L3.61333 96.5001C1.89392 96.5001 0.500053 95.1062 0.500053 93.3868L0.500053 4.58866C0.500053 2.33059 2.33059 0.500053 4.58866 0.500053Z" stroke="#F58230" stroke-width="4.66667" stroke-miterlimit="8" fill="#FFFFFF" fill-rule="evenodd"/><g clip-path="url(#clip1)"><g clip-path="url(#clip2)"><g clip-path="url(#clip3)"><path d="M58.8854 15.25 51.625 15.25 51.625 11.8333 37.9583 11.8333 37.9583 10.125C37.9583 9.182 37.193 8.41667 36.25 8.41667 35.307 8.41667 34.5417 9.182 34.5417 10.125L34.5417 11.8333 34.5417 25.5 34.5417 40.875C34.5417 41.8197 35.307 42.5833 36.25 42.5833 37.193 42.5833 37.9583 41.8197 37.9583 40.875L37.9583 25.5 48.2083 25.5 48.2083 28.9167 58.8854 28.9167C60.5596 28.9167 61.875 27.415 61.875 25.5L61.875 18.6667C61.875 16.7499 60.5596 15.25 58.8854 15.25ZM37.9583 22.0833 37.9583 15.25 48.2083 15.25 48.2083 22.0833 37.9583 22.0833ZM58.4583 25.5 51.625 25.5 51.625 18.6667 58.4583 18.6667 58.4583 25.5Z"/></g></g></g><text font-family="Calibri,Calibri_MSFontService,sans-serif" font-weight="700" transform="translate(34.2005 66)">GOAL</text></g></svg>