<svg width="189" height="189" xmlns="http://www.w3.org/2000/svg" xmlns:xlink="http://www.w3.org/1999/xlink" overflow="hidden"><defs><clipPath id="clip0"><path d="M0 0 189 0 189 189 0 189Z" fill-rule="evenodd" clip-rule="evenodd"/></clipPath><clipPath id="clip1"><path d="M51 10 132 10 132 91 51 91Z" fill-rule="evenodd" clip-rule="evenodd"/></clipPath><clipPath id="clip2"><path d="M51 10 132 10 132 91 51 91Z" fill-rule="evenodd" clip-rule="evenodd"/></clipPath><clipPath id="clip3"><path d="M51 10 132 10 132 91 51 91Z" fill-rule="evenodd" clip-rule="evenodd"/></clipPath></defs><g clip-path="url(#clip0)"><rect x="0" y="0" width="189" height="189" fill="#313131"/><text fill="#FFFFFF" font-family="Calibri,Calibri_MSFontService,sans-serif" font-weight="300" font-size="11" transform="translate(9.60032 -5)">POSTCONDITION</text><rect x="51.5001" y="10.5001" width="1" height="1" stroke="#2F528F" stroke-width="1.33333" stroke-miterlimit="8" fill="#4472C4"/><path d="M8.5495 0.500053 181.451 0.500053C185.896 0.500053 189.5 4.10391 189.5 8.5495L189.5 183.371C189.5 186.756 186.756 189.5 183.371 189.5L6.62932 189.5C3.24422 189.5 0.500053 186.756 0.500053 183.371L0.500053 8.5495C0.500053 4.10391 4.10391 0.500053 8.5495 0.500053Z" stroke="#64A592" stroke-width="4.66667" stroke-miterlimit="8" fill="#FFFFFF" fill-rule="evenodd"/><g clip-path="url(#clip1)"><g clip-path="url(#clip2)"><g clip-path="url(#clip3)"><path d="M129.067 91 71.25 91C70.1025 91 69.0326 90.4161 68.4116 89.4509 67.7906 88.489 67.7029 87.2706 68.1787 86.2278L84.4159 50.5 68.1787 14.7723C67.7029 13.726 67.7906 12.5144 68.4116 11.5457 69.0326 10.5839 70.1025 10 71.25 10L128.773 10C130.64 10 132.148 11.512 132.148 13.375 132.148 15.238 130.64 16.75 128.773 16.75L76.4914 16.75 91.1963 49.1028C91.6012 49.9904 91.6012 51.0062 91.1963 51.8939L76.4914 84.25 129.067 84.25C130.934 84.25 132.442 85.7586 132.442 87.625 132.442 89.4914 130.934 91 129.067 91Z"/><path d="M54.375 91C53.9059 91 53.4334 90.9055 52.9811 90.6963 51.2835 89.9234 50.5342 87.9254 51.3037 86.2278L67.5409 50.5 51.3037 14.7723C50.5309 13.0746 51.2801 11.0732 52.9777 10.3038 54.6652 9.53087 56.6734 10.2801 57.4463 11.9811L74.3213 49.1061C74.7262 49.9938 74.7262 51.0096 74.3213 51.8972L57.4463 89.0222C56.8826 90.2643 55.6541 91 54.375 91Z"/><path d="M128.625 42.4 107.862 64 94.875 50.5 100.066 45.1 107.855 53.2 123.434 37Z"/></g></g></g><text font-family="Calibri,Calibri_MSFontService,sans-serif" font-weight="700" font-size="24" transform="translate(12.5222 126)">POSTCONDITION</text></g></svg>