<svg width="96" height="96" xmlns="http://www.w3.org/2000/svg" xmlns:xlink="http://www.w3.org/1999/xlink" overflow="hidden"><defs><clipPath id="clip0"><path d="M0 0 96 0 96 96 0 96Z" fill-rule="evenodd" clip-rule="evenodd"/></clipPath><clipPath id="clip1"><path d="M26 5 67 5 67 46 26 46Z" fill-rule="evenodd" clip-rule="evenodd"/></clipPath><clipPath id="clip2"><path d="M26 5 67 5 67 46 26 46Z" fill-rule="evenodd" clip-rule="evenodd"/></clipPath><clipPath id="clip3"><path d="M26 5 67 5 67 46 26 46Z" fill-rule="evenodd" clip-rule="evenodd"/></clipPath></defs><g clip-path="url(#clip0)"><path d="M0 0 96 0 96 96 0 96Z" fill="#313131" fill-rule="evenodd"/><text fill="#FFFFFF" font-family="Calibri,Calibri_MSFontService,sans-serif" font-weight="300" font-size="5" transform="translate(9.60011 0)">FUNCTION</text><rect x="26.5001" y="5.50005" width="1" height="1" stroke="#2F528F" stroke-width="1.33333" stroke-miterlimit="8" fill="#4472C4"/><path d="M4.58866 0.500053 92.4114 0.500053C94.6695 0.500053 96.5001 2.33059 96.5001 4.58866L96.5001 93.3868C96.5001 95.1062 95.1062 96.5001 93.3868 96.5001L3.61333 96.5001C1.89392 96.5001 0.500053 95.1062 0.500053 93.3868L0.500053 4.58866C0.500053 2.33059 2.33059 0.500053 4.58866 0.500053Z" stroke="#B74D41" stroke-width="4.66667" stroke-miterlimit="8" fill="#FFFFFF" fill-rule="evenodd"/><g clip-path="url(#clip1)"><g clip-path="url(#clip2)"><g clip-path="url(#clip3)"><path d="M60.1667 8.41667 32.8333 8.41667C31.8903 8.41667 31.125 9.182 31.125 10.125L31.125 25.5 31.125 27.2083 31.125 28.9167 34.5417 28.9167 34.5417 27.2083 34.5417 25.5 34.5417 11.8333 58.4583 11.8333 58.4583 25.5 58.4583 27.2083 58.4583 28.9167 61.875 28.9167 61.875 27.2083 61.875 25.5 61.875 10.125C61.875 9.182 61.1114 8.41667 60.1667 8.41667Z"/><path d="M37.9583 39.1667 41.375 39.1667 41.375 42.5833 37.9583 42.5833Z"/><path d="M44.7917 39.1667 48.2083 39.1667 48.2083 42.5833 44.7917 42.5833Z"/><path d="M51.625 39.1667 55.0417 39.1667 55.0417 42.5833 51.625 42.5833Z"/><path d="M58.4583 39.1667 61.875 39.1667 61.875 42.5833 58.4583 42.5833Z"/><path d="M31.125 39.1667 34.5417 39.1667 34.5417 42.5833 31.125 42.5833Z"/><path d="M37.9583 32.3333 41.375 32.3333 41.375 35.75 37.9583 35.75Z"/><path d="M44.7917 32.3333 48.2083 32.3333 48.2083 35.75 44.7917 35.75Z"/><path d="M51.625 32.3333 55.0417 32.3333 55.0417 35.75 51.625 35.75Z"/><path d="M58.4583 32.3333 61.875 32.3333 61.875 35.75 58.4583 35.75Z"/><path d="M31.125 32.3333 34.5417 32.3333 34.5417 35.75 31.125 35.75Z"/><path d="M37.9583 25.5 41.375 25.5 41.375 28.9167 37.9583 28.9167Z"/><path d="M44.7917 25.5 48.2083 25.5 48.2083 28.9167 44.7917 28.9167Z"/><path d="M51.625 25.5 55.0417 25.5 55.0417 28.9167 51.625 28.9167Z"/><path d="M49.9167 18.6667C49.9167 20.5536 48.387 22.0833 46.5 22.0833 44.613 22.0833 43.0833 20.5536 43.0833 18.6667 43.0833 16.7797 44.613 15.25 46.5 15.25 48.387 15.25 49.9167 16.7797 49.9167 18.6667Z"/></g></g></g><text font-family="Calibri,Calibri_MSFontService,sans-serif" font-weight="700" transform="translate(14.7839 66)">APPLICATION <tspan x="7.16667" y="15">FUNCTION</tspan></text></g></svg>