<svg width="96" height="96" xmlns="http://www.w3.org/2000/svg" xmlns:xlink="http://www.w3.org/1999/xlink" overflow="hidden"><defs><clipPath id="clip0"><path d="M0 0 96 0 96 96 0 96Z" fill-rule="evenodd" clip-rule="evenodd"/></clipPath><clipPath id="clip1"><path d="M26 5 67 5 67 46 26 46Z" fill-rule="evenodd" clip-rule="evenodd"/></clipPath><clipPath id="clip2"><path d="M26 5 67 5 67 46 26 46Z" fill-rule="evenodd" clip-rule="evenodd"/></clipPath><clipPath id="clip3"><path d="M26 5 67 5 67 46 26 46Z" fill-rule="evenodd" clip-rule="evenodd"/></clipPath></defs><g clip-path="url(#clip0)"><path d="M0 0 96 0 96 96 0 96Z" fill="#313131" fill-rule="evenodd"/><text fill="#FFFFFF" font-family="Calibri,Calibri_MSFontService,sans-serif" font-weight="300" font-size="5" transform="translate(9.60011 0)">STAGE</text><rect x="26.5001" y="5.50005" width="1" height="1" stroke="#2F528F" stroke-width="1.33333" stroke-miterlimit="8" fill="#4472C4"/><path d="M4.58866 0.500053 92.4114 0.500053C94.6695 0.500053 96.5001 2.33059 96.5001 4.58866L96.5001 93.3868C96.5001 95.1062 95.1062 96.5001 93.3868 96.5001L3.61333 96.5001C1.89392 96.5001 0.500053 95.1062 0.500053 93.3868L0.500053 4.58866C0.500053 2.33059 2.33059 0.500053 4.58866 0.500053Z" stroke="#F032E6" stroke-width="4.66667" stroke-miterlimit="8" fill="#FFFFFF" fill-rule="evenodd"/><g clip-path="url(#clip1)"><g clip-path="url(#clip2)"><g clip-path="url(#clip3)"><path d="M64.921 35.5416 61.5282 31.2708C61.2002 30.8625 60.7099 30.625 60.1906 30.625L49.9167 30.625C49.259 30.625 48.6628 31.0025 48.3792 31.5919 48.0956 32.1847 48.1725 32.8868 48.5825 33.401L51.1484 36.6042 48.5825 39.8073C48.1725 40.3215 48.0956 41.0236 48.3792 41.6164 48.6628 42.2058 49.259 42.5833 49.9167 42.5833L60.1906 42.5833C60.7116 42.5833 61.2053 42.3459 61.5282 41.9376L64.921 37.6668C65.4147 37.0449 65.4147 36.1634 64.921 35.5416Z"/><path d="M42.7348 31.2708C42.412 30.8625 41.92 30.625 41.3989 30.625L31.125 30.625C30.469 30.625 29.8694 31.0025 29.5858 31.5919 29.3005 32.1847 29.3808 32.8868 29.7925 33.401L32.355 36.6042 29.7925 39.8073C29.3825 40.3215 29.3022 41.0236 29.5858 41.6164 29.8694 42.2058 30.469 42.5833 31.125 42.5833L41.3989 42.5833C41.92 42.5833 42.412 42.3459 42.7365 41.9376L46.131 37.6668C46.6247 37.0449 46.6247 36.1634 46.131 35.5416L42.7348 31.2708ZM40.5738 39.1667 34.68 39.1667 35.8759 37.6719C36.3747 37.0483 36.3747 36.16 35.8759 35.5365L34.68 34.0417 40.5738 34.0417 42.6101 36.6042 40.5738 39.1667Z"/><path d="M56.75 16.9481C56.75 16.4902 56.5706 16.0512 56.2443 15.7283L47.718 7.19179C47.0723 6.54604 45.9277 6.54604 45.282 7.19179L36.754 15.7283C36.0792 16.4031 36.0792 17.493 36.754 18.1661L45.2803 26.7027C45.6048 27.0273 46.0405 27.2083 46.5 27.2083 46.9578 27.2083 47.3935 27.0273 47.718 26.7027L56.2443 18.1661C56.5706 17.8433 56.75 17.4042 56.75 16.9481ZM46.5 23.0434 40.4098 16.9481 46.5 10.851 52.5902 16.9481 46.5 23.0434Z"/></g></g></g><text font-family="Calibri,Calibri_MSFontService,sans-serif" font-weight="700" transform="translate(9.28383 66)">VALUE STREAM <tspan x="22.7467" y="15">STAGE</tspan></text></g></svg>