<svg width="189" height="189" xmlns="http://www.w3.org/2000/svg" xmlns:xlink="http://www.w3.org/1999/xlink" overflow="hidden"><defs><clipPath id="clip0"><path d="M0 0 189 0 189 189 0 189Z" fill-rule="evenodd" clip-rule="evenodd"/></clipPath><clipPath id="clip1"><path d="M51 10 132 10 132 91 51 91Z" fill-rule="evenodd" clip-rule="evenodd"/></clipPath><clipPath id="clip2"><path d="M51 10 132 10 132 91 51 91Z" fill-rule="evenodd" clip-rule="evenodd"/></clipPath><clipPath id="clip3"><path d="M51 10 132 10 132 91 51 91Z" fill-rule="evenodd" clip-rule="evenodd"/></clipPath></defs><g clip-path="url(#clip0)"><rect x="0" y="0" width="189" height="189" fill="#313131"/><text fill="#FFFFFF" font-family="Calibri,Calibri_MSFontService,sans-serif" font-weight="300" font-size="11" transform="translate(9.60032 0)">FUNCTION</text><rect x="51.5001" y="10.5001" width="1" height="1" stroke="#2F528F" stroke-width="1.33333" stroke-miterlimit="8" fill="#4472C4"/><path d="M8.5495 0.500053 181.451 0.500053C185.896 0.500053 189.5 4.10391 189.5 8.5495L189.5 183.371C189.5 186.756 186.756 189.5 183.371 189.5L6.62932 189.5C3.24422 189.5 0.500053 186.756 0.500053 183.371L0.500053 8.5495C0.500053 4.10391 4.10391 0.500053 8.5495 0.500053Z" stroke="#B74D41" stroke-width="4.66667" stroke-miterlimit="8" fill="#FFFFFF" fill-rule="evenodd"/><g clip-path="url(#clip1)"><g clip-path="url(#clip2)"><g clip-path="url(#clip3)"><path d="M118.5 16.75 64.5 16.75C62.637 16.75 61.125 18.262 61.125 20.125L61.125 50.5 61.125 53.875 61.125 57.25 67.875 57.25 67.875 53.875 67.875 50.5 67.875 23.5 115.125 23.5 115.125 50.5 115.125 53.875 115.125 57.25 121.875 57.25 121.875 53.875 121.875 50.5 121.875 20.125C121.875 18.262 120.366 16.75 118.5 16.75Z"/><path d="M74.625 77.5 81.375 77.5 81.375 84.25 74.625 84.25Z"/><path d="M88.125 77.5 94.875 77.5 94.875 84.25 88.125 84.25Z"/><path d="M101.625 77.5 108.375 77.5 108.375 84.25 101.625 84.25Z"/><path d="M115.125 77.5 121.875 77.5 121.875 84.25 115.125 84.25Z"/><path d="M61.125 77.5 67.875 77.5 67.875 84.25 61.125 84.25Z"/><path d="M74.625 64 81.375 64 81.375 70.75 74.625 70.75Z"/><path d="M88.125 64 94.875 64 94.875 70.75 88.125 70.75Z"/><path d="M101.625 64 108.375 64 108.375 70.75 101.625 70.75Z"/><path d="M115.125 64 121.875 64 121.875 70.75 115.125 70.75Z"/><path d="M61.125 64 67.875 64 67.875 70.75 61.125 70.75Z"/><path d="M74.625 50.5 81.375 50.5 81.375 57.25 74.625 57.25Z"/><path d="M88.125 50.5 94.875 50.5 94.875 57.25 88.125 57.25Z"/><path d="M101.625 50.5 108.375 50.5 108.375 57.25 101.625 57.25Z"/><path d="M98.25 37C98.25 40.7279 95.2279 43.75 91.5 43.75 87.7721 43.75 84.75 40.7279 84.75 37 84.75 33.2721 87.7721 30.25 91.5 30.25 95.2279 30.25 98.25 33.2721 98.25 37Z"/></g></g></g><text font-family="Calibri,Calibri_MSFontService,sans-serif" font-weight="700" font-size="24" transform="translate(29.9822 126)">APPLICATION <tspan x="13.1" y="28">FUNCTION</tspan></text></g></svg>