<svg width="96" height="96" xmlns="http://www.w3.org/2000/svg" xmlns:xlink="http://www.w3.org/1999/xlink" overflow="hidden"><defs><clipPath id="clip0"><path d="M0 0 96 0 96 96 0 96Z" fill-rule="evenodd" clip-rule="evenodd"/></clipPath><clipPath id="clip1"><path d="M26 5 67 5 67 46 26 46Z" fill-rule="evenodd" clip-rule="evenodd"/></clipPath><clipPath id="clip2"><path d="M26 5 67 5 67 46 26 46Z" fill-rule="evenodd" clip-rule="evenodd"/></clipPath><clipPath id="clip3"><path d="M26 5 67 5 67 46 26 46Z" fill-rule="evenodd" clip-rule="evenodd"/></clipPath></defs><g clip-path="url(#clip0)"><path d="M0 0 96 0 96 96 0 96Z" fill="#313131" fill-rule="evenodd"/><text fill="#FFFFFF" font-family="Calibri,Calibri_MSFontService,sans-serif" font-weight="300" font-size="5" transform="translate(9.60011 -3)">INTERACTION</text><rect x="26.5001" y="5.50005" width="1" height="1" stroke="#2F528F" stroke-width="1.33333" stroke-miterlimit="8" fill="#4472C4"/><path d="M4.58866 0.500053 92.4114 0.500053C94.6695 0.500053 96.5001 2.33059 96.5001 4.58866L96.5001 93.3868C96.5001 95.1062 95.1062 96.5001 93.3868 96.5001L3.61333 96.5001C1.89392 96.5001 0.500053 95.1062 0.500053 93.3868L0.500053 4.58866C0.500053 2.33059 2.33059 0.500053 4.58866 0.500053Z" stroke="#C76F36" stroke-width="4.66667" stroke-miterlimit="8" fill="#FFFFFF" fill-rule="evenodd"/><g clip-path="url(#clip1)"><g clip-path="url(#clip2)"><g clip-path="url(#clip3)"><path d="M31.125 23.7917C32.068 23.7917 32.8333 23.0263 32.8333 22.0833L32.8333 15.25 57.7511 15.25 55.5422 17.4589C54.8743 18.1268 54.8743 19.2065 55.5422 19.8745 55.8753 20.2076 56.3127 20.375 56.75 20.375 57.1873 20.375 57.6247 20.2076 57.9578 19.8745L63.0828 14.7495C63.7508 14.0815 63.7508 13.0018 63.0828 12.3339L57.9578 7.20887C57.2898 6.54092 56.2102 6.54092 55.5422 7.20887 54.8743 7.87683 54.8743 8.9565 55.5422 9.62446L57.7511 11.8333 31.125 11.8333C30.182 11.8333 29.4167 12.6004 29.4167 13.5417L29.4167 22.0833C29.4167 23.0263 30.182 23.7917 31.125 23.7917Z"/><path d="M61.875 25.5C60.9303 25.5 60.1667 26.2636 60.1667 27.2083L60.1667 34.0417 35.2489 34.0417 37.4578 31.8328C38.1258 31.1648 38.1258 30.0852 37.4578 29.4172 36.7898 28.7493 35.7102 28.7493 35.0422 29.4172L29.9172 34.5422C29.2493 35.2102 29.2493 36.2898 29.9172 36.9578L35.0422 42.0828C35.3753 42.4159 35.8127 42.5833 36.25 42.5833 36.6873 42.5833 37.1247 42.4159 37.4578 42.0828 38.1258 41.4148 38.1258 40.3352 37.4578 39.6672L35.2489 37.4583 61.875 37.4583C62.8197 37.4583 63.5833 36.6947 63.5833 35.75L63.5833 27.2083C63.5833 26.2636 62.8197 25.5 61.875 25.5Z"/></g></g></g><text font-family="Calibri,Calibri_MSFontService,sans-serif" font-weight="700" transform="translate(14.0339 66)">INTERACTION</text></g></svg>