<svg width="96" height="96" xmlns="http://www.w3.org/2000/svg" xmlns:xlink="http://www.w3.org/1999/xlink" overflow="hidden"><defs><clipPath id="clip0"><path d="M0 0 96 0 96 96 0 96Z" fill-rule="evenodd" clip-rule="evenodd"/></clipPath><clipPath id="clip1"><path d="M26 5 67 5 67 46 26 46Z" fill-rule="evenodd" clip-rule="evenodd"/></clipPath><clipPath id="clip2"><path d="M26 5 67 5 67 46 26 46Z" fill-rule="evenodd" clip-rule="evenodd"/></clipPath><clipPath id="clip3"><path d="M26 5 67 5 67 46 26 46Z" fill-rule="evenodd" clip-rule="evenodd"/></clipPath></defs><g clip-path="url(#clip0)"><path d="M0 0 96 0 96 96 0 96Z" fill="#313131" fill-rule="evenodd"/><text fill="#FFFFFF" font-family="Calibri,Calibri_MSFontService,sans-serif" font-weight="300" font-size="5" transform="translate(9.60011 0)">UNIT</text><rect x="26.5001" y="5.50005" width="1" height="1" stroke="#2F528F" stroke-width="1.33333" stroke-miterlimit="8" fill="#4472C4"/><path d="M4.58866 0.500053 92.4114 0.500053C94.6695 0.500053 96.5001 2.33059 96.5001 4.58866L96.5001 93.3868C96.5001 95.1062 95.1062 96.5001 93.3868 96.5001L3.61333 96.5001C1.89392 96.5001 0.500053 95.1062 0.500053 93.3868L0.500053 4.58866C0.500053 2.33059 2.33059 0.500053 4.58866 0.500053Z" stroke="#CEB023" stroke-width="4.66667" stroke-miterlimit="8" fill="#FFFFFF" fill-rule="evenodd"/><g clip-path="url(#clip1)"><g clip-path="url(#clip2)"><g clip-path="url(#clip3)"><path d="M41.375 44.2917 31.125 44.2917C30.182 44.2917 29.4167 43.528 29.4167 42.5833L29.4167 35.75C29.4167 34.8053 30.182 34.0417 31.125 34.0417L41.375 34.0417C42.318 34.0417 43.0833 34.8053 43.0833 35.75L43.0833 42.5833C43.0833 43.528 42.318 44.2917 41.375 44.2917ZM32.8333 40.875 39.6667 40.875 39.6667 37.4583 32.8333 37.4583 32.8333 40.875Z"/><path d="M51.625 18.6667 41.375 18.6667C40.432 18.6667 39.6667 17.9013 39.6667 16.9583L39.6667 10.125C39.6667 9.182 40.432 8.41667 41.375 8.41667L51.625 8.41667C52.5697 8.41667 53.3333 9.182 53.3333 10.125L53.3333 16.9583C53.3333 17.9013 52.5697 18.6667 51.625 18.6667ZM43.0833 15.25 49.9167 15.25 49.9167 11.8333 43.0833 11.8333 43.0833 15.25Z"/><path d="M61.875 34.0417 51.625 34.0417C50.6803 34.0417 49.9167 34.8053 49.9167 35.75L49.9167 42.5833C49.9167 43.528 50.6803 44.2917 51.625 44.2917L61.875 44.2917C62.8197 44.2917 63.5833 43.528 63.5833 42.5833L63.5833 35.75C63.5833 34.8053 62.8197 34.0417 61.875 34.0417Z"/><path d="M55.0417 30.625C54.097 30.625 53.3333 29.8614 53.3333 28.9167L53.3333 26.3542C53.3333 25.8758 52.9592 25.5 52.4843 25.5L40.5157 25.5C40.0476 25.5 39.6667 25.8827 39.6667 26.3542L39.6667 28.9167C39.6667 29.8614 38.9013 30.625 37.9583 30.625 37.0153 30.625 36.25 29.8614 36.25 28.9167L36.25 26.3542C36.25 24.0001 38.1633 22.0833 40.5157 22.0833L52.4843 22.0833C54.8367 22.0833 56.75 24.0001 56.75 26.3542L56.75 28.9167C56.75 29.8614 55.9864 30.625 55.0417 30.625Z"/></g></g></g><text font-family="Calibri,Calibri_MSFontService,sans-serif" font-weight="700" transform="translate(8.70053 66)">ORGANISATION <tspan x="27.1667" y="15">UNIT</tspan></text></g></svg>