<svg width="96" height="96" xmlns="http://www.w3.org/2000/svg" xmlns:xlink="http://www.w3.org/1999/xlink" overflow="hidden"><defs><clipPath id="clip0"><path d="M0 0 96 0 96 96 0 96Z" fill-rule="evenodd" clip-rule="evenodd"/></clipPath><clipPath id="clip1"><path d="M26 5 67 5 67 46 26 46Z" fill-rule="evenodd" clip-rule="evenodd"/></clipPath><clipPath id="clip2"><path d="M26 5 67 5 67 46 26 46Z" fill-rule="evenodd" clip-rule="evenodd"/></clipPath><clipPath id="clip3"><path d="M26 5 67 5 67 46 26 46Z" fill-rule="evenodd" clip-rule="evenodd"/></clipPath></defs><g clip-path="url(#clip0)"><path d="M0 0 96 0 96 96 0 96Z" fill="#313131" fill-rule="evenodd"/><text fill="#FFFFFF" font-family="Calibri,Calibri_MSFontService,sans-serif" font-weight="300" font-size="5" transform="translate(9.60011 -3)">LEGISLATION</text><rect x="26.5001" y="5.50005" width="1" height="1" stroke="#2F528F" stroke-width="1.33333" stroke-miterlimit="8" fill="#4472C4"/><path d="M4.58866 0.500053 92.4114 0.500053C94.6695 0.500053 96.5001 2.33059 96.5001 4.58866L96.5001 93.3868C96.5001 95.1062 95.1062 96.5001 93.3868 96.5001L3.61333 96.5001C1.89392 96.5001 0.500053 95.1062 0.500053 93.3868L0.500053 4.58866C0.500053 2.33059 2.33059 0.500053 4.58866 0.500053Z" stroke="#E6194B" stroke-width="4.66667" stroke-miterlimit="8" fill="#FFFFFF" fill-rule="evenodd"/><g clip-path="url(#clip1)"><g clip-path="url(#clip2)"><g clip-path="url(#clip3)"><path d="M61.875 34.0417 56.75 34.0417 56.75 8.41667C56.75 7.47367 55.9864 6.70833 55.0417 6.70833L31.125 6.70833C30.182 6.70833 29.4167 7.47367 29.4167 8.41667L29.4167 35.75C29.4167 40.4599 33.2485 44.2917 37.9583 44.2917L55.0417 44.2917C59.7515 44.2917 63.5833 40.4599 63.5833 35.75 63.5833 34.8053 62.8197 34.0417 61.875 34.0417ZM32.8333 35.75 32.8333 10.125 53.3333 10.125 53.3333 34.0417 44.7917 34.0417C43.8487 34.0417 43.0833 34.8053 43.0833 35.75 43.0833 38.5756 40.7839 40.875 37.9583 40.875 35.1328 40.875 32.8333 38.5756 32.8333 35.75ZM55.0417 40.875 44.749 40.875C45.5023 39.8773 46.0695 38.7276 46.3275 37.4583L59.8523 37.4583C59.1417 39.4417 57.2659 40.875 55.0417 40.875Z"/><path d="M37.9583 18.6667 48.2083 18.6667C49.153 18.6667 49.9167 17.9013 49.9167 16.9583 49.9167 16.0153 49.153 15.25 48.2083 15.25L37.9583 15.25C37.0153 15.25 36.25 16.0153 36.25 16.9583 36.25 17.9013 37.0153 18.6667 37.9583 18.6667Z"/><path d="M37.9583 25.5 44.7917 25.5C45.7364 25.5 46.5 24.7347 46.5 23.7917 46.5 22.8487 45.7364 22.0833 44.7917 22.0833L37.9583 22.0833C37.0153 22.0833 36.25 22.8487 36.25 23.7917 36.25 24.7347 37.0153 25.5 37.9583 25.5Z"/><path d="M48.2083 32.3333C49.153 32.3333 49.9167 31.5697 49.9167 30.625 49.9167 29.6803 49.153 28.9167 48.2083 28.9167L37.9583 28.9167C37.0153 28.9167 36.25 29.6803 36.25 30.625 36.25 31.5697 37.0153 32.3333 37.9583 32.3333L48.2083 32.3333Z"/></g></g></g><text font-family="Calibri,Calibri_MSFontService,sans-serif" font-weight="700" transform="translate(15.8672 66)">LEGISLATION</text></g></svg>