<svg width="189" height="189" xmlns="http://www.w3.org/2000/svg" xmlns:xlink="http://www.w3.org/1999/xlink" overflow="hidden"><defs><clipPath id="clip0"><path d="M0 0 189 0 189 189 0 189Z" fill-rule="evenodd" clip-rule="evenodd"/></clipPath><clipPath id="clip1"><path d="M51 10 132 10 132 91 51 91Z" fill-rule="evenodd" clip-rule="evenodd"/></clipPath><clipPath id="clip2"><path d="M51 10 132 10 132 91 51 91Z" fill-rule="evenodd" clip-rule="evenodd"/></clipPath><clipPath id="clip3"><path d="M51 10 132 10 132 91 51 91Z" fill-rule="evenodd" clip-rule="evenodd"/></clipPath></defs><g clip-path="url(#clip0)"><rect x="0" y="0" width="189" height="189" fill="#313131"/><text fill="#FFFFFF" font-family="Calibri,Calibri_MSFontService,sans-serif" font-weight="300" font-size="11" transform="translate(9.60032 -5)">INITIATIVE</text><rect x="51.5001" y="10.5001" width="1" height="1" stroke="#2F528F" stroke-width="1.33333" stroke-miterlimit="8" fill="#4472C4"/><path d="M8.5495 0.500053 181.451 0.500053C185.896 0.500053 189.5 4.10391 189.5 8.5495L189.5 183.371C189.5 186.756 186.756 189.5 183.371 189.5L6.62932 189.5C3.24422 189.5 0.500053 186.756 0.500053 183.371L0.500053 8.5495C0.500053 4.10391 4.10391 0.500053 8.5495 0.500053Z" stroke="#46F0F0" stroke-width="4.66667" stroke-miterlimit="8" fill="#FFFFFF" fill-rule="evenodd"/><g clip-path="url(#clip1)"><g clip-path="url(#clip2)"><g clip-path="url(#clip3)"><path d="M84.75 52.9705C92.1919 52.9705 98.25 47.0643 98.25 39.8013 98.25 32.5349 92.1919 26.6286 84.75 26.6286 77.3047 26.6286 71.25 32.5382 71.25 39.8013 71.25 47.0643 77.3047 52.9705 84.75 52.9705ZM84.75 33.2166C88.476 33.2166 91.5 36.1698 91.5 39.8046 91.5 43.4395 88.476 46.3926 84.75 46.3926 81.0274 46.3926 78 43.4395 78 39.8046 78 36.1698 81.0274 33.2166 84.75 33.2166Z"/><path d="M118.5 16.75C116.634 16.75 115.125 18.2249 115.125 20.044L115.125 41.8769 115.125 43.0952 115.125 43.3889C115.125 52.3596 107.653 59.6564 98.466 59.6564L84.534 59.6564C71.6246 59.6597 61.125 69.2144 61.125 80.9526 61.125 82.7718 62.637 84.25 64.5 84.25 66.363 84.25 67.875 82.7718 67.875 80.9526 67.875 72.8459 75.3473 66.2444 84.534 66.2444L98.466 66.2444C111.372 66.2444 121.878 55.9945 121.878 43.3923L121.878 43.0952 121.878 41.8769 121.878 20.044C121.875 18.2249 120.366 16.75 118.5 16.75Z"/><path d="M105 69.4371C103.134 69.4371 101.625 70.9154 101.625 72.7379L101.625 79.3225C101.625 81.1416 103.134 82.6165 105 82.6165 106.866 82.6165 108.375 81.1416 108.375 79.3225L108.375 72.7379C108.375 70.9154 106.866 69.4371 105 69.4371Z"/></g></g></g><text font-family="Calibri,Calibri_MSFontService,sans-serif" font-weight="700" font-size="24" transform="translate(43.9822 126)">INITIATIVE</text></g></svg>