<svg width="189" height="189" xmlns="http://www.w3.org/2000/svg" xmlns:xlink="http://www.w3.org/1999/xlink" overflow="hidden"><defs><clipPath id="clip0"><path d="M0 0 189 0 189 189 0 189Z" fill-rule="evenodd" clip-rule="evenodd"/></clipPath><clipPath id="clip1"><path d="M51 10 132 10 132 91 51 91Z" fill-rule="evenodd" clip-rule="evenodd"/></clipPath><clipPath id="clip2"><path d="M51 10 132 10 132 91 51 91Z" fill-rule="evenodd" clip-rule="evenodd"/></clipPath><clipPath id="clip3"><path d="M51 10 132 10 132 91 51 91Z" fill-rule="evenodd" clip-rule="evenodd"/></clipPath></defs><g clip-path="url(#clip0)"><rect x="0" y="0" width="189" height="189" fill="#313131"/><text fill="#FFFFFF" font-family="Calibri,Calibri_MSFontService,sans-serif" font-weight="300" font-size="11" transform="translate(9.60032 0)">UNIT</text><rect x="51.5001" y="10.5001" width="1" height="1" stroke="#2F528F" stroke-width="1.33333" stroke-miterlimit="8" fill="#4472C4"/><path d="M8.5495 0.500053 181.451 0.500053C185.896 0.500053 189.5 4.10391 189.5 8.5495L189.5 183.371C189.5 186.756 186.756 189.5 183.371 189.5L6.62932 189.5C3.24422 189.5 0.500053 186.756 0.500053 183.371L0.500053 8.5495C0.500053 4.10391 4.10391 0.500053 8.5495 0.500053Z" stroke="#CEB023" stroke-width="4.66667" stroke-miterlimit="8" fill="#FFFFFF" fill-rule="evenodd"/><g clip-path="url(#clip1)"><g clip-path="url(#clip2)"><g clip-path="url(#clip3)"><path d="M81.375 87.625 61.125 87.625C59.262 87.625 57.75 86.1164 57.75 84.25L57.75 70.75C57.75 68.8836 59.262 67.375 61.125 67.375L81.375 67.375C83.238 67.375 84.75 68.8836 84.75 70.75L84.75 84.25C84.75 86.1164 83.238 87.625 81.375 87.625ZM64.5 80.875 78 80.875 78 74.125 64.5 74.125 64.5 80.875Z"/><path d="M101.625 37 81.375 37C79.512 37 78 35.488 78 33.625L78 20.125C78 18.262 79.512 16.75 81.375 16.75L101.625 16.75C103.491 16.75 105 18.262 105 20.125L105 33.625C105 35.488 103.491 37 101.625 37ZM84.75 30.25 98.25 30.25 98.25 23.5 84.75 23.5 84.75 30.25Z"/><path d="M121.875 67.375 101.625 67.375C99.7586 67.375 98.25 68.8836 98.25 70.75L98.25 84.25C98.25 86.1164 99.7586 87.625 101.625 87.625L121.875 87.625C123.741 87.625 125.25 86.1164 125.25 84.25L125.25 70.75C125.25 68.8836 123.741 67.375 121.875 67.375Z"/><path d="M108.375 60.625C106.509 60.625 105 59.1164 105 57.25L105 52.1875C105 51.2425 104.261 50.5 103.323 50.5L79.6774 50.5C78.7526 50.5 78 51.256 78 52.1875L78 57.25C78 59.1164 76.488 60.625 74.625 60.625 72.762 60.625 71.25 59.1164 71.25 57.25L71.25 52.1875C71.25 47.5368 75.03 43.75 79.6774 43.75L103.323 43.75C107.97 43.75 111.75 47.5368 111.75 52.1875L111.75 57.25C111.75 59.1164 110.241 60.625 108.375 60.625Z"/></g></g></g><text font-family="Calibri,Calibri_MSFontService,sans-serif" font-weight="700" font-size="24" transform="translate(18.4689 126)">ORGANISATION <tspan x="52.0867" y="28">UNIT</tspan></text></g></svg>