<svg width="189" height="189" xmlns="http://www.w3.org/2000/svg" xmlns:xlink="http://www.w3.org/1999/xlink" overflow="hidden"><defs><clipPath id="clip0"><path d="M0 0 189 0 189 189 0 189Z" fill-rule="evenodd" clip-rule="evenodd"/></clipPath><clipPath id="clip1"><path d="M51 10 132 10 132 91 51 91Z" fill-rule="evenodd" clip-rule="evenodd"/></clipPath><clipPath id="clip2"><path d="M51 10 132 10 132 91 51 91Z" fill-rule="evenodd" clip-rule="evenodd"/></clipPath><clipPath id="clip3"><path d="M51 10 132 10 132 91 51 91Z" fill-rule="evenodd" clip-rule="evenodd"/></clipPath></defs><g clip-path="url(#clip0)"><rect x="0" y="0" width="189" height="189" fill="#313131"/><text fill="#FFFFFF" font-family="Calibri,Calibri_MSFontService,sans-serif" font-weight="300" font-size="11" transform="translate(9.60032 -5)">SCOPE INCREMENT</text><rect x="51.5001" y="10.5001" width="1" height="1" stroke="#2F528F" stroke-width="1.33333" stroke-miterlimit="8" fill="#4472C4"/><path d="M8.5495 0.500053 181.451 0.500053C185.896 0.500053 189.5 4.10391 189.5 8.5495L189.5 183.371C189.5 186.756 186.756 189.5 183.371 189.5L6.62932 189.5C3.24422 189.5 0.500053 186.756 0.500053 183.371L0.500053 8.5495C0.500053 4.10391 4.10391 0.500053 8.5495 0.500053Z" stroke="#000080" stroke-width="4.66667" stroke-miterlimit="8" fill="#FFFFFF" fill-rule="evenodd"/><g clip-path="url(#clip1)"><g clip-path="url(#clip2)"><g clip-path="url(#clip3)"><path d="M128.365 65.2892C128.713 64.4691 128.713 63.5309 128.365 62.7108 128.193 62.2956 127.947 61.921 127.633 61.6105L117.511 51.4889C116.191 50.1693 114.059 50.1693 112.739 51.4889 111.419 52.8085 111.419 54.9415 112.739 56.2611L117.103 60.625 71.25 60.625C69.387 60.625 67.875 62.1336 67.875 64 67.875 65.8664 69.387 67.375 71.25 67.375L117.103 67.375 112.739 71.7389C111.419 73.0585 111.419 75.1915 112.739 76.5111 113.397 77.1693 114.261 77.5 115.125 77.5 115.989 77.5 116.853 77.1693 117.511 76.5111L127.633 66.3895C127.947 66.079 128.193 65.7044 128.365 65.2892Z"/><path d="M84.75 77.5 61.125 77.5 61.125 23.5 94.875 23.5 94.875 44.425C94.875 46.288 96.3836 47.8 98.25 47.8 100.116 47.8 101.625 46.288 101.625 44.425L101.625 20.125C101.625 18.262 100.116 16.75 98.25 16.75L57.75 16.75C55.887 16.75 54.375 18.262 54.375 20.125L54.375 80.875C54.375 82.7414 55.887 84.25 57.75 84.25L84.75 84.25C86.6164 84.25 88.125 82.7414 88.125 80.875 88.125 79.0086 86.6164 77.5 84.75 77.5Z"/></g></g></g><text font-family="Calibri,Calibri_MSFontService,sans-serif" font-weight="700" font-size="24" transform="translate(63.3089 126)">SCOPE <tspan x="-27.5" y="28">INCREMENT</tspan></text></g></svg>