<svg width="96" height="96" xmlns="http://www.w3.org/2000/svg" xmlns:xlink="http://www.w3.org/1999/xlink" overflow="hidden"><defs><clipPath id="clip0"><path d="M0 0 96 0 96 96 0 96Z" fill-rule="evenodd" clip-rule="evenodd"/></clipPath><clipPath id="clip1"><path d="M26 5 67 5 67 46 26 46Z" fill-rule="evenodd" clip-rule="evenodd"/></clipPath><clipPath id="clip2"><path d="M26 5 67 5 67 46 26 46Z" fill-rule="evenodd" clip-rule="evenodd"/></clipPath><clipPath id="clip3"><path d="M26 5 67 5 67 46 26 46Z" fill-rule="evenodd" clip-rule="evenodd"/></clipPath></defs><g clip-path="url(#clip0)"><path d="M0 0 96 0 96 96 0 96Z" fill="#313131" fill-rule="evenodd"/><text fill="#FFFFFF" font-family="Calibri,Calibri_MSFontService,sans-serif" font-weight="300" font-size="5" transform="translate(9.60011 -3)">APPLICATION</text><rect x="26.5001" y="5.50005" width="1" height="1" stroke="#2F528F" stroke-width="1.33333" stroke-miterlimit="8" fill="#4472C4"/><path d="M4.58866 0.500053 92.4114 0.500053C94.6695 0.500053 96.5001 2.33059 96.5001 4.58866L96.5001 93.3868C96.5001 95.1062 95.1062 96.5001 93.3868 96.5001L3.61333 96.5001C1.89392 96.5001 0.500053 95.1062 0.500053 93.3868L0.500053 4.58866C0.500053 2.33059 2.33059 0.500053 4.58866 0.500053Z" stroke="#B74D41" stroke-width="4.66667" stroke-miterlimit="8" fill="#FFFFFF" fill-rule="evenodd"/><g clip-path="url(#clip1)"><g clip-path="url(#clip2)"><g clip-path="url(#clip3)"><path d="M46.8212 36.0934C46.3838 36.0934 45.9465 35.926 45.6134 35.5928L43.2661 33.2473 40.4593 33.2473C39.5163 33.2473 38.751 32.4837 38.751 31.539L38.751 28.7322 37.0717 27.0512C36.4055 26.3832 36.4055 25.3035 37.0717 24.6356L38.751 22.9563 38.751 19.4593C38.751 18.5163 39.5163 17.751 40.4593 17.751L43.9563 17.751 45.6134 16.0939C46.2813 15.426 47.361 15.426 48.029 16.0939L49.6878 17.751 52.5407 17.751C53.4854 17.751 54.249 18.5163 54.249 19.4593L54.249 22.3123 56.5706 24.6356C56.8918 24.9568 57.0712 25.3907 57.0712 25.8434 57.0712 26.2961 56.8935 26.7317 56.5706 27.0529L54.249 29.3728 54.249 31.539C54.249 32.4837 53.4854 33.2473 52.5407 33.2473L50.3745 33.2473 48.029 35.5928C47.6958 35.9277 47.2585 36.0934 46.8212 36.0934ZM42.1677 29.8306 43.9734 29.8306C44.4261 29.8306 44.8617 30.01 45.1812 30.3312L46.8212 31.9695 48.4577 30.3312C48.7789 30.01 49.2111 29.8306 49.6655 29.8306L50.8306 29.8306 50.8306 28.6655C50.8306 28.2111 51.01 27.7772 51.3312 27.4578L52.9455 25.8434 51.3312 24.2273C51.01 23.9061 50.8306 23.4722 50.8306 23.0195L50.8306 21.1677 48.9788 21.1677C48.5244 21.1677 48.0905 20.9883 47.771 20.6671L46.8212 19.7173 45.8713 20.6671C45.5502 20.9883 45.118 21.1677 44.6635 21.1677L42.1677 21.1677 42.1677 23.6635C42.1677 24.1163 41.9883 24.5519 41.6671 24.8713L40.6951 25.8451 41.6688 26.8171C41.9883 27.1383 42.1677 27.5722 42.1677 28.0249L42.1677 29.8306Z"/><path d="M60.1667 35.75C59.222 35.75 58.4583 34.9864 58.4583 34.0417L58.4583 11.8333 34.5417 11.8333 34.5417 34.0417C34.5417 34.9864 33.7763 35.75 32.8333 35.75 31.8903 35.75 31.125 34.9864 31.125 34.0417L31.125 10.125C31.125 9.182 31.8903 8.41667 32.8333 8.41667L60.1667 8.41667C61.1114 8.41667 61.875 9.182 61.875 10.125L61.875 34.0417C61.875 34.9864 61.1114 35.75 60.1667 35.75Z"/><path d="M37.9583 39.1667 41.375 39.1667 41.375 42.5833 37.9583 42.5833Z"/><path d="M44.7917 39.1667 48.2083 39.1667 48.2083 42.5833 44.7917 42.5833Z"/><path d="M51.625 39.1667 55.0417 39.1667 55.0417 42.5833 51.625 42.5833Z"/><path d="M58.4583 39.1667 61.875 39.1667 61.875 42.5833 58.4583 42.5833Z"/><path d="M31.125 39.1667 34.5417 39.1667 34.5417 42.5833 31.125 42.5833Z"/><path d="M48.087 25.3787C48.087 26.3222 47.3222 27.087 46.3787 27.087 45.4352 27.087 44.6704 26.3222 44.6704 25.3787 44.6704 24.4352 45.4352 23.6704 46.3787 23.6704 47.3222 23.6704 48.087 24.4352 48.087 25.3787Z"/></g></g></g><text font-family="Calibri,Calibri_MSFontService,sans-serif" font-weight="700" transform="translate(14.7839 66)">APPLICATION</text></g></svg>