<svg width="96" height="96" xmlns="http://www.w3.org/2000/svg" xmlns:xlink="http://www.w3.org/1999/xlink" overflow="hidden"><defs><clipPath id="clip0"><path d="M0 0 96 0 96 96 0 96Z" fill-rule="evenodd" clip-rule="evenodd"/></clipPath><clipPath id="clip1"><path d="M26 5 67 5 67 46 26 46Z" fill-rule="evenodd" clip-rule="evenodd"/></clipPath><clipPath id="clip2"><path d="M26 5 67 5 67 46 26 46Z" fill-rule="evenodd" clip-rule="evenodd"/></clipPath><clipPath id="clip3"><path d="M26 5 67 5 67 46 26 46Z" fill-rule="evenodd" clip-rule="evenodd"/></clipPath></defs><g clip-path="url(#clip0)"><path d="M0 0 96 0 96 96 0 96Z" fill="#313131" fill-rule="evenodd"/><text fill="#FFFFFF" font-family="Calibri,Calibri_MSFontService,sans-serif" font-weight="300" font-size="5" transform="translate(9.60011 -3)">SCENARIO</text><rect x="26.5001" y="5.50005" width="1" height="1" stroke="#2F528F" stroke-width="1.33333" stroke-miterlimit="8" fill="#4472C4"/><path d="M4.58866 0.500053 92.4114 0.500053C94.6695 0.500053 96.5001 2.33059 96.5001 4.58866L96.5001 93.3868C96.5001 95.1062 95.1062 96.5001 93.3868 96.5001L3.61333 96.5001C1.89392 96.5001 0.500053 95.1062 0.500053 93.3868L0.500053 4.58866C0.500053 2.33059 2.33059 0.500053 4.58866 0.500053Z" stroke="#FABEBE" stroke-width="4.66667" stroke-miterlimit="8" fill="#FFFFFF" fill-rule="evenodd"/><g clip-path="url(#clip1)"><g clip-path="url(#clip2)"><g clip-path="url(#clip3)"><path d="M65.2917 10.125 63.5833 10.125 63.5833 8.41667C63.5833 7.47367 62.8197 6.70833 61.875 6.70833L31.125 6.70833C30.182 6.70833 29.4167 7.47367 29.4167 8.41667L29.4167 10.125 27.7083 10.125C26.7653 10.125 26 10.8903 26 11.8333 26 12.7763 26.7653 13.5417 27.7083 13.5417L29.4167 13.5417 29.4167 15.25C29.4167 16.193 30.182 16.9583 31.125 16.9583L32.8333 16.9583 32.8333 42.5833C32.8333 43.528 33.5987 44.2917 34.5417 44.2917L58.4583 44.2917C59.403 44.2917 60.1667 43.528 60.1667 42.5833L60.1667 16.9583 61.875 16.9583C62.8197 16.9583 63.5833 16.193 63.5833 15.25L63.5833 13.5417 65.2917 13.5417C66.2364 13.5417 67 12.7763 67 11.8333 67 10.8903 66.2364 10.125 65.2917 10.125ZM56.75 40.875 36.25 40.875 36.25 16.9583 56.75 16.9583 56.75 40.875ZM60.1667 13.5417 58.4583 13.5417 34.5417 13.5417 32.8333 13.5417 32.8333 10.125 60.1667 10.125 60.1667 13.5417Z"/><path d="M41.375 23.7917 51.625 23.7917C52.5697 23.7917 53.3333 23.0263 53.3333 22.0833 53.3333 21.1403 52.5697 20.375 51.625 20.375L41.375 20.375C40.432 20.375 39.6667 21.1403 39.6667 22.0833 39.6667 23.0263 40.432 23.7917 41.375 23.7917Z"/><path d="M41.375 30.625 48.2083 30.625C49.153 30.625 49.9167 29.8614 49.9167 28.9167 49.9167 27.972 49.153 27.2083 48.2083 27.2083L41.375 27.2083C40.432 27.2083 39.6667 27.972 39.6667 28.9167 39.6667 29.8614 40.432 30.625 41.375 30.625Z"/><path d="M41.375 37.4583 51.625 37.4583C52.5697 37.4583 53.3333 36.6947 53.3333 35.75 53.3333 34.8053 52.5697 34.0417 51.625 34.0417L41.375 34.0417C40.432 34.0417 39.6667 34.8053 39.6667 35.75 39.6667 36.6947 40.432 37.4583 41.375 37.4583Z"/></g></g></g><text font-family="Calibri,Calibri_MSFontService,sans-serif" font-weight="700" transform="translate(22.7005 66)">SCENARIO</text></g></svg>