<svg width="96" height="96" xmlns="http://www.w3.org/2000/svg" xmlns:xlink="http://www.w3.org/1999/xlink" overflow="hidden"><defs><clipPath id="clip0"><path d="M0 0 96 0 96 96 0 96Z" fill-rule="evenodd" clip-rule="evenodd"/></clipPath><clipPath id="clip1"><path d="M26 5 67 5 67 46 26 46Z" fill-rule="evenodd" clip-rule="evenodd"/></clipPath><clipPath id="clip2"><path d="M26 5 67 5 67 46 26 46Z" fill-rule="evenodd" clip-rule="evenodd"/></clipPath><clipPath id="clip3"><path d="M26 5 67 5 67 46 26 46Z" fill-rule="evenodd" clip-rule="evenodd"/></clipPath></defs><g clip-path="url(#clip0)"><path d="M0 0 96 0 96 96 0 96Z" fill="#313131" fill-rule="evenodd"/><text fill="#FFFFFF" font-family="Calibri,Calibri_MSFontService,sans-serif" font-weight="300" font-size="5" transform="translate(9.60011 0)">INCREMENT</text><rect x="26.5001" y="5.50005" width="1" height="1" stroke="#2F528F" stroke-width="1.33333" stroke-miterlimit="8" fill="#4472C4"/><path d="M4.58866 0.500053 92.4114 0.500053C94.6695 0.500053 96.5001 2.33059 96.5001 4.58866L96.5001 93.3868C96.5001 95.1062 95.1062 96.5001 93.3868 96.5001L3.61333 96.5001C1.89392 96.5001 0.500053 95.1062 0.500053 93.3868L0.500053 4.58866C0.500053 2.33059 2.33059 0.500053 4.58866 0.500053Z" stroke="#000080" stroke-width="4.66667" stroke-miterlimit="8" fill="#FFFFFF" fill-rule="evenodd"/><g clip-path="url(#clip1)"><g clip-path="url(#clip2)"><g clip-path="url(#clip3)"><path d="M65.1601 32.9859C65.3361 32.5708 65.3361 32.0959 65.1601 31.6807 65.073 31.4706 64.9483 31.281 64.7894 31.1238L59.6661 26.0005C58.9982 25.3326 57.9185 25.3326 57.2505 26.0005 56.5826 26.6685 56.5826 27.7482 57.2505 28.4161L59.4594 30.625 36.25 30.625C35.307 30.625 34.5417 31.3886 34.5417 32.3333 34.5417 33.278 35.307 34.0417 36.25 34.0417L59.4594 34.0417 57.2505 36.2505C56.5826 36.9185 56.5826 37.9982 57.2505 38.6661 57.5837 38.9993 58.021 39.1667 58.4583 39.1667 58.8957 39.1667 59.333 38.9993 59.6661 38.6661L64.7894 33.5428C64.9483 33.3857 65.073 33.196 65.1601 32.9859Z"/><path d="M43.0833 39.1667 31.125 39.1667 31.125 11.8333 48.2083 11.8333 48.2083 22.425C48.2083 23.368 48.972 24.1333 49.9167 24.1333 50.8614 24.1333 51.625 23.368 51.625 22.425L51.625 10.125C51.625 9.182 50.8614 8.41667 49.9167 8.41667L29.4167 8.41667C28.4737 8.41667 27.7083 9.182 27.7083 10.125L27.7083 40.875C27.7083 41.8197 28.4737 42.5833 29.4167 42.5833L43.0833 42.5833C44.028 42.5833 44.7917 41.8197 44.7917 40.875 44.7917 39.9303 44.028 39.1667 43.0833 39.1667Z"/></g></g></g><text font-family="Calibri,Calibri_MSFontService,sans-serif" font-weight="700" transform="translate(32.1205 66)">SCOPE <tspan x="-13.92" y="15">INCREMENT</tspan></text></g></svg>