<svg width="189" height="189" xmlns="http://www.w3.org/2000/svg" xmlns:xlink="http://www.w3.org/1999/xlink" overflow="hidden"><defs><clipPath id="clip0"><path d="M0 0 189 0 189 189 0 189Z" fill-rule="evenodd" clip-rule="evenodd"/></clipPath><clipPath id="clip1"><path d="M51 10 132 10 132 91 51 91Z" fill-rule="evenodd" clip-rule="evenodd"/></clipPath><clipPath id="clip2"><path d="M51 10 132 10 132 91 51 91Z" fill-rule="evenodd" clip-rule="evenodd"/></clipPath><clipPath id="clip3"><path d="M51 10 132 10 132 91 51 91Z" fill-rule="evenodd" clip-rule="evenodd"/></clipPath></defs><g clip-path="url(#clip0)"><rect x="0" y="0" width="189" height="189" fill="#313131"/><text fill="#FFFFFF" font-family="Calibri,Calibri_MSFontService,sans-serif" font-weight="300" font-size="11" transform="translate(9.60032 -5)">SYSTEM</text><rect x="51.5001" y="10.5001" width="1" height="1" stroke="#2F528F" stroke-width="1.33333" stroke-miterlimit="8" fill="#4472C4"/><path d="M8.5495 0.500053 181.451 0.500053C185.896 0.500053 189.5 4.10391 189.5 8.5495L189.5 183.371C189.5 186.756 186.756 189.5 183.371 189.5L6.62932 189.5C3.24422 189.5 0.500053 186.756 0.500053 183.371L0.500053 8.5495C0.500053 4.10391 4.10391 0.500053 8.5495 0.500053Z" stroke="#B74D41" stroke-width="4.66667" stroke-miterlimit="8" fill="#FFFFFF" fill-rule="evenodd"/><g clip-path="url(#clip1)"><g clip-path="url(#clip2)"><g clip-path="url(#clip3)"><path d="M125.25 53.875C127.116 53.875 128.625 52.3664 128.625 50.5 128.625 48.637 127.116 47.125 125.25 47.125L111.75 47.125 111.75 40.375 125.25 40.375C127.116 40.375 128.625 38.863 128.625 37 128.625 35.137 127.116 33.625 125.25 33.625L111.75 33.625C111.75 31.762 110.241 30.25 108.375 30.25L108.375 20.125C108.375 18.262 106.866 16.75 105 16.75 103.134 16.75 101.625 18.262 101.625 20.125L101.625 30.25 94.875 30.25 94.875 20.125C94.875 18.262 93.3664 16.75 91.5 16.75 89.637 16.75 88.125 18.262 88.125 20.125L88.125 30.25 81.375 30.25 81.375 20.125C81.375 18.262 79.863 16.75 78 16.75 76.137 16.75 74.625 18.262 74.625 20.125L74.625 30.25C72.762 30.25 71.25 31.762 71.25 33.625L57.75 33.625C55.887 33.625 54.375 35.137 54.375 37 54.375 38.863 55.887 40.375 57.75 40.375L71.25 40.375 71.25 47.125 57.75 47.125C55.887 47.125 54.375 48.637 54.375 50.5 54.375 52.3664 55.887 53.875 57.75 53.875L71.25 53.875 71.25 60.625 57.75 60.625C55.887 60.625 54.375 62.1336 54.375 64 54.375 65.8664 55.887 67.375 57.75 67.375L71.25 67.375C71.25 69.2414 72.762 70.75 74.625 70.75L74.625 80.875C74.625 82.7414 76.137 84.25 78 84.25 79.863 84.25 81.375 82.7414 81.375 80.875L81.375 70.75 88.125 70.75 88.125 80.875C88.125 82.7414 89.637 84.25 91.5 84.25 93.3664 84.25 94.875 82.7414 94.875 80.875L94.875 70.75 101.625 70.75 101.625 80.875C101.625 82.7414 103.134 84.25 105 84.25 106.866 84.25 108.375 82.7414 108.375 80.875L108.375 70.75C110.241 70.75 111.75 69.2414 111.75 67.375L125.25 67.375C127.116 67.375 128.625 65.8664 128.625 64 128.625 62.1336 127.116 60.625 125.25 60.625L111.75 60.625 111.75 53.875 125.25 53.875ZM78 64 78 37 105 37 105 64 78 64Z"/></g></g></g><text font-family="Calibri,Calibri_MSFontService,sans-serif" font-weight="700" font-size="24" transform="translate(56.3222 126)">SYSTEM</text></g></svg>