<svg width="96" height="96" xmlns="http://www.w3.org/2000/svg" xmlns:xlink="http://www.w3.org/1999/xlink" overflow="hidden"><defs><clipPath id="clip0"><path d="M0 0 96 0 96 96 0 96Z" fill-rule="evenodd" clip-rule="evenodd"/></clipPath><clipPath id="clip1"><path d="M26 5 67 5 67 46 26 46Z" fill-rule="evenodd" clip-rule="evenodd"/></clipPath><clipPath id="clip2"><path d="M26 5 67 5 67 46 26 46Z" fill-rule="evenodd" clip-rule="evenodd"/></clipPath><clipPath id="clip3"><path d="M26 5 67 5 67 46 26 46Z" fill-rule="evenodd" clip-rule="evenodd"/></clipPath></defs><g clip-path="url(#clip0)"><path d="M0 0 96 0 96 96 0 96Z" fill="#313131" fill-rule="evenodd"/><text fill="#FFFFFF" font-family="Calibri,Calibri_MSFontService,sans-serif" font-weight="300" font-size="5" transform="translate(9.60011 -3)">ENHANCEMENT</text><rect x="26.5001" y="5.50005" width="1" height="1" stroke="#2F528F" stroke-width="1.33333" stroke-miterlimit="8" fill="#4472C4"/><path d="M4.58866 0.500053 92.4114 0.500053C94.6695 0.500053 96.5001 2.33059 96.5001 4.58866L96.5001 93.3868C96.5001 95.1062 95.1062 96.5001 93.3868 96.5001L3.61333 96.5001C1.89392 96.5001 0.500053 95.1062 0.500053 93.3868L0.500053 4.58866C0.500053 2.33059 2.33059 0.500053 4.58866 0.500053Z" stroke="#000080" stroke-width="4.66667" stroke-miterlimit="8" fill="#FFFFFF" fill-rule="evenodd"/><g clip-path="url(#clip1)"><g clip-path="url(#clip2)"><g clip-path="url(#clip3)"><path d="M53.5708 13.9295C52.9028 13.2718 51.8351 13.2718 51.1689 13.9295L28.2157 36.5956C27.8911 36.9185 27.7083 37.3541 27.7083 37.812 27.7083 38.2698 27.8911 38.7054 28.2157 39.0283L33.0486 43.7997C33.3817 44.1277 33.8156 44.2917 34.2495 44.2917 34.6835 44.2917 35.1174 44.1277 35.4505 43.7997L58.402 21.1318C58.7248 20.8106 58.9093 20.3733 58.9093 19.9172 58.9093 19.461 58.7283 19.0237 58.402 18.7025L53.5708 13.9295ZM49.9474 24.6817 47.5455 22.3105 52.3698 17.546 54.77 19.9172 49.9474 24.6817Z"/><path d="M60.1667 11.7701 61.875 11.7701 61.875 10.0823 63.5833 10.0823 63.5833 8.39617 61.875 8.39617 61.875 6.70833 60.1667 6.70833 60.1667 8.39617 58.4583 8.39617 58.4583 10.0823 60.1667 10.0823Z"/><path d="M48.2083 11.7701 49.9167 11.7701 49.9167 10.0823 51.625 10.0823 51.625 8.39617 49.9167 8.39617 49.9167 6.70833 48.2083 6.70833 48.2083 8.39617 46.5 8.39617 46.5 10.0823 48.2083 10.0823Z"/><path d="M60.1667 15.1441 61.875 15.1441 61.875 16.8319 60.1667 16.8319Z"/><path d="M63.5833 11.7701 65.2917 11.7701 65.2917 13.4563 63.5833 13.4563Z"/><path d="M43.0833 13.4563 44.7917 13.4563 44.7917 15.1441 43.0833 15.1441Z"/><path d="M55.0417 10.0823 56.75 10.0823 56.75 11.7701 55.0417 11.7701Z"/><path d="M63.5833 20.2059 61.875 20.2059 61.875 21.892 60.1667 21.892 60.1667 23.5798 61.875 23.5798 61.875 25.2677 63.5833 25.2677 63.5833 23.5798 65.2917 23.5798 65.2917 21.892 63.5833 21.892Z"/></g></g></g><text font-family="Calibri,Calibri_MSFontService,sans-serif" font-weight="700" transform="translate(8.9505 66)">ENHANCEMENT</text></g></svg>