<svg width="96" height="96" xmlns="http://www.w3.org/2000/svg" xmlns:xlink="http://www.w3.org/1999/xlink" overflow="hidden"><defs><clipPath id="clip0"><path d="M0 0 96 0 96 96 0 96Z" fill-rule="evenodd" clip-rule="evenodd"/></clipPath><clipPath id="clip1"><path d="M26 5 67 5 67 46 26 46Z" fill-rule="evenodd" clip-rule="evenodd"/></clipPath><clipPath id="clip2"><path d="M26 5 67 5 67 46 26 46Z" fill-rule="evenodd" clip-rule="evenodd"/></clipPath><clipPath id="clip3"><path d="M26 5 67 5 67 46 26 46Z" fill-rule="evenodd" clip-rule="evenodd"/></clipPath></defs><g clip-path="url(#clip0)"><path d="M0 0 96 0 96 96 0 96Z" fill="#313131" fill-rule="evenodd"/><text fill="#FFFFFF" font-family="Calibri,Calibri_MSFontService,sans-serif" font-weight="300" font-size="5" transform="translate(9.60011 -3)">EMPLOYEE</text><rect x="26.5001" y="5.50005" width="1" height="1" stroke="#2F528F" stroke-width="1.33333" stroke-miterlimit="8" fill="#4472C4"/><path d="M4.58866 0.500053 92.4114 0.500053C94.6695 0.500053 96.5001 2.33059 96.5001 4.58866L96.5001 93.3868C96.5001 95.1062 95.1062 96.5001 93.3868 96.5001L3.61333 96.5001C1.89392 96.5001 0.500053 95.1062 0.500053 93.3868L0.500053 4.58866C0.500053 2.33059 2.33059 0.500053 4.58866 0.500053Z" stroke="#B74D41" stroke-width="4.66667" stroke-miterlimit="8" fill="#FFFFFF" fill-rule="evenodd"/><g clip-path="url(#clip1)"><g clip-path="url(#clip2)"><g clip-path="url(#clip3)"><path d="M46.5 23.7917C41.7901 23.7917 37.9583 19.9599 37.9583 15.25 37.9583 10.5401 41.7901 6.70833 46.5 6.70833 51.2099 6.70833 55.0417 10.5401 55.0417 15.25 55.0417 19.9599 51.2099 23.7917 46.5 23.7917ZM46.5 10.125C43.6744 10.125 41.375 12.4244 41.375 15.25 41.375 18.0756 43.6744 20.375 46.5 20.375 49.3256 20.375 51.625 18.0756 51.625 15.25 51.625 12.4244 49.3256 10.125 46.5 10.125Z"/><path d="M61.875 46C60.9303 46 60.1667 45.2364 60.1667 44.2917L60.1667 36.6042C60.1667 33.3071 57.488 30.625 54.1943 30.625L38.8057 30.625C35.512 30.625 32.8333 33.3071 32.8333 36.6042L32.8333 44.2917C32.8333 45.2364 32.068 46 31.125 46 30.182 46 29.4167 45.2364 29.4167 44.2917L29.4167 36.6042C29.4167 31.4245 33.6277 27.2083 38.8057 27.2083L54.1943 27.2083C59.3706 27.2083 63.5833 31.4245 63.5833 36.6042L63.5833 44.2917C63.5833 45.2364 62.8197 46 61.875 46Z"/><path d="M55.0417 46 44.7917 46C43.8487 46 43.0833 45.2364 43.0833 44.2917L43.0833 37.4583C43.0833 36.5136 43.8487 35.75 44.7917 35.75L55.0417 35.75C55.9864 35.75 56.75 36.5136 56.75 37.4583L56.75 44.2917C56.75 45.2364 55.9864 46 55.0417 46ZM46.5 42.5833 53.3333 42.5833 53.3333 39.1667 46.5 39.1667 46.5 42.5833Z"/><path d="M49.9167 39.1667C48.972 39.1667 48.2083 38.403 48.2083 37.4583L48.2083 34.0417C48.2083 33.097 48.972 32.3333 49.9167 32.3333 50.8614 32.3333 51.625 33.097 51.625 34.0417L51.625 37.4583C51.625 38.403 50.8614 39.1667 49.9167 39.1667Z"/></g></g></g><text font-family="Calibri,Calibri_MSFontService,sans-serif" font-weight="700" transform="translate(21.4506 66)">EMPLOYEE</text></g></svg>