<svg width="96" height="96" xmlns="http://www.w3.org/2000/svg" xmlns:xlink="http://www.w3.org/1999/xlink" overflow="hidden"><defs><clipPath id="clip0"><path d="M0 0 96 0 96 96 0 96Z" fill-rule="evenodd" clip-rule="evenodd"/></clipPath><clipPath id="clip1"><path d="M26 5 67 5 67 46 26 46Z" fill-rule="evenodd" clip-rule="evenodd"/></clipPath><clipPath id="clip2"><path d="M26 5 67 5 67 46 26 46Z" fill-rule="evenodd" clip-rule="evenodd"/></clipPath><clipPath id="clip3"><path d="M26 5 67 5 67 46 26 46Z" fill-rule="evenodd" clip-rule="evenodd"/></clipPath></defs><g clip-path="url(#clip0)"><path d="M0 0 96 0 96 96 0 96Z" fill="#313131" fill-rule="evenodd"/><text fill="#FFFFFF" font-family="Calibri,Calibri_MSFontService,sans-serif" font-weight="300" font-size="5" transform="translate(9.60011 -3)">ROLE</text><rect x="26.5001" y="5.50005" width="1" height="1" stroke="#2F528F" stroke-width="1.33333" stroke-miterlimit="8" fill="#4472C4"/><path d="M4.58866 0.500053 92.4114 0.500053C94.6695 0.500053 96.5001 2.33059 96.5001 4.58866L96.5001 93.3868C96.5001 95.1062 95.1062 96.5001 93.3868 96.5001L3.61333 96.5001C1.89392 96.5001 0.500053 95.1062 0.500053 93.3868L0.500053 4.58866C0.500053 2.33059 2.33059 0.500053 4.58866 0.500053Z" stroke="#CEB023" stroke-width="4.66667" stroke-miterlimit="8" fill="#FFFFFF" fill-rule="evenodd"/><g clip-path="url(#clip1)"><g clip-path="url(#clip2)"><g clip-path="url(#clip3)"><path d="M46.5 22.0833C43.6744 22.0833 41.375 24.3827 41.375 27.2083 41.375 30.0339 43.6744 32.3333 46.5 32.3333 49.3256 32.3333 51.625 30.0339 51.625 27.2083 51.625 24.3827 49.3256 22.0833 46.5 22.0833ZM46.5 28.9167C45.557 28.9167 44.7917 28.1513 44.7917 27.2083 44.7917 26.267 45.557 25.5 46.5 25.5 47.443 25.5 48.2083 26.267 48.2083 27.2083 48.2083 28.1513 47.443 28.9167 46.5 28.9167Z"/><path d="M61.875 13.5417 51.625 13.5417 51.625 10.125C51.625 9.182 50.8614 8.41667 49.9167 8.41667L43.0833 8.41667C42.1403 8.41667 41.375 9.182 41.375 10.125L41.375 13.5417 31.125 13.5417C30.182 13.5417 29.4167 14.307 29.4167 15.25L29.4167 42.5833C29.4167 43.528 30.182 44.2917 31.125 44.2917L61.875 44.2917C62.8197 44.2917 63.5833 43.528 63.5833 42.5833L63.5833 15.25C63.5833 14.307 62.8197 13.5417 61.875 13.5417ZM44.7917 11.8333 48.2083 11.8333 48.2083 16.9583 44.7917 16.9583 44.7917 11.8333ZM51.625 40.875 41.375 40.875 41.375 39.1667C41.375 38.2083 42.1232 37.4583 43.0799 37.4583L49.9201 37.4583C50.8768 37.4583 51.625 38.2083 51.625 39.1667L51.625 40.875ZM60.1667 40.875 55.0417 40.875 55.0417 39.1667C55.0417 36.3411 52.7422 34.0417 49.9201 34.0417L43.0799 34.0417C40.256 34.0417 37.9583 36.3411 37.9583 39.1667L37.9583 40.875 32.8333 40.875 32.8333 16.9583 41.375 16.9583 41.375 18.6667C41.375 19.6097 42.1403 20.375 43.0833 20.375L49.9167 20.375C50.8614 20.375 51.625 19.6097 51.625 18.6667L51.625 16.9583 60.1667 16.9583 60.1667 40.875Z"/></g></g></g><text font-family="Calibri,Calibri_MSFontService,sans-serif" font-weight="700" transform="translate(35.3672 66)">ROLE</text></g></svg>