<svg width="96" height="96" xmlns="http://www.w3.org/2000/svg" xmlns:xlink="http://www.w3.org/1999/xlink" overflow="hidden"><defs><clipPath id="clip0"><path d="M0 0 96 0 96 96 0 96Z" fill-rule="evenodd" clip-rule="evenodd"/></clipPath><clipPath id="clip1"><path d="M26 5 67 5 67 46 26 46Z" fill-rule="evenodd" clip-rule="evenodd"/></clipPath><clipPath id="clip2"><path d="M26 5 67 5 67 46 26 46Z" fill-rule="evenodd" clip-rule="evenodd"/></clipPath><clipPath id="clip3"><path d="M26 5 67 5 67 46 26 46Z" fill-rule="evenodd" clip-rule="evenodd"/></clipPath></defs><g clip-path="url(#clip0)"><path d="M0 0 96 0 96 96 0 96Z" fill="#313131" fill-rule="evenodd"/><text fill="#FFFFFF" font-family="Calibri,Calibri_MSFontService,sans-serif" font-weight="300" font-size="5" transform="translate(9.60011 -3)">PERSONA</text><rect x="26.5001" y="5.50005" width="1" height="1" stroke="#2F528F" stroke-width="1.33333" stroke-miterlimit="8" fill="#4472C4"/><path d="M4.58866 0.500053 92.4114 0.500053C94.6695 0.500053 96.5001 2.33059 96.5001 4.58866L96.5001 93.3868C96.5001 95.1062 95.1062 96.5001 93.3868 96.5001L3.61333 96.5001C1.89392 96.5001 0.500053 95.1062 0.500053 93.3868L0.500053 4.58866C0.500053 2.33059 2.33059 0.500053 4.58866 0.500053Z" stroke="#B74D41" stroke-width="4.66667" stroke-miterlimit="8" fill="#FFFFFF" fill-rule="evenodd"/><g clip-path="url(#clip1)"><g clip-path="url(#clip2)"><g clip-path="url(#clip3)"><path d="M39.6667 27.2083C43.425 27.2083 46.5 24.1333 46.5 20.375 46.5 16.6167 43.425 13.5417 39.6667 13.5417 35.9083 13.5417 32.8333 16.6167 32.8333 20.375 32.8333 24.1333 35.9083 27.2083 39.6667 27.2083ZM39.6667 16.9583C41.5458 16.9583 43.0833 18.4958 43.0833 20.375 43.0833 22.2542 41.5458 23.7917 39.6667 23.7917 37.7875 23.7917 36.25 22.2542 36.25 20.375 36.25 18.4958 37.7875 16.9583 39.6667 16.9583Z"/><path d="M63.5833 8.5875 56.75 8.41667C56.75 8.41667 56.75 8.41667 56.75 8.41667 55.8958 8.41667 55.2125 9.1 55.2125 9.95417 55.2125 10.8083 55.8958 11.6625 56.75 11.6625L59.6542 11.6625 50.2583 21.0583C49.575 21.7417 49.575 22.7667 50.2583 23.45 50.6 23.7917 51.1125 23.9625 51.4542 23.9625 51.7958 23.9625 52.3083 23.7917 52.65 23.45L61.875 14.225 61.875 16.9583C61.875 17.8125 62.5583 18.4958 63.4125 18.4958 64.2667 18.4958 65.2917 17.8125 65.2917 16.9583L65.2917 10.125C65.2917 9.27083 64.6083 8.5875 63.5833 8.5875Z"/><path d="M44.7917 29.7708 34.7125 29.7708C30.7833 29.7708 27.7083 32.8458 27.7083 36.6042L27.7083 41.7292C27.7083 42.5833 28.3917 43.4375 29.4167 43.4375 30.4417 43.4375 31.125 42.7542 31.125 41.7292L31.125 36.6042C31.125 34.725 32.6625 33.1875 34.7125 33.1875L37.4458 33.1875 39.6667 37.4583 41.8875 33.1875 44.7917 33.1875C46.8417 33.1875 48.3792 34.725 48.3792 36.6042L48.3792 41.7292C48.3792 42.5833 49.0625 43.4375 50.0875 43.4375 51.1125 43.4375 51.7958 42.7542 51.7958 41.7292L51.7958 36.6042C51.7958 32.8458 48.7208 29.7708 44.7917 29.7708Z"/></g></g></g><text font-family="Calibri,Calibri_MSFontService,sans-serif" font-weight="700" transform="translate(24.2838 66)">PERSONA</text></g></svg>