<svg width="96" height="96" xmlns="http://www.w3.org/2000/svg" xmlns:xlink="http://www.w3.org/1999/xlink" overflow="hidden"><defs><clipPath id="clip0"><path d="M0 0 96 0 96 96 0 96Z" fill-rule="evenodd" clip-rule="evenodd"/></clipPath><clipPath id="clip1"><path d="M26 5 67 5 67 44 26 44Z" fill-rule="evenodd" clip-rule="evenodd"/></clipPath><clipPath id="clip2"><path d="M26 5 67 5 67 45 26 45Z" fill-rule="evenodd" clip-rule="evenodd"/></clipPath><clipPath id="clip3"><path d="M26 5 67 5 67 45 26 45Z" fill-rule="evenodd" clip-rule="evenodd"/></clipPath></defs><g clip-path="url(#clip0)"><path d="M0 0 96 0 96 96 0 96Z" fill="#313131" fill-rule="evenodd"/><text fill="#FFFFFF" font-family="Calibri,Calibri_MSFontService,sans-serif" font-weight="300" font-size="5" transform="translate(9.60011 0)">DRIVER</text><rect x="26.5001" y="5.50005" width="1" height="1" stroke="#2F528F" stroke-width="1.33333" stroke-miterlimit="8" fill="#4472C4"/><path d="M4.58866 0.500053 92.4114 0.500053C94.6695 0.500053 96.5001 2.33059 96.5001 4.58866L96.5001 93.3868C96.5001 95.1062 95.1062 96.5001 93.3868 96.5001L3.61333 96.5001C1.89392 96.5001 0.500053 95.1062 0.500053 93.3868L0.500053 4.58866C0.500053 2.33059 2.33059 0.500053 4.58866 0.500053Z" stroke="#000080" stroke-width="4.66667" stroke-miterlimit="8" fill="#FFFFFF" fill-rule="evenodd"/><g clip-path="url(#clip1)"><g clip-path="url(#clip2)"><g clip-path="url(#clip3)"><path d="M28.8244 11.8696C28.8244 12.806 28.0652 13.5652 27.1287 13.5652 26.1923 13.5652 25.4331 12.806 25.4331 11.8696 25.4331 10.9331 26.1923 10.1739 27.1287 10.1739 28.0652 10.1739 28.8244 10.9331 28.8244 11.8696Z" transform="matrix(1.00748 0 -0 1 26 5)"/><path d="M37.3043 35.6087 23.7391 35.6087 23.7391 20.7616 25.9859 23.1948C26.308 23.5424 26.7574 23.7391 27.2322 23.7391 27.2373 23.7391 27.2423 23.7391 27.2474 23.7391 27.7256 23.734 28.18 23.5289 28.4971 23.1711L31.2305 20.1037 33.8927 20.1037C34.8304 20.1037 35.5883 19.344 35.5883 18.408L35.5883 15.5898 38.4913 12.7445C38.8169 12.4257 39 11.9883 39 11.5321 39 11.076 38.8169 10.6402 38.4896 10.3214L35.5883 7.48291 35.5883 5.01235C35.5883 4.07635 34.8304 3.3167 33.8927 3.3167L31.183 3.3167 28.4446 0.512087C28.1275 0.189913 27.6985 0.00508696 27.2457 0.00169565 26.8286 0.0101739 26.3606 0.174652 26.0401 0.491739L23.1779 3.31839 20.3343 3.31839C19.3983 3.31839 18.6386 4.07804 18.6386 5.01404L18.6386 7.4897 15.9188 10.1739 5.08696 10.1739C4.15096 10.1739 3.3913 10.9336 3.3913 11.8696L3.3913 35.6087 1.69565 35.6087C0.759652 35.6087 0 36.3667 0 37.3043 0 38.242 0.759652 39 1.69565 39L5.08696 39 22.0435 39 37.3043 39C38.242 39 39 38.242 39 37.3043 39 36.3667 38.242 35.6087 37.3043 35.6087ZM21.5246 9.4007C21.8468 9.08191 22.0299 8.64783 22.0299 8.19509L22.0299 6.708 23.8731 6.708C24.319 6.708 24.748 6.53165 25.0634 6.21796L27.2101 4.10009 29.2568 6.19591C29.5756 6.52317 30.013 6.7063 30.4709 6.7063L32.1987 6.7063 32.1987 8.19339C32.1987 8.64952 32.3819 9.0853 32.7091 9.40578L34.883 11.5321 32.7057 13.667C32.3819 13.9857 32.197 14.4215 32.197 14.8777L32.197 16.714 30.4709 16.714C29.9876 16.714 29.5264 16.9209 29.2059 17.2804L27.2084 19.5203 25.1194 17.2583C24.7989 16.9107 24.3479 16.714 23.8748 16.714L23.7391 16.714 23.7391 11.8696C23.7391 11.8255 23.7171 11.7899 23.7137 11.7458L23.7137 11.4796C23.7137 11.0268 23.534 10.5927 23.2101 10.274 22.8879 9.95517 22.4504 9.80765 21.9994 9.78391L21.1278 9.79239 21.5246 9.4007ZM6.78261 35.6087 6.78261 13.5652 20.3478 13.5652 20.3478 35.6087 6.78261 35.6087Z" transform="matrix(1.00748 0 -0 1 26 5)"/><path d="M8.47826 16.9565 11.8696 16.9565 11.8696 22.0435 8.47826 22.0435Z" transform="matrix(1.00748 0 -0 1 26 5)"/><path d="M8.47826 25.4348 11.8696 25.4348 11.8696 30.5217 8.47826 30.5217Z" transform="matrix(1.00748 0 -0 1 26 5)"/><path d="M15.2609 16.9565 18.6522 16.9565 18.6522 22.0435 15.2609 22.0435Z" transform="matrix(1.00748 0 -0 1 26 5)"/><path d="M15.2609 25.4348 18.6522 25.4348 18.6522 30.5217 15.2609 30.5217Z" transform="matrix(1.00748 0 -0 1 26 5)"/></g></g></g><text font-family="Calibri,Calibri_MSFontService,sans-serif" font-weight="700" transform="translate(4.11722 66)">BUSINESS DRIVER</text></g></svg>