<svg width="96" height="96" xmlns="http://www.w3.org/2000/svg" xmlns:xlink="http://www.w3.org/1999/xlink" overflow="hidden"><defs><clipPath id="clip0"><path d="M0 0 96 0 96 96 0 96Z" fill-rule="evenodd" clip-rule="evenodd"/></clipPath><clipPath id="clip1"><path d="M26 5 67 5 67 46 26 46Z" fill-rule="evenodd" clip-rule="evenodd"/></clipPath><clipPath id="clip2"><path d="M26 5 67 5 67 46 26 46Z" fill-rule="evenodd" clip-rule="evenodd"/></clipPath><clipPath id="clip3"><path d="M26 5 67 5 67 46 26 46Z" fill-rule="evenodd" clip-rule="evenodd"/></clipPath></defs><g clip-path="url(#clip0)"><path d="M0 0 96 0 96 96 0 96Z" fill="#313131" fill-rule="evenodd"/><text fill="#FFFFFF" font-family="Calibri,Calibri_MSFontService,sans-serif" font-weight="300" font-size="5" transform="translate(9.60011 -3)">PROJECT TASK</text><rect x="26.5001" y="5.50005" width="1" height="1" stroke="#2F528F" stroke-width="1.33333" stroke-miterlimit="8" fill="#4472C4"/><path d="M4.58866 0.500053 92.4114 0.500053C94.6695 0.500053 96.5001 2.33059 96.5001 4.58866L96.5001 93.3868C96.5001 95.1062 95.1062 96.5001 93.3868 96.5001L3.61333 96.5001C1.89392 96.5001 0.500053 95.1062 0.500053 93.3868L0.500053 4.58866C0.500053 2.33059 2.33059 0.500053 4.58866 0.500053Z" stroke="#46F0F0" stroke-width="4.66667" stroke-miterlimit="8" fill="#FFFFFF" fill-rule="evenodd"/><g clip-path="url(#clip1)"><g clip-path="url(#clip2)"><g clip-path="url(#clip3)"><path d="M46.6298 31.3049 46.6333 31.3083 55.0417 22.5617 52.9404 20.375 46.6298 26.935 43.4762 23.655 41.375 25.8417 46.6298 31.3083Z"/><path d="M60.1667 8.41667 34.5417 8.41667C33.5987 8.41667 32.8333 9.182 32.8333 10.125L32.8333 16.9583 31.125 16.9583C30.182 16.9583 29.4167 17.7237 29.4167 18.6667 29.4167 19.6097 30.182 20.375 31.125 20.375L32.8333 20.375 32.8333 23.7917 31.125 23.7917C30.182 23.7917 29.4167 24.557 29.4167 25.5 29.4167 26.4447 30.182 27.2083 31.125 27.2083L32.8333 27.2083 32.8333 30.625 31.125 30.625C30.182 30.625 29.4167 31.3886 29.4167 32.3333 29.4167 33.278 30.182 34.0417 31.125 34.0417L32.8333 34.0417 32.8333 40.875C32.8333 41.8197 33.5987 42.5833 34.5417 42.5833L60.1667 42.5833C61.1114 42.5833 61.875 41.8197 61.875 40.875L61.875 10.125C61.875 9.182 61.1114 8.41667 60.1667 8.41667ZM58.4583 39.1667 36.25 39.1667 36.25 34.0417 37.9583 34.0417C38.9013 34.0417 39.6667 33.278 39.6667 32.3333 39.6667 31.3886 38.9013 30.625 37.9583 30.625L36.25 30.625 36.25 27.2083 37.9583 27.2083C38.9013 27.2083 39.6667 26.4447 39.6667 25.5 39.6667 24.557 38.9013 23.7917 37.9583 23.7917L36.25 23.7917 36.25 20.375 37.9583 20.375C38.9013 20.375 39.6667 19.6097 39.6667 18.6667 39.6667 17.7237 38.9013 16.9583 37.9583 16.9583L36.25 16.9583 36.25 11.8333 58.4583 11.8333 58.4583 39.1667Z"/></g></g></g><text font-family="Calibri,Calibri_MSFontService,sans-serif" font-weight="700" transform="translate(12.4506 66)">PROJECT TASK</text></g></svg>