<svg width="96" height="96" xmlns="http://www.w3.org/2000/svg" xmlns:xlink="http://www.w3.org/1999/xlink" overflow="hidden"><defs><clipPath id="clip0"><path d="M0 0 96 0 96 96 0 96Z" fill-rule="evenodd" clip-rule="evenodd"/></clipPath><clipPath id="clip1"><path d="M26 5 67 5 67 46 26 46Z" fill-rule="evenodd" clip-rule="evenodd"/></clipPath><clipPath id="clip2"><path d="M26 5 67 5 67 46 26 46Z" fill-rule="evenodd" clip-rule="evenodd"/></clipPath><clipPath id="clip3"><path d="M26 5 67 5 67 46 26 46Z" fill-rule="evenodd" clip-rule="evenodd"/></clipPath></defs><g clip-path="url(#clip0)"><path d="M0 0 96 0 96 96 0 96Z" fill="#313131" fill-rule="evenodd"/><text fill="#FFFFFF" font-family="Calibri,Calibri_MSFontService,sans-serif" font-weight="300" font-size="5" transform="translate(9.60011 -3)">PROCESS</text><rect x="26.5001" y="5.50005" width="1" height="1" stroke="#2F528F" stroke-width="1.33333" stroke-miterlimit="8" fill="#4472C4"/><path d="M4.58866 0.500053 92.4114 0.500053C94.6695 0.500053 96.5001 2.33059 96.5001 4.58866L96.5001 93.3868C96.5001 95.1062 95.1062 96.5001 93.3868 96.5001L3.61333 96.5001C1.89392 96.5001 0.500053 95.1062 0.500053 93.3868L0.500053 4.58866C0.500053 2.33059 2.33059 0.500053 4.58866 0.500053Z" stroke="#377692" stroke-width="4.66667" stroke-miterlimit="8" fill="#FFFFFF" fill-rule="evenodd"/><g clip-path="url(#clip1)"><g clip-path="url(#clip2)"><g clip-path="url(#clip3)"><path d="M61.875 20.375 58.8273 20.375 58.8273 11.8812C58.8273 10.9382 58.0654 10.1728 57.119 10.1728L43.1807 10.1728C43.1465 10.1728 43.1175 10.1899 43.0833 10.1916L43.0833 8.41667C43.0833 7.47367 42.318 6.70833 41.375 6.70833L31.125 6.70833C30.182 6.70833 29.4167 7.47367 29.4167 8.41667L29.4167 15.25C29.4167 16.193 30.182 16.9583 31.125 16.9583L41.375 16.9583C42.318 16.9583 43.0833 16.193 43.0833 15.25L43.0833 13.5707C43.1175 13.5724 43.1465 13.5895 43.1807 13.5895L55.4107 13.5895 55.4107 20.375 51.625 20.375C50.6803 20.375 49.9167 21.1403 49.9167 22.0833L49.9167 23.7917 37.9583 23.7917C37.0153 23.7917 36.25 24.557 36.25 25.5L36.25 34.0417 32.8333 34.0417C31.8903 34.0417 31.125 34.8053 31.125 35.75L31.125 42.5833C31.125 43.528 31.8903 44.2917 32.8333 44.2917L43.0833 44.2917C44.028 44.2917 44.7917 43.528 44.7917 42.5833L44.7917 40.875 56.75 40.875C57.6947 40.875 58.4583 40.1114 58.4583 39.1667L58.4583 30.625 61.875 30.625C62.8197 30.625 63.5833 29.8614 63.5833 28.9167L63.5833 22.0833C63.5833 21.1403 62.8197 20.375 61.875 20.375ZM39.6667 13.5417 32.8333 13.5417 32.8333 10.125 39.6667 10.125 39.6667 13.5417ZM41.375 40.875 34.5417 40.875 34.5417 37.4583 41.375 37.4583 41.375 40.875ZM55.0417 37.4583 44.7917 37.4583 44.7917 35.75C44.7917 34.8053 44.028 34.0417 43.0833 34.0417L39.6667 34.0417 39.6667 27.2083 49.9167 27.2083 49.9167 28.9167C49.9167 29.8614 50.6803 30.625 51.625 30.625L55.0417 30.625 55.0417 37.4583ZM60.1667 27.2083 53.3333 27.2083 53.3333 23.7917 60.1667 23.7917 60.1667 27.2083Z"/></g></g></g><text font-family="Calibri,Calibri_MSFontService,sans-serif" font-weight="700" transform="translate(25.8672 66)">PROCESS</text></g></svg>