<svg width="189" height="189" xmlns="http://www.w3.org/2000/svg" xmlns:xlink="http://www.w3.org/1999/xlink" overflow="hidden"><defs><clipPath id="clip0"><path d="M0 0 189 0 189 189 0 189Z" fill-rule="evenodd" clip-rule="evenodd"/></clipPath><clipPath id="clip1"><path d="M51 10 132 10 132 91 51 91Z" fill-rule="evenodd" clip-rule="evenodd"/></clipPath><clipPath id="clip2"><path d="M51 10 132 10 132 91 51 91Z" fill-rule="evenodd" clip-rule="evenodd"/></clipPath><clipPath id="clip3"><path d="M51 10 132 10 132 91 51 91Z" fill-rule="evenodd" clip-rule="evenodd"/></clipPath></defs><g clip-path="url(#clip0)"><rect x="0" y="0" width="189" height="189" fill="#313131"/><text fill="#FFFFFF" font-family="Calibri,Calibri_MSFontService,sans-serif" font-weight="300" font-size="11" transform="translate(9.60032 -5)">ENHANCEMENT</text><rect x="51.5001" y="10.5001" width="1" height="1" stroke="#2F528F" stroke-width="1.33333" stroke-miterlimit="8" fill="#4472C4"/><path d="M8.5495 0.500053 181.451 0.500053C185.896 0.500053 189.5 4.10391 189.5 8.5495L189.5 183.371C189.5 186.756 186.756 189.5 183.371 189.5L6.62932 189.5C3.24422 189.5 0.500053 186.756 0.500053 183.371L0.500053 8.5495C0.500053 4.10391 4.10391 0.500053 8.5495 0.500053Z" stroke="#000080" stroke-width="4.66667" stroke-miterlimit="8" fill="#FFFFFF" fill-rule="evenodd"/><g clip-path="url(#clip1)"><g clip-path="url(#clip2)"><g clip-path="url(#clip3)"><path d="M105.469 27.6411C104.15 26.3417 102.04 26.3417 100.724 27.6411L55.3774 72.4206C54.7361 73.0585 54.375 73.9191 54.375 74.8236 54.375 75.7281 54.7361 76.5887 55.3774 77.2266L64.9252 86.653C65.5834 87.301 66.4406 87.625 67.2979 87.625 68.1551 87.625 69.0124 87.301 69.6705 86.653L115.014 41.8701C115.651 41.2356 116.016 40.3716 116.016 39.4705 116.016 38.5694 115.658 37.7054 115.014 37.0709L105.469 27.6411ZM98.3107 48.8834 93.5655 44.1989 103.096 34.786 107.838 39.4705 98.3107 48.8834Z"/><path d="M118.5 23.3751 121.875 23.3751 121.875 20.0406 125.25 20.0406 125.25 16.7095 121.875 16.7095 121.875 13.375 118.5 13.375 118.5 16.7095 115.125 16.7095 115.125 20.0406 118.5 20.0406Z"/><path d="M94.875 23.3751 98.25 23.3751 98.25 20.0406 101.625 20.0406 101.625 16.7095 98.25 16.7095 98.25 13.375 94.875 13.375 94.875 16.7095 91.5 16.7095 91.5 20.0406 94.875 20.0406Z"/><path d="M118.5 30.0408 121.875 30.0408 121.875 33.3753 118.5 33.3753Z"/><path d="M125.25 23.3751 128.625 23.3751 128.625 26.7063 125.25 26.7063Z"/><path d="M84.75 26.7062 88.125 26.7062 88.125 30.0407 84.75 30.0407Z"/><path d="M108.375 20.0406 111.75 20.0406 111.75 23.3751 108.375 23.3751Z"/><path d="M125.25 40.0409 121.875 40.0409 121.875 43.372 118.5 43.372 118.5 46.7065 121.875 46.7065 121.875 50.041 125.25 50.041 125.25 46.7065 128.625 46.7065 128.625 43.372 125.25 43.372Z"/></g></g></g><text font-family="Calibri,Calibri_MSFontService,sans-serif" font-weight="700" font-size="24" transform="translate(17.5589 126)">ENHANCEMENT</text></g></svg>