<svg width="189" height="189" xmlns="http://www.w3.org/2000/svg" xmlns:xlink="http://www.w3.org/1999/xlink" overflow="hidden"><defs><clipPath id="clip0"><path d="M0 0 189 0 189 189 0 189Z" fill-rule="evenodd" clip-rule="evenodd"/></clipPath><clipPath id="clip1"><path d="M51 10 132 10 132 91 51 91Z" fill-rule="evenodd" clip-rule="evenodd"/></clipPath><clipPath id="clip2"><path d="M51 10 132 10 132 91 51 91Z" fill-rule="evenodd" clip-rule="evenodd"/></clipPath><clipPath id="clip3"><path d="M51 10 132 10 132 91 51 91Z" fill-rule="evenodd" clip-rule="evenodd"/></clipPath></defs><g clip-path="url(#clip0)"><rect x="0" y="0" width="189" height="189" fill="#313131"/><text fill="#FFFFFF" font-family="Calibri,Calibri_MSFontService,sans-serif" font-weight="300" font-size="11" transform="translate(9.60032 -5)">VALUE ITEM</text><rect x="51.5001" y="10.5001" width="1" height="1" stroke="#2F528F" stroke-width="1.33333" stroke-miterlimit="8" fill="#4472C4"/><path d="M8.5495 0.500053 181.451 0.500053C185.896 0.500053 189.5 4.10391 189.5 8.5495L189.5 183.371C189.5 186.756 186.756 189.5 183.371 189.5L6.62932 189.5C3.24422 189.5 0.500053 186.756 0.500053 183.371L0.500053 8.5495C0.500053 4.10391 4.10391 0.500053 8.5495 0.500053Z" stroke="#5AA203" stroke-width="4.66667" stroke-miterlimit="8" fill="#FFFFFF" fill-rule="evenodd"/><g clip-path="url(#clip1)"><g clip-path="url(#clip2)"><g clip-path="url(#clip3)"><path d="M121.875 40.375 113.836 40.375C116.671 37.8978 118.5 34.3034 118.5 30.25 118.5 22.8047 112.445 16.75 105 16.75 97.5547 16.75 91.5 22.8047 91.5 30.25 91.5 22.8047 85.4453 16.75 78 16.75 70.5547 16.75 64.5 22.8047 64.5 30.25 64.5 34.3034 66.3292 37.8978 69.1642 40.375L61.125 40.375C59.262 40.375 57.75 41.887 57.75 43.75L57.75 57.25C57.75 59.1164 59.262 60.625 61.125 60.625L64.5 60.625 64.5 80.875C64.5 82.7414 66.012 84.25 67.875 84.25L115.125 84.25C116.991 84.25 118.5 82.7414 118.5 80.875L118.5 60.625 121.875 60.625C123.741 60.625 125.25 59.1164 125.25 57.25L125.25 43.75C125.25 41.887 123.741 40.375 121.875 40.375ZM98.25 30.25C98.25 26.5274 101.274 23.5 105 23.5 108.726 23.5 111.75 26.5274 111.75 30.25 111.75 33.9726 108.726 37 105 37L98.25 37 98.25 30.25ZM78 23.5C81.7226 23.5 84.75 26.5274 84.75 30.25L84.75 37 78 37C74.2774 37 71.25 33.9726 71.25 30.25 71.25 26.5274 74.2774 23.5 78 23.5ZM64.5 47.125 88.125 47.125 88.125 53.875 67.875 53.875 64.5 53.875 64.5 47.125ZM71.25 60.625 88.125 60.625 88.125 77.5 71.25 77.5 71.25 60.625ZM111.75 77.5 94.875 77.5 94.875 60.625 111.75 60.625 111.75 77.5ZM118.5 53.875 115.125 53.875 94.875 53.875 94.875 47.125 118.5 47.125 118.5 53.875Z"/></g></g></g><text font-family="Calibri,Calibri_MSFontService,sans-serif" font-weight="700" font-size="24" transform="translate(35.5622 126)">VALUE ITEM</text></g></svg>