<svg width="189" height="189" xmlns="http://www.w3.org/2000/svg" xmlns:xlink="http://www.w3.org/1999/xlink" overflow="hidden"><defs><clipPath id="clip0"><path d="M0 0 189 0 189 189 0 189Z" fill-rule="evenodd" clip-rule="evenodd"/></clipPath><clipPath id="clip1"><path d="M51 10 132 10 132 97 51 97Z" fill-rule="evenodd" clip-rule="evenodd"/></clipPath><clipPath id="clip2"><path d="M51 10 132 10 132 98 51 98Z" fill-rule="evenodd" clip-rule="evenodd"/></clipPath><clipPath id="clip3"><path d="M51 10 132 10 132 98 51 98Z" fill-rule="evenodd" clip-rule="evenodd"/></clipPath></defs><g clip-path="url(#clip0)"><rect x="0" y="0" width="189" height="189" fill="#313131"/><text fill="#FFFFFF" font-family="Calibri,Calibri_MSFontService,sans-serif" font-weight="300" font-size="11" transform="translate(9.60032 0)">STAGE</text><rect x="51.5001" y="10.5001" width="1" height="1" stroke="#2F528F" stroke-width="1.33333" stroke-miterlimit="8" fill="#4472C4"/><path d="M8.5495 0.500053 181.451 0.500053C185.896 0.500053 189.5 4.10391 189.5 8.5495L189.5 183.371C189.5 186.756 186.756 189.5 183.371 189.5L6.62932 189.5C3.24422 189.5 0.500053 186.756 0.500053 183.371L0.500053 8.5495C0.500053 4.10391 4.10391 0.500053 8.5495 0.500053Z" stroke="#F032E6" stroke-width="4.66667" stroke-miterlimit="8" fill="#FFFFFF" fill-rule="evenodd"/><g clip-path="url(#clip1)"><g clip-path="url(#clip2)"><g clip-path="url(#clip3)"><path d="M40.5 29.4545C48.6221 29.4545 55.2273 22.8494 55.2273 14.7273 55.2273 6.60518 48.6221 0 40.5 0 32.3779 0 25.7727 6.60518 25.7727 14.7273 25.7727 22.8494 32.3779 29.4545 40.5 29.4545ZM40.5 7.36364C44.561 7.36364 47.8636 10.6662 47.8636 14.7273 47.8636 18.7883 44.561 22.0909 40.5 22.0909 36.439 22.0909 33.1364 18.7883 33.1364 14.7273 33.1364 10.6662 36.439 7.36364 40.5 7.36364Z" transform="matrix(1 0 -0 1.02738 51 10)"/><path d="M22.0909 62.5909C24.1233 62.5909 25.7727 60.9451 25.7727 58.9091L25.7727 47.8636C25.7727 43.8026 29.0753 40.5 33.1364 40.5L47.8636 40.5C51.9247 40.5 55.2273 43.8026 55.2273 47.8636L55.2273 58.9091C55.2273 60.9451 56.873 62.5909 58.9091 62.5909 60.9451 62.5909 62.5909 60.9451 62.5909 58.9091L62.5909 47.8636C62.5909 39.7415 55.9857 33.1364 47.8636 33.1364L33.1364 33.1364C25.0143 33.1364 18.4091 39.7415 18.4091 47.8636L18.4091 58.9091C18.4091 60.9451 20.0585 62.5909 22.0909 62.5909Z" transform="matrix(1 0 -0 1.02738 51 10)"/><path d="M69.9545 62.5909C65.1608 62.5909 61.1145 65.68 59.5902 69.9545L50.868 69.9545C49.3437 65.68 45.2937 62.5909 40.5037 62.5909 35.7136 62.5909 31.6636 65.68 30.1357 69.9545L21.4135 69.9545C19.8855 65.68 15.8392 62.5909 11.0455 62.5909 4.95573 62.5909 0 67.5466 0 73.6364 0 79.7261 4.95573 84.6818 11.0455 84.6818 15.8392 84.6818 19.8855 81.5928 21.4135 77.3182L30.1357 77.3182C31.66 81.5928 35.71 84.6818 40.5 84.6818 45.29 84.6818 49.34 81.5928 50.8643 77.3182L59.5865 77.3182C61.1108 81.5928 65.1608 84.6818 69.9509 84.6818 76.0406 84.6818 80.9963 79.7261 80.9963 73.6364 80.9963 67.5466 76.0443 62.5909 69.9545 62.5909ZM11.0455 77.3182C9.01677 77.3182 7.36364 75.6687 7.36364 73.6364 7.36364 71.604 9.01677 69.9545 11.0455 69.9545 13.0741 69.9545 14.7273 71.604 14.7273 73.6364 14.7273 75.6687 13.0741 77.3182 11.0455 77.3182ZM69.9545 77.3182C67.9222 77.3182 66.2727 75.6687 66.2727 73.6364 66.2727 71.604 67.9222 69.9545 69.9545 69.9545 71.9869 69.9545 73.6364 71.604 73.6364 73.6364 73.6364 75.6687 71.9869 77.3182 69.9545 77.3182Z" transform="matrix(1 0 -0 1.02738 51 10)"/></g></g></g><text font-family="Calibri,Calibri_MSFontService,sans-serif" font-weight="700" font-size="24" transform="translate(20.6422 126)">USER JOURNEY <tspan x="43.7733" y="28">STAGE</tspan></text></g></svg>