<svg width="96" height="96" xmlns="http://www.w3.org/2000/svg" xmlns:xlink="http://www.w3.org/1999/xlink" overflow="hidden"><defs><clipPath id="clip0"><path d="M0 0 96 0 96 96 0 96Z" fill-rule="evenodd" clip-rule="evenodd"/></clipPath><clipPath id="clip1"><path d="M26 5 67 5 67 46 26 46Z" fill-rule="evenodd" clip-rule="evenodd"/></clipPath><clipPath id="clip2"><path d="M26 5 67 5 67 46 26 46Z" fill-rule="evenodd" clip-rule="evenodd"/></clipPath><clipPath id="clip3"><path d="M26 5 67 5 67 46 26 46Z" fill-rule="evenodd" clip-rule="evenodd"/></clipPath></defs><g clip-path="url(#clip0)"><path d="M0 0 96 0 96 96 0 96Z" fill="#313131" fill-rule="evenodd"/><text fill="#FFFFFF" font-family="Calibri,Calibri_MSFontService,sans-serif" font-weight="300" font-size="5" transform="translate(9.60011 0)">OUTCOME</text><rect x="26.5001" y="5.50005" width="1" height="1" stroke="#2F528F" stroke-width="1.33333" stroke-miterlimit="8" fill="#4472C4"/><path d="M4.58866 0.500053 92.4114 0.500053C94.6695 0.500053 96.5001 2.33059 96.5001 4.58866L96.5001 93.3868C96.5001 95.1062 95.1062 96.5001 93.3868 96.5001L3.61333 96.5001C1.89392 96.5001 0.500053 95.1062 0.500053 93.3868L0.500053 4.58866C0.500053 2.33059 2.33059 0.500053 4.58866 0.500053Z" stroke="#000080" stroke-width="4.66667" stroke-miterlimit="8" fill="#FFFFFF" fill-rule="evenodd"/><g clip-path="url(#clip1)"><g clip-path="url(#clip2)"><g clip-path="url(#clip3)"><path d="M65.2917 8.41667 41.3255 8.41667C40.3825 8.41667 39.6171 9.182 39.6171 10.125L39.6171 11.8333 27.7083 11.8333C26.7653 11.8333 26 12.5987 26 13.5417L26 34.0417C26 34.9864 26.7653 35.75 27.7083 35.75L32.7684 35.75 32.7684 39.1667C32.7684 40.1114 33.5337 40.875 34.4767 40.875L39.6171 40.875 39.6171 42.5833C39.6171 43.528 40.3825 44.2917 41.3255 44.2917L65.2917 44.2917C66.2364 44.2917 67 43.528 67 42.5833L67 10.125C67 9.182 66.2364 8.41667 65.2917 8.41667ZM29.4167 32.3333 29.4167 15.25 39.6171 15.25 39.6171 16.9583 34.4767 16.9583C33.5337 16.9583 32.7684 17.7237 32.7684 18.6667L32.7684 32.3333 29.4167 32.3333ZM36.1851 37.4583 36.1851 20.375 39.6171 20.375 39.6171 37.4583 36.1851 37.4583ZM63.5833 40.875 43.0338 40.875 43.0338 39.1667 43.0338 18.6667 43.0338 11.8333 63.5833 11.8333 63.5833 40.875Z"/><path d="M46.4983 29.7708C47.0245 29.7708 47.5404 29.5265 47.8786 29.0721L51.5515 24.0616 55.2791 27.5688C55.6977 27.9617 56.2836 28.1155 56.8474 27.9873 57.4043 27.8541 57.8621 27.4492 58.0552 26.9094L61.7725 16.6884C62.0954 15.8018 61.6393 14.8212 60.7509 14.4983 59.8609 14.1772 58.8837 14.6333 58.5625 15.5199L55.7335 23.3031 52.4894 20.2503C52.1324 19.9155 51.6677 19.7498 51.1637 19.7942 50.6769 19.8386 50.2327 20.0897 49.9423 20.4843L45.1265 27.0529C44.5696 27.8148 44.7336 28.8825 45.4938 29.4394 45.7945 29.6649 46.1481 29.7708 46.4983 29.7708Z"/><path d="M46.5 36.6042 60.1667 36.6042C61.1114 36.6042 61.875 35.8405 61.875 34.8958 61.875 33.9511 61.1114 33.1875 60.1667 33.1875L46.5 33.1875C45.557 33.1875 44.7917 33.9511 44.7917 34.8958 44.7917 35.8405 45.557 36.6042 46.5 36.6042Z"/></g></g></g><text font-family="Calibri,Calibri_MSFontService,sans-serif" font-weight="700" transform="translate(24.1205 66)">BUSINESS <tspan x="-2.25333" y="15">OUTCOME</tspan></text></g></svg>