<svg width="96" height="96" xmlns="http://www.w3.org/2000/svg" xmlns:xlink="http://www.w3.org/1999/xlink" overflow="hidden"><defs><clipPath id="clip0"><path d="M0 0 96 0 96 96 0 96Z" fill-rule="evenodd" clip-rule="evenodd"/></clipPath><clipPath id="clip1"><path d="M26 5 67 5 67 46 26 46Z" fill-rule="evenodd" clip-rule="evenodd"/></clipPath><clipPath id="clip2"><path d="M26 5 67 5 67 46 26 46Z" fill-rule="evenodd" clip-rule="evenodd"/></clipPath><clipPath id="clip3"><path d="M26 5 67 5 67 46 26 46Z" fill-rule="evenodd" clip-rule="evenodd"/></clipPath></defs><g clip-path="url(#clip0)"><path d="M0 0 96 0 96 96 0 96Z" fill="#313131" fill-rule="evenodd"/><text fill="#FFFFFF" font-family="Calibri,Calibri_MSFontService,sans-serif" font-weight="300" font-size="5" transform="translate(9.60011 -3)">RESPONSIBILITY</text><rect x="26.5001" y="5.50005" width="1" height="1" stroke="#2F528F" stroke-width="1.33333" stroke-miterlimit="8" fill="#4472C4"/><path d="M4.58866 0.500053 92.4114 0.500053C94.6695 0.500053 96.5001 2.33059 96.5001 4.58866L96.5001 93.3868C96.5001 95.1062 95.1062 96.5001 93.3868 96.5001L3.61333 96.5001C1.89392 96.5001 0.500053 95.1062 0.500053 93.3868L0.500053 4.58866C0.500053 2.33059 2.33059 0.500053 4.58866 0.500053Z" stroke="#CEB023" stroke-width="4.66667" stroke-miterlimit="8" fill="#FFFFFF" fill-rule="evenodd"/><g clip-path="url(#clip1)"><g clip-path="url(#clip2)"><g clip-path="url(#clip3)"><path d="M64.3914 22.2849C63.8379 21.9894 63.158 22.0201 62.6369 22.3703L53.4444 28.4964 44.1767 20.7713C43.6198 20.3067 42.8271 20.2452 42.2035 20.6193L35.8451 24.434C35.5325 24.0513 35.0747 23.7917 34.5417 23.7917L29.4167 23.7917C28.4737 23.7917 27.7083 24.557 27.7083 25.5L27.7083 39.1667C27.7083 40.1114 28.4737 40.875 29.4167 40.875L34.5417 40.875C35.4847 40.875 36.25 40.1114 36.25 39.1667L36.25 38.9138 42.6699 37.8803 48.9327 42.2741C49.2265 42.4808 49.5699 42.5868 49.9132 42.5868 50.2737 42.5868 50.6359 42.4757 50.9382 42.2451L64.6083 31.9951C65.0388 31.6739 65.2917 31.1683 65.2917 30.6284L65.2917 23.7951C65.2917 23.1613 64.9449 22.5822 64.3914 22.2849ZM31.125 37.4583 31.125 27.2083 32.8333 27.2083 32.8333 37.4583 31.125 37.4583ZM61.875 29.7708 49.8808 38.7669 44.0673 34.6823C43.7786 34.479 43.4352 34.3714 43.085 34.3714 42.9945 34.3714 42.904 34.3782 42.8134 34.3936L36.25 35.4528 36.25 28.1753 42.921 24.1726 50.8016 30.7412 49.6912 31.8499 44.2211 28.2726C43.4318 27.7567 42.3727 27.9788 41.8568 28.768 41.3408 29.5573 41.5629 30.6165 42.3522 31.1324L48.9856 35.4681C49.0488 35.5074 49.1189 35.5279 49.1838 35.5621 49.2368 35.5894 49.2897 35.615 49.3478 35.6355 49.534 35.7022 49.7253 35.7466 49.9184 35.7466 49.9184 35.7466 49.9184 35.7466 49.9201 35.7466L49.9201 35.7466C49.9218 35.7466 49.9218 35.7466 49.9235 35.7466 50.1165 35.7449 50.3096 35.7022 50.4907 35.6355 50.5283 35.6219 50.571 35.6082 50.6085 35.5928 50.7879 35.5125 50.9553 35.4066 51.1022 35.2665 51.1091 35.2597 51.121 35.2563 51.1279 35.2495L54.4369 31.9421 61.875 26.9828 61.875 29.7708Z"/><path d="M53.3333 20.375C57.1019 20.375 60.1667 17.3102 60.1667 13.5417 60.1667 9.77308 57.1019 6.70833 53.3333 6.70833 49.5648 6.70833 46.5 9.77308 46.5 13.5417 46.5 17.3102 49.5648 20.375 53.3333 20.375ZM53.3333 10.125C55.2193 10.125 56.75 11.6574 56.75 13.5417 56.75 15.426 55.2193 16.9583 53.3333 16.9583 51.4473 16.9583 49.9167 15.426 49.9167 13.5417 49.9167 11.6574 51.4473 10.125 53.3333 10.125Z"/></g></g></g><text font-family="Calibri,Calibri_MSFontService,sans-serif" font-weight="700" transform="translate(8.45055 66)">RESPONSIBILITY</text></g></svg>