<svg width="189" height="189" xmlns="http://www.w3.org/2000/svg" xmlns:xlink="http://www.w3.org/1999/xlink" overflow="hidden"><defs><clipPath id="clip0"><path d="M0 0 189 0 189 189 0 189Z" fill-rule="evenodd" clip-rule="evenodd"/></clipPath><clipPath id="clip1"><path d="M51 10 132 10 132 91 51 91Z" fill-rule="evenodd" clip-rule="evenodd"/></clipPath><clipPath id="clip2"><path d="M51 10 132 10 132 91 51 91Z" fill-rule="evenodd" clip-rule="evenodd"/></clipPath><clipPath id="clip3"><path d="M51 10 132 10 132 91 51 91Z" fill-rule="evenodd" clip-rule="evenodd"/></clipPath></defs><g clip-path="url(#clip0)"><rect x="0" y="0" width="189" height="189" fill="#313131"/><text fill="#FFFFFF" font-family="Calibri,Calibri_MSFontService,sans-serif" font-weight="300" font-size="11" transform="translate(9.60032 -5)">VALUATION</text><rect x="51.5001" y="10.5001" width="1" height="1" stroke="#2F528F" stroke-width="1.33333" stroke-miterlimit="8" fill="#4472C4"/><path d="M8.5495 0.500053 181.451 0.500053C185.896 0.500053 189.5 4.10391 189.5 8.5495L189.5 183.371C189.5 186.756 186.756 189.5 183.371 189.5L6.62932 189.5C3.24422 189.5 0.500053 186.756 0.500053 183.371L0.500053 8.5495C0.500053 4.10391 4.10391 0.500053 8.5495 0.500053Z" stroke="#918396" stroke-width="4.66667" stroke-miterlimit="8" fill="#FFFFFF" fill-rule="evenodd"/><g clip-path="url(#clip1)"><g clip-path="url(#clip2)"><g clip-path="url(#clip3)"><path d="M105.354 70.75 77.5106 70.75C74.0157 70.75 71.1825 73.5832 71.1825 77.0781 71.1825 80.573 74.0157 83.4063 77.5106 83.4063L105.354 83.4063C108.849 83.4063 111.682 80.573 111.682 77.0781 111.682 73.5832 108.849 70.75 105.354 70.75ZM79.1981 79.6094C77.8001 79.6094 76.6669 78.4761 76.6669 77.0781 76.6669 75.6801 77.8001 74.5469 79.1981 74.5469 80.5961 74.5469 81.7294 75.6801 81.7294 77.0781 81.7294 78.4761 80.5961 79.6094 79.1981 79.6094ZM91.4325 79.6094C90.0345 79.6094 88.9012 78.4761 88.9012 77.0781 88.9012 75.6801 90.0345 74.5469 91.4325 74.5469 92.8305 74.5469 93.9637 75.6801 93.9637 77.0781 93.9637 78.4761 92.8305 79.6094 91.4325 79.6094ZM103.667 79.6094C102.269 79.6094 101.136 78.4761 101.136 77.0781 101.136 75.6801 102.269 74.5469 103.667 74.5469 105.065 74.5469 106.198 75.6801 106.198 77.0781 106.198 78.4761 105.065 79.6094 103.667 79.6094Z"/><path d="M97.2628 33.625C97.2628 34.324 96.6962 34.8906 95.9972 34.8906 95.2982 34.8906 94.7316 34.324 94.7316 33.625 94.7316 32.926 95.2982 32.3594 95.9972 32.3594 96.6962 32.3594 97.2628 32.926 97.2628 33.625Z"/><path d="M98.7647 25.1875 93.1875 25.1875 93.1875 21.3484C94.8018 20.4164 95.3548 18.3523 94.4228 16.7381 93.4908 15.1239 91.4268 14.5708 89.8125 15.5028 88.1982 16.4347 87.6452 18.4988 88.5772 20.1131 88.8734 20.6262 89.2994 21.0522 89.8125 21.3484L89.8125 25.1875 84.2353 25.1875C82.1916 25.1921 80.5359 26.8478 80.5313 28.8916L80.5313 38.3584C80.5359 40.4022 82.1916 42.0579 84.2353 42.0625L98.7647 42.0625C100.808 42.0579 102.464 40.4022 102.469 38.3584L102.469 28.8916C102.464 26.8478 100.808 25.1921 98.7647 25.1875ZM87.2813 36.1563C85.8832 36.1563 84.75 35.023 84.75 33.625 84.75 32.227 85.8832 31.0938 87.2813 31.0938 88.6793 31.0938 89.8125 32.227 89.8125 33.625 89.8125 35.023 88.6793 36.1563 87.2813 36.1563ZM95.7188 36.1563C94.3207 36.1563 93.1875 35.023 93.1875 33.625 93.1875 32.227 94.3207 31.0938 95.7188 31.0938 97.1168 31.0938 98.25 32.227 98.25 33.625 98.25 35.023 97.1168 36.1563 95.7188 36.1563Z"/><path d="M88.8253 33.625C88.8253 34.324 88.2587 34.8906 87.5597 34.8906 86.8607 34.8906 86.2941 34.324 86.2941 33.625 86.2941 32.926 86.8607 32.3594 87.5597 32.3594 88.2587 32.3594 88.8253 32.926 88.8253 33.625Z"/><path d="M113.438 59.6294 113.438 52.6009C113.438 50.5086 111.741 48.8125 109.649 48.8125L105 48.8125 105 44.5938 78 44.5938 78 49.6563 71.6634 49.6563C71.4351 49.6563 71.25 49.4711 71.25 49.2428L71.25 42.2481C74.1505 41.3915 75.8073 38.3459 74.9508 35.4455 74.7211 34.6679 74.3217 33.951 73.7813 33.3466L71.25 35.5909C71.604 35.9759 71.8051 36.477 71.8153 37 71.809 38.165 70.8594 39.1042 69.6945 39.0979 68.5295 39.0915 67.5903 38.142 67.5966 36.9771 67.5993 36.4738 67.7819 35.9883 68.1113 35.6078L65.58 33.3887C63.5914 35.6735 63.8314 39.1376 66.1161 41.1263 66.633 41.5762 67.2295 41.9252 67.875 42.1553L67.875 49.2428C67.875 51.3351 69.5711 53.0313 71.6634 53.0313L78 53.0313 78 68.2188 105 68.2188 105 52.1875 109.649 52.1875C109.877 52.1875 110.063 52.3726 110.063 52.6009L110.063 59.6294C107.181 60.5616 105.6 63.6536 106.532 66.5356 106.766 67.2568 107.146 67.9218 107.649 68.4888L110.181 66.2444C109.831 65.8616 109.639 65.3618 109.641 64.8438 109.642 63.6788 110.587 62.7351 111.752 62.7361 112.917 62.7372 113.86 63.6823 113.859 64.8473 113.859 65.3583 113.673 65.8517 113.336 66.2359L115.868 68.455C117.864 66.1833 117.641 62.7233 115.369 60.7269 114.807 60.2329 114.15 59.8594 113.438 59.6294ZM101.625 56.4063 99.2794 56.4063C99.1978 56.4208 99.1202 56.4525 99.0516 56.4991L96.4697 59.14 94.5038 54.4825 90.8334 62.0763 88.26 52.1875 86.2772 56.4063 82.2188 56.4063 82.2188 54.7188 85.2056 54.7188 88.7156 47.2516 91.3144 57.1909 94.6134 50.4409 97.0434 56.1953 97.8872 55.3516C98.2577 54.9766 98.7533 54.7513 99.2794 54.7188L101.625 54.7188Z"/></g></g></g><text font-family="Calibri,Calibri_MSFontService,sans-serif" font-weight="700" font-size="24" transform="translate(38.3856 126)">VALUATION</text></g></svg>