<svg width="96" height="96" xmlns="http://www.w3.org/2000/svg" xmlns:xlink="http://www.w3.org/1999/xlink" overflow="hidden"><defs><clipPath id="clip0"><path d="M0 0 96 0 96 96 0 96Z" fill-rule="evenodd" clip-rule="evenodd"/></clipPath><clipPath id="clip1"><path d="M26 5 67 5 67 46 26 46Z" fill-rule="evenodd" clip-rule="evenodd"/></clipPath><clipPath id="clip2"><path d="M26 5 67 5 67 46 26 46Z" fill-rule="evenodd" clip-rule="evenodd"/></clipPath><clipPath id="clip3"><path d="M26 5 67 5 67 46 26 46Z" fill-rule="evenodd" clip-rule="evenodd"/></clipPath></defs><g clip-path="url(#clip0)"><path d="M0 0 96 0 96 96 0 96Z" fill="#313131" fill-rule="evenodd"/><text fill="#FFFFFF" font-family="Calibri,Calibri_MSFontService,sans-serif" font-weight="300" font-size="5" transform="translate(9.60011 -3)">PROJECT PHASE</text><rect x="26.5001" y="5.50005" width="1" height="1" stroke="#2F528F" stroke-width="1.33333" stroke-miterlimit="8" fill="#4472C4"/><path d="M4.58866 0.500053 92.4114 0.500053C94.6695 0.500053 96.5001 2.33059 96.5001 4.58866L96.5001 93.3868C96.5001 95.1062 95.1062 96.5001 93.3868 96.5001L3.61333 96.5001C1.89392 96.5001 0.500053 95.1062 0.500053 93.3868L0.500053 4.58866C0.500053 2.33059 2.33059 0.500053 4.58866 0.500053Z" stroke="#46F0F0" stroke-width="4.66667" stroke-miterlimit="8" fill="#FFFFFF" fill-rule="evenodd"/><g clip-path="url(#clip1)"><g clip-path="url(#clip2)"><g clip-path="url(#clip3)"><path d="M65.1601 34.6943C65.3361 34.2791 65.3361 33.8042 65.1601 33.3891 65.073 33.179 64.9483 32.9893 64.7894 32.8322L59.6661 27.7089C58.9982 27.0409 57.9185 27.0409 57.2505 27.7089 56.5826 28.3768 56.5826 29.4565 57.2505 30.1245L59.4594 32.3333 41.375 32.3333C36.6651 32.3333 32.8333 28.5015 32.8333 23.7917 32.8333 19.0818 36.6651 15.25 41.375 15.25 46.0849 15.25 49.9167 19.0818 49.9167 23.7917L53.3333 23.7917C53.3333 17.1975 47.9675 11.8333 41.375 11.8333 34.7808 11.8333 29.4167 17.1975 29.4167 23.7917 29.4167 30.3841 34.7808 35.75 41.375 35.75L59.4594 35.75 57.2505 37.9589C56.5826 38.6268 56.5826 39.7065 57.2505 40.3745 57.5837 40.7076 58.021 40.875 58.4583 40.875 58.8957 40.875 59.333 40.7076 59.6661 40.3745L64.7894 35.2512C64.9483 35.094 65.073 34.9044 65.1601 34.6943Z"/></g></g></g><text font-family="Calibri,Calibri_MSFontService,sans-serif" font-weight="700" transform="translate(8.86719 66)">PROJECT PHASE</text></g></svg>