<svg width="96" height="96" xmlns="http://www.w3.org/2000/svg" xmlns:xlink="http://www.w3.org/1999/xlink" overflow="hidden"><defs><clipPath id="clip0"><path d="M0 0 96 0 96 96 0 96Z" fill-rule="evenodd" clip-rule="evenodd"/></clipPath><clipPath id="clip1"><path d="M26 5 67 5 67 46 26 46Z" fill-rule="evenodd" clip-rule="evenodd"/></clipPath><clipPath id="clip2"><path d="M26 5 67 5 67 46 26 46Z" fill-rule="evenodd" clip-rule="evenodd"/></clipPath><clipPath id="clip3"><path d="M26 5 67 5 67 46 26 46Z" fill-rule="evenodd" clip-rule="evenodd"/></clipPath></defs><g clip-path="url(#clip0)"><path d="M0 0 96 0 96 96 0 96Z" fill="#313131" fill-rule="evenodd"/><text fill="#FFFFFF" font-family="Calibri,Calibri_MSFontService,sans-serif" font-weight="300" font-size="5" transform="translate(9.60011 -3)">VALUE STREAM</text><rect x="26.5001" y="5.50005" width="1" height="1" stroke="#2F528F" stroke-width="1.33333" stroke-miterlimit="8" fill="#4472C4"/><path d="M4.58866 0.500053 92.4114 0.500053C94.6695 0.500053 96.5001 2.33059 96.5001 4.58866L96.5001 93.3868C96.5001 95.1062 95.1062 96.5001 93.3868 96.5001L3.61333 96.5001C1.89392 96.5001 0.500053 95.1062 0.500053 93.3868L0.500053 4.58866C0.500053 2.33059 2.33059 0.500053 4.58866 0.500053Z" stroke="#F032E6" stroke-width="4.66667" stroke-miterlimit="8" fill="#FFFFFF" fill-rule="evenodd"/><g clip-path="url(#clip1)"><g clip-path="url(#clip2)"><g clip-path="url(#clip3)"><path d="M58.4908 44.29 31.1267 44.29C30.4707 44.29 29.8728 43.9124 29.5875 43.323 29.3022 42.7303 29.3825 42.0281 29.7925 41.5156L32.3516 38.3108 29.7908 35.106C29.3808 34.5935 29.3005 33.8913 29.5858 33.2985 29.8728 32.7075 30.4707 32.3316 31.1267 32.3316L58.4908 32.3316C59.0135 32.3316 59.5055 32.5725 59.8267 32.9791L63.2143 37.2499C63.708 37.87 63.708 38.7515 63.2143 39.3717L59.8267 43.6425C59.5004 44.0491 59.0101 44.29 58.4908 44.29ZM34.6783 40.8733 57.664 40.8733 59.6969 38.3108 57.664 35.7483 34.6783 35.7483 35.8742 37.2448C36.373 37.8683 36.373 38.7533 35.8742 39.3768L34.6783 40.8733Z"/><path d="M46.5 28.915 46.5 28.915C46.0456 28.915 45.6117 28.7373 45.2922 28.4144L36.7523 19.8642C36.0843 19.1963 36.0843 18.1166 36.7523 17.4469L45.2922 8.89671C45.9328 8.25608 47.0655 8.25438 47.7078 8.89671L56.2512 17.4469C56.5723 17.7681 56.7517 18.202 56.7517 18.6547 56.7517 19.1074 56.5723 19.5448 56.2512 19.8642L47.7078 28.4144C47.39 28.7373 46.9544 28.915 46.5 28.915ZM40.3756 18.6547 46.5 24.7859 52.6278 18.6547 46.5 12.5235 40.3756 18.6547Z"/></g></g></g><text font-family="Calibri,Calibri_MSFontService,sans-serif" font-weight="700" transform="translate(9.28383 66)">VALUE STREAM</text></g></svg>