<svg width="96" height="96" xmlns="http://www.w3.org/2000/svg" xmlns:xlink="http://www.w3.org/1999/xlink" overflow="hidden"><defs><clipPath id="clip0"><path d="M0 0 96 0 96 96 0 96Z" fill-rule="evenodd" clip-rule="evenodd"/></clipPath><clipPath id="clip1"><path d="M26 5 67 5 67 46 26 46Z" fill-rule="evenodd" clip-rule="evenodd"/></clipPath><clipPath id="clip2"><path d="M26 5 67 5 67 46 26 46Z" fill-rule="evenodd" clip-rule="evenodd"/></clipPath><clipPath id="clip3"><path d="M26 5 67 5 67 46 26 46Z" fill-rule="evenodd" clip-rule="evenodd"/></clipPath></defs><g clip-path="url(#clip0)"><path d="M0 0 96 0 96 96 0 96Z" fill="#313131" fill-rule="evenodd"/><text fill="#FFFFFF" font-family="Calibri,Calibri_MSFontService,sans-serif" font-weight="300" font-size="5" transform="translate(9.60011 -3)">PRECONDITION</text><rect x="26.5001" y="5.50005" width="1" height="1" stroke="#2F528F" stroke-width="1.33333" stroke-miterlimit="8" fill="#4472C4"/><path d="M4.58866 0.500053 92.4114 0.500053C94.6695 0.500053 96.5001 2.33059 96.5001 4.58866L96.5001 93.3868C96.5001 95.1062 95.1062 96.5001 93.3868 96.5001L3.61333 96.5001C1.89392 96.5001 0.500053 95.1062 0.500053 93.3868L0.500053 4.58866C0.500053 2.33059 2.33059 0.500053 4.58866 0.500053Z" stroke="#64A592" stroke-width="4.66667" stroke-miterlimit="8" fill="#FFFFFF" fill-rule="evenodd"/><g clip-path="url(#clip1)"><g clip-path="url(#clip2)"><g clip-path="url(#clip3)"><path d="M44.7421 21.4 34.1966 32.3333 27.6024 25.5 30.2384 22.7667 34.1949 26.8667 42.1062 18.6667Z"/><path d="M44.7421 45.9983 27.7135 45.9983C26.767 45.9983 26 45.2364 26 44.29 26 43.3452 26.767 42.5833 27.7135 42.5833L43.5583 42.5833 49.7493 26.3268 43.5207 8.41667 27.8621 8.41667C26.9157 8.41667 26.1486 7.65133 26.1486 6.70833 26.1486 5.76533 26.9157 5 27.8621 5L44.7421 5C45.4733 5 46.1225 5.46125 46.3616 6.148L53.195 25.7921C53.3248 26.1731 53.318 26.5831 53.1779 26.9606L46.3445 44.8947C46.0917 45.5592 45.4545 45.9983 44.7421 45.9983Z"/><path d="M65.2865 45.9983C64.593 45.9983 63.9438 45.5798 63.6841 44.8947L56.8508 26.9606C56.7073 26.5831 56.7039 26.1731 56.8337 25.7921L63.6653 6.148C63.9745 5.25796 64.9483 4.78133 65.8452 5.09396 66.7403 5.40317 67.2135 6.37521 66.9043 7.26696L60.2743 26.3268 66.8855 43.6852C67.2221 44.565 66.7796 45.5524 65.8913 45.8855 65.6931 45.9641 65.4864 45.9983 65.2865 45.9983Z"/></g></g></g><text font-family="Calibri,Calibri_MSFontService,sans-serif" font-weight="700" transform="translate(9.70053 66)">PRECONDITION</text></g></svg>