<svg width="189" height="189" xmlns="http://www.w3.org/2000/svg" xmlns:xlink="http://www.w3.org/1999/xlink" overflow="hidden"><defs><clipPath id="clip0"><path d="M0 0 189 0 189 189 0 189Z" fill-rule="evenodd" clip-rule="evenodd"/></clipPath><clipPath id="clip1"><path d="M51 10 132 10 132 91 51 91Z" fill-rule="evenodd" clip-rule="evenodd"/></clipPath><clipPath id="clip2"><path d="M51 10 132 10 132 91 51 91Z" fill-rule="evenodd" clip-rule="evenodd"/></clipPath><clipPath id="clip3"><path d="M51 10 132 10 132 91 51 91Z" fill-rule="evenodd" clip-rule="evenodd"/></clipPath></defs><g clip-path="url(#clip0)"><rect x="0" y="0" width="189" height="189" fill="#313131"/><text fill="#FFFFFF" font-family="Calibri,Calibri_MSFontService,sans-serif" font-weight="300" font-size="11" transform="translate(9.60032 -5)">PRICE</text><rect x="51.5001" y="10.5001" width="1" height="1" stroke="#2F528F" stroke-width="1.33333" stroke-miterlimit="8" fill="#4472C4"/><path d="M8.5495 0.500053 181.451 0.500053C185.896 0.500053 189.5 4.10391 189.5 8.5495L189.5 183.371C189.5 186.756 186.756 189.5 183.371 189.5L6.62932 189.5C3.24422 189.5 0.500053 186.756 0.500053 183.371L0.500053 8.5495C0.500053 4.10391 4.10391 0.500053 8.5495 0.500053Z" stroke="#911EB4" stroke-width="4.66667" stroke-miterlimit="8" fill="#FFFFFF" fill-rule="evenodd"/><g clip-path="url(#clip1)"><g clip-path="url(#clip2)"><g clip-path="url(#clip3)"><path d="M107.282 53.1089C104.305 50.9995 99.9206 49.3086 94.1325 48.0261 90.1028 47.0103 87.261 46.0518 85.6208 45.1405 83.9704 44.236 83.1469 43.0716 83.1469 41.6541 83.1469 40.105 83.9164 38.8326 85.452 37.837 86.9876 36.8414 89.1645 36.3453 91.9759 36.3453 94.9054 36.3453 97.1801 36.9426 98.8001 38.1374 100.42 39.3321 101.233 40.8981 101.233 42.832L111.429 42.832 111.5 42.6599C111.618 39.079 109.87 36.0719 106.239 33.6318 103.215 31.5966 99.3907 30.4592 94.875 30.1251L94.875 20.125C94.875 18.262 93.3664 16.75 91.5 16.75 89.6336 16.75 88.125 18.262 88.125 20.125L88.125 30.1758C84.2134 30.5807 80.8789 31.5966 78.1181 33.2335 74.4529 35.4036 72.6236 38.2015 72.6236 41.6271 72.6236 45.0527 74.2234 47.7494 77.4128 49.7204 80.6089 51.6914 85.3305 53.3924 91.5709 54.8301 95.1517 55.6908 97.656 56.6088 99.087 57.5841 100.518 58.5595 101.23 59.8521 101.23 61.4552 101.23 63.0246 100.471 64.2767 98.9621 65.2083 97.4467 66.1499 95.2598 66.619 92.4045 66.619 88.9924 66.619 86.3329 66.0385 84.426 64.8775 82.5191 63.7199 81.5606 61.8974 81.5606 59.4134L71.3276 59.4134 71.2568 59.5855C71.1353 63.811 73.2008 67.105 77.4532 69.4473 80.6089 71.1888 84.1661 72.2755 88.125 72.7278L88.125 80.875C88.125 82.7414 89.6336 84.25 91.5 84.25 93.3664 84.25 94.875 82.7414 94.875 80.875L94.875 72.856C99.5359 72.5927 103.421 71.6309 106.438 69.8725 109.978 67.8036 111.75 64.9821 111.75 61.4012 111.75 57.979 110.262 55.2115 107.282 53.1089Z"/></g></g></g><text font-family="Calibri,Calibri_MSFontService,sans-serif" font-weight="700" font-size="24" transform="translate(66.9755 126)">PRICE</text></g></svg>