<svg width="96" height="96" xmlns="http://www.w3.org/2000/svg" xmlns:xlink="http://www.w3.org/1999/xlink" overflow="hidden"><defs><clipPath id="clip0"><path d="M0 0 96 0 96 96 0 96Z" fill-rule="evenodd" clip-rule="evenodd"/></clipPath><clipPath id="clip1"><path d="M26 5 67 5 67 46 26 46Z" fill-rule="evenodd" clip-rule="evenodd"/></clipPath><clipPath id="clip2"><path d="M26 5 67 5 67 46 26 46Z" fill-rule="evenodd" clip-rule="evenodd"/></clipPath><clipPath id="clip3"><path d="M26 5 67 5 67 46 26 46Z" fill-rule="evenodd" clip-rule="evenodd"/></clipPath></defs><g clip-path="url(#clip0)"><path d="M0 0 96 0 96 96 0 96Z" fill="#313131" fill-rule="evenodd"/><text fill="#FFFFFF" font-family="Calibri,Calibri_MSFontService,sans-serif" font-weight="300" font-size="5" transform="translate(9.60011 0)">N</text><rect x="26.5001" y="5.50005" width="1" height="1" stroke="#2F528F" stroke-width="1.33333" stroke-miterlimit="8" fill="#4472C4"/><path d="M4.58866 0.500053 92.4114 0.500053C94.6695 0.500053 96.5001 2.33059 96.5001 4.58866L96.5001 93.3868C96.5001 95.1062 95.1062 96.5001 93.3868 96.5001L3.61333 96.5001C1.89392 96.5001 0.500053 95.1062 0.500053 93.3868L0.500053 4.58866C0.500053 2.33059 2.33059 0.500053 4.58866 0.500053Z" stroke="#64A592" stroke-width="4.66667" stroke-miterlimit="8" fill="#FFFFFF" fill-rule="evenodd"/><g clip-path="url(#clip1)"><g clip-path="url(#clip2)"><g clip-path="url(#clip3)"><path d="M65.5155 46 36.25 46C35.6692 46 35.1276 45.7045 34.8133 45.2159 34.499 44.729 34.4545 44.1123 34.6954 43.5844L42.9142 25.5 34.6954 7.41558C34.4545 6.886 34.499 6.27271 34.8133 5.78242 35.1276 5.29554 35.6692 5 36.25 5L65.3668 5C66.3115 5 67.0752 5.76533 67.0752 6.70833 67.0752 7.65133 66.3115 8.41667 65.3668 8.41667L38.903 8.41667 46.3463 24.7928C46.5513 25.242 46.5513 25.7563 46.3463 26.2055L38.903 42.5833 65.5155 42.5833C66.4602 42.5833 67.2238 43.347 67.2238 44.2917 67.2238 45.2364 66.4602 46 65.5155 46Z"/><path d="M27.7083 46C27.4709 46 27.2317 45.9522 27.0028 45.8462 26.1435 45.455 25.7642 44.4437 26.1538 43.5844L34.3725 25.5 26.1538 7.41558C25.7625 6.55629 26.1418 5.54325 27.0011 5.15375 27.8553 4.76254 28.8717 5.14179 29.2629 6.00279L37.8046 24.7945C38.0096 25.2438 38.0096 25.758 37.8046 26.2073L29.2629 44.9989C28.9776 45.6276 28.3558 46 27.7083 46Z"/><path d="M65.2917 21.4 54.782 32.3333 48.2083 25.5 50.8358 22.7667 54.7786 26.8667 62.6643 18.6667Z"/></g></g></g><text font-family="Calibri,Calibri_MSFontService,sans-serif" font-weight="700" transform="translate(6.11722 66)">POSTCONDITION</text></g></svg>