<svg width="189" height="189" xmlns="http://www.w3.org/2000/svg" xmlns:xlink="http://www.w3.org/1999/xlink" overflow="hidden"><defs><clipPath id="clip0"><path d="M0 0 189 0 189 189 0 189Z" fill-rule="evenodd" clip-rule="evenodd"/></clipPath><clipPath id="clip1"><path d="M51 10 132 10 132 91 51 91Z" fill-rule="evenodd" clip-rule="evenodd"/></clipPath><clipPath id="clip2"><path d="M51 10 132 10 132 91 51 91Z" fill-rule="evenodd" clip-rule="evenodd"/></clipPath><clipPath id="clip3"><path d="M51 10 132 10 132 91 51 91Z" fill-rule="evenodd" clip-rule="evenodd"/></clipPath></defs><g clip-path="url(#clip0)"><rect x="0" y="0" width="189" height="189" fill="#313131"/><text fill="#FFFFFF" font-family="Calibri,Calibri_MSFontService,sans-serif" font-weight="300" font-size="11" transform="translate(9.60032 -5)">SEGMENT</text><rect x="51.5001" y="10.5001" width="1" height="1" stroke="#2F528F" stroke-width="1.33333" stroke-miterlimit="8" fill="#4472C4"/><path d="M8.5495 0.500053 181.451 0.500053C185.896 0.500053 189.5 4.10391 189.5 8.5495L189.5 183.371C189.5 186.756 186.756 189.5 183.371 189.5L6.62932 189.5C3.24422 189.5 0.500053 186.756 0.500053 183.371L0.500053 8.5495C0.500053 4.10391 4.10391 0.500053 8.5495 0.500053Z" stroke="#911EB4" stroke-width="4.66667" stroke-miterlimit="8" fill="#FFFFFF" fill-rule="evenodd"/><g clip-path="url(#clip1)"><g clip-path="url(#clip2)"><g clip-path="url(#clip3)"><path d="M78 53.6657C70.5547 53.6657 64.5 47.6346 64.5 40.2265 64.5 32.8184 70.5547 26.7906 78 26.7906 85.4453 26.7906 91.5 32.8184 91.5 40.2265 91.5 47.6346 85.4453 53.6657 78 53.6657ZM78 33.5406C74.2774 33.5406 71.25 36.541 71.25 40.2265 71.25 43.912 74.2774 46.9124 78 46.9124 81.7226 46.9124 84.75 43.912 84.75 40.2265 84.75 36.541 81.7226 33.5406 78 33.5406Z"/><path d="M108.375 40.2501C100.93 40.2501 94.875 34.2224 94.875 26.8143 94.875 19.4061 100.93 13.375 108.375 13.375 115.82 13.375 121.875 19.4028 121.875 26.8109 121.875 34.219 115.82 40.2501 108.375 40.2501ZM108.375 20.125C104.652 20.125 101.625 23.1254 101.625 26.8109 101.625 30.4964 104.652 33.4967 108.375 33.4967 112.098 33.4967 115.125 30.4964 115.125 26.8109 115.125 23.1254 112.098 20.125 108.375 20.125Z"/><path d="M98.25 87.625C96.3836 87.625 94.875 86.1164 94.875 84.25L94.875 73.9765C94.875 70.1729 91.7565 67.0814 87.9259 67.0814L68.0741 67.0814C64.2435 67.0814 61.125 70.1729 61.125 73.9765L61.125 84.25C61.125 86.1164 59.613 87.625 57.75 87.625 55.887 87.625 54.375 86.1164 54.375 84.25L54.375 73.9765C54.375 66.4536 60.5209 60.3314 68.0741 60.3314L87.9259 60.3314C95.4791 60.3314 101.625 66.4502 101.625 73.9765L101.625 84.25C101.625 86.1164 100.116 87.625 98.25 87.625Z"/><path d="M128.625 74.206C126.759 74.206 125.25 72.6974 125.25 70.831L125.25 60.5609C125.25 56.7573 122.111 53.6624 118.257 53.6624L98.25 53.6624C96.3836 53.6624 94.875 52.1537 94.875 50.2874 94.875 48.421 96.3836 46.9124 98.25 46.9124L118.257 46.9124C125.834 46.9124 132 53.0346 132 60.5575L132 70.8276C132 72.6974 130.491 74.206 128.625 74.206Z"/></g></g></g><text font-family="Calibri,Calibri_MSFontService,sans-serif" font-weight="700" font-size="24" transform="translate(46.7322 126)">SEGMENT</text></g></svg>