<svg width="189" height="189" xmlns="http://www.w3.org/2000/svg" xmlns:xlink="http://www.w3.org/1999/xlink" overflow="hidden"><defs><clipPath id="clip0"><path d="M0 0 189 0 189 189 0 189Z" fill-rule="evenodd" clip-rule="evenodd"/></clipPath><clipPath id="clip1"><path d="M51 10 132 10 132 91 51 91Z" fill-rule="evenodd" clip-rule="evenodd"/></clipPath><clipPath id="clip2"><path d="M51 10 132 10 132 91 51 91Z" fill-rule="evenodd" clip-rule="evenodd"/></clipPath><clipPath id="clip3"><path d="M51 10 132 10 132 91 51 91Z" fill-rule="evenodd" clip-rule="evenodd"/></clipPath></defs><g clip-path="url(#clip0)"><rect x="0" y="0" width="189" height="189" fill="#313131"/><text fill="#FFFFFF" font-family="Calibri,Calibri_MSFontService,sans-serif" font-weight="300" font-size="11" transform="translate(9.60032 -5)">POLICY</text><rect x="51.5001" y="10.5001" width="1" height="1" stroke="#2F528F" stroke-width="1.33333" stroke-miterlimit="8" fill="#4472C4"/><path d="M8.5495 0.500053 181.451 0.500053C185.896 0.500053 189.5 4.10391 189.5 8.5495L189.5 183.371C189.5 186.756 186.756 189.5 183.371 189.5L6.62932 189.5C3.24422 189.5 0.500053 186.756 0.500053 183.371L0.500053 8.5495C0.500053 4.10391 4.10391 0.500053 8.5495 0.500053Z" stroke="#E6194B" stroke-width="4.66667" stroke-miterlimit="8" fill="#FFFFFF" fill-rule="evenodd"/><g clip-path="url(#clip1)"><g clip-path="url(#clip2)"><g clip-path="url(#clip3)"><path d="M88.125 87.625 61.125 87.625C59.262 87.625 57.75 86.1164 57.75 84.25L57.75 16.75C57.75 14.887 59.262 13.375 61.125 13.375L115.125 13.375C116.991 13.375 118.5 14.887 118.5 16.75L118.5 43.75C118.5 45.613 116.991 47.125 115.125 47.125 113.259 47.125 111.75 45.613 111.75 43.75L111.75 20.125 64.5 20.125 64.5 80.875 88.125 80.875C89.9914 80.875 91.5 82.3836 91.5 84.25 91.5 86.1164 89.9914 87.625 88.125 87.625Z"/><path d="M105 87.625C103.998 87.625 103.049 87.1795 102.401 86.4134L85.5262 66.1634C84.777 65.2623 84.5475 64.0472 84.9154 62.9335L88.2904 52.8085C88.7595 51.4281 90.0454 50.5 91.5 50.5L118.5 50.5C119.958 50.5 121.241 51.4281 121.7 52.8085L125.075 62.9335C125.446 64.0472 125.216 65.2623 124.464 66.1634L107.589 86.4134C106.951 87.1795 106.002 87.625 105 87.625ZM91.9219 63.2845 105 78.9782 118.078 63.2912 116.067 57.25 93.93 57.25 91.9219 63.2845Z"/><path d="M101.625 37 74.625 37C72.762 37 71.25 35.488 71.25 33.625 71.25 31.762 72.762 30.25 74.625 30.25L101.625 30.25C103.491 30.25 105 31.762 105 33.625 105 35.488 103.491 37 101.625 37Z"/><path d="M84.75 50.5 74.625 50.5C72.762 50.5 71.25 48.988 71.25 47.125 71.25 45.262 72.762 43.75 74.625 43.75L84.75 43.75C86.6164 43.75 88.125 45.262 88.125 47.125 88.125 48.988 86.6164 50.5 84.75 50.5Z"/><path d="M78 64 74.625 64C72.762 64 71.25 62.4914 71.25 60.625 71.25 58.7586 72.762 57.25 74.625 57.25L77.973 57.25C79.836 57.25 81.3615 58.7586 81.3615 60.625 81.3615 62.4914 79.863 64 78 64Z"/></g></g></g><text font-family="Calibri,Calibri_MSFontService,sans-serif" font-weight="700" font-size="24" transform="translate(60.2256 126)">POLICY</text></g></svg>