<svg width="96" height="96" xmlns="http://www.w3.org/2000/svg" xmlns:xlink="http://www.w3.org/1999/xlink" overflow="hidden"><defs><clipPath id="clip0"><path d="M0 0 96 0 96 96 0 96Z" fill-rule="evenodd" clip-rule="evenodd"/></clipPath><clipPath id="clip1"><path d="M26 5 67 5 67 46 26 46Z" fill-rule="evenodd" clip-rule="evenodd"/></clipPath><clipPath id="clip2"><path d="M26 5 67 5 67 46 26 46Z" fill-rule="evenodd" clip-rule="evenodd"/></clipPath><clipPath id="clip3"><path d="M26 5 67 5 67 46 26 46Z" fill-rule="evenodd" clip-rule="evenodd"/></clipPath></defs><g clip-path="url(#clip0)"><path d="M0 0 96 0 96 96 0 96Z" fill="#313131" fill-rule="evenodd"/><text fill="#FFFFFF" font-family="Calibri,Calibri_MSFontService,sans-serif" font-weight="300" font-size="5" transform="translate(9.60011 -3)">USER</text><rect x="26.5001" y="5.50005" width="1" height="1" stroke="#2F528F" stroke-width="1.33333" stroke-miterlimit="8" fill="#4472C4"/><path d="M4.58866 0.500053 92.4114 0.500053C94.6695 0.500053 96.5001 2.33059 96.5001 4.58866L96.5001 93.3868C96.5001 95.1062 95.1062 96.5001 93.3868 96.5001L3.61333 96.5001C1.89392 96.5001 0.500053 95.1062 0.500053 93.3868L0.500053 4.58866C0.500053 2.33059 2.33059 0.500053 4.58866 0.500053Z" stroke="#CEB023" stroke-width="4.66667" stroke-miterlimit="8" fill="#FFFFFF" fill-rule="evenodd"/><g clip-path="url(#clip1)"><g clip-path="url(#clip2)"><g clip-path="url(#clip3)"><path d="M46.5 23.7917C41.7167 23.7917 37.9583 20.0333 37.9583 15.25 37.9583 10.4667 41.7167 6.70833 46.5 6.70833 51.2833 6.70833 55.0417 10.4667 55.0417 15.25 55.0417 20.0333 51.2833 23.7917 46.5 23.7917ZM46.5 10.125C43.5958 10.125 41.375 12.3458 41.375 15.25 41.375 18.1542 43.5958 20.375 46.5 20.375 49.4042 20.375 51.625 18.1542 51.625 15.25 51.625 12.3458 49.4042 10.125 46.5 10.125Z"/><path d="M58.4583 44.2917C57.4333 44.2917 56.75 43.6083 56.75 42.5833L56.75 35.75C56.75 32.8458 54.5292 30.625 51.625 30.625L41.375 30.625C38.4708 30.625 36.25 32.8458 36.25 35.75L36.25 42.5833C36.25 43.6083 35.5667 44.2917 34.5417 44.2917 33.5167 44.2917 32.8333 43.6083 32.8333 42.5833L32.8333 35.75C32.8333 30.9667 36.5917 27.2083 41.375 27.2083L51.625 27.2083C56.4083 27.2083 60.1667 30.9667 60.1667 35.75L60.1667 42.5833C60.1667 43.6083 59.4833 44.2917 58.4583 44.2917Z"/></g></g></g><text font-family="Calibri,Calibri_MSFontService,sans-serif" font-weight="700" transform="translate(35.2005 66)">USER</text></g></svg>