<svg width="189" height="189" xmlns="http://www.w3.org/2000/svg" xmlns:xlink="http://www.w3.org/1999/xlink" overflow="hidden"><defs><clipPath id="clip0"><path d="M0 0 189 0 189 189 0 189Z" fill-rule="evenodd" clip-rule="evenodd"/></clipPath><clipPath id="clip1"><path d="M51 10 132 10 132 91 51 91Z" fill-rule="evenodd" clip-rule="evenodd"/></clipPath><clipPath id="clip2"><path d="M51 10 132 10 132 91 51 91Z" fill-rule="evenodd" clip-rule="evenodd"/></clipPath><clipPath id="clip3"><path d="M51 10 132 10 132 91 51 91Z" fill-rule="evenodd" clip-rule="evenodd"/></clipPath></defs><g clip-path="url(#clip0)"><rect x="0" y="0" width="189" height="189" fill="#313131"/><text fill="#FFFFFF" font-family="Calibri,Calibri_MSFontService,sans-serif" font-weight="300" font-size="11" transform="translate(9.60032 -5)">USER</text><rect x="51.5001" y="10.5001" width="1" height="1" stroke="#2F528F" stroke-width="1.33333" stroke-miterlimit="8" fill="#4472C4"/><path d="M8.5495 0.500053 181.451 0.500053C185.896 0.500053 189.5 4.10391 189.5 8.5495L189.5 183.371C189.5 186.756 186.756 189.5 183.371 189.5L6.62932 189.5C3.24422 189.5 0.500053 186.756 0.500053 183.371L0.500053 8.5495C0.500053 4.10391 4.10391 0.500053 8.5495 0.500053Z" stroke="#CEB023" stroke-width="4.66667" stroke-miterlimit="8" fill="#FFFFFF" fill-rule="evenodd"/><g clip-path="url(#clip1)"><g clip-path="url(#clip2)"><g clip-path="url(#clip3)"><path d="M91.5 47.125C82.05 47.125 74.625 39.7 74.625 30.25 74.625 20.8 82.05 13.375 91.5 13.375 100.95 13.375 108.375 20.8 108.375 30.25 108.375 39.7 100.95 47.125 91.5 47.125ZM91.5 20.125C85.7625 20.125 81.375 24.5125 81.375 30.25 81.375 35.9875 85.7625 40.375 91.5 40.375 97.2375 40.375 101.625 35.9875 101.625 30.25 101.625 24.5125 97.2375 20.125 91.5 20.125Z"/><path d="M115.125 87.625C113.1 87.625 111.75 86.275 111.75 84.25L111.75 70.75C111.75 65.0125 107.363 60.625 101.625 60.625L81.375 60.625C75.6375 60.625 71.25 65.0125 71.25 70.75L71.25 84.25C71.25 86.275 69.9 87.625 67.875 87.625 65.85 87.625 64.5 86.275 64.5 84.25L64.5 70.75C64.5 61.3 71.925 53.875 81.375 53.875L101.625 53.875C111.075 53.875 118.5 61.3 118.5 70.75L118.5 84.25C118.5 86.275 117.15 87.625 115.125 87.625Z"/></g></g></g><text font-family="Calibri,Calibri_MSFontService,sans-serif" font-weight="700" font-size="24" transform="translate(69.3089 126)">USER</text></g></svg>