<svg width="189" height="189" xmlns="http://www.w3.org/2000/svg" xmlns:xlink="http://www.w3.org/1999/xlink" overflow="hidden"><defs><clipPath id="clip0"><path d="M0 0 189 0 189 189 0 189Z" fill-rule="evenodd" clip-rule="evenodd"/></clipPath><clipPath id="clip1"><path d="M51 10 132 10 132 91 51 91Z" fill-rule="evenodd" clip-rule="evenodd"/></clipPath><clipPath id="clip2"><path d="M51 10 132 10 132 91 51 91Z" fill-rule="evenodd" clip-rule="evenodd"/></clipPath><clipPath id="clip3"><path d="M51 10 132 10 132 91 51 91Z" fill-rule="evenodd" clip-rule="evenodd"/></clipPath></defs><g clip-path="url(#clip0)"><rect x="0" y="0" width="189" height="189" fill="#313131"/><text fill="#FFFFFF" font-family="Calibri,Calibri_MSFontService,sans-serif" font-weight="300" font-size="11" transform="translate(9.60032 -5)">STRATEGY</text><rect x="51.5001" y="10.5001" width="1" height="1" stroke="#2F528F" stroke-width="1.33333" stroke-miterlimit="8" fill="#4472C4"/><path d="M8.5495 0.500053 181.451 0.500053C185.896 0.500053 189.5 4.10391 189.5 8.5495L189.5 183.371C189.5 186.756 186.756 189.5 183.371 189.5L6.62932 189.5C3.24422 189.5 0.500053 186.756 0.500053 183.371L0.500053 8.5495C0.500053 4.10391 4.10391 0.500053 8.5495 0.500053Z" stroke="#E6BEFF" stroke-width="4.66667" stroke-miterlimit="8" fill="#FFFFFF" fill-rule="evenodd"/><g clip-path="url(#clip1)"><g clip-path="url(#clip2)"><g clip-path="url(#clip3)"><path d="M128.183 82.5794 122 64 128.389 44.8165C128.493 44.4858 128.547 44.1449 128.554 43.8006 128.551 43.7838 128.557 43.7669 128.557 43.75 128.557 43.6893 128.527 43.642 128.524 43.5846 128.51 43.3652 128.51 43.1459 128.453 42.9333L121.71 15.9333C121.335 14.428 119.988 13.375 118.443 13.375L57.7466 13.375C56.7071 13.375 55.725 13.8542 55.0905 14.6744 54.4526 15.4945 54.2231 16.561 54.4762 17.5701L60.9832 43.615 54.5505 62.9335C54.321 63.6254 54.321 64.378 54.5505 65.0699L61.2938 85.3199C61.7528 86.6969 63.0352 87.625 64.4932 87.625L125.189 87.625C125.216 87.6284 125.243 87.625 125.257 87.625 127.12 87.625 128.625 86.1164 128.625 84.25 128.625 83.6425 128.466 83.0687 128.183 82.5794ZM66.9232 80.875 62.4277 67.375 71.2331 67.375C73.0928 67.375 74.6048 65.8664 74.6048 64 74.6048 62.1336 73.0928 60.625 71.2331 60.625L62.4277 60.625 66.9232 47.125 81.4864 47.125C83.346 47.125 84.8614 45.613 84.8614 43.75 84.8614 41.887 83.3494 40.375 81.4864 40.375L67.1257 40.375 62.0666 20.125 115.807 20.125 120.866 40.375 115.071 40.375C113.205 40.375 111.699 41.887 111.699 43.75 111.699 45.613 113.205 47.125 115.071 47.125L120.501 47.125 116.009 60.625 104.953 60.625C103.09 60.625 101.581 62.1336 101.581 64 101.581 65.8664 103.09 67.375 104.953 67.375L116.009 67.375 120.501 80.875 66.9232 80.875Z"/><path d="M86.4105 60.625C81.7631 60.625 77.9798 64.4084 77.9798 69.0625 77.9798 73.7166 81.7631 77.5 86.4105 77.5 91.0579 77.5 94.8412 73.7166 94.8412 69.0625 94.8412 64.4084 91.0579 60.625 86.4105 60.625ZM86.4105 70.75C85.479 70.75 84.723 69.9906 84.723 69.0625 84.723 68.1344 85.479 67.375 86.4105 67.375 87.3386 67.375 88.098 68.1344 88.098 69.0625 88.098 69.9906 87.3386 70.75 86.4105 70.75Z"/><path d="M107.339 34.6139 100.596 27.8639C99.276 26.5443 97.143 26.5443 95.8268 27.8639 94.5071 29.1835 94.5071 31.3165 95.8268 32.6361L100.717 37.5299 92.0602 52.0964C91.1085 53.6995 91.6316 55.765 93.2415 56.7235 93.7781 57.0475 94.3721 57.1994 94.9594 57.1994 96.1103 57.1994 97.2308 56.6121 97.8551 55.5524L107.855 38.7314C108.642 37.3983 108.426 35.704 107.339 34.6139Z"/><path d="M88.0946 33.625 88.0946 26.875C88.0946 25.012 86.5826 23.5 84.723 23.5L77.9798 23.5C76.1167 23.5 74.6081 25.012 74.6081 26.875L74.6081 33.625C74.6081 35.488 76.1201 37 77.9798 37L84.7264 37C86.5826 37 88.0946 35.488 88.0946 33.625Z"/></g></g></g><text font-family="Calibri,Calibri_MSFontService,sans-serif" font-weight="700" font-size="24" transform="translate(45.9456 126)">STRATEGY</text></g></svg>