<svg width="96" height="96" xmlns="http://www.w3.org/2000/svg" xmlns:xlink="http://www.w3.org/1999/xlink" overflow="hidden"><defs><clipPath id="clip0"><path d="M0 0 96 0 96 96 0 96Z" fill-rule="evenodd" clip-rule="evenodd"/></clipPath><clipPath id="clip1"><path d="M26 5 67 5 67 46 26 46Z" fill-rule="evenodd" clip-rule="evenodd"/></clipPath><clipPath id="clip2"><path d="M26 5 67 5 67 46 26 46Z" fill-rule="evenodd" clip-rule="evenodd"/></clipPath><clipPath id="clip3"><path d="M26 5 67 5 67 46 26 46Z" fill-rule="evenodd" clip-rule="evenodd"/></clipPath></defs><g clip-path="url(#clip0)"><path d="M0 0 96 0 96 96 0 96Z" fill="#313131" fill-rule="evenodd"/><text fill="#FFFFFF" font-family="Calibri,Calibri_MSFontService,sans-serif" font-weight="300" font-size="5" transform="translate(9.60011 -3)">TEAM MEMBER</text><rect x="26.5001" y="5.50005" width="1" height="1" stroke="#2F528F" stroke-width="1.33333" stroke-miterlimit="8" fill="#4472C4"/><path d="M4.58866 0.500053 92.4114 0.500053C94.6695 0.500053 96.5001 2.33059 96.5001 4.58866L96.5001 93.3868C96.5001 95.1062 95.1062 96.5001 93.3868 96.5001L3.61333 96.5001C1.89392 96.5001 0.500053 95.1062 0.500053 93.3868L0.500053 4.58866C0.500053 2.33059 2.33059 0.500053 4.58866 0.500053Z" stroke="#B74D41" stroke-width="4.66667" stroke-miterlimit="8" fill="#FFFFFF" fill-rule="evenodd"/><g clip-path="url(#clip1)"><g clip-path="url(#clip2)"><g clip-path="url(#clip3)"><path d="M46.5 27.2083C42.7417 27.2083 39.6667 24.1333 39.6667 20.375 39.6667 16.6167 42.7417 13.5417 46.5 13.5417 50.2583 13.5417 53.3333 16.6167 53.3333 20.375 53.3333 24.1333 50.2583 27.2083 46.5 27.2083ZM46.5 16.9583C44.6208 16.9583 43.0833 18.4958 43.0833 20.375 43.0833 22.2542 44.6208 23.7917 46.5 23.7917 48.3792 23.7917 49.9167 22.2542 49.9167 20.375 49.9167 18.4958 48.3792 16.9583 46.5 16.9583Z"/><path d="M61.0208 18.6667C57.775 18.6667 55.0417 15.9333 55.0417 12.6875 55.0417 9.44167 57.775 6.70833 61.0208 6.70833 64.2667 6.70833 67 9.44167 67 12.6875 67 15.9333 64.2667 18.6667 61.0208 18.6667ZM61.0208 10.125C59.6542 10.125 58.4583 11.3208 58.4583 12.6875 58.4583 14.0542 59.6542 15.25 61.0208 15.25 62.3875 15.25 63.5833 14.0542 63.5833 12.6875 63.5833 11.3208 62.3875 10.125 61.0208 10.125Z"/><path d="M65.2917 25.5 56.75 25.5C55.725 25.5 55.0417 24.8167 55.0417 23.7917 55.0417 22.7667 55.725 22.0833 56.75 22.0833L65.2917 22.0833C66.3167 22.0833 67 22.7667 67 23.7917 67 24.8167 66.3167 25.5 65.2917 25.5Z"/><path d="M31.9792 18.6667C28.7333 18.6667 26 15.9333 26 12.6875 26 9.44167 28.7333 6.70833 31.9792 6.70833 35.225 6.70833 37.9583 9.44167 37.9583 12.6875 37.9583 15.9333 35.225 18.6667 31.9792 18.6667ZM31.9792 10.125C30.6125 10.125 29.4167 11.3208 29.4167 12.6875 29.4167 14.0542 30.6125 15.25 31.9792 15.25 33.3458 15.25 34.5417 14.0542 34.5417 12.6875 34.5417 11.3208 33.3458 10.125 31.9792 10.125Z"/><path d="M36.25 25.5 27.7083 25.5C26.6833 25.5 26 24.8167 26 23.7917 26 22.7667 26.6833 22.0833 27.7083 22.0833L36.25 22.0833C37.275 22.0833 37.9583 22.7667 37.9583 23.7917 37.9583 24.8167 37.275 25.5 36.25 25.5Z"/><path d="M56.9208 44.2917C56.0667 44.2917 55.2125 43.6083 55.2125 42.5833L55.2125 37.4583C55.2125 35.5792 53.675 34.0417 51.625 34.0417L41.5458 34.0417C39.4958 34.0417 37.9583 35.5792 37.9583 37.4583L37.9583 42.5833C37.9583 43.4375 37.275 44.2917 36.25 44.2917 35.225 44.2917 34.5417 43.6083 34.5417 42.5833L34.5417 37.4583C34.5417 33.7 37.6167 30.625 41.5458 30.625L51.625 30.625C55.5542 30.625 58.6292 33.7 58.6292 37.4583L58.6292 42.5833C58.6292 43.4375 57.775 44.2917 56.9208 44.2917Z"/></g></g></g><text font-family="Calibri,Calibri_MSFontService,sans-serif" font-weight="700" transform="translate(9.03386 66)">TEAM MEMBER</text></g></svg>