<svg width="189" height="189" xmlns="http://www.w3.org/2000/svg" xmlns:xlink="http://www.w3.org/1999/xlink" overflow="hidden"><defs><clipPath id="clip0"><path d="M0 0 189 0 189 189 0 189Z" fill-rule="evenodd" clip-rule="evenodd"/></clipPath><clipPath id="clip1"><path d="M51 10 132 10 132 91 51 91Z" fill-rule="evenodd" clip-rule="evenodd"/></clipPath><clipPath id="clip2"><path d="M51 10 132 10 132 91 51 91Z" fill-rule="evenodd" clip-rule="evenodd"/></clipPath><clipPath id="clip3"><path d="M51 10 132 10 132 91 51 91Z" fill-rule="evenodd" clip-rule="evenodd"/></clipPath></defs><g clip-path="url(#clip0)"><rect x="0" y="0" width="189" height="189" fill="#313131"/><text fill="#FFFFFF" font-family="Calibri,Calibri_MSFontService,sans-serif" font-weight="300" font-size="11" transform="translate(9.60032 -5)">BENEFIT</text><rect x="51.5001" y="10.5001" width="1" height="1" stroke="#2F528F" stroke-width="1.33333" stroke-miterlimit="8" fill="#4472C4"/><path d="M8.5495 0.500053 181.451 0.500053C185.896 0.500053 189.5 4.10391 189.5 8.5495L189.5 183.371C189.5 186.756 186.756 189.5 183.371 189.5L6.62932 189.5C3.24422 189.5 0.500053 186.756 0.500053 183.371L0.500053 8.5495C0.500053 4.10391 4.10391 0.500053 8.5495 0.500053Z" stroke="#FABEBE" stroke-width="4.66667" stroke-miterlimit="8" fill="#FFFFFF" fill-rule="evenodd"/><g clip-path="url(#clip1)"><g clip-path="url(#clip2)"><g clip-path="url(#clip3)"><path d="M69.5625 72.4375C70.4265 72.4375 71.2905 72.1068 71.9486 71.4486L113.438 29.9597 113.438 36.1326C113.438 37.9956 114.946 39.5076 116.813 39.5076 118.679 39.5076 120.188 37.9956 120.188 36.1326L120.188 21.8125C120.188 21.3737 120.103 20.935 119.928 20.5233 119.58 19.6964 118.929 19.0416 118.102 18.6974 117.69 18.5252 117.251 18.4375 116.813 18.4375L102.492 18.4375C100.626 18.4375 99.1174 19.9495 99.1174 21.8125 99.1174 23.6755 100.626 25.1875 102.492 25.1875L108.665 25.1875 67.1764 66.6764C65.8568 67.996 65.8568 70.129 67.1764 71.4486 67.8345 72.1068 68.6985 72.4375 69.5625 72.4375Z"/><path d="M125.25 77.5 61.125 77.5 61.125 16.75C61.125 14.887 59.613 13.375 57.75 13.375 55.887 13.375 54.375 14.887 54.375 16.75L54.375 80.875C54.375 82.7414 55.887 84.25 57.75 84.25L125.25 84.25C127.116 84.25 128.625 82.7414 128.625 80.875 128.625 79.0086 127.116 77.5 125.25 77.5Z"/></g></g></g><text font-family="Calibri,Calibri_MSFontService,sans-serif" font-weight="700" font-size="24" transform="translate(54.8089 126)">BENEFIT</text></g></svg>