<svg width="189" height="189" xmlns="http://www.w3.org/2000/svg" xmlns:xlink="http://www.w3.org/1999/xlink" overflow="hidden"><defs><clipPath id="clip0"><path d="M0 0 189 0 189 189 0 189Z" fill-rule="evenodd" clip-rule="evenodd"/></clipPath><clipPath id="clip1"><path d="M51 10 132 10 132 91 51 91Z" fill-rule="evenodd" clip-rule="evenodd"/></clipPath><clipPath id="clip2"><path d="M51 10 132 10 132 91 51 91Z" fill-rule="evenodd" clip-rule="evenodd"/></clipPath><clipPath id="clip3"><path d="M51 10 132 10 132 91 51 91Z" fill-rule="evenodd" clip-rule="evenodd"/></clipPath></defs><g clip-path="url(#clip0)"><rect x="0" y="0" width="189" height="189" fill="#313131"/><text fill="#FFFFFF" font-family="Calibri,Calibri_MSFontService,sans-serif" font-weight="300" font-size="11" transform="translate(9.60032 -5)">EMPLOYEE</text><rect x="51.5001" y="10.5001" width="1" height="1" stroke="#2F528F" stroke-width="1.33333" stroke-miterlimit="8" fill="#4472C4"/><path d="M8.5495 0.500053 181.451 0.500053C185.896 0.500053 189.5 4.10391 189.5 8.5495L189.5 183.371C189.5 186.756 186.756 189.5 183.371 189.5L6.62932 189.5C3.24422 189.5 0.500053 186.756 0.500053 183.371L0.500053 8.5495C0.500053 4.10391 4.10391 0.500053 8.5495 0.500053Z" stroke="#B74D41" stroke-width="4.66667" stroke-miterlimit="8" fill="#FFFFFF" fill-rule="evenodd"/><g clip-path="url(#clip1)"><g clip-path="url(#clip2)"><g clip-path="url(#clip3)"><path d="M91.5 47.125C82.1951 47.125 74.625 39.5549 74.625 30.25 74.625 20.9451 82.1951 13.375 91.5 13.375 100.805 13.375 108.375 20.9451 108.375 30.25 108.375 39.5549 100.805 47.125 91.5 47.125ZM91.5 20.125C85.9177 20.125 81.375 24.6677 81.375 30.25 81.375 35.8322 85.9177 40.375 91.5 40.375 97.0823 40.375 101.625 35.8322 101.625 30.25 101.625 24.6677 97.0823 20.125 91.5 20.125Z"/><path d="M121.875 91C120.009 91 118.5 89.4914 118.5 87.625L118.5 72.4375C118.5 65.9238 113.208 60.625 106.701 60.625L76.299 60.625C69.792 60.625 64.5 65.9238 64.5 72.4375L64.5 87.625C64.5 89.4914 62.988 91 61.125 91 59.262 91 57.75 89.4914 57.75 87.625L57.75 72.4375C57.75 62.2045 66.0694 53.875 76.299 53.875L106.701 53.875C116.927 53.875 125.25 62.2045 125.25 72.4375L125.25 87.625C125.25 89.4914 123.741 91 121.875 91Z"/><path d="M108.375 91 88.125 91C86.262 91 84.75 89.4914 84.75 87.625L84.75 74.125C84.75 72.2586 86.262 70.75 88.125 70.75L108.375 70.75C110.241 70.75 111.75 72.2586 111.75 74.125L111.75 87.625C111.75 89.4914 110.241 91 108.375 91ZM91.5 84.25 105 84.25 105 77.5 91.5 77.5 91.5 84.25Z"/><path d="M98.25 77.5C96.3836 77.5 94.875 75.9914 94.875 74.125L94.875 67.375C94.875 65.5086 96.3836 64 98.25 64 100.116 64 101.625 65.5086 101.625 67.375L101.625 74.125C101.625 75.9914 100.116 77.5 98.25 77.5Z"/></g></g></g><text font-family="Calibri,Calibri_MSFontService,sans-serif" font-weight="700" font-size="24" transform="translate(42.6389 126)">EMPLOYEE</text></g></svg>