<svg width="189" height="189" xmlns="http://www.w3.org/2000/svg" xmlns:xlink="http://www.w3.org/1999/xlink" overflow="hidden"><defs><clipPath id="clip0"><path d="M0 0 189 0 189 189 0 189Z" fill-rule="evenodd" clip-rule="evenodd"/></clipPath><clipPath id="clip1"><path d="M51 10 132 10 132 91 51 91Z" fill-rule="evenodd" clip-rule="evenodd"/></clipPath><clipPath id="clip2"><path d="M51 10 132 10 132 91 51 91Z" fill-rule="evenodd" clip-rule="evenodd"/></clipPath><clipPath id="clip3"><path d="M51 10 132 10 132 91 51 91Z" fill-rule="evenodd" clip-rule="evenodd"/></clipPath></defs><g clip-path="url(#clip0)"><rect x="0" y="0" width="189" height="189" fill="#313131"/><text fill="#FFFFFF" font-family="Calibri,Calibri_MSFontService,sans-serif" font-weight="300" font-size="11" transform="translate(9.60032 -5)">CAPABILITY</text><rect x="51.5001" y="10.5001" width="1" height="1" stroke="#2F528F" stroke-width="1.33333" stroke-miterlimit="8" fill="#4472C4"/><path d="M8.5495 0.500053 181.451 0.500053C185.896 0.500053 189.5 4.10391 189.5 8.5495L189.5 183.371C189.5 186.756 186.756 189.5 183.371 189.5L6.62932 189.5C3.24422 189.5 0.500053 186.756 0.500053 183.371L0.500053 8.5495C0.500053 4.10391 4.10391 0.500053 8.5495 0.500053Z" stroke="#911EB4" stroke-width="4.66667" stroke-miterlimit="8" fill="#FFFFFF" fill-rule="evenodd"/><g clip-path="url(#clip1)"><g clip-path="url(#clip2)"><g clip-path="url(#clip3)"><path d="M121.875 43.75 61.125 43.75C59.262 43.75 57.75 45.262 57.75 47.125L57.75 60.625C57.75 62.4914 59.262 64 61.125 64L64.5 64 64.5 84.25C64.5 86.1164 66.012 87.625 67.875 87.625L115.125 87.625C116.991 87.625 118.5 86.1164 118.5 84.25L118.5 64 121.875 64C123.741 64 125.25 62.4914 125.25 60.625L125.25 47.125C125.25 45.262 123.741 43.75 121.875 43.75ZM111.75 80.875 71.25 80.875 71.25 64 111.75 64 111.75 80.875ZM118.5 57.25 115.125 57.25 67.875 57.25 64.5 57.25 64.5 50.5 118.5 50.5 118.5 57.25Z"/><path d="M67.875 37 84.75 37C86.6164 37 88.125 35.488 88.125 33.625L88.125 16.75C88.125 14.887 86.6164 13.375 84.75 13.375L67.875 13.375C66.012 13.375 64.5 14.887 64.5 16.75L64.5 33.625C64.5 35.488 66.012 37 67.875 37ZM71.25 20.125 81.375 20.125 81.375 30.25 71.25 30.25 71.25 20.125Z"/><path d="M106.688 37C113.215 37 118.5 31.7114 118.5 25.1875 118.5 18.6636 113.215 13.375 106.688 13.375 100.16 13.375 94.875 18.6636 94.875 25.1875 94.875 31.7114 100.16 37 106.688 37ZM106.688 20.125C109.482 20.125 111.75 22.3896 111.75 25.1875 111.75 27.9854 109.482 30.25 106.688 30.25 103.893 30.25 101.625 27.9854 101.625 25.1875 101.625 22.3896 103.893 20.125 106.688 20.125Z"/></g></g></g><text font-family="Calibri,Calibri_MSFontService,sans-serif" font-weight="700" font-size="24" transform="translate(39.1122 126)">CAPABILITY</text></g></svg>