<svg width="96" height="96" xmlns="http://www.w3.org/2000/svg" xmlns:xlink="http://www.w3.org/1999/xlink" overflow="hidden"><defs><clipPath id="clip0"><path d="M0 0 96 0 96 96 0 96Z" fill-rule="evenodd" clip-rule="evenodd"/></clipPath><clipPath id="clip1"><path d="M26 5 67 5 67 46 26 46Z" fill-rule="evenodd" clip-rule="evenodd"/></clipPath><clipPath id="clip2"><path d="M26 5 67 5 67 46 26 46Z" fill-rule="evenodd" clip-rule="evenodd"/></clipPath><clipPath id="clip3"><path d="M26 5 67 5 67 46 26 46Z" fill-rule="evenodd" clip-rule="evenodd"/></clipPath></defs><g clip-path="url(#clip0)"><path d="M0 0 96 0 96 96 0 96Z" fill="#313131" fill-rule="evenodd"/><text fill="#FFFFFF" font-family="Calibri,Calibri_MSFontService,sans-serif" font-weight="300" font-size="5" transform="translate(9.60011 -3)">CAPABILITY</text><rect x="26.5001" y="5.50005" width="1" height="1" stroke="#2F528F" stroke-width="1.33333" stroke-miterlimit="8" fill="#4472C4"/><path d="M4.58866 0.500053 92.4114 0.500053C94.6695 0.500053 96.5001 2.33059 96.5001 4.58866L96.5001 93.3868C96.5001 95.1062 95.1062 96.5001 93.3868 96.5001L3.61333 96.5001C1.89392 96.5001 0.500053 95.1062 0.500053 93.3868L0.500053 4.58866C0.500053 2.33059 2.33059 0.500053 4.58866 0.500053Z" stroke="#911EB4" stroke-width="4.66667" stroke-miterlimit="8" fill="#FFFFFF" fill-rule="evenodd"/><g clip-path="url(#clip1)"><g clip-path="url(#clip2)"><g clip-path="url(#clip3)"><path d="M61.875 22.0833 31.125 22.0833C30.182 22.0833 29.4167 22.8487 29.4167 23.7917L29.4167 30.625C29.4167 31.5697 30.182 32.3333 31.125 32.3333L32.8333 32.3333 32.8333 42.5833C32.8333 43.528 33.5987 44.2917 34.5417 44.2917L58.4583 44.2917C59.403 44.2917 60.1667 43.528 60.1667 42.5833L60.1667 32.3333 61.875 32.3333C62.8197 32.3333 63.5833 31.5697 63.5833 30.625L63.5833 23.7917C63.5833 22.8487 62.8197 22.0833 61.875 22.0833ZM56.75 40.875 36.25 40.875 36.25 32.3333 56.75 32.3333 56.75 40.875ZM60.1667 28.9167 58.4583 28.9167 34.5417 28.9167 32.8333 28.9167 32.8333 25.5 60.1667 25.5 60.1667 28.9167Z"/><path d="M34.5417 18.6667 43.0833 18.6667C44.028 18.6667 44.7917 17.9013 44.7917 16.9583L44.7917 8.41667C44.7917 7.47367 44.028 6.70833 43.0833 6.70833L34.5417 6.70833C33.5987 6.70833 32.8333 7.47367 32.8333 8.41667L32.8333 16.9583C32.8333 17.9013 33.5987 18.6667 34.5417 18.6667ZM36.25 10.125 41.375 10.125 41.375 15.25 36.25 15.25 36.25 10.125Z"/><path d="M54.1875 18.6667C57.4914 18.6667 60.1667 15.9897 60.1667 12.6875 60.1667 9.38529 57.4914 6.70833 54.1875 6.70833 50.8836 6.70833 48.2083 9.38529 48.2083 12.6875 48.2083 15.9897 50.8836 18.6667 54.1875 18.6667ZM54.1875 10.125C55.602 10.125 56.75 11.2713 56.75 12.6875 56.75 14.1037 55.602 15.25 54.1875 15.25 52.773 15.25 51.625 14.1037 51.625 12.6875 51.625 11.2713 52.773 10.125 54.1875 10.125Z"/></g></g></g><text font-family="Calibri,Calibri_MSFontService,sans-serif" font-weight="700" transform="translate(19.5339 66)">CAPABILITY</text></g></svg>