<svg xmlns="http://www.w3.org/2000/svg" viewBox="0 0 113.8 46.65"><defs><style>.cls-1{fill:#231f20;}</style></defs><title>Asset 1</title><g id="Layer_2" data-name="Layer 2"><g id="Layer_1-2" data-name="Layer 1"><path class="cls-1" d="M67.84,42.9A8.5,8.5,0,0,0,72.14,44l-1,2.62a8.84,8.84,0,0,1-4.55-1.24A24.84,24.84,0,0,1,61.2,40.8a17.63,17.63,0,0,1-13.69,5.85,17.14,17.14,0,0,1-7.12-1.41,11.64,11.64,0,0,1-4.89-3.92,9.8,9.8,0,0,1-1.75-5.75,11.94,11.94,0,0,1,2.75-7.81,30.2,30.2,0,0,1,8.74-6.64,46,46,0,0,1-4.44-6.57,10.76,10.76,0,0,1-1.2-4.92,9.33,9.33,0,0,1,2.75-6.84A10,10,0,0,1,49.78,0,11,11,0,0,1,56.9,2.24a7.83,7.83,0,0,1,2.79,6.5,11.84,11.84,0,0,1-2.07,6.91q-2.05,3-7.91,6.3,2.9,3.78,4.68,6.05,4.13,5.24,6.67,8.33a22.77,22.77,0,0,0,2.79-6.81,31.41,31.41,0,0,0,.79-8.33l2.82.28a33,33,0,0,1-1,9.18A24.61,24.61,0,0,1,63,38.53,22.27,22.27,0,0,0,67.84,42.9ZM54,42.48a15,15,0,0,0,5.23-3.81q-3.51-4.14-7.15-8.74L47,23.46a31.8,31.8,0,0,0-7.78,5.75A9,9,0,0,0,37,35.36a7.4,7.4,0,0,0,3,6.13,11.5,11.5,0,0,0,7.32,2.34A16.33,16.33,0,0,0,54,42.48ZM44.69,4.82a6.4,6.4,0,0,0-1.86,4.74,8.74,8.74,0,0,0,.93,4,48.13,48.13,0,0,0,4.16,6.13q5.16-2.76,6.92-5.27a9.54,9.54,0,0,0,1.75-5.6,5.34,5.34,0,0,0-1.82-4.34A7.69,7.69,0,0,0,49.71,3,6.78,6.78,0,0,0,44.69,4.82Z"/><path class="cls-1" d="M32.13,43.29v3.17H0V1.05H31V4.22H3.44V21.76H25.25V25H3.44v18.3Z"/><path class="cls-1" d="M104.44,32.22H82.7L77.06,46.46H73.41L91.57,1.05h4.06L113.8,46.46h-3.65Zm-1.24-3.17L95.29,9.24,93.64,4.42h-.07L91.92,9.1,84,29.05Z"/></g></g></svg>